<svg width="419" height="446" viewBox="0 0 419 446" fill="none" xmlns="http://www.w3.org/2000/svg">
<path d="M335.215 373.3C334.015 373.8 333.115 374.4 332.015 374.7C331.115 374.9 330.315 375.6 329.715 376.3C329.015 377.1 328.215 377.9 327.315 378.6C326.415 379.3 325.515 380.2 325.215 381.4C324.915 382.6 324.115 383.4 322.815 383.8C321.615 384.1 320.715 384.9 319.815 385.8C319.215 386.4 318.515 387 318.015 387.7C317.315 388.5 316.415 389.2 315.415 389.7C313.815 390.5 312.515 391.7 311.515 393.2C310.615 394.7 309.315 395.8 307.815 396.5C307.215 396.8 306.715 397.1 306.315 397.6C305.315 398.9 303.915 399.7 302.415 400.3C301.515 400.7 300.815 401.3 300.115 401.9C299.515 402.5 298.815 403 298.015 403.5C296.415 404.5 294.715 405.4 292.915 406C292.215 406.2 291.515 406.8 290.915 407.3C289.815 408.3 288.815 409.2 287.415 409.7C286.315 410.1 285.515 411.1 284.615 411.9C283.515 412.9 282.415 414 281.215 414.9C279.815 415.9 278.315 416.6 276.915 417.4C275.915 418 274.915 418.7 273.915 419.4C272.515 420.4 271.115 421.2 269.415 421.6C268.115 421.9 266.815 422.4 265.815 423.4C265.215 423.9 264.515 424.3 263.815 424.6C262.215 425.2 260.615 426 259.315 427.3C258.915 427.7 258.215 428 257.715 428.2C256.315 428.6 254.915 428.9 253.515 429.2C252.215 429.4 251.015 429.8 250.015 430.6C249.215 431.3 248.215 431.6 247.315 432C246.315 432.4 245.315 432.9 244.315 433.4C242.315 434.4 240.215 435.1 238.315 436.2C237.315 436.8 236.015 437 234.915 437.3C233.515 437.7 232.215 438.3 230.915 438.9C228.815 440 226.615 440.9 224.115 441.1C222.515 441.2 220.915 441.6 219.715 442.7C218.815 443.4 217.915 443.7 216.815 443.6C215.315 443.4 214.015 443.8 212.915 445C212.515 445.5 211.915 445.5 211.415 445.5C209.415 445.5 207.515 445.3 205.915 444.3C204.815 443.7 203.715 443.4 202.515 443.5C200.815 443.7 199.315 443.2 198.015 442.3C197.115 441.6 196.015 441.2 194.915 441.2C192.815 441.2 190.815 440.4 188.915 439.5C188.215 439.2 187.615 438.9 187.015 438.5C185.815 437.9 184.615 437.4 183.215 437.1C181.615 436.8 179.915 436.3 178.615 435.3C177.915 434.8 177.115 434.4 176.215 434.4C175.815 434.4 175.415 434.4 175.015 434.1C173.115 432.9 170.915 432.3 168.915 431.5C168.615 431.4 168.315 431.3 168.115 431C166.715 429.4 164.615 429.1 162.715 428.6C160.815 428.1 159.115 427.4 157.715 426C157.315 425.6 156.815 425.4 156.315 425.2C154.915 424.7 153.615 423.9 152.315 423C151.315 422.2 150.115 421.6 148.915 421.4C147.415 421.2 146.315 420.4 145.115 419.6C143.915 418.7 142.615 417.9 141.315 417.1C140.115 416.3 138.815 415.7 137.615 414.9C137.215 414.7 136.815 414.3 136.315 414.2C135.115 413.9 134.215 413.2 133.315 412.3C132.615 411.6 131.815 410.8 131.115 410.1C130.815 409.8 130.515 409.5 130.215 409.4C129.115 409.2 128.415 408.5 127.615 407.8C126.315 406.7 125.015 405.7 123.515 404.9C121.615 403.9 119.815 402.8 118.215 401.3C117.215 400.4 115.915 399.9 114.815 399.2C114.215 398.8 113.415 398.6 113.015 398C112.215 396.9 111.115 396.3 110.015 395.7C109.115 395.2 108.315 394.5 107.715 393.6C106.415 391.7 104.815 390 102.615 389C101.815 388.6 101.215 388 100.615 387.3C99.115 385.7 97.515 384.4 95.315 383.7C93.515 383.1 92.215 382 91.915 380.1C91.715 379.3 91.115 378.7 90.415 378.3C89.215 377.5 88.215 376.5 87.215 375.4C86.715 374.8 86.115 374.3 85.315 374C84.715 373.8 84.215 373.4 83.615 373.1C83.115 372.8 82.815 372.3 82.815 371.7C82.815 370 81.915 368.9 80.615 367.9C79.215 366.9 78.115 365.7 77.215 364.3C76.615 363.3 75.715 362.4 74.815 361.6C74.015 360.9 73.415 360.1 72.815 359.2C72.015 357.9 71.115 356.7 70.015 355.7C68.215 354 67.015 351.8 65.715 349.8C65.715 349.8 65.715 349.6 65.615 349.6C64.315 347.8 63.115 345.9 62.215 343.9C61.915 343.2 61.215 342.7 60.715 342.1C60.015 341.4 59.315 340.6 58.815 339.7C58.315 338.8 57.515 338.1 56.715 337.5C55.815 336.8 55.215 336 54.915 334.8C54.515 333.4 54.015 331.9 52.815 330.8C51.915 329.8 51.215 328.6 50.715 327.3C50.115 325.7 49.415 324.2 48.615 322.7C48.215 321.9 47.615 321.2 47.015 320.7C46.015 319.8 45.315 318.7 45.015 317.5C44.715 316.2 44.115 315.1 43.215 314.2C42.415 313.4 41.915 312.6 42.015 311.4C42.115 310.2 41.415 309.3 40.915 308.3C40.515 307.4 40.115 306.6 40.115 305.6C40.115 304.8 39.815 304.3 39.315 303.7C38.615 302.9 38.115 302 37.815 301C37.315 299.2 36.615 297.5 36.115 295.8C35.915 295.2 35.715 294.6 35.715 293.9C35.615 291.8 34.915 290 33.415 288.5C32.815 287.9 32.415 287.2 32.415 286.4C32.315 284.7 31.915 283.2 31.215 281.6C30.715 280.4 30.715 279 30.515 277.6C30.315 276.4 30.015 275.3 29.715 274.1C29.515 273.2 29.315 272.4 29.015 271.6C28.615 270.6 28.215 269.5 27.715 268.5C27.515 268.1 27.215 267.6 27.115 267.2C26.915 264.6 25.715 262.1 25.515 259.5C25.515 258.3 24.715 257.1 24.315 255.9C24.215 255.6 24.015 255.3 23.915 255C23.815 252.8 22.915 250.8 22.815 248.7C22.815 246.8 22.015 245.2 21.515 243.4C20.815 242.8 20.915 242 20.915 241.2C20.915 239.5 20.015 236.1 19.215 234.5C19.215 234.3 19.015 234.1 18.915 233.8C18.915 232.3 18.815 231 17.615 229.8C17.415 229.6 17.415 228.9 17.615 228.4C18.015 227.3 17.815 226.4 17.115 225.5C16.415 224.5 15.915 223.2 15.715 221.9C15.615 221.1 15.315 220.4 15.115 219.6C14.715 218.1 14.315 216.7 14.515 215.1C14.515 214.6 14.515 214.1 14.415 213.7C13.915 212.3 13.915 210.9 14.015 209.4C14.015 208 14.015 206.6 13.415 205.2C12.815 203.5 12.515 201.7 12.515 199.8C12.515 198.6 12.515 197.4 11.915 196.3C11.415 195.2 11.615 194.1 11.515 193C11.315 192 10.915 191 10.715 190C10.615 189.5 10.715 189 10.715 188.6C10.715 188 10.815 187.4 10.715 186.9C10.115 185.3 10.015 183.5 9.41504 181.8C8.81504 180.3 8.81504 178.8 8.81504 177.3C8.81504 175.7 8.81504 174.1 8.81504 172.5C8.81504 171.3 8.81504 170.1 8.21504 169C7.91504 168.5 7.91504 167.9 7.91504 167.4C7.91504 166 8.01504 164.5 7.51504 163.1C7.41504 162.8 7.51504 162.3 7.61504 161.9C7.91504 161 7.81504 160.2 7.41504 159.3C6.71504 157.9 6.31504 156.5 6.81504 154.9C6.81504 154.8 6.81504 154.6 6.81504 154.4C6.51504 152.3 6.21504 150.1 5.51504 148.1C5.21504 147.3 4.91504 146.6 4.91504 145.8C4.91504 145 4.91504 144.2 4.91504 143.4C4.91504 142.6 4.91504 141.8 4.71504 141C4.31504 139.2 4.31504 137.5 4.71504 135.8C5.01504 134.4 5.01504 133.1 4.71504 131.8C4.31504 129.4 3.81504 127.1 3.91504 124.7C3.91504 124 3.71504 123.3 3.61504 122.6C3.61504 122.1 3.41504 121.6 3.41504 121.2C3.41504 119.4 3.41504 117.7 2.71504 116C2.51504 115.5 2.71504 114.9 2.71504 114.4C2.71504 113.3 2.91504 112.2 3.01504 111.1C3.01504 110.1 2.91504 109.2 2.41504 108.3C1.51504 106.6 1.31504 104.8 1.51504 102.9C1.51504 101.8 1.51504 100.7 1.21504 99.6C1.11504 99.2 1.21504 98.6 1.21504 98.2C1.71504 95.6 1.61504 93 1.21504 90.4C1.01504 89.3 1.01504 88.2 1.31504 87.1C1.61504 85.9 1.61504 84.8 1.11504 83.6C0.715038 82.8 0.615039 81.9 0.315039 81.1C0.115039 80.4 0.115039 79.7 0.315039 79C0.515039 78.4 0.615039 77.8 0.815039 77.2C1.01504 76.5 1.01504 75.8 0.815039 75.1C0.615039 74.2 0.51504 73.4 0.51504 72.5C0.51504 70.4 0.51504 68.3 0.51504 66.3C0.51504 65.2 0.715038 64.2 1.41504 63.4C2.21504 62.3 3.01504 61.2 3.81504 60.1C4.21504 59.6 4.81504 59.3 5.41504 59.3C7.91504 59.3 10.115 58.4 12.115 57.1C13.115 56.5 14.215 55.9 15.215 55.4C15.715 55.2 16.315 55 16.815 55C20.215 55 23.415 54.1 26.615 53.1C27.915 52.7 29.215 52.2 30.515 52.1C30.715 52.1 30.815 52.1 31.015 52.1C32.315 51.6 33.615 51 35.015 50.6C36.015 50.3 36.915 49.9 37.815 49.4C39.115 48.6 40.615 48.3 42.115 48.3C42.815 48.3 43.615 48.2 44.215 47.8C46.515 46.4 49.015 46.1 51.515 45.6C52.515 45.4 53.515 45.1 54.515 44.8C56.415 44.2 58.315 43.5 60.215 43C62.415 42.4 64.615 41.6 66.815 40.9C67.515 40.7 68.215 40.5 68.915 40.3C69.115 40.3 69.415 40.3 69.615 40.1C70.815 39 72.315 39.3 73.715 39.3C74.715 39.3 75.815 39.3 76.715 38.7C76.915 38.6 77.115 38.5 77.415 38.5C78.715 38.5 79.915 37.9 81.015 37.4C82.515 36.8 84.115 36 85.815 35.9H86.015C88.815 34.5 92.115 34.5 95.015 33.4C95.515 33.2 96.115 33.2 96.615 33.1C99.915 32.6 103.015 31.6 106.015 30.4C107.015 30 107.915 29.6 108.815 29.1C109.615 28.6 110.415 28.4 111.315 28.4C112.315 28.4 113.315 28.3 114.315 27.8C115.315 27.3 116.515 27.3 117.515 27C118.315 26.8 119.115 26.6 119.915 26.6C121.715 26.6 123.315 25.6 125.015 25.4C125.215 25.4 125.515 25.3 125.715 25.1C128.815 23.3 132.315 23 135.815 22.6C136.915 22.5 138.015 22.3 139.015 21.8C140.515 21 142.115 20.5 143.815 20.3C144.315 20.3 144.915 20 145.315 19.7C147.715 17.7 150.615 17.2 153.515 16.5C154.315 16.3 155.015 16.1 155.715 15.6C156.715 15 157.715 14.3 159.015 14.4C161.715 13.4 164.615 13.3 167.215 11.9C168.415 11.3 169.815 11 171.115 10.8C174.715 10.1 178.215 9.1 181.815 8.1C182.315 8 182.915 7.8 183.415 7.7C185.015 7.4 186.515 6.9 187.915 6.1C189.415 5.2 191.215 4.9 193.015 4.9C194.315 4.9 195.615 4.9 196.815 4.4C197.715 4 198.515 3.6 199.315 3.1C199.715 2.9 200.015 2.6 200.315 2.6C201.915 2.6 203.315 1.6 204.915 1.5C205.315 1.5 205.715 1.3 206.015 1.1C207.715 0.199997 209.415 0.299997 211.115 0.999997C211.715 1.2 212.315 1.5 212.915 1.5C213.815 1.5 214.615 1.7 215.415 2.1C215.615 2.2 215.915 2.3 216.115 2.3C217.615 2.3 218.915 3 220.115 3.7C221.515 4.5 223.015 5 224.715 4.9C227.215 4.9 229.415 5.4 231.515 6.7C231.915 6.9 232.415 7.2 232.815 7.2C235.215 7.6 237.515 8.1 239.715 9C241.615 9.7 243.515 10.1 245.515 10.6C247.015 11 248.315 11.7 249.915 11.7C250.215 11.7 250.515 12 250.715 12.1C251.815 12.5 252.915 13.2 254.115 13.3C256.115 13.5 258.015 14.2 259.915 14.5C261.115 14.7 261.915 15.4 263.015 15.8C263.415 15.9 263.715 16.3 264.115 16.3C265.815 16.3 267.315 17.3 269.015 17.4C270.015 17.4 270.915 17.9 271.615 18.6C272.615 19.6 273.815 20.1 275.215 20.3C276.515 20.5 277.715 20.9 278.815 21.5C279.915 22.1 281.015 22.4 282.215 22.5C284.215 22.8 286.215 23.1 288.115 23.5C289.315 23.8 290.315 24.3 291.415 24.8C291.715 24.9 291.915 25.2 292.215 25.2C294.015 25.6 295.815 26 297.615 26.3C299.415 26.6 301.215 26.9 303.015 27.3C303.215 27.3 303.515 27.3 303.715 27.5C304.515 28.2 305.515 28.3 306.415 28.2C307.615 28.2 308.715 28.5 309.815 29.1C313.015 30.8 316.415 31.9 319.915 32.6C320.815 32.8 321.615 32.9 322.415 33.3C324.015 34 325.715 34.5 327.515 34.5C328.015 34.5 328.415 34.7 328.815 34.9C330.115 35.6 331.515 35.9 332.915 35.9C333.515 35.9 334.215 36.1 334.815 36.3C336.115 36.8 337.415 37.6 338.715 37.9C340.815 38.4 342.815 39.6 345.215 39.2C346.315 39 347.315 39.2 348.415 39.9C349.615 40.6 351.115 40.9 352.515 41.3C354.615 41.9 356.615 42.5 358.715 43.1C360.115 43.5 361.415 44.2 362.715 44.7C363.615 45.1 364.515 45.3 365.515 45.5C367.315 45.8 369.115 46.1 370.915 46.5C371.715 46.7 372.515 47.1 373.315 47.6C374.215 48.1 375.115 48.3 376.115 48.2C377.415 48.2 378.615 48.4 379.815 49C381.115 49.6 382.415 50.3 383.715 50.7C385.415 51.2 386.915 52 388.715 52.2C390.115 52.4 391.415 53 392.815 53.4C395.115 54.1 397.415 54.8 399.815 54.8C401.615 54.8 403.115 55.7 404.415 56.7C405.915 57.8 407.615 58.1 409.115 59C409.515 59.2 410.015 59.2 410.515 59.2C411.115 59.2 411.815 59.2 412.415 59.2C413.415 59.2 414.215 59.5 414.715 60.5C415.015 61.2 415.715 61.7 416.215 62.3C417.015 63.3 417.515 64.4 417.515 65.8C417.515 69 417.515 72.2 417.515 75.4C417.515 76.5 417.515 77.6 418.115 78.7C418.615 79.5 418.615 80.4 418.315 81.3C417.815 82.7 417.315 84.2 416.815 85.6C417.015 86.3 417.115 87.1 417.315 87.9C417.615 89.1 417.715 90.2 417.015 91.4C416.815 91.8 416.815 92.3 416.915 92.8C417.115 93.7 417.215 94.5 416.915 95.4C416.615 96.2 416.715 97 417.115 97.7C417.615 98.7 417.615 99.7 417.115 100.7C416.715 101.5 416.615 102.4 416.915 103.3C417.415 104.9 416.915 106.5 416.315 107.9C416.015 108.7 415.715 109.4 415.715 110.2C415.715 111.6 415.715 113.1 415.715 114.5C415.715 115.7 415.815 116.9 415.215 118C414.715 118.8 414.815 119.7 414.915 120.6C415.015 121.4 414.915 122.2 414.915 123C414.915 126 414.315 128.9 413.915 131.8C413.615 133.9 413.615 135.9 414.215 138C414.315 138.5 414.415 139.1 414.215 139.7C413.815 141.3 413.715 142.9 413.915 144.5C414.015 146.1 413.715 147.5 412.915 148.9C411.815 150.9 411.415 153.1 411.515 155.3C411.515 156.9 411.515 158.3 410.615 159.7C410.215 160.4 410.115 161.2 410.115 162C410.115 162.8 410.115 163.6 410.115 164.4C410.115 166.6 409.915 168.7 409.215 170.8C408.815 172 408.815 173.3 408.615 174.6C408.615 175.2 408.515 175.9 408.615 176.5C409.215 178.1 408.715 179.7 408.415 181.2C408.115 182.5 407.815 183.8 407.515 185.2C407.515 185.5 407.515 185.9 407.315 186.1C406.715 187.3 406.515 188.5 406.815 189.8C406.915 190.3 406.715 190.9 406.515 191.4C406.215 192.2 406.115 193.1 406.015 194C406.015 195 405.715 196.1 405.415 197C404.915 198.5 404.715 200.1 404.715 201.7C404.715 203 404.515 204.2 404.015 205.4C403.615 206.4 403.615 207.6 403.615 208.7C403.615 209.6 403.615 210.5 403.615 211.3C403.615 211.9 403.615 212.5 403.315 212.9C402.615 213.9 402.615 215 402.715 216.1C402.715 217.5 402.415 218.8 402.115 220.1C401.615 222.3 401.115 224.4 400.315 226.6C400.215 227 400.215 227.4 400.315 227.8C400.415 229 400.315 230.2 399.715 231.3C399.715 231.4 399.515 231.6 399.515 231.7C399.515 234.5 398.115 236.9 397.815 239.6C397.815 240.2 397.515 240.8 397.415 241.5C397.415 242.4 397.115 243.2 396.815 244C396.115 245.8 395.415 247.6 395.515 249.6C395.515 250.3 395.315 251 395.115 251.7C395.115 252 395.015 252.3 394.915 252.6C394.515 254.9 393.915 257.1 392.915 259.2C392.615 259.8 392.715 260.6 392.615 261.3C392.615 262.2 392.615 263 392.015 263.8C391.815 264.1 391.715 264.5 391.715 264.9C391.715 266.3 391.315 267.6 390.715 268.8C389.815 270.5 389.315 272.4 388.915 274.2C388.415 276 388.215 277.8 387.915 279.6C387.815 280.5 387.615 281.3 387.215 282.1C386.715 283 386.415 284 386.415 285.1C386.415 286.8 386.015 288.2 384.615 289.4C383.815 290.1 383.515 290.9 383.315 291.9C383.215 292.8 382.915 293.6 382.715 294.5C382.315 297.1 381.215 299.5 380.415 302C380.215 302.5 379.915 303 379.515 303.4C378.715 304.4 378.315 305.5 378.215 306.7C378.215 307.3 378.015 308 377.615 308.5C376.815 309.6 376.615 310.8 376.315 312.1C376.115 312.9 376.015 313.7 375.415 314.3C374.315 315.3 373.715 316.6 373.415 318C373.215 319 372.715 319.8 371.715 320.2C370.215 320.8 369.315 322.1 368.615 323.4C367.915 324.8 367.215 326.3 366.615 327.7C366.215 328.9 365.615 329.8 364.715 330.7C363.615 331.9 362.815 333.3 362.615 334.9C362.415 336 361.915 337 361.115 337.8C360.515 338.3 360.015 339 359.715 339.7C359.215 340.8 358.515 341.5 357.715 342.3C356.715 343.3 355.715 344.3 355.415 345.8C355.315 346.5 354.815 347.2 354.315 347.6C353.015 348.8 352.415 350.5 351.515 352C350.515 353.6 349.515 355 348.115 356.3C347.315 357 346.415 357.8 345.915 358.8C345.215 360.2 344.115 361.2 343.015 362.2C342.315 362.9 341.615 363.7 341.115 364.6C340.615 365.6 340.015 366.3 339.115 366.9C338.815 367.1 338.515 367.4 338.215 367.6C336.915 368.7 335.715 369.9 335.615 371.7C335.615 372 335.415 372.3 335.215 372.7V373.3ZM403.415 83.2C403.215 82.6 402.915 82.1 402.815 81.6C402.815 81.1 402.615 80.4 402.815 80C403.615 78.8 403.315 77.5 403.415 76.3C403.415 75.1 403.115 74.1 402.415 73.2C401.515 72.1 400.515 71 399.015 70.6C398.015 70.3 397.115 69.9 396.115 69.4C393.415 68.1 390.515 67.5 387.515 67.4C386.515 67.4 385.415 67.2 384.515 66.8C383.215 66.1 381.815 65.5 380.415 64.9C378.815 64.2 377.315 63.2 375.615 62.8C373.815 62.3 372.115 61.4 370.115 61.5C369.015 61.5 367.915 61.2 366.815 61C366.015 60.8 365.215 60.7 364.515 60.3C363.515 59.7 362.415 59.4 361.315 59.3C359.815 59.1 358.315 58.7 356.915 58.4C355.415 58.1 354.115 57.4 352.815 56.5C351.215 55.4 349.515 54.7 347.515 54.4C344.815 54 342.215 53.4 339.815 52.1C337.915 51.1 335.915 50.3 333.715 50.5C333.315 50.5 332.915 50.5 332.515 50.5C331.115 50.6 329.815 50.3 328.615 49.6C326.915 48.6 325.215 48 323.215 47.7C322.915 47.7 322.615 47.6 322.315 47.4C320.315 46.3 318.115 45.9 315.915 45.7C315.315 45.7 314.815 45.6 314.315 45.4C311.815 44.7 309.315 44.3 307.115 42.9C306.715 42.7 306.215 42.6 305.715 42.4C304.215 42 302.615 41.7 301.115 41.1C299.915 40.6 298.815 40.5 297.615 40.4C296.815 40.4 296.015 40.3 295.315 40C293.915 39.6 292.415 39 291.015 38.5C290.215 38.2 289.415 37.7 288.615 37.6C286.915 37.4 285.515 36.2 283.815 36.3C282.115 35.4 280.215 35.5 278.415 35.5C277.315 35.5 276.215 35.2 275.215 34.7C274.615 34.4 274.115 34.1 273.515 33.8C272.315 33.2 271.115 32.6 269.715 32.6C268.915 32.6 268.115 32.2 267.415 31.9C264.715 30.8 261.915 29.8 259.015 29.1C257.615 28.8 256.115 28.6 254.915 27.9C253.815 27.4 252.815 27.3 251.715 27.2C250.715 27.2 249.615 27.2 248.715 26.6C248.315 26.4 247.815 26.3 247.315 26.2C246.515 26.2 245.815 25.9 245.015 25.6C243.815 25.1 242.715 24.3 241.415 24.4C240.315 24.4 239.515 24 238.815 23.3C238.215 22.6 237.415 22.3 236.515 22C233.815 21.1 230.915 20.5 228.115 20.1C225.915 19.7 223.715 19.3 221.715 18.3C220.215 17.6 218.615 17 216.915 17.1C216.215 17.1 215.515 16.9 214.815 16.6C213.315 16 211.815 15.4 210.415 14.8C209.015 14.1 207.715 14.2 206.315 14.8C205.115 15.3 204.015 15.9 202.915 16.5C202.215 16.9 201.515 17.1 200.615 17.1C199.515 17.1 198.615 17.3 197.615 17.7C196.315 18.3 194.915 18.7 193.615 19.1C190.815 20 187.815 20.3 184.915 20.9C182.615 21.4 180.315 21.8 178.715 23.6C178.215 24.2 177.415 24.3 176.715 24.2C175.615 24.2 174.515 24.5 173.415 24.9C171.915 25.4 170.515 26.3 168.815 26.2C168.415 26.2 168.115 26.5 167.715 26.6C167.215 26.8 166.615 26.9 166.115 27C164.915 27.1 163.715 27 162.715 27.8C162.515 28 162.115 27.9 161.815 28C160.315 28.4 158.715 28.8 157.215 29.2C153.515 30.3 150.115 32.1 146.315 32.7C145.715 32.7 145.115 33.1 144.515 33.4C143.915 33.7 143.315 34 142.815 34.3C141.715 34.9 140.615 35.2 139.415 35.2C138.715 35.2 138.015 35.2 137.215 35.2C135.915 35.2 134.715 35.4 133.415 35.8C132.215 36.2 130.915 36.2 129.815 37C127.815 37.1 126.015 38.1 124.215 38.9C122.615 39.6 120.815 40.3 118.915 40.1C118.415 40.1 117.915 40.1 117.515 40.3C115.515 41 113.515 41.8 111.315 42.2C111.015 42.2 110.715 42.4 110.415 42.6C108.915 43.7 107.215 44 105.515 44.5C104.015 44.9 102.615 45.2 101.015 45.4C99.015 45.6 97.115 46.1 95.115 46.6C94.115 46.8 93.215 47.3 92.115 47.5C90.515 47.9 88.915 48.4 87.515 49.4C86.815 49.9 86.115 50.1 85.315 50.1C84.215 50.1 83.115 50.1 81.915 50.1C81.415 50.1 80.915 50.1 80.515 50.4C79.815 50.9 79.015 51 78.315 51.3C76.415 52.2 74.615 53.1 72.515 53.5C71.815 53.6 71.115 53.9 70.415 53.9C69.115 53.9 67.915 54.3 66.715 54.9C65.615 55.5 64.415 56 63.415 56.9C63.115 57.2 62.715 57.3 62.315 57.4C60.115 58 58.015 58.8 55.815 58.8C54.415 58.8 53.115 59.2 51.915 59.8C51.415 60.1 50.915 60.2 50.315 60.3C47.915 60.9 45.415 60.9 43.115 62C41.415 62 40.115 62.9 38.715 63.6C36.615 64.6 34.415 65.6 32.215 66.5C31.615 66.8 30.815 66.9 30.115 66.9C26.515 67 23.215 67.8 20.015 69.5C19.415 69.8 18.715 70.2 18.015 70.1C16.415 70.1 15.515 71 14.615 72.1C14.015 72.9 13.215 73.7 13.315 74.8C13.315 76.3 13.115 77.8 13.615 79.3C13.815 79.8 13.815 80.4 13.615 80.9C13.315 82 13.315 83.1 13.815 84.2C14.215 85.2 14.215 86.1 14.015 87.2C13.615 89.2 13.615 91.3 14.015 93.4C14.415 95.3 14.515 97.2 14.015 99.1C13.815 100.1 13.815 101 14.015 101.9C14.215 102.7 14.415 103.5 14.615 104.2C15.015 105.2 15.115 106.2 15.115 107.3C15.115 109.4 15.115 111.5 15.315 113.5C15.315 114 15.315 114.5 15.515 114.9C15.915 116.2 16.215 117.5 16.215 118.9C16.215 119.3 16.215 119.7 16.515 120C17.315 121.5 17.315 123.1 16.915 124.7C16.215 127.6 16.915 130.4 17.515 133.2C17.715 134 17.915 134.7 18.115 135.5C18.215 136 18.315 136.5 18.515 136.9C19.115 137.8 19.015 138.7 18.815 139.7C18.815 140 18.615 140.3 18.515 140.6C18.115 142.9 17.515 145.1 18.915 147.3C19.315 148 19.515 149 19.515 149.8C19.515 151.2 20.015 152.5 20.515 153.7C20.915 154.6 21.015 155.4 20.515 156.2C20.115 156.8 19.915 157.7 20.315 158.3C20.915 159.2 20.815 160.4 21.315 161.2C22.215 162.5 22.015 163.7 21.315 165C21.015 165.7 20.915 166.4 21.315 167.1C21.915 168.3 22.015 169.5 22.015 170.8C22.015 171.7 22.015 172.6 22.415 173.4C22.815 174.1 22.815 174.9 22.615 175.7C22.215 177.4 22.715 182.6 23.315 184.2C23.315 184.2 23.315 184.3 23.315 184.4C23.915 185.7 24.415 187.1 24.315 188.6C24.315 188.8 24.315 189.1 24.315 189.3C24.615 191 24.915 192.8 25.215 194.5C25.615 196.9 25.815 199.4 26.615 201.8C26.715 202.2 26.615 202.7 26.615 203.2C26.415 205.1 26.715 207.1 27.315 208.9C27.715 210.2 27.915 211.4 27.915 212.6C27.915 214.6 27.915 216.6 28.715 218.5C29.115 219.4 29.215 220.4 29.415 221.3C29.615 221.9 29.615 222.6 30.015 223.1C30.815 224.1 30.715 225.2 30.815 226.3C30.815 227.2 30.815 228.3 31.115 229.1C31.515 230.1 31.615 231.1 31.615 232.1C31.615 233.3 31.615 234.5 32.215 235.6C32.515 236.2 32.615 237 32.615 237.7C32.815 240.8 33.515 243.7 34.915 246.4C35.215 247.1 35.415 247.7 35.415 248.4C35.415 249.3 35.215 250.2 35.515 251C36.115 252.7 36.215 254.4 36.715 256.1C36.915 256.7 37.015 257.4 37.215 257.9C37.615 258.8 37.715 259.7 37.815 260.7C38.115 263 38.615 265.2 40.315 267C40.915 267.7 41.215 268.5 41.115 269.4C41.015 270.7 41.415 271.9 41.815 273.1C42.115 273.8 42.315 274.5 42.315 275.2C42.315 277.2 43.115 278.9 44.115 280.6C44.515 281.3 44.715 282.1 44.915 282.8C45.315 284.2 45.415 285.6 45.915 287C46.815 289.5 47.615 292 48.415 294.5C48.715 295.3 49.015 296.1 49.615 296.8C50.215 297.5 50.515 298.3 50.615 299.2C50.815 302 52.215 304.4 53.115 306.9C53.615 308.2 54.615 309.1 55.715 309.9C56.615 310.5 57.115 311.3 57.415 312.4C57.815 313.8 58.315 315.3 59.315 316.5C59.815 317.1 60.115 317.9 60.415 318.6C61.215 320.8 62.415 322.8 64.215 324.3C65.315 325.2 66.015 326.4 66.615 327.8C67.415 329.6 68.215 331.4 69.115 333.2C69.915 334.7 70.715 336.1 72.015 337.3C73.215 338.4 74.015 339.8 74.615 341.3C74.915 342.1 75.415 343 76.015 343.5C78.315 345.5 80.315 347.7 82.115 350.1C82.115 350.2 82.315 350.4 82.415 350.5C84.015 352 85.015 354.1 86.715 355.6C86.915 355.8 87.115 356.1 87.215 356.4C87.715 357.6 88.615 358.3 89.615 358.9C90.915 359.7 92.115 360.6 92.715 362.1C93.015 362.8 93.415 363.4 94.115 363.7C95.815 364.3 97.115 365.4 98.115 366.9C98.115 367 98.315 367.1 98.415 367.3C100.115 368.9 101.415 370.8 102.415 372.9C102.615 373.2 102.915 373.6 103.215 373.8C105.215 375.2 106.715 377 108.615 378.5C109.215 379 109.815 379.5 110.515 380C113.215 381.7 115.815 383.6 117.815 386.1C118.315 386.8 119.115 387.3 119.815 387.7C120.715 388.2 121.715 388.6 122.715 388.8C123.515 389 124.315 389.3 124.815 389.9C126.315 391.5 128.115 392.9 129.915 394.2C130.815 394.9 131.715 395.5 132.815 395.9C133.915 396.3 134.815 396.9 135.615 397.6C135.915 397.9 136.315 398.2 136.715 398.5C139.015 399.8 141.115 401.4 143.215 402.9C144.515 403.7 145.915 404.4 147.115 405.2C148.915 406.5 150.815 407.6 152.915 408.5C153.515 408.7 154.115 409 154.715 409C155.915 409 156.915 409.5 157.815 410.2C158.615 410.8 159.415 411.5 160.215 412.2C161.515 413.4 162.915 414.5 164.615 415C166.815 415.7 168.915 416.7 171.015 417.7C172.015 418.2 173.015 418.7 174.115 419C175.115 419.3 176.015 419.7 176.815 420.4C177.715 421.2 178.815 421.8 180.015 421.9C181.215 421.9 182.215 422.4 183.115 422.9C183.915 423.3 184.615 423.8 185.415 424.1C187.015 424.8 188.615 425.5 190.215 426.2C192.015 427 193.915 427.8 195.915 427.7C196.515 427.7 197.215 427.9 197.715 428.2C199.515 429.2 201.415 430 203.415 430.6C204.415 430.9 205.415 431.2 206.415 431.1C210.215 431.1 213.815 430.2 217.215 428.4C218.115 427.9 218.915 427.6 219.915 427.6C220.415 427.6 221.015 427.4 221.515 427.3C223.215 427 224.915 426.3 226.515 425.6C228.615 424.7 230.815 423.8 232.715 422.5C233.315 422.1 233.815 421.9 234.415 421.8C236.315 421.6 238.015 421 239.415 419.7C239.715 419.4 240.015 419.2 240.415 419C241.915 418.3 243.415 417.6 244.915 416.8C246.515 416 248.215 415.3 250.015 414.7C252.115 414.1 254.115 413.1 255.815 411.4C256.215 411 256.715 410.7 257.115 410.3C258.115 409.4 259.215 408.9 260.515 408.7C261.015 408.7 261.615 408.5 262.115 408.3C264.315 407.3 266.515 406.4 268.315 404.7C268.515 404.5 268.815 404.3 269.115 404.2C270.915 403.5 272.415 402.3 274.015 401.2C275.615 400.1 277.215 399.1 278.715 398C280.315 396.9 281.615 395.4 283.415 394.8C283.515 394.8 283.715 394.7 283.815 394.5C285.615 392.8 287.915 391.6 289.415 389.7C289.515 389.5 289.815 389.4 289.915 389.2C290.315 388.8 290.815 388.5 291.415 388.5C292.615 388.5 293.615 388 294.615 387.6C296.015 387.2 297.115 386.3 298.015 385.1C298.315 384.7 298.515 384.3 298.915 384C300.315 382.9 301.715 381.6 303.315 380.7C305.015 379.7 306.515 378.4 308.115 377.1C309.515 376 310.815 374.8 312.115 373.6C312.715 373.1 313.215 372.4 313.515 371.7C315.015 368.7 317.415 366.5 319.715 364.1C320.615 363.1 321.715 362.3 322.215 361C322.415 360.5 323.015 360 323.515 359.6C323.915 359.2 324.415 358.9 324.915 358.6C326.015 357.8 327.115 357 327.515 355.6C327.615 355.2 327.915 354.9 328.215 354.7C330.615 352.4 333.215 350.2 335.215 347.6C335.215 347.6 335.315 347.5 335.415 347.4C336.615 346.2 337.915 344.9 339.215 343.7C340.015 342.9 340.715 342 341.115 341C342.015 339 343.215 337.3 344.815 335.7C345.415 335.1 345.915 334.4 346.315 333.6C347.215 331.5 348.315 329.4 349.315 327.3C349.915 326 350.615 324.8 351.815 323.9C353.015 322.9 353.815 321.7 354.515 320.3C355.315 318.4 356.115 316.5 357.315 314.8C357.815 314.1 358.015 313.2 358.315 312.4C358.615 311.2 359.115 310.1 360.015 309.3C361.015 308.2 361.715 307 362.115 305.6C362.315 305.1 362.415 304.5 362.715 304C363.815 302.2 364.215 300.2 364.515 298.1C364.515 297.5 364.815 297.1 365.215 296.6C366.015 295.8 366.415 294.8 366.715 293.7C367.015 292.6 367.315 291.6 367.615 290.5C367.815 289.4 368.515 288.3 368.915 287.2C369.415 285.7 370.015 284.2 370.315 282.7C370.515 282 370.715 281.3 371.215 280.8C372.915 279.3 373.415 277.3 373.715 275.3C373.815 274.4 374.015 273.6 374.315 272.7C374.615 271.9 374.815 271 374.715 270.1C374.515 268.7 375.015 267.6 375.915 266.6C376.815 265.7 377.315 264.5 377.515 263.2C377.615 262.2 377.815 261.2 378.115 260.1C378.315 259.2 378.415 258.2 378.815 257.3C379.215 256.5 379.315 255.7 379.415 254.8C379.415 254.1 379.415 253.2 379.715 252.7C380.515 251.4 380.415 250.1 380.415 248.8C380.415 247.8 380.615 247 381.115 246.1C382.415 243.6 383.215 240.9 383.315 238.1C383.315 237.5 383.515 236.9 383.715 236.2C383.915 235.3 384.115 234.3 384.315 233.4C384.615 231.5 384.915 229.6 385.215 227.7C385.215 227.3 385.215 226.9 385.215 226.5C385.215 225.2 385.415 224 386.115 222.8C386.415 222.3 386.515 221.6 386.715 221C386.815 220.5 386.915 220.1 387.015 219.6C387.915 216.9 388.515 214.2 388.515 211.4C388.515 210.4 388.515 209.3 388.915 208.3C389.415 207.1 389.515 205.8 389.515 204.6C389.515 203.6 389.515 202.7 389.515 201.7C389.515 201.2 389.515 200.6 389.815 200.3C390.515 199.4 390.415 198.3 390.515 197.3C390.615 196.3 390.815 195.2 391.015 194.2C391.215 193.1 391.315 192 391.515 190.9C392.015 188.6 391.915 186.1 393.115 184C393.315 183.7 393.315 183.4 393.315 183.1C393.615 181.5 393.915 180 394.115 178.4C394.215 177.5 394.315 176.6 394.115 175.8C393.915 174.8 393.915 173.9 394.115 173C394.315 172.5 394.315 171.9 394.315 171.3C394.315 169.8 394.515 168.5 395.015 167.1C395.215 166.4 395.415 165.4 395.215 164.8C394.615 163.1 394.915 161.5 395.615 159.9C395.715 159.6 395.815 159.3 395.915 159C396.415 157.8 396.415 156.7 396.115 155.5C395.915 154.9 395.815 154.2 396.115 153.6C396.715 152.1 397.015 150.6 397.015 148.9C397.015 148.5 397.215 148.1 397.415 147.8C397.615 147.2 397.815 146.6 398.115 146C398.515 144.9 398.715 143.9 398.515 142.7C398.215 141.5 398.115 140.2 398.015 138.9C398.015 138 398.015 137.1 398.215 136.3C399.015 133.6 398.915 130.8 399.715 128.1C399.715 127.8 399.715 127.5 399.715 127.1C399.515 125.5 399.315 123.9 399.115 122.4C399.015 121.6 399.015 120.8 399.315 120.1C399.715 119.4 399.715 118.6 399.815 117.8C399.815 115.3 400.615 112.9 400.315 110.4C400.315 110.2 400.315 110.1 400.315 109.9C400.715 108.8 400.715 107.7 400.615 106.6C400.615 105.3 400.615 104.1 401.215 102.9C401.415 102.4 401.515 101.8 401.515 101.3C401.515 100 401.315 98.8 401.315 97.5C401.315 96.7 401.015 95.9 401.315 95.1C401.915 92.2 401.815 89.4 401.615 86.5C401.615 85 401.515 83.5 402.415 82.2L403.415 83.2Z" fill="white"/>
<path d="M208.115 36.6C208.615 36.6 209.115 36.6 209.515 36.7C212.215 37.7 215.315 37.8 217.915 39.3C218.815 39.8 219.915 39.9 220.915 40C222.715 40.2 224.515 40.5 226.215 41.4C227.415 42 228.715 42.5 230.115 42.5C230.515 42.5 230.915 42.5 231.315 42.7C234.215 43.9 237.215 44.6 240.215 45.5C241.615 45.9 242.915 46.5 244.215 47C244.915 47.2 245.615 47.6 246.315 47.6C248.015 47.6 249.415 48.3 250.815 49.1C251.215 49.3 251.715 49.6 252.115 49.6C253.615 49.6 254.915 50.3 256.315 50.5C258.015 50.8 259.515 51.5 261.115 52C264.215 53 267.215 54.2 270.515 54.5C271.715 54.6 272.915 55.2 274.115 55.7C275.715 56.4 277.315 57.1 278.915 57.8C279.415 58 280.015 58.1 280.515 58.3C281.715 58.6 283.015 59 284.215 59.3C284.715 59.4 285.315 59.6 285.815 59.7C286.715 59.7 287.515 59.9 288.315 60.4C289.615 61.2 291.015 61.7 292.415 62.2C292.815 62.4 293.315 62.5 293.815 62.6C294.715 62.6 295.515 62.9 296.315 63.2C296.715 63.4 297.215 63.4 297.715 63.5C298.115 63.5 298.615 63.5 298.915 63.7C300.515 64.5 302.315 64.6 303.915 65.1C305.515 65.6 307.115 66 308.715 66.5C310.115 67 311.515 67.6 312.915 68.2C314.115 68.7 315.315 69 316.615 68.9C317.415 68.9 318.215 69 318.915 69.3C321.515 70.2 324.215 71 326.815 71.9C327.515 72.1 328.215 72.3 328.815 72.7C330.015 73.3 331.115 73.6 332.415 73.8C333.915 74.1 335.315 74.5 336.815 74.7C337.815 74.8 338.715 75.5 339.715 75.9C340.315 76.1 340.915 76.4 341.515 76.4C343.015 76.4 344.315 76.9 345.615 77.5C347.015 78.1 348.415 78.7 349.815 79.2C352.515 80 355.215 80.7 357.915 81.4C358.415 81.5 358.815 81.7 359.315 81.7C360.615 81.7 361.815 82.1 363.015 82.7C365.315 83.8 367.715 84.7 370.315 84.6C371.115 84.6 371.715 84.9 372.215 85.4C373.115 86.3 373.815 87.4 374.415 88.5C374.815 89.3 375.015 90.1 374.815 91C374.615 91.7 374.815 92.6 374.815 93.4C375.015 94.8 375.115 96.3 374.815 97.7C374.515 98.6 374.515 99.6 374.815 100.5C375.015 101 375.015 101.6 375.215 102.1C375.415 102.9 375.515 103.7 375.115 104.4C374.415 105.7 374.515 107 374.515 108.4C374.515 111.3 374.515 114.2 374.515 117C374.515 117.6 374.415 118.1 374.315 118.7C374.315 119.4 374.115 120.2 374.315 120.8C374.615 122 374.315 123.2 373.915 124.3C373.215 126.1 373.115 127.9 373.215 129.7C373.215 131.1 373.315 132.4 372.815 133.7C372.815 133.8 372.815 134 372.815 134.2C373.015 136.5 372.415 138.8 372.315 141.1C372.315 142.1 372.215 143 371.815 143.9C371.015 145.7 371.115 147.6 371.515 149.5C371.715 150.2 371.915 150.9 371.615 151.6C371.115 152.8 371.215 154.1 371.215 155.4C371.215 156.4 371.115 157.3 370.515 158.1C369.515 159.7 369.215 161.5 369.315 163.4C369.315 164.2 369.315 165 369.315 165.8C369.315 166.3 369.315 166.8 369.015 167.2C368.315 168.1 368.415 169.2 368.415 170.2C368.415 171.6 368.415 173.1 368.415 174.5C368.415 175.5 368.415 176.6 367.815 177.5C367.615 177.9 367.615 178.4 367.515 178.9C367.515 180 367.515 181.1 367.515 182.3C367.515 184.1 367.515 185.9 366.815 187.7C366.315 188.8 366.115 190 366.115 191.2C366.115 192.9 365.715 194.5 365.415 196.2C365.015 198.5 364.615 200.7 364.415 203C364.315 204.4 363.715 205.8 363.415 207.2C363.315 207.8 363.215 208.5 363.415 209.1C363.615 210.2 363.615 211.3 363.315 212.4C363.215 212.8 363.115 213.2 363.215 213.6C363.215 214.8 363.015 216 362.615 217.1C362.415 217.6 362.415 218 362.315 218.5C362.015 219.8 361.715 221.1 361.415 222.5C361.215 223.3 361.015 224 360.915 224.8C360.715 226.4 360.515 228 360.315 229.5C360.315 229.9 360.015 230.2 359.915 230.6C359.715 231.3 359.515 232 359.315 232.7C358.715 234.8 358.615 237.1 357.715 239.2C357.415 239.8 357.515 240.6 357.415 241.3C357.415 242.2 357.315 243 356.915 243.9C356.715 244.3 356.615 244.8 356.515 245.3C356.515 246.2 356.115 247 355.815 247.8C355.215 249.4 355.015 251 354.615 252.7C354.115 255.1 353.815 257.5 352.815 259.9C351.815 262.6 351.215 265.4 350.715 268.2C350.615 269 350.315 269.7 350.115 270.5C350.015 271 349.715 271.6 349.715 272.1C349.715 273.5 349.215 274.7 348.315 275.8C347.715 276.5 347.315 277.4 347.115 278.4C346.915 279.8 346.315 281.2 345.915 282.5C345.315 284.2 344.715 286 343.715 287.5C343.715 287.6 343.515 287.8 343.515 287.9C343.515 289.2 342.815 290.3 342.415 291.5C342.015 292.6 341.815 293.8 341.515 295C341.515 295.4 341.315 295.8 341.115 296.1C340.115 297.4 339.415 298.8 338.915 300.3C338.815 300.6 338.615 300.9 338.415 301.1C336.715 303 335.815 305.5 334.715 307.8C334.215 308.9 333.615 309.9 332.615 310.6C331.615 311.2 331.115 312.3 330.615 313.2C330.315 313.7 330.015 314.1 329.715 314.6C328.715 316.3 327.715 318 326.215 319.4C325.915 319.7 325.615 320.2 325.415 320.6C324.315 322.5 323.315 324.5 322.115 326.4C321.515 327.5 320.815 328.6 319.815 329.5C318.515 330.8 317.415 332.2 316.815 334.1C316.615 334.7 316.115 335.2 315.715 335.7C315.215 336.3 314.615 336.8 314.115 337.5C313.015 339.1 311.715 340.4 310.315 341.8C309.515 342.6 308.915 343.8 308.115 344.6C307.315 345.4 306.215 346 305.315 346.8C304.615 347.4 303.915 348.2 303.215 348.8C302.415 349.6 301.615 350.4 301.215 351.4C300.815 352.2 300.215 352.8 299.415 353.3C298.115 354 297.015 354.9 296.115 356C295.215 357 294.215 357.7 292.915 358.1C291.515 358.6 290.415 359.5 289.615 360.7C288.815 361.8 287.915 362.8 286.715 363.5C285.615 364.2 284.715 365.3 283.515 366C282.415 366.7 281.315 367.3 280.315 368.1C279.815 368.6 279.215 369 278.515 369.3C276.615 370.4 274.915 371.7 273.615 373.4C273.015 374.2 272.115 374.8 271.215 375.4C267.715 377.6 264.215 379.9 260.815 382.3C259.315 383.4 257.715 384.2 256.015 384.9C255.115 385.2 254.315 385.7 253.415 386.1C252.515 386.5 251.515 386.9 250.515 387.3C249.715 387.7 248.815 387.9 248.215 388.5C246.815 390 244.915 390.3 243.115 391C242.715 391.2 242.115 391.2 241.815 391.5C239.715 393.1 237.215 393.7 235.015 395C233.815 395.7 232.415 396.1 231.215 397C231.015 397.2 230.615 397.3 230.315 397.3C228.815 397.3 227.515 398.1 226.315 398.7C224.515 399.6 222.715 400.3 220.815 400.9C220.615 400.9 220.315 401.1 220.115 401.1C218.515 401.1 217.215 401.8 215.915 402.5C215.215 402.9 214.515 403.1 213.615 403.1C212.715 403.1 211.815 403.3 211.115 403.9C210.215 404.7 209.215 404.7 208.115 404.5C207.215 404.3 206.215 404.1 205.415 403.7C204.615 403.3 203.815 403 202.915 403.1C201.615 403.2 200.515 402.8 199.515 402.2C198.415 401.6 197.315 401.3 196.115 401.1C194.115 400.7 192.215 399.9 190.315 399C188.915 398.3 187.515 397.6 185.915 397.3C185.315 397.2 184.715 396.9 184.115 396.6C182.415 395.7 180.715 394.8 179.015 394C175.915 392.6 172.815 391 169.515 390.2C168.715 390 168.015 389.7 167.415 389.1C166.415 388.3 165.315 387.7 164.215 387.2C163.915 387.1 163.615 387 163.415 386.8C162.315 385.8 161.015 385.2 159.715 384.8C158.315 384.4 157.115 383.6 155.915 382.8C153.615 381.2 151.215 379.8 148.915 378.2C148.015 377.6 147.115 376.9 146.215 376.3C145.915 376.1 145.715 375.8 145.515 375.7C143.915 375.2 143.115 374 142.115 372.8C141.015 371.6 139.615 370.6 138.215 369.7C136.215 368.4 134.115 367.2 132.015 366.1C131.415 365.8 130.815 365.3 130.315 364.8C129.615 364.1 128.915 363.6 128.015 363.1C127.315 362.7 126.815 362.1 126.315 361.4C125.415 360.2 124.415 359.1 123.115 358.3C121.915 357.5 120.815 356.7 119.915 355.5C119.315 354.8 118.615 354.1 117.715 353.7C116.515 353.2 115.615 352.4 115.115 351.1C114.915 350.5 114.515 350 114.015 349.5C112.415 348 110.915 346.3 109.015 345C108.415 344.6 107.915 344.1 107.515 343.5C107.015 342.6 106.315 341.8 105.515 341.1C104.215 340 103.115 338.8 102.215 337.3C102.015 337 101.715 336.7 101.415 336.4C100.415 335.5 99.715 334.4 99.215 333C98.715 331.7 97.915 330.6 96.615 329.9C95.315 329.1 94.315 328 93.615 326.6C92.415 324.5 91.015 322.6 90.115 320.4C89.915 319.8 89.415 319.4 88.915 318.9C87.115 317.1 86.015 314.9 84.815 312.7C84.515 312.1 84.315 311.5 83.915 311C82.215 309 81.315 306.6 80.215 304.3C79.915 303.7 79.615 303 79.215 302.5C78.315 301.3 77.315 300.2 77.015 298.6C76.915 298 76.515 297.4 76.115 297C75.315 296 74.915 295 74.815 293.7C74.715 292.6 74.215 291.6 73.915 290.5C73.815 290.1 73.615 289.8 73.515 289.4C73.415 288.3 72.815 287.3 72.315 286.3C71.215 284.4 70.615 282.3 70.115 280.2C69.615 278.4 69.215 276.5 68.015 274.9C67.715 274.5 67.315 274.1 67.315 273.7C67.215 271.3 66.215 269.1 65.515 266.8V266.6C65.615 264.7 65.015 263 64.415 261.2C64.215 260.5 64.115 259.8 63.715 259.2C63.015 257.8 62.715 256.3 62.415 254.8C62.115 253.1 61.815 251.3 61.515 249.6C61.515 249.2 61.415 248.8 61.215 248.4C60.315 246.4 60.015 244.1 59.415 242C59.315 241.5 59.215 240.9 59.115 240.4C59.115 240.2 59.115 239.9 59.115 239.7C58.815 238.6 58.415 237.6 58.215 236.5C58.015 235.4 58.015 234.3 57.615 233.2C57.115 232.1 56.815 231 56.315 229.9C55.515 228.1 54.815 226.2 55.115 224.1C55.115 223.9 55.115 223.6 55.115 223.4C54.315 222.1 54.215 220.5 53.715 219.1C53.415 218 53.115 216.9 52.815 215.9C52.715 215.4 52.615 215 52.515 214.5C52.515 212.6 52.515 210.7 52.415 208.7C52.415 207.6 52.315 206.5 51.915 205.4C51.515 204.4 51.515 203.2 51.315 202.1C51.015 200.1 50.815 198 50.415 196C49.615 192.6 49.615 189 48.515 185.7C48.115 184.5 48.015 183.4 48.115 182.2C48.115 181.2 48.115 180.1 48.115 179.1C48.115 178.4 48.015 177.7 47.715 177C47.315 175.8 47.115 174.5 47.215 173.2C47.215 172 47.215 170.8 47.215 169.6C47.215 168.6 47.215 167.5 46.715 166.6C46.415 166 46.415 165.4 46.415 164.7C46.415 163.6 46.415 162.5 46.415 161.3C46.415 160.3 46.415 159.2 45.715 158.3C45.215 157.5 45.315 156.6 45.315 155.7C45.315 154.3 45.315 153 44.715 151.7C44.315 150.9 44.415 150 44.915 149.2C45.515 148.2 45.515 147.2 45.215 146.2C44.515 143.9 44.615 141.6 44.415 139.3C44.215 136.9 44.215 134.5 43.715 132.2C43.515 131.4 43.715 130.6 43.615 129.8C43.615 128.6 43.615 127.4 43.615 126.2C43.615 125.7 43.615 125 43.215 124.6C42.515 123.6 42.515 122.5 42.515 121.4C42.515 116.8 42.515 112.1 42.515 107.5C42.515 106.8 42.515 106 42.215 105.4C41.415 103.9 41.415 102.3 41.815 100.8C42.115 99.6 42.115 98.5 41.815 97.3C41.615 96.5 41.515 95.5 41.715 94.7C42.015 93.2 42.015 91.7 42.015 90.2C42.015 89.1 42.215 88 43.015 87.1C43.515 86.5 43.915 85.8 44.415 85.2C44.815 84.6 45.415 84.4 46.115 84.4C48.215 84.4 50.015 83.5 51.815 82.9C53.615 82.3 55.315 81.5 57.315 81.5C58.815 81.5 60.315 80.9 61.715 80.6C63.215 80.2 64.815 79.8 66.315 79.3C68.315 78.6 70.215 77.9 72.115 77.1C73.015 76.7 73.915 76.4 74.815 76.4C75.615 76.4 76.315 76.2 77.115 75.8C78.515 75.1 80.015 74.7 81.615 74.3C83.215 74 84.815 73.5 86.315 72.8C88.215 71.9 90.215 71.3 92.115 70.7C94.015 70.1 95.915 69.6 97.915 69.1C98.415 69 99.015 68.8 99.515 68.8C102.215 68.8 104.715 67.9 107.115 66.8C107.315 66.7 107.515 66.5 107.715 66.5C110.315 65.8 112.915 65.1 115.615 64.4C116.115 64.3 116.615 64 117.215 63.9C117.515 63.8 117.815 63.6 118.115 63.6C119.315 63.6 120.415 63 121.615 62.7C123.715 62.2 125.615 61.3 127.515 60.3C128.015 60 128.515 59.7 129.015 59.7C130.515 59.7 132.015 59.2 133.415 58.7C133.615 58.7 133.915 58.6 134.115 58.6C137.315 58.2 140.215 56.8 143.115 55.5C144.515 54.9 145.915 54.4 147.415 54.3C149.315 54.1 151.215 53.7 153.015 52.9C154.315 52.3 155.715 52.1 157.115 51.5C159.315 50.6 161.715 50.2 163.915 49.5C164.215 49.5 164.515 49.3 164.815 49.1C166.415 48.4 168.015 47.7 169.815 47.4C171.015 47.2 172.215 46.9 173.215 46.4C175.115 45.6 177.215 45.3 179.215 44.7C181.115 44.1 183.015 43.5 184.915 42.9C185.715 42.7 186.415 42.4 187.215 42.4C188.515 42.4 189.815 42 190.815 41.3C192.115 40.4 193.615 40.2 195.115 40C196.815 39.8 198.415 39.7 199.815 38.6C201.115 38.4 202.315 37.5 203.715 37.4C204.215 37.4 204.615 37.2 205.115 37C206.015 36.5 206.915 36.4 207.915 36.4L208.115 36.6ZM145.815 205.7C144.015 205.3 142.515 205.7 140.915 206.6C139.515 207.4 138.015 208.2 136.515 208.9C136.115 209.1 135.615 209.3 135.215 209.4C133.915 209.4 133.215 210.2 132.715 211.3C132.415 211.9 132.015 212.6 131.515 213C130.615 213.8 130.415 214.7 130.415 215.8C130.415 219 131.215 222.1 132.415 225.1C133.215 227.1 134.315 228.8 136.215 229.9C137.515 230.7 138.715 231.7 139.315 233.1C140.315 235.6 142.515 237.3 143.715 239.6C143.915 239.9 144.215 240.2 144.615 240.4C146.315 241.6 147.415 243.5 148.515 245.2C149.115 246.1 149.615 247.1 150.515 247.9C150.915 248.2 151.315 248.6 151.415 249C151.715 250 152.515 250.6 153.215 251.1C154.215 251.9 155.015 252.9 155.415 254.1C155.915 255.5 156.515 256.9 157.915 257.8C158.415 258.2 158.715 258.8 158.915 259.4C159.615 261.2 160.815 262.7 162.615 263.6C163.715 264.1 164.515 264.9 165.015 265.9C165.915 267.8 167.515 269 168.915 270.4C170.215 271.7 171.515 273 172.815 274.3C173.915 275.4 175.115 276.5 176.015 277.8C177.015 279.3 178.515 279.9 179.715 281.2C180.115 281.7 180.715 282 181.215 282.4C182.015 283.1 182.615 283.8 183.115 284.8C183.615 285.8 184.315 286.7 185.015 287.6C185.615 288.4 186.415 289.2 186.815 290.1C187.615 291.8 188.815 293.2 190.015 294.5C191.415 295.9 192.515 297.4 193.315 299.2C193.915 300.5 194.715 301.5 196.315 301.7C196.515 301.7 196.815 301.9 197.015 302C198.715 302.9 200.515 303.1 202.315 303.1C203.815 303.1 205.115 302.5 205.915 301.1C206.515 300 207.315 299.2 208.115 298.3C209.315 297.1 210.415 295.6 210.915 293.9C211.115 293.4 211.415 292.9 211.615 292.4C212.115 291.6 212.715 290.9 213.015 289.9C213.315 289 213.915 288.1 214.815 287.4C216.015 286.4 216.815 285.2 217.315 283.7C217.915 281.8 218.915 280.1 220.415 278.6C221.815 277.2 222.615 275.3 223.615 273.6C223.815 273.3 223.815 273 223.815 272.7C224.015 270.7 225.015 269.1 226.215 267.6C227.615 265.9 228.915 264 229.715 261.9C230.415 260 231.415 258.3 232.815 256.8C234.015 255.5 234.815 253.9 235.015 252.1C235.115 250.7 235.715 249.5 236.515 248.4C237.515 246.9 238.615 245.4 239.315 243.7C239.815 242.4 240.315 241 240.815 239.7C241.015 239.3 241.115 238.8 241.415 238.4C242.215 237.3 243.115 236.3 244.015 235.3C244.815 234.5 245.415 233.5 245.615 232.4C245.615 231.9 245.915 231.3 246.015 230.8C246.215 229.3 247.015 228.2 248.415 227.4C249.515 226.8 250.315 225.9 250.715 224.8C251.215 223.6 251.515 222.4 251.715 221.1C251.915 220.2 252.115 219.4 252.715 218.7C253.415 217.8 254.115 216.9 254.515 215.9C255.415 213.6 256.815 211.5 258.415 209.6C259.715 208.1 260.415 206.4 260.915 204.5C261.015 204 261.115 203.5 261.315 203.1C262.615 200.8 263.615 198.4 265.415 196.4C265.715 196.1 266.015 195.6 266.115 195.1C266.415 193 267.715 191.3 268.615 189.5C270.015 186.6 272.015 184.2 273.315 181.2C274.115 179.4 275.315 177.8 276.315 176.1C276.515 175.8 276.715 175.6 276.815 175.3C278.115 172.1 280.115 169.3 281.815 166.3C282.715 164.7 283.415 163 284.015 161.3C284.615 159.6 285.415 158 286.615 156.8C287.715 155.7 288.415 154.4 288.915 152.9C289.115 152.2 289.615 151.6 289.915 151C290.415 150.2 291.015 149.4 291.415 148.6C292.015 147.4 292.715 146.4 293.615 145.5C294.115 145 294.615 144.5 295.115 144C295.915 143.2 296.515 142.2 296.915 141.2C297.915 138.2 299.315 135.3 300.715 132.5C301.515 130.9 302.315 129.4 302.815 127.7C303.015 127.1 303.315 126.5 303.615 126C304.015 125.4 304.215 124.9 304.215 124.2C304.215 123.6 304.415 122.9 304.615 122.3C305.115 120.7 304.615 119.3 303.515 118.1C302.915 117.5 302.215 116.9 301.415 116.5C300.815 116.2 300.115 115.8 299.715 115.2C298.715 114 297.415 113.6 295.915 113.4C294.915 113.3 293.915 113.1 292.815 112.9C292.215 112.9 291.515 112.9 290.915 112.9C290.415 112.9 289.815 113.2 289.315 113.3C287.015 113.8 284.915 114.5 283.315 116.4C283.015 116.8 282.615 117 282.215 117.4C281.315 118.2 280.415 119 279.615 119.9C279.115 120.4 278.615 121 278.515 121.7C278.115 123.6 277.115 125.1 276.315 126.8C275.815 127.8 275.215 128.8 274.315 129.5C273.215 130.4 272.615 131.6 272.115 132.9C271.715 133.9 271.215 135 271.015 136C270.815 137.3 269.815 138 269.315 139.1C269.015 139.9 268.515 140.7 268.215 141.5C268.015 141.9 267.915 142.4 267.615 142.8C265.115 146.3 263.315 150.3 261.115 153.9C260.515 154.8 260.315 156 259.915 157C259.615 157.7 259.415 158.4 258.915 158.9C258.215 159.6 257.915 160.5 257.515 161.4C257.115 162.3 256.515 163 255.715 163.6C254.115 164.8 252.715 166.3 252.215 168.3C251.815 169.7 251.115 170.9 250.115 172C249.115 173.1 248.615 174.4 248.115 175.8C247.315 177.9 246.315 179.8 244.915 181.6C243.515 183.3 242.515 185.3 241.615 187.4C240.615 189.7 239.615 191.9 238.215 194C237.115 195.6 236.015 197.2 235.915 199.2C235.915 199.4 235.815 199.7 235.615 199.9C234.815 201.1 234.115 202.4 233.115 203.4C231.415 205.2 230.415 207.3 229.715 209.6C229.315 210.8 228.815 212 227.915 212.9C226.715 214.2 225.715 215.6 225.315 217.4C225.115 218.4 224.715 219.4 223.615 219.9C223.315 220.1 223.015 220.7 223.015 221.1C223.115 222.6 222.515 223.8 221.915 224.9C221.115 226.3 220.515 227.8 219.115 228.8C218.315 229.3 217.915 230.3 217.615 231.2C216.815 233.2 216.015 235.2 214.315 236.7C213.715 237.3 213.215 238.1 213.015 238.9C212.715 240 212.115 240.9 211.415 241.8C209.915 243.6 208.615 245.5 207.515 247.5C206.715 249 205.915 250.6 205.015 252.2C204.315 253.4 203.615 254.5 203.015 255.7C202.515 256.6 202.215 257.6 201.815 258.5C201.115 259.9 200.415 261.1 199.215 262.1C198.215 263 197.215 263.1 196.315 262.1C195.715 261.6 195.315 260.9 194.815 260.3C194.315 259.7 193.915 258.9 193.315 258.4C190.615 256.1 189.015 252.9 187.215 249.9C186.115 248 185.015 246 183.415 244.4C182.215 243.2 181.015 242 180.315 240.5C180.215 240.2 179.915 240 179.715 239.8C178.915 238.8 178.015 237.9 177.315 236.8C176.815 236.1 176.415 235.3 176.115 234.5C175.915 234 175.715 233.5 175.215 233.2C173.715 232.3 172.615 231.1 171.915 229.6C171.915 229.5 171.715 229.4 171.615 229.2C170.115 227 167.915 225.4 167.115 222.8C167.115 222.6 166.815 222.4 166.715 222.2C166.315 221.6 165.815 221.1 165.415 220.5C164.915 219.7 164.315 219 163.515 218.4C162.315 217.5 161.315 216.4 160.815 214.9C160.615 214.2 160.015 213.5 159.315 213.1C157.915 212.2 156.915 211 155.815 209.9C154.615 208.6 152.915 207.9 151.615 206.8C149.815 206.6 148.215 205.3 146.315 205.7H145.815Z" fill="white"/>
</svg>
