<?xml version="1.0" encoding="UTF-8"?>
<svg width="75px" height="92px" viewBox="0 0 75 92" version="1.1" xmlns="http://www.w3.org/2000/svg" xmlns:xlink="http://www.w3.org/1999/xlink">
    <!-- Generator: Sketch 53 (72520) - https://sketchapp.com -->
    <title>Sleep_Easier</title>
    <desc>Created with Sketch.</desc>
    <g id="1.1.1-SBS-Payroll" stroke="none" stroke-width="1" fill="none" fill-rule="evenodd">
        <g id="Sleep_Easier">
            <polygon id="Mask" fill="#F9AC84" points="38.18475 54.34725 24.0735 44.9385 28.236 38.6985 36.62475 44.28975 49.476 28.22475 55.3335 32.91225"></polygon>
            <path d="M61.794375,22.575 L37.404375,8.63625 L13.014375,22.575 L9.294375,16.065 L37.404375,2.27373675e-13 L65.514375,16.065 L61.794375,22.575 Z M11.25,72.6615 L-1.13686838e-13,23.9115 L7.30875,22.22775 L18.55875,70.97775 L11.25,72.6615 Z M63.5595,72.6615 L56.25075,70.97775 L67.50075,22.22775 L74.8095,23.9115 L63.5595,72.6615 Z M37.40475,91.50675 L20.15475,78.56925 L24.65475,72.56925 L37.40475,82.13175 L50.15475,72.56925 L54.65475,78.56925 L37.40475,91.50675 Z" id="Mask" fill="#F2635D"></path>
        </g>
    </g>
</svg>