<svg width="451" height="452" viewBox="0 0 451 452" fill="none" xmlns="http://www.w3.org/2000/svg">
<path fill-rule="evenodd" clip-rule="evenodd" d="M450.044 236.906C449.444 233.106 450.144 230.006 450.344 226.106C450.344 221.406 449.844 216.606 449.644 211.906C449.044 208.606 447.644 204.506 449.044 201.106C449.244 200.006 448.844 199.206 448.544 198.406C447.444 194.906 446.944 190.906 446.644 187.106C446.644 184.806 447.044 183.006 445.644 180.806C443.244 176.706 443.944 171.306 442.444 167.006C439.944 160.806 438.044 154.106 436.544 147.506C435.744 145.006 433.944 143.106 433.744 140.306C433.244 138.206 431.444 136.906 430.644 134.806C430.044 132.706 429.644 130.606 428.844 128.706C428.544 127.406 427.444 126.406 426.844 125.306C425.544 123.406 424.444 120.306 423.644 118.006C419.344 111.906 415.544 105.306 411.444 99.0063C408.644 95.4063 405.844 91.3063 402.544 88.0063C401.344 86.4063 401.544 84.4063 400.044 83.0063C397.944 81.7063 396.644 79.4063 395.544 77.5063C394.944 76.8063 394.044 76.4063 393.244 75.8063C391.944 74.7063 391.244 72.5063 389.744 71.3063C387.544 69.4063 384.944 68.1063 383.144 65.6063C381.644 63.2063 379.944 61.0063 377.644 59.6063C373.544 56.5063 369.344 53.1063 365.744 49.5063C362.744 47.4063 359.544 44.9063 356.644 42.5063C353.244 41.3063 351.244 38.3063 348.244 36.1063C347.144 35.1063 345.744 34.4063 344.344 34.1063C341.144 33.6063 340.144 30.8063 337.544 29.5063C335.844 28.5063 333.644 28.4063 331.944 27.5063C330.344 26.4063 329.244 24.3063 327.244 23.6063C324.644 22.5063 322.444 22.6063 320.144 20.9063C319.144 20.1063 318.144 19.6062 316.944 19.3062C314.644 19.0062 312.544 18.2063 310.644 17.0063C308.944 16.2063 306.644 16.1063 305.044 15.1063C302.944 14.1063 300.144 12.7062 297.844 11.8062C294.844 11.1062 292.044 10.9063 289.044 10.4063C283.844 8.00625 278.344 6.70625 272.644 6.10625C268.944 4.50625 264.344 3.50625 260.344 3.40625C257.844 3.40625 255.944 1.80625 253.544 1.20625C249.144 1.10625 245.044 1.80625 240.944 0.10625C239.444 -0.19375 237.944 0.20625 236.444 0.50625C233.044 0.50625 230.444 0.00625044 227.244 0.20625C222.744 0.20625 218.344 0.60625 213.844 0.10625C211.244 0.40625 208.744 0.606251 206.144 0.406251C199.444 2.40625 191.744 0.906251 185.444 4.30625C180.144 6.50625 173.844 4.40625 168.744 7.20625C166.544 8.70625 163.944 8.60625 161.444 9.30625C159.444 9.90625 157.344 9.70625 155.344 10.7063C152.144 11.3063 149.744 13.7063 146.644 14.6063C140.044 16.0063 133.944 18.8063 128.244 22.5063C124.844 25.3063 120.444 25.8063 116.544 27.4063C114.644 29.1063 111.644 29.6063 109.544 31.2063C108.544 32.2063 107.644 33.3062 106.644 34.3062C105.744 35.2062 106.444 36.6063 107.144 37.6063C109.544 40.8063 110.844 45.0063 114.144 47.6063C119.044 54.3063 119.444 59.8063 129.144 54.5063C133.344 52.6063 137.144 50.1063 140.844 47.5063C145.644 46.5063 149.644 44.2062 154.344 43.2062C157.644 41.8062 161.044 40.7062 164.444 39.2062C166.144 37.9062 168.444 37.6062 170.444 37.0062C173.444 35.7062 176.844 36.8062 180.044 35.8062C188.444 32.8062 197.444 30.5063 206.344 29.9063C211.144 30.3063 215.644 29.4063 220.544 29.4063C221.244 29.5063 221.644 29.4062 221.944 29.8062C222.144 30.1062 221.944 30.6063 221.844 30.9063C221.444 32.2063 222.544 33.2062 222.744 34.5062C223.044 36.9062 221.944 39.8062 222.444 42.3062C222.444 46.7062 222.744 50.8062 223.244 55.4062C222.844 59.6062 222.244 63.2063 223.144 67.3063C224.044 72.6063 221.644 77.9063 223.444 83.0063C224.444 85.8063 223.244 88.9063 223.644 91.7063C224.244 93.5063 223.644 101.106 221.144 101.406C218.544 101.006 215.444 101.806 212.844 101.906C208.744 101.406 202.944 102.706 197.744 101.906C196.344 101.506 195.644 100.906 194.544 100.906C192.944 101.106 190.044 102.106 188.044 101.906C186.344 101.706 184.944 102.406 183.044 101.906C181.844 101.606 180.744 101.106 179.444 100.906C175.844 100.706 172.244 100.706 168.844 100.606C165.544 100.806 162.444 102.806 159.044 101.806C153.844 101.106 148.244 101.806 143.044 102.806C139.544 102.806 136.844 103.606 133.444 104.606C131.044 105.206 128.044 104.806 126.344 106.606C124.544 108.506 124.544 111.506 125.044 113.806C125.844 115.606 127.144 115.806 129.044 117.006C131.044 118.206 133.744 117.506 135.744 117.506C137.344 117.506 138.744 118.506 140.344 118.606C142.444 118.606 144.244 116.906 146.344 117.306C147.944 117.606 149.544 117.306 151.644 117.106C153.844 117.106 156.344 117.806 158.444 117.806C161.744 117.506 164.944 115.306 168.344 115.406C169.944 115.406 172.044 116.406 173.544 116.506C175.744 116.506 177.744 115.806 180.244 115.906C184.744 114.906 188.744 116.006 193.244 115.506C195.944 115.506 198.944 116.206 201.844 116.006C206.944 116.706 208.244 117.306 213.144 115.506C214.744 115.306 216.244 116.106 217.844 116.306C219.344 116.506 221.244 115.706 222.044 115.806C224.544 116.806 222.744 121.206 222.644 123.406C222.744 129.006 223.744 133.906 223.544 139.406C223.244 142.606 224.744 145.406 223.544 148.406C222.544 150.806 223.544 152.906 223.244 155.306C223.144 157.306 222.544 159.406 223.044 161.406C223.544 163.206 224.144 164.006 223.844 165.606C222.844 168.306 223.044 171.106 223.244 173.906C223.244 176.406 223.344 179.106 223.044 181.906C223.044 183.906 222.044 185.906 222.644 187.806C224.144 190.806 223.344 194.206 223.244 197.406C224.344 200.406 223.744 203.406 224.244 206.506C224.644 210.206 223.144 214.106 222.944 217.906C222.944 221.306 209.644 220.006 206.844 220.006C204.544 219.606 203.044 220.106 201.044 220.106C197.244 218.306 195.044 219.006 190.944 219.706C184.944 220.506 183.544 217.406 176.744 220.006C173.544 220.506 169.344 219.006 166.444 219.506C164.344 220.106 162.744 219.406 160.944 219.006C157.744 219.006 154.644 220.106 151.544 219.506C148.644 218.506 145.544 219.306 142.644 218.706C140.844 218.506 139.344 219.606 137.644 219.706C134.544 219.706 131.544 220.506 129.144 217.806C127.144 216.606 127.644 215.606 127.844 213.706C127.844 212.706 127.244 211.906 127.144 210.706C127.144 209.406 127.944 208.306 127.944 206.906C128.144 205.806 127.644 204.206 127.644 202.906C127.844 201.006 128.444 199.606 128.044 197.706C127.144 194.806 127.944 192.006 128.544 189.206C129.244 185.906 128.744 183.006 129.044 179.806C129.744 176.906 130.144 174.206 130.444 171.106C131.444 165.906 130.844 157.006 124.544 155.806C122.644 156.006 120.744 158.006 119.144 158.606C117.544 159.306 117.444 160.806 117.144 162.206C116.644 163.806 115.244 165.006 115.344 166.806C115.344 168.106 115.144 169.706 114.744 171.006C113.144 175.106 115.244 180.706 113.844 184.606C114.344 187.206 113.044 190.306 112.344 192.906C112.044 196.506 113.044 200.806 112.444 204.506C112.044 208.006 111.644 210.806 112.044 214.306C112.044 215.606 112.644 217.406 111.644 218.406C110.844 219.106 109.444 218.806 108.444 218.706C105.344 218.406 102.444 219.706 99.0436 219.206C93.1436 217.006 93.5436 218.906 87.8436 219.206C84.2436 219.206 80.5436 219.406 76.9436 219.106C74.6436 218.606 72.9436 217.306 70.5436 218.106C68.9436 218.806 66.9436 218.106 65.7436 219.006C65.0436 220.406 63.4436 219.106 62.1436 219.206C60.7436 219.306 58.5436 219.906 56.5436 219.206C54.0436 218.406 51.7436 219.206 49.3436 219.806C45.6436 220.406 42.1436 218.006 38.6436 219.506C35.7436 220.306 31.5436 219.906 29.3436 217.806C27.7436 215.106 29.3436 211.306 29.1436 208.306C29.1436 207.106 28.9436 206.106 29.1436 205.006C30.2436 199.906 31.4436 194.906 32.2436 189.806C32.5436 188.306 33.3436 187.206 33.4436 185.706C33.4436 184.406 33.0436 182.606 33.2436 181.006C33.7436 178.406 35.2436 176.806 35.4436 174.106C36.8436 171.706 37.2436 168.806 37.6436 166.106C39.5436 161.406 41.0436 156.306 43.6436 151.906C44.4436 148.506 46.1436 145.006 48.3436 142.306C49.4436 141.006 48.4436 139.506 49.2436 137.806C49.9436 136.406 51.1436 135.506 52.0436 134.306C52.9436 133.206 52.9436 131.306 53.7436 130.106C54.4436 129.006 55.4436 128.706 56.0436 127.806C56.5436 125.406 57.8436 123.206 59.3436 121.106C60.6436 119.906 61.0436 118.506 62.0436 117.206C62.8436 116.306 64.1436 115.806 65.1436 114.906C67.9436 111.706 70.5436 108.006 71.7436 103.906C72.9436 99.4062 78.4436 97.7063 77.2436 103.906C76.7436 110.306 72.9436 141.406 79.8436 142.706C85.8436 145.806 104.744 145.706 109.244 140.206C110.344 138.206 110.744 135.506 111.644 133.306C111.944 132.306 111.944 131.206 111.744 130.206C111.144 126.406 112.844 122.606 111.044 118.806C110.444 116.706 111.544 114.506 111.544 112.306C111.844 109.206 110.644 106.906 110.044 104.206C109.644 102.006 110.344 100.606 110.344 98.2063C110.344 95.8063 109.344 93.6063 109.344 91.2063C109.344 79.7063 109.344 68.4063 107.644 57.1063C106.544 46.8063 93.3436 47.9062 85.7436 46.4062C81.2436 46.6062 76.7436 46.2062 72.3436 45.4062C68.4436 45.6062 64.8436 45.0062 61.0436 44.4062C58.1436 44.4062 55.2436 44.4062 52.7436 43.2062C49.3436 41.8062 45.5436 42.3062 41.9436 42.2062C39.9436 42.0062 38.1436 41.5062 36.1436 41.7062C35.2436 41.7062 35.1436 41.4062 34.7436 40.9062C34.4436 40.6062 34.2436 40.7062 33.7436 40.9062C32.5436 41.4062 31.2436 41.6062 29.9436 41.3062C27.1436 40.3062 25.1436 41.1063 22.2436 42.0063C20.5436 42.4063 18.6436 42.6062 17.2436 43.9062C14.4436 47.0062 14.1436 51.3062 13.7436 55.2062C12.2436 59.9062 13.9436 64.8063 13.5436 69.7063C13.6436 75.5063 19.7436 77.8063 24.5436 78.8063C27.2436 79.0063 30.6436 77.6063 33.7436 78.0063C41.1436 80.7063 46.2436 79.7063 54.2436 79.4062C58.7436 80.4062 53.3436 82.4063 51.9436 83.2063C49.3436 85.5063 47.8436 89.0063 44.7436 90.7063C42.7436 92.0063 42.8436 94.8063 41.6436 96.7063C40.6436 98.2063 38.8436 98.8063 37.7436 100.306C36.5436 102.406 35.5436 104.806 33.8436 106.606C32.3436 108.606 31.7436 111.206 30.7436 113.506C29.0436 115.906 27.6436 118.206 26.5436 121.006C25.5436 123.406 23.3436 125.206 22.1436 127.606C21.1436 131.206 20.3436 134.606 18.5436 137.706C16.8436 140.706 16.1436 144.006 14.8436 147.106C12.3436 151.406 10.8436 156.206 9.94358 161.206C9.04358 163.406 7.34358 165.606 6.84358 168.006C6.84358 168.706 7.54358 169.706 7.34358 170.506C7.04358 172.306 5.44358 173.506 4.94358 175.206C4.34358 179.406 2.84358 183.806 3.64358 188.006C4.04358 192.006 2.94358 195.806 1.44358 199.406C1.14358 201.006 1.74358 202.306 1.74358 204.106C1.44358 207.706 0.143583 211.106 0.643583 214.806C0.643583 215.706 0.643583 216.406 0.643583 217.306C1.04358 221.006 -0.456417 224.106 0.143583 228.006C0.843583 231.206 0.343583 234.206 0.443583 237.406C0.743583 242.406 1.34358 248.406 1.54358 253.506C1.84358 255.106 2.94358 256.206 2.94358 258.006C2.94358 258.806 2.74358 259.606 2.74358 260.406C2.94358 261.906 2.74358 263.506 3.14358 265.106C5.14358 267.806 5.84358 270.906 5.64358 274.006C5.74358 276.406 6.64358 279.206 6.94358 281.506C10.0436 286.906 10.3436 293.606 12.4436 299.406C13.3436 301.906 15.2436 303.606 15.2436 306.306C15.7436 309.706 17.9436 312.806 19.0436 316.106C20.3436 319.906 23.0436 322.806 24.8436 326.406C26.8436 333.106 31.1436 338.506 34.6436 344.506C35.6436 347.106 37.5436 349.306 39.2436 351.606C40.0436 353.006 40.5436 355.006 41.4436 356.206C42.4436 357.506 43.7436 358.106 44.8436 359.406C45.9436 360.706 46.5436 362.706 47.6436 364.206C49.0436 366.106 51.0436 367.406 52.3436 369.306C55.3436 373.306 58.9436 376.606 61.0436 381.106C63.0436 382.506 65.2436 383.906 66.3436 386.106C67.7436 388.106 70.0436 388.906 71.9436 390.306C74.0436 392.206 75.1436 394.706 76.9436 396.806C79.2436 398.606 82.6436 399.406 84.8436 401.106C86.2436 402.106 86.7436 403.606 87.9436 404.706C90.0436 406.106 92.5436 407.506 94.4436 409.506C97.2436 410.906 99.3436 412.706 102.344 414.206C104.844 414.906 106.444 417.006 108.344 418.506C114.844 421.006 120.644 425.206 126.644 428.506C130.044 430.506 133.844 431.806 137.744 433.006C141.344 434.506 144.644 436.506 148.244 437.706C152.144 438.706 156.444 438.706 159.944 441.006C164.744 442.606 169.744 443.406 174.444 445.406C176.344 446.406 179.344 446.906 181.544 446.906C182.744 447.106 183.644 447.806 184.844 448.006C186.044 448.206 187.244 448.006 188.544 448.306C190.744 448.306 192.244 449.606 194.244 449.906C196.044 449.506 198.344 449.906 199.644 450.506C201.644 450.806 203.544 449.606 205.644 449.906C207.444 449.906 209.344 451.006 211.244 451.206C213.344 451.406 215.344 450.606 217.444 450.706C220.444 451.406 223.344 451.306 226.544 451.006C228.344 451.006 230.044 451.606 231.844 451.406C235.244 450.406 239.144 451.806 242.344 450.806C245.744 449.206 250.044 449.706 253.744 449.606C256.744 449.306 259.844 448.506 262.744 448.206C265.844 447.006 268.844 447.106 272.044 446.806C275.044 446.606 277.744 445.006 280.644 444.106C283.744 443.106 286.844 442.506 290.044 441.706C294.844 440.606 299.444 438.606 303.944 436.906C307.044 435.706 310.344 435.206 313.244 433.406C316.644 432.006 320.144 430.506 323.644 429.406C325.344 428.806 326.544 427.006 328.344 426.406C333.244 425.506 332.444 425.106 335.744 422.006C337.144 421.106 338.944 420.606 340.344 419.506C342.144 418.206 343.044 416.406 344.944 415.506C350.044 413.906 350.844 414.006 354.544 410.106C360.444 407.506 364.044 401.806 369.444 398.606C372.544 396.406 374.644 394.606 377.344 391.806C378.444 390.406 379.344 388.606 381.044 387.806C383.444 386.606 385.344 384.806 387.644 383.006C389.444 380.506 390.644 377.706 392.944 375.606C397.344 369.606 403.744 364.906 407.444 358.306C412.244 351.706 415.744 344.806 420.744 338.306C422.744 334.206 424.044 329.306 426.944 325.906C429.544 321.906 430.644 317.106 432.944 312.906C434.244 307.306 438.244 302.806 438.944 297.006C439.244 291.906 442.144 288.206 443.044 283.206C443.244 281.306 444.344 279.206 445.044 277.706C445.244 276.706 444.544 275.706 444.744 274.606C445.244 270.706 446.344 267.006 447.744 263.406C448.244 259.206 449.244 254.606 449.544 250.606C448.244 245.906 451.244 242.406 450.544 237.606L450.044 236.906ZM128.144 236.206C128.144 235.506 128.144 234.706 128.544 234.206C132.044 232.506 136.744 233.306 140.644 232.706C143.444 232.706 146.044 233.906 148.944 233.506C153.944 234.106 159.944 232.006 165.144 233.106C167.844 233.106 171.544 232.006 174.044 233.806C177.844 233.706 182.344 233.406 186.244 232.906C190.044 232.106 193.644 232.606 197.444 233.406C201.644 233.706 205.844 233.206 209.944 232.806C213.044 233.906 215.944 234.606 219.344 233.806C223.744 232.706 224.044 237.706 222.744 240.506C222.744 243.406 222.444 246.206 222.044 249.206C221.644 252.006 223.244 254.306 223.044 257.006C223.144 259.106 222.344 260.806 222.444 262.906C222.444 264.906 223.644 266.506 223.844 268.206C223.544 270.306 223.744 272.206 223.144 274.406C222.344 277.506 222.744 280.706 221.744 283.506C223.444 287.106 223.544 291.206 221.844 294.706C223.244 298.706 223.044 299.006 222.444 303.306C222.444 306.006 223.444 308.806 222.744 311.606C222.544 312.406 222.344 313.206 222.344 314.006C222.844 315.906 222.344 317.906 222.744 319.806C223.544 322.206 221.944 324.906 222.644 327.306C223.444 330.606 222.644 334.506 222.344 337.806C222.544 339.106 222.844 340.906 222.544 342.106C222.444 343.206 222.544 343.906 222.044 344.306C218.444 345.206 213.844 344.006 210.044 344.006C206.644 344.206 203.544 345.306 200.044 344.806C196.044 344.206 192.044 344.306 188.044 344.306C180.744 344.006 174.044 345.206 166.744 344.806C164.444 344.806 162.444 343.406 160.044 344.006C156.244 344.306 150.744 345.606 148.244 342.106C145.844 337.006 143.544 331.206 142.644 325.906C140.644 324.806 141.144 322.806 140.544 320.906C139.044 317.306 137.544 313.906 136.744 310.106C136.044 305.406 137.844 306.606 134.744 301.806C134.244 300.506 134.944 299.106 134.344 297.906C132.144 294.106 131.944 289.106 130.944 284.706C131.044 281.206 130.344 277.806 130.344 274.506C128.344 270.906 128.244 266.406 127.944 262.306C128.544 256.406 130.144 260.306 127.844 253.606C127.844 246.306 128.544 241.006 128.044 235.906L128.144 236.206ZM76.3436 344.606C71.3436 344.306 65.6436 345.306 63.3436 339.506C62.8436 337.806 61.1436 337.206 60.6436 335.306C60.4436 334.306 60.0436 333.206 59.2436 332.506C54.8436 327.506 52.2436 321.206 48.9436 315.406C47.9436 313.206 46.3436 310.906 46.2436 308.506C45.7436 307.406 44.6436 306.006 44.5436 304.606C43.5436 302.206 42.2436 300.106 41.3436 297.706C40.7436 296.106 41.3436 294.306 39.7436 293.106C36.8436 288.306 35.9436 282.306 33.9436 277.206C33.4436 274.606 33.8436 272.206 32.7436 269.806C32.2436 267.906 32.7436 266.406 32.3436 264.606C31.9436 263.206 30.9436 262.306 30.9436 260.606C31.1436 258.106 30.1436 256.106 29.0436 254.106C26.5436 248.606 31.1436 244.206 27.9436 238.606C27.9436 236.706 26.7436 232.406 29.9436 232.906C34.5436 233.306 40.6436 232.406 45.4436 234.206C47.1436 234.206 48.3436 233.106 50.2436 232.906C52.1436 232.506 53.8436 233.406 55.7436 233.106C57.5436 232.706 58.6436 232.906 60.6436 233.406C62.5436 233.606 64.8436 232.806 66.5436 233.206C70.0436 233.706 71.4436 235.206 74.7436 232.906C84.3436 232.706 94.7436 231.506 104.244 234.006C108.644 233.306 115.744 232.706 112.244 239.306C111.844 240.306 112.244 241.506 112.744 242.506C115.144 247.306 112.244 252.006 112.444 256.906C112.644 258.406 113.644 259.306 114.344 260.506C115.244 262.306 115.244 265.006 115.444 267.106C115.344 269.106 114.844 270.606 116.144 272.306C116.744 274.306 117.244 277.506 117.244 279.606C116.344 281.306 116.044 283.106 117.644 284.606C119.344 287.106 117.744 290.306 118.244 293.206C118.544 294.506 119.344 294.906 119.444 296.006C119.444 296.906 119.344 297.806 119.444 298.706C119.644 300.406 120.844 301.806 121.344 303.306C121.644 306.006 122.244 307.606 123.344 310.106C124.844 315.506 124.544 321.606 126.744 326.706C127.744 327.806 129.044 329.106 129.344 330.706C130.044 334.906 134.144 338.506 132.644 342.506C131.644 344.306 129.344 344.306 127.644 344.606C126.044 345.306 124.444 344.506 122.744 344.506C120.944 344.906 120.044 345.006 118.044 344.506C115.344 344.306 112.444 344.506 109.744 344.506C106.444 343.506 103.444 343.406 100.244 345.006C98.4436 345.506 96.7436 344.506 94.5436 344.506C88.7436 344.406 82.1436 346.006 76.5436 344.706L76.3436 344.606ZM175.244 417.806C174.844 417.906 173.844 417.706 173.344 417.406C172.244 416.906 171.244 416.206 170.244 415.806C169.044 415.306 167.444 415.306 166.244 415.006C164.744 414.706 163.744 413.606 162.244 412.906C160.744 412.006 158.844 412.206 157.144 411.606C155.044 410.906 153.544 409.006 151.044 408.906C148.844 408.806 147.044 407.206 145.144 406.506C143.744 405.906 141.944 405.306 140.344 404.706C139.144 404.106 138.344 403.106 137.044 402.406C133.844 401.206 130.744 400.006 128.044 397.906C125.144 396.606 122.444 395.106 120.044 392.906C118.944 391.906 117.344 391.606 116.044 390.806C114.744 389.706 113.344 388.406 111.944 387.506C110.444 386.306 108.444 385.606 106.744 384.506C105.544 383.606 105.144 382.106 103.744 381.006C102.944 380.406 101.844 380.006 100.944 379.506C99.5436 378.806 99.0436 377.606 98.1436 377.006C96.2436 375.806 94.4436 374.806 92.8436 372.906C91.4436 371.506 91.6436 369.306 90.0436 368.206C88.7436 367.306 86.6436 367.306 85.8436 366.006C85.2436 365.206 85.1436 364.106 84.3436 363.506C83.5436 362.606 76.7436 358.606 80.8436 358.206C82.4436 358.206 83.8436 358.906 85.4436 358.906C88.1436 358.806 90.9436 358.506 93.7436 358.306C94.5436 358.306 95.5436 358.306 96.2436 358.706C97.2436 359.406 98.0436 359.706 99.2436 359.406C101.244 359.106 103.044 358.706 104.844 358.206C108.444 357.806 112.244 358.206 115.844 358.006C117.244 358.006 118.244 357.506 119.444 357.506C120.744 357.506 122.044 358.106 123.544 358.006C127.944 358.006 132.444 358.006 136.844 358.006C139.944 358.006 140.344 360.606 141.444 363.006C142.244 364.706 143.844 365.706 144.744 367.306C145.644 369.106 146.044 371.506 147.044 372.906C147.944 374.206 149.144 375.306 150.044 376.606C150.644 377.706 150.644 379.006 151.144 380.006C152.144 381.606 153.444 383.606 154.444 385.306C155.344 386.606 156.644 387.506 157.544 388.706C158.744 390.306 159.144 392.306 160.344 393.906C161.844 395.806 162.444 398.306 163.744 400.306C164.644 401.806 166.344 402.806 167.544 404.006C168.344 404.906 168.644 406.206 169.444 407.506C170.744 409.306 172.844 411.006 173.644 412.806C174.244 414.206 175.044 415.506 175.444 417.006C175.444 417.206 175.444 417.306 175.244 417.406V417.806ZM223.144 406.706C223.344 407.306 223.544 408.006 223.544 408.706C223.544 409.706 223.044 410.606 222.844 411.506C222.644 412.706 223.044 413.906 222.844 415.106C222.144 417.906 226.844 424.006 220.744 423.206C218.644 423.006 216.944 422.606 215.444 422.706C214.644 422.806 213.944 423.106 213.244 422.906C212.444 422.706 211.644 422.306 210.944 422.106C209.844 421.706 208.344 422.106 207.344 422.106C206.444 422.106 205.544 422.106 204.644 422.106C202.344 422.106 199.444 422.206 198.244 419.806C197.244 417.806 195.744 416.006 193.744 415.106C192.944 414.706 192.244 414.206 191.844 413.406C190.544 410.806 188.844 409.106 186.444 407.406C185.344 406.706 184.344 405.806 183.844 404.506C183.344 403.606 183.144 402.406 182.744 401.706C181.644 400.006 179.944 398.806 178.844 396.906C177.544 395.406 176.944 393.806 175.944 392.306C175.044 391.106 173.944 390.206 172.944 389.006C171.244 387.006 170.744 384.006 169.344 381.706C168.844 380.906 168.144 380.406 167.744 379.706C167.044 378.406 166.644 377.506 166.044 375.906C165.744 375.006 165.544 374.006 164.944 373.406C164.444 372.706 163.644 372.406 162.944 372.106C161.844 371.606 162.044 370.406 161.444 369.406C160.744 368.106 159.444 367.206 158.744 365.806C157.944 364.406 157.944 363.106 157.144 361.906C155.644 360.006 154.844 358.706 158.044 358.806C163.744 358.806 169.644 360.206 175.144 358.806C177.244 358.806 179.344 358.206 181.244 358.106C181.844 358.106 182.444 358.106 183.044 358.206C184.644 358.406 185.944 358.006 186.844 358.406C187.844 358.706 188.644 359.206 189.644 359.006C191.144 358.806 192.744 358.306 193.944 358.406C196.344 358.406 198.744 359.606 201.144 359.806C202.744 359.606 204.744 359.606 206.144 359.306C207.044 359.106 207.744 358.506 208.544 358.206C209.444 357.906 210.844 358.206 212.244 358.206C213.744 358.306 215.344 358.306 216.844 358.606C218.244 358.906 219.144 359.406 220.144 359.406C221.644 359.406 223.244 359.406 223.344 361.306C223.444 362.506 223.044 363.606 222.944 364.706C222.944 366.306 223.544 367.906 223.344 369.706C223.344 371.006 222.944 372.006 222.844 373.006C222.844 374.006 222.944 375.206 222.944 376.206C222.844 379.906 223.044 383.906 222.744 387.706C222.744 389.206 223.744 390.506 223.744 392.106C223.744 393.006 223.544 394.106 223.744 395.006C223.744 395.806 224.044 396.406 224.044 397.206C224.044 400.306 221.744 403.706 223.244 406.706H223.144ZM386.944 115.206C387.544 115.506 387.444 116.506 387.744 117.406C388.144 118.806 389.644 119.206 390.644 120.106C391.544 121.006 391.944 122.506 392.744 123.506C393.544 124.306 393.744 125.306 394.044 126.406C394.244 127.206 395.144 127.906 395.844 128.806C396.744 130.206 398.044 131.606 398.944 132.906C399.644 134.106 399.744 135.706 400.144 137.006C400.744 138.106 401.044 139.006 401.144 140.106C401.644 141.806 403.844 142.506 404.444 144.406C406.244 149.506 409.144 154.006 409.944 159.806C410.144 160.906 410.844 161.806 411.444 162.706C413.144 164.806 412.544 168.106 412.844 170.706C413.144 171.606 413.844 172.506 414.344 173.606C414.844 175.006 415.044 176.606 415.544 177.906C416.044 179.206 416.944 180.306 417.044 181.506C416.844 185.006 416.444 187.606 418.244 190.906C421.344 199.306 420.944 208.506 421.544 217.406C422.044 221.106 418.544 219.906 416.244 219.906C413.744 219.906 410.844 220.806 410.544 217.906C410.144 216.306 409.344 215.106 409.044 213.506C408.844 211.906 409.044 209.806 408.544 208.306C408.244 207.006 407.644 205.606 407.444 204.206C407.444 203.706 407.844 203.306 407.944 202.806C407.244 200.706 404.944 198.906 404.744 196.506C404.144 193.106 401.444 191.306 400.844 187.806C399.744 184.706 397.244 182.806 396.144 179.706C395.244 178.006 392.944 177.906 392.044 176.206C390.844 173.706 388.744 171.506 386.544 169.906C385.544 168.906 385.144 167.706 384.144 166.506C382.944 164.706 380.444 165.106 379.244 163.606C377.844 160.706 374.544 160.706 372.444 158.806C370.244 155.406 365.644 155.606 362.544 153.506C359.144 150.306 353.944 151.506 349.644 150.706C344.844 149.906 341.444 148.606 335.944 148.506C335.044 148.506 334.044 148.406 333.444 147.706C332.444 146.206 333.744 144.106 332.844 142.706C331.344 139.806 331.644 136.206 330.244 133.306C329.844 132.406 329.844 131.706 329.844 130.806C329.644 128.906 330.144 127.106 329.844 125.106C329.144 122.006 326.144 118.906 326.844 115.706C327.944 114.006 330.344 114.806 331.944 115.206C333.244 115.506 334.644 115.206 336.244 115.106C337.344 114.906 338.344 114.906 339.044 115.206C339.744 115.506 340.344 116.306 341.144 116.306C341.944 116.306 343.044 115.306 344.044 115.206C344.644 115.106 345.444 115.206 346.044 115.206C348.444 115.406 350.644 114.406 353.144 114.606C355.944 114.306 357.844 116.106 360.344 115.306C361.844 114.806 363.844 114.306 365.644 114.706C367.244 114.906 368.444 115.606 370.144 115.606C371.544 115.606 372.744 114.906 374.144 114.906C375.044 114.906 375.844 115.406 376.644 115.606C379.544 116.606 383.544 114.706 386.344 115.306L386.944 115.206ZM262.244 203.006C261.644 204.906 260.044 206.006 260.244 208.206C259.944 211.706 258.944 215.706 257.444 218.906C253.444 220.506 248.644 218.906 244.544 218.206C242.544 217.806 237.444 220.106 236.644 217.706C237.744 210.606 238.244 209.506 236.244 202.406C236.144 195.506 236.444 188.706 236.744 182.006C236.744 180.206 235.744 178.106 236.544 176.106C236.744 174.706 237.844 173.506 237.544 172.106C234.144 167.206 238.344 167.306 237.744 164.406C235.844 160.306 236.744 155.306 237.044 150.906C237.044 148.306 236.744 146.206 236.844 143.706C237.244 142.206 236.644 140.906 236.444 139.306C236.444 138.406 236.844 137.506 236.744 136.706C236.744 135.906 236.244 134.906 236.244 133.806C236.244 132.106 237.344 130.506 236.944 128.706C236.544 127.106 236.444 125.606 236.844 124.006C237.144 121.706 235.244 118.506 236.844 116.306C237.344 115.806 238.044 115.706 238.744 115.706C242.544 115.706 246.444 115.606 250.144 116.206C251.044 116.106 251.844 115.406 252.644 115.206C253.544 114.906 254.844 115.206 255.844 115.206C258.344 114.806 261.244 114.206 263.644 115.706C267.744 116.206 271.144 114.406 275.344 115.606C277.444 115.906 280.244 115.006 282.044 115.406C283.344 116.006 284.444 116.606 286.044 116.706C290.644 115.706 295.344 115.506 300.044 115.706C301.944 115.706 303.444 114.706 305.344 115.306C307.544 115.406 312.644 114.906 313.144 117.806C313.144 119.906 314.144 122.006 314.844 123.906C314.844 125.706 316.044 126.306 316.744 128.206C317.644 132.506 317.544 137.206 318.944 141.406C319.444 142.706 319.044 143.906 318.944 145.406C318.844 146.806 320.144 149.706 318.244 149.906C316.244 149.806 313.744 150.306 311.444 150.606C307.544 153.606 304.944 154.706 300.044 154.806C299.344 155.106 299.144 155.806 298.744 156.406C298.244 157.306 297.144 157.806 296.144 158.606C293.544 160.006 291.444 162.706 288.844 164.306C284.144 166.506 281.044 170.606 276.744 173.206C275.944 173.906 275.544 175.206 274.944 176.106C273.544 177.506 272.344 178.806 271.344 180.806C269.244 183.006 268.644 186.706 266.544 188.806C265.744 190.206 266.244 191.906 265.444 193.506C264.644 195.106 263.944 196.906 262.944 198.406C261.344 199.706 262.344 201.206 261.844 203.106L262.244 203.006ZM287.844 229.006C288.044 228.406 288.644 228.006 289.044 227.506C289.544 226.706 289.844 225.806 290.444 225.106C291.044 224.406 291.744 223.806 292.344 223.206C292.944 222.506 293.444 221.706 294.144 221.106C294.644 220.706 295.244 220.406 295.744 220.106C296.344 219.606 296.444 219.406 297.144 219.106C297.544 218.906 297.944 218.906 298.344 218.706C299.644 218.206 299.644 218.106 300.944 219.106C301.844 219.806 303.044 220.506 303.744 221.406C304.044 221.706 304.244 222.206 304.444 222.606C305.744 224.606 307.844 226.306 309.144 228.406C310.244 230.206 311.444 232.206 313.544 233.206C315.544 234.706 317.544 236.106 319.444 237.606C321.244 239.606 324.344 244.606 327.344 244.106C328.744 243.606 328.944 241.706 329.944 240.706C330.844 239.606 332.044 238.106 332.544 237.006C332.844 236.206 332.944 235.406 333.444 234.806C333.944 234.206 334.944 233.706 335.544 233.006C336.544 231.706 337.144 230.406 338.344 229.006C339.744 227.406 340.044 225.106 341.444 223.506C342.944 221.906 343.544 219.806 344.944 218.206C346.944 216.106 348.244 213.706 349.644 211.306C350.544 210.206 351.244 209.006 351.944 207.706C353.744 204.506 357.344 202.206 358.144 198.406C358.144 196.806 359.744 196.006 360.544 194.806C360.844 194.406 360.944 193.806 361.144 193.306C361.544 192.206 361.944 191.206 362.644 190.206C363.444 189.006 364.344 188.106 365.044 186.806C365.144 186.506 365.344 186.206 365.444 186.006C366.044 185.006 366.844 184.106 367.744 183.206C368.844 182.206 369.044 181.806 370.744 181.806C372.344 181.806 372.944 182.306 374.244 183.206C375.544 184.106 376.444 185.206 377.844 186.006C378.844 186.606 379.744 187.806 380.444 188.906C381.244 190.206 380.944 191.106 380.044 192.306C378.644 194.206 377.344 195.706 376.344 197.906C375.344 199.906 373.344 201.306 372.344 203.506C369.744 209.206 364.644 213.006 362.144 218.906C361.044 221.506 359.144 223.406 357.644 225.706C356.344 227.006 355.244 229.106 354.144 230.806C352.644 233.006 350.844 234.706 349.944 237.406C349.244 239.606 347.544 241.006 346.544 242.906C345.944 244.406 344.444 245.406 343.544 246.506C343.144 247.406 343.044 248.806 342.644 249.806C341.444 253.006 338.144 254.706 336.244 257.606C335.244 258.806 334.444 260.206 333.344 261.206C331.644 262.706 329.344 263.306 327.144 263.606C323.444 263.606 320.844 261.106 318.044 259.006C316.944 258.106 316.444 256.606 315.344 255.706C314.844 255.206 314.144 254.806 313.544 254.506C311.944 253.506 311.044 252.106 309.644 251.006C307.644 249.706 305.444 248.606 303.644 246.706C302.544 245.606 301.644 244.406 300.544 243.306C299.544 242.306 298.344 241.606 297.544 240.506C296.844 239.606 296.244 238.706 295.444 237.906C294.844 237.406 294.244 237.006 293.644 236.506C293.044 236.006 292.944 235.406 292.444 234.806C291.344 233.506 289.044 233.006 288.244 231.406C288.044 230.906 287.744 229.906 287.944 229.306L287.844 229.006ZM291.244 40.6063C295.244 42.1063 299.244 44.2063 303.344 45.5063C305.344 46.4063 306.044 48.2063 308.444 48.6063C309.344 48.8063 310.244 49.0062 311.144 49.4062C312.444 50.0062 313.344 51.2062 314.544 51.8062C315.344 52.2062 316.244 52.3063 317.044 52.6063C318.944 53.2063 320.544 54.8062 322.644 55.2062C325.544 56.1062 327.744 58.9062 330.144 60.3062C331.244 60.9062 332.544 60.9062 333.444 61.9062C334.644 63.1062 335.944 64.4063 337.544 65.1063C339.944 66.2063 341.744 67.6063 344.044 68.7063C345.944 69.9063 347.144 71.3063 348.844 72.6063C350.944 74.4063 353.144 75.7063 355.144 77.7063C356.444 78.8063 356.944 80.6063 358.144 81.9062C359.044 82.8062 360.344 83.3063 361.344 84.0063C363.144 85.3063 364.244 88.0063 365.944 89.5063C367.244 90.6063 369.044 90.7063 369.844 92.1063C370.644 93.7063 371.844 94.8063 372.944 96.2063C373.544 97.1063 374.044 98.3063 374.844 99.0063C377.944 101.506 376.344 102.406 373.244 102.306C371.144 102.306 369.044 102.406 366.944 101.906C364.944 101.506 362.544 101.906 360.644 101.706C359.144 101.606 357.644 101.106 356.044 100.806C351.044 100.306 345.144 101.506 341.744 102.006C340.444 102.206 339.044 102.206 337.644 102.206C335.844 102.206 334.644 101.506 333.044 101.506C331.844 101.506 330.544 102.106 329.244 102.106C327.644 102.106 326.044 101.606 324.644 101.606C323.344 101.606 321.544 101.606 321.144 100.206C320.944 99.3063 321.244 98.3063 320.944 97.5063C320.544 96.3063 319.644 95.1063 319.144 93.8063C318.844 92.8063 318.544 91.8063 317.844 91.0063C316.744 89.4063 316.544 87.6063 315.544 85.9062C314.044 83.7062 313.144 80.6063 312.544 78.0063C312.444 77.1063 312.544 76.2063 312.144 75.6063C311.744 74.7063 311.144 74.0063 310.444 73.1063C309.944 72.3063 309.644 71.4063 309.344 70.5063C308.444 68.4063 306.544 67.7063 305.744 65.7063C304.944 63.9063 303.444 62.6062 302.844 60.7062C302.544 59.4062 301.944 58.1062 300.844 57.2062C299.044 55.7062 299.044 53.2062 297.544 51.2062C296.844 50.3062 295.944 50.0062 295.044 49.3062C293.844 48.3062 293.044 46.7063 292.144 45.6063C291.444 44.7063 290.844 43.9063 290.344 43.0063C289.244 41.5063 287.644 39.3062 291.044 40.4062L291.244 40.6063ZM236.544 90.4062C235.944 86.6063 235.944 82.3063 236.544 78.5063C236.544 76.4063 235.944 74.5063 236.344 72.3063C236.344 70.6063 236.644 69.2063 237.444 67.8063C237.944 66.2063 236.244 65.0063 236.144 63.5063C235.744 58.7063 236.044 53.6063 236.144 48.5063C236.344 43.6063 236.744 39.0062 235.744 34.5062C235.344 33.2062 235.444 31.3063 236.644 30.6063C238.044 29.9063 240.144 30.3063 241.844 30.4063C247.244 30.8063 255.944 32.0062 261.044 32.3062C264.444 32.5062 267.444 34.8063 269.844 37.1063C270.744 38.3063 270.344 39.9062 271.244 40.8062C272.744 42.2062 275.044 43.7063 275.944 45.5063C276.444 46.4063 276.744 47.5062 277.344 48.4062C277.744 49.1062 278.444 49.6063 278.944 50.1063C280.644 51.7063 281.144 53.8062 283.044 55.3062C283.444 55.7062 283.944 56.0062 284.344 56.4062C286.244 58.5062 286.744 61.3062 288.244 63.7062C289.344 65.5062 290.944 66.7063 292.144 68.5063C293.644 70.6063 294.444 73.0063 295.944 75.1063C296.644 77.1063 297.444 79.2063 299.044 80.8063C299.644 81.5063 300.144 82.1062 300.444 82.9062C301.044 84.5063 300.444 86.0063 301.044 87.1063C302.244 88.6063 303.244 90.4063 303.844 92.3063C304.344 94.8063 304.644 97.0063 306.344 98.9062C308.844 103.006 304.044 101.306 301.844 101.606C300.844 101.606 299.744 102.006 298.644 101.906C296.444 101.606 294.244 100.606 292.044 101.106C289.744 101.706 287.044 102.306 284.744 101.906C283.244 101.506 281.644 101.406 280.344 101.506C279.444 101.506 277.744 101.506 276.344 101.806C274.444 102.006 272.644 101.106 270.744 101.006C266.844 101.006 262.844 100.706 258.944 101.306C258.444 101.306 257.944 101.506 257.444 101.406C256.644 101.406 255.844 101.006 255.044 100.806C253.244 100.406 251.544 102.106 249.444 101.606C246.344 100.806 244.344 101.806 241.244 102.006C239.344 102.006 236.344 102.406 236.144 99.8063C235.844 96.7063 236.144 93.1063 236.544 90.3063V90.4062ZM236.644 316.906C237.344 314.006 235.844 310.806 236.844 307.806C236.844 305.106 235.744 301.706 236.444 299.106C237.244 296.706 236.744 294.206 236.444 291.706C236.244 288.806 237.944 285.306 237.244 282.306C237.044 281.306 236.744 280.306 236.544 279.306C235.844 277.006 236.944 274.506 236.944 272.306C236.944 271.706 236.644 271.206 236.844 270.706C237.044 270.006 237.544 269.506 237.444 268.706C235.644 265.306 236.344 264.706 236.944 261.106C236.944 258.006 235.844 255.006 236.544 251.906C236.944 249.106 236.544 246.506 236.344 243.706C236.644 241.906 238.044 239.906 237.844 237.806C237.844 236.406 237.144 234.306 237.944 233.406C240.844 232.106 244.744 233.506 248.044 233.406C249.744 233.506 251.144 234.406 252.744 233.906C255.744 233.306 260.644 233.106 259.344 237.606C259.244 238.506 258.644 239.706 259.044 240.506C259.244 240.806 259.744 240.706 260.044 240.906C260.544 242.606 260.344 244.906 261.544 246.506C262.544 248.506 262.044 251.006 264.144 252.506C266.844 255.706 265.344 261.706 269.544 263.806C271.544 264.806 271.844 266.506 272.844 268.406C273.544 269.506 274.844 270.306 275.644 271.206C276.844 273.306 278.544 275.006 280.044 276.906C282.644 280.506 286.344 282.806 289.844 285.406C290.944 286.306 291.744 287.506 293.044 288.206C294.244 289.106 295.944 289.306 297.044 290.406C298.944 293.006 301.644 292.506 304.344 293.106C306.944 294.306 309.144 296.306 311.744 297.406C312.544 297.406 312.844 296.506 313.944 296.606C315.544 297.006 317.444 297.706 318.844 298.606C320.644 300.106 318.844 303.206 318.544 304.706C318.444 305.906 318.944 307.306 318.344 308.506C317.344 310.006 317.644 311.706 317.144 313.406C316.344 314.706 314.944 315.406 315.244 317.106C315.244 319.406 313.744 322.506 312.944 324.806C312.344 326.906 312.744 329.106 311.844 331.106C310.044 334.806 307.344 338.406 306.544 342.506C305.544 347.706 298.844 343.806 295.444 345.206C291.944 346.306 288.744 345.006 285.144 344.706C283.444 344.606 281.544 345.206 279.844 345.306C277.744 344.906 275.844 345.306 273.744 345.606C271.744 345.606 270.444 344.606 268.444 344.606C264.244 345.506 259.644 346.306 255.444 344.906C250.044 345.906 243.844 346.306 238.344 344.906C236.144 344.706 236.844 342.606 236.444 340.806C235.744 337.006 236.144 332.706 236.644 329.006C235.744 325.206 237.044 321.206 236.644 317.206V316.906ZM288.944 383.806C288.444 384.406 287.744 384.906 287.244 385.506C286.544 386.306 286.144 387.306 285.844 388.306C285.244 390.506 284.544 392.006 283.944 393.906C283.344 395.906 281.844 396.906 280.844 398.506C280.144 399.806 279.844 401.306 279.244 402.606C278.344 404.806 276.144 406.106 275.444 408.306C275.144 409.106 275.044 409.906 274.744 410.706C274.144 412.706 272.244 413.506 271.344 415.206C270.944 416.006 270.544 416.906 269.844 417.606C267.844 419.306 264.844 419.006 262.444 419.806C260.644 420.306 259.244 421.206 257.344 421.306C255.544 421.406 253.644 421.306 251.844 421.306C250.644 421.306 249.644 421.706 248.544 421.806C247.244 421.906 246.044 421.706 245.244 422.006C244.544 422.206 244.044 422.706 243.444 423.006C242.444 423.406 241.444 423.206 240.444 422.906C239.344 422.406 237.744 422.406 237.044 421.706C235.944 419.706 237.144 416.606 237.244 414.506C237.244 413.306 236.544 412.106 236.744 410.906C236.844 409.506 237.444 408.006 237.144 406.606C236.644 401.906 236.744 395.006 236.744 387.306C236.744 379.406 236.844 370.606 236.444 362.306C236.444 361.406 236.444 360.206 236.944 359.506C238.544 358.106 241.044 358.906 242.944 358.706C244.944 358.806 246.344 358.006 248.244 358.306C250.844 359.006 253.844 358.506 256.444 358.806C257.544 358.906 258.544 359.306 259.244 359.206C259.944 359.106 260.544 358.606 261.244 358.406C262.144 358.006 263.044 358.206 263.944 358.406C269.544 360.006 278.744 358.706 284.744 358.006C286.344 358.206 286.744 359.206 288.344 359.006C289.344 359.006 290.544 358.706 291.544 358.706C293.844 358.706 298.344 356.606 299.544 358.506C299.944 359.406 299.344 361.506 298.544 362.406C297.744 363.506 296.444 364.206 295.944 365.506C295.344 367.006 294.744 369.106 294.444 370.406C294.244 371.706 293.944 372.706 292.944 373.806C291.444 375.706 290.944 377.906 290.544 380.206C290.244 381.606 289.944 382.906 289.044 383.706L288.944 383.806ZM368.844 360.806C367.744 362.006 367.444 363.806 366.244 364.906C364.944 365.906 363.444 366.506 362.144 368.006C359.744 370.806 355.444 371.406 353.244 374.506C352.144 376.506 350.644 377.906 348.944 379.606C347.644 380.906 345.744 381.806 344.444 383.106C342.444 384.506 339.944 385.506 337.844 387.006C335.244 388.206 333.844 390.506 331.644 392.006C330.244 392.906 328.244 393.206 326.944 394.106C325.944 394.506 324.844 395.106 324.344 396.006C324.044 396.406 323.744 396.806 323.244 397.106C321.044 397.906 319.044 398.606 317.244 399.906C315.744 400.606 314.744 401.906 313.544 402.906C310.344 405.006 306.344 405.206 302.744 406.706C300.544 408.006 298.944 411.106 295.844 410.306C295.144 410.106 294.444 410.006 293.744 410.306C293.144 410.606 292.644 411.106 292.044 411.306C290.644 411.506 291.144 408.906 291.344 408.006C292.044 405.106 293.644 403.506 294.844 400.906C295.244 400.106 295.944 399.306 296.544 398.606C297.644 397.306 297.444 395.306 298.244 393.806C298.944 392.406 299.844 391.306 300.544 390.106C301.144 387.906 302.344 386.106 303.444 384.006C303.744 383.306 303.944 382.406 304.044 381.606C304.444 379.606 305.744 378.306 306.444 376.606C307.544 373.906 308.644 371.506 309.544 368.806C310.944 366.806 312.044 364.606 312.944 362.306C314.644 359.106 318.644 357.706 322.044 358.206C324.244 358.206 326.244 357.406 328.644 357.606C330.544 357.606 332.444 357.806 334.044 358.306C335.444 358.806 336.844 358.306 338.244 358.006C340.344 357.306 342.244 358.406 344.344 358.606C345.544 358.606 346.744 358.206 347.744 358.206C349.144 358.006 350.044 358.706 351.744 359.006C353.144 359.206 354.744 359.306 356.244 359.306C359.944 359.006 362.644 358.506 366.144 358.706C368.044 358.706 371.544 358.406 368.744 360.806H368.844ZM420.744 241.606C421.344 242.406 421.744 243.406 421.544 244.506C421.544 246.906 419.544 248.006 419.244 250.006C419.744 254.806 418.944 259.506 418.844 264.406C418.244 270.006 415.344 266.806 416.344 275.906C414.444 280.506 413.044 285.106 411.044 289.706C410.044 293.206 408.444 296.406 408.044 300.106C407.244 301.706 406.544 303.606 405.844 305.506C403.944 307.606 402.844 308.606 402.844 311.506C402.344 313.306 400.444 314.406 399.644 316.306C398.444 318.706 398.244 321.906 395.644 323.306C395.244 323.606 395.144 324.006 395.144 324.406C395.144 327.606 392.244 330.006 390.644 332.706C390.144 334.206 389.144 335.106 388.244 336.306C387.444 337.506 387.244 339.206 386.244 340.306C384.744 341.806 383.244 343.306 381.944 345.006C380.444 347.006 378.644 346.006 376.544 345.606C372.744 345.706 369.044 345.306 365.444 344.906C360.844 345.206 355.744 344.206 351.144 344.706C347.644 346.006 344.244 344.006 340.644 344.706C336.544 345.406 332.644 345.506 328.644 345.006C326.344 344.506 323.044 347.006 321.244 344.606C320.644 343.106 322.244 341.506 322.844 340.406C323.444 339.206 323.344 337.806 324.144 336.606C325.044 330.306 329.144 324.906 329.644 318.506C329.644 316.906 331.144 315.906 331.544 314.506C331.544 312.606 331.744 309.906 332.644 308.406C332.744 305.806 332.244 302.206 334.144 300.106C334.944 299.606 335.944 299.906 336.844 299.806C338.644 299.506 340.244 299.306 341.944 299.606C344.944 299.306 347.844 298.506 350.844 297.706C356.044 297.606 360.544 295.706 365.244 293.906C366.844 292.306 368.944 291.906 371.144 291.406C372.844 290.506 373.044 288.006 375.244 287.606C376.944 286.606 378.844 285.906 380.544 284.806C381.944 282.706 384.244 281.706 386.044 280.206C391.144 275.506 394.844 269.806 398.844 264.106C402.644 261.706 400.544 262.906 402.344 259.706C403.944 258.606 403.644 256.906 404.144 255.206C406.044 251.406 405.844 246.506 408.844 243.406C409.344 240.106 408.244 236.206 411.144 233.606C412.744 232.006 415.344 233.406 417.244 232.706C419.544 232.906 422.244 231.506 422.244 235.006C422.444 237.406 419.544 239.406 421.044 241.606H420.744Z" fill="#010035"/>
</svg>
