<svg width="451" height="418" viewBox="0 0 451 418" fill="none" xmlns="http://www.w3.org/2000/svg">
<path d="M442.447 3.93608C443.747 4.63608 444.846 5.43608 445.846 6.73608C446.646 7.73608 447.347 8.73609 447.947 9.83609C449.247 12.4361 449.846 15.1361 449.846 18.0361C449.846 20.9361 449.646 25.0361 449.846 28.5361C450.046 32.0361 450.547 32.2361 450.147 34.3361C449.747 36.4361 450.147 35.9361 450.247 37.1361C450.347 38.3361 450.247 39.4361 449.947 40.6361C449.647 41.8361 449.947 42.6361 450.047 43.7361C450.447 47.0361 450.847 50.3361 450.447 53.6361C450.347 54.7361 449.747 56.2361 449.647 57.6361C449.547 59.0361 449.947 59.6361 449.947 60.5361C449.947 66.3361 449.346 71.7361 449.346 77.4361C449.346 83.1361 449.346 82.9361 449.346 85.7361C449.346 93.9361 450.146 100.936 449.346 109.336C448.546 117.736 449.646 112.636 449.846 114.436C450.146 117.536 449.346 121.636 449.846 124.636C450.146 126.536 450.347 128.536 450.447 130.536C450.547 132.536 450.847 134.536 450.447 136.236C449.847 139.136 449.846 141.636 450.346 144.536C450.646 146.236 449.946 147.136 449.846 148.536C449.346 153.536 450.046 159.736 449.846 164.936C449.746 167.836 448.946 170.936 449.346 173.736C450.346 180.836 449.846 188.136 449.846 195.236C449.846 198.636 450.846 203.936 450.346 206.736C449.846 210.136 449.747 213.436 449.947 216.836C450.147 220.236 450.347 222.436 449.947 225.236C449.547 228.036 449.647 231.436 449.647 234.536C449.647 237.636 449.746 239.036 449.346 241.336C448.946 243.636 448.847 244.436 448.547 245.836C448.247 247.236 448.547 246.736 448.147 247.336C447.747 247.936 447.646 248.336 447.346 248.936C446.846 250.236 445.747 251.636 444.747 252.636C443.447 253.936 442.347 255.536 440.447 256.136C438.547 256.736 437.747 257.236 436.447 257.636C434.947 258.036 433.447 258.036 431.947 258.236C430.447 258.436 430.447 258.336 429.747 258.336C429.047 258.336 428.047 258.036 427.147 258.036C426.247 258.036 425.246 258.336 424.346 258.536C423.446 258.736 422.247 258.336 421.147 258.336C419.547 258.336 417.747 258.836 416.547 259.936C415.347 261.036 415.547 262.636 415.547 264.036C415.547 265.936 415.647 267.836 415.547 269.736C415.447 271.636 415.147 271.636 415.147 272.536C415.147 274.036 415.247 275.536 415.147 277.036C414.747 280.536 414.747 290.736 415.147 294.236C415.547 297.736 415.547 296.736 415.747 298.536C415.747 299.936 416.047 301.236 415.647 302.536C415.247 303.836 415.346 304.236 415.346 305.036C415.246 306.736 415.346 308.336 415.346 310.036C415.346 311.736 415.247 312.136 414.947 313.136C413.947 317.236 412.546 321.136 408.346 322.736C403.746 324.536 397.746 326.236 392.846 325.736C387.946 325.236 390.347 325.536 387.747 325.736C385.247 325.936 382.647 325.736 380.147 325.436C377.647 325.136 377.946 325.136 376.846 325.336C375.746 325.536 375.546 325.836 374.846 325.936C372.446 326.536 369.647 326.236 367.147 326.336C364.647 326.436 361.946 326.336 359.346 326.036C358.346 325.936 357.347 325.736 356.247 325.736C355.147 325.736 353.646 326.136 352.346 326.136C350.246 326.136 348.247 325.636 346.147 325.636C344.047 325.636 341.547 326.236 339.247 325.936C336.947 325.636 335.046 325.636 332.846 325.636C330.646 325.636 328.347 325.336 326.047 325.236C323.747 325.136 322.447 325.336 320.547 325.236C318.647 325.136 316.347 325.036 314.247 324.936C312.147 324.836 310.547 324.136 308.647 324.136C306.747 324.136 304.146 324.836 301.846 324.936C299.546 325.036 297.947 324.936 296.047 324.936C294.147 324.936 292.246 325.336 290.346 325.536C288.446 325.736 288.147 325.836 287.047 326.136C285.947 326.436 285.547 326.336 284.947 326.536C282.247 327.536 283.547 332.436 283.947 334.036C284.447 336.136 285.147 338.236 286.047 340.136C286.847 341.736 287.847 343.536 288.547 345.436C289.547 348.136 290.047 350.736 291.047 353.436C292.047 356.136 292.547 356.036 293.147 357.336C294.147 359.536 294.447 360.536 295.547 362.436C296.647 364.336 297.347 366.936 298.247 369.336C299.147 371.736 299.947 373.036 300.547 375.336C302.047 381.036 306.247 386.236 307.647 392.136C309.047 398.036 308.946 395.536 309.846 397.536C311.146 400.336 312.147 403.636 312.647 406.736C313.147 409.836 312.947 409.436 312.947 410.836C312.947 412.236 312.947 412.436 312.147 413.136C311.147 414.136 309.847 414.836 308.747 415.636C307.647 416.436 305.347 415.836 303.747 415.836C301.747 415.836 299.447 415.836 297.447 416.036C296.347 416.136 295.446 416.336 294.346 416.236C291.046 416.036 287.847 416.236 284.647 416.736C282.547 417.036 280.947 416.636 278.947 416.336C276.947 416.036 275.347 416.836 273.447 416.336C271.547 415.836 269.146 415.936 266.846 416.136C264.546 416.336 260.947 415.836 258.147 416.336C255.347 416.836 253.046 417.536 250.346 416.636C247.646 415.736 247.447 416.236 245.947 415.836C244.447 415.436 244.447 415.236 243.647 415.136C242.847 415.036 241.647 415.136 240.647 415.236C238.147 415.536 235.547 415.836 233.047 415.836C230.547 415.836 227.847 416.136 225.447 415.836C223.047 415.536 221.647 415.136 219.747 414.636C215.047 413.536 210.047 413.636 205.247 414.136C200.447 414.636 201.447 414.536 199.547 414.736C197.647 414.936 196.147 414.836 194.647 415.336C193.147 415.836 192.947 416.236 191.947 416.336C190.947 416.436 189.647 416.136 188.647 415.936C184.547 415.236 180.447 414.736 176.247 415.236C175.547 415.236 175.147 415.736 174.347 415.836C172.547 416.036 170.747 416.036 169.047 415.836C167.347 415.636 165.447 415.336 163.747 415.436C161.047 415.636 158.447 414.736 156.947 412.236C156.147 410.936 156.047 409.636 155.847 408.136C155.647 406.636 155.747 407.136 155.847 406.636C156.247 403.936 156.547 401.236 157.647 398.736C158.147 397.736 158.747 397.036 159.147 395.936C159.547 394.836 159.947 393.536 160.447 392.336C160.847 391.336 161.447 390.536 161.847 389.636C163.047 386.636 163.447 383.236 165.047 380.336C166.547 377.636 167.647 374.736 168.847 372.036C170.047 369.336 171.347 364.736 172.947 361.736C174.547 358.736 176.047 355.936 176.647 353.536C177.647 350.036 179.047 345.836 181.147 342.836C183.247 339.836 182.847 340.836 183.347 339.536C184.147 337.636 184.947 335.736 185.347 333.736C185.647 332.436 186.447 331.036 187.047 329.836C187.647 328.636 187.947 328.636 188.047 327.836C188.147 327.036 188.047 326.636 188.047 326.136C187.847 326.136 187.547 326.136 187.247 326.136C186.347 326.136 185.447 326.136 184.647 326.136C183.347 325.936 182.047 325.536 180.747 325.436C179.447 325.336 177.447 325.436 175.747 325.436C174.047 325.436 171.547 325.836 169.447 325.836C167.347 325.836 165.647 325.836 163.747 325.836C161.847 325.836 159.647 325.536 157.647 325.436C155.647 325.336 153.647 324.836 151.547 325.036C149.447 325.236 147.747 325.436 145.747 325.436C143.647 325.436 141.547 326.136 139.447 326.136C137.347 326.136 138.447 326.136 137.947 326.336C136.447 327.136 136.047 329.436 136.047 330.936C136.047 332.436 136.247 332.036 136.347 332.636C136.547 333.736 136.347 334.836 136.347 335.836C136.347 337.736 136.547 339.836 136.147 341.736C135.747 343.636 136.147 345.436 136.147 347.236C135.647 357.936 136.147 368.736 135.347 379.436C134.847 385.336 135.947 391.136 135.147 397.036C134.347 402.936 134.047 403.036 133.147 406.036C132.247 409.036 131.947 409.036 130.447 410.336C128.947 411.636 128.747 411.536 127.747 411.936C126.747 412.336 125.647 412.936 124.647 413.236C123.647 413.536 122.147 413.836 120.847 414.136C119.547 414.436 118.147 414.936 116.847 415.136C115.547 415.336 113.647 415.236 112.047 415.436C110.447 415.636 108.547 415.536 106.747 415.336C103.547 414.936 100.147 415.136 96.9465 415.136C93.7465 415.136 93.8465 415.236 92.2465 415.136C90.6465 415.036 89.0465 414.636 87.3465 414.836C84.4465 415.236 81.5465 415.136 78.6465 415.136C75.7465 415.136 75.8465 415.136 74.4465 415.136C73.0465 415.136 71.0465 415.536 69.2465 415.536C66.4465 415.536 63.7465 415.936 61.0465 415.936C58.3465 415.936 55.9465 416.336 53.3465 416.336C50.7465 416.336 47.8465 416.936 45.1465 416.536C42.4465 416.136 39.8465 416.736 37.3465 416.236C34.8465 415.736 35.0465 416.236 33.7465 416.336C32.4465 416.436 31.3465 415.936 30.0465 415.936C28.7465 415.936 27.2465 415.936 25.8465 415.936C24.4465 415.936 23.3465 415.536 22.1465 415.536C20.9465 415.536 20.0465 415.636 19.1465 415.536C18.2465 415.436 17.5465 414.836 16.5465 414.836C14.7465 414.736 13.3465 413.936 11.6465 413.436C9.94651 412.936 8.44651 412.036 7.24651 410.936C6.34651 410.236 5.44651 409.636 4.84651 408.636C4.24651 407.636 4.04651 406.236 3.54651 405.136C2.54651 403.136 1.74651 401.436 1.34651 399.236C0.646512 393.936 1.74651 388.736 1.74651 383.436C1.74651 377.836 0.746513 372.236 1.14651 366.536C1.24651 364.636 1.94651 362.736 1.74651 360.836C1.54651 358.936 1.14651 357.836 1.44651 356.236C1.74651 354.636 2.14651 354.036 2.24651 352.836C2.44651 350.936 2.44651 348.936 2.44651 347.036C2.44651 344.636 2.44651 342.336 2.44651 339.936C2.44651 337.536 2.44651 335.336 2.14651 332.936C1.84651 330.536 2.24651 327.936 2.54651 325.436C2.84651 322.936 1.94651 321.736 2.04651 319.736C2.14651 317.736 2.44651 315.636 2.44651 313.436C2.44651 311.236 2.44651 311.136 2.44651 310.036C2.44651 308.936 2.84651 307.736 2.74651 306.636C2.74651 304.636 2.24651 302.936 2.54651 300.936C2.84651 298.936 2.94651 296.336 2.54651 293.936C2.14651 291.536 2.54651 289.636 2.54651 287.536C2.54651 285.436 2.54651 282.136 2.54651 279.336C2.54651 276.536 2.44651 276.736 2.24651 275.436C2.04651 274.136 2.24651 273.336 2.34651 272.336C2.54651 270.236 2.14651 268.136 1.84651 266.036C1.54651 263.936 1.84651 260.536 1.84651 257.836C1.84651 249.936 0.146512 241.536 1.44651 233.736C2.74651 225.936 1.34651 231.736 1.44651 230.636C1.94651 228.036 3.84651 224.836 5.54651 222.836C6.44651 221.836 7.74651 220.336 8.94651 219.636C10.3465 218.836 12.1465 218.436 13.6465 217.936C15.1465 217.436 17.1465 217.036 18.9465 216.736C22.4465 216.236 25.9465 216.236 29.5465 215.936C31.6465 215.836 32.9465 216.336 34.7465 214.936C36.5465 213.536 35.8465 213.936 35.8465 213.836C36.0465 212.836 35.8465 210.236 35.8465 209.036C35.7465 204.236 36.1465 199.436 35.8465 194.536C35.5465 189.636 36.5465 190.736 36.6465 188.636C37.1465 180.936 36.5465 172.736 36.3465 165.036C36.1465 157.336 37.2465 156.136 36.9465 151.836C36.6465 147.536 36.4465 149.636 36.3465 148.636C36.1465 146.036 36.7465 143.236 36.6465 140.536C36.3465 135.436 36.1465 131.436 36.3465 126.336C36.5465 121.236 36.0465 116.636 36.3465 111.536C36.6465 106.436 36.3465 97.1361 36.3465 90.0361C36.3465 82.9361 35.3465 81.6361 35.7465 77.4361C36.1465 73.2361 36.9465 73.9361 37.3465 72.8361C37.7465 71.7361 38.0465 70.6361 38.2465 69.4361C38.4465 68.2361 39.8465 65.7361 40.4465 64.9361C42.3465 62.3361 48.1465 60.9361 51.3465 60.7361C54.5465 60.5361 55.8465 60.9361 58.0465 60.7361C60.2465 60.5361 62.7465 60.0361 65.5465 60.2361C71.8465 60.7361 76.3465 60.9361 82.7465 60.2361C89.1465 59.5361 88.3465 60.4361 91.8465 60.7361C99.4465 61.3361 107.247 59.5361 114.747 60.1361C122.247 60.7361 123.047 60.7361 127.647 60.7361C129.847 60.7361 132.047 60.7361 134.247 60.5361C136.447 60.3361 135.847 60.5361 136.747 60.5361C138.747 60.7361 140.847 61.0361 142.847 61.1361C144.847 61.2361 147.047 61.1361 149.147 60.9361C151.247 60.7361 153.947 60.9361 156.247 60.6361C158.547 60.3361 158.547 60.3361 159.747 60.3361C160.947 60.3361 162.347 60.6361 163.647 60.7361C165.947 60.9361 168.147 60.3361 170.447 60.3361C172.747 60.3361 174.247 60.9361 176.247 60.7361C178.247 60.5361 180.347 60.3361 182.447 60.3361C184.547 60.3361 186.347 60.3361 188.347 60.3361C190.347 60.3361 191.047 59.9361 192.447 60.0361C193.847 60.1361 194.147 60.4361 195.047 60.6361C197.147 61.0361 199.447 60.5361 201.647 60.3361C203.847 60.1361 205.047 60.4361 206.647 60.4361C208.247 60.4361 210.447 59.9361 212.247 60.1361C214.047 60.3361 214.147 60.5361 215.247 60.4361C216.347 60.3361 217.047 60.1361 217.947 60.1361C221.147 59.9361 224.347 60.0361 227.547 60.1361C230.747 60.2361 233.047 60.5361 235.947 60.6361C242.047 60.6361 248.246 60.1361 254.346 60.4361C254.346 60.4361 254.447 60.4361 254.547 60.4361C255.747 60.4361 256.947 59.0361 257.147 57.9361C257.347 56.8361 257.047 56.6361 257.047 56.0361C257.047 55.1361 257.447 54.2361 257.447 53.3361C257.547 51.9361 257.546 50.2361 257.346 48.8361C256.846 45.8361 257.447 43.0361 257.447 39.9361C257.447 36.8361 257.447 35.3361 257.447 33.1361C257.447 30.9361 257.446 31.1361 257.346 30.1361C256.846 27.9361 257.547 25.7361 257.747 23.4361C257.947 21.1361 257.347 17.9361 257.747 15.9361C258.147 13.9361 259.747 10.2361 260.647 8.83609C262.147 6.43609 264.847 4.23608 267.447 3.03608C271.847 1.03608 275.147 1.63608 279.947 1.23608C284.747 0.836084 283.047 0.536085 284.547 0.436085C289.047 0.0360847 293.147 1.73608 297.147 1.53608C301.147 1.33608 299.447 1.03608 300.647 0.936085C304.547 0.636085 308.947 1.63608 312.647 0.936085C316.347 0.236085 318.547 0.436085 321.547 0.436085C326.147 0.436085 329.747 0.936084 334.147 1.23608C338.547 1.53608 341.847 1.63609 345.647 1.83609C349.447 2.03609 351.247 0.236084 353.947 0.236084C358.947 0.236084 363.847 1.43609 369.247 1.33609C374.647 1.23609 378.547 0.936086 383.747 1.33609C388.947 1.73609 391.447 0.736083 395.247 0.536083C399.047 0.336083 401.047 1.23608 404.147 1.03608C407.247 0.836083 412.847 0.636083 417.047 1.03608C421.247 1.43608 420.147 1.73609 421.647 1.83609C425.547 2.03609 430.347 0.636083 434.247 1.03608C436.547 1.23608 438.847 2.23608 440.947 3.23608C443.047 4.23608 442.246 3.83609 442.846 4.13609L442.447 3.93608ZM434.346 17.6361C433.246 16.0361 431.746 15.4361 429.846 15.3361C423.046 14.8361 415.746 16.0361 408.846 15.6361C402.246 15.2361 396.347 15.1361 389.747 15.3361C379.647 15.7361 369.947 14.9361 359.947 15.3361C349.947 15.7361 341.347 15.4361 332.047 15.3361C322.747 15.2361 320.846 15.9361 315.346 15.6361C307.246 15.2361 299.847 15.0361 291.747 15.3361C289.447 15.3361 287.146 15.1361 284.846 15.0361C282.546 14.9361 283.047 14.8361 282.147 14.7361C281.247 14.6361 279.747 14.9361 278.647 15.1361C278.047 15.2361 277.447 15.3361 276.947 15.7361C276.447 16.1361 275.546 16.8361 274.846 17.3361C272.646 18.7361 271.846 23.1361 272.846 25.3361C273.746 27.4361 276.346 28.0361 278.346 28.1361C280.946 28.3361 283.647 28.2361 286.147 28.1361C289.647 27.9361 293.247 27.7361 296.647 27.8361C300.047 27.9361 298.746 28.1361 299.846 27.8361C301.646 27.4361 303.447 27.1361 305.247 27.4361C307.047 27.7361 307.847 27.7361 309.447 27.4361C311.047 27.1361 312.147 27.4361 313.447 27.4361C314.747 27.4361 316.347 27.4361 317.747 27.4361C319.147 27.4361 320.547 27.8361 321.947 27.8361C323.347 27.8361 324.947 27.8361 326.447 27.7361C327.947 27.5361 329.547 27.4361 331.147 27.6361C332.747 27.8361 333.846 28.1361 335.346 28.2361C338.946 28.3361 342.447 28.7361 346.047 28.5361C351.947 28.2361 357.847 27.9361 363.747 27.7361C366.647 27.7361 369.647 28.2361 372.547 28.0361C375.447 27.8361 373.547 28.0361 374.047 27.8361C374.547 27.6361 375.247 27.0361 375.947 26.8361C377.047 26.5361 378.246 26.7361 379.346 26.7361C380.446 26.7361 382.147 26.7361 383.547 26.7361C387.047 26.7361 390.447 26.7361 393.947 27.1361C397.447 27.5361 399.546 27.5361 402.346 27.4361C405.146 27.3361 405.747 27.4361 407.547 27.7361C409.447 27.9361 411.247 27.6361 413.047 27.7361C414.847 27.8361 416.747 27.7361 418.547 27.7361C422.447 27.7361 427.447 28.1361 431.147 27.7361C433.047 27.5361 434.547 26.9361 435.047 24.9361C435.547 22.9361 435.447 23.1361 435.647 22.2361C435.747 21.4361 435.847 20.5361 435.647 19.7361C435.447 18.9361 434.946 18.4361 434.346 17.7361V17.6361ZM434.247 42.0361C433.947 42.0361 433.647 42.0361 433.447 42.0361C430.847 41.8361 428.346 42.5361 425.846 42.6361C422.946 42.7361 419.947 42.1361 416.947 42.0361C411.947 42.0361 406.747 42.0361 401.647 42.0361C396.547 42.0361 394.346 42.2361 390.346 42.6361C386.346 43.0361 382.747 42.3361 379.047 42.3361C373.147 42.3361 368.347 41.9361 362.447 42.6361C352.047 43.9361 343.347 42.2361 333.147 41.8361C322.947 41.4361 323.246 42.5361 318.346 42.3361C313.446 42.1361 312.847 42.0361 310.047 42.0361C302.547 42.1361 295.147 42.0361 287.747 42.6361C280.347 43.2361 280.047 42.0361 276.147 42.3361C272.247 42.6361 274.746 42.4361 274.346 42.6361C273.946 42.8361 273.147 43.7361 273.147 43.7361C272.547 45.0361 272.647 46.2361 272.547 47.5361C272.147 51.4361 272.447 52.2361 273.047 55.8361C273.647 59.4361 272.147 61.1361 272.247 63.9361C272.547 70.1361 273.047 76.5361 272.447 82.7361C271.847 88.9361 272.047 84.5361 271.947 85.4361C271.547 90.1361 273.547 94.2361 273.047 98.9361C272.547 103.636 271.647 103.336 271.647 105.936C271.647 108.536 271.947 110.536 271.947 113.136C271.947 117.936 272.347 122.636 272.247 127.436C272.247 130.736 272.247 131.236 272.947 134.436C273.647 137.636 272.547 137.136 272.447 138.636C272.147 141.836 273.247 144.736 272.947 147.736C272.647 150.736 272.047 154.136 272.447 157.436C272.847 160.736 273.847 161.536 273.047 165.836C272.047 170.936 272.047 177.136 272.147 182.436C272.247 187.736 273.447 195.636 272.947 202.036C272.447 208.436 272.747 207.836 272.747 211.436C272.747 215.036 272.347 212.836 272.447 213.536C272.547 214.236 273.146 215.836 273.346 216.136C274.746 217.536 279.046 217.236 280.846 217.236C284.346 217.236 288.147 217.136 291.547 216.936C294.947 216.736 295.747 216.336 297.947 216.136C303.247 215.636 309.446 216.436 314.846 216.136C320.246 215.836 317.747 215.636 319.147 215.536C322.547 215.436 325.846 217.036 329.346 216.936C332.846 216.836 333.747 216.236 335.747 216.136C342.847 215.836 350.047 217.136 357.247 216.736C364.447 216.336 361.947 215.636 364.747 215.936C368.947 216.236 372.346 217.036 376.846 216.736C381.346 216.436 387.447 216.036 392.647 215.936C397.847 215.836 399.947 216.636 403.647 216.736C407.347 216.836 406.247 216.236 407.447 216.136C411.047 215.836 414.547 216.836 418.447 216.636C422.947 216.436 427.447 216.336 431.947 215.936C436.447 215.536 435.047 215.636 435.247 213.936C435.447 212.236 434.746 211.936 434.846 210.836C434.946 209.736 435.247 208.436 435.247 207.036C435.247 203.936 436.047 200.936 436.047 197.836C436.047 194.736 435.847 192.636 435.647 190.036C435.447 187.436 435.446 188.036 435.346 187.136C435.246 186.236 435.547 185.536 435.647 184.836C435.847 183.536 435.846 182.136 435.846 180.836C435.846 178.136 435.546 175.536 435.346 172.936C435.146 170.736 435.346 168.436 435.346 166.236C435.346 164.036 435.347 163.036 435.547 161.436C435.747 159.836 435.947 158.636 435.947 157.136C435.947 155.836 435.947 154.536 435.947 153.236C435.947 151.936 435.647 151.236 435.547 150.136C435.447 149.036 435.547 147.936 435.247 146.836C434.847 144.836 435.547 143.036 435.547 141.036C435.547 139.036 435.746 139.736 435.846 139.136C435.946 138.536 435.746 138.036 435.846 137.536C435.946 137.036 436.047 136.836 436.047 136.436C436.247 134.736 435.447 133.136 435.447 131.436C435.547 127.536 436.347 125.836 435.447 121.736C434.547 117.636 435.547 115.036 435.647 112.436C435.847 106.036 434.846 99.0361 435.346 92.5361C435.846 86.0361 436.146 89.7361 435.846 87.7361C435.046 81.2361 435.146 75.6361 435.846 69.1361C436.046 67.6361 435.547 66.4361 435.447 64.9361C435.347 63.4361 435.447 62.0361 435.447 60.6361C435.447 58.4361 435.447 56.3361 435.747 54.1361C436.047 51.9361 435.946 49.7361 435.846 47.7361C435.746 45.7361 435.847 43.2361 434.447 42.2361C433.047 41.2361 433.947 41.9361 433.747 41.9361L434.247 42.0361ZM117.447 83.2361C116.247 84.2361 107.347 82.3361 105.247 82.2361C100.947 81.9361 96.9465 82.9361 92.6465 82.7361C88.3465 82.5361 90.0465 83.1361 88.6465 83.3361C80.3465 84.0361 71.8465 82.5361 63.6465 82.8361C55.4465 83.1361 60.8465 82.8361 59.1465 83.4361C57.4465 84.0361 58.5465 84.5361 57.5465 85.1361C57.5465 97.5361 57.2465 109.736 57.2465 122.136C57.2465 124.536 57.2465 127.036 57.2465 129.336C57.2465 132.836 57.7465 136.136 58.0465 139.536C58.3465 142.936 56.9465 147.836 57.2465 152.436C57.5465 157.036 57.9465 155.936 57.8465 158.136C57.7465 160.336 57.0465 162.436 57.0465 164.336C57.0465 168.536 58.6465 172.636 58.1465 177.236C57.6465 181.836 57.0465 181.136 57.0465 183.136C57.0465 185.136 57.6465 186.736 57.6465 188.236C57.6465 191.936 57.4465 195.536 57.6465 199.236C57.8465 202.936 56.8465 205.736 57.1465 209.136C57.4465 212.536 57.8465 213.036 58.3465 214.036C58.8465 215.036 60.6465 215.936 61.3465 215.936C71.5465 215.636 81.7465 216.436 91.9465 216.236C95.8465 216.236 99.6465 216.236 103.447 216.236C110.447 216.136 118.147 215.536 124.547 218.636C130.947 221.736 126.747 220.136 127.147 220.236C128.847 220.736 130.847 222.636 131.947 224.036C133.347 225.736 133.747 227.536 134.347 229.536C134.947 231.536 135.647 233.136 135.547 235.336C135.247 239.936 135.547 242.936 135.847 247.436C135.947 249.636 135.847 251.636 135.647 253.836C135.447 256.036 135.947 256.236 135.947 257.336C135.947 258.536 135.747 259.436 135.547 260.536C135.347 261.636 135.547 262.736 135.547 263.836C135.647 266.136 135.847 268.436 135.847 270.736C135.847 275.336 135.847 279.936 135.847 284.536C135.847 289.136 135.647 288.636 136.147 290.736C136.447 291.936 136.047 294.236 137.347 294.936C138.647 295.636 138.647 294.836 139.347 294.736C140.347 294.636 141.547 294.536 142.547 294.736C144.847 294.936 147.447 295.836 149.747 295.836C152.047 295.836 153.847 295.436 156.247 295.536C160.147 295.636 163.647 294.636 167.747 295.236C171.847 295.836 174.847 295.636 178.747 295.736C182.647 295.836 182.347 295.436 184.447 295.236C191.647 294.336 200.047 295.636 207.547 295.236C211.547 295.036 213.147 295.336 216.947 295.736C225.147 296.636 232.346 293.836 240.846 295.136C249.346 296.436 244.447 294.636 246.247 294.636C248.047 294.636 248.547 295.136 249.747 295.236C252.947 295.536 258.646 295.536 261.846 295.236C265.046 294.936 264.046 294.636 265.346 294.636C266.646 294.636 267.247 295.136 268.247 295.236C271.347 295.436 274.347 294.836 277.447 294.936C293.047 295.536 308.547 294.936 324.147 295.536C327.647 295.636 331.047 295.236 334.647 295.236C338.247 295.236 342.347 295.236 346.747 294.736C351.147 294.236 349.747 295.136 351.247 295.136C352.747 295.136 354.346 294.636 355.846 294.636C363.246 295.036 369.547 295.236 377.047 294.936C381.047 294.736 385.046 296.036 388.846 295.736C392.646 295.436 391.147 295.336 391.747 295.136C395.247 293.936 394.146 290.836 394.346 288.136C394.546 286.336 394.447 284.536 394.947 282.836C395.447 281.136 394.547 279.636 394.747 277.936C394.747 277.036 395.147 276.236 395.147 275.336C395.147 274.436 394.847 273.636 394.747 272.836C394.347 270.236 394.947 267.636 394.947 265.036C394.947 262.436 394.647 259.436 392.047 258.836C391.547 258.736 391.147 258.836 390.647 258.836C388.347 258.936 385.947 259.336 383.547 259.136C381.747 259.036 379.947 258.436 378.147 258.336C376.347 258.236 375.447 258.536 374.047 258.336C372.647 258.136 371.946 258.036 370.846 258.036C368.646 258.036 366.447 258.036 364.247 258.036C358.247 258.036 352.346 258.036 346.346 258.036C340.346 258.036 340.247 258.036 337.247 258.036C334.247 258.036 335.346 258.436 334.346 258.436C333.346 258.436 331.647 258.036 330.247 258.036C328.647 258.036 327.147 258.036 325.547 258.036C323.947 258.036 322.847 258.036 321.547 258.036C320.247 258.036 319.846 257.836 318.846 257.736C317.846 257.636 316.947 258.036 316.147 258.136C314.247 258.536 312.347 258.336 310.447 258.436C308.547 258.536 308.547 258.636 307.647 258.736C306.747 258.836 305.847 258.636 304.747 258.536C302.947 258.336 301.247 259.436 299.447 259.236C297.647 259.036 297.747 258.936 296.747 259.036C295.747 259.136 295.247 259.236 294.447 259.336C291.047 259.836 287.947 259.236 284.547 259.336C281.147 259.436 281.047 258.936 279.247 258.936C277.447 258.936 276.247 258.936 274.747 258.936C273.247 258.936 272.747 258.936 271.647 258.636C270.547 258.336 270.247 258.136 269.547 257.936C268.047 257.536 266.247 257.536 264.947 256.636C262.047 254.836 259.847 252.436 258.947 249.036C258.547 247.636 258.347 245.836 258.047 244.336C256.947 239.536 257.847 234.436 257.547 229.536C257.147 223.636 256.747 217.936 256.947 212.136C257.147 206.336 257.147 201.736 256.447 196.836C255.747 191.936 256.747 191.936 256.947 189.636C257.147 187.336 256.747 182.736 256.947 179.436C257.147 175.836 257.847 172.236 257.547 168.436C256.547 158.136 257.347 148.036 257.247 137.736C257.247 135.136 257.547 132.836 257.247 130.336C256.947 127.836 256.747 123.636 256.747 120.236C256.747 116.836 256.747 116.836 256.747 115.136C256.747 113.436 256.747 113.436 256.747 112.636C256.947 110.436 257.746 108.336 257.346 106.136C256.446 101.836 256.547 97.0361 256.547 92.6361C256.547 88.2361 257.147 88.9361 257.147 87.5361C257.147 86.1361 256.647 84.7361 256.247 84.2361C255.847 83.7361 255.246 83.6361 254.846 83.6361C252.246 83.3361 248.947 83.9361 246.247 83.6361C243.547 83.3361 244.347 82.9361 242.747 83.1361C238.247 83.7361 234.147 83.7361 229.547 83.6361C224.947 83.5361 221.447 83.3361 217.447 83.6361C213.447 83.9361 212.447 82.9361 209.947 82.8361C207.447 82.7361 201.447 83.0361 198.147 83.6361C194.847 84.2361 194.747 83.4361 193.347 83.6361C189.447 84.0361 186.347 84.6361 182.447 83.6361C178.547 82.6361 178.947 83.1361 176.247 83.1361C171.547 83.1361 167.447 82.9361 162.847 83.6361C158.247 84.3361 161.847 84.2361 160.947 84.2361C160.047 84.2361 159.547 83.8361 158.747 83.7361C157.547 83.5361 156.247 83.2361 155.247 83.1361C149.847 82.5361 144.047 84.3361 138.847 83.7361C133.647 83.1361 137.947 83.2361 137.247 83.1361C133.847 82.7361 129.747 83.5361 126.447 83.4361C123.147 83.3361 119.347 82.2361 117.647 83.6361L117.447 83.2361ZM118.247 231.636C117.847 231.636 117.547 231.636 117.147 231.536C116.147 231.336 115.447 231.136 114.347 231.136C113.247 231.136 112.747 231.436 111.847 231.336C110.647 231.136 109.747 231.136 108.447 231.236C104.447 231.636 100.347 231.736 96.2465 231.636C94.4465 231.636 92.5465 231.636 90.7465 231.436C88.9465 231.236 89.0465 231.236 88.1465 231.136C85.0465 230.936 82.0465 232.136 78.9465 232.036C77.9465 232.036 76.7465 231.536 75.7465 231.436C73.8465 231.236 71.3465 231.736 69.5465 231.436C63.6465 230.536 59.1465 231.436 53.4465 231.136C47.4465 230.836 40.5465 231.536 34.3465 231.436C31.0465 231.436 27.7465 231.636 24.4465 231.436C21.9465 231.336 20.8465 230.736 18.0465 231.436C15.2465 232.136 15.6465 233.136 15.4465 234.436C15.2465 235.736 15.3465 238.436 15.4465 239.536C15.9465 243.936 21.2465 243.236 24.4465 243.136C29.7465 242.936 35.0465 242.436 40.3465 242.536C52.2465 242.736 64.7465 243.636 76.6465 242.836C77.8465 242.836 78.8465 242.336 79.9465 242.136C81.0465 241.936 81.8465 241.936 82.8465 241.936C84.7465 241.936 86.6465 241.936 88.5465 241.936C92.4465 241.936 96.5465 241.836 100.347 242.536C104.147 243.236 104.647 242.636 106.647 242.636C108.647 242.636 110.947 242.636 113.147 242.636C115.347 242.636 116.747 242.936 118.347 242.336C119.947 241.736 121.347 239.936 121.947 238.536C122.647 236.936 122.247 235.436 121.447 233.936C120.647 232.436 120.447 231.936 118.847 231.336C118.647 231.336 118.447 231.236 118.247 231.136V231.636ZM364.647 231.136C361.047 231.136 357.347 231.136 353.747 231.136C350.147 231.136 349.146 231.236 346.846 230.836C344.546 230.436 343.546 231.036 342.346 231.936C340.446 233.436 339.047 236.936 340.647 239.036C342.247 241.136 342.846 240.236 343.846 240.536C345.346 240.936 346.846 241.036 348.346 241.336C350.646 241.736 352.847 241.336 355.147 241.036C356.447 240.836 357.847 240.336 359.147 240.236C360.447 240.136 360.846 240.536 361.846 240.836C363.946 241.536 367.247 241.136 369.147 239.936C370.147 239.336 371.447 237.936 371.447 236.636C371.447 235.336 371.147 235.636 371.047 235.036C370.947 234.436 371.047 233.936 370.547 233.236C369.447 231.836 367.147 231.236 365.547 231.236C363.947 231.236 364.947 231.236 364.647 231.236V231.136ZM51.3465 257.036C50.7465 257.036 50.1465 257.036 49.5465 257.036C48.4465 257.036 47.4465 257.536 46.4465 257.536C45.4465 257.536 44.2465 257.136 43.2465 257.136C42.2465 257.136 40.3465 256.436 38.8465 256.336C37.3465 256.236 36.0465 256.736 34.6465 256.736C33.2465 256.736 32.6465 256.736 31.7465 256.736C30.0465 256.636 28.4465 256.636 26.7465 256.936C24.9465 257.336 23.5465 257.436 21.8465 256.736C20.1465 256.036 18.8465 256.136 17.6465 256.836C17.1465 257.136 16.8465 257.536 16.5465 257.936C16.2465 258.336 16.0465 258.536 15.8465 258.936C14.7465 260.536 14.9465 262.036 14.9465 263.836C14.9465 265.636 14.9465 266.136 14.9465 267.336C14.9465 268.536 14.6465 269.236 14.7465 270.236C14.9465 271.636 15.4465 273.036 15.5465 274.536C15.8465 280.836 16.0465 289.536 15.5465 295.736C14.6465 307.536 15.3465 319.436 14.9465 331.136C14.5465 342.836 15.7465 339.236 15.4465 343.736C15.1465 348.236 14.9465 352.436 15.4465 357.736C15.9465 363.036 15.1465 365.436 15.4465 369.136C16.2465 369.436 16.5465 370.536 17.2465 370.936C17.9465 371.336 19.0465 371.436 19.5465 371.536C24.2465 372.436 32.6465 373.036 37.2465 372.236C42.7465 371.136 44.9465 371.636 50.3465 371.936C52.4465 372.036 54.5465 371.436 56.8465 371.636C63.2465 372.236 68.9465 373.136 75.3465 372.136C81.7465 371.136 91.4465 371.636 99.2465 371.836C107.047 372.036 110.547 372.536 115.647 372.136C117.547 371.936 119.347 370.336 119.947 368.536C120.247 367.536 119.947 366.636 119.947 365.736C119.947 364.836 120.047 364.536 120.247 363.936C120.847 361.436 120.747 358.736 120.647 356.236C120.547 350.936 120.647 345.436 120.647 340.136C120.647 332.136 119.947 324.136 120.647 316.236C121.347 308.336 119.647 306.336 120.147 301.236C120.547 297.136 120.747 293.136 120.747 289.036C120.747 285.236 121.547 281.536 120.947 277.736C120.347 273.936 120.947 273.536 120.947 271.536C120.947 269.536 120.947 267.436 120.947 265.336C120.947 263.836 120.547 262.436 120.547 260.936C120.547 258.736 119.947 256.936 117.447 256.936C114.047 256.936 110.547 256.936 107.147 256.936C103.747 256.936 102.347 256.936 99.9465 256.936C97.5465 256.936 94.7465 257.336 92.1465 257.336C89.5465 257.336 87.6465 257.536 85.3465 257.336C83.0465 257.136 83.1465 256.936 81.9465 256.936C80.7465 256.936 80.0465 257.036 78.9465 257.236C76.5465 257.636 73.7465 257.236 71.3465 257.236C68.9465 257.236 68.9465 257.236 67.8465 257.236C66.7465 257.236 65.5465 256.836 64.3465 256.836C62.1465 256.836 59.8465 256.736 57.5465 256.836C55.2465 256.936 54.8465 257.236 53.4465 257.236C52.0465 257.236 51.9465 257.236 51.1465 257.236L51.3465 257.036ZM238.047 303.736C237.747 303.536 237.447 303.336 237.147 303.336C235.247 302.836 233.146 304.236 231.846 305.436C230.046 307.036 230.847 308.436 231.147 310.436C231.447 312.436 231.547 313.236 232.647 314.336C234.047 315.736 237.947 316.336 239.547 315.236C242.247 313.436 243.847 310.936 243.247 307.536C243.047 306.736 242.347 305.536 241.747 304.936C240.747 303.936 239.446 304.336 238.346 303.836C237.246 303.336 238.147 303.836 238.147 303.736H238.047ZM233.447 325.236C230.647 325.136 228.147 326.036 225.247 326.036C222.347 326.036 223.947 326.036 223.347 326.036C222.447 326.036 221.647 325.636 220.847 325.636C220.047 325.636 219.247 326.136 218.347 326.136C217.447 326.136 216.147 325.636 215.047 325.636C212.947 325.636 210.747 326.136 208.747 326.536C204.047 327.436 201.247 332.336 199.347 336.136C197.247 340.336 196.247 345.036 194.047 348.836C191.847 352.636 192.147 353.236 191.147 355.436C190.147 357.636 188.647 359.736 187.947 362.436C187.247 365.136 187.947 363.236 187.847 363.636C187.147 366.436 186.247 367.436 184.947 369.936C182.147 375.736 180.247 381.936 177.247 387.436C174.247 392.936 175.147 392.236 174.547 394.636C173.947 397.036 173.247 400.236 175.947 401.636C178.647 403.036 179.047 402.136 180.547 402.136C182.847 402.136 184.947 401.736 187.247 401.736C189.547 401.736 192.647 401.836 195.247 401.736C198.647 401.536 201.947 401.736 205.347 401.036C208.747 400.336 208.647 400.136 210.447 400.236C212.247 400.336 212.747 400.136 213.847 400.236C214.947 400.336 216.247 400.836 217.447 401.036C218.647 401.236 220.647 401.436 222.247 401.636C223.847 401.836 226.047 401.436 228.047 401.336C232.347 401.036 236.647 400.936 240.947 400.936C245.247 400.936 244.447 400.636 246.047 400.936C247.647 401.236 248.246 401.736 249.346 402.136C252.046 403.136 255.047 403.036 257.947 402.536C260.847 402.036 261.546 402.036 263.346 401.736C265.146 401.436 266.347 401.036 267.947 401.336C270.947 401.836 273.946 401.436 276.846 401.336C279.746 401.236 279.747 401.736 281.147 401.936C282.547 402.136 284.847 402.036 286.747 401.936C289.047 401.936 292.147 402.836 294.247 401.936C294.247 401.936 295.346 400.836 295.346 400.736C295.346 400.336 295.346 399.036 295.346 398.636C294.946 396.336 292.447 390.236 291.447 387.836C290.447 385.436 288.847 382.636 288.147 379.336C287.447 376.036 287.747 378.636 287.547 378.036C285.547 372.836 282.546 368.536 280.846 363.536C278.946 358.036 276.247 352.936 274.247 348.136C272.047 342.836 271.047 339.636 268.147 334.736C266.647 332.136 265.547 328.836 262.947 327.136C262.347 326.736 261.847 326.836 261.247 326.736C260.647 326.636 260.247 326.236 259.747 326.136C258.847 325.936 257.746 326.136 256.846 326.136C255.146 326.136 253.747 326.036 252.147 325.736C248.447 325.236 244.546 325.936 240.846 325.736C237.146 325.536 238.947 325.236 237.947 325.436C236.947 325.636 236.347 325.836 235.247 325.536C234.147 325.236 234.147 325.336 233.647 325.336L233.447 325.236ZM84.9465 389.836C82.8465 388.536 79.7465 389.036 77.3465 388.936C68.8465 388.536 60.3465 388.636 51.8465 388.636C50.4465 389.036 48.8465 388.636 48.1465 390.236C47.4465 391.836 47.7465 392.236 47.9465 393.136C48.1465 394.036 48.5465 394.936 49.1465 395.436C50.1465 396.336 52.8465 396.436 54.1465 396.436C55.4465 396.436 56.8465 396.136 58.2465 396.136C60.7465 396.136 63.2465 396.136 65.7465 395.736C68.2465 395.336 67.7465 395.536 68.6465 395.736C69.5465 395.936 70.8465 396.136 71.9465 396.136C73.7465 396.136 75.5465 396.136 77.3465 396.136C79.1465 396.136 80.2465 396.336 81.4465 396.136C83.0465 395.736 85.2465 396.136 85.8465 394.336C86.4465 392.536 86.6465 391.036 85.0465 390.036L84.9465 389.836Z" fill="#000030"/>
</svg>
