<svg width="423" height="429" viewBox="0 0 423 429" fill="none" xmlns="http://www.w3.org/2000/svg">
<path d="M238.6 44.1784V44.3784C238.6 44.6784 238.6 44.7784 238.6 44.8784C238.6 44.8784 238.6 44.9784 238.7 44.9784C238.8 44.9784 239 45.0784 239.2 45.1784H239.4C239.8 45.3784 240.2 45.5784 240.6 45.7784C241.3 46.0784 242 46.4784 242.7 46.4784C243.4 46.4784 242.9 46.4784 243 46.4784C243.8 46.3784 244.8 46.2784 245.6 46.2784C247.2 46.2784 248.7 46.0784 250.1 45.5784C250.6 45.1784 251 44.4784 251.3 43.7784C251.5 43.2784 251.8 42.7784 252 42.3784C252.4 41.5784 252.8 40.6784 253 40.1784C253.2 39.2784 252.8 37.8784 252 36.6784C251.8 36.3784 251.4 36.1784 251 35.8784C250.3 35.4784 249.9 34.8784 249.6 34.4784C249.5 34.2784 249.3 34.0784 249.2 33.8784C248.8 33.5784 247.9 33.6784 247.1 33.6784C246.3 33.6784 245.6 33.3784 245.1 33.1784C244.6 32.9784 244.3 32.8784 243.9 32.9784L243.4 33.2784C241.9 34.0784 240 35.2784 239.2 36.5784C238.5 38.4784 238.6 40.5784 238.6 42.5784C238.6 43.1784 238.6 43.7784 238.6 44.2784V44.1784Z" fill="#010035"/>
<path d="M421.2 207.678C421.2 207.178 421.1 206.578 420.9 206.078C420.7 205.378 420.6 204.678 420.6 203.878C420.6 203.178 420.6 202.378 420.6 201.578C420.6 197.178 420.6 192.578 419.3 188.278C419.3 188.278 419.3 188.278 419.3 188.178C418.6 182.778 417 176.978 414.7 170.978C414.7 170.978 414.7 170.978 414.7 170.878C414.7 170.578 414.7 170.178 414.6 169.778C414.6 169.178 414.5 168.478 414.2 167.978C414 167.678 413.7 167.278 413.4 166.878C413.1 166.578 412.9 166.278 412.7 165.978C410.4 162.078 408.7 158.578 407.4 154.878C407.1 154.478 406.7 154.178 406.3 153.878C406 153.678 405.8 153.478 405.5 153.278C404.9 152.778 404.6 152.078 404.4 151.378C404.2 150.778 404 150.278 403.5 149.878C402.6 148.978 401.6 148.078 400.7 147.178C400 146.378 399.4 145.578 398.9 144.778C398 143.578 397.2 142.378 396 141.378C395.5 140.778 394.9 140.278 394.2 139.778C393.2 139.078 392.2 138.278 391.5 137.178C390.6 135.878 389.1 135.078 387.6 134.078C386.9 133.678 386.2 133.278 385.6 132.878C385.6 132.878 385.6 132.878 385.5 132.878C383.8 131.178 382.2 129.978 380.3 129.078C379.7 128.678 379.3 128.078 378.9 127.578C378.6 127.178 378.3 126.778 378 126.478C377.6 126.178 377 125.978 376.4 125.778C375.7 125.578 374.8 125.378 374.2 124.778C373.2 123.678 371.8 123.178 370.3 122.578C369.7 122.378 369.1 122.078 368.5 121.778C366 120.778 365.7 117.678 365.5 115.578C365.1 113.978 365.2 112.478 365.2 110.978C365.2 110.578 365.2 110.178 365.2 109.878C365.2 108.678 365.4 107.278 365.6 106.078C365.8 104.878 365.9 103.578 366 102.478C366 102.178 365.8 101.678 365.6 101.178V100.778C365.3 100.378 365.2 99.5785 365.3 98.9785C365.8 97.3785 365.7 95.6785 365.7 93.7785C365.7 92.2785 365.7 90.6785 365.9 89.0785C365.7 80.7785 365.6 72.8785 365.7 65.4785C365.7 65.4785 365.7 65.4785 365.7 65.3785C366.2 62.3785 365.8 59.2785 365.5 56.2785C365.4 55.1785 365.2 53.9785 365.2 52.7785C365.2 52.7785 365.2 52.6785 365.2 52.5785C365.4 51.3785 365.3 50.0785 365.2 48.8785C365.2 48.2785 365.1 47.6785 365.1 47.0785C365.1 46.2785 365.3 45.4785 365.4 44.6785C365.8 41.6785 366.3 38.6785 365.6 35.9785C365.4 35.0785 365.3 34.2785 365.2 33.3785C364.9 30.9785 364.6 28.6785 363.4 26.5785C362.8 25.3785 362.7 24.2785 362.5 23.1785C362.3 22.0785 362.2 20.9785 361.6 19.9785C361.1 19.2785 360.8 18.4785 360.5 17.5785C360.2 16.6785 359.9 15.7785 359.2 15.1785C358.3 14.3785 357.5 13.3785 356.8 12.3785C356.1 11.3785 355.4 10.3785 354.4 9.67846C353.8 9.37846 353.2 9.07846 352.7 8.87846C351.1 8.17846 350.2 7.67846 349 5.37846C348.4 4.87846 347.3 4.77846 346.2 4.67846C345.2 4.57846 344.1 4.47846 343.3 3.97846C341.6 2.97846 340 2.37846 338.3 1.87846C337.3 1.57846 336.4 1.27846 335.3 0.778458C333.4 0.578458 331.5 0.778458 329.6 0.778458C327 0.978458 324.2 1.17846 321.4 0.478459C320.1 0.478459 318.7 0.578458 317.4 0.778458C315.6 0.978458 313.8 1.07846 312 1.07846C308.6 0.778461 305.6 0.678458 302.3 1.27846C302.2 1.27846 302.1 1.27846 302 1.27846C297.4 -0.0215416 292.4 0.478461 287.6 1.07846H287.3C285.6 1.37846 284 1.07846 282.4 0.778458C281.1 0.478458 279.8 0.278461 278.4 0.378461C277.9 0.378461 277.4 0.478461 276.9 0.578461C276.3 0.678461 275.7 0.778458 275 0.778458C274.3 0.778458 273.6 0.578461 272.9 0.378461C272.3 0.178461 271.8 0.0784614 271.2 0.0784614C269.7 -0.121539 268.3 0.0784591 266.8 0.478459C265.1 0.778459 263.4 1.17846 261.6 0.778458C261.6 0.778458 261.6 0.778458 261.5 0.778458C259.1 -0.221542 256.6 0.178461 254 0.578461C252.9 0.778461 251.7 0.978459 250.6 0.978459C249.2 0.978459 247.8 0.778461 246.5 0.578461C244.9 0.278461 243.4 0.0784599 241.9 0.17846C239.6 0.57846 237.2 0.478459 234.8 0.478459C232.1 0.478459 229.5 0.378461 227 0.878461C225.6 1.37846 224.1 1.07846 222.8 0.878461C222.4 0.878461 222 0.67846 221.6 0.67846C220.5 0.47846 219.6 0.678458 218.6 0.778458C217.7 0.878458 216.7 1.07846 215.6 0.878461C214.1 0.678461 212.6 0.878459 211.1 0.978459C210.1 0.978459 209.1 1.17846 208 1.17846C206.1 1.07846 204.4 1.17846 202.5 1.37846C200.5 1.57846 198.5 1.67846 196.5 1.47846H195.7C193.5 0.978459 191.5 0.678461 189.4 1.07846C189.4 1.07846 189.3 1.07846 189.2 1.07846C187.6 0.878461 186.1 1.07846 184.5 1.07846C183.1 1.17846 181.6 1.27846 180.1 1.17846C180.1 1.17846 180 1.17846 179.9 1.17846C178.9 0.77846 177.9 0.878459 176.7 0.978459C176.2 0.978459 175.8 0.978461 175.3 1.07846C175.3 1.07846 175.2 1.07846 175.1 1.07846C174 0.878461 172.7 0.878459 171.4 0.978459C170.8 0.978459 170.2 0.978459 169.6 0.978459C168.7 0.978459 167.8 0.678459 167 0.478459C166.1 0.278459 165.3 0.0784614 164.5 0.0784614C161.9 0.278461 158.9 0.678461 156.3 1.07846C155.6 1.07846 154.9 1.07846 154.1 0.878461C153.3 0.878461 152.5 0.67846 151.8 0.67846C150.4 0.87846 148.9 0.978461 147.1 0.878461C145.9 1.07846 144.7 1.57846 143.5 2.07846C142.9 2.37846 142.3 2.57846 141.6 2.87846C138.9 4.07846 136.1 5.27846 134.3 7.57846C134.3 7.57846 134.2 7.67846 134.1 7.77846L133.6 8.07846C132.2 8.87846 131 9.57846 130.3 10.8785C129.5 12.3785 128.3 13.4785 127.1 14.5785C126.3 15.2785 125.6 15.9785 125 16.7785C124.7 17.2785 124.5 17.8785 124.3 18.5785C124 19.3785 123.8 20.3785 123.1 21.1785C123 21.3785 122.8 21.5785 122.6 21.8785C122.4 22.1785 122.1 22.4785 121.9 22.7785C121.8 22.9785 121.7 23.2785 121.6 23.5785C121.4 24.0785 121.2 24.5785 120.7 24.8785C120.1 25.2785 119.7 25.5785 119.7 26.0785C119.7 26.3785 119.7 26.6785 119.7 26.9785V27.2785C119.7 28.4785 119.4 29.1785 119 29.7785C118.9 29.9785 118.7 30.2785 118.7 30.4785C118.7 30.4785 118.7 30.4785 118.7 30.5785C119 32.2785 118.9 34.0785 118.8 35.7785C118.8 37.1785 118.7 38.5785 118.8 39.9785C118.8 40.1785 118.9 40.4785 119 40.6785C119.3 41.6785 119.7 42.7785 119.3 43.9785C119.2 44.6785 118.9 45.3785 118.6 46.1785C118.2 47.3785 117.7 48.6785 117.8 49.7785C117.8 50.2785 118 50.6785 118.2 51.0785C118.4 51.5785 118.7 52.1785 118.7 52.8785C118.5 54.3785 118.6 55.6785 118.7 57.0785C118.7 57.8785 118.8 58.6785 118.8 59.5785C118.8 59.5785 118.8 59.5785 118.8 59.6785C118.5 61.5785 118.4 63.8785 118.8 65.3785C118.8 65.3785 118.8 65.4785 118.8 65.5785C118.6 67.3785 118.8 69.1785 118.8 70.9785C118.8 71.4785 118.8 72.0785 118.8 72.5785C118.8 72.5785 118.8 72.6785 118.8 72.7785C117.8 76.9785 118.2 81.7785 118.8 85.4785C118.8 85.4785 118.8 85.6785 118.8 85.7785C118.6 86.9785 118.5 88.7785 118.7 90.8785C118.7 90.8785 118.7 90.9785 118.7 91.0785C118.4 92.8785 118.1 95.4785 118.4 97.5785C118.8 99.1785 118.8 100.778 118.4 102.278C118.4 102.778 118.3 103.378 118.3 104.078C118.3 104.978 118.3 105.978 118 106.878C117.8 107.678 117.9 108.178 118.1 109.278C118.4 110.678 118.3 112.178 118.3 113.678C118.3 114.478 118.3 115.278 118.3 116.078C118.3 116.078 118.3 116.078 118.3 116.178C118.3 116.878 118.3 117.578 118.5 118.278C118.7 119.378 119 120.678 118.2 121.978C117.8 122.578 117.9 123.878 118.5 125.878C119 128.178 119 129.778 118.1 131.678C117.8 132.278 117.9 132.678 118.1 133.778C118.4 136.678 118.4 139.478 118.3 142.178C118.3 143.778 118.3 145.478 118.3 147.178C118.3 147.978 118.5 148.678 118.6 149.478C118.8 150.778 119.1 152.178 118.7 153.778C118.7 154.478 118.7 155.178 118.7 155.878C118.7 156.778 118.7 157.678 118.5 158.778C118.3 159.778 118.5 160.778 118.6 161.878C118.8 163.578 119.1 165.578 118 167.578C117.7 168.578 118 169.578 118.4 170.778C118.8 171.878 119.2 173.178 119 174.578C118.6 176.678 118.6 178.578 118.7 180.678C118.8 183.278 118.9 185.878 118 188.478C117.7 189.478 118 190.678 118.5 191.578C118.8 192.778 118.8 193.478 118.7 194.678V195.378C118.7 196.178 118.7 196.978 118.8 197.878C118.9 198.878 119.1 199.978 119 201.078V201.678C118.8 202.878 118.7 204.078 119 205.178C119.1 206.378 118.7 207.378 118.4 208.278C118.1 208.978 117.9 209.678 117.9 210.378C117.9 210.378 117.9 210.378 117.9 210.478C117.7 211.478 118.2 212.478 118.6 213.578C119.2 215.078 119.9 216.678 119.2 218.478C119.2 218.478 119.2 218.478 119.2 218.578C117.5 221.378 117.9 222.578 118.5 225.278C118.5 225.578 118.7 225.978 118.8 226.278C118.8 226.278 118.8 226.378 118.8 226.478C118.8 227.178 118.8 227.778 118.7 228.478C118.5 231.378 118.3 234.378 118.8 237.078C118.8 237.478 118.8 237.678 118.9 237.978C118.9 238.578 119.1 239.178 119 239.878C119 239.878 119 239.878 119 239.978C118.9 240.478 118.7 240.978 118.5 241.378C118.2 242.078 118 242.578 118.1 243.278C118.1 243.878 118.3 244.278 118.4 244.778C118.8 246.678 119.1 248.378 118.4 250.578C118.4 251.578 118.4 252.878 118.7 254.078C118.9 255.578 119.1 257.078 118.9 258.378C118.9 258.378 118.9 258.478 118.9 258.578C118.3 260.078 117.1 261.378 116.1 262.678C115.3 263.578 114.6 264.478 114.1 265.378C114.1 265.378 114.1 265.478 113.9 265.578C111.1 267.978 108.4 270.578 105.8 273.378C105.4 273.878 104.8 274.378 104.3 274.878C104 275.178 103.7 275.478 103.4 275.678C102 278.178 100.3 279.978 97.8 281.478C97.3 281.978 97 282.678 96.7 283.478C96.3 284.678 95.5 285.478 94.8 286.278C94.6 286.478 94.5 286.678 94.3 286.878C93.4 287.978 92.2 289.078 91.1 290.078C89.9 291.178 88.7 292.278 87.8 293.478C87 296.578 85.1 297.878 83.4 299.078C82 300.078 80.7 300.978 80.1 302.878C79.6 304.378 78.7 305.378 77.8 306.278C77.2 306.878 76.7 307.478 76.3 308.178C75.6 309.478 74.6 310.278 73.7 311.078C73.1 311.578 72.5 312.078 72 312.678C71.7 313.778 71 314.278 70.3 314.778C69.9 315.078 69.4 315.378 69.2 315.778C68.9 316.278 68.7 316.678 68.5 317.178C68.2 317.878 67.8 318.578 67.4 319.278C66.7 320.278 65.7 321.078 64.7 321.878C63.5 322.878 62.4 323.778 62 324.878C61.6 325.878 61 326.678 60.5 327.478C60 328.178 59.6 328.878 59.3 329.578C59 330.178 58.7 330.778 58.1 331.378C57.8 331.678 57.4 331.878 57.1 332.078C56.6 332.378 56.2 332.678 55.8 333.178C55.5 333.678 55.3 334.378 55 335.178C54.3 336.778 53.7 338.478 52.6 339.778C51.9 340.678 51 341.178 50.1 341.678C49.7 341.878 49.3 342.178 48.9 342.478C47.6 343.678 46.8 345.378 45.9 347.178C45.3 348.478 44.6 349.878 43.8 351.078C43.8 351.078 43.8 351.078 43.7 351.178C40 354.478 36.8 358.478 34.6 362.678C34.6 362.678 34.6 362.778 34.5 362.878C32.8 364.578 31.5 366.178 29.7 368.378C29.3 368.778 28.8 369.178 28.3 369.578C27.5 370.278 26.7 370.878 26.2 371.678C26 372.078 25.8 372.478 25.6 372.878C24.7 374.678 23.8 376.378 22.7 377.778C22 379.678 21.1 381.778 19.6 383.878C19 384.878 18.2 385.578 17.4 386.278C16.8 386.778 16.3 387.278 15.9 387.778C15.4 388.378 15.2 388.978 14.8 389.778C14.7 389.978 14.6 390.278 14.5 390.478C14.1 391.378 13.5 392.078 13 392.678C12.5 393.178 12.1 393.678 11.9 394.278C11.4 395.878 10.4 397.178 9.4 398.378C9 398.778 8.7 399.278 8.3 399.778C7.7 400.578 7.3 401.478 7 402.478C6.7 403.278 6.4 403.978 6 404.778C6 404.778 6 404.878 5.9 404.978C4.6 406.278 3.6 407.778 2.5 409.478C1.7 410.378 1.1 411.178 1 412.278C1 413.678 0.600002 415.078 0.400002 416.478C0.200002 417.278 0.1 418.078 0 418.878V419.578C0.3 422.278 0.6 424.478 2.5 425.178C2.5 425.178 2.7 425.178 2.7 425.278C5.5 427.778 7.6 427.578 10.3 427.278C11.8 427.078 13.6 426.878 15.6 427.278C16.6 427.278 17.6 427.278 18.8 427.278C19.9 427.278 21 427.078 22.1 427.278C22.6 427.278 23.2 427.278 23.7 427.278C25.5 427.278 27.2 427.378 28.9 426.978C30 426.778 31 426.978 32 427.078C32.6 427.178 33.2 427.278 33.8 427.278C35.2 426.878 36.5 427.178 37.7 427.378C38.4 427.478 39.1 427.678 39.9 427.678C47.2 426.678 54.6 427.078 61.7 427.578C62.2 427.578 62.7 427.578 63.2 427.478C63.8 427.478 64.5 427.278 65.2 427.378C65.7 427.378 66.2 427.578 66.7 427.778C67.2 427.978 67.7 428.178 68.1 428.178C69.1 428.178 70 427.878 71.1 427.478C72.7 426.978 74.5 426.378 76.6 427.078C78.5 427.278 80.5 427.278 82.4 427.078C84.4 427.078 86.4 426.878 88.4 427.078C89.4 427.178 90.2 427.078 91.2 426.878C92.1 426.678 93.2 426.478 94.4 426.578C95.3 426.578 96.2 426.678 97.1 426.878C98.6 427.078 100 427.278 101.6 426.878C104.1 426.278 107.4 426.578 110.2 426.878C113.4 426.378 117.1 426.378 119.9 426.478C120.6 426.478 121.2 426.678 121.8 426.678C122.8 426.878 123.6 426.978 124.7 426.678C124.7 426.678 124.8 426.678 124.9 426.678H126C129.6 426.978 133 427.178 136.7 426.678C137.4 426.678 138.1 426.678 138.7 426.778C139.2 426.978 139.6 427.178 139.9 427.378C139.9 427.378 140.1 427.478 140.2 427.578C140.2 427.578 140.3 427.578 140.4 427.578C143.2 426.578 147.4 425.978 150.9 426.178C151.8 426.178 152.6 426.378 153.3 426.578C153.8 426.778 154.3 426.978 154.7 426.878H155.1C156.7 426.578 158.5 426.378 160.2 426.878C162 427.578 163.7 427.178 165.5 426.878C166.8 426.578 168.2 426.378 169.6 426.478C169.6 426.478 169.6 426.478 169.7 426.478C170.7 426.778 171.6 426.778 172.6 426.678C173.7 426.678 174.9 426.678 176.4 427.178C177.3 427.278 178.3 427.178 179.3 426.878C180.3 426.678 181.3 426.378 182.4 426.478C183.5 426.478 184.7 426.578 185.9 426.678C188.6 426.878 191.4 427.078 194 426.678C194 426.678 194 426.678 194.1 426.678C195.5 426.678 196.8 426.678 198.1 426.678C200.2 426.678 202.3 426.678 204.7 426.878C205.5 426.878 206.4 426.778 207.2 426.678C209.2 426.478 211.2 426.278 213.2 426.778H213.6C213.7 426.778 213.8 426.778 214 426.778C214.2 426.778 214.4 426.778 214.6 426.778C215.3 426.778 215.8 426.478 216.4 426.178C216.9 425.978 217.4 425.778 218 425.578C218 425.578 218.2 425.578 218.3 425.578C219.5 425.778 220.8 425.878 222.2 425.978C223 425.978 223.9 425.978 224.8 426.178C224.8 426.178 224.9 426.178 225 426.178C226.3 426.678 227.9 426.578 229.4 426.478C230.5 426.478 231.6 426.378 232.7 426.478C233.4 426.478 234 426.778 234.5 426.978C234.9 427.178 235.4 427.278 235.8 427.378C236.2 427.378 236.6 427.278 237.1 426.978C237.7 426.678 238.5 426.378 239.4 426.478C239.7 426.478 240.1 426.578 240.4 426.678C241.9 426.978 243.7 427.278 245 426.978C245.3 426.978 245.7 426.778 246 426.678C246.6 426.478 247.3 426.278 248.1 426.378C248.9 426.478 249.7 426.878 250.3 427.178H250.5C251.5 427.878 252.7 427.878 254 427.878C255.5 427.778 256.9 427.878 258.3 427.978C259.6 428.078 260.9 428.278 262.1 428.078C267.6 427.378 273.5 427.778 277.4 428.178C280 427.678 282.2 427.678 284.3 428.178C287.4 428.178 290.5 428.178 294.1 428.478C294.1 428.478 294.1 428.478 294.2 428.478C294.9 428.478 295.4 428.178 296.1 427.878C296.7 427.578 297.3 427.378 298.1 427.178C300.1 427.178 302 427.278 303.9 427.478C305.8 427.678 307.8 427.878 309.8 427.778C311.7 427.678 313.3 427.478 315.1 427.178L316.7 426.978C317.9 426.778 318.9 426.978 319.9 427.278C320.7 427.478 321.5 427.678 322.5 427.678C323.7 427.678 324.7 427.678 325.8 427.478H326C327.3 427.378 328.7 427.178 330.3 427.278C330.6 427.278 330.8 427.278 331.2 427.078C331.6 426.978 332 426.878 332.5 426.778C333.4 426.678 334.3 426.778 335.1 426.878C335.9 426.978 336.6 427.178 337.2 426.978C338.4 426.778 341.1 426.178 342.4 425.078C342.6 424.878 342.8 424.678 343.1 424.478C343.6 423.978 344.2 423.378 345 422.978C345.7 422.578 346.6 422.478 347.4 422.378C347.7 422.378 348.1 422.378 348.4 422.178C349.4 421.978 349.9 421.478 350.6 420.878C350.8 420.678 351 420.478 351.2 420.378C351.8 419.778 352.5 419.678 353.1 419.678C353.5 419.678 353.8 419.678 354 419.478C355.2 418.278 356.5 416.578 357.7 414.978C357.7 414.978 357.8 414.878 357.9 414.778C360.3 413.078 362.2 410.578 363.9 406.878C364.4 405.878 364.5 404.878 364.7 403.878C364.7 403.478 364.8 403.078 364.9 402.678C364.9 402.678 364.9 402.678 364.9 402.578C365.2 401.678 365.7 400.578 366.2 399.478L366.6 398.578C366.8 397.878 366.8 397.078 366.6 396.078V395.578C366.4 394.678 366.6 393.978 366.6 393.278C366.6 392.678 366.8 392.178 366.6 391.678C366 389.878 366.5 387.878 366.9 386.078C367.1 385.178 367.3 384.378 367.4 383.578C367.6 382.678 367.4 381.778 367.3 380.778C367.1 379.778 367 378.678 367.2 377.478C367.2 376.678 367.5 375.978 367.6 375.178C367.8 374.478 368 373.778 368 372.978C368.1 372.078 368 371.178 367.8 370.278C367.8 369.778 367.6 369.278 367.6 368.678C367.6 367.978 367.6 367.378 367.6 366.878C367.6 364.978 367.7 363.178 366.9 361.578C366.9 361.578 366.9 361.478 366.9 361.378C366.7 360.578 366.9 359.778 366.9 359.078V358.678C367.1 358.078 366.9 357.478 366.9 356.778C366.9 356.378 366.7 355.878 366.7 355.478C366.7 354.578 366.7 353.578 366.8 352.678C366.9 351.778 367 350.878 366.9 350.078C366.9 349.778 366.9 349.478 366.8 349.078C366.7 348.078 366.6 347.078 366.6 345.978C366.6 345.278 366.6 344.678 366.4 343.978C366.4 343.578 366.3 343.278 366.2 342.778C366.1 341.678 366.5 340.678 366.9 339.778C367.1 339.378 367.3 338.878 367.4 338.478C367.4 337.678 367.4 336.878 367.4 335.978C367.4 335.478 367.4 334.978 367.4 334.378C367.4 333.878 367.2 333.278 367.1 332.678C366.9 331.778 366.6 330.878 366.6 329.978C366.6 328.578 367 327.078 367.2 325.578C367.4 324.378 367.6 323.178 367.7 322.278C367.7 321.878 367.6 321.478 367.5 320.978C367.3 319.878 367.2 318.678 367.1 317.678C367.1 316.978 367.1 316.378 367.1 315.778C367.2 314.278 367.3 312.778 366.8 311.378C366.2 309.678 366.5 308.478 366.8 307.078C366.8 306.778 366.9 306.478 367 306.078C367.1 304.478 367 302.678 367 300.978C367 298.678 367 296.478 367.2 294.478C367.5 293.278 367 292.078 366.5 290.978V290.678C366 289.678 366.2 288.578 366.8 287.578C367.5 286.578 368.6 285.978 369.8 285.878C371.2 285.678 372.8 284.478 373 283.378C373 283.278 373 283.178 373.2 283.078C373.6 282.578 374.2 282.378 374.8 282.178C375.1 282.078 375.4 281.978 375.6 281.778C376 281.578 376.3 281.278 376.6 281.078C377.1 280.778 377.5 280.378 378.1 280.078C381.6 278.178 384.7 275.578 387.3 273.378C388 272.678 388.9 272.378 389.8 272.178C390.5 271.978 391.1 271.778 391.6 271.378C391.7 271.278 391.8 271.078 391.9 270.778C392.2 270.178 392.5 269.378 393.7 268.678C394 268.478 394.4 268.278 394.9 268.078C395.1 267.978 395.3 267.878 395.5 267.778C396.3 267.378 396.7 266.678 397 265.878C397.2 265.478 397.3 265.178 397.5 264.878C397.5 264.878 397.5 264.778 397.6 264.778L397.9 264.478C398.9 263.578 399.9 262.578 400.5 261.378C400.5 261.378 400.5 261.278 400.5 261.178C403.6 257.478 406.5 253.478 409.2 249.278C411.5 245.578 412.9 242.378 414 239.078V238.978C414.3 238.378 414.7 237.978 415.1 237.478C415.7 236.778 416.2 236.078 416.4 235.178C416.8 233.978 417 232.778 417.2 231.478C417.6 229.278 418 226.978 419.1 225.078C419.3 224.778 419.5 224.578 419.7 224.378C420.1 223.978 420.3 223.778 420.2 223.178C419.9 219.778 420.4 215.478 421.5 212.278C421.5 212.278 421.5 212.078 421.7 211.978C422.1 211.578 422 210.978 421.9 210.178C421.9 209.978 421.9 209.778 421.9 209.578C421.9 208.978 421.9 208.378 422.1 207.778C422.1 207.378 422.3 206.978 422.2 206.678L421.2 207.678ZM393.5 174.478H393.3C392.9 174.878 392.5 175.378 392 175.878C391.3 176.678 390.6 177.278 390.3 178.278C389.8 179.378 389.1 180.178 388.4 181.078C387.9 181.678 387.4 182.278 387 182.878C386.5 183.478 386 183.978 385.5 184.478C384.6 185.378 383.7 186.278 383.1 187.378C382.6 188.178 381.9 188.878 381.3 189.478C380.7 190.078 380.1 190.578 379.8 191.278V191.578C379.4 191.978 379.2 192.478 378.9 192.878C378.5 193.378 378 193.778 377.6 194.278C377 194.878 376.4 195.478 375.9 196.078C375.4 196.678 374.8 197.078 374.3 197.378C373.5 197.878 372.9 198.378 372.5 199.178C372 200.978 370.8 202.378 369.6 203.678C369.1 204.278 368.6 204.778 368.1 205.478C367.3 206.678 366.4 207.978 365 208.978C364.5 209.378 364.1 209.878 363.7 210.578C363.4 211.078 363.1 211.478 362.7 211.978C362.1 212.578 361.6 213.278 361 213.978C360.1 215.178 359.2 216.378 357.8 217.278C356.7 218.378 356 219.578 355.2 220.778C354.3 222.178 353.4 223.678 351.9 224.978C351.4 225.378 350.9 225.978 350.5 226.578C350.1 227.078 349.6 227.678 349.1 228.078C347.8 228.978 347.2 229.678 346.3 231.178C344.9 232.878 343.6 234.178 342.3 235.178C342 235.578 341.7 235.978 341.5 236.478C340.9 237.378 340.3 238.378 339.3 239.278C337.4 241.978 335 244.378 332.6 245.878C332.1 246.278 331.8 246.778 331.4 247.578C331.3 247.778 331.1 248.078 331 248.278C328.8 251.978 324.7 256.178 321.6 257.978L321.2 258.178C320.6 258.578 320.1 258.978 319.4 259.078C319.4 259.078 319.4 259.078 319.3 259.078C317.1 259.178 315.2 257.778 313.6 256.478C312.9 255.878 312.2 255.378 311.5 254.978C309.8 254.078 307.9 252.878 306.8 251.078C306.3 250.378 305.4 249.978 304.5 249.478C304.3 249.478 304.1 249.278 303.9 249.178C302.6 248.478 302 247.478 301.3 246.578C300.9 246.078 300.5 245.478 300 244.978C299.2 244.178 298.4 243.178 297.8 242.278L297.4 241.678C297.1 241.278 296.7 241.178 296.2 240.978C295.9 240.878 295.7 240.778 295.4 240.578C294.7 240.278 294.3 239.478 294 238.778C294 238.578 293.8 238.478 293.7 238.278C293.3 237.678 292.8 237.178 292.2 236.878C290.5 236.178 289.5 234.978 288.4 233.778C288 233.278 287.6 232.878 287.2 232.378C286.7 231.878 286.3 231.378 285.8 230.778C285 229.878 284.3 228.978 283.5 228.578C282.1 227.878 280.5 226.878 279.7 225.078C278.9 223.778 278.7 222.478 279.1 221.178C280.3 217.778 282.9 214.678 285.5 211.678C286.6 210.378 287.7 209.078 288.7 207.878C289.7 206.378 291.3 205.478 293.2 205.178C293.6 205.178 294 205.178 294.4 205.178C296.5 205.178 298.5 205.878 300.1 207.178C300.1 207.178 300.1 207.178 300.2 207.278C301.1 208.478 302.3 209.578 303.5 210.578C303.9 210.878 304.3 211.278 304.7 211.578C306 213.078 307.1 214.278 308.3 215.278C308.9 215.878 309.3 216.478 309.7 217.178C310.2 217.978 310.6 218.678 311.4 219.078C311.9 219.278 312.4 219.578 312.9 219.778C314.3 220.378 315.7 220.978 316.9 222.078C317.4 222.478 317.9 222.978 318.3 223.578C319.2 224.578 319.7 225.178 320.5 225.078C320.9 224.978 321.2 224.578 321.6 224.078C321.8 223.878 321.9 223.778 322.1 223.578C322.4 223.278 322.7 222.978 322.9 222.778C323.9 221.778 324.7 220.978 325.6 219.878C326.1 219.278 326.7 218.778 327.3 218.278C328.6 217.078 329.8 215.878 330.8 214.378C331.4 213.478 332.1 212.778 332.7 212.078C333.6 211.078 334.5 210.178 335 208.878C335 208.878 335 208.878 335 208.778C335.5 207.878 336.3 207.278 337 206.778C337.6 206.278 338.1 205.878 338.6 205.278C340.4 202.178 342.3 198.578 345 195.978C345.5 195.478 346.1 194.978 346.6 194.478C347.2 193.978 347.7 193.578 348.1 193.078C348.4 192.678 348.7 192.178 348.9 191.578C349.2 190.878 349.5 190.078 350.1 189.478C350.5 189.078 351 188.678 351.5 188.378C351.9 188.078 352.4 187.778 352.6 187.478C352.8 187.078 353.1 186.678 353.3 186.178C354 184.878 354.8 183.478 356 182.378C356.4 182.078 356.9 181.878 357.3 181.778C357.8 181.578 358.2 181.478 358.6 181.078C359.1 180.578 359.4 179.778 359.8 178.978C360.2 177.878 360.7 176.678 361.9 175.978C361.9 175.978 362.2 175.778 362.3 175.678C362.7 175.378 363 175.178 363.3 174.878C363.6 174.478 363.8 173.978 363.9 173.378C364.1 172.778 364.3 172.078 364.7 171.578C365.1 171.078 365.8 170.778 366.3 170.478C366.7 170.278 367.1 170.078 367.3 169.878C367.5 169.578 367.6 169.278 367.7 168.878C367.9 168.478 368 167.978 368.3 167.478C368.8 166.678 369.6 166.078 370.4 165.478C371.1 164.978 371.8 164.478 372.3 163.978C373.3 162.978 374.2 161.878 375.1 160.578C375.4 160.178 375.6 159.778 375.9 159.378C376.5 158.278 377.2 157.278 378.2 156.778C379.4 156.178 380.8 156.078 382.1 156.578C383.2 156.978 384 157.878 384.5 158.978C386 161.878 389.2 165.878 391.9 168.278C394.1 169.978 394.5 172.078 393 174.378H393.2L393.5 174.478ZM351.4 351.078C351.4 351.578 351.4 351.978 351.4 352.478C351.5 354.278 351.4 356.078 351.4 357.878C351.4 359.078 351.4 360.278 351.4 361.478C351.4 361.478 351.4 361.578 351.4 361.678C350.9 364.378 348.3 364.278 345.6 363.878C345.2 363.878 344.8 363.778 344.4 363.678C343.3 363.578 342.5 363.678 341.5 363.978C340.8 364.178 339.9 364.378 338.9 364.378C338 364.378 337.2 364.178 336.3 363.978C335.7 363.878 335.1 363.678 334.6 363.678C334.1 363.678 333.7 363.678 333.2 363.778C332.9 363.778 332.6 363.778 332.3 363.878C331.6 363.878 331 363.678 330.5 363.478C329.9 363.178 329.8 363.178 329.6 363.278C329.2 363.478 328.8 363.678 328.4 363.878C327.8 364.278 327 364.678 326.2 364.778C325.3 364.878 324.7 364.578 324.1 364.178C324.1 364.178 323.9 364.078 323.8 364.078C323.5 363.878 323 363.778 322.6 363.878C320.9 364.678 319.6 364.678 318.1 364.478C317.2 364.478 316.4 364.278 315.7 364.178C314.5 363.978 313.5 363.778 312.1 363.978C311.2 364.178 310.2 364.078 309.3 363.978C308.8 363.978 308.4 363.978 308.1 363.978C307.7 363.978 307.1 364.078 306.6 364.178C305.9 364.278 305.3 364.378 304.6 364.478C303.3 364.478 302 364.478 300.8 364.478C297.7 364.478 294.6 364.478 291.6 363.978C291.2 363.978 290.7 364.078 290 364.378C289.3 364.578 288.6 364.878 287.8 364.878C287 364.878 287.6 364.878 287.5 364.878C285.2 364.478 282.8 364.378 280.5 364.378C278.2 364.378 278.9 364.378 278.1 364.378C277.2 364.378 276.2 364.378 275.3 364.378C274.9 364.378 274.5 364.378 274 364.578C273.5 364.678 272.8 364.778 272.2 364.778C271.6 364.778 271 364.578 270.4 364.378C269.8 364.178 269.2 363.978 268.6 363.978C265.4 364.378 262.1 364.178 259 363.378C259 363.378 259 363.378 258.9 363.378C257.5 362.778 256.1 361.578 255.2 360.178C255 359.778 254.9 359.378 254.7 359.078C254.6 358.778 254.5 358.478 254.3 358.178C254.1 357.778 253.6 357.478 253.1 357.078C252.8 356.878 252.5 356.678 252.2 356.478C251.7 356.178 251.3 355.778 250.8 355.378C250.6 355.178 250.4 354.978 250.2 354.778C249.6 354.278 248.8 353.978 248 353.678C247.1 353.378 246 352.978 245.1 352.178C244.3 351.678 243.2 350.978 242.1 350.878C241.1 350.878 240 350.678 239 350.578C237 350.378 235 350.178 233.1 350.378C231.7 350.878 230.1 351.278 228.6 351.478C227.9 351.578 227.2 351.778 226.4 351.978C225.8 352.178 224.5 352.578 223.8 351.878C223.8 351.878 223.8 351.878 223.8 351.778C223.3 351.078 223.3 350.278 223.4 349.478C223.4 349.078 223.4 348.778 223.4 348.478C223.4 347.778 223.4 347.078 223.4 346.378C223.4 345.878 223.4 345.378 223.4 344.878C223.4 344.778 223.4 344.678 223.4 344.678V344.578C222.5 342.978 222.1 341.378 222.1 339.778C223 331.178 214.9 322.578 207.1 320.178C206.2 319.978 205.5 319.478 204.9 319.078C204.1 318.578 203.4 318.178 202.6 318.178C201.5 318.178 200.5 317.778 199.5 317.478C198.4 317.078 197.4 316.778 196.4 316.878C195.5 316.878 194.8 316.778 194.1 316.578C193.6 316.478 193.2 316.378 192.8 316.378C192.7 316.378 192.6 316.378 192.6 316.578C192.6 316.678 192.6 316.878 192.4 317.078C192.4 317.178 192.2 317.278 192.1 317.378C190.6 318.078 188.8 317.978 187 317.878C186 317.878 185.1 317.878 184.3 317.878C182.9 318.078 181.6 318.378 180.3 318.478C178.9 319.078 177.3 319.378 175.8 319.678C174.3 319.978 173 320.278 171.8 320.778C171.3 320.978 170.9 321.178 170.5 321.478C169 322.278 167.6 322.978 165.3 323.078C165 323.078 164.7 323.078 164.3 323.178C162.7 323.478 160.9 323.578 160.4 321.878C160.2 320.578 161 319.278 161.6 318.178L161.8 317.878C162.3 316.978 163 316.378 163.7 315.778C164.4 315.078 165.1 314.478 165.6 313.478C165.9 312.878 166.2 312.378 166.5 311.778C166.8 311.178 167.2 310.478 167.5 309.878C168.2 308.278 169.2 307.078 170.5 306.178C170.8 305.978 171 305.578 171.2 305.178C171.3 304.878 171.5 304.578 171.7 304.278C171.9 303.878 172.2 303.478 172.5 303.178C172.9 302.678 173.3 302.178 173.5 301.578C173.5 301.378 173.5 301.278 173.6 301.078C173.7 300.778 173.8 300.378 173.9 300.078C174.3 298.978 175.2 298.278 176 297.578C176.3 297.278 176.7 297.078 176.9 296.778C177.2 296.478 177.4 295.978 177.7 295.478C177.9 295.078 178.1 294.578 178.4 294.178C179.8 292.178 181.5 290.178 183.5 288.078C184.1 286.978 184.7 286.178 185.4 285.278C185.9 284.678 186.4 283.978 186.8 283.378C187.3 282.678 188 282.078 188.6 281.578C189.1 281.278 189.5 280.778 190 280.278C190.5 279.678 191 279.178 191.7 278.678C192.8 277.978 193.7 277.378 194 276.378C195.1 273.878 196.8 271.478 199 269.278C199.2 268.878 199.4 268.478 199.6 268.078C199.9 267.478 200.2 266.878 200.6 266.278C201 265.778 201.5 265.478 202 265.078C202.3 264.878 202.6 264.678 202.9 264.378C203.1 264.078 203.3 263.878 203.6 263.578C204.4 262.578 205.3 261.478 206.3 260.678C207 260.078 207.5 259.278 208 258.478C208.2 258.078 208.5 257.678 208.8 257.278C209.9 256.078 210.9 254.978 211.7 253.678C211.7 253.678 211.7 253.578 211.8 253.478C212.1 253.178 212.4 252.978 212.7 252.778C213.4 252.278 214.1 251.778 214.3 250.978C214.3 250.978 214.3 250.878 214.3 250.778C214.8 249.978 215.3 249.178 215.9 248.478C216.5 247.578 217.2 246.778 217.8 245.778C217.8 245.778 217.8 245.678 217.9 245.578C218.4 245.078 218.9 244.778 219.4 244.378C220.3 243.778 221 243.278 221.3 242.378C221.8 240.178 223.2 238.478 224.6 236.978C224.8 236.778 225 236.478 225.2 236.278C225.5 235.778 225.7 235.078 225.9 234.378C226.1 233.278 226.7 232.378 227.3 231.578C227.7 230.978 228 230.478 228.3 229.878C228.6 229.078 228.7 228.178 228.8 227.178C228.8 226.678 228.9 226.178 229 225.778C229.2 224.678 229.4 223.578 229.6 222.578C230.5 218.278 231.1 214.978 228.7 210.678C228.3 209.778 227.7 209.078 227 208.378C226.3 207.578 225.4 206.678 224.8 205.378C224.4 204.478 223.7 203.778 223 203.178C222.3 202.778 221.7 202.378 221.2 201.878C220.1 201.078 219.1 200.378 217.9 199.978C216.8 199.678 215.8 199.178 214.8 198.778C213.9 198.378 213.1 198.078 212.2 197.778C211.3 197.478 210.3 197.378 209.3 197.278C208.5 197.278 207.7 197.178 206.8 196.978C206.3 196.878 205.7 196.978 205.1 196.978C204.8 196.978 204.5 196.978 204.3 197.078C203.9 197.078 203.4 197.078 203 197.178C202.1 197.178 201.3 197.278 200.4 197.578C199.8 197.778 199.2 198.178 198.6 198.578C197.4 199.278 196 200.078 194.4 200.178H194C192.4 200.178 191.6 200.278 190.4 201.278C189.4 201.878 188.2 202.178 186.9 202.378C185.6 202.578 184.3 202.878 183.6 203.478C183.4 203.678 183.2 203.878 183 204.078C182.6 204.478 182.2 204.778 181.7 205.178C181.3 205.478 180.8 205.578 180.3 205.778C180.2 205.778 180 205.778 179.9 205.878C179.2 206.078 178.7 206.478 178.3 206.878C177.9 207.178 177.6 207.478 177.1 207.778C176.9 207.878 176.6 208.078 176.2 208.278C175.8 208.478 175.4 208.678 175.1 208.978C173.1 211.378 170.5 213.178 167.8 214.978L167.1 215.378L166.6 215.778C165.1 216.978 163.7 218.178 161.8 218.878C161.5 219.078 161.3 219.478 161 219.878C160.7 220.378 160.3 220.978 159.8 221.478C159.1 221.978 158.5 222.378 157.8 222.678C156.6 223.378 155.6 223.978 154.8 224.878C153.6 226.178 152.3 227.078 151 227.978C150.5 228.378 150 228.678 149.4 229.078C148.6 229.678 147.9 230.178 147.4 230.778C145.9 232.578 143.9 234.078 142 235.478C141.2 236.078 140.5 236.678 139.7 237.278C139.3 237.678 138.7 238.178 138.2 238.578C137.6 238.978 137.1 239.378 136.7 239.778L136.4 240.078C135.5 240.778 134.6 241.378 133.8 240.578C133.8 240.578 133.6 240.378 133.6 240.278C132.8 238.578 132.9 236.578 133 234.678C133 233.678 133 232.678 133 231.778C133 231.078 132.9 230.378 132.8 229.778C132.6 228.578 132.4 227.278 132.6 225.778C132.6 225.478 132.6 225.178 132.6 224.778C132.6 224.278 132.5 223.778 132.6 223.278C132.6 222.778 132.8 222.178 132.9 221.678C133 220.978 133.2 220.378 133.2 219.678C133.3 215.678 133.2 211.578 133.2 207.578C133.2 201.078 133 194.278 133.6 187.778C133.1 185.078 133.1 182.278 133.2 179.578C133.2 178.578 133.2 177.578 133.2 176.678C133.2 174.778 133.3 172.878 133.5 170.978C133.7 167.578 134 163.978 133.5 159.878C133.5 159.278 133.3 158.678 133.1 158.078C132.8 157.178 132.5 156.178 132.9 155.078C133.4 147.678 133.3 140.078 133.2 132.778C133.2 127.478 133.1 121.978 133.2 116.478C133.2 112.978 133.3 109.178 133.4 105.478C133.4 103.878 133.5 102.378 133.7 100.978C133.9 98.1785 134.2 95.7785 133.2 92.9785C133.2 92.9785 133.2 92.9785 133.2 92.8785C133 91.2785 133.4 88.7785 133.7 86.9785V86.1785C134 85.0785 133.7 84.6785 133.2 83.7785C132.6 82.6785 132.8 81.3785 133.9 79.7785C134.5 78.7785 135.6 78.1785 136.9 78.2785H138.1C140.4 78.5785 142.9 78.7785 145.4 78.4785C146.1 78.4785 146.8 78.1785 147.5 77.8785C148.5 77.4785 149.5 77.0785 150.7 77.2785C151.6 77.3785 152.2 77.7785 152.9 78.1785C153.5 78.5785 154.2 78.9785 154.9 78.9785C155.8 79.0785 156.8 78.7785 157.8 78.5785C158.6 78.3785 159.4 78.1785 160.3 78.0785C162.5 77.7785 164.8 78.0785 167.1 78.4785H168C168.4 78.5785 168.9 78.4785 169.4 78.4785C169.8 78.4785 170.1 78.3785 170.5 78.3785C171.3 78.3785 172 78.3785 172.7 78.4785C173.1 78.4785 173.5 78.5785 173.8 78.5785C174.3 78.5785 174.7 78.5785 175.2 78.4785C175.5 78.4785 175.8 78.4785 176.1 78.3785C177 78.2785 178.2 78.3785 179.4 78.5785C180.4 78.6785 181.4 78.8785 182.2 78.7785C183 78.7785 183.7 78.4785 184.5 78.2785C185 78.0785 185.6 77.8785 186.2 77.7785C186.8 77.7785 187.4 77.7785 188 77.7785C188.4 77.7785 188.9 77.7785 189.3 77.7785C189.3 77.7785 189.4 77.7785 189.5 77.7785C189.5 77.7785 189.6 77.7785 189.7 77.7785C190 77.7785 190.5 77.5785 191 77.7785C191 77.7785 191 77.7785 191.1 77.7785C191.3 77.8785 191.4 78.0785 191.5 78.1785C191.8 78.4785 191.9 78.6785 192.4 78.6785C195.8 78.4785 199.3 78.1785 202.8 77.8785C205.7 77.6785 208.8 77.3785 211.8 77.1785C213 77.1785 214 77.3785 215.1 77.5785C216.2 77.7785 217.4 77.9785 218.6 77.9785C218.6 77.9785 218.7 77.9785 218.8 77.9785C220.1 78.3785 220.9 78.1785 222 77.9785C222.5 77.9785 223 77.7785 223.7 77.7785C226.2 77.5785 228.7 77.8785 231 78.1785C231.5 78.1785 232 78.2785 232.6 78.3785C233.2 78.3785 233.7 78.2785 234.4 78.1785C235.5 78.0785 236.5 77.8785 237.6 77.9785C238.6 78.1785 239.5 77.8785 240.4 77.4785C240.9 77.2785 241.3 77.1785 241.8 76.9785C241.8 76.9785 241.8 76.9785 241.9 76.9785C242.6 76.9785 243.3 77.0785 244 77.2785C244.3 77.2785 244.6 77.3785 244.8 77.4785C245.8 77.6785 246.5 77.4785 247.4 77.1785C248.2 76.9785 249.1 76.6785 250.1 76.8785C250.6 76.8785 251 77.0785 251.3 77.1785C252.2 77.4785 253.2 77.6785 254.3 77.4785C254.6 77.4785 254.8 77.3785 255.1 77.2785C255.6 77.1785 256.1 77.0785 256.5 76.9785C257.3 76.9785 258 77.0785 258.7 77.2785C258.9 77.2785 259.2 77.3785 259.4 77.4785C260.1 77.6785 261 77.6785 261.9 77.6785C262.9 77.6785 263.9 77.6785 264.7 77.8785C265.5 78.0785 266.1 78.0785 266.6 77.9785C266.8 77.9785 267 77.8785 267.2 77.7785C267.9 77.4785 268.8 77.0785 269.8 77.1785C270.7 77.1785 271.5 77.4785 272.2 77.7785C272.9 78.0785 273.5 78.3785 274.3 78.2785C276 78.0785 278 77.8785 280 78.1785C280.6 78.1785 281.1 77.9785 281.8 77.7785C282.4 77.5785 283.2 77.2785 284.1 77.1785C285.4 76.8785 286.8 77.2785 288 77.6785C289.3 78.0785 290.4 78.3785 291.4 77.9785C292.9 77.5785 294.7 77.7785 296.1 78.0785C296.3 78.0785 296.5 78.0785 296.9 77.7785C297.3 77.5785 297.8 77.3785 298.4 77.2785C299.3 77.2785 300.3 77.5785 301.1 77.7785C302.6 78.2785 303.5 78.0785 304.8 77.7785H305.2C306.5 77.7785 308.6 77.4785 309.5 77.2785C309.5 77.2785 309.6 77.2785 309.7 77.2785C310.6 77.2785 311.5 77.4785 312.4 77.5785C313.2 77.6785 314.1 77.7785 314.9 77.8785C315.5 77.8785 315.9 78.0785 316.3 78.1785C317 78.3785 317.5 78.4785 318.2 78.1785C318.2 78.1785 318.2 78.1785 318.3 78.1785C318.9 78.1785 319.6 77.9785 320.4 77.7785C321.5 77.4785 322.6 77.2785 323.5 77.2785C324.2 77.2785 324.8 77.2785 325.6 77.2785C326.9 77.2785 328.3 77.1785 329.4 77.6785C329.6 77.6785 329.7 77.8785 329.9 77.8785C330.1 77.9785 330.3 78.0785 330.5 78.1785C331.6 78.1785 332.8 78.1785 334.2 77.9785C335.6 77.7785 337.1 77.5785 338.5 77.7785C339 77.7785 339.4 77.8785 339.9 77.9785C341.5 78.1785 343 78.3785 344.5 78.1785C345.1 78.1785 345.8 77.9785 346.6 77.7785C347.5 77.5785 348.5 77.2785 349.4 77.2785C349.4 77.2785 349.4 77.2785 349.5 77.2785C350.8 77.2785 352.5 78.4785 353.2 79.5785C353.7 80.5785 353.5 81.2785 353.3 82.2785V82.4785C353 84.0785 353 85.7785 353.1 87.4785C353.1 89.2785 353.1 91.1785 352.9 92.9785C352.8 93.5785 352.8 94.0785 352.9 94.6785C353.3 96.0785 353.1 97.5785 353 98.9785C352.9 100.278 352.8 101.378 353 102.478C353 103.178 353 103.878 352.9 104.478C352.8 105.178 352.7 105.678 352.9 106.278C353.1 106.978 353.2 107.878 353.3 108.778C353.3 109.478 353.4 110.178 353.5 110.778C353.7 111.578 354.1 113.578 352.6 114.478C351.6 114.978 350.8 114.478 350.2 114.178C349.9 113.978 349.6 113.778 349.3 113.778C348.8 113.778 348.3 113.778 347.8 113.778C347.2 113.778 346.6 113.878 346 113.778C344.7 113.778 343.5 113.378 342.3 112.978C341.6 112.778 340.9 112.578 340.3 112.478C339.7 112.478 339 112.678 338.2 112.778C336.2 113.178 333.9 113.578 331.9 112.778C331.3 112.578 330.7 112.778 329.9 112.878C329.3 112.978 328.8 113.078 328 113.078C326.2 113.078 323.8 113.078 322.1 113.478C322.1 113.478 322 113.478 321.9 113.478C318.5 113.478 316.1 113.778 313.6 114.878C313.6 114.878 313.6 114.878 313.5 114.878C311.5 115.378 309.4 115.678 307.4 115.978C306.1 116.178 304.8 116.278 303.5 116.578C301.8 116.878 300.5 117.778 299 118.678C298.3 119.178 297.6 119.578 296.9 119.978C296 120.378 295.2 120.778 294.3 121.078C292.6 121.778 291 122.478 289.6 123.678C289.6 123.678 289.6 123.678 289.5 123.678C288.3 124.578 286.8 125.478 285.2 125.878C284.3 126.078 283.6 126.578 282.8 127.178C282.2 127.578 281.6 128.078 280.8 128.378L279.8 128.978C276.2 130.978 272.8 132.878 271 136.378C269.9 137.978 268.6 139.078 267.2 140.078C266.7 140.478 266.2 140.778 265.8 141.278C265.6 141.578 265.3 141.978 265.1 142.478C265.1 142.678 264.9 142.778 264.8 142.978C264.4 143.678 263.8 144.178 263.3 144.578C262.9 144.878 262.5 145.278 262.1 145.678C261.7 146.178 261.4 146.778 261 147.578C260.3 149.378 259.2 150.878 258.2 152.278C257.4 153.478 256.6 154.578 256 155.878C255.5 157.178 254.4 158.178 253.5 158.978C253.1 159.378 252.7 159.678 252.4 160.078C251.6 161.278 251.2 162.578 250.7 164.078C250.3 165.278 249.9 166.578 249.2 167.778C249 168.178 249 168.778 248.9 169.478C248.9 169.478 248.9 169.478 248.9 169.578C248.6 171.078 247.8 172.578 247.1 173.978C246.4 175.278 245.8 176.478 245.5 177.678C245.5 177.978 245.5 178.178 245.4 178.578C245.4 178.878 245.4 179.278 245.3 179.678C245.3 179.678 245.3 179.678 245.3 179.778C244.9 180.778 244.6 181.878 244.3 183.078C244.1 183.678 243.9 184.378 243.7 185.078C243.5 186.078 243.4 187.078 243.2 188.078C243 189.178 242.9 190.178 242.7 191.378C242.7 192.378 242.6 193.378 242.5 194.378C242.3 196.678 242 198.878 242.6 200.978C243 202.678 243.1 204.978 242.8 207.778C242.6 208.778 242.6 209.378 242.8 209.978C243.2 210.878 243.3 211.878 243.4 212.778C243.4 213.478 243.5 214.178 243.7 214.778C244.1 216.278 244.6 219.178 244.4 221.378C244.4 221.878 244.2 222.178 244 222.478C243.9 222.778 243.8 222.978 243.7 223.178C243.7 223.378 243.7 223.578 244.1 223.978C245.2 225.478 246.2 227.478 246.6 228.178C246.9 228.878 247 229.478 247.1 230.078C247.1 230.378 247.1 230.678 247.3 230.978C247.4 231.478 247.7 231.978 247.9 232.578C248.3 233.578 248.7 234.678 248.9 235.778C249.7 237.378 250.3 239.078 250.8 240.778C251.2 242.078 251.6 243.278 252.1 244.478C252.4 244.978 252.9 245.478 253.5 245.878C254 246.278 254.5 246.678 254.9 247.278C255.3 247.878 255.5 248.578 255.7 249.178C255.9 249.678 256 250.178 256.2 250.578C257 251.978 257.8 253.078 258.7 254.178C259.2 254.778 259.7 255.478 260.2 256.178C262.6 258.678 264.9 261.378 267.6 264.878C269.6 266.778 271.9 268.978 274.5 270.878C274.7 270.878 274.9 271.078 275.1 271.178C275.7 271.478 276.3 271.878 276.9 272.378C277.4 272.878 277.8 273.478 278.1 273.978C278.4 274.478 278.7 274.978 279.1 275.278C279.6 275.778 280.3 275.978 281 276.278C281.4 276.378 281.7 276.578 282 276.778C283.3 277.378 284.2 278.378 285 279.278C285.5 279.878 286 280.478 286.7 280.978C287.2 281.278 287.9 281.378 288.6 281.578C288.9 281.578 289.1 281.578 289.4 281.678C290.5 281.878 291.2 282.578 291.7 283.178C292 283.578 292.4 283.878 292.8 284.078C293.2 284.278 293.7 284.378 294.2 284.378H294.5C295.6 284.478 296.4 285.078 297 285.578C297.5 285.978 298 286.378 298.8 286.478C299.3 286.578 299.9 286.678 300.4 286.678C301.1 286.678 301.8 286.878 302.6 287.078C303.7 287.378 304.7 287.978 305.6 288.578C306 288.878 306.5 289.178 306.9 289.378C307.5 289.578 308 289.478 308.6 289.378C309.3 289.378 310.1 289.278 311.3 289.478C312.5 289.678 313.6 290.178 314.5 290.678C314.9 290.878 315.3 291.078 315.8 291.278C316.2 291.278 316.8 291.278 317.3 291.278H317.8C318.3 291.278 318.9 291.278 319.4 291.278C320 291.278 320.6 291.378 321.4 291.278C322.7 290.978 323.9 291.278 325.1 291.378C325.8 291.478 326.5 291.678 327.3 291.678C328.4 291.678 329.4 291.978 330.4 292.278C331.7 292.678 332.7 292.978 334 292.678C336.6 292.078 339 291.578 341.9 292.278C343.9 292.478 346.2 291.978 348.3 290.878C349 290.478 350 289.978 351.1 290.278C353.8 291.178 354 295.478 353.4 297.578C353 299.378 353.1 300.378 353.4 302.078C353.4 302.378 353.5 302.778 353.6 303.078C353.6 303.778 353.6 304.378 353.4 305.078C353.4 305.478 353.3 305.978 353.2 306.378C353.2 307.078 353.2 307.578 353.4 308.278C353.5 308.878 353.6 309.578 353.6 310.378C353.6 310.978 353.6 311.578 353.8 312.178C354 313.178 354.2 314.178 353.8 315.378C353.6 315.978 353.6 316.878 353.6 317.678C353.6 318.278 353.6 318.978 353.5 319.578V319.978C353.2 320.778 353.1 321.378 353.2 322.078C353.2 322.478 353.4 322.978 353.5 323.378C353.8 324.778 354.2 326.178 353.8 327.578C352.8 331.178 353.2 334.678 353.6 338.178C353.7 340.378 353.6 342.878 353.2 345.478C353.4 346.678 353.2 348.078 353.2 349.278L351.4 351.078ZM44.2 413.078C43.8 413.078 43.3 413.078 42.8 413.078C42.2 413.078 41.6 413.078 41 412.978C41 412.978 40.8 412.978 40.7 412.878C39.6 412.178 38.7 412.378 37.2 412.878C36.4 413.078 35.5 413.378 34.6 413.378C34.5 413.378 34.4 413.378 34.3 413.378C31.9 412.378 28.5 411.778 26.3 412.978C26.3 412.978 26.2 412.978 26.1 412.978C25 413.278 19 413.778 17.2 411.778C16.7 411.178 16.5 410.378 16.8 409.578C16.8 409.578 16.8 409.378 16.9 409.378L17.2 408.978C18.5 407.378 19.5 406.078 20.2 404.178C20.2 404.178 20.2 404.078 20.2 403.978C20.6 403.278 21.2 402.778 21.7 402.278C22.3 401.778 22.8 401.278 23.1 400.678C23.5 400.078 23.7 399.378 23.9 398.578C24.1 397.778 24.4 396.878 24.8 396.078C25.5 395.178 26.2 394.278 26.9 393.478C28 392.078 29.2 390.678 30.3 389.178C30.3 389.178 30.3 389.178 30.4 389.078C32.1 387.778 32.7 385.978 32.9 383.678C32.9 383.578 32.9 383.478 33 383.278C33.5 382.578 34.1 381.878 34.7 381.278C35.7 380.178 36.6 379.078 37.2 377.778C37.8 376.778 38.7 376.078 39.6 375.378C40.6 374.678 41.5 373.978 41.9 372.978C42.9 371.278 44.2 369.978 45.4 368.778C47 367.178 48.5 365.778 49.3 363.578C50.1 361.978 51.1 360.578 52.1 359.278C53.3 357.678 54.5 356.178 55.2 354.378C55.2 354.378 55.3 354.178 55.4 354.078C56.5 353.078 57.5 351.878 58.6 350.778C59.6 349.778 60.6 348.678 61.6 347.678C61.6 347.678 61.6 347.678 61.6 347.578C62.1 345.878 62.9 343.978 64.5 342.378C65.1 341.578 65.7 340.778 66.8 340.378C67.9 339.978 68.4 338.878 68.9 337.178C69.3 336.078 69.7 334.878 70.5 333.978C73.2 331.578 75.5 328.778 77.7 326.078C79.6 323.778 81.5 321.378 83.8 319.178C84.5 318.278 85.1 317.378 85.6 316.478C86.7 314.678 87.9 312.778 89.6 311.278C90.3 309.678 91.6 308.278 92.9 306.878C93.8 305.878 94.6 304.978 95.3 303.978C95.3 303.978 95.3 303.978 95.4 303.878C97.9 301.478 100.1 298.878 102.2 296.278C103.5 294.678 104.8 293.078 106.3 291.578C106.3 291.578 106.5 291.478 106.5 291.378C108.5 290.478 110.1 288.778 111.3 286.178C111.3 286.178 111.3 286.178 111.3 286.078C112 285.078 112.9 284.178 113.7 283.378C114.9 282.178 116 280.978 116.7 279.578C116.7 279.478 116.8 279.378 116.9 279.278C119.9 277.278 122.2 274.378 124.4 271.478C124.9 270.878 125.3 270.378 125.8 269.778C125.8 269.778 125.8 269.678 126 269.678C130 266.878 133.4 263.178 136.6 259.578C139.1 256.778 141.8 253.778 144.7 251.278L145.5 250.778C148.5 248.878 151.6 246.878 153.4 243.878C153.4 243.878 153.4 243.878 153.4 243.778C155 241.978 157.1 240.678 159.1 239.478C160.6 238.578 162.2 237.578 163.5 236.378C164.7 235.478 165.6 234.378 166.5 233.078C167 232.478 167.5 231.778 168 231.178C168 231.078 168.2 230.978 168.3 230.978C169.4 230.578 170.4 229.978 171.4 229.278C172.2 228.778 173.1 228.178 174.1 227.778C174.1 227.778 174.1 227.778 174.2 227.778C174.4 227.778 174.7 227.478 174.8 227.378C174.8 227.378 174.8 227.378 174.8 227.278C175.4 224.778 177.4 223.778 179.2 222.978C180 222.578 180.8 222.178 181.5 221.678C186.2 217.078 188.5 216.478 190.7 215.978C192.2 215.578 193.7 215.178 196 213.578C198.8 211.678 202.3 212.078 205.3 212.378C206.3 212.478 207.3 212.578 208.2 212.578C210.3 212.878 211.8 213.778 212.8 215.378C214.7 218.478 214.2 223.478 213 227.078C213 227.178 212.9 227.278 212.8 227.378C209.7 230.178 209.2 231.478 208.6 232.978C208.1 234.178 207.6 235.478 205.8 237.578C204.8 238.978 203.6 240.378 202.4 241.778C201.4 242.878 200.4 244.078 199.5 245.278C199 245.678 198.5 245.978 197.9 246.278C196.9 246.778 196.3 247.178 196.3 247.978C196.4 249.278 195.4 250.178 194.5 250.878C194.3 250.978 194.1 251.178 194 251.278C194 251.378 193.9 251.578 193.8 251.778C193.3 252.878 192.7 253.978 191.2 254.678L190 256.178C185.5 262.078 180.8 268.278 175.5 273.678C174.7 275.778 173.2 276.978 171.8 278.278C171.4 278.678 170.9 279.078 170.5 279.478C168.2 283.478 165.6 286.778 162.8 289.078C162.3 289.478 162.2 289.778 162.2 290.578C162.2 290.978 162.1 291.478 161.9 292.078C161.9 292.078 161.9 292.078 161.9 292.178C160.2 295.278 157.8 297.778 155.7 299.678C155.7 299.678 155.7 299.678 155.7 299.778C155.1 302.678 153.2 305.078 151.4 307.278C150.6 308.278 149.9 309.178 149.3 310.178C148.5 311.278 147.8 312.478 147.1 313.678C146.1 315.578 145 317.478 143.4 319.078C143.4 319.078 143.4 319.078 143.4 319.178C142.6 321.978 140.6 323.578 138.6 325.078L138.4 325.278C138.1 325.778 137.9 326.278 137.7 326.878C137.3 327.878 136.8 329.078 135.8 330.078C134.2 333.078 135.1 336.978 135.8 340.378V340.578C135.8 340.578 135.8 340.578 135.9 340.678C136.4 341.178 137 341.778 137.7 342.278C138.5 342.978 139.4 343.678 140.1 344.578C140.1 344.578 140.1 344.578 140.2 344.578C140.7 344.778 141.2 344.878 141.7 344.878C142.5 344.978 143.5 345.178 144.3 345.678C148 346.678 151.4 344.078 154.7 341.578C155.9 340.678 157.1 339.778 158.2 339.078H158.4C160.3 338.678 162 337.978 163.8 337.178C165.7 336.278 167.7 335.378 170 335.078C170.9 334.778 171.7 334.378 172.4 334.078C173.8 333.378 175.3 332.678 177.2 332.578C177.8 332.378 178.3 332.178 178.9 331.878C180.1 331.378 181.2 330.878 182.8 330.878C184 330.878 185.2 330.778 186.4 330.678C192.7 330.278 199.1 329.878 204.2 334.578C204.2 334.578 204.2 334.678 204.3 334.778C205.9 337.478 206 340.778 206.1 343.778C206.1 344.278 206.1 344.678 206.1 345.178C206 347.578 205.7 349.478 204.6 351.678C204.6 351.678 204.6 351.678 204.6 351.778C204.6 354.178 204.4 356.378 204.1 358.578C203.8 361.378 203.4 363.978 203.7 366.878C203.9 369.778 204.9 371.578 206.6 372.378C210.1 374.078 216.7 371.678 226.2 365.378C226.2 365.378 226.4 365.378 226.5 365.278L227.8 364.978C231.4 364.178 235.5 363.278 239.3 363.878H239.5C246.1 367.378 246.2 370.578 246.2 375.078C246.2 376.378 246.2 377.878 246.4 379.578C246.5 381.278 246.1 382.578 245.7 383.878C245.3 384.978 245 386.078 245 387.378C244.8 389.778 244.8 392.178 246.1 393.478C246.8 394.178 248 394.478 249.6 394.278H249.8C252.1 394.878 253.9 393.778 255.9 392.678C257.7 391.578 259.6 390.478 262 390.778C265.2 391.278 271 392.678 274.1 396.778C277.9 399.278 278.8 403.278 279.9 407.478C280.1 408.278 280.2 408.978 280.4 409.578C280.8 411.478 280.3 412.978 279 413.878C278.2 414.478 277 414.778 275.6 414.778C274.2 414.778 272.2 414.378 270.8 413.578C270.6 413.578 270.4 413.578 270.1 413.578C269.3 413.578 268.5 413.578 267.6 413.778C266.7 413.878 265.6 413.978 264.6 413.978C263.6 413.878 262.7 413.678 261.7 413.578C259.6 413.178 257.4 412.878 255.4 413.078C253.8 413.078 252.4 412.978 251 412.778C248.7 412.578 246.5 412.278 244.3 412.778C243 412.978 241.7 412.778 240.4 412.778C238.8 412.578 237.2 412.478 235.8 412.878C235.8 412.878 235.8 412.878 235.7 412.878C231 413.578 226.2 412.978 221.5 412.378C218.9 412.078 216.2 411.678 213.6 411.578C212.6 411.478 211.9 411.678 211 412.078C210.2 412.378 209.3 412.678 208.2 412.678C205.9 412.778 203.5 412.678 201.2 412.678C198.8 412.678 196.2 412.478 193.7 412.678C193.7 412.678 193.6 412.678 193.5 412.678C188.2 411.678 182.7 411.978 177.3 412.178C171.7 412.478 165.8 412.678 160.2 411.578C159.1 411.578 158 411.878 156.8 412.278C155.4 412.778 153.9 413.278 152.2 413.178C151.4 413.178 150.7 412.978 149.9 412.978C145.1 412.478 140.6 411.978 135.8 412.578C130.5 412.778 124.5 412.278 119.3 411.778C115.6 412.378 111.7 412.278 107.9 412.278C105.7 412.278 103.5 412.278 101.3 412.278C99.4 412.778 97.7 412.578 95.9 412.378C95.2 412.378 94.6 412.278 93.8 412.178C91.3 412.078 88.9 412.178 86.5 412.478C82.8 412.778 79 412.978 75.1 412.278C74.6 412.278 74.1 412.278 73.6 412.378H73.5C69.8 412.678 66.3 412.978 62.5 411.878C61.2 411.478 59.6 411.878 58 412.178C56 412.578 53.9 413.078 51.9 412.178C50.7 411.778 49.3 412.178 47.9 412.378C46.6 412.678 45.2 412.978 43.8 412.778L44.2 413.078ZM161.7 14.3785C163.1 14.1785 164.3 14.5785 165.5 14.8785C166.6 15.1785 167.5 15.3785 168.6 15.3785C168.7 15.3785 168.8 15.3785 168.8 15.1785C168.8 15.0785 168.8 14.8785 168.9 14.7785C168.9 14.5785 169.2 14.3785 169.4 14.3785C171.5 13.8785 173.7 14.0785 175.9 14.3785H176C177.2 14.5785 178.4 14.6785 179.5 14.6785C183.9 13.6785 188.4 13.8785 192.7 14.1785C195.8 14.3785 199 14.4785 202.2 14.1785C204 14.1785 205.9 14.2785 207.7 14.3785C214.7 14.6785 221.4 14.8785 228.3 13.5785C228.3 13.5785 228.4 13.5785 228.5 13.5785C237.3 14.1785 246.3 14.0785 255 13.9785C263.8 13.9785 272.9 13.7785 281.7 14.3785C284 13.8785 286.3 14.0785 288.5 14.3785C289.1 14.3785 289.7 14.4785 290.3 14.5785C294.9 14.2785 299.9 14.0785 305.2 14.7785C306 14.7785 306.8 14.5785 307.5 14.3785C308.3 14.0785 309.3 13.8785 310.5 13.8785C311.3 13.8785 312 14.1785 312.5 14.3785C313.1 14.5785 313.7 14.7785 314.4 14.6785C318.8 13.4785 322.3 13.6785 325.1 14.9785C327.4 15.2785 329.7 15.5785 332 15.7785C334.4 15.9785 336.8 16.2785 339.2 16.5785C340.4 16.8785 341.1 17.4785 341.7 18.0785C342 18.3785 342.4 18.6785 342.8 18.9785H342.9C344.3 19.6785 345.8 20.3785 346.3 22.2785C346.5 23.4785 347.1 24.5785 347.7 25.6785C348.2 26.5785 348.8 27.5785 349.1 28.5785C349.1 29.1785 349.3 29.7785 349.3 30.3785C349.5 32.0785 349.7 33.6785 350.4 35.0785C351.9 39.0785 351.6 41.5785 351.2 44.0785C350.9 46.0785 350.6 48.0785 351.2 50.8785C351.2 50.9785 351.2 51.0785 351.2 51.2785C350.9 52.1785 351.1 54.0785 351.2 55.8785C351.5 59.1785 351.8 62.6785 350.2 64.1785C349.8 64.5785 349.1 64.9785 347.9 64.8785C346.9 64.8785 345.9 64.6785 345.1 64.3785C344.2 64.0785 343.4 63.7785 342.6 63.9785C341.4 64.4785 340.1 64.2785 339.1 64.0785C338.6 64.0785 338.1 63.8785 337.6 63.8785C337.6 63.8785 337.5 63.8785 337.4 63.8785C335.2 64.9785 332.9 64.8785 330.6 64.7785C329.4 64.7785 328.3 64.6785 327.2 64.7785C325.5 65.4785 323.7 65.1785 322.2 64.7785C321.3 64.5785 320.5 64.4785 319.6 64.4785C319.1 64.4785 318.4 64.5785 317.8 64.6785C316.8 64.7785 315.8 64.9785 314.8 64.8785C313.9 64.7785 313.4 64.3785 313 64.1785C312.5 63.8785 312.2 63.6785 311.7 63.6785C311 63.7785 310.3 64.0785 309.6 64.2785C307.9 64.8785 305.9 65.4785 303.9 64.6785C303.1 64.5785 302.2 64.6785 301.3 64.7785C299.9 64.9785 298.4 65.1785 296.9 64.5785C296.4 64.5785 295.9 64.5785 295.3 64.5785C294.4 64.6785 293.3 64.7785 292.3 64.4785C291.4 64.4785 290.6 64.5785 289.7 64.6785C287.9 64.8785 286 65.0785 284.1 64.6785C280.5 64.8785 277.3 64.8785 274.1 64.9785H270.4C270.4 65.0785 270.4 65.0785 270.4 65.0785C263.7 64.5785 257.1 64.2785 250.5 65.0785C249 65.3785 247.5 65.0785 246.1 64.7785C244.3 64.3785 242.8 64.0785 241.2 64.8785C241.1 64.8785 241 64.8785 240.9 64.8785C239.4 64.8785 237.9 64.8785 236.5 64.6785H236.4C233.3 64.4785 230.1 64.2785 227.2 65.0785C226.8 65.0785 226.3 65.1785 225.9 65.1785C224.7 65.1785 223.6 64.8785 222.5 64.6785C221.6 64.4785 220.8 64.2785 219.9 64.1785C219.4 64.1785 218.8 64.3785 218.3 64.4785C216.1 64.9785 213.8 65.4785 211.5 64.7785C207.6 63.5785 203.1 64.1785 199 64.7785C199 64.7785 198.9 64.7785 198.8 64.7785C195.2 64.3785 191.6 64.4785 188.1 64.5785H188C186 64.5785 184 64.6785 181.9 64.5785C179 65.3785 175.5 64.6785 172.5 63.9785C172.5 63.9785 172.4 63.9785 172.3 63.9785C171.4 64.4785 169.9 64.7785 168.8 64.3785C168 64.3785 167.2 64.3785 166.5 64.3785H166.2C163.5 64.3785 160.9 64.3785 158 64.4785C158 64.4785 158 64.4785 157.9 64.4785C154.4 64.0785 151.1 64.2785 147.5 64.4785C145 64.6785 142.4 64.7785 139.7 64.7785C139.7 64.7785 139.5 64.7785 139.4 64.7785C138.6 64.3785 137.6 64.4785 136.6 64.4785C135.4 64.4785 134.1 64.4785 133 63.7785C132.8 63.6785 132.7 63.4785 132.7 63.2785C132.1 59.7785 132.2 56.0785 132.3 52.4785C132.3 50.2785 132.4 47.8785 132.3 45.6785C131.1 38.5785 133.1 32.2785 135.3 25.4785V25.0785C135.5 24.9785 135.5 24.8785 135.6 24.7785C136.1 24.3785 136.6 23.8785 137.1 23.4785C138.7 22.0785 140.3 20.6785 141.2 18.9785C141.2 18.9785 141.2 18.8785 141.4 18.7785C141.4 18.6785 141.4 18.5785 141.5 18.5785C144.5 16.7785 147.6 15.8785 150.9 14.8785H151C151.6 14.6785 152.2 14.4785 152.8 14.2785C152.8 14.2785 152.9 14.2785 153 14.2785C154.1 14.2785 155.3 14.2785 156.5 14.2785C158.3 14.2785 160.2 14.2785 161.8 13.9785L161.7 14.3785Z" fill="#010035"/>
</svg>
