<svg width="468" height="420" viewBox="0 0 468 420" fill="none" xmlns="http://www.w3.org/2000/svg">
<path d="M317.615 157.5C317.715 157.5 317.915 157.4 318.015 157.2C318.815 154.4 320.915 152.1 320.715 148.9C320.715 148 320.915 147.2 321.615 146.5C322.415 145.6 322.815 144.5 323.015 143.3C323.315 141.9 324.115 140.7 324.715 139.4C325.215 138.5 325.815 137.6 325.815 136.5C325.815 136.1 325.915 135.7 326.115 135.3C327.515 132.3 328.915 129.4 330.315 126.4C330.815 125.5 331.415 124.7 332.515 124.3C333.615 123.9 334.415 123 335.215 122C336.415 120.3 337.815 118.7 338.515 116.7C338.615 116.3 338.815 115.9 339.115 115.7C341.615 114.2 343.215 111.5 345.915 110.1C347.515 109.3 348.715 107.7 350.115 106.5C350.815 105.9 351.515 105.4 352.215 105C354.315 103.8 356.415 102.7 358.515 101.5C360.215 100.5 361.815 99.6 363.815 99.4C365.415 99.2 366.815 98.3 367.915 97.2C368.815 96.3 369.815 95.8 371.115 95.8C372.015 95.8 372.815 95.5 373.615 95.2C376.915 93.7 380.415 93.6 383.915 93.4C387.515 93.2 391.115 93 394.715 92.8C395.415 92.8 396.115 92.8 396.815 92.8C397.415 92.8 398.115 93 398.715 92.9C401.115 92.4 403.315 93.2 405.515 93.8C408.315 94.6 411.115 95.1 413.815 96C417.115 97.1 420.615 97.8 423.415 100.1C424.215 100.8 425.415 101.1 426.415 101.5C428.015 102.1 429.215 103.2 430.215 104.6C431.215 106 432.415 107.3 433.715 108.5C435.015 109.7 436.615 110.7 438.015 111.9C438.415 112.2 438.715 112.8 439.015 113.2C441.215 116.1 443.315 118.9 445.515 121.8C446.315 122.8 446.915 123.9 447.715 124.9C448.215 125.5 448.715 126.1 449.415 126.5C450.715 127.3 451.615 128.3 451.915 129.8C451.915 130.2 452.115 130.6 452.315 130.9C454.415 134.3 455.315 138.2 456.815 141.9C457.315 143.1 458.215 144.2 458.615 145.5C459.715 148.8 461.115 152 461.015 155.7C461.015 157.8 461.415 159.8 462.315 161.8C462.615 162.6 462.715 163.5 462.815 164.4C463.115 166.1 463.315 167.9 463.615 169.6C463.715 170.5 463.715 171.3 463.815 172.2C464.015 173.9 464.215 175.5 464.515 177.2C464.515 177.4 464.615 177.5 464.615 177.7C464.815 183 466.215 188.1 465.815 193.5C465.615 196.4 465.815 199.4 465.815 202.4C465.815 205.1 466.515 207.8 467.315 210.4C467.615 211.3 467.715 212.1 467.315 213C466.615 214.5 466.615 216.1 466.815 217.7C467.015 219.3 466.515 220.5 465.515 221.6C464.915 222.2 464.315 222.9 463.915 223.7C463.415 224.5 462.815 224.8 461.915 224.8C461.315 224.8 460.615 224.8 460.015 224.8C458.215 224.4 456.515 224.8 454.815 225.1C453.615 225.4 452.515 225.6 451.315 225.6C448.015 225.6 444.815 225.5 441.515 226.2C440.315 226.5 438.915 226.2 437.715 226.2C435.115 225.9 432.415 225.9 429.815 226.2C429.115 226.2 428.415 226.2 427.715 226.2C426.415 226.1 425.015 225.9 423.715 225.8C422.015 225.7 420.415 225.5 418.715 225.4C417.515 225.4 416.215 225.1 415.115 225.4C412.215 226.2 409.415 226.1 406.615 225.6C404.915 225.3 403.115 225.2 401.415 225.6C400.715 225.7 399.815 225.6 399.015 225.4C395.215 224.7 391.415 224.5 387.615 225.5C385.515 226.1 383.215 226.1 381.015 225.3C379.615 224.8 378.115 224.5 376.615 224.4C374.615 224.2 372.615 224.1 370.615 224.1C370.015 224.1 369.315 224.1 368.715 224.1C367.215 224.3 366.515 225.1 366.715 226.5C367.215 229.5 367.415 232.5 368.715 235.4C368.915 235.9 369.115 236.5 369.115 237C369.315 239 369.415 241 369.615 243C369.715 244.5 369.915 246 370.715 247.4C371.315 248.5 371.615 249.8 371.815 251C372.215 253 372.515 255.1 372.815 257.1C372.815 257.3 372.815 257.4 372.815 257.6C374.015 260.1 373.615 262.8 373.715 265.4C373.715 267.4 374.015 269.4 374.415 271.3C374.815 273.2 374.715 275.1 374.715 277C374.715 279.7 375.015 282.4 375.415 285.1C375.815 288.1 376.315 291.1 376.315 294.1C376.315 297.1 375.915 300.2 376.615 303.2C376.715 303.7 376.615 304.2 376.815 304.6C378.015 307.1 377.815 309.8 377.515 312.4C377.015 318.3 373.915 320.5 368.515 321.2C367.815 321.2 367.015 321.1 366.415 320.8C364.415 319.8 362.215 319.9 360.115 320C358.515 320 356.915 320.1 355.315 320.3C353.615 320.4 351.815 320.7 350.115 320.9C349.415 320.9 348.715 321.1 348.015 321.1C347.015 321.1 345.915 321.1 344.915 320.9C344.015 320.9 343.115 320.9 342.315 320.5C341.115 320 340.015 319.9 338.815 320.5C337.115 321.2 335.415 321.1 333.615 321C332.215 321 330.715 321 329.315 321C326.215 321 323.015 321.2 320.015 320.8C317.615 320.5 315.315 320.1 312.915 320.2C310.315 320.2 307.815 320.4 305.315 321.1C304.315 321.4 303.215 321.5 302.215 321.3C299.515 320.6 296.815 320.7 294.115 320.5C289.515 320.2 284.815 320.2 280.215 320C278.815 320 277.515 320 276.215 320.6C275.615 320.9 274.815 320.9 274.115 321C271.315 321.2 268.515 321.4 265.715 321.4C263.715 321.4 261.715 321.1 259.815 320.8C258.315 320.6 256.815 320.6 255.315 320.8C252.715 321.2 250.115 321.6 247.415 321.3C245.015 321 242.615 321.1 240.315 320.6C239.215 320.4 238.115 320.5 237.015 320.6C233.715 321.1 230.315 321.2 227.015 320.6C226.115 320.5 225.115 320.5 224.115 320.6C222.615 320.8 222.015 321.6 222.115 323.1C222.115 323.5 222.115 323.9 222.315 324.3C223.615 326.9 223.415 329.8 223.615 332.5C223.715 335.1 223.815 337.6 224.715 340.1C224.915 340.5 224.915 341 224.915 341.5C225.115 344.6 225.815 347.6 226.715 350.6C227.015 351.5 226.915 352.5 227.015 353.4C227.215 355.9 227.015 358.3 227.615 360.8C228.015 362.5 227.915 364.3 228.015 366C228.115 368.1 228.415 370.3 228.015 372.4C228.015 372.7 228.015 373.1 228.015 373.4C228.915 376.7 228.815 380.1 229.415 383.3C230.015 386.5 230.015 389.7 229.815 392.9C229.615 396 230.315 398.9 231.015 401.9C231.015 402.2 231.415 402.5 231.315 402.8C231.115 405.2 231.815 407.7 231.115 410.1C231.015 410.6 230.815 411 230.715 411.5C230.415 414.8 228.615 416.9 225.615 418.1C225.315 418.2 225.015 418.3 224.715 418.5C223.115 419.5 221.515 419.5 219.915 418.7C218.715 418.1 217.515 417.9 216.215 417.9C212.215 418 208.215 418.1 204.215 418.2C203.815 418.2 203.315 418.2 203.015 418.3C200.415 419.6 197.715 418.7 195.015 418.8C194.315 418.8 193.615 418.6 192.915 418.3C191.515 417.6 190.115 417.6 188.715 418.1C186.615 418.9 184.515 419 182.315 418.5C181.615 418.4 180.915 418.3 180.215 418.5C177.115 418.9 174.015 418.9 170.915 418.5C165.715 417.8 160.615 417.7 155.415 418C154.515 418 153.715 418.3 152.915 418.6C151.415 419.2 149.915 419.5 148.515 419C145.615 418 142.515 418.2 139.515 418.1C134.615 417.8 129.615 417.8 124.615 417.7C123.215 417.7 121.715 417.7 120.415 418.3C119.815 418.5 119.215 418.6 118.515 418.7C115.315 418.9 112.115 419 108.915 419.2C108.315 419.2 107.615 419.2 107.015 419C105.715 418.8 104.315 418.6 103.015 418.4C100.815 418 98.8149 418.2 96.6149 418.6C94.2149 419.1 91.7149 419.6 89.2149 419C88.4149 418.8 87.4149 419 86.6149 419C85.6149 419 84.5149 419 83.5149 418.6C81.4149 418 79.2149 418 77.1149 418.4C74.0149 418.9 70.9149 419 67.8149 418.6C65.4149 418.3 62.9149 418.2 60.4149 418.7C59.3149 418.9 58.2149 418.8 57.1149 418.7C55.7149 418.7 54.2149 418.4 52.8149 418.4C50.6149 418.4 48.5149 418.4 46.3149 418.4C44.9149 418.4 43.4149 418.7 42.0149 419C40.5149 419.3 39.0149 419.3 37.5149 418.8C35.7149 418.1 33.8149 418 31.8149 418.3C30.5149 418.5 29.1149 418.3 27.7149 418.3C23.1149 418.3 18.4149 418.3 13.8149 418.4C12.7149 418.4 11.6149 418.7 10.5149 419C9.31489 419.4 8.21489 419.3 7.01489 418.6C6.51489 418.3 5.81489 418.1 5.31489 417.8C2.81489 416.6 1.21489 414.6 0.614893 411.8C0.0148926 409.2 0.114893 406.6 0.114893 403.9C0.114893 402.8 0.414893 401.7 0.714893 400.6C1.51489 398.1 1.51489 395.6 1.51489 393C1.51489 390.5 1.41489 388 1.61489 385.6C2.01489 381.7 2.61489 377.9 3.21489 374C3.21489 373.3 3.41489 372.6 3.31489 371.9C3.21489 368.4 3.41489 364.9 3.81489 361.4C4.11489 358.6 4.21489 355.8 4.41489 353C4.41489 352.3 4.51489 351.6 4.71489 350.9C5.31489 348.3 6.11489 345.6 6.51489 343C7.01489 339.2 8.01489 335.5 7.91489 331.6C7.91489 329 8.21489 326.4 9.41489 323.9C10.1149 322.5 10.2149 320.8 10.5149 319.2C10.8149 316.7 11.5149 314.2 12.4149 311.8C12.6149 311.4 12.6149 310.9 12.6149 310.4C12.6149 310 12.6149 309.5 12.8149 309.2C14.3149 306.9 14.7149 304.2 16.4149 302C18.2149 299.6 19.5149 296.8 19.7149 293.7C19.7149 292.8 20.0149 292 20.7149 291.3C21.5149 290.6 21.7149 289.7 22.0149 288.8C22.3149 287.8 22.8149 286.7 23.5149 285.8C24.8149 283.9 26.3149 282.2 27.1149 279.9C27.7149 278.3 28.9149 276.9 29.9149 275.5C31.3149 273.6 32.7149 271.8 34.2149 270C36.4149 267.4 38.6149 264.7 40.9149 262.2C42.8149 260.2 44.9149 258.3 46.8149 256.3C47.6149 255.5 48.3149 254.6 49.0149 253.8C49.6149 253.2 50.2149 252.6 50.9149 252C51.9149 251.1 52.9149 250.2 53.9149 249.3C54.6149 248.8 55.3149 248.1 56.1149 247.9C57.5149 247.6 58.6149 246.9 59.6149 246C61.0149 244.7 62.6149 243.7 64.4149 242.9C65.3149 242.5 66.1149 241.8 66.8149 241C67.5149 240.2 68.2149 239.8 69.2149 239.6C70.4149 239.3 71.5149 238.9 72.6149 238.5C75.1149 237.6 77.5149 236.6 80.0149 235.7C81.9149 235 83.7149 234.2 85.6149 233.5C87.4149 232.8 89.2149 232.3 90.9149 231.3C91.5149 230.9 92.4149 230.9 93.2149 231C95.5149 231.1 97.8149 230.9 100.115 230.2C102.715 229.5 105.515 229.3 108.115 228.9C115.615 227.9 123.015 228.6 130.315 230C133.215 230.6 136.115 231.1 139.115 230.9C139.615 230.9 140.115 230.9 140.515 231.2C142.015 232.2 143.815 232.7 145.515 233.3C150.215 235.1 154.915 237 159.515 238.8C160.315 239.1 161.215 239.4 162.015 239.5C162.915 239.7 163.715 240 164.315 240.7C165.215 241.9 166.315 242.7 167.715 243.2C168.515 243.5 169.215 244.1 170.015 244.5C171.915 245.4 173.115 244.8 173.315 242.7C173.415 241.6 173.615 240.5 173.715 239.4C173.915 237.6 174.515 236 175.215 234.4C175.915 232.7 176.115 230.8 176.515 229.1C177.015 227 177.515 224.9 178.115 222.8C179.115 219.1 180.515 215.6 181.915 212C182.615 210.1 183.215 208.1 183.915 206.1C183.915 205.9 183.915 205.6 184.115 205.4C185.915 203.1 186.215 200 188.215 197.9C188.815 197.2 189.415 196.4 189.815 195.5C192.515 189.8 196.615 185.2 200.615 180.4C201.815 178.9 203.115 177.5 204.215 176C206.415 173.2 209.015 170.9 211.615 168.6C212.115 168.2 212.715 168 213.315 167.7C214.215 167.1 215.115 166.4 216.015 165.7C216.815 165.1 217.715 164.5 218.515 163.9C219.115 163.5 219.715 163.1 220.315 162.7C221.615 161.5 223.015 160.6 224.715 159.8C225.515 159.4 226.315 158.8 227.015 158.1C227.815 157.3 228.615 156.8 229.615 156.6C230.715 156.4 231.715 155.9 232.715 155.5C234.515 154.8 236.315 154.1 238.015 153.4C239.315 152.9 240.515 152.4 241.815 151.9C243.315 151.4 244.915 151.1 246.315 150.3C248.515 149.1 250.815 148.7 253.215 148.9C253.915 148.9 254.715 148.9 255.315 148.6C258.015 147.7 260.915 147.2 263.715 147C266.015 146.8 268.315 146.5 270.615 146.3C271.315 146.3 272.015 146.3 272.715 146.3C274.815 146.5 276.815 146.8 278.915 146.9C281.915 147.1 284.915 147.6 287.815 148.5C288.815 148.8 290.015 148.7 291.115 148.7C292.615 148.7 294.115 148.7 295.515 149.6C296.015 150 296.715 150.1 297.315 150.3C302.215 151.9 307.015 153.6 311.615 155.8C312.015 156 312.315 156.1 312.715 156.2C314.215 156.6 315.715 157.1 317.515 157.6L317.615 157.5ZM115.815 241.8C115.215 241.8 114.715 241.8 114.115 241.8C111.415 241.8 108.715 241.8 106.015 242.1C103.115 242.3 100.515 243.8 97.6149 243.9C97.2149 243.9 96.9149 244.2 96.5149 244.4C94.7149 245 93.0149 246 91.0149 245.7C88.9149 245.5 87.1149 246.1 85.4149 247.2C84.7149 247.7 83.9149 248.2 83.1149 248.5C82.4149 248.9 81.6149 249.3 80.9149 249.3C78.3149 249.5 76.0149 250.7 73.8149 251.9C71.6149 253.2 69.7149 254.9 67.9149 256.7C66.2149 258.4 64.5149 260.2 62.2149 261.3C61.2149 261.8 60.3149 262.8 59.5149 263.6C58.6149 264.5 57.8149 265.5 56.5149 265.9C55.8149 266.1 55.3149 266.6 54.7149 267.1C53.7149 268 52.7149 268.9 51.7149 269.8C51.2149 270.3 50.7149 270.8 50.3149 271.4C49.5149 272.8 48.4149 273.9 47.0149 274.7C46.0149 275.3 45.2149 276.1 44.9149 277.2C44.5149 279.3 43.2149 280.8 41.6149 282C40.8149 282.6 40.1149 283.3 39.9149 284.2C39.6149 285.6 38.8149 286.6 37.8149 287.6C36.2149 289.3 35.0149 291.3 34.6149 293.6C34.4149 294.8 33.7149 296 33.1149 297.1C32.3149 298.5 31.6149 299.9 31.4149 301.6C31.2149 302.9 30.7149 304 30.0149 305.1C28.8149 306.9 27.7149 308.7 27.4149 311C27.2149 312 26.9149 313 26.4149 313.9C25.7149 315.1 25.5149 316.4 25.3149 317.8C25.1149 319.4 25.0149 321 24.1149 322.4C23.8149 322.9 23.7149 323.6 23.7149 324.3C23.7149 325.7 23.4149 327 22.9149 328.3C21.9149 330.6 21.9149 332.9 21.8149 335.3C21.8149 338.1 21.2149 341 20.9149 343.8C20.9149 344 20.9149 344.1 20.8149 344.3C19.5149 347 19.4149 350 19.1149 352.9C19.1149 353.9 18.8149 355 18.7149 356C18.6149 357.2 18.4149 358.4 18.4149 359.6C18.4149 361.1 18.3149 362.4 17.9149 363.9C17.4149 365.7 17.1149 367.6 16.8149 369.5C16.8149 370.1 16.8149 370.8 17.1149 371.4C17.7149 372.6 17.5149 373.6 16.8149 374.5C16.1149 375.4 15.8149 376.5 15.7149 377.6C15.7149 379.1 15.6149 380.6 15.5149 382.1C15.5149 382.7 15.4149 383.4 15.3149 384C15.1149 386.1 14.9149 388.3 14.7149 390.4C14.7149 391.3 14.7149 392.2 14.5149 393C13.5149 395.6 14.3149 398.2 14.5149 400.8C14.6149 402.6 15.5149 403.3 17.4149 403.2C19.5149 403.2 21.6149 403.5 23.6149 402.8C24.0149 402.7 24.6149 402.7 25.0149 402.8C27.7149 403.5 30.4149 403.3 33.1149 403.3C33.8149 403.3 34.6149 403.3 35.2149 403C37.5149 401.9 39.8149 402.3 42.0149 402.8C43.3149 403.1 44.7149 403.3 46.0149 403.2C46.9149 403.2 47.8149 403.2 48.6149 403.2C50.8149 403.2 53.1149 403.5 55.3149 402.9C55.7149 402.9 56.1149 402.8 56.5149 402.9C57.9149 403.3 59.3149 403.1 60.8149 402.7C62.8149 402.3 64.8149 401.9 66.7149 402.5C70.6149 403.7 74.4149 403.3 78.3149 402.9C79.2149 402.9 80.2149 402.9 81.1149 403C82.5149 403.3 83.9149 403.3 85.3149 402.8C85.9149 402.6 86.5149 402.4 87.2149 402.4C89.2149 402.4 91.2149 402.4 93.2149 402.9C94.7149 403.3 96.4149 403.5 97.9149 402.9C99.1149 402.4 100.215 402.4 101.415 402.9C102.715 403.4 104.015 403.4 105.415 402.9C107.415 402.1 109.415 402.2 111.515 402.9C114.115 403.8 116.715 403.8 119.315 402.9C122.015 402 124.615 401.8 127.215 402.9C127.815 403.1 128.415 403.2 129.115 403.2C130.515 403.2 131.815 403.2 133.215 403.2C138.015 403.2 142.815 402.9 147.615 403.6C148.415 403.7 149.215 403.6 150.015 403.6C152.615 403.6 155.115 403.6 157.715 403.5C159.115 403.5 160.615 403.3 161.915 402.8C163.515 402.2 165.015 402.2 166.615 402.6C168.915 403.2 171.215 403.3 173.415 402.5C174.815 402 176.215 402.1 177.715 402.4C178.615 402.6 179.615 402.8 180.515 402.8C183.515 402.8 186.415 402.8 189.415 402.8C191.615 402.8 193.915 403.2 196.115 403.5C197.915 403.7 199.715 403.9 201.615 403.5C202.515 403.3 203.515 403.5 204.415 403.5C205.915 403.5 207.415 403.8 208.915 403.7C211.015 403.6 213.015 403.2 215.115 403C216.515 402.8 217.215 402.3 217.415 401C217.615 398.7 217.715 396.4 217.715 394.1C217.715 393.2 217.215 392.2 217.215 391.3C216.915 388.2 216.715 385.1 216.615 382C216.515 379.1 216.415 376.3 215.315 373.5C215.115 373 215.115 372.3 215.315 371.8C216.015 369.6 215.115 367.5 215.115 365.4C215.115 364.9 214.915 364.3 214.615 363.8C214.015 362.8 213.915 361.7 213.915 360.6C213.915 358.8 214.215 357.1 213.215 355.5C213.015 355.2 213.015 354.7 213.015 354.3C212.515 350.6 212.315 346.8 210.915 343.3C210.715 342.7 210.715 341.9 210.615 341.2C210.615 340.5 210.415 339.8 210.415 339.1C210.315 337.7 210.115 336.2 210.115 334.8C210.115 332.8 210.015 330.8 209.115 328.9C208.615 327.6 208.315 326.3 208.215 325C208.215 324 207.715 323 207.515 322C207.215 320.9 206.815 319.9 206.715 318.8C206.715 317.1 206.215 315.5 205.515 314C205.215 313.4 204.915 312.7 204.715 312C204.015 309.3 202.915 306.8 201.315 304.4C200.715 303.6 200.415 302.5 200.215 301.5C200.015 300.1 199.515 298.9 198.815 297.7C197.815 296 197.015 294.1 196.515 292.2C196.215 291.2 195.715 290.3 195.115 289.5C194.415 288.5 193.615 287.7 192.815 286.7C192.515 286.3 192.015 285.8 191.915 285.3C191.715 283.6 190.615 282.6 189.415 281.6C188.315 280.7 187.215 279.7 186.915 278.2C186.515 276.5 185.615 275.3 184.215 274.4C183.015 273.6 181.915 272.7 181.215 271.4C180.915 270.8 180.315 270.3 179.815 269.8C178.915 268.8 177.915 267.9 176.915 267C176.315 266.4 175.615 265.8 174.815 265.5C173.715 265 172.915 264.3 172.215 263.5C171.315 262.5 170.315 261.4 169.115 260.9C167.415 260.2 166.215 259 164.915 257.8C164.315 257.2 163.715 256.7 163.215 256.1C161.315 253.9 158.915 252.3 156.415 250.9C154.915 250.1 153.115 249.5 151.415 249.2C150.015 248.9 148.815 248.5 147.715 247.8C145.315 246.3 142.915 244.9 139.915 245.3C139.015 245.4 138.015 245.1 137.215 244.7C135.515 243.9 133.915 243.3 131.915 243.3C131.415 243.3 130.815 243.1 130.315 242.9C127.915 242 125.415 241.5 122.815 241.5C120.515 241.5 118.215 241.5 115.815 241.5V241.8ZM331.815 163.1C331.715 167.3 332.315 168.8 335.015 171.3C335.915 172.2 336.815 173.1 337.715 174.1C338.915 175.5 339.915 177.1 341.215 178.4C344.615 181.8 347.315 185.7 350.315 189.5C351.415 190.9 352.215 192.6 353.115 194.2C353.515 195 353.915 195.7 354.415 196.5C355.215 197.7 356.215 198.8 356.815 200.1C357.615 201.8 358.115 203.7 359.415 205.2C359.715 205.5 359.715 206.1 359.815 206.6C360.015 207.7 360.715 208.4 361.615 208.9C363.115 209.7 364.715 210 366.415 209.9C369.515 209.6 372.615 209.6 375.715 210.5C376.415 210.7 377.115 210.7 377.815 210.7C381.215 210.7 384.515 210.8 387.915 210.9C389.515 210.9 391.115 210.9 392.615 210.2C393.215 209.9 394.015 209.9 394.715 209.9C396.115 209.9 397.615 210 399.015 210.4C401.915 211.2 404.715 210.7 407.615 210.4C408.215 210.4 408.915 210.1 409.515 210.2C411.615 210.4 413.615 210.8 415.715 211.1C417.415 211.3 419.015 211.6 420.715 211.6C427.715 211.6 434.815 211.6 441.815 211.6C443.215 211.6 444.515 211.6 445.815 211C446.615 210.7 447.515 210.7 448.415 210.7C449.115 210.7 449.815 210.8 450.615 210.7C452.115 210.7 452.715 210 452.915 208.5C452.915 208 453.015 207.5 452.915 207.1C452.315 204.5 452.915 202 452.915 199.5C452.915 198.1 452.915 196.6 452.915 195.2C452.915 192.6 452.915 190.1 452.815 187.5C452.815 186.4 452.515 185.3 452.315 184.2C452.115 182.8 451.715 181.4 451.715 180C451.715 178.7 451.515 177.5 451.115 176.2C450.615 174.5 449.815 172.8 449.915 170.9C449.915 170.4 449.715 169.8 449.415 169.3C448.615 168.2 448.615 166.9 448.415 165.6C448.215 163.9 448.115 162.2 447.615 160.7C447.115 159.2 446.815 157.8 446.815 156.3C446.815 154.9 446.515 153.6 445.915 152.4C444.615 149.5 443.415 146.5 442.415 143.5C441.215 140.1 439.215 137.1 437.915 133.7C437.715 133.2 437.315 132.7 437.015 132.3C434.915 129 432.215 126.1 429.615 123.2C427.715 121.1 425.915 118.8 423.215 117.5C422.715 117.3 422.315 116.8 422.015 116.4C419.915 114.1 417.315 112.6 414.415 111.7C410.215 110.4 406.115 108.8 401.715 108.2C399.015 107.8 396.315 107.1 393.715 107.1C388.015 106.9 382.515 108.4 376.915 109.3C376.615 109.3 376.315 109.5 376.015 109.6C373.115 110.9 370.115 111.6 367.115 112.2C364.115 112.8 361.515 114.2 359.415 116.3C358.015 117.7 356.415 118.9 354.815 120.1C352.715 121.8 350.415 123.3 349.315 126C349.315 126.2 349.015 126.4 348.915 126.6C347.015 128 346.015 130.2 344.415 131.9C342.815 133.6 341.815 135.7 341.315 138C341.115 139.1 340.715 140.2 340.015 141C338.115 143.5 336.915 146.4 335.815 149.3C334.815 151.7 333.915 154.2 333.315 156.8C332.815 159.1 331.315 161.2 331.915 163.4L331.815 163.1Z" fill="white"/>
<path d="M120.815 213.6C118.715 213.6 116.715 213.6 114.715 212.9C113.115 212.3 111.415 212.2 109.715 212.4C108.115 212.7 106.515 212.4 105.015 211.9C103.415 211.3 101.815 211 100.215 210.5C99.3149 210.2 98.5149 209.7 97.6149 209.4C96.6149 209.1 95.6149 208.9 94.6149 208.9C93.5149 208.9 92.4149 208.7 91.5149 207.9C90.8149 207.3 89.9149 206.9 88.9149 206.9C87.9149 206.9 87.0149 206.6 86.3149 205.8C85.9149 205.4 85.4149 205.1 85.1149 204.7C83.8149 203.2 82.1149 202.3 80.3149 201.6C78.6149 201 77.2149 199.9 76.3149 198.3C75.6149 197.1 74.6149 196.3 73.5149 195.4C72.0149 194.2 70.6149 192.8 69.5149 191.3C68.2149 189.5 66.8149 188 65.3149 186.4C64.8149 185.8 64.2149 185.3 63.6149 184.7C63.2149 184.2 62.7149 183.8 62.4149 183.2C61.2149 180.7 60.0149 178.2 58.4149 175.9C58.0149 175.3 58.0149 174.4 58.0149 173.6C58.0149 171.8 57.3149 170.3 56.0149 169.1C55.1149 168.3 54.6149 167.4 54.4149 166.3C54.3149 165.6 54.0149 164.9 53.7149 164.3C53.0149 162.5 52.6149 160.6 52.7149 158.7C52.7149 156.8 52.5149 155 51.7149 153.3C50.6149 150.7 50.7149 148 50.7149 145.3C50.7149 144.4 50.8149 143.5 51.0149 142.7C51.5149 139.7 52.1149 136.8 52.7149 133.8C52.8149 133.3 53.1149 132.7 53.0149 132.2C52.6149 129.6 54.1149 127.4 54.9149 125.1C55.1149 124.5 55.7149 123.9 56.1149 123.4C57.2149 122.2 58.0149 120.8 57.8149 119.1C57.7149 117.8 58.2149 116.7 58.9149 115.8C60.6149 113.6 62.3149 111.3 64.0149 109.1C65.3149 107.5 66.7149 106 67.1149 103.8C67.1149 103.3 67.6149 102.8 68.0149 102.5C69.0149 101.5 70.2149 100.6 71.2149 99.7C71.2149 99.7 71.3149 99.7 71.4149 99.6C73.7149 96.4 77.4149 94.6 79.7149 91.4C80.2149 90.7 81.2149 90.2 81.9149 89.7C82.4149 89.3 83.1149 89.1 83.5149 88.7C84.6149 87.7 85.9149 87.2 87.3149 86.8C89.1149 86.2 90.8149 85.3 92.5149 84.3C93.9149 83.6 95.3149 83.2 96.8149 82.9C99.8149 82.2 102.815 81.3 105.815 80.4C107.015 80 108.215 79.7 109.515 79.8C110.615 79.8 111.715 79.8 112.915 79.8C113.515 79.8 114.215 79.8 114.815 79.5C118.215 78.1 121.515 78.6 124.915 79.3C127.115 79.7 129.215 80.3 131.315 81.2C132.015 81.5 133.015 81.5 133.915 81.4C135.815 81.4 137.715 81.4 139.415 82.6C140.415 83.2 141.615 83.5 142.815 83.7C144.415 84.1 145.815 84.7 147.115 85.7C148.715 86.9 150.415 87.6 152.315 87.8C153.515 87.9 154.415 88.6 155.215 89.3C157.715 91.5 160.015 94 162.815 95.8C163.215 96.1 163.515 96.4 163.815 96.8C164.515 97.7 165.215 98.7 166.415 99.2C166.615 99.2 166.815 99.5 166.915 99.7C168.315 101.7 170.215 103.2 171.215 105.4C171.815 106.8 172.815 107.8 174.015 108.6C176.315 110.1 177.615 112.4 178.715 114.8C179.315 116.3 180.015 117.7 180.715 119.1C181.115 120.1 181.615 121.1 181.915 122.2C182.515 124.6 183.015 127 183.515 129.4C183.915 131.4 184.115 133.3 185.315 135.1C185.915 135.9 186.015 136.9 185.815 137.9C185.515 139.3 185.615 140.6 186.315 141.8C186.815 142.7 186.815 143.8 186.615 144.8C186.215 146.9 186.115 149 186.115 151.2C186.115 153.3 185.515 155.4 185.115 157.5C184.915 158.7 184.415 159.8 184.215 161C183.915 162.9 183.915 164.8 183.615 166.7C183.415 168 182.915 169.3 182.315 170.5C181.615 171.9 181.015 173.2 180.815 174.8C180.815 175.7 180.415 176.6 179.715 177.1C177.815 178.5 176.815 180.5 175.915 182.5C175.115 184.2 174.215 185.7 172.415 186.6C171.715 186.9 171.215 187.7 170.915 188.4C170.215 190 169.215 191.3 167.915 192.4C167.515 192.7 167.215 193.1 166.915 193.5C165.615 195.9 163.315 197.1 161.015 198.2C159.315 199 157.815 200 156.615 201.4C154.615 203.6 152.115 205.2 149.515 206.6C148.615 207.1 147.615 207.4 146.615 207.7C146.215 207.8 145.815 207.8 145.515 208C143.615 209.4 141.415 209.7 139.215 210.1C135.615 210.8 132.015 211.7 128.415 212.4C128.215 212.4 128.115 212.4 127.915 212.5C125.715 213.7 123.315 213.6 120.915 213.5L120.815 213.6Z" fill="white"/>
<path d="M386.615 1.1C389.215 0.600005 391.915 1.30001 394.615 0.300006C395.215 0.100006 396.015 0.300006 396.715 0.500006C400.915 1.60001 405.015 2.70001 409.115 3.90001C410.215 4.20001 411.415 4.70001 412.415 5.20001C413.415 5.60001 414.415 6.10001 415.415 6.70001C416.215 7.20001 417.015 7.70001 417.815 8.20001C418.115 8.40001 418.415 8.80001 418.715 9.00001C420.715 9.80001 421.815 11.5 423.015 13C423.615 13.8 424.315 14.7 425.115 15.3C427.415 17 428.615 19.3 429.615 21.9C431.015 25.5 432.515 29 433.915 32.5C434.515 34 435.015 35.5 434.615 37.1C434.415 37.8 434.615 38.7 435.015 39.4C435.615 40.7 435.715 42 435.515 43.4C435.015 47.1 434.215 50.8 434.215 54.6C434.215 54.8 434.215 55.1 434.115 55.3C432.515 57.5 432.315 60.4 430.915 62.7C429.715 64.6 428.915 66.7 427.615 68.5C427.415 68.8 427.215 69.2 426.915 69.5C424.915 71.5 422.915 73.4 420.915 75.3C419.615 76.6 418.215 77.8 416.915 79.1C415.115 81 412.815 82 410.415 82.5C408.415 82.8 406.515 83.4 404.615 84C402.415 84.7 400.215 85.3 397.915 85.9C397.215 86.1 396.515 86.3 395.815 86.5C394.115 87 392.515 86.9 390.815 86.5C389.115 86.1 387.315 85.8 385.615 85.8C383.815 85.8 382.115 85.5 380.515 84.8C379.615 84.4 378.715 84.2 377.715 84.2C376.015 84.2 374.515 83.7 373.315 82.6C372.215 81.6 371.015 80.9 369.715 80.3C368.015 79.5 366.615 78.4 365.215 77.2C362.515 74.9 359.915 72.3 357.615 69.6C357.015 68.9 356.415 68.1 355.915 67.3C354.715 65.1 353.715 62.9 352.515 60.7C351.915 59.5 351.515 58.4 351.515 57C351.515 55.6 351.215 54.3 350.615 53.1C350.315 52.5 350.315 51.7 350.215 51C350.015 50.1 349.815 49.1 349.715 48.2C349.715 47.6 349.415 46.9 349.715 46.3C350.215 45.1 350.115 43.8 350.215 42.5C350.415 40.8 350.715 39.2 350.815 37.5C351.015 35.7 351.215 33.8 351.215 32C351.215 30.7 351.515 29.5 352.215 28.4C353.615 26.2 354.915 23.9 356.215 21.6C356.615 20.8 357.115 20 357.215 19.2C357.515 17.8 358.215 16.7 359.315 15.8C361.615 13.7 364.015 11.7 366.415 9.70001C367.115 9.10001 367.815 8.60001 368.415 8.00001C369.315 7.10001 370.415 6.40001 371.615 6.00001C372.015 5.90001 372.415 5.80001 372.715 5.50001C374.015 4.10001 375.715 4.00001 377.515 3.80001C378.915 3.60001 380.415 3.10001 381.515 2.30001C383.015 1.30001 384.415 0.700007 386.315 1.20001L386.615 1.1Z" fill="white"/>
<path d="M322.815 85.7C322.815 87.6 322.815 90.5 322.515 93.3C322.215 95.9 321.815 98.5 320.215 100.8C319.015 102.6 318.215 104.6 317.915 106.8C317.915 107.2 317.815 107.6 317.615 107.9C316.115 110.2 314.715 112.7 313.015 114.9C311.015 117.5 308.915 120 306.215 122C305.915 122.2 305.715 122.4 305.615 122.7C304.315 125.1 302.115 126.6 299.815 127.9C297.815 129.1 295.415 129.8 293.215 130.6C291.915 131.1 290.515 131.5 289.115 131.9C286.415 132.8 283.715 133.8 280.915 134.6C279.915 134.9 278.815 134.8 277.815 134.8C276.015 134.8 274.315 135.1 272.715 135.9C270.715 136.9 268.515 136.8 266.415 136.7C265.515 136.7 264.715 136.6 263.815 136.5C263.515 136.5 263.215 136.5 262.815 136.5C260.515 136 258.215 135.4 255.915 134.8C255.415 134.7 254.815 134.4 254.415 134.1C253.515 133.3 252.415 132.9 251.215 132.5C249.215 131.8 247.215 130.9 245.215 130C244.015 129.5 242.915 129 241.715 128.6C240.815 128.3 240.115 128 239.515 127.2C238.615 126 237.415 125 236.115 124.2C234.015 123 232.315 121.3 230.815 119.4C230.015 118.4 229.115 117.5 228.215 116.6C227.415 115.8 226.615 115.1 225.915 114.2C224.215 111.7 222.515 109.2 221.315 106.4C220.815 105.2 220.515 103.8 220.015 102.5C218.715 99.1 217.815 95.7 217.115 92.2C216.815 90.7 216.815 89 216.615 87.5C216.615 87.1 216.615 86.7 216.415 86.3C215.815 85 215.515 83.8 216.215 82.4C216.415 82.1 216.415 81.5 216.215 81.2C215.215 79.2 216.015 77.1 216.215 75.1C216.215 74.3 216.515 73.5 216.415 72.7C216.315 70.7 217.015 68.9 218.015 67.3C218.715 66.1 219.315 65 219.615 63.6C219.815 62.7 220.215 61.8 220.815 61C221.615 59.9 222.015 58.8 222.215 57.5C222.415 56.2 222.815 55 223.915 54.2C224.315 53.9 224.615 53.5 224.815 53.1C226.615 50.1 229.315 47.7 231.715 45.2C233.815 43 235.915 40.8 238.515 39.2C242.115 36.9 245.615 34.4 250.015 33.4C251.315 33.1 252.615 32.5 253.715 31.8C256.115 30.5 258.615 29.5 261.415 29.7C262.915 29.8 264.415 29.7 266.015 29.6C266.915 29.6 267.915 29.3 268.815 29.1C270.315 28.6 271.815 28.7 273.315 29.1C275.915 29.8 278.615 30.4 281.215 31C282.015 31.2 282.815 31 283.615 31C284.615 30.8 285.515 31 286.415 31.5C287.815 32.3 289.315 32.9 290.615 33.9C291.715 34.7 292.915 35.3 294.215 35.7C295.015 35.9 295.915 36.2 296.615 36.7C298.915 38 301.215 39.2 303.315 40.8C304.415 41.6 305.515 42.3 306.615 43.1C307.315 43.6 308.115 44.2 308.415 45C309.515 47.3 311.315 49 312.915 50.8C314.215 52.2 315.315 53.7 316.015 55.6C316.415 56.9 317.315 58.2 318.115 59.3C318.815 60.2 319.315 61.2 319.515 62.3C320.415 65.9 321.315 69.4 322.115 73C322.415 74.4 322.615 75.8 322.715 77.3C322.715 79.8 322.715 82.3 322.715 85.7H322.815ZM229.615 81.7C229.615 81.7 229.615 81.7 229.715 81.7C229.715 83.6 229.715 85.5 229.715 87.5C229.715 88.5 229.915 89.4 230.315 90.3C230.815 91.4 231.315 92.7 231.515 93.9C231.815 96.3 232.515 98.5 233.615 100.7C234.115 101.6 234.415 102.6 235.015 103.5C236.215 105.5 237.115 107.6 239.215 108.9C239.815 109.2 240.215 109.9 240.615 110.5C241.215 111.2 241.715 111.9 242.315 112.5C244.615 114.9 247.315 116.7 250.115 118.3C250.815 118.7 251.615 118.9 252.415 119C254.015 119.1 255.315 119.7 256.615 120.6C259.015 122.1 261.515 123.1 264.515 123.1C269.115 123.1 273.615 123.2 278.115 122.4C280.715 121.9 283.015 121 285.115 119.6C286.215 118.9 287.515 118.3 288.715 117.8C292.315 116.5 295.615 114.9 297.915 111.7C298.115 111.5 298.415 111.2 298.615 111.1C299.915 110.6 300.615 109.6 301.115 108.3C301.715 106.6 302.915 105.3 304.015 104C304.715 103.2 305.315 102.2 305.915 101.3C306.815 99.9 307.015 98.2 307.415 96.5C307.615 95.5 307.815 94.5 308.415 93.6C309.215 92.4 309.615 91 309.615 89.5C309.615 87.5 309.615 85.5 309.615 83.5C309.615 82 309.715 80.5 309.115 79C308.915 78.5 308.815 77.9 308.915 77.4C309.115 74.3 307.915 71.6 306.815 68.9C306.415 67.9 306.015 66.8 305.615 65.8C305.015 63.9 304.315 62 302.715 60.7C302.315 60.4 301.815 59.9 301.715 59.4C301.415 57.4 299.915 56.3 298.515 55.1C298.115 54.8 297.715 54.3 297.315 53.9C296.215 52.6 294.915 51.6 293.315 51C292.715 50.8 292.315 50.3 291.715 50C290.815 49.4 289.815 48.9 288.815 48.4C288.015 48 287.115 47.7 286.515 47.2C285.615 46.4 284.615 45.8 283.415 45.5C281.215 44.9 279.015 44 276.715 43.9C276.015 43.9 275.315 43.5 274.615 43.4C272.015 42.7 269.415 42.5 266.915 43.7C265.815 44.2 264.715 44.3 263.615 43.8C262.515 43.3 261.515 43.3 260.415 43.8C259.615 44.2 258.815 44.4 258.015 44.8C256.315 45.5 254.615 46.3 252.915 46.9C249.515 48 246.415 49.5 243.915 52.1C242.815 53.2 241.515 54.2 240.315 55.2C239.415 55.9 238.715 56.7 238.515 57.9C238.415 58.9 237.915 59.7 237.115 60.3C235.915 61.2 235.315 62.4 234.915 63.9C234.715 64.6 234.515 65.4 234.015 65.8C232.715 66.7 232.315 68 231.915 69.4C231.615 70.2 231.315 71 230.915 71.8C230.015 73.5 229.415 75.3 229.615 77.3C229.715 78.9 229.615 80.5 229.615 82.1V81.7Z" fill="white"/>
</svg>
