<svg width="425" height="429" viewBox="0 0 425 429" fill="none" xmlns="http://www.w3.org/2000/svg">
<path d="M424.8 187.555C424.6 186.855 424.4 186.155 424.5 185.455C424.5 184.555 424.5 183.755 424.4 182.955C424.3 182.055 424.2 181.255 424.3 180.255C424.3 179.755 424.4 179.155 424.5 178.655C424.7 177.355 424.9 176.155 424.7 174.855C424.7 172.955 424.1 171.055 423.5 169.255L423.3 168.555C422.9 167.155 422.7 165.755 422.4 164.455C422 162.255 421.6 159.955 420.6 157.855C420 156.655 419.8 155.355 419.7 153.955C419.7 153.355 419.5 152.655 419.4 151.955C418.7 150.255 417.8 147.755 417.2 145.055C417.2 145.055 417.2 144.955 417.2 144.855C415.1 141.755 413.3 137.855 411.8 132.855C411.5 132.155 411 131.455 410.5 130.855C409.9 130.055 409.4 129.255 409 128.355C408.4 126.555 407.4 124.955 406.2 123.455C402.8 119.955 399.8 115.655 396.9 111.455C396.4 110.755 395.9 109.955 395.4 109.255C394.5 107.755 393 106.655 391.6 105.455C390.3 104.355 389 103.355 388.2 102.055C387.5 101.155 386.6 100.355 385.8 99.5546C385.4 99.1546 384.9 98.6546 384.5 98.3546L384.2 97.9546C383.5 96.7546 382.7 95.5546 381.2 94.8546C379 93.6546 376.8 92.2546 374.8 90.9546C372.7 89.5546 370.4 88.1546 368.2 86.9546C367.7 86.5546 367.1 86.0546 366.6 85.5546C364.8 83.9546 363 82.2546 360.3 81.7546C357.7 81.4546 355.5 80.1546 353.1 78.8546C350.7 77.4546 348.1 75.9546 345.1 75.7546C342.8 75.7546 340.9 74.8546 339 74.0546C336.9 73.1546 334.8 72.1546 332.2 72.2546C328.9 72.2546 324.5 71.8546 321.8 70.0546C320.8 69.3546 321 68.3546 321.5 66.7546C321.6 66.3546 321.7 65.9546 321.8 65.5546C321.8 65.2546 321.8 65.0546 321.8 64.7546C321.8 64.4546 321.8 64.2546 321.8 64.0546C322.3 62.8546 322 61.2546 321.7 59.8546C321.3 58.0546 321 56.3546 322 55.2546C322 55.2546 322 55.1546 322 55.0546C322.3 54.0546 322 53.0546 321.7 52.0546C321.5 51.5546 321.4 51.0546 321.3 50.5546C321 48.6546 321.4 46.5546 321.8 44.2546V43.9546C322 42.9546 321.9 42.0546 321.8 40.9546C321.8 40.1546 321.6 39.3546 321.6 38.5546C321.6 37.9546 321.7 37.4546 321.8 36.9546C322 35.3546 322.2 33.9546 321.4 32.3546C321.4 32.3546 321.4 32.1546 321.4 32.0546C321.4 31.8546 321.3 31.6546 321.3 31.4546C321.3 31.0546 321.3 30.5546 321.5 30.1546C321.6 29.7546 321.8 29.2546 321.7 28.8546V28.0546C321.4 26.9546 321.3 25.9546 321.3 24.7546C321 22.2546 321.3 19.8546 321.6 17.3546C321.7 16.3546 321.9 15.3546 321.9 14.1546C321.7 12.4546 321.2 10.7546 320.7 9.15464C320.6 8.75464 320.5 8.45464 320.3 7.95464C320 7.35464 319.9 6.65464 319.7 5.85464C319.5 4.75464 319.2 3.55464 318.5 2.75464C318.2 2.45464 317.9 2.35464 317.6 2.25464C317.4 2.25464 317.3 2.25464 317.2 2.15464C314.3 -0.245359 313 -0.0453589 310.8 0.154641C310.2 0.154641 309.4 0.35464 308.6 0.35464C305.5 -0.04536 302.5 -0.14536 299.9 0.25464C298.7 0.25464 297.5 0.454641 296.3 0.654641C295.3 0.854641 294.3 0.954641 293.3 1.05464C292.7 1.05464 292 0.85464 291.3 0.75464C290.3 0.45464 289.3 0.25464 288.1 0.45464C286 1.15464 284.1 1.35464 282.3 1.05464C282.3 1.05464 282.2 1.05464 282.1 1.05464C280.3 1.35464 278.6 1.15464 276.4 0.45464C275.8 0.35464 275 0.15464 274.4 0.95464C274.2 1.15464 274.1 1.25464 273.8 1.35464C272.8 1.35464 271.9 1.35464 270.9 1.35464C269.5 1.35464 268.2 1.45464 267 1.15464C265.5 0.354641 264.3 0.454641 262.7 0.654641C262.4 0.654641 262 0.654641 261.7 0.654641C260.1 0.554641 258.4 0.554641 256.8 0.654641C254.6 0.654641 252.2 0.75464 249.8 0.35464C248.9 0.35464 248.2 0.65464 247.7 0.95464C247.5 1.05464 247.2 1.15464 247 1.25464C245.6 1.95464 244 1.55464 242.3 1.15464C241.4 0.954641 240.6 0.754641 239.6 0.654641C238.2 0.754641 236.2 0.954641 234.4 0.654641C232 0.454641 230 0.65464 227.6 0.95464H227.2C226.5 0.95464 225.9 0.95464 225.2 0.95464C224.2 0.85464 223.1 0.65464 222 0.95464C221.8 0.95464 221.5 1.05464 221.2 1.15464C220.3 1.45464 219.2 1.75464 218.3 1.65464C217.3 1.65464 216.4 1.35464 215.4 1.15464C213.8 0.754641 212.2 0.35464 210.4 0.85464C208 1.55464 205.7 1.55464 203.2 1.55464C201.9 1.55464 200.5 1.55464 199.2 1.55464C198.3 1.55464 197.6 1.45464 196.8 1.15464C196.4 1.05464 196 0.85464 195.5 0.75464C194.5 0.65464 193.5 0.75464 192.5 0.85464C191.8 0.85464 191.1 1.05464 190.4 1.05464C189.8 1.05464 189.2 1.05464 188.7 1.05464C187.6 1.05464 186.5 1.05464 185.4 1.05464C184.5 1.05464 183.6 0.854641 182.6 0.554641C181.2 0.254641 179.8 -0.0453589 178.3 0.154641C177 0.354641 175.8 0.754641 174.8 1.15464C174.3 1.35464 173.8 1.45464 173.4 1.65464C172.5 1.95464 171.7 1.65464 170.8 1.25464C170.3 1.05464 169.8 0.85464 169.1 0.75464C168.2 0.75464 167.5 0.75464 166.6 0.85464C166.2 0.85464 165.9 0.954641 165.5 1.05464C162.5 1.15464 159.5 1.15464 156.5 1.05464C155.2 1.05464 153.9 1.05464 152.8 1.05464C149.8 0.554641 147.5 0.65464 145.2 1.35464C144.3 1.45464 143.2 1.35464 142.2 1.35464C140.7 1.05464 139.2 1.25464 137.7 1.35464C136.4 1.45464 135.2 1.65464 134 1.45464C133.3 1.35464 132.6 1.25464 131.9 1.05464C129.9 0.654641 128 0.35464 125.6 0.85464C125.1 0.85464 124.6 1.05464 124 1.15464C121.6 1.55464 119.1 2.05464 116.9 1.15464C116.2 0.954641 115.4 0.954641 114.5 1.15464C112.8 1.95464 110.9 1.65464 109 1.45464C108.4 1.45464 107.9 1.25464 107.3 1.25464C106.3 1.25464 105.3 1.45464 104.3 1.65464C103.6 1.85464 102.8 1.95464 101.9 2.05464C100.5 2.25464 99.1 2.05464 97.7 1.85464C96.4 1.65464 95 1.45464 93.6 1.65464C93 1.65464 92.4 1.65464 91.8 1.65464C90.5 1.65464 89.1 1.85464 87.9 1.35464C87.5 1.35464 87.2 1.15464 86.8 1.05464C85.8 0.754641 84.8 0.454641 83.8 0.654641C82.8 0.854641 81.9 1.15464 80.9 1.65464C79.5 2.25464 78.1 1.75464 76.5 1.35464C75.3 0.95464 74 0.65464 72.8 0.75464C71.7 0.75464 70.8 1.05464 69.8 1.25464C69.6 1.25464 69.4 1.35464 69.1 1.45464C67.7 1.85464 66.2 1.55464 64.7 1.25464C64.1 1.15464 63.6 1.05464 63 0.95464C61.6 0.65464 60.3 0.95464 59.1 1.25464C58.1 1.55464 57.2 1.75464 56.1 1.65464C55.3 1.65464 54.3 1.45464 53.3 1.25464C51.7 0.95464 50.1 0.55464 48.5 0.95464C45.5 1.85464 20.9 1.85464 17.9 0.95464C16.9 0.65464 15.8 0.654641 14.8 0.654641C13.9 0.654641 13 0.65464 12.4 0.45464H12.3H12C11.6 0.35464 11.1 0.25464 10.6 0.45464C10.6 0.45464 10.6 0.45464 10.5 0.45464C9.7 1.05464 8.8 1.55464 7.8 2.05464C6.6 2.65464 5.4 3.25464 4.4 4.15464C3.1 5.45464 2.9 7.35464 2.8 8.95464V9.35464C2.7 10.4546 2.4 11.4546 2.2 12.4546C1.8 13.9546 1.5 15.4546 1.8 17.1546C2.3 19.2546 2.1 21.4546 1.8 23.6546C1.6 25.2546 1.4 26.9546 1.5 28.6546C1.9 31.5546 1.9 33.9546 1.3 36.4546C1.3 37.3546 1.3 38.3546 1.5 39.2546C1.6 40.0546 1.7 40.8546 1.7 41.7546C1.7 42.4546 1.7 43.1546 1.7 43.8546C1.7 44.9546 1.6 45.9546 1.8 47.1546C2.4 49.3546 2.4 51.2546 1.8 53.0546C1.7 53.4546 1.6 53.8546 1.4 54.1546C1.1 55.1546 0.700003 56.1546 0.800003 57.2546C0.800003 57.7546 1 58.3546 1.2 58.8546C1.4 59.7546 1.6 60.5546 1.6 61.3546C1.6 63.1546 1.3 65.0546 0.900002 66.9546V67.4546C0.900002 68.2546 1 68.8546 1.2 69.5546C1.2 69.7546 1.3 69.9546 1.4 70.1546C1.4 70.4546 1.4 70.7546 1.4 71.1546C1.4 71.9546 1.4 72.9546 2.4 73.4546C2.4 73.4546 2.4 73.5546 2.4 73.8546V74.0546C2.4 75.0546 2.1 76.2546 1.9 77.4546C1.6 78.9546 1.3 80.4546 1.4 81.8546C1.8 83.8546 1.7 85.6546 1.7 87.6546C1.7 89.2546 1.6 90.8546 1.8 92.6546C1.8 93.3546 1.8 94.1546 1.6 94.9546C1.5 96.0546 1.4 97.2546 1.5 98.3546C1.7 99.2546 1.5 100.055 1.3 100.955C1.2 101.655 1 102.355 1 103.155C0.9 105.255 1.1 107.155 1.4 109.055C1.6 110.555 1.8 112.155 1.8 113.955C1.8 115.755 1.7 117.455 1.5 119.155C1.5 119.855 1.3 120.555 1.3 121.355C1.3 122.955 1.3 124.755 1.3 126.355V126.555C1.1 127.755 1.3 128.655 1.4 129.755C1.4 130.255 1.5 130.855 1.6 131.355C1.3 135.955 1.2 139.655 1.3 143.155V143.355C0.900003 145.055 0.600003 146.255 1.3 147.855C2.3 150.255 1.7 153.655 1.3 155.555C1.2 156.655 1.3 157.755 1.5 158.755C1.7 159.855 1.9 160.955 1.7 161.955C1.1 166.355 1.1 170.655 1.7 175.755C1.7 176.355 1.6 176.955 1.5 177.455C1.3 178.855 1.1 180.255 1.5 181.755C1.7 182.855 1.5 184.055 1.5 185.155C1.5 185.955 1.3 186.655 1.3 187.555C1.5 189.155 1.9 192.055 1.3 194.055C1 195.155 1.2 196.255 1.3 197.255C1.4 198.055 1.5 198.755 1.5 199.355C1.1 201.255 1.2 202.955 1.3 204.855V205.255C1.1 211.255 0.900002 216.755 1.4 222.455V224.355C1.2 228.655 1 232.655 1.6 237.155C1.9 239.655 1.6 242.255 1.4 244.655C1.1 247.055 0.800002 249.555 1.1 251.955C1.3 253.155 1.3 254.355 1.3 255.455C1.3 257.055 1.3 258.655 1.7 260.355V260.755C1.5 263.755 1.3 265.955 1.7 268.955C1.8 271.955 1.5 274.755 1.1 277.655V278.055C0.900002 279.155 1.1 280.355 1.2 281.355C1.3 281.955 1.4 282.655 1.4 283.255C1.4 283.755 1.4 284.255 1.3 284.855C1.1 286.455 1 288.055 1.3 289.655C1.2 291.455 1.3 293.355 1.5 295.155C1.8 298.155 2.1 301.155 1 303.955V304.155C0.9 304.355 0.800002 304.655 0.900002 305.055C0.900002 305.055 0.900002 305.055 0.900002 305.155C2.3 308.155 1.5 313.055 1.3 314.455C1.2 315.455 1.3 316.455 1.3 317.455C1.3 318.355 1.4 319.255 1.3 320.155C1.2 322.355 1.3 324.555 1.5 326.755C1.5 327.255 1.5 327.755 1.6 328.355C1.3 331.255 1.2 333.255 1.9 336.455C2.2 339.555 1.8 342.555 1.4 345.455C1 348.655 0.600002 352.055 1.1 355.355C1.1 355.955 1.1 356.655 0.900002 357.255C0.800002 357.755 0.600002 358.355 0.600002 359.055C0.800002 360.455 0.9 362.255 1 363.755V364.955C1 365.555 0.800002 366.155 0.600002 366.755C0.300002 367.455 0 368.255 0 369.055C0 370.055 0.300001 370.955 0.700001 371.755C1 372.555 1.3 373.255 1.3 374.055C1.3 374.655 1.1 375.155 0.900002 375.755C0.700002 376.355 0.400002 377.155 0.400002 378.055C0.400002 378.755 0.600001 379.455 0.700001 380.155C0.900001 380.955 1 381.755 1 382.455C1 384.455 1 386.555 1 388.555C1 391.755 0.900003 395.055 1.3 398.355C1.4 399.255 1.2 400.055 0.900002 400.955C0.600002 401.755 0.400002 402.455 0.400002 403.355C0.400002 403.355 0.400002 403.355 0.400002 403.455C1.2 406.655 1.2 409.555 1.2 412.755C1.2 413.255 1.2 413.755 1.2 414.355C1.2 415.255 1.2 416.155 1.2 417.055C1.1 419.755 0.900002 422.555 2.4 424.855C2.4 424.855 2.4 424.855 2.5 424.955C6.5 428.255 11.7 427.755 16.7 427.355C18.4 427.155 20.1 427.055 21.6 427.055C22.4 427.055 25.1 427.055 28.6 427.055C36.5 427.055 49.8 427.055 51.4 427.755C51.9 427.955 52.4 428.155 53.1 427.955C64.1 426.655 73.2 426.655 80.3 428.055C81.3 428.055 82.1 427.855 82.8 427.555C83.3 427.355 83.9 427.155 84.5 427.055C85.6 427.055 86.8 427.055 88 427.255C89.7 427.455 91.5 427.555 93.3 427.255C94.9 426.855 96.5 426.855 98.2 426.755C98.8 426.755 99.5 426.755 100.2 426.755C102.4 426.355 104.3 426.655 106.6 427.055H106.7C109.4 427.155 112.4 427.055 115 426.855C116.5 426.855 118 426.655 119.2 426.655C120 426.655 120.8 426.755 121.7 426.955C122.2 427.055 122.8 427.155 123.4 427.255C124.1 427.255 124.8 427.255 125.4 427.255C126.4 427.255 127.4 427.255 128.6 427.355C129.6 427.355 130.6 427.655 131.5 427.855C132.6 428.155 133.8 428.355 135 428.355C136.2 428.355 135.4 428.355 135.6 428.355C136.3 428.255 136.9 428.055 137.7 427.755C138.5 427.455 139.4 427.155 140.2 427.055C141.1 427.055 142 427.055 142.9 427.355C143.5 427.455 144 427.555 144.6 427.655C146.1 427.855 147.4 427.655 148.6 427.355C149.7 427.155 150.9 426.855 152.3 426.955C153.2 426.955 154.1 427.155 154.9 427.255C156.9 427.555 158.8 427.755 161 427.355C162.1 427.355 163.2 427.355 164.3 427.355C166.2 427.355 168.2 427.355 170.2 427.055C171.2 426.955 172.2 427.055 173.2 427.255C174.1 427.355 175.1 427.555 176.1 427.455C176.6 427.455 177 427.255 177.4 427.155C178.1 426.955 178.7 426.755 179.5 426.855C184 428.255 188.7 427.955 193.2 427.555C194.9 427.455 196.7 427.355 198.3 427.255C199.3 427.255 200.3 427.255 201.3 427.455C203.2 427.555 205.3 427.755 207.3 427.455C209.2 426.955 211.1 427.355 213 427.655C213.6 427.755 214.3 427.855 215 427.955C216 427.955 217 427.855 218 427.755C218.7 427.755 219.4 427.655 220 427.555H220.4C222.6 427.555 225.1 427.655 227.3 427.355C230 427.355 232.7 427.355 235.3 427.655C237.9 427.855 240.6 428.055 243.3 427.955C245.8 427.755 248.2 427.655 250.6 427.655C253.3 427.555 256.1 427.455 259 427.255C261 427.055 263 427.255 265.1 427.655C266.4 427.855 267.8 428.055 269.3 428.055C269.3 428.055 269.3 428.055 269.4 428.055C274.4 427.155 279.6 427.155 284.5 427.255C286.5 427.255 288.5 427.255 290.4 427.255C291.2 427.255 291.9 427.355 292.6 427.455C295.4 427.755 298 428.055 300.8 426.955C301.6 426.755 302.4 426.755 303.3 426.755C304 426.755 304.8 426.755 305.5 426.655C308.4 425.955 311.2 423.855 310.8 420.855C310.4 418.855 310.6 417.055 310.8 415.155C310.9 413.855 311.1 412.455 311 411.055C311 410.155 311.1 409.255 311.3 408.355C311.6 406.855 311.9 405.355 311.3 403.655C311.3 403.255 311.2 402.955 311.1 402.555C310.8 401.355 310.6 400.155 310.8 398.955V398.755C311 397.855 311.2 397.155 311.2 396.255C311.2 395.155 311 393.955 310.9 392.955C310.7 391.155 310.5 389.355 310.6 387.455C310.6 386.755 310.7 385.955 310.9 385.155C311.1 384.355 311.3 383.555 311.3 382.655C311.3 382.155 311.1 381.655 310.9 381.155C310.7 380.555 310.5 379.955 310.6 379.355C310.6 378.855 310.8 378.455 311 377.955C311.2 377.255 311.5 376.655 311.4 375.855C311.4 375.855 311.4 375.855 311.4 375.755C310.8 374.155 310.7 372.555 310.6 370.755C310.6 369.855 310.5 368.855 310.4 367.955C310.2 366.755 310.4 365.755 310.7 364.655C310.9 363.555 311.2 362.355 311 361.155C310.5 357.655 310.6 353.055 311.4 348.655C311.4 348.655 311.4 348.655 311.4 348.555C311.4 347.755 311.2 346.855 311 345.955C310.7 344.455 310.5 342.855 310.7 341.455C311.1 338.555 311.1 335.555 310.7 333.155C310.2 330.855 310.5 328.255 310.9 325.755C311 324.755 311.2 323.755 311.2 322.655C311.2 321.655 311 320.655 310.9 319.555C310.7 317.955 310.5 316.355 310.6 314.955C310.6 314.055 310.8 313.155 311 312.255C311.2 311.455 311.3 310.755 311.4 309.855C311.4 309.855 311.4 309.755 311.4 309.655C310.8 307.255 310.7 305.955 311.2 305.355C311.6 304.755 312.7 304.555 314.2 304.355C315 304.255 315.9 304.055 316.9 303.855C319.1 303.555 321.4 303.355 323.6 303.055C327.9 302.555 332.4 302.155 336.7 301.255C339.3 300.055 342.1 299.055 345.7 297.855C348.1 296.755 351.7 295.155 355.7 294.455C357.1 294.255 358.1 293.455 359.2 292.655C359.7 292.255 360.2 291.855 360.7 291.655C361 291.455 361.3 291.355 361.6 291.255C362.4 290.955 363.2 290.555 363.8 290.055C364.2 289.755 364.6 289.255 365 288.855C365.7 288.055 366.4 287.355 367.3 287.055C369.8 286.255 371.7 285.155 373.5 283.355C375.9 281.755 378.4 280.055 380.7 278.655C383.7 276.355 386.3 273.455 388.8 270.655L389 270.455C389.7 269.755 390.5 269.155 391.4 268.455C392.4 267.755 393.5 267.055 394.3 266.055C394.7 265.555 395 264.855 395.2 264.355C395.6 263.555 395.9 262.755 396.6 262.155C397.9 260.555 399.5 259.255 401 257.955C401.8 257.255 402.5 256.655 403.2 255.955C403.6 255.255 403.7 254.555 403.9 253.755C403.9 253.355 404 252.955 404.1 252.655C404.6 251.355 405.3 250.155 406.1 248.855C406.9 247.455 407.8 246.055 408.4 244.455C410.5 242.055 411.5 239.055 412.5 236.255L412.8 235.255C413.2 234.455 413.7 233.755 414.3 233.055C415 232.155 415.8 231.155 416.2 229.955C416.4 229.255 416.6 228.455 416.8 227.655C417 226.555 417.2 225.555 417.6 224.855C418.1 223.655 418.5 222.755 418.6 221.655C418.8 220.855 419 220.155 419.2 219.555C419.5 218.555 419.9 217.555 419.9 216.355C420.1 215.555 420.3 214.755 420.5 213.955C421.4 210.455 422.3 207.255 422.1 203.455C422.1 202.255 422.1 200.855 422.4 199.655C422.5 199.155 422.7 198.655 422.9 198.155C423.3 197.255 423.6 196.255 423.6 195.055C423.6 194.755 423.6 194.555 423.6 194.255C423.6 193.255 423.6 192.255 423.9 191.355C424.3 190.355 424 189.255 423.8 188.255L424.8 187.555ZM332.1 207.255C331.5 207.755 331 208.355 330.5 209.055C330 209.655 329.5 210.255 329 210.755C327.5 211.755 326.8 212.655 325.7 214.355C324.2 216.255 322.8 217.655 321.3 218.755C321.3 218.755 321.2 218.855 321.1 218.955C320.8 219.455 320.5 219.855 320.2 220.355C319.6 221.355 318.9 222.355 317.8 223.455C315.7 226.455 313.1 228.955 310.4 230.655C309.8 231.155 309.4 231.855 308.9 232.655C308.8 232.955 308.6 233.155 308.5 233.455C306.1 237.455 301.6 242.155 298.2 244.155L297.8 244.455C297.2 244.855 296.6 245.255 295.9 245.455C293.7 245.555 291.7 244.055 289.9 242.655C289.1 242.055 288.3 241.455 287.5 240.955C285.7 239.955 283.7 238.655 282.4 236.755C281.8 235.955 280.7 235.455 279.6 234.855C279.4 234.855 279.2 234.655 279.1 234.555C277.8 233.855 277.1 232.855 276.3 231.855C275.8 231.255 275.4 230.655 274.8 230.055C273.9 229.255 273.1 228.155 272.4 227.155L271.9 226.455C271.5 225.955 271 225.755 270.4 225.455C270.1 225.355 269.9 225.255 269.6 225.055C269 224.755 268.6 223.955 268.3 223.255C268.3 223.055 268.1 222.855 268 222.655C267.5 221.855 266.9 221.255 266.2 220.855C264.6 219.955 263.1 218.955 262.1 217.455C262 217.255 261.9 217.055 261.8 216.855C261.6 216.455 261.4 215.955 260.8 215.555C260 215.055 259.4 214.455 258.6 213.655C258.4 213.455 258.2 213.255 258 213.055C257.3 212.355 256.7 211.755 255.9 211.155C255.3 210.755 255.1 210.555 254.8 210.055C254.5 209.555 254.3 209.255 253.9 208.855C253.4 208.355 252.9 207.955 252.4 207.655L252.2 207.455C251.5 206.955 251 206.455 250.5 205.855C250.1 205.355 249.7 204.855 249.2 204.355C249 204.155 248.8 203.955 248.6 203.655C248.5 203.555 248.4 203.355 248.3 203.255C248 202.955 247.8 202.655 247.4 202.355L247.2 202.155C246.8 201.855 246.5 201.655 246.1 201.355C245.8 201.055 245.4 200.755 245.1 200.555C244.7 200.255 244.4 199.955 244 199.655L243.8 199.455C243.6 199.255 243.3 199.055 243.2 198.855C242.7 198.155 242.7 196.855 243 196.055C244.2 192.355 247.2 188.955 250 185.655C251.3 184.155 252.5 182.755 253.5 181.355C254.4 180.055 255.5 179.255 256.8 178.855C257 178.855 257.2 178.755 257.3 178.755C257.7 178.655 258.1 178.555 258.5 178.055C259 177.555 259.6 176.955 260.3 176.855C260.4 176.855 260.5 176.855 260.6 176.855C261.1 176.855 261.4 177.055 261.9 177.355C262.1 177.455 262.4 177.655 262.6 177.755C263 177.955 263.3 178.155 263.7 178.455C263.9 178.555 264 178.755 264.2 178.855C264.4 179.055 264.6 179.155 264.8 179.355C265.3 179.755 265.8 180.155 266.3 180.555C266.8 181.055 267.2 181.555 267.6 182.155C267.9 182.455 268.1 182.855 268.4 183.155C268.6 183.355 268.7 183.555 268.9 183.855C269.3 184.455 269.8 185.155 270.5 185.555C270.7 185.555 270.8 185.755 271 185.755C271.2 185.755 271.3 185.855 271.4 185.955C271.6 186.055 271.8 186.255 271.9 186.355C272 186.355 272.1 186.555 272.3 186.655C272.8 186.955 273.2 187.455 273.7 187.955C273.9 188.155 274 188.355 274.2 188.455C274.9 189.155 275.6 190.055 276.3 190.855L276.5 191.055C276.7 191.355 276.9 191.655 277.5 191.955C277.6 191.955 277.8 192.055 277.9 192.155C278 192.155 278.2 192.155 278.3 192.255C278.4 192.255 278.5 192.555 278.6 192.755C278.6 192.855 278.7 192.955 278.8 193.055C279.1 193.455 279.3 193.655 279.6 193.955C279.8 194.155 279.9 194.255 280.1 194.455C280.5 194.955 281 195.255 281.5 195.655L281.7 195.855C281.7 195.855 281.9 195.955 282 196.055C282.2 196.255 282.4 196.355 282.6 196.555C282.8 196.755 283 197.055 283.2 197.255C283.5 197.655 283.8 198.055 284.2 198.455C284.6 198.855 284.7 199.155 284.9 199.755C285.2 200.555 285.6 201.155 286.2 201.655C286.3 201.755 286.7 201.955 287.4 202.255C287.7 202.455 288.3 202.655 288.4 202.755C288.4 202.755 288.4 202.655 288.3 202.555C288.3 202.655 288.5 202.855 288.6 202.855C290.1 203.455 291.6 204.155 293 205.355C293.5 205.755 294 206.355 294.5 206.955C295.4 208.055 296.3 209.055 297.4 208.755C298 208.555 298.4 208.055 298.9 207.555C299.1 207.355 299.2 207.155 299.4 207.055C299.7 206.755 300 206.455 300.3 206.155C301.4 205.055 302.4 204.055 303.3 202.855C303.9 202.255 304.5 201.655 305.1 201.055C306.6 199.655 308 198.355 309 196.655C309.6 195.655 310.4 194.855 311.1 194.155C312.2 193.055 313.2 191.955 313.8 190.355C314.3 189.455 315.1 188.855 315.9 188.255C316.6 187.755 317.2 187.255 317.8 186.455C319.7 183.055 321.9 179.055 324.9 176.255C325.4 175.655 326 175.155 326.7 174.655C327.3 174.155 327.9 173.655 328.5 173.055C328.9 172.555 329.2 171.855 329.5 171.255C329.8 170.555 330.1 169.755 330.8 169.055C331.2 168.655 331.7 168.255 332.3 167.855C332.8 167.455 333.4 167.155 333.7 166.655C334 166.255 334.2 165.655 334.5 165.155C335.3 163.755 336.1 162.255 337.5 161.055C337.9 160.755 338.4 160.555 338.9 160.455C339.5 160.255 340 160.055 340.5 159.655C341.1 159.055 341.5 158.155 341.9 157.255C342.4 156.155 342.9 154.855 344.1 154.055C344.1 154.055 344.4 153.855 344.6 153.655C345 153.355 345.5 153.055 345.8 152.655C346.2 152.155 346.4 151.455 346.6 150.755C346.8 150.055 347 149.455 347.4 148.955C347.8 148.455 348.4 148.155 349 147.955C349.5 147.755 350 147.455 350.3 147.055C350.5 146.755 350.7 146.255 350.8 145.855C351 145.455 351.2 144.855 351.5 144.355C352 143.655 352.8 143.055 353.7 142.355C354.5 141.755 355.3 141.255 355.8 140.555C356.9 139.455 358 138.155 359 136.655C359.3 136.155 359.6 135.755 359.9 135.255C360.6 134.155 361.2 133.055 362.3 132.555C363.5 131.955 365 131.855 366.2 132.355C367.3 132.755 368.1 133.655 368.6 134.755C370.3 138.055 373.9 142.555 377 145.255C379.2 146.955 379.6 149.055 378.1 151.355C377.7 151.955 377.2 152.455 376.7 152.955C375.9 153.855 375.1 154.655 374.7 155.855C374.2 156.955 373.4 157.955 372.6 158.855C372.1 159.455 371.5 160.155 371 160.955C370.5 161.555 369.9 162.155 369.3 162.755C368.3 163.755 367.3 164.755 366.5 166.055C366 166.955 365.3 167.655 364.6 168.255C363.9 168.855 363.2 169.555 362.8 170.355L362.6 170.655C362.4 171.055 362.1 171.555 361.8 171.955C361.3 172.455 360.9 172.955 360.3 173.455C359.6 174.155 358.9 174.755 358.4 175.455C357.8 176.055 357.2 176.455 356.7 176.855C355.8 177.455 355 178.055 354.5 179.155C353.9 181.055 352.6 182.555 351.4 183.955C350.8 184.555 350.3 185.255 349.7 186.055C348.9 187.355 347.9 188.755 346.4 189.755C345.7 190.255 345.3 190.955 344.9 191.655C344.6 192.155 344.3 192.655 343.9 193.055C343.2 193.755 342.6 194.555 342 195.355C341 196.655 340 197.955 338.5 198.955C337.2 200.155 336.4 201.555 335.5 202.955C334.5 204.555 333.5 206.155 332 207.555L332.1 207.255ZM297.4 324.755C297.2 326.255 297.1 327.555 297.2 328.455C297.2 329.455 297.3 330.555 297.4 331.555C297.6 333.255 297.8 334.855 297.4 336.555C297.4 337.955 297.4 339.355 297.5 340.655C297.5 341.855 297.7 343.155 297.6 344.455C297.6 345.355 297.2 346.355 296.9 347.055C295.8 350.155 296.2 352.655 296.9 354.955C296.9 354.955 296.9 354.955 296.9 355.055C297.4 355.855 297.2 356.555 296.9 357.355C296.7 357.855 296.6 358.555 296.6 359.255C296.6 359.255 296.6 359.355 296.6 359.455C297.3 361.155 297.1 362.755 296.9 364.455C296.9 365.355 296.7 366.355 296.7 367.355C296.7 368.455 296.7 369.555 296.7 370.655C296.7 372.155 296.5 373.655 296.7 375.055C296.7 375.055 296.7 375.055 296.7 375.155C297.5 376.955 297.2 378.955 297 380.955V381.555C296.9 382.655 297 383.755 297 384.755C297 385.955 297 387.155 297 388.455C297 389.955 297.1 391.555 297.2 393.055C297.4 394.955 297.5 397.055 297.4 398.855C297.3 399.655 297.1 400.455 296.9 401.155C296.6 402.355 296.2 403.655 296.3 404.955C296.3 405.455 296.3 405.855 296.3 406.355C296.3 407.155 296.3 407.855 296.3 408.655C296.3 408.855 296.3 409.155 296.3 409.355C296.3 409.955 296.3 410.655 296.2 411.155C296 411.555 295.8 411.755 294.8 411.755C294.4 411.755 293.9 411.755 293.5 411.755C291.9 411.755 290.4 411.855 289 411.455C287.1 410.655 285.1 411.055 283.2 411.355C282.1 411.555 281.1 411.755 280.1 411.655C278.7 411.855 277.2 411.855 275.9 411.855C274.2 411.855 272.5 411.855 270.8 412.255C269.4 412.255 268.1 412.055 266.8 411.755C265.4 411.455 264 411.155 262.3 411.255C259.8 411.755 257.3 411.655 254.7 411.655C253.1 411.655 251.3 411.655 249.6 411.755C249.2 411.755 248.7 411.955 248.2 412.155C247.4 412.355 246.6 412.655 245.9 412.655C245.3 412.655 244.8 412.555 244.2 412.455C243 412.255 241.7 412.055 240.5 412.255C238.1 412.655 237.1 412.555 235.4 411.955C235.4 411.955 235.4 411.955 235.3 411.955C234.7 411.955 234.1 411.955 233.6 411.955C231 411.855 228.6 411.655 225.9 412.155C224.9 412.255 223.8 412.155 222.8 411.955C222.3 411.955 221.8 411.755 221.3 411.755C220.4 411.755 219.6 411.755 218.8 411.755C218.1 411.755 217.4 411.855 216.6 411.855C213.2 411.155 210.3 411.855 207.5 412.455C206.4 412.455 205.3 412.155 204.2 412.055C202.6 411.855 201 411.555 199.4 411.555C197.9 411.455 196.5 411.555 195.2 411.855C194.2 412.055 193.2 412.155 192.2 412.155C190.9 412.155 189.6 412.155 188.3 412.155C186.1 412.155 183.8 412.155 181.7 412.155C181 412.155 180.3 411.955 179.6 411.855C178.5 411.655 177.3 411.355 176 411.555C175.6 411.555 175.2 411.755 174.7 411.755C173.8 411.955 173 412.155 172 412.155C171.1 412.155 170.2 411.955 169.3 411.755C168.2 411.555 167.2 411.255 166 411.355C164.5 411.455 162.9 411.755 161.4 411.955C159.4 412.255 157.4 412.555 155.5 412.655C153.1 412.255 150.6 412.255 148.1 412.255C145.9 412.255 143.6 412.255 141.5 412.055C140.1 411.755 138.9 412.055 137.7 412.355C137 412.555 136.2 412.755 135.4 412.755C132.6 412.955 130.2 412.555 128 412.055C125.3 411.555 122.8 412.155 120.6 412.855C115.6 412.255 110.4 412.355 105.3 412.355H104.2C103.2 412.355 102.2 412.155 101.3 411.955C100.6 411.855 99.8 411.655 99 411.555C99 411.555 99 411.555 98.9 411.555C97.1 411.855 95.5 411.555 93.8 411.355C93 411.255 92.2 411.155 91.3 411.055C88.3 411.055 84.5 411.555 81.2 412.555C80.1 412.955 78.9 412.955 77.7 412.755C76.8 412.455 75.9 412.455 75 412.455C74.1 412.455 72.9 412.555 72 412.655C71.4 412.655 70.7 412.755 70.1 412.855C68.6 413.055 67.1 412.655 65.6 412.255C65.2 412.155 64.8 412.055 64.3 411.955C62.7 411.655 61.3 411.955 60 412.355C59.3 412.555 58.6 412.755 58 412.755C56.9 412.755 55.7 412.655 54.5 412.455C53.4 412.255 52.3 412.155 51.2 412.155C49.2 412.455 37.5 412.655 29.1 412.755C24.6 412.755 21.1 412.855 20 412.955C19.1 412.955 18.1 412.955 17.5 412.855C17 412.755 16.8 411.455 16.8 410.555C16.8 410.355 16.8 410.055 16.8 409.855C16.4 407.655 16.7 405.355 16.9 403.055C17.1 401.555 17.3 399.955 17.3 398.455C17.1 395.455 17.1 392.355 17.2 389.355C17.2 388.255 17.2 387.155 17.2 385.955C16.9 383.855 17 381.255 17.2 378.755C17.2 378.155 17.2 377.555 17.2 376.955C17.2 375.655 17.1 374.355 17.4 372.855C17.8 371.255 18.2 369.055 17.9 367.055C17.9 365.755 17.9 364.455 17.9 363.155C17.9 361.855 18.1 360.555 17.9 359.255C17.9 357.155 17.6 354.855 17.4 352.655C17.2 350.755 17 348.755 16.9 347.055C16.9 346.555 16.9 346.055 16.9 345.455C16.9 344.455 16.9 343.455 16.9 342.455C17 341.855 17.2 341.355 17.3 340.755C17.7 339.055 18.2 337.255 17.9 335.455C17.9 334.055 17.7 332.555 17.5 331.155C17.2 328.755 16.9 326.455 17.2 324.155C17.2 324.155 17.2 324.055 17.2 323.955V323.755C16.9 322.055 16.6 320.355 17.3 318.855C17.9 317.355 17.6 315.855 17.3 314.455C17 313.155 16.8 311.955 17.1 310.655C17.1 310.655 17.1 310.655 17.1 310.555C17.1 309.655 17.1 308.755 17.1 307.855C17.1 306.055 16.9 304.455 17.3 302.655C17.3 301.555 17.3 300.555 17.3 299.455C17.3 296.955 17.3 294.255 17.9 291.855C18.3 290.355 17.9 289.055 17.4 287.655C17.1 286.855 16.9 286.055 16.9 285.355C16.9 284.555 17.2 283.755 17.4 282.855C17.8 281.555 18.1 280.255 17.9 279.055C16.6 276.255 17 274.655 17.4 272.955C17.8 271.455 18.1 269.955 17.4 267.655C16.3 263.955 16.9 260.355 17.6 256.555V255.955C17.8 254.955 17.6 253.855 17.4 252.755C17.2 251.555 17 250.455 17.2 249.555C17.4 248.355 17.3 247.155 17.2 246.055C17.2 245.655 17.2 245.155 17.1 244.755C17.3 243.055 17.3 241.255 17.3 239.555C17.3 237.155 17.3 234.755 17.9 232.455C18 231.455 17.9 230.355 17.7 229.355C17.7 228.955 17.6 228.455 17.5 228.055C17.4 226.855 17.5 225.855 17.5 224.855C17.5 223.955 17.7 223.155 17.5 222.355C17.5 221.755 17.3 221.155 17.2 220.655C17 220.055 16.9 219.455 16.9 218.855C16.9 218.055 17.2 217.355 17.4 216.655C17.8 215.555 18.2 214.455 17.8 213.155C17.2 210.955 17.4 208.755 17.5 206.655V205.755C17.5 204.255 17.5 202.755 17.5 201.255C17.5 198.755 17.6 196.155 17.3 193.655C17.3 192.855 17.3 191.955 17.5 190.955C17.6 189.955 17.7 188.855 17.7 187.855C17.7 186.955 17.3 186.155 17 185.455C16.7 184.855 16.5 184.255 16.5 183.555C16.5 182.955 16.8 182.355 16.9 181.755C17.2 180.455 17.6 179.155 17.3 177.755C17.3 177.155 17.3 176.555 17.5 175.855C17.6 175.055 17.8 174.255 17.6 173.455C17.6 173.155 17.5 172.855 17.4 172.555C17.3 172.055 17.2 171.555 17.2 171.155C17.9 168.655 17.7 166.055 17.4 163.555C17.2 162.555 17.3 161.655 17.4 160.755C17.4 159.355 17.6 157.955 16.8 156.455C16.3 155.455 16.6 154.455 17 153.255C17.3 152.455 17.6 151.555 17.6 150.655C17.4 147.555 17.1 143.255 16.8 139.555C16.8 139.055 16.8 138.555 16.9 138.055C17.1 136.055 17.2 134.055 17.1 132.055C17.1 130.855 17.2 129.855 17.4 128.855C17.6 127.555 17.8 126.455 17.6 124.955C17.1 122.355 17.2 119.655 17.4 117.055C17.4 116.455 17.4 115.955 17.5 115.355C17.5 115.355 17.5 115.355 17.5 115.255C16.3 109.455 16.2 103.555 17.1 98.1546C17.1 97.2546 17.1 96.3546 17.1 95.4546C17.1 93.4546 17.1 91.4546 17.5 89.8546C17.8 88.4546 17.6 87.0546 17.5 85.7546C17.4 84.8546 17.3 84.0546 17.3 83.2546C17.3 82.5546 17.3 81.8546 17.4 81.2546C17.4 79.8546 17.6 78.6546 17.4 77.2546C17.3 76.0546 17.4 74.9546 17.5 73.9546C17.6 72.9546 17.7 71.9546 17.7 70.9546C17.7 67.7546 17.7 64.1546 17.4 60.6546C17.4 59.3546 17.5 58.0546 17.6 56.7546C17.8 54.5546 18 52.2546 17.8 50.0546C17.8 49.2546 17.4 48.5546 17.1 47.8546C16.9 47.3546 16.7 46.8546 16.6 46.4546C16.4 45.1546 16.5 43.7546 16.6 41.9546C16.6 41.3546 16.6 40.7546 16.6 40.1546C16.6 37.9546 16.6 35.9546 17.3 33.8546C17.3 33.8546 17.3 33.8546 17.3 33.7546C17.3 33.0546 17.2 32.5546 17.1 32.1546C17 31.7546 16.9 31.3546 16.9 30.7546C16.9 30.4546 17 30.2546 17.1 29.9546C17.3 29.2546 17.4 28.5546 17.3 27.7546C16.5 25.2546 16.1 23.1546 16.6 20.0546C16.6 19.2546 16.8 17.1546 17.5 16.5546C17.7 16.3546 18.1 16.5546 18.8 16.7546C19.3 16.9546 19.8 17.1546 20.4 17.2546C21.7 17.4546 29.5 17.0546 37 16.6546C42.8 16.3546 48.3 16.0546 49.4 16.1546C52.2 16.1546 55.5 16.1546 58.6 16.3546C58.6 16.3546 58.6 16.3546 58.7 16.3546C61.6 16.0546 64.9 16.0546 69 16.3546C69 16.3546 69 16.3546 69.1 16.3546C72.8 15.8546 76.5 16.1546 80.2 16.3546C81.3 16.3546 82.3 16.5546 83.4 16.5546C84.1 16.5546 84.7 16.5546 85.3 16.4546C86 16.4546 86.8 16.2546 87.4 16.4546C89.6 17.2546 91.2 17.1546 93.2 16.9546C93.7 16.9546 94.2 16.9546 94.8 16.9546C95.1 16.9546 95.5 16.9546 95.9 16.9546C96.3 16.9546 96.7 16.9546 97 16.9546C97.8 16.9546 98.6 16.6546 99.3 16.3546C99.7 16.1546 100.2 15.9546 100.6 15.8546C101.7 15.7546 102.8 15.8546 103.9 16.0546C104.5 16.0546 105 16.2546 105.6 16.2546C106.5 16.2546 107.3 16.2546 108.1 16.2546C109.1 16.2546 110.2 16.2546 111.2 16.2546C113.5 15.9546 115.7 16.0546 118 16.2546C119.4 16.3546 120.8 16.4546 122.2 16.4546C123.2 16.4546 124.2 16.4546 125.2 16.2546C126.2 16.1546 127.2 16.0546 128.1 16.0546C128.9 16.0546 129.7 16.2546 130.5 16.4546C131.5 16.6546 132.5 16.9546 133.6 16.9546C135.1 16.9546 136.6 16.7546 137.9 16.4546C139.5 16.1546 141 15.9546 142.5 16.0546C144.3 16.3546 145.9 16.2546 147.5 16.0546C148.7 15.9546 149.9 15.7546 151 15.8546C152.1 16.0546 153.1 16.1546 154.1 16.2546C154.9 16.2546 155.8 16.4546 156.6 16.5546C156.9 16.5546 157.2 16.6546 157.4 16.7546C158.1 16.9546 159 17.1546 159.9 16.9546C160.4 16.8546 160.8 16.6546 161.3 16.5546C162.1 16.2546 162.9 15.9546 163.6 15.9546C164.4 15.9546 165.2 16.1546 166 16.3546C167 16.5546 168 16.7546 169 16.7546C169.8 16.7546 170.5 16.6546 171.2 16.5546C172.3 16.4546 173.2 16.3546 174.3 16.5546C174.6 16.5546 174.9 16.6546 175.2 16.7546C175.5 16.7546 175.8 16.8546 176 16.9546C177.2 17.1546 178 16.9546 178.9 16.5546C179.5 16.3546 180.1 16.1546 180.8 16.0546C181.8 16.0546 182.8 16.0546 183.8 16.2546C185.1 16.3546 186.4 16.5546 187.6 16.4546C190.3 16.0546 192.7 16.0546 195 16.4546C195.9 16.4546 196.7 16.4546 197.5 16.4546C198.6 16.4546 199.6 16.2546 200.6 16.4546C200.9 16.4546 201.3 16.6546 201.6 16.7546C202.4 17.0546 203.3 17.3546 204.2 17.2546C205.3 17.2546 206.3 16.9546 207.3 16.6546C208.4 16.3546 209.3 16.0546 210.5 16.1546C212.4 15.9546 214.5 16.3546 216.6 16.6546C218 16.8546 219.4 17.1546 220.7 17.1546C222.2 17.1546 223.5 16.7546 224.8 16.4546C225.9 16.1546 227 15.8546 228.2 15.7546C231.7 15.6546 235.3 15.7546 238.7 15.7546H239.6C240.6 15.7546 241.6 16.0546 242.5 16.2546C243.5 16.4546 244.6 16.6546 245.8 16.7546C247.2 16.7546 248.5 16.4546 249.7 16.2546C250.9 16.0546 252 15.7546 253.2 15.7546C256.7 16.0546 260 16.1546 263.1 16.2546C265.4 16.2546 267.9 16.3546 270.5 16.5546C271.6 16.5546 272.6 16.4546 273.7 16.3546C275.6 16.1546 277.4 15.9546 279.2 16.3546C279.7 16.3546 280.2 16.5546 280.8 16.6546C281.5 16.8546 282.2 17.0546 283 17.0546C283.8 17.0546 284.5 16.7546 285.2 16.5546C286 16.3546 286.7 16.1546 287.7 16.0546C289 15.7546 290.3 16.0546 291.6 16.4546C292.7 16.7546 293.9 17.0546 295 17.0546C296.7 17.1546 298.6 16.8546 300.4 16.5546C301.9 16.2546 303.4 16.0546 304.6 16.0546C305.6 16.0546 306.2 16.3546 306.7 16.8546C307.5 17.7546 307.3 19.5546 307.1 21.1546C307.1 21.9546 306.9 22.8546 306.9 23.5546C306.9 24.0546 307 24.6546 307.1 25.1546C307.3 26.6546 307.5 28.1546 307.3 29.4546C306.7 32.7546 306.6 35.6546 307 38.0546C307 38.9546 307 39.8546 306.9 40.6546C306.8 42.7546 306.6 44.8546 307 46.9546C307 48.3546 307 49.5546 307 50.7546C306.9 52.5546 306.8 54.1546 307.1 56.0546C307.1 56.8546 307.1 57.5546 307.1 58.3546C307.1 62.0546 307.3 65.8546 305.8 69.2546C305.5 69.5546 305.1 69.5546 304.4 69.5546C303.9 69.5546 303.4 69.5546 302.8 69.7546H302.7C300 70.6546 297.6 71.3546 294.7 71.3546C293.2 71.3546 291.8 71.7546 290.5 72.0546C289.3 72.3546 288.1 72.6546 286.7 72.7546C285.8 72.8546 284.8 72.9546 283.8 72.9546C282.8 72.9546 281.8 72.9546 280.9 73.1546C279 73.3546 277.4 74.1546 275.9 74.7546C274.9 75.1546 273.9 75.6546 272.8 75.9546C272.2 76.1546 271.4 76.2546 270.7 76.4546C269.8 76.6546 268.9 76.8546 268.1 77.1546C267.4 77.4546 266.8 77.6546 266.3 77.9546C265.5 78.3546 264.8 78.6546 264 78.8546C259.6 80.1546 254.9 82.6546 250.8 84.9546L249.8 85.4546C249 85.7546 248.3 86.2546 247.6 86.7546C247 87.1546 246.5 87.5546 245.8 87.8546C245.3 88.1546 244.8 88.3546 244.3 88.5546C243 89.0546 241.7 89.6546 240.6 90.7546C239.4 92.2546 237.8 93.2546 236 94.3546C234.6 95.2546 233.1 96.1546 232 97.3546C231.2 98.0546 230.5 98.8546 229.8 99.5546C229.6 99.7546 229.3 100.055 229.1 100.255C228.4 100.955 227.5 101.555 226.6 102.055C226 102.455 225.4 102.855 224.8 103.255C221.2 108.055 217.1 112.855 212.4 117.955C211 119.155 210.4 120.655 209.9 122.155C209.5 123.255 209.2 124.255 208.5 125.155C208 125.955 207.6 126.755 207.2 127.455C206.4 129.055 205.6 130.555 204.3 131.855C203.5 132.755 203.1 133.755 202.8 134.655C202.5 135.555 202.2 136.455 201.5 137.155C200.5 138.255 200.2 139.455 199.9 140.555C199.8 141.055 199.7 141.655 199.5 142.055L199.1 142.655C198.1 144.455 197.1 146.155 197.1 148.355C197.1 149.155 196.6 149.855 196.2 150.555L196 150.855C195.5 151.655 195.3 152.555 195.1 153.355C195 153.955 194.8 154.555 194.6 155.055C194 156.155 193.8 157.455 193.6 158.655C193.6 158.955 193.5 159.355 193.4 159.655C193.2 160.255 193 160.855 192.8 161.355C192.5 162.155 192.1 162.855 192.1 163.855C192.1 164.555 192.1 165.255 192.1 165.955C192.1 166.655 192.1 167.355 192.1 168.055C192.1 169.255 191.8 170.155 191.5 171.255C191.2 172.255 190.9 173.255 190.9 174.255C190.9 174.955 190.9 175.555 190.9 176.255C190.9 177.055 191.1 177.755 190.9 178.255C190.3 179.755 190.2 181.455 190.1 182.955C190.1 183.855 190.1 184.855 189.8 185.755C189.8 187.155 190.1 188.455 190.3 189.755C190.5 190.955 190.8 192.255 190.8 193.655C191.2 196.155 191.1 198.555 190.9 201.055C190.9 202.455 190.7 203.855 190.8 205.355C190.9 206.055 191.1 206.755 191.3 207.355C191.6 208.455 192 209.455 191.9 210.755C191.9 211.855 192.3 212.855 192.6 213.855C192.9 214.855 193.2 215.755 193.3 216.855C193.3 217.055 193.4 217.355 193.5 217.655C193.8 218.855 194.2 220.055 194.1 221.255C194.1 221.255 194.1 221.255 194.1 221.355C194.3 222.455 195 223.355 195.7 224.155C196.2 224.755 196.7 225.455 197.1 226.255C198 227.855 198.4 229.755 198.8 231.655C199.1 232.855 199.4 234.055 199.8 235.255C201.9 239.455 203.6 242.355 205.7 245.255C206.4 246.255 207 247.455 207.6 248.655C208.6 250.555 209.6 252.555 211.1 254.155C211.4 254.655 212 255.355 212.7 256.055C213.9 257.355 215.6 259.255 215.1 260.155C214.1 260.455 213.1 260.355 211.9 260.255C211.1 260.255 210.2 260.255 209.5 260.255C208.3 260.255 207.1 260.255 205.9 260.255C203.5 260.255 201 260.355 198.7 260.055C196.8 259.455 194.9 259.455 193.3 260.055C192.6 260.255 191.7 260.255 190.9 260.155C190.4 260.155 189.8 260.155 189.3 260.155C188.6 260.155 187.9 260.255 187.2 260.355C186.2 260.455 185.2 260.655 183.9 260.655C182.6 260.755 181.5 260.355 180.3 259.955C179.2 259.555 178.1 259.155 176.8 259.255C176.1 259.355 175.4 259.655 174.8 259.955C173.8 260.355 172.8 260.755 171.7 260.655C167.5 260.855 163 260.655 157.8 259.855C157.8 259.855 157.8 259.855 157.7 259.855C155.4 260.155 153.1 260.155 150.8 260.255C148.6 260.255 146.2 260.255 144 260.555C142.9 260.555 141.8 260.355 140.6 260.055C139 259.755 137.4 259.455 135.8 259.555C132.1 260.255 128.8 260.355 125.4 260.355C124.1 260.355 122.7 260.355 121.3 260.355C118.8 260.255 107.3 260.155 104.9 260.055C102 259.955 99.2 259.855 96.3 259.655C94.8 259.655 93.7 259.755 92.7 260.255C90.4 261.155 88.7 262.855 87.9 265.055C87.1 267.155 87.2 269.355 88.3 271.455C89 272.355 90 272.655 90.9 272.855C91.2 272.855 91.5 273.055 91.8 273.155C92.2 273.355 92.7 273.555 93.1 273.855C94.4 274.555 95.7 275.255 97.4 275.055C101.6 274.455 105.6 274.855 108.8 275.255C110.1 275.255 120.3 274.955 121.4 274.755C122.5 274.555 123.7 274.255 125.1 274.255C126.2 274.255 127.4 274.455 128.4 274.655C129.3 274.855 130.3 275.055 131.2 275.055C132 275.055 132.4 274.655 132.7 274.355C133.9 273.355 135.9 273.555 137.8 273.755C139 273.855 140.2 273.955 141.1 273.755C142.1 273.755 142.9 273.855 143.8 274.055C144.9 274.355 146.1 274.555 147.4 274.155C148.4 273.955 149.4 274.155 150.4 274.355C151.1 274.455 151.8 274.655 152.5 274.655C154.3 274.455 157.7 274.255 160.6 274.955C161.7 275.055 162.7 274.855 163.6 274.555C164.1 274.355 164.7 274.255 165.3 274.155C168.5 273.855 172.2 274.155 174.6 274.555C175.2 274.655 175.8 274.755 176.5 274.755C177.4 274.755 178.3 274.955 179 275.155C180.1 275.455 180.7 275.155 181.5 274.655C183.6 273.355 185.7 273.655 188 273.955C189.2 274.155 190.4 274.255 191.7 274.255C193.1 274.155 194.6 274.255 196 274.355C197.7 274.455 199.4 274.655 201 274.355C201 274.355 201 274.355 201.1 274.355C202.1 273.855 203.2 273.855 204.4 273.855C205 273.855 205.6 273.855 206.1 273.855C207.6 273.855 209 273.955 210.5 274.055C214 274.255 217.6 274.555 221 273.955C221.5 273.955 221.9 274.055 222.4 274.255C222.8 274.255 223.1 274.455 223.5 274.555C224.2 274.555 224.9 274.555 225.5 274.255C226.3 274.055 227.1 273.855 228 274.155C230.6 274.655 231.4 275.855 232.7 277.655C232.9 277.955 233.1 278.155 233.3 278.455C233.3 278.455 233.3 278.455 233.4 278.555C236.3 280.455 239.2 282.755 242 285.055C243 285.855 244 286.755 245.1 287.555C246.2 288.255 247.5 288.455 248.8 288.655C249.5 288.755 250.2 288.855 250.8 289.055C252.2 289.555 253.7 290.255 255.6 291.355C257.2 291.955 260.2 293.055 262.1 295.055C263.3 295.955 264.7 296.055 266.1 296.155C267.3 296.255 268.4 296.355 269.2 296.855C270.3 297.555 271.6 298.455 273.4 298.555C275 298.555 276.5 299.055 278 299.655C278.7 299.955 279.4 300.255 280.2 300.455C281.5 300.755 282.8 300.855 284 300.955C286.2 301.155 288.2 301.355 290 302.255C290.9 302.755 292.1 302.855 293.3 303.055C295 303.255 296.7 303.555 297.6 304.755C297.9 305.555 297.6 306.355 297.2 307.255C296.7 308.455 296.2 309.855 297.2 311.355C298.1 312.755 297.4 314.155 296.7 315.655C296.2 316.555 296.8 317.055 297.1 317.255C298 318.255 297.6 321.655 297.3 324.155L297.4 324.755Z" fill="white"/>
<path d="M52.3999 323.655C52.8999 324.255 53.6999 324.655 54.2999 325.255C54.9999 325.955 55.6999 326.555 56.5999 327.155C57.4999 327.655 58.1999 328.455 59.2999 328.555C61.7999 328.855 64.3999 329.955 66.8999 329.655C67.5999 329.455 67.9999 328.855 68.4999 328.355C68.8999 327.755 69.4999 327.555 70.0999 327.155C71.2999 326.655 71.8999 325.555 72.2999 324.455C72.8999 323.155 73.8999 322.255 74.1999 320.755C74.5999 318.255 74.1999 315.455 73.8999 312.955C73.5999 310.455 71.7999 308.255 69.9999 306.355C69.2999 305.655 68.0999 305.355 67.3999 304.855C66.8999 304.555 66.3999 304.055 65.7999 303.755C65.3999 303.555 65.0999 303.355 64.6999 303.355C63.3999 303.255 61.9999 303.555 60.6999 303.855C59.3999 304.155 57.9999 304.255 56.7999 305.055C55.5999 305.855 54.1999 306.555 53.2999 307.655C52.7999 308.255 52.4999 308.955 52.0999 309.655C51.6999 310.455 51.0999 311.255 50.6999 312.055C50.1999 313.355 50.4999 315.355 50.4999 316.755C50.4999 318.155 50.2999 319.155 50.6999 320.255C50.9999 320.955 51.4999 321.555 51.7999 322.355C51.9999 322.955 52.0999 323.355 52.4999 323.855L52.3999 323.655Z" fill="white"/>
<path d="M55.9998 278.555C57.7998 278.955 59.6998 279.855 61.2998 279.755C62.6998 279.755 64.0998 279.155 65.5998 278.755C67.1998 278.255 68.9998 278.055 70.1998 277.055C70.6998 276.655 71.1998 276.155 71.4998 275.555C72.1998 274.555 73.0998 273.755 73.1998 272.855C73.3998 271.455 73.4998 270.055 73.7998 268.655C73.9998 266.555 73.1998 264.855 72.6998 262.855C72.2998 261.155 71.6998 259.455 70.2998 258.255C69.5998 257.655 68.7998 256.755 67.9998 256.255C67.0998 255.755 65.9998 255.755 64.9998 255.755C63.8998 255.755 63.1998 254.955 62.1998 255.055C61.0998 255.055 59.5998 255.355 58.4998 255.655C57.0998 256.055 55.7998 257.055 54.4998 257.755C53.0998 258.455 52.0998 259.555 51.0998 260.655C50.4998 261.255 49.9998 261.955 49.9998 262.755C49.9998 263.155 50.0998 263.455 50.0998 263.855C50.0998 264.855 49.2998 265.755 49.0998 266.755C48.9998 267.555 49.3998 268.155 49.5998 268.955C49.7998 269.655 49.5998 270.155 49.7998 270.855C50.1998 272.155 50.4998 273.655 51.3998 274.755C52.4998 276.155 53.8998 277.855 55.8998 278.555H55.9998Z" fill="white"/>
<path d="M69.6002 95.9547C71.0002 97.8547 71.8002 99.8547 72.0002 102.155C72.3002 103.655 73.3002 104.255 73.6002 105.155C73.8002 105.755 73.8002 106.455 74.0002 107.155C75.1002 109.755 78.7002 110.555 80.1002 112.855C81.6002 115.455 84.4002 116.755 86.6002 118.655C88.2002 120.055 89.5002 121.855 91.3002 123.055C92.2002 123.555 93.4002 123.655 94.4002 123.855C95.5002 124.055 96.8002 124.355 97.9002 124.755C98.5002 124.955 99.0002 125.355 99.6002 125.655C100.9 126.155 102.4 126.155 103.8 126.455C105.4 126.755 106.9 125.955 108.5 126.155C109.4 126.155 110.2 126.555 111.1 126.555C111.8 126.555 112.5 126.555 113.2 126.555C114.8 126.555 116.4 126.355 118 126.055C119.3 125.755 120.3 125.855 121.6 125.755C124.8 125.655 128.1 123.755 131.1 122.755C132.5 121.955 133.2 120.555 134.5 119.755C135.7 119.055 136.8 118.555 138.2 118.055C141.8 116.955 142.5 112.755 145.5 110.955C147.3 110.055 147.1 108.255 148.2 106.855C149.7 104.955 151 103.055 152 100.755C152.3 100.155 153.3 99.3547 153.4 98.9547C153.5 98.5547 153.4 98.0547 153.2 97.6547C152.8 96.6547 153.8 95.8547 154.2 94.7547C154.5 93.8547 154.3 92.6547 154.5 91.7547C154.7 90.8547 154.8 90.2547 154.9 89.3547C154.9 87.1547 155.3 84.9547 155.3 82.6547C155.3 80.9547 155.3 79.2547 155 77.5547C154.9 76.8547 154.7 76.1547 154.6 75.5547C154.5 74.8547 154.6 74.0547 154.5 73.2547C154.2 71.8547 153.2 70.6547 152.8 69.2547C152.4 67.8547 152.2 66.6547 151.4 65.3547C150.6 64.1547 150.4 62.8547 149.8 61.5547C149.2 60.2547 148.5 59.0547 147.8 57.8547C147 56.2547 146.7 54.8547 145 53.8547C144.5 53.5547 143.9 53.4547 143.4 53.1547C142.4 52.7547 141.5 52.1547 140.7 51.4547C139.3 50.3547 137.6 49.0547 136.5 47.6547C134.8 45.4547 132.1 45.5547 130.3 43.5547C129 42.5547 126.8 43.2547 125.2 42.7547C123 41.7547 120.5 40.4547 118 40.5547C114.7 40.1547 111 39.6547 107.8 40.5547C105.9 40.5547 103.6 40.0547 102 40.7547C99.4002 41.5547 96.6002 42.5547 94.4002 44.1547C91.8002 44.9547 89.4002 46.3547 86.9002 47.5547C85.8002 48.3547 85.3002 49.7547 84.4002 50.6547C83.3002 51.8547 81.7002 52.4547 80.7002 53.4547C79.3002 55.3547 77.6002 57.0547 75.9002 58.5547C75.1002 62.2547 72.3002 64.6547 70.7002 67.9547C70.1002 69.9547 70.2002 72.1547 69.9002 74.1547C69.7002 75.9547 68.7002 77.2547 68.2002 78.8547C68.2002 81.7547 68.2002 84.4547 68.2002 87.1547C69.1002 89.7547 68.9002 93.1547 69.9002 95.7547L69.6002 95.9547ZM84.1002 74.3547C84.6002 72.0547 85.3002 69.4547 87.0002 67.6547C88.1002 66.1547 89.9002 64.7547 91.1002 63.2547C92.1002 62.1547 92.7002 60.7547 93.8002 59.9547C95.3002 58.9547 96.9002 58.8547 98.2002 57.5547C99.6002 56.3547 101.5 56.2547 103.2 55.8547C105 55.4547 106.3 54.6547 107.8 54.6547C110 54.8547 112 54.4547 114.1 54.1547C118.2 53.8547 120.9 55.7547 124.3 57.3547C125.8 57.8547 126.7 59.3547 128 60.2547C129.5 61.2547 131.5 61.4547 132.4 63.0547C132.8 63.7547 133.1 64.5547 133.7 65.0547C134.6 65.7547 135.8 66.1547 136.2 67.3547C136.7 68.3547 136.7 69.7547 137.2 70.6547C137.8 71.7547 138.8 72.5547 139.3 73.6547C139.5 74.1547 139.5 74.6547 139.6 75.2547C139.6 76.3547 140.1 76.7547 140.5 77.7547C140.7 78.3547 140.6 78.9547 140.5 79.5547C139.6 82.5547 141.6 85.1547 141.1 87.9547C140.8 89.8547 139.3 91.1547 138.8 92.9547C138.5 94.6547 138.9 96.2547 138.1 97.8547C137 100.555 134.3 102.055 132.6 104.355C131.5 105.555 129.9 106.255 128.8 107.355C127.7 108.355 126.9 109.655 125.5 110.255C122.5 111.155 119.8 111.955 116.9 112.755C115.2 113.155 113.4 113.755 111.7 113.555C109.8 113.355 108.4 112.655 106.4 112.655C105.6 112.655 104.8 112.655 104.1 112.455C102.5 112.055 101.4 110.855 99.6002 110.255C99.0002 110.055 98.3002 109.855 97.8002 109.555C96.5002 108.855 95.4002 107.755 94.2002 106.855C93.2002 106.055 92.1002 105.555 91.2002 104.555C90.1002 103.255 89.2002 101.855 87.8002 100.755C87.0002 99.7547 86.5002 98.6547 85.6002 97.6547C84.2002 96.2547 83.0002 94.0547 82.4002 92.0547C82.0002 90.2547 82.4002 88.4547 82.0002 86.6547C81.1002 82.4547 82.7002 78.3547 84.1002 74.4547V74.3547Z" fill="white"/>
<path d="M70.7 359.155C70 358.655 69.2 358.055 68.4 357.655C66.2 356.355 63.9 356.555 61.4 356.555C59.5 356.555 57.4 356.555 55.7 357.355C54.5 357.955 54.3 359.055 53.6 359.955C53 360.755 52.2 361.155 51.7 362.055C50.8 363.755 49.9 365.655 49.6 367.555C49.2 369.855 50.6 371.855 51.5 373.855C51.9 374.755 52.1 375.655 52.8 376.455C53.4 377.055 54 377.755 54.7 378.255C57.8 380.355 61.8 381.055 65.5 380.855C67.2 380.855 68.3 379.555 69.4 378.555C70 378.155 70.9 378.055 71.4 377.555C72.1 376.555 73.1 374.555 73.8 373.355C74.3 372.155 74.7 371.155 75.1 369.955C75.6 366.755 74.3 362.755 71.9 360.155C71.5 359.755 71.1 359.355 70.7 359.055V359.155Z" fill="white"/>
<path d="M239.7 360.155C236.7 358.755 232.9 359.655 229.6 359.355C224.9 357.855 223.4 359.355 219 359.855C214.4 359.355 210.1 359.355 205.5 359.555C203.2 359.355 201.3 359.555 199 359.355C197.1 359.655 195.1 360.355 193.2 359.855C190.8 359.755 189.1 357.855 186.8 359.455C184.1 360.655 181.7 357.755 179 358.055C177.8 358.055 177.3 358.555 177 359.455C173.6 360.355 169.3 360.455 165.9 359.255C153.6 360.855 138.1 360.255 126.2 359.255C124.8 359.455 123.2 360.055 121.6 360.155C119.9 360.155 109.3 359.355 107.5 359.455C103.5 359.955 99.3998 360.255 95.4998 361.055C92.3998 362.155 91.1998 366.155 91.5998 369.055C91.5998 369.355 92.0998 369.755 92.2998 369.955C93.8998 371.155 94.8998 373.355 97.0998 373.655C100.4 374.255 103.7 374.455 107 373.555C110.9 373.355 124 374.455 127.8 373.755C131.4 373.355 135.1 373.555 138.7 372.855C144.1 373.755 149.7 373.455 155.2 373.455C158.6 373.055 161.5 372.555 165 373.055C167 373.055 168.3 374.255 170.3 374.255C173.3 374.255 176.4 373.555 179.2 372.555C181.5 371.955 183.9 372.955 186.1 373.055C187.6 372.855 189.2 372.355 190.8 372.655C192 372.855 192.9 372.855 194.2 372.655C198.2 372.355 201.7 374.255 205.6 373.755C208.1 374.055 210.5 374.155 212.9 373.255C214.8 372.555 216 373.555 217.7 373.855C219.6 373.755 221.7 373.055 223.6 373.455C225.4 373.955 227.1 373.855 229 373.555C230.9 373.155 232.6 375.155 234.1 374.655C236.2 373.055 240 373.555 241.8 371.255C246.7 367.255 245.1 362.255 239.7 360.055V360.155Z" fill="white"/>
<path d="M98.9998 326.655C102.3 326.855 105.2 328.255 108.5 327.355C113.1 326.555 127 327.055 131.7 327.355C136.7 326.555 141.9 326.255 147.1 326.255C151.1 326.555 155.7 326.855 159.8 326.255C162.3 327.655 165.4 326.255 168 326.755C170 327.255 171.9 327.755 173.9 327.055C179.6 327.255 185.2 326.355 191 326.555C194.2 325.655 195.9 326.255 198.8 327.055C200.2 326.655 201.3 325.855 202.7 326.755C204.6 327.455 207.7 326.655 209.9 327.255C213.1 327.655 216.6 326.855 219.9 326.755C223.2 326.955 226.1 327.655 229.5 326.755C234.3 327.855 241.6 325.955 241.5 319.855C241.7 318.555 242.1 317.055 240.8 316.055C238.7 314.955 235.9 313.055 233.3 313.155C230.8 314.255 228 312.755 225.6 313.155C224.7 313.855 223.7 313.455 222.6 313.155C218.7 313.155 213.5 314.055 209.8 313.055C207.9 313.155 205.9 314.355 203.9 313.755C202.8 313.255 201.9 312.855 200.6 313.155C198.5 313.855 195.8 313.155 193.7 313.155C191.1 313.855 188.1 313.955 185.4 313.455C183.8 313.455 181.5 311.855 180.8 313.555C180.8 314.755 179.1 313.755 178.3 313.755C174 312.955 169.3 314.055 165.1 312.755C161.3 312.455 157.4 313.655 153.5 313.355C150.2 313.055 147.2 312.155 143.9 312.655C142.2 313.255 141.2 312.855 139.2 312.955C136.9 313.355 134.2 314.655 131.9 313.755C125.7 312.455 110.1 313.455 103.7 313.755C101.9 314.255 100.6 313.055 98.7998 312.955C96.2998 312.955 94.2998 314.955 91.8998 315.455C90.1998 316.255 90.3998 318.255 90.3998 319.755C89.4998 322.655 90.9998 325.355 93.6998 326.755C95.3998 327.355 96.8998 326.555 98.8998 326.555L98.9998 326.655Z" fill="white"/>
<path d="M120.7 224.355C125.6 222.955 129.8 224.655 134.6 223.555C140.2 222.655 145.8 224.155 151.3 223.255C152.2 223.055 153.3 223.255 154.2 223.255C157.6 223.755 161.1 223.955 164.5 223.555C165.3 223.455 166.2 223.355 166.9 223.055C167.5 222.755 167.8 222.355 168.5 222.155C169.9 221.855 171.3 222.355 172.6 222.155C173.5 221.955 174.3 221.755 175.1 221.455C175.9 221.255 176.7 221.455 177.4 221.355C177.4 220.355 177.9 219.755 177.8 218.655C177.8 217.255 177.6 216.055 177.4 214.755C177 212.655 177 210.455 176.5 208.355C176.3 207.355 175.8 206.355 175.8 205.355C175.8 204.055 175.8 203.055 175.5 201.755C175.1 199.655 174.6 197.655 174.1 195.555C173.9 194.655 173.5 193.755 173.4 192.855C173.4 191.755 173.5 190.755 173.4 189.655C173.2 188.455 173.1 187.155 172.8 185.955C172.5 184.455 171.9 183.055 171.6 181.555C171.2 179.555 170.6 177.655 170 175.655C168.8 171.955 166.9 168.555 165.4 164.955C165 160.955 161.8 157.855 159.6 154.655C159 152.955 158.1 150.755 156.1 149.555C153.2 146.555 150.3 143.755 147.3 141.055C144.9 138.855 141.8 138.055 138.6 137.255C134.8 134.955 129.8 133.955 125.2 134.155C121.1 133.055 119.1 131.555 114.4 132.355C111.8 132.355 109.5 132.055 107 132.155C105.6 132.355 104.6 133.355 103.2 133.455C97.7002 133.755 92.1002 133.755 87.1002 136.155C84.2002 138.055 81.0002 138.555 77.8002 139.655C76.3002 140.455 75.4002 141.855 74.0002 142.855C71.4002 144.255 68.3002 145.555 66.4002 147.955C65.8002 148.755 65.4002 149.655 65.0002 150.555C63.6002 153.455 61.2002 155.655 59.6002 158.455C58.5002 160.255 57.4002 161.955 56.6002 163.855C56.0002 165.455 55.7002 167.055 54.6002 168.455C53.7002 169.555 53.0002 170.355 52.4002 171.655C51.6002 173.455 50.9002 175.455 50.5002 177.355C49.7002 180.955 48.6002 184.455 48.0002 188.155C47.7002 189.655 47.6002 191.155 47.5002 192.755C47.4002 194.555 46.7002 196.255 46.4002 198.055C46.2002 199.555 46.4002 200.855 46.0002 202.355C45.7002 203.755 46.0002 205.255 46.0002 206.655C46.0002 208.555 45.4002 210.355 45.2002 212.255C45.1002 213.655 45.4002 215.055 45.1002 216.455C44.8002 217.755 44.7002 219.055 44.8002 220.355C44.8002 221.755 45.8002 222.655 47.0002 223.155C48.4002 223.855 49.5002 223.955 51.1002 223.855C53.3002 223.655 55.5002 223.655 57.6002 224.055C60.5002 224.655 63.9002 224.355 66.9002 224.455C73.3002 224.655 79.7002 224.655 85.9002 223.655C86.2002 223.655 86.5002 223.555 86.8002 223.455C91.2002 224.055 95.8002 225.055 100.2 223.755C106.4 223.555 113.6 225.455 120.9 224.755L120.7 224.355Z" fill="white"/>
</svg>
