<svg width="452" height="453" viewBox="0 0 452 453" fill="none" xmlns="http://www.w3.org/2000/svg">
<path fill-rule="evenodd" clip-rule="evenodd" d="M20.8445 77.8907C22.8445 78.7907 25.3445 79.8907 26.7445 81.9907C29.2445 85.2907 32.5445 87.4907 36.4445 89.5907C39.7445 90.9907 40.3445 94.4907 39.3445 97.6907C38.3445 100.991 36.7445 103.491 36.4445 107.091C34.7445 113.391 32.4445 118.991 31.7445 125.391C31.0445 128.491 29.4445 131.191 29.3445 134.391C28.0445 138.891 26.7445 143.891 25.7445 148.291C25.2445 152.091 28.8445 157.291 33.1445 155.391C38.0445 152.791 42.7445 149.791 47.1445 146.391C49.7445 143.891 53.3445 141.591 56.1445 139.891C59.5445 137.691 62.4445 133.991 65.6445 131.391C67.3445 129.891 69.4445 128.891 71.1445 127.391C74.2445 125.291 76.6445 121.891 79.9445 119.891C81.3445 118.991 82.4445 120.591 83.3445 121.491C88.0445 127.191 95.3445 130.191 100.245 135.891C101.845 137.791 103.745 139.391 105.945 140.491C110.645 142.791 113.745 146.891 118.145 149.491C124.245 153.191 133.245 161.291 135.645 149.491C134.345 143.591 132.045 136.991 131.345 130.791C129.545 126.891 129.145 122.391 128.045 118.291C127.145 113.491 125.145 110.191 124.545 105.491C123.645 100.191 117.945 93.0907 125.045 89.7907C129.145 87.4907 131.945 84.1907 135.145 81.5907C137.845 79.5907 140.745 78.3907 142.845 75.8907C144.445 74.4907 146.245 73.4907 147.845 71.9907C152.245 68.5907 158.345 66.2907 160.645 60.9907C161.045 58.1907 161.245 53.0907 157.545 52.4907C146.845 51.3907 134.845 53.0907 125.545 51.5907C119.345 51.8907 112.545 53.0907 106.845 50.0907C103.945 47.9907 103.745 43.7907 102.245 40.7907C101.445 38.8907 100.445 36.9907 99.5445 35.3907C98.9445 33.5907 98.9445 31.9907 98.0445 30.3907C96.1445 27.1907 94.8445 23.1907 93.3445 19.8907C92.3445 16.6907 90.7445 14.3907 90.2445 11.1907C88.8445 9.09069 87.6445 6.99069 86.5445 4.69069C83.7445 -0.609315 78.4445 -2.00931 75.2445 3.59069C74.8445 4.19069 74.6445 4.59069 74.3445 5.29069C73.5445 7.59069 72.2445 8.99069 71.0445 11.1907C70.4445 14.5907 69.4445 16.2907 67.7445 19.2907C66.3445 22.7907 65.0445 26.8907 63.1445 30.2907C62.0445 33.8907 61.5445 35.9907 59.5445 39.2907C57.5445 45.5907 54.9445 51.8907 47.5445 51.8907C35.9445 53.2907 22.3445 50.8907 10.5445 51.1907C3.54453 51.3907 -1.75547 55.1907 0.544527 61.5907C1.94453 64.6907 5.24453 66.0907 7.74453 68.2907C12.2445 71.1907 16.6445 74.7907 20.8445 78.0907V77.8907ZM266.945 108.191C268.545 120.191 274.245 131.591 280.745 141.691C283.045 145.491 285.545 149.991 289.645 151.991C292.245 154.591 295.545 157.091 298.845 158.691C307.545 164.891 317.645 168.791 328.345 169.591C331.345 169.591 334.145 171.391 337.045 171.291C345.045 170.891 353.045 168.091 361.045 166.891C367.245 165.691 372.645 161.791 378.745 159.591C385.045 156.691 390.445 151.991 396.045 148.291C399.945 147.891 401.945 145.191 404.345 142.691C407.645 140.991 410.445 138.291 412.945 135.591C414.745 133.891 416.845 132.491 418.045 130.291C424.845 120.691 428.145 109.291 430.845 98.1907C433.045 93.2907 430.645 87.9907 431.245 82.7907C430.745 72.3907 430.545 66.2907 425.145 57.0907C423.445 50.7907 419.945 45.5907 415.645 40.6907H415.545C403.345 27.8907 387.645 17.1907 369.645 16.0907C367.145 15.5907 364.245 16.3907 361.745 15.4907C354.045 13.6907 346.445 16.6907 338.845 18.8907C335.545 19.7907 332.645 20.9907 329.745 22.6907C324.645 24.3907 319.045 26.7907 314.345 29.3907C307.245 33.6907 300.045 37.1907 294.145 43.2907C292.145 46.2907 288.245 47.3907 286.445 50.4907C285.745 51.8907 284.145 52.2907 283.245 53.4907C281.945 55.1907 281.145 57.0907 279.645 58.6907C274.045 64.6907 275.845 65.6907 273.145 72.1907C270.445 74.7907 270.245 78.6907 269.545 82.1907C268.745 85.3907 267.645 88.7907 267.145 91.9907C268.245 97.2907 265.445 102.791 267.345 108.191H266.945ZM305.745 71.4907C307.345 68.1907 308.145 65.3907 309.445 62.5907C310.345 61.0907 311.045 59.7907 311.445 58.0907C311.845 56.0907 312.745 54.2907 314.245 52.7907C318.845 47.7907 324.045 43.3907 329.745 39.8907C331.545 38.3907 333.445 36.6907 335.645 36.0907C336.945 35.7907 338.045 35.6907 339.245 35.0907H339.345C340.745 34.2907 342.145 32.8907 343.945 32.2907C345.945 31.5907 348.345 31.7907 350.545 31.5907C352.845 31.4907 354.645 30.7907 356.845 30.5907C359.845 30.1907 362.745 30.8907 365.745 30.7907C367.545 30.6907 369.345 30.7907 371.145 31.2907C375.445 32.8907 380.045 32.9907 383.945 35.1907C385.745 36.0907 387.345 38.0907 389.245 39.1907C390.845 40.1907 392.645 40.7907 394.345 41.9907C397.445 44.4907 400.045 47.7907 403.045 49.9907C406.745 52.7907 407.645 57.8907 410.245 61.4907C411.645 63.4907 412.945 65.4907 413.245 68.5907C413.345 69.4907 413.545 70.3907 413.845 71.1907C414.545 73.0907 415.445 74.2907 415.945 76.4907C416.745 80.0907 416.445 83.4907 416.445 86.8907C416.345 89.0907 415.345 91.0907 415.645 93.3907C416.245 95.9907 416.145 98.7907 414.945 101.191C414.145 103.991 412.345 106.991 411.945 109.991C411.545 112.391 409.645 113.991 408.545 116.091C407.445 118.091 406.645 120.391 405.045 122.391C403.545 124.391 401.245 125.591 399.345 127.191C397.845 128.491 395.945 129.391 394.645 130.591C393.245 131.591 392.345 133.291 391.245 134.291C388.645 135.491 385.645 135.991 382.745 137.391C381.045 137.891 379.545 138.891 377.945 139.591C375.045 140.791 372.145 141.491 369.045 142.391C362.145 143.191 355.645 141.891 348.645 142.291C346.745 142.291 345.245 140.891 343.245 140.591C338.445 139.791 333.745 137.491 329.545 134.691C328.045 133.691 326.745 132.391 325.245 131.391C324.045 130.691 323.045 129.891 322.145 128.891C320.245 126.891 318.445 124.991 316.545 122.991C314.245 120.491 313.045 117.091 310.945 114.391C308.145 111.091 307.645 106.591 305.845 102.791C304.845 99.4907 303.345 95.8907 303.945 92.3907C304.145 90.9907 304.945 89.7907 304.845 88.3907C304.645 87.3907 303.945 86.1907 303.745 84.9907C303.145 79.9907 304.445 76.2907 305.545 71.1907L305.745 71.4907ZM283.445 86.4907C284.345 83.4907 284.345 80.0907 285.745 77.4907C286.545 75.7907 288.145 74.5907 288.845 72.9907V72.7907C289.445 71.5907 289.745 67.5907 291.145 68.5907C292.145 70.7907 290.745 73.8907 290.445 75.9907C289.245 78.3907 289.445 80.9907 289.745 83.5907C289.545 86.2907 288.845 88.2907 289.145 91.0907C289.245 92.7907 289.545 94.5907 289.945 96.1907C290.445 98.0907 289.945 99.4907 290.345 101.291C291.545 104.091 292.445 106.491 293.445 109.591C295.245 113.191 296.545 117.291 298.745 120.791C300.145 123.291 300.845 125.391 303.245 127.691C304.645 129.091 305.745 131.291 304.145 132.991C301.945 135.191 297.145 137.291 295.345 136.091C293.245 135.091 292.045 131.991 290.945 129.791C289.945 127.591 288.345 126.691 287.345 124.591C286.345 122.691 286.445 120.591 285.445 118.591C284.945 117.291 283.845 116.191 283.345 114.891C282.945 113.691 282.745 112.391 282.345 111.391C281.745 109.091 281.445 106.391 281.845 104.091C282.045 103.291 282.345 102.591 282.345 101.791C282.345 100.691 281.945 99.3907 281.645 98.2907C281.445 96.8907 281.345 95.1907 281.345 93.6907C281.345 90.7907 282.545 89.0907 283.545 86.5907L283.445 86.4907ZM321.945 109.791C324.045 112.391 324.445 116.191 327.245 117.991C328.745 118.891 330.345 119.491 331.745 120.391C334.745 122.591 337.745 123.991 341.345 125.391C348.145 128.491 355.445 130.191 362.945 130.091C365.645 130.191 368.545 130.391 371.245 129.891C373.545 129.091 376.445 127.691 378.045 125.991H378.145C380.945 122.191 379.245 114.791 374.245 113.891C371.945 113.291 370.245 114.691 367.945 114.791C364.645 114.891 361.345 114.191 358.145 114.491C353.345 114.591 348.245 112.791 343.945 110.591C341.645 109.291 339.545 107.791 337.445 106.191C333.245 102.691 331.045 97.8907 330.045 92.6907C329.745 89.7907 328.645 87.6907 329.045 84.8907C329.445 81.4907 329.245 77.8907 331.145 75.0907C331.945 73.4907 332.745 71.9907 332.845 70.2907C332.845 69.0907 332.845 67.7907 333.645 66.7907C334.345 65.6907 335.845 64.7907 336.845 63.6907C341.745 56.8907 344.445 57.3907 351.545 54.6907C355.145 52.4907 359.945 53.5907 363.645 54.0907C366.245 54.0907 368.445 53.2907 370.945 53.0907C371.345 52.9907 371.845 52.8907 372.345 52.5907C376.145 50.4907 376.545 43.9907 372.345 41.8907C361.545 35.4907 348.745 39.2907 337.945 43.0907C336.945 43.4907 335.945 44.3907 335.145 45.2907C333.145 47.6907 330.745 49.9907 327.945 51.5907C325.845 52.6907 324.445 54.4907 323.045 56.3907C320.045 59.2907 317.245 62.6907 316.945 67.0907C316.645 69.3907 316.345 71.6907 315.145 73.6907C314.245 75.5907 314.545 78.2907 314.245 80.9907C313.845 82.8907 314.245 84.8907 314.445 86.6907C314.145 94.8907 316.945 103.091 321.845 109.691L321.945 109.791ZM444.645 216.791C443.145 215.191 441.245 214.191 439.245 213.291C436.145 211.791 434.045 209.291 430.645 208.591C428.345 207.991 425.445 208.691 423.345 207.491C420.345 205.891 418.045 203.091 415.145 201.391C412.345 199.891 409.245 198.991 406.445 197.891C400.845 196.091 395.145 198.191 389.645 199.591C386.345 200.291 383.045 202.091 380.545 204.291C377.245 206.291 375.045 208.391 372.145 211.191C370.145 213.691 366.945 215.491 364.945 217.391C363.445 220.891 361.345 224.291 359.045 227.191C355.945 231.691 354.345 236.891 350.745 240.991C348.645 244.391 348.045 249.291 346.045 252.991C338.445 265.191 333.545 279.491 326.745 292.191C325.445 296.191 323.345 299.891 321.245 303.491C318.545 310.291 314.745 316.791 311.245 323.191C309.145 327.091 306.945 330.291 304.345 334.091C299.445 337.891 293.645 339.291 287.445 340.691C275.145 345.391 262.245 344.691 249.145 346.091C243.745 346.591 238.745 346.991 233.445 347.691C230.345 347.691 227.245 347.491 224.245 348.291C219.045 348.891 213.445 347.991 208.145 349.191C205.545 349.691 202.945 349.691 200.345 349.791C197.845 350.091 195.545 351.191 192.945 351.291C187.045 351.591 181.945 351.291 175.345 351.791C171.645 352.291 167.945 352.891 164.445 352.191C156.045 352.991 145.745 353.091 137.545 351.591C135.445 350.991 133.945 349.591 131.945 348.891C129.745 348.091 126.745 347.291 124.745 345.491C122.745 343.991 121.845 341.991 122.145 339.491C121.745 336.691 122.645 333.191 124.345 330.891C124.845 328.891 125.545 326.691 127.445 325.391C132.945 320.191 139.145 316.791 144.545 311.991C147.145 308.591 151.545 307.191 155.045 304.691C158.345 301.891 161.245 299.691 165.145 298.391C167.545 296.591 170.745 294.391 173.345 292.891C174.845 291.791 176.245 292.491 177.445 293.691C186.245 301.391 194.045 311.391 202.145 319.791C205.745 322.991 207.845 329.291 213.245 328.391C215.045 328.291 216.345 327.891 217.945 326.491C221.645 321.691 226.345 317.191 229.945 312.291C233.545 308.791 237.645 305.191 241.045 301.491C246.345 296.791 250.245 290.791 254.845 285.491C258.745 281.791 263.045 278.591 266.845 274.591C268.845 272.191 269.945 269.291 271.845 266.591C274.245 262.191 278.845 258.991 281.245 254.791C284.945 247.091 291.045 240.791 293.245 232.491C297.945 226.491 297.345 218.691 300.145 211.891C301.245 207.691 300.645 202.691 300.745 198.291C300.845 196.791 301.245 195.691 300.745 194.291C299.645 191.091 300.045 187.091 298.345 184.091C295.145 177.891 291.545 171.591 286.245 167.291C281.945 162.291 280.645 159.191 273.345 157.791C270.445 156.991 268.745 154.991 266.145 153.891C261.045 152.491 256.245 152.691 250.945 152.991C244.745 154.291 238.945 154.791 233.345 157.691C228.945 161.091 224.745 164.691 219.545 166.791C216.645 168.791 213.545 171.591 209.945 169.791H209.845C203.445 164.891 195.645 160.391 188.845 156.191C182.945 154.291 176.245 153.191 170.145 152.791C162.245 152.091 156.445 155.691 149.645 158.591C145.245 159.891 141.645 163.291 139.345 166.991C136.945 169.691 133.845 171.691 132.345 175.091C130.445 178.491 129.345 181.691 127.045 184.791C125.345 188.591 125.945 193.091 124.845 196.991C124.645 201.891 124.845 206.791 125.745 211.491C126.145 213.791 127.945 216.391 126.845 218.591C125.745 220.591 122.745 219.991 120.545 220.591C115.645 222.291 110.545 223.591 105.245 224.291C101.045 225.591 97.9445 227.191 93.5445 227.391C88.6445 227.791 84.5445 229.591 80.1445 230.691C74.1445 232.191 68.3445 233.391 62.2445 235.091C58.2445 236.991 54.3445 236.691 50.3445 238.291C42.7445 240.491 35.1445 242.991 27.9445 244.391C25.4445 244.791 23.0445 246.091 20.6445 246.691C18.5445 247.091 16.7445 247.291 15.0445 248.291C12.3445 249.891 8.14453 251.391 7.64453 254.991C7.44453 256.591 8.24453 257.991 9.14453 259.191C10.1445 260.591 10.8445 261.491 12.6445 261.791C14.2445 262.091 16.2445 262.791 17.8445 262.191C18.6445 261.891 18.6445 261.491 19.6445 261.391C21.3445 261.391 22.9445 261.991 24.6445 261.991C26.4445 261.991 28.3445 261.391 30.1445 260.991C34.1445 259.991 37.9445 258.491 41.9445 257.391C50.3445 254.991 59.1445 253.991 67.0445 250.491C72.7445 248.491 79.1445 248.291 84.8445 246.891C88.5445 245.191 92.3445 243.791 96.3445 242.791C99.3445 242.191 102.845 242.291 105.845 241.391C109.445 240.091 112.645 239.191 116.445 238.991C118.645 238.791 120.445 237.491 122.745 237.091C125.145 236.491 127.945 236.791 130.345 236.491C137.545 234.691 145.145 233.891 152.345 232.191C156.045 232.091 159.145 231.791 162.845 230.491C167.345 230.391 173.445 229.291 177.745 228.191C183.645 228.891 188.645 226.291 194.445 226.091C198.445 226.791 204.245 227.091 206.645 230.291C208.545 233.091 210.145 236.691 208.845 240.191C207.845 243.991 206.345 247.591 203.445 250.291C194.745 259.291 183.845 265.291 173.845 272.491C172.145 273.791 170.145 274.191 168.445 275.591C165.445 278.491 160.945 280.791 157.545 282.991C153.745 286.191 149.945 289.391 145.345 291.491C143.845 292.391 142.745 293.291 141.645 294.491C139.645 296.691 136.245 297.891 133.745 299.691C124.645 307.691 113.945 314.191 108.145 325.191C102.645 338.291 106.245 353.091 117.145 362.191C121.945 365.491 128.645 365.691 134.145 367.191C139.645 369.291 145.745 367.791 151.345 368.691C158.145 367.991 164.545 368.491 171.345 368.991C175.745 368.291 180.945 367.191 185.545 367.891C188.545 368.191 190.745 368.191 193.445 367.591C197.545 366.791 202.445 366.691 206.745 365.991C213.145 365.391 219.545 364.991 225.845 363.891C228.545 363.691 230.845 364.291 233.545 363.891C238.845 362.991 244.145 362.691 249.445 362.991C253.145 361.891 257.645 362.091 261.545 362.291C267.645 361.091 273.445 361.091 279.645 360.091C291.345 358.091 302.545 355.291 313.245 349.991C318.545 347.091 323.445 342.891 328.645 339.591C332.845 334.291 337.545 329.691 341.245 324.391C345.045 319.491 348.645 315.191 351.945 309.991C354.845 307.291 357.045 304.291 358.745 300.691C361.045 297.091 363.845 293.691 365.945 290.091C368.745 287.091 371.645 282.891 373.845 279.291C376.245 276.291 378.245 273.491 380.545 270.591C382.445 267.491 384.645 263.591 387.645 261.191C389.845 259.591 389.845 257.191 391.245 255.091C394.145 251.991 396.345 248.091 399.445 245.491C401.945 242.991 403.045 239.891 405.445 237.391C408.745 235.091 411.345 231.391 414.545 228.891C425.845 221.591 439.345 226.991 435.245 241.991C434.545 245.091 432.445 247.291 431.945 250.491C429.845 257.791 424.845 265.191 421.745 272.391C419.945 276.691 417.445 282.191 413.945 285.891C411.345 290.891 408.445 295.891 404.945 300.491C401.545 303.691 401.045 307.391 398.345 310.991C396.045 314.591 394.245 318.591 391.545 321.891C389.645 324.191 388.745 326.891 387.145 329.391C383.345 333.591 382.045 338.991 378.445 343.391C374.145 348.291 371.645 354.091 368.045 359.291C366.845 361.791 364.645 363.791 362.745 365.991C360.445 370.591 358.345 375.291 355.345 379.491C351.845 384.691 347.345 389.291 343.945 394.591C341.745 397.891 338.345 400.191 336.645 403.891C335.045 406.291 332.745 407.691 330.745 409.891C328.045 412.191 326.345 415.891 323.145 417.691C318.145 420.991 312.945 423.791 307.445 426.091C304.745 426.991 301.245 426.891 298.445 427.991C295.045 427.991 291.745 429.491 288.445 430.591C281.745 432.191 273.145 429.891 266.145 431.591C260.045 432.091 253.845 431.991 247.545 431.891C244.945 431.691 243.045 432.591 240.645 432.891C238.245 433.091 235.645 432.691 233.445 432.991C229.545 432.991 225.645 433.491 221.845 433.991C215.945 434.291 209.745 433.991 203.845 433.691C192.845 434.491 182.445 433.591 171.345 433.491C164.945 434.291 158.845 433.791 152.445 433.991C145.245 434.391 138.345 433.591 131.145 433.791C125.545 434.691 120.345 433.391 114.745 434.191C113.945 434.291 113.345 434.491 112.545 434.691C111.045 434.991 109.945 434.091 108.245 434.491C105.645 435.491 103.045 435.391 100.345 434.791C96.5445 433.991 92.6445 434.891 88.9445 435.091C83.2445 434.491 77.7445 435.091 72.2445 434.291C65.8445 434.991 59.5445 435.091 53.0445 435.091C47.0445 434.791 40.7445 434.991 34.7445 435.791C29.6445 435.491 23.9445 434.391 18.6445 436.591C15.0445 438.291 11.4445 439.991 12.0445 444.491C10.9445 450.591 18.0445 451.691 22.6445 451.491C26.8445 451.891 31.6445 451.291 35.8445 451.191C39.8445 451.491 43.3445 451.691 47.2445 451.191C57.0445 451.391 66.5445 451.591 76.4445 451.491C82.4445 451.191 88.8445 452.591 94.9445 451.791C100.045 452.291 105.345 452.691 110.445 452.291C112.845 452.591 114.845 452.891 117.345 452.291C124.345 451.191 131.345 453.491 138.245 451.691C141.145 451.091 144.245 452.491 147.145 452.391C151.045 451.891 154.845 451.391 158.945 451.691C166.445 450.691 173.645 452.491 181.045 451.491C183.345 451.491 185.845 452.091 188.245 452.491C191.545 452.591 195.445 451.991 199.045 451.891C202.245 451.691 204.345 451.791 207.145 451.491C208.445 451.391 208.845 451.691 209.645 451.991C210.445 452.391 212.145 452.191 213.345 451.991C218.845 450.991 223.945 450.791 229.545 450.891C235.145 451.591 240.445 451.391 246.045 451.591C251.645 451.491 257.145 449.091 262.545 449.291C266.645 448.891 271.045 449.991 275.045 448.791C279.345 448.191 282.845 447.191 287.345 447.391C293.045 447.591 301.845 446.191 307.645 444.391C313.145 442.291 319.145 441.091 324.345 437.991C326.145 436.491 328.245 435.391 330.345 434.291C334.545 431.591 338.545 426.991 342.445 423.991C347.045 418.791 351.345 412.891 355.745 407.591C359.245 404.691 360.645 400.091 363.245 396.491C368.245 388.991 374.245 382.591 377.845 374.691C380.145 369.691 384.345 365.891 386.845 360.991C389.645 353.791 395.145 348.191 399.045 341.491C401.345 337.391 403.145 332.791 406.445 329.491C410.145 325.091 411.545 319.191 415.645 314.991C418.645 310.391 420.245 305.191 423.945 300.991C425.345 298.791 426.245 295.891 427.845 293.491C429.445 290.991 431.745 288.991 433.145 286.291C434.945 282.891 435.945 278.791 437.845 275.491C439.445 272.491 441.845 270.291 443.345 267.291C445.745 262.991 447.045 257.991 448.545 253.391C450.045 246.991 451.945 240.291 451.745 233.491C450.745 227.791 449.045 221.191 444.845 216.991L444.645 216.791ZM401.245 219.391C397.545 221.891 394.845 226.791 390.945 229.491C389.845 230.191 388.845 230.991 388.045 231.991C386.945 233.191 386.645 234.791 385.545 235.991C385.045 236.591 384.545 237.091 384.145 237.691C382.945 239.291 382.245 241.191 381.245 242.991C380.245 244.491 378.945 245.691 377.845 246.991C376.145 249.091 374.945 251.891 373.345 254.091C371.845 256.091 369.745 257.391 368.545 259.491C367.445 260.991 366.245 262.691 365.245 263.891C364.645 264.591 364.245 265.391 363.645 265.991C362.645 266.791 361.745 267.691 361.045 268.891C360.045 270.091 359.745 271.891 358.945 273.291C358.245 274.591 357.245 275.591 356.245 276.691C353.945 278.891 352.645 282.891 349.845 284.791C348.845 285.691 346.645 285.991 347.345 283.991C349.045 279.791 351.645 274.791 352.945 270.991C354.345 268.191 356.345 265.591 357.845 262.791C358.645 260.791 359.145 258.491 360.445 256.791C361.645 254.891 361.845 252.691 362.945 250.791C364.145 248.891 365.545 247.091 366.745 245.191C367.845 243.291 368.045 241.491 368.945 239.591C369.745 238.291 371.245 236.791 372.245 235.391C373.245 234.191 373.845 232.691 374.645 231.491C375.645 230.091 376.845 228.991 378.045 227.891C379.345 226.691 379.645 224.891 380.845 223.591H380.945C382.645 221.791 385.445 220.991 386.845 219.491C388.045 218.191 388.645 216.591 390.345 215.791C393.945 213.791 400.345 211.791 404.445 213.491C407.045 215.491 402.745 217.991 401.145 219.291L401.245 219.391ZM218.245 451.291C218.745 451.791 218.745 451.991 218.845 451.991C219.245 452.091 219.745 452.191 220.145 452.291C220.145 451.991 220.245 451.591 220.145 451.291C219.645 451.191 218.745 451.291 218.145 451.291H218.245Z" fill="#010035"/>
</svg>
