<svg width="473" height="428" viewBox="0 0 473 428" fill="none" xmlns="http://www.w3.org/2000/svg">
<path d="M1.91479 107.6C1.81479 107.2 1.71479 106.8 1.51479 106.4C1.01479 105.3 1.01479 104.3 1.41479 103.1C1.81479 101.7 1.81479 100.2 1.31479 98.8C1.11479 98.4 1.21479 98 1.31479 97.5C1.41479 97 1.51479 96.5 1.51479 96C1.51479 94.5 1.51479 93.1 1.51479 91.6C1.51479 91 1.51479 90.4 1.31479 89.8C1.11479 89.1 1.11479 88.5 1.31479 87.8C1.71479 86.5 1.71479 85.2 1.31479 84C0.914795 82.8 1.01479 81.6 1.41479 80.5C1.81479 79.3 2.01479 78 2.01479 76.7C2.01479 76 2.01479 75.3 1.71479 74.7C1.41479 73.7 1.41479 72.7 1.41479 71.6C1.41479 68.1 1.51479 64.5 1.51479 61C1.51479 59.9 1.51479 58.8 1.51479 57.6C1.51479 57.2 1.51479 56.7 1.51479 56.3C2.11479 54.3 1.81479 52.2 1.91479 50.1C1.91479 48.2 1.91479 46.3 1.91479 44.4C1.91479 43 1.61479 41.7 0.814795 40.5C0.514795 40.1 0.414794 39.7 0.614794 39.3C1.01479 38.2 1.01479 37.1 0.614794 36C0.614794 35.8 0.614793 35.7 0.514793 35.5C0.514793 35.1 0.514795 34.6 0.814795 34.3C1.61479 33.4 2.21479 32.4 2.81479 31.3C3.01479 30.8 3.41479 30.4 3.91479 30.3C5.41479 29.8 6.71479 29.1 8.11479 28.3C9.11479 27.8 10.2148 27.5 11.3148 27.5C12.5148 27.5 13.7148 27.5 14.9148 27.9C15.9148 28.2 16.9148 28.1 18.0148 28.4C18.3148 28.4 18.7148 28.4 19.0148 28.4C19.7148 28.3 20.3148 28.1 21.0148 27.9C21.4148 27.8 21.8148 27.8 22.3148 27.9C23.6148 28.2 24.8148 28.2 26.1148 27.8C26.6148 27.6 27.3148 27.6 27.9148 27.6C29.1148 27.6 30.3148 27.6 31.4148 26.9C32.3148 26.4 33.2148 26.5 34.2148 26.5C34.9148 26.5 35.5148 26.9 36.1148 27.3C36.7148 27.8 37.4148 28.1 38.2148 28.3C38.5148 28.3 38.9148 28.4 39.2148 28.3C40.4148 28 41.6148 28.1 42.8148 28C43.8148 28 44.8148 28 45.9148 27.7C47.0148 27.4 48.1148 27.4 49.2148 27.7C50.2148 28 51.2148 28 52.2148 27.7C52.9148 27.5 53.5148 27.4 54.2148 27.7C55.4148 28.1 56.6148 28.1 57.8148 28.1C59.4148 28.1 61.1148 28.1 62.7148 28C63.3148 28 63.9148 27.9 64.5148 27.7C65.5148 27.3 66.6148 27 67.8148 27.1C68.9148 27.1 69.8148 26.1 69.8148 25.1C69.8148 24.1 70.0148 23 69.6148 22C69.4148 21.4 69.6148 20.8 69.8148 20.3C70.1148 19.8 70.4148 19.2 70.7148 18.7C71.2148 17.9 71.4148 17 71.4148 16C71.4148 15.5 71.4148 15 71.4148 14.5C71.4148 13.6 71.7148 12.8 72.3148 12.1C72.6148 11.7 73.0148 11.4 73.4148 11C73.8148 10.5 74.2148 10.1 74.5148 9.60001C75.2148 8.60001 76.0148 7.80001 77.0148 7.00001C77.6148 6.60001 78.1148 6.20001 78.6148 5.70001C79.3148 5.00001 80.2148 4.40001 81.0148 3.70001C82.1148 2.70001 83.4148 2.30001 84.8148 2.30001C86.7148 2.30001 88.5148 1.90001 90.3148 1.20001C90.6148 1.10001 90.9148 1.00001 91.3148 0.900011C92.1148 0.700011 92.8148 0.700011 93.6148 0.900011C94.7148 1.30001 95.8148 1.80001 97.0148 2.20001C98.1148 2.50001 99.2148 2.60001 100.315 2.80001C100.815 2.90001 101.315 3.10001 101.715 3.40001C102.415 3.80001 103.015 4.20001 103.615 4.70001C104.315 5.30001 105.015 5.70001 105.815 6.10001C106.515 6.40001 107.115 7.00001 107.415 7.70001C107.915 8.70001 108.415 9.70001 108.915 10.7C109.515 12 109.815 13.5 110.115 14.9C110.115 15.1 110.115 15.3 110.115 15.4C109.815 16.3 110.015 17.2 110.215 18.2C110.748 20.0667 110.981 22 110.915 24C110.915 26.2 110.915 26.2 112.515 27.8C113.515 28.9 114.715 29.1 116.015 28.9C116.415 28.9 116.815 28.7 117.315 28.6C117.715 28.5 118.115 28.5 118.615 28.6C120.015 29 121.515 29 122.915 28.6C123.615 28.4 124.315 28.4 124.915 28.6C125.915 28.9 126.915 28.9 127.915 28.6C128.415 28.5 128.915 28.4 129.415 28.4C130.315 28.4 131.115 28.4 132.015 28.4C132.815 28.4 133.515 28.4 134.315 28.7C135.015 29 135.815 28.9 136.615 28.7C137.715 28.4 138.815 28.1 139.915 28C141.615 27.8 143.315 27.6 145.015 28.2C145.615 28.4 146.215 28.4 146.815 28.4C147.315 28.4 147.815 28.4 148.315 28.4C149.815 28.4 151.215 28.2 152.615 27.7C153.115 27.5 153.615 27.4 154.115 27.7C154.915 28 155.815 28 156.615 28C157.615 28 158.715 28 159.715 28.3C160.015 28.4 160.415 28.3 160.715 28.3C161.715 28 162.715 28 163.815 28C164.815 28 165.915 28 166.915 27.6C167.315 27.4 167.715 27.5 168.215 27.6C169.015 27.9 169.915 28 170.715 27.9C171.715 27.9 172.715 28.2 173.815 28.3C174.715 28.3 175.715 28 176.615 28C177.515 28 178.315 28 179.215 28.2C179.915 28.4 180.515 28.4 181.215 28.2C182.315 27.8 183.415 27.9 184.515 28.2C185.815 28.7 187.215 28.9 188.515 28.9C189.015 28.9 189.515 28.9 190.015 28.9C194.315 28.9 198.615 28.9 202.915 28.9C203.615 28.9 204.315 28.9 204.915 28.7C206.115 28.3 207.315 28.4 208.515 28.4C208.915 28.4 209.415 28.4 209.815 28.6C211.215 29.1 212.715 29.1 214.115 28.7C214.515 28.7 215.015 28.4 215.415 28.6C216.215 28.9 216.915 28.9 217.715 28.6C218.415 28.3 219.315 28.3 220.015 28.6C221.015 29 222.015 29 223.115 29C223.415 29 223.815 29 224.115 29C225.115 29 226.015 28.9 226.815 28.4C227.415 28.1 228.115 27.9 228.815 28.2C229.615 28.6 230.515 28.5 231.315 28.5C232.015 28.5 232.715 28.4 233.415 28.5C234.615 28.5 235.815 28.6 237.015 28.1C237.415 27.9 237.815 28 238.315 28C239.215 28 240.215 28 241.115 27.7C241.615 27.5 242.115 27.6 242.615 27.7C243.015 27.8 243.415 27.9 243.815 28.1C245.215 28.7 246.515 28.9 248.015 28.6C248.915 28.4 249.915 28.5 250.815 28.1C251.115 28 251.515 27.9 251.815 27.9C253.315 27.9 254.915 27.8 256.415 28.3C257.015 28.5 257.615 28.4 258.215 28.3C258.615 28.1 259.015 28 259.415 27.9C260.115 27.6 260.915 27.5 261.715 27.7C262.715 27.9 263.715 28.2 264.715 28.4C265.215 28.4 265.715 28.5 266.215 28.6C266.915 28.6 267.615 28.6 268.315 28.6C269.315 28.6 270.415 28.6 271.415 28.9C272.015 29 272.615 29 273.215 29C274.015 29 274.715 28.7 275.315 28.2C275.815 27.8 276.215 27.3 276.215 26.7C276.215 25.2 276.415 23.8 276.215 22.3C275.715 21.4 276.115 20.6 276.515 19.9C278.115 16.9 277.815 17.2 277.815 14.5C277.815 14.2 277.815 14 277.815 13.7C277.815 13.2 278.015 12.7 278.415 12.3C278.715 12 279.015 11.7 279.315 11.4C280.015 10.7 280.615 10 281.115 9.20001C281.615 8.40001 282.315 7.70001 283.115 7.20001C284.315 6.40001 285.315 5.50001 286.215 4.50001C287.315 3.30001 288.715 2.70001 290.215 2.40001C290.715 2.30001 291.215 2.30001 291.715 2.30001C293.415 2.30001 294.915 1.90001 296.415 1.20001C297.115 0.900012 297.915 0.700012 298.615 0.700012C299.015 0.700012 299.415 0.900011 299.915 0.900011C299.915 0.900011 300.115 0.900011 300.115 1.00001C301.915 1.90001 303.815 2.40001 305.815 2.60001C306.515 2.70001 307.115 2.90001 307.715 3.40001C308.215 3.80001 308.715 4.10001 309.215 4.40001C309.715 4.90001 310.315 5.20001 310.915 5.50001C312.315 6.20001 313.215 7.20001 313.815 8.60001C314.015 9.00001 314.115 9.40001 314.415 9.70001C315.115 10.6 315.415 11.7 315.715 12.7C315.915 13.5 316.115 14.4 316.015 15.2C316.015 16.5 316.015 17.8 316.615 19C316.915 19.8 317.115 20.7 317.015 21.5C317.015 22.6 317.015 23.7 317.015 24.9C317.015 25.9 317.015 27 317.015 28C317.015 28.5 317.415 29 317.815 29.2C318.415 29.6 319.115 29.8 319.815 29.7C320.015 29.7 320.215 29.7 320.315 29.7C322.315 29.2 324.415 29.4 326.515 29.3C328.215 29.3 329.915 29.3 331.715 29.3C333.115 29.3 334.515 29.3 335.815 29.7C336.615 29.9 337.315 29.9 338.115 29.7C338.715 29.6 339.315 29.5 339.915 29.3C341.515 28.8 343.115 28.8 344.815 28.8C346.115 28.8 347.415 28.8 348.615 28.4C349.315 28.2 350.015 28.3 350.615 28.5C351.115 28.7 351.615 28.8 352.115 29C352.815 29.2 353.415 29.3 354.115 29C355.615 28.6 357.215 28.7 358.715 29C359.315 29 359.915 29.2 360.515 29.2C361.615 29.2 362.715 29.2 363.815 29.6C364.515 29.8 365.215 29.8 365.815 29.6C367.815 29.1 369.715 29.3 371.715 29.4C373.315 29.4 374.415 30.4 375.215 31.7C375.515 32.1 375.615 32.6 375.815 33.1C376.015 33.6 376.115 34.1 376.315 34.5C376.715 35.4 376.915 36.3 376.815 37.3C376.815 38.3 376.815 39.2 377.115 40.1C377.415 41.3 377.415 42.5 377.115 43.7C376.815 44.5 376.715 45.4 376.815 46.2C376.815 47.5 376.815 48.7 376.515 50C376.115 51.2 376.315 52.6 376.015 53.8C376.015 54.1 376.015 54.5 376.015 54.8C376.315 56.5 376.815 58.1 376.915 59.9C376.915 60.3 377.115 60.7 377.215 61.1C377.415 62 377.415 63 377.115 63.9C376.815 64.7 376.515 65.5 376.215 66.3C376.015 66.8 375.915 67.3 375.915 67.8C375.915 69.4 375.915 70.9 376.615 72.4C377.015 73.2 377.015 74.1 377.015 74.9C377.015 75.2 377.015 75.4 377.015 75.7C377.015 76.8 377.015 77.9 377.415 79C377.615 79.5 377.615 80 377.415 80.5C377.115 81.3 377.115 82.2 377.015 83C376.815 84.4 376.615 85.7 376.215 87C375.915 88.2 375.915 89.4 376.115 90.6C376.315 91.6 376.415 92.6 376.515 93.7C376.515 94 376.515 94.4 376.715 94.7C376.915 95.5 377.315 96.1 378.115 96.4C379.015 96.8 379.815 97.2 380.515 97.9C380.915 98.3 381.515 98.6 382.015 98.8C383.515 99.5 385.015 100 386.615 100.4C387.215 100.5 387.715 100.7 388.215 101.1C389.015 101.7 390.015 102.2 390.815 102.8C391.915 103.7 393.215 104.2 394.415 104.8C394.615 104.9 394.915 105 395.115 105C396.415 105.2 397.015 105 397.815 103.9C398.115 103.4 398.415 102.8 398.615 102.3C399.015 101.1 399.515 99.9 400.015 98.7C400.515 97.5 400.815 96.3 400.715 94.9C400.715 94.6 400.715 94.2 400.715 93.9C400.715 93.2 400.815 92.5 401.215 91.9C402.415 89.5 402.415 89.9 402.315 86.7C402.315 85.4 402.315 84.1 402.315 82.8C402.315 82.3 402.315 81.8 402.415 81.3C403.015 79 402.715 76.7 402.815 74.4C402.815 74 402.715 73.5 402.615 73.1C402.515 72.7 402.615 72.3 402.615 71.8C402.715 71.2 402.815 70.6 402.815 70C402.815 68.5 402.815 66.9 402.815 65.4C402.815 64.9 402.615 64.4 402.515 63.9C402.315 63.2 402.215 62.5 402.315 61.9C402.315 61.3 402.415 60.7 402.715 60.1C402.815 59.9 402.915 59.6 403.015 59.4C403.615 58.2 404.015 57.1 403.815 55.7C403.715 54.8 404.115 54.1 404.615 53.3C405.415 52.1 406.515 51.1 407.515 50C408.315 49.1 409.315 49.1 410.315 49.4C410.715 49.5 411.115 49.8 411.515 49.9C413.015 50.4 414.315 51.2 415.915 51.4C416.415 51.4 416.715 52 416.815 52.5C416.815 52.5 416.815 52.7 416.815 52.8C416.815 55.8 416.815 58.8 416.815 61.8C416.815 63.8 416.815 65.8 416.815 67.7C416.815 69.6 416.815 71.5 416.815 73.4C416.815 75.5 416.815 77.5 416.815 79.6C416.815 80.9 417.015 82.2 417.615 83.3C418.215 84.5 418.615 85.9 419.015 87.2C419.215 87.9 419.315 88.5 419.015 89.2C419.015 89.4 418.915 89.7 418.815 90C418.715 90.8 418.815 91.5 419.015 92.3C419.515 93.8 420.215 95.4 420.315 97C420.315 97.3 420.515 97.7 420.615 98C420.815 98.5 421.115 99.1 421.415 99.6C422.215 101 422.915 102.5 423.415 104C424.115 105.8 425.015 107.4 426.115 109C426.715 109.9 427.515 110.8 428.515 111.4C430.515 112.6 432.215 114.2 433.915 115.8C434.515 116.4 435.115 116.8 435.915 117C436.415 117.1 436.915 117.3 437.415 117.5C438.615 117.9 439.615 118.3 440.515 119.3C441.315 120.2 442.315 120.6 443.415 120.9C444.515 121.2 445.415 121.8 446.315 122.4C447.715 123.4 449.215 124.3 450.815 124.8C451.715 125.1 452.515 125.6 453.415 126C453.915 126.2 454.315 126.5 454.815 126.6C456.715 126.7 458.415 127.8 460.315 127.9C460.715 127.9 461.115 128.1 461.515 128.3C462.515 128.6 463.515 128.8 464.515 128.9C465.815 129 467.015 129.3 468.315 129.6C468.715 129.6 469.115 129.9 469.515 130.2C469.815 130.4 470.015 130.6 470.315 130.8C472.215 132.5 472.315 132.7 472.315 135.2C472.315 136.5 472.015 137.8 471.615 139C471.215 140 470.615 140.8 469.715 141.4C469.415 141.6 469.115 141.7 468.815 141.8C467.015 142.4 465.115 142.8 463.315 143.2C462.715 143.3 462.115 143.2 461.515 143.2C460.715 143.2 460.015 143.4 459.315 143.8C458.715 144.1 458.115 144.5 457.515 144.9C456.315 145.7 455.015 146.3 453.515 146.5C452.115 146.7 450.715 147.2 449.215 147.5C449.015 147.5 448.715 147.7 448.515 147.8C447.515 148.6 446.315 148.8 445.115 148.9C443.615 149.1 442.515 149.8 441.615 150.9C441.215 151.3 441.215 151.9 441.415 152.4C442.015 153.8 442.615 155.2 442.915 156.8C443.315 157.6 443.615 158.6 444.215 159.3C445.415 161 446.115 162.9 446.915 164.9C447.715 167 448.415 169.1 449.215 171.2C450.015 173.1 450.715 175.1 451.415 177C451.415 177.2 451.615 177.5 451.615 177.7C452.015 179.2 452.315 180.7 453.015 182.1C453.315 182.8 453.515 183.6 453.515 184.3C453.515 185 453.815 185.6 453.815 186.3C453.815 187.1 453.915 187.8 454.015 188.6C454.015 189.4 454.015 190.1 454.315 190.9C454.515 191.4 454.515 191.9 454.615 192.4C454.915 194.4 455.315 196.3 456.215 198.1C456.515 198.6 456.715 199.2 456.715 199.8C456.715 201.2 457.115 202.5 457.515 203.8C457.715 204.6 457.815 205.3 457.515 206.1C457.115 206.9 457.115 207.8 457.115 208.6C457.115 210 457.315 211.4 456.715 212.7C456.515 214.5 456.515 216.3 456.915 218.1C457.315 219.8 457.315 221.5 456.915 223.2C456.815 223.7 456.715 224.2 456.915 224.7C457.215 225.5 457.115 226.4 457.215 227.3C457.215 228.3 457.215 229.2 456.715 230C456.315 230.7 456.215 231.5 456.215 232.2C456.215 233.8 456.215 235.5 455.815 237.1C455.715 237.4 455.715 237.8 455.715 238.1C455.715 239.6 455.415 241 455.015 242.4C454.815 243.2 454.615 244.1 454.615 244.9C454.615 245.9 454.415 246.8 454.115 247.7C453.915 248.4 453.715 249.2 453.515 249.9C453.215 250.9 453.015 251.9 453.115 252.9C453.115 253.7 453.015 254.4 452.615 255.1C452.515 255.3 452.315 255.6 452.315 255.8C452.115 257.2 451.515 258.4 450.715 259.5C450.415 260 450.215 260.6 450.115 261.2C450.015 261.9 449.715 262.5 449.415 263.1C448.515 264.8 447.915 266.6 447.515 268.4C447.115 270 446.515 271.5 445.615 272.9C445.015 273.7 444.415 274.6 444.315 275.7C444.315 276.4 443.815 277 443.415 277.5C442.915 278.1 442.615 278.8 442.315 279.6C442.015 280.3 441.715 281 441.415 281.7C441.215 282.2 441.015 282.7 440.915 283.2C440.815 284.3 440.315 285.1 439.715 286C439.015 287.1 438.415 288.2 437.715 289.3C436.915 290.6 436.315 292.1 436.215 293.6C436.215 294.4 435.815 295.1 435.215 295.6C433.515 297.1 432.615 299 432.215 301.2C432.015 302.3 431.515 303.3 430.915 304.3C430.515 304.9 430.015 305.4 429.515 305.9C428.915 306.5 428.415 307.2 428.215 308.1C427.915 309.2 427.415 310.2 426.715 311.1C426.115 311.9 425.615 312.9 424.915 313.6C424.615 313.9 424.415 314.3 424.215 314.7C423.215 316.6 421.915 318.3 420.715 320.1C420.315 320.8 419.815 321.3 419.115 321.8C418.315 322.3 417.815 322.9 417.315 323.7C416.915 324.4 416.415 325 416.015 325.6C415.615 326.2 415.215 326.8 415.015 327.4C414.715 328.3 414.115 329.1 413.615 329.9C413.315 330.3 413.015 330.7 412.515 331C410.915 332 409.715 333.5 408.315 334.8C408.215 334.9 408.115 335 408.015 335.2C406.515 337.4 404.515 339.2 402.415 340.9C401.615 341.5 400.915 342.3 400.215 343C399.215 344 398.115 345.1 397.115 346.1C396.315 346.9 395.515 347.7 394.615 348.3C394.215 348.5 393.915 348.8 393.615 349.1C393.015 349.7 392.515 350.1 391.715 350.5C390.915 350.9 390.215 351.4 389.715 352C389.415 352.3 389.115 352.6 388.815 352.9C388.015 353.8 387.015 354.5 385.915 355C383.915 355.8 382.215 357.2 380.315 358.1C379.915 358.3 379.615 358.6 379.315 358.9C378.715 359.4 378.215 360 377.615 360.5C376.215 361.9 376.115 362.1 376.215 364.2C376.215 365.3 376.215 366.4 376.515 367.5C376.615 368 376.615 368.5 376.715 369C376.915 371.1 376.815 373.3 376.815 375.4C376.815 376.3 376.815 377.1 377.115 377.9C377.515 379.2 377.415 380.6 377.215 382C377.115 382.8 376.815 383.5 376.515 384.2C376.315 384.7 376.315 385.2 376.515 385.7C376.815 386.4 376.815 387 376.815 387.7C376.815 388.6 376.815 389.4 376.815 390.3C376.815 390.8 376.815 391.3 376.815 391.8C376.815 392.9 377.415 393.9 377.115 395.1C376.915 396.1 377.015 397.1 376.915 398.2C376.915 398.7 376.815 399.2 376.615 399.7C376.315 400.7 376.315 401.7 376.815 402.7C377.315 403.6 377.515 404.6 377.415 405.7C377.415 407.2 377.415 408.6 377.015 410.1C377.015 410.3 377.015 410.6 377.015 410.9C377.015 412.7 376.715 414.5 376.615 416.3C376.515 417.7 376.115 419 375.615 420.3C375.515 420.6 375.315 420.9 375.215 421.2C374.715 422.8 373.715 423.8 372.315 424.7C371.815 425 371.315 425.4 370.715 425.6C369.815 426 368.915 426.2 367.915 426.1C366.815 426.1 365.715 426 364.615 426.5C363.915 426.5 363.215 426.7 362.515 426.6C360.915 426.5 359.215 426.6 357.615 426.6C356.415 426.6 355.215 426.6 354.015 426.3C353.315 426.1 352.615 426.1 352.015 426.5C350.815 427.1 349.615 427.3 348.315 427.3C344.315 427.3 340.215 427.3 336.215 427.2C335.015 427.2 333.815 427.2 332.615 426.8C330.615 426.6 328.715 426.4 326.715 427C326.115 427.2 325.515 427.2 324.915 427C324.215 426.8 323.615 426.6 322.915 426.6C321.515 426.6 320.215 426.6 318.815 426.2C318.215 426 317.415 426.2 316.815 426.2C316.115 426.4 315.415 426.5 314.815 426.7C314.015 427 313.115 427.1 312.315 426.7C311.815 426.5 311.315 426.7 310.815 426.7C309.415 427.1 307.915 427.1 306.515 426.7C304.315 426.2 302.115 426.1 299.915 426.7C299.215 426.9 298.515 427 297.915 426.7C296.915 426.3 295.915 426.3 294.915 426.3C294.015 426.3 293.015 426.3 292.115 426C291.415 425.8 290.715 425.9 290.115 426C289.415 426.1 288.815 426.3 288.115 426.3C287.215 426.3 286.215 426.4 285.315 426.7C284.715 426.9 284.115 426.8 283.515 426.9C282.815 426.9 282.115 426.9 281.515 426.5C280.215 425.9 278.915 425.7 277.515 425.8C274.815 425.8 272.215 425.8 269.515 425.8C269.215 425.8 268.815 425.8 268.515 425.8C267.115 426.2 265.615 426.1 264.115 426.1C263.615 426.1 263.115 426.1 262.615 426.1C261.715 426.1 260.915 426.2 260.115 426.6C258.915 427.2 257.615 427.3 256.415 426.8C256.115 426.7 255.715 426.6 255.415 426.6C253.815 426.6 252.115 426.6 250.515 426.8C249.515 426.9 248.515 427 247.415 427.1C246.315 427.2 245.315 427.1 244.415 426.4C242.815 425.3 241.015 425.4 239.215 425.7C236.415 426.2 234.215 426.2 231.515 425.7C229.815 425.4 228.115 425.3 226.415 425.7C226.015 425.8 225.515 425.9 225.115 425.7C224.415 425.5 223.815 425.4 223.115 425.4C221.815 425.4 220.515 425.4 219.215 425.4C217.715 425.4 216.315 425.4 214.815 425.4C213.415 425.4 212.015 425.4 210.715 425.4C209.315 425.4 207.915 425.4 206.615 425.4C205.615 425.4 204.515 425.7 203.515 425.7C202.515 425.7 201.515 425.3 200.415 425.3C197.815 425.3 195.215 425.3 192.715 425.3C192.115 425.3 191.515 425.3 190.915 425.5C190.015 425.7 189.215 425.7 188.415 425.5C186.615 425.1 184.815 425.1 183.015 425.5C182.215 425.7 181.515 425.7 180.715 425.5C179.515 425.2 178.315 425.2 177.115 425.5C176.615 425.6 176.115 425.6 175.615 425.7C175.015 425.7 174.415 425.7 173.815 425.7C172.915 425.7 172.115 425.7 171.315 426.2C170.515 426.6 169.715 426.8 168.815 426.8C168.115 426.8 167.415 426.8 166.815 427.1C166.115 427.3 165.415 427.1 164.815 426.9C163.715 426.4 162.715 425.8 161.515 425.5C160.915 425.4 160.315 425.2 159.715 425.5C157.815 426.1 155.915 425.8 154.115 425.6C153.215 425.6 152.415 425.4 151.515 425.4C150.015 425.4 148.415 425.4 146.915 424.9C145.915 424.6 144.815 424.7 143.815 424.9C142.615 425.2 141.415 425.3 140.215 425.2C138.715 425.2 137.315 425.3 135.915 425.9C134.415 426.5 132.915 426.5 131.415 425.9C130.015 425.3 128.615 425.2 127.115 425.2C126.115 425.2 125.215 425.4 124.315 425.7C122.315 426.6 120.315 426.6 118.315 425.9C117.915 425.8 117.515 425.7 117.115 425.5C116.615 425.3 116.115 425.3 115.615 425.5C114.715 425.8 113.715 425.7 112.815 425.7C110.915 425.7 109.015 425.7 107.115 425.7C106.515 425.7 105.915 425.7 105.315 425.5C104.615 425.2 103.815 425.2 103.015 425.2C102.215 425.2 101.515 425.2 100.715 425.2C98.9148 425.2 97.1148 425.2 95.4148 426C94.7148 426.3 94.1148 426.3 93.4148 426C92.7148 425.8 92.1148 425.7 91.4148 425.5C90.6148 425.3 89.9148 425.2 89.1148 425.2C87.7148 425.2 86.3148 425.2 85.0148 425.2C84.5148 425.2 84.0148 425.2 83.5148 425.4C82.1148 425.8 80.8148 425.8 79.4148 425.4C78.6148 425.1 77.9148 425.1 77.1148 425.1C76.0148 425.1 74.9148 425.1 73.8148 424.8C73.3148 424.6 72.6148 424.6 72.0148 424.8C70.6148 425.3 69.1148 425.2 67.7148 425.1C67.5148 425.1 67.4148 425.1 67.2148 425.1C65.7148 425 64.3148 425.1 62.9148 425.7C61.4148 426.3 59.9148 426.2 58.3148 426.1C57.9148 426.1 57.5148 425.9 57.1148 425.6C56.2148 425.1 55.3148 425 54.4148 425C53.9148 425 53.4148 425 52.9148 425C52.4148 425 51.9148 425 51.4148 424.8C48.6148 424.2 45.9148 424.4 43.3148 425.3C42.7148 425.5 42.2148 425.7 41.6148 425.9C40.8148 426.2 39.9148 426.2 39.0148 426.1C38.7148 426.1 38.3148 425.9 38.1148 425.7C36.7148 424.6 35.2148 424.4 33.5148 425C32.8148 425.2 32.0148 425.3 31.2148 425.5C30.8148 425.5 30.3148 425.6 29.9148 425.6C27.8148 425.6 25.8148 425.6 23.7148 425.6C22.7148 425.6 21.8148 425.6 20.9148 426C19.7148 426.4 18.3148 426.4 17.1148 426C15.4148 425.3 13.6148 425.2 11.8148 425.2C9.11479 425.2 9.61479 425.4 7.11479 424.1C6.31479 423.7 5.61479 423.3 4.81479 422.9C4.51479 422.7 4.31479 422.4 4.21479 422.1C4.01479 421.6 3.81479 421.1 3.71479 420.6C3.61479 419.7 3.41479 418.7 3.11479 417.8C3.01479 417.3 3.01479 416.8 3.01479 416.3C3.01479 415.4 3.01479 414.4 3.01479 413.5C3.01479 412.9 3.01479 412.3 2.91479 411.7C2.61479 410.8 2.61479 409.8 2.61479 408.9C2.61479 408.1 2.61479 407.4 2.61479 406.6C2.61479 405.3 2.61479 404 2.91479 402.8C3.11479 402 3.11479 401.3 2.91479 400.5C2.71479 399.8 2.71479 399.2 2.71479 398.5C2.71479 396.9 2.71479 395.2 2.71479 393.6C2.71479 392.4 2.21479 391.2 2.31479 390C2.31479 388.9 2.81479 387.8 2.81479 386.7C2.81479 384.3 2.81479 381.9 2.81479 379.5C2.81479 379.2 2.81479 378.8 2.81479 378.5C2.41479 377.2 2.51479 375.9 2.51479 374.7C2.51479 372.6 2.51479 370.6 2.51479 368.5C2.51479 367.6 2.51479 366.8 2.91479 366C3.01479 365.7 3.11479 365.3 3.21479 365C3.51479 364.2 3.61479 363.3 3.21479 362.5C2.91479 361.6 2.91479 360.7 3.21479 359.7C3.51479 358.7 3.51479 357.7 3.81479 356.7C4.01479 356 3.91479 355.2 3.81479 354.4C3.51479 352.7 3.01479 351.1 2.91479 349.3C2.91479 349.3 2.91479 349.1 2.91479 349C2.21479 347.5 2.51479 346 3.01479 344.5C3.51479 342.8 3.51479 341.1 3.01479 339.4C3.01479 339.1 3.01479 338.7 2.81479 338.4C2.31479 337.1 2.31479 335.9 2.81479 334.6C3.01479 334.1 2.91479 333.6 3.01479 333.1C3.01479 331.7 3.01479 330.3 3.01479 329C3.01479 328.5 3.01479 327.9 3.21479 327.5C3.51479 326.6 3.31479 325.8 2.91479 325C2.51479 324.3 2.41479 323.5 2.51479 322.8C2.61479 321.3 2.51479 319.7 2.91479 318.2C3.11479 317.2 3.11479 316.1 3.11479 315.1C3.11479 313.9 3.11479 312.7 3.11479 311.5C3.11479 310.9 3.01479 310.3 2.81479 309.7C2.61479 309 2.61479 308.4 2.81479 307.7C3.01479 307.2 3.01479 306.7 3.21479 306.2C3.51479 305.2 3.61479 304.2 3.21479 303.2C2.91479 302.2 3.01479 301.2 3.21479 300.1C3.51479 298.7 3.51479 297.4 3.21479 296C2.91479 294.7 2.91479 293.4 3.21479 292.2C3.41479 291.5 3.51479 290.8 3.21479 290.2C2.91479 289.5 2.91479 288.7 2.91479 287.9C2.91479 284.5 2.91479 281.2 2.91479 277.8C2.91479 277.1 2.91479 276.4 2.91479 275.7C2.91479 274.7 3.01479 273.6 2.91479 272.6C2.81479 269.7 2.81479 266.8 2.91479 263.8C2.91479 263.2 2.91479 262.6 2.91479 262C2.91479 261.1 2.71479 260.3 2.31479 259.5C2.21479 259.3 2.11479 259 2.01479 258.8C1.71479 258 1.71479 257.1 2.01479 256.3C2.31479 255.8 2.61479 255.2 2.81479 254.7C3.11479 254.2 3.21479 253.6 3.21479 253C3.21479 251.4 3.21479 249.7 3.21479 248.1C3.21479 247.6 3.11479 247.1 2.91479 246.6C2.61479 245.6 2.61479 244.6 2.91479 243.6C3.01479 243.2 3.11479 242.8 3.31479 242.4C3.61479 241.5 3.71479 240.5 3.41479 239.6C3.11479 238.5 3.11479 237.4 2.71479 236.3C2.41479 235.4 2.51479 234.4 2.71479 233.5C3.31479 231.9 3.01479 230.3 3.01479 228.6C3.01479 228.3 2.91479 227.9 2.81479 227.6C2.61479 227 2.41479 226.5 2.21479 225.9C1.81479 224.7 1.81479 223.6 2.21479 222.4C3.01479 219.9 3.01479 219.9 2.41479 217.4C2.41479 217.1 2.21479 216.7 2.11479 216.4C2.11479 216.1 2.11479 215.7 2.11479 215.4C2.11479 215.2 2.21479 215.1 2.31479 214.9C3.21479 213.3 3.11479 211.6 2.81479 209.9C2.71479 209.1 2.51479 208.4 2.21479 207.7C1.91479 206.8 1.81479 205.9 1.81479 204.9C1.81479 203.7 1.81479 202.5 1.81479 201.3C1.81479 201 1.81479 200.6 1.81479 200.3C2.01479 198.6 1.81479 197.4 1.81479 195.8C1.81479 194.1 1.51479 192.4 2.11479 190.7C2.31479 190.1 2.31479 189.5 2.31479 188.9C2.31479 187.3 2.31479 185.6 1.91479 184C1.71479 183.4 1.91479 182.8 1.91479 182.2C2.41479 180.6 2.41479 179 1.91479 177.4C1.61479 176.6 1.51479 175.7 1.91479 174.9C2.21479 174.2 2.31479 173.4 2.31479 172.6C2.31479 172.2 2.41479 171.7 2.51479 171.3C2.81479 170.3 2.81479 169.3 2.51479 168.2C2.31479 167.4 2.31479 166.7 2.31479 165.9C2.31479 164.7 2.91479 163.5 2.31479 162.3C2.31479 161.1 2.31479 159.9 2.31479 158.7C2.31479 157.8 2.31479 156.8 2.31479 155.9C2.31479 155.1 2.31479 154.4 2.01479 153.6C1.71479 152.9 1.71479 152.3 1.81479 151.6C1.81479 150.5 1.81479 149.4 2.11479 148.3C2.21479 147.9 2.21479 147.5 2.21479 147C2.21479 145.9 2.21479 144.8 2.31479 143.6C2.31479 142.8 2.31479 142.1 2.01479 141.3C1.71479 140.6 1.71479 140 2.01479 139.3C2.11479 138.9 2.21479 138.5 2.31479 138C2.31479 136.3 2.31479 134.6 2.31479 132.8C2.31479 131.5 2.31479 130.2 1.91479 129C1.71479 128.3 1.71479 127.4 1.91479 126.7C2.21479 125.6 2.31479 124.5 1.91479 123.4C1.81479 123 1.81479 122.5 1.91479 122.1C2.41479 120.2 2.31479 118.2 2.31479 116.2C2.31479 114.9 2.21479 113.6 2.71479 112.4C2.91479 111.8 2.81479 111.2 2.71479 110.6C2.38146 109.067 2.38146 107.533 2.71479 106L1.91479 107.6ZM356.515 128C356.815 128 357.215 128 357.515 128C359.415 128 361.315 127.8 363.115 127.3C363.915 127.1 364.615 127 365.415 126.9C366.715 126.7 367.915 126.4 369.215 126.4C369.515 126.4 369.715 126.4 370.015 126.2C370.915 126 371.815 125.7 372.715 125.5C373.815 125.3 374.815 124.9 375.715 124.2C376.115 123.9 376.615 123.7 377.015 123.4C377.915 122.9 378.815 122.4 379.615 121.7C380.515 120.9 381.515 120.3 382.615 119.8C383.415 119.4 384.115 118.9 384.715 118.4C385.015 118.2 385.015 117.8 385.015 117.5C385.015 117 384.815 116.6 384.515 116.4C383.815 115.9 383.115 115.5 382.315 115C381.315 114.4 380.315 114 379.115 114C378.415 114 377.715 113.8 377.215 113.2C376.415 112.3 375.515 111.8 374.515 111.3C373.915 111 373.315 110.6 372.715 110.3C371.715 109.7 370.715 109.2 369.615 109.3C368.415 109.3 367.415 108.9 366.515 108.2C365.715 107.7 364.915 107.2 364.015 106.8C362.515 106.2 360.915 105.8 359.315 105.6C357.815 105.4 356.415 105.1 355.015 104.6C354.415 104.4 353.915 104.2 353.315 104.1C351.515 103.9 349.815 103.4 348.115 102.8C347.315 102.6 346.615 102.4 345.815 102.4C345.515 102.4 345.315 102.4 345.015 102.4C344.115 102.4 343.315 102.3 342.515 101.9C341.915 101.6 341.215 101.4 340.615 101.2C340.215 101.1 339.815 101 339.315 101C336.615 101 334.015 101 331.315 101C329.615 101 327.915 101 326.115 101C325.315 101 324.615 101 323.815 101.2C322.015 101.6 320.315 101.9 318.415 101.9C317.115 101.9 315.815 101.9 314.615 102.4C314.415 102.4 314.115 102.5 313.815 102.5C312.715 102.5 311.615 102.8 310.515 103.1C309.615 103.3 308.715 103.6 307.715 103.5C305.615 103.3 303.615 104 301.615 104.4C300.915 104.5 300.315 104.8 299.715 105.2C298.215 106.2 296.515 106.6 294.815 106.6C293.615 106.6 292.415 106.9 291.315 107.3C290.415 107.6 289.515 108 288.615 108.2C287.415 108.5 286.415 109.1 285.515 110C284.315 111.2 282.815 111.9 281.115 111.9C280.715 111.9 280.215 111.9 279.815 111.9C278.915 111.9 278.115 112.2 277.415 112.6C275.715 113.8 273.815 114.6 271.915 115.5C271.115 115.9 270.415 116.3 269.815 117C268.915 118 267.815 118.7 266.815 119.4C265.915 120 265.015 120.5 264.215 121C263.715 121.3 263.215 121.7 262.815 122.1C262.215 122.7 261.615 123.3 261.015 123.9C260.415 124.5 259.615 124.9 258.915 125.4C258.215 126 257.415 126.5 256.515 126.9C255.615 127.3 254.915 127.8 254.215 128.5C252.715 130.1 251.015 131.4 249.215 132.6C248.215 133.3 247.315 134.1 246.615 135.1C246.015 136 245.315 136.7 244.615 137.4C243.515 138.5 242.415 139.6 241.315 140.7C240.915 141.1 240.615 141.4 240.315 141.9C238.915 143.9 237.215 145.8 235.715 147.8C235.215 148.4 234.815 149.1 234.615 149.8C234.315 151 233.515 151.9 233.015 153C232.415 154.1 231.715 155 230.815 155.8C230.215 156.3 229.915 157 229.715 157.8C229.515 159.2 229.015 160.4 227.815 161.3C227.815 161.3 227.715 161.4 227.615 161.5C227.115 162 226.715 162.5 226.715 163.3C226.715 164.1 226.315 164.8 225.815 165.4C225.515 165.8 225.215 166.3 225.015 166.7C224.415 167.7 224.015 168.7 224.115 169.9C224.115 170.6 223.815 171.2 223.415 171.8C223.215 172.2 222.915 172.5 222.615 172.8C221.615 173.9 220.915 175.2 220.515 176.6C220.215 177.5 219.915 178.4 219.515 179.3C218.815 181.2 218.215 183 218.415 185.1C218.415 185.8 218.315 186.4 217.915 187C217.515 187.6 217.115 188.3 216.815 189C216.615 189.4 216.515 189.8 216.515 190.2C216.515 191.8 215.915 193.2 216.015 194.8C216.015 195.4 215.715 196 215.515 196.5C215.115 197.2 215.015 198 215.015 198.8C215.015 199.4 215.015 200 215.015 200.6C215.015 201.2 215.015 201.8 214.815 202.4C214.615 203.2 214.515 204.1 214.515 205C214.515 206.3 214.515 207.6 214.115 208.8C213.915 209.3 214.015 209.8 213.915 210.3C213.915 211.4 213.915 212.5 213.915 213.7C213.915 214.7 213.915 215.8 213.515 216.8C213.315 217.2 213.415 217.6 213.515 218.1C214.015 219.4 214.015 220.6 213.515 221.9C213.315 222.6 213.315 223.2 213.515 223.9C214.115 225.4 214.315 227 214.315 228.7C214.315 229.5 214.315 230.2 214.315 231C214.315 232.3 214.715 233.5 214.915 234.8C214.915 235.2 215.215 235.6 215.415 236C215.615 236.4 215.915 236.7 216.115 237.1C216.615 237.8 216.815 238.6 216.815 239.5C216.815 240.4 216.815 241.4 216.815 242.3C216.815 243.4 216.915 244.3 217.515 245.3C218.215 246.3 218.515 247.5 218.415 248.7C218.415 249.5 218.615 250.2 219.015 250.9C219.215 251.4 219.515 251.8 219.815 252.2C220.315 252.8 220.515 253.6 220.515 254.4C220.515 255.3 220.515 256.1 221.015 256.9C222.015 258.5 222.915 260.2 223.315 262C223.315 262.3 223.615 262.6 223.715 262.9C224.415 264.1 224.815 265.4 225.115 266.8C225.215 267.3 225.415 267.8 225.615 268.3C226.315 269.7 227.215 270.9 227.715 272.4C227.715 272.6 227.915 272.9 228.115 273C229.315 274.3 230.015 275.9 230.915 277.3C231.515 278.4 232.215 279.3 233.415 279.8C233.615 279.8 233.715 280 233.915 280C234.715 280.4 235.215 281 235.515 281.9C235.915 283.2 236.515 284.3 237.415 285.2C238.115 285.9 238.615 286.7 239.115 287.5C239.815 288.7 240.715 289.7 241.715 290.6C242.415 291.2 243.115 291.9 243.415 292.8C243.815 293.9 244.615 294.7 245.715 295.2C246.715 295.7 247.615 296.4 248.415 297.2C248.915 297.8 249.415 298.4 250.115 298.8C251.315 299.5 252.015 300.6 252.515 301.8C252.915 302.7 253.415 303.5 254.215 304C255.215 304.6 256.015 305.4 256.715 306.2C257.415 306.9 258.115 307.4 259.015 307.8C260.515 308.3 261.815 309 263.115 309.9C264.015 310.5 265.015 311 266.215 311.2C267.015 311.3 267.715 311.6 268.415 311.9C269.315 312.3 270.315 312.8 271.315 312.7C271.515 312.7 271.615 312.7 271.815 312.8C273.015 313.5 274.215 314.2 275.015 315.4C275.615 316.5 276.515 317.3 277.415 318.1C278.315 319 279.115 319.7 280.415 320.1C280.915 320.2 281.315 320.5 281.715 320.9C282.615 321.6 283.615 321.9 284.815 322C286.215 322 287.515 322.5 288.715 323.3C289.315 323.7 289.915 324 290.515 324.4C291.315 324.8 292.115 325.1 293.015 325.1C294.315 325.1 295.615 325.5 296.715 326.2C298.115 327 299.615 327.3 301.115 327.2C301.415 327.2 301.815 327.2 302.115 327.2C304.415 327 306.615 327.4 308.715 328.2C309.915 328.7 311.215 328.9 312.415 329.1C313.215 329.2 313.915 329.4 314.615 329.7C315.715 330.1 316.915 330.3 318.115 330.3C321.815 330.3 325.515 330.3 329.215 330.2C330.115 330.2 331.115 330.2 332.015 329.9C333.215 329.6 334.415 329.5 335.615 329.9C337.215 330.4 338.615 330.3 340.215 329.9C340.515 329.8 340.915 329.8 341.215 329.7C342.015 329.4 342.715 329.4 343.515 329.7C344.315 330 345.015 329.9 345.815 329.7C348.215 328.9 350.615 328.4 353.115 328C353.715 327.9 354.315 327.7 354.815 327.5C355.615 327.1 356.415 327 357.315 326.9C358.715 326.9 360.015 326.5 361.215 325.6C361.715 325.2 362.415 324.8 363.115 324.8C364.015 324.8 364.815 324.5 365.615 324.2C366.215 324 366.815 323.8 367.315 323.8C368.415 323.8 369.315 323.5 370.315 323C370.915 322.7 371.615 322.5 372.315 322.4C373.715 322.2 374.915 321.6 376.115 320.9C377.015 320.4 377.915 319.8 378.715 319.3C380.115 318.4 381.515 317.6 383.115 317.1C384.815 316.5 386.215 315.7 387.415 314.3C387.515 314.2 387.615 314.1 387.815 313.9C388.615 313 389.615 312.4 390.915 312.3C391.615 312.3 392.315 312.1 392.815 311.6C394.015 310.7 395.315 310 396.315 308.9C397.515 307.6 398.915 306.6 400.415 305.8C401.515 305.2 402.415 304.4 402.915 303.3C403.215 302.7 403.615 302.1 404.215 301.8C405.715 301 407.015 299.8 408.215 298.5C409.815 296.9 411.315 295.3 412.915 293.7C413.515 293.1 413.915 292.5 414.315 291.8C414.615 291.1 415.115 290.5 415.715 290C415.915 289.8 416.215 289.5 416.415 289.3C417.615 288.1 418.915 286.9 419.615 285.3C419.715 285.1 419.915 284.9 420.015 284.7C421.615 282.9 422.615 280.6 424.115 278.8C424.215 278.7 424.315 278.5 424.315 278.3C425.415 276.5 426.415 274.8 427.815 273.2C428.315 272.6 428.815 272 429.115 271.3C429.915 269.8 430.615 268.2 431.215 266.6C431.515 265.8 431.915 265 432.515 264.4C433.315 263.7 433.715 262.8 433.915 261.7C434.015 261.2 434.215 260.7 434.415 260.2C435.515 257.5 436.415 254.7 437.015 251.9C437.515 249.9 438.315 248 439.215 246.2C439.815 245.1 440.215 244 440.115 242.8C440.115 242 440.115 241.3 440.115 240.5C440.115 239.6 440.315 238.8 440.615 238C441.215 236.6 441.615 235.1 441.715 233.5C441.715 233.1 441.815 232.7 441.915 232.2C442.215 230.9 442.515 229.5 442.915 228.2C443.215 227.3 443.215 226.3 442.915 225.4C442.715 224.8 442.615 224.2 442.915 223.6C443.415 222.3 443.315 221.1 442.915 219.8C442.615 219 442.415 218.1 442.415 217.3C442.415 215.2 442.115 213 442.715 210.9C442.915 210.3 442.815 209.5 442.815 208.8C442.815 207.9 442.715 207.1 442.815 206.2C442.815 204.5 442.615 202.9 442.215 201.4C441.915 200.6 442.015 199.7 441.915 198.9C441.815 198 441.515 197.1 441.315 196.1C441.315 195.8 441.315 195.4 441.315 195.1C441.315 194.7 441.315 194.2 441.315 193.8C441.315 193.2 441.215 192.6 440.915 192.1C440.815 191.9 440.715 191.6 440.615 191.4C439.915 190.1 439.415 188.7 439.315 187.3C439.315 187 439.315 186.8 439.115 186.6C438.515 185.4 438.115 184.2 438.115 182.9C438.115 182.7 438.015 182.4 437.915 182.2C437.715 181.2 437.415 180.2 437.215 179.2C437.115 178.2 436.815 177.4 436.315 176.5C435.815 175.6 435.315 174.7 434.915 173.7C434.515 172.9 434.015 172 433.715 171.1C433.415 170.3 432.915 169.6 432.615 168.8C432.315 167.9 431.915 167.1 431.315 166.3C431.115 166 431.015 165.7 430.915 165.4C430.715 164.7 430.515 163.9 430.315 163.2C430.115 162.7 429.915 162.2 429.615 161.8C429.315 161.3 428.815 161.1 428.315 161.1C427.715 161.1 427.315 161.4 426.915 161.7C426.215 162.4 425.615 163.3 425.115 164.2C424.215 165.8 423.115 167.4 422.415 169.2C422.215 169.6 422.015 170 421.815 170.3C420.815 171.4 420.415 172.9 420.015 174.3C419.815 174.9 419.715 175.5 419.515 176C419.215 177 418.915 178 418.915 179C418.915 179.4 418.815 179.9 418.615 180.2C417.715 182 417.315 183.9 417.415 185.9C417.415 186.6 417.415 187.3 417.015 187.9C416.415 189 416.215 190.2 416.215 191.4C416.215 192 416.015 192.6 416.015 193.2C416.015 193.7 415.915 194.2 416.015 194.7C416.215 195.5 416.115 196.2 416.015 197C415.315 199.8 415.315 199.8 415.315 202.6C415.315 203.8 415.315 205 415.715 206.2C415.915 206.8 415.915 207.4 415.615 208C414.915 209.3 414.815 210.6 414.915 212C414.915 212.6 414.915 213.2 414.915 213.8C414.915 214.1 414.915 214.5 414.715 214.8C414.015 216.2 413.715 217.7 412.915 219.1C412.515 219.9 411.815 220.5 411.015 220.7C409.915 221 408.815 221 407.715 220.7C407.015 220.5 404.815 219 404.315 218.4C404.015 218 403.715 217.6 403.415 217.1C402.515 215.6 402.115 213.9 401.715 212.3C401.215 210.3 401.215 208.4 401.715 206.4C401.915 205.5 402.015 204.7 401.715 203.9C401.415 203.2 401.415 202.4 401.415 201.6C401.415 200.8 401.415 200 401.515 199.3C401.715 197.9 401.915 196.6 401.515 195.2C401.315 194.6 401.515 194 401.515 193.4C401.515 193 401.515 192.5 401.315 192.1C401.015 190.9 400.615 189.6 400.215 188.4C400.015 187.7 399.915 187.1 399.915 186.4C399.915 185.7 399.915 185 399.915 184.3C399.615 183 399.515 181.6 399.015 180.3C398.615 179.3 398.415 178.3 398.415 177.3C398.415 175.8 397.915 174.5 397.015 173.3C396.815 173 396.515 172.8 396.315 172.5C395.815 171.9 395.415 171.2 395.415 170.4C395.415 169.3 394.915 168.4 394.515 167.5C394.115 166.6 393.715 165.6 393.215 164.7C393.015 164.3 392.815 164 392.515 163.6C392.215 163.2 391.815 162.9 391.315 162.6C390.815 162.3 390.415 161.9 390.115 161.3C389.815 160.9 389.515 160.5 389.215 160C388.015 158.3 386.615 156.9 384.715 155.8C383.015 154.8 381.415 153.7 379.815 152.4C378.215 151.1 376.515 150 374.515 149.3C373.815 149 373.115 148.7 372.415 148.3C371.415 147.6 370.315 147.1 369.115 147C368.515 147 367.915 146.8 367.415 146.5C366.015 145.8 364.515 145.4 362.915 145.5C362.215 145.5 361.515 145.4 360.915 145.1C360.415 144.8 359.815 144.6 359.215 144.5C358.115 144.3 357.115 143.9 356.015 143.4C355.515 143.1 354.915 142.9 354.315 142.8C353.515 142.7 352.615 142.4 351.815 142.3C351.415 142.3 351.015 142.1 350.615 141.9C349.515 141.3 348.315 140.7 347.215 140C346.715 139.7 346.315 139.2 346.215 138.5C346.115 137.8 346.015 137.1 345.815 136.5C345.615 135.9 345.815 135.3 346.015 134.8C346.715 133.3 347.415 131.8 348.215 130.4C348.815 129.4 349.615 128.7 350.815 128.4C352.115 128.1 353.515 127.8 354.915 128C355.315 128 355.815 128 356.215 128H356.515ZM14.9148 304.5C14.9148 304.5 14.9148 304.9 14.9148 305.4C14.9148 305.6 14.9148 305.7 14.9148 305.9C14.9148 306.8 15.7148 307.5 16.6148 307.5C16.9148 307.5 17.1148 307.5 17.4148 307.5C18.0148 307.3 18.6148 307.3 19.2148 307.5C19.9148 307.7 20.6148 307.8 21.2148 307.8C22.1148 307.8 23.1148 307.8 24.0148 307.8C24.8148 307.8 25.5148 307.8 26.3148 308C26.9148 308.1 27.5148 308.2 28.1148 308.2C29.6148 308.2 31.0148 308.2 32.5148 308.2C33.1148 308.2 33.7148 308.2 34.3148 308C35.5148 307.6 36.7148 307.6 37.9148 307.6C39.0148 307.6 40.1148 307.6 41.2148 307.3C41.9148 307.1 42.6148 307.1 43.2148 307.3C44.0148 307.6 44.9148 307.6 45.7148 307.6C46.9148 307.6 48.1148 307.6 49.3148 307.6C50.2148 307.6 51.0148 307.6 51.9148 307.4C53.3148 307 54.8148 307 56.2148 307C56.7148 307 57.2148 307 57.7148 307.3C58.6148 307.6 59.5148 307.7 60.5148 307.6C61.4148 307.6 62.2148 307.6 63.1148 307.5C63.5148 307.5 64.0148 307.5 64.4148 307.3C65.5148 306.9 66.6148 307 67.7148 307C68.8148 307 69.9148 307 71.0148 307.3C71.7148 307.5 72.4148 307.5 73.0148 307.3C73.9148 307 74.8148 307 75.8148 307C77.1148 307 78.4148 307 79.7148 307C80.6148 307 81.6148 307 82.5148 307.3C83.1148 307.5 83.7148 307.4 84.3148 307.3C84.9148 307.2 85.5148 307.1 86.1148 307.1C87.4148 307.1 88.7148 307.1 90.0148 307.1C90.3148 307.1 90.7148 307.1 91.0148 307.1C92.1148 307.4 93.2148 307.4 94.3148 307.1C95.1148 306.9 96.0148 306.9 96.9148 307.1C98.8148 307.6 100.615 307.5 102.515 307.1C102.915 307 103.315 306.9 103.815 306.9C105.515 306.9 107.215 306.7 108.915 307.3C109.415 307.5 109.915 307.4 110.415 307.5C111.015 307.5 111.615 307.6 112.215 307.8C113.615 308.1 114.915 308 116.315 307.6C117.415 307.2 118.415 307 119.615 307.1C119.915 307.1 120.115 307.1 120.415 307.1C121.415 307.1 122.615 306 122.515 304.6C122.515 304.2 122.415 303.8 122.215 303.3C121.915 302.4 121.815 301.4 122.215 300.5C122.515 299.6 122.615 298.7 122.215 297.7C122.015 297 122.015 296.4 122.215 295.7C122.615 294.3 122.615 292.8 122.215 291.4C122.015 290.8 122.015 290.2 122.215 289.6C122.515 288.9 122.515 288.1 122.515 287.3C122.515 286.5 122.515 285.8 122.715 285C123.215 283 123.115 281.1 122.715 279.1C122.615 278.4 122.515 277.7 122.715 277.1C122.915 276.4 122.815 275.7 122.515 275.1C122.315 274.6 122.015 274.2 121.815 273.7C121.615 273.2 121.415 272.7 121.415 272.2C121.415 271.2 121.415 270.1 121.915 269.2C122.115 268.8 122.315 268.2 122.415 267.7C122.415 266.3 122.615 264.9 122.215 263.6C121.915 262.5 121.915 261.4 122.215 260.3C122.615 258.6 122.715 256.9 122.215 255.2C122.015 254.5 122.015 253.9 121.915 253.2C121.915 251.1 121.915 249.1 121.915 247C121.915 246.1 121.915 245.1 122.315 244.2C122.715 243 122.815 241.7 122.315 240.4C122.015 239.7 121.915 239.1 121.915 238.4C121.915 238 121.915 237.5 121.915 237.1C121.315 235.7 121.615 234.4 122.115 233.1C122.315 232.6 122.415 232.1 122.515 231.6C122.715 230.3 122.815 229 122.315 227.8C121.915 226.7 121.915 225.6 122.315 224.5C122.615 223.7 122.615 222.8 122.615 222C122.615 220.5 121.815 219.5 120.415 219.2C119.015 218.9 117.615 218.6 116.115 218.7C115.115 218.8 114.215 218.7 113.415 218.1C113.415 218.1 113.215 218.1 113.215 218C112.415 217.5 111.615 217.6 110.715 217.9C110.115 218.1 109.615 218.3 109.015 218.4C108.415 218.6 107.815 218.6 107.215 218.4C105.915 217.9 104.715 218 103.415 218C102.815 218 102.215 218 101.615 217.8C100.215 217.3 98.9148 217.4 97.6148 217.9C97.0148 218.2 96.3148 218.4 95.6148 218.4C94.2148 218.4 92.8148 218.4 91.5148 218.3C90.6148 218.3 89.8148 218.1 88.9148 218.1C87.7148 218.1 86.5148 218.1 85.3148 218.1C84.5148 218.1 83.7148 218.1 83.0148 217.8C82.4148 217.6 81.8148 217.7 81.2148 217.8C80.7148 217.9 80.2148 218 79.7148 218.1C78.5148 218.6 77.3148 218.5 76.2148 218.1C74.9148 217.6 73.5148 217.5 72.2148 217.1C71.6148 216.9 71.0148 216.9 70.4148 217.1C69.2148 217.3 68.0148 217.5 66.8148 217.6C65.5148 218.2 64.1148 218.1 62.7148 218C61.8148 218 61.0148 218 60.1148 218.2C59.5148 218.4 58.9148 218.3 58.3148 218.2C58.0148 218.1 57.6148 218 57.3148 217.9C55.7148 217.3 54.1148 217.3 52.5148 217.7C51.0148 218.1 49.5148 218.3 48.0148 218.7C46.8148 219 45.8148 218.9 44.8148 218.4C44.4148 218.2 44.0148 218.1 43.6148 218C42.3148 217.9 41.0148 217.8 39.8148 218.2C37.8148 218.7 35.9148 218.5 33.9148 218.4C32.5148 217.9 31.0148 218 29.6148 218.1C28.6148 218.1 27.5148 218.1 26.5148 217.8C25.9148 217.6 25.3148 217.5 24.7148 217.7C23.5148 218 22.3148 218.1 21.1148 218.2C20.2148 218.3 19.2148 218.5 18.3148 218.7C17.6148 218.9 17.0148 219.1 16.5148 219.7C15.4148 221.1 14.7148 222.6 14.7148 224.4C14.7148 226.1 14.8148 227.7 15.6148 229.1C15.7148 229.3 15.8148 229.6 15.9148 229.8C16.2148 230.5 16.2148 231.1 16.0148 231.8C15.9148 232.2 15.8148 232.6 15.6148 233C15.3148 233.8 15.1148 234.6 15.2148 235.5C15.2148 237.4 15.2148 239.3 15.2148 241.2C15.2148 241.8 15.2148 242.4 15.4148 243C15.6148 243.6 15.5148 244.2 15.4148 244.8C15.3148 245.3 15.3148 245.8 15.2148 246.3C14.8148 247.7 14.9148 249 15.1148 250.4C15.3148 252 15.6148 253.6 15.1148 255.3C15.1148 255.6 15.1148 256 15.1148 256.3C15.5148 257.7 15.5148 259 15.1148 260.4C14.8148 261.8 14.8148 263.3 15.1148 264.7C15.5148 266.7 15.5148 268.8 15.1148 270.8C14.9148 271.8 14.8148 272.8 15.1148 273.8C15.4148 274.6 15.5148 275.5 15.1148 276.3C14.6148 278 14.8148 279.7 14.8148 281.4C15.2148 282.9 15.3148 284.4 14.8148 286C14.8148 286.2 14.8148 286.3 14.8148 286.5C14.8148 290.5 14.8148 294.6 14.8148 298.6C14.8148 299.1 14.8148 299.7 14.9148 300.1C15.3148 301.3 15.3148 302.5 15.2148 304.1L14.9148 304.5ZM74.6148 411.3C75.0148 411.3 75.5148 411.3 75.9148 411.3C77.6148 411.3 79.3148 411.3 81.0148 411.7C81.7148 411.9 82.4148 411.8 83.0148 411.7C83.9148 411.4 84.9148 411.4 85.8148 411.4C87.3148 411.4 88.7148 411.4 90.2148 411.8C90.7148 411.9 91.2148 411.8 91.7148 411.9C93.4148 411.9 95.1148 411.9 96.9148 411.9C98.6148 411.9 100.215 411.7 101.715 411.3C102.715 411 103.715 410.9 104.815 410.9C107.215 410.9 109.615 410.9 112.015 410.9C112.815 410.9 113.515 410.9 114.315 411.2C114.815 411.3 115.315 411.4 115.815 411.2C117.015 410.9 118.215 410.9 119.415 410.8C119.915 410.8 120.415 410.5 120.615 410C120.815 409.6 121.015 409.2 121.115 408.8C121.215 407.5 121.415 406.2 121.115 405C120.815 404 120.815 403 120.815 401.9C120.815 400.5 120.815 399.2 120.015 397.9C119.715 397.4 119.715 396.9 120.015 396.4C121.115 394.2 120.715 394.4 120.015 392.5V392.3C119.815 391.7 119.715 391.1 120.015 390.5C120.415 389.5 120.415 388.5 120.415 387.4C120.415 386.4 120.415 385.5 121.015 384.7C121.515 383.8 121.615 382.9 121.515 381.9C121.515 381.4 121.315 380.9 121.215 380.4C121.215 380 120.915 379.6 120.915 379.1C120.915 377.6 120.815 376 121.215 374.5C121.415 373.6 121.415 372.8 121.215 372C121.015 371.4 121.015 370.8 121.015 370.2C121.015 369.8 121.015 369.3 121.015 368.9C121.015 368 121.015 367.2 120.315 366.5C119.915 366.1 119.815 365.6 119.815 365.1C119.815 363.9 119.815 362.7 120.515 361.6C121.115 360.6 121.115 359.5 120.815 358.3C120.815 358.1 120.715 358 120.615 357.8C120.415 357.1 120.315 356.4 120.615 355.8C121.015 354.7 121.015 353.6 121.015 352.5C121.015 351.3 121.015 350.1 121.015 348.9C121.015 348.4 121.015 347.9 120.815 347.4C120.515 346 120.415 344.7 120.815 343.3C121.115 342.5 121.015 341.6 120.515 340.8C119.815 339.8 119.815 338.7 120.215 337.6C120.315 337.2 120.515 336.8 120.615 336.4C121.015 335.2 121.115 334.1 120.815 332.9C120.715 332.5 120.615 332 120.815 331.6C121.215 330.3 121.115 328.9 121.215 327.5C121.315 326.4 121.015 325.5 120.115 324.8C119.815 324.5 119.515 324.2 119.215 323.9C118.615 323.4 117.915 323 117.115 323C115.815 323 114.515 322.8 113.315 323.3C112.615 323.6 111.815 323.6 111.015 323.3C110.115 323 109.215 322.9 108.215 322.9C107.015 322.9 105.815 322.9 104.615 322.9C103.715 322.9 102.915 322.9 102.015 323.1C100.415 323.5 98.8148 323.4 97.1148 323.4C96.2148 323.4 95.4148 323.4 94.5148 323.7C93.7148 324 93.0148 323.9 92.2148 323.7C91.8148 323.6 91.3148 323.6 90.9148 323.4C89.8148 323 88.7148 322.9 87.6148 322.9C86.9148 322.9 86.2148 322.9 85.5148 322.9C84.7148 322.9 83.9148 322.9 83.2148 322.7C81.7148 322.3 80.1148 322.4 78.6148 322.3C77.9148 322.3 77.2148 322.3 76.6148 322.6C75.7148 322.9 74.7148 322.9 73.8148 322.6C72.8148 322.3 71.7148 322.2 70.7148 322.4C68.5148 322.8 66.2148 322.7 64.0148 322.7C60.9148 322.7 57.8148 322.9 54.7148 322.7C52.9148 322.7 51.1148 322.7 49.3148 322.7C47.9148 322.7 46.6148 322.7 45.2148 323.2C44.5148 323.4 43.6148 323.5 42.9148 323.2C41.7148 322.8 40.5148 322.8 39.3148 322.9C38.5148 322.9 37.7148 322.9 37.0148 322.9C35.3148 322.8 33.6148 322.9 31.8148 322.9C31.2148 322.9 30.6148 323 30.0148 323.2C29.3148 323.4 28.7148 323.4 28.0148 323.2C26.3148 322.6 24.5148 322.4 22.7148 322.5C22.4148 322.5 22.2148 322.5 21.9148 322.5C20.6148 322.4 19.3148 322.7 18.1148 323.1C17.3148 323.3 16.8148 323.9 16.6148 324.7C16.5148 325.5 16.4148 326.2 16.3148 327C16.2148 327.6 16.1148 328.2 16.3148 328.8C17.0148 331 16.6148 333.2 16.7148 335.5C16.7148 335.9 16.7148 336.4 16.5148 336.8C16.2148 337.5 16.2148 338.3 16.2148 339.1C16.2148 340.3 16.2148 341.5 16.2148 342.7C16.2148 343.6 16.2148 344.6 15.9148 345.5C15.7148 346 15.7148 346.5 15.7148 347C15.7148 349.4 15.7148 351.8 15.7148 354.2C15.7148 355.1 15.7148 355.9 15.4148 356.7C15.2148 357.4 15.1148 358.1 15.4148 358.7C15.8148 359.8 15.8148 360.9 15.8148 362C15.8148 362.9 15.8148 363.7 16.1148 364.5C16.4148 365.6 16.4148 366.7 16.1148 367.8C15.8148 368.8 15.8148 369.8 16.1148 370.8C16.2148 371.2 16.3148 371.6 16.3148 372.1C16.3148 373.6 16.4148 375 16.4148 376.5C16.4148 376.9 16.4148 377.4 16.2148 377.8C15.8148 378.8 15.8148 379.8 15.8148 380.8C15.8148 381.7 15.8148 382.7 15.8148 383.6C15.8148 384.5 15.8148 385.3 16.1148 386.1C16.4148 387 16.4148 388 16.1148 388.9C15.8148 389.8 15.8148 390.8 15.8148 391.7C15.8148 393.3 15.8148 395 15.8148 396.6C15.8148 398.3 15.8148 400 15.8148 401.8C15.8148 403.2 15.5148 404.5 15.8148 405.9C15.8148 406.5 15.8148 407.1 15.7148 407.7C15.5148 408.5 15.7148 409.2 15.9148 410C16.1148 410.7 16.6148 411.2 17.2148 411.6C18.0148 412.1 18.8148 412.3 19.7148 412.1C21.3148 411.7 22.9148 411.8 24.5148 411.4C25.9148 411.1 27.4148 411.1 28.8148 411.4C30.5148 411.9 32.2148 411.8 33.8148 411C33.9148 411 34.1148 410.8 34.3148 410.8C34.7148 410.8 35.2148 410.8 35.6148 410.8C36.0148 410.8 36.4148 411 36.8148 411.2C37.8148 411.6 38.8148 411.7 39.8148 411.7C42.6148 411.7 45.5148 411.7 48.3148 411.7C49.1148 411.7 49.8148 411.7 50.6148 411.4C50.9148 411.4 51.3148 411.3 51.6148 411.4C52.7148 411.7 53.8148 411.6 54.9148 411.7C56.4148 411.7 58.0148 411.7 59.5148 412.1C60.2148 412.3 61.1148 412.3 61.8148 412.1C62.9148 411.9 64.0148 411.9 65.1148 411.9C66.7148 411.9 68.4148 411.9 70.0148 411.4C70.5148 411.3 71.0148 411.3 71.5148 411.2C72.6148 411.2 73.7148 411.2 74.9148 411.2L74.6148 411.3ZM91.3148 117.4C90.4148 117 89.4148 116.9 88.5148 117C85.6148 117 82.7148 117 79.7148 117C79.0148 117 78.3148 117 77.6148 117C76.7148 117 75.9148 117 75.0148 117C73.6148 117 72.3148 117.1 71.0148 117.7C69.7148 118.2 68.5148 118.2 67.2148 117.8C65.5148 117.4 63.9148 116.9 62.3148 116.3C61.6148 116 60.8148 115.9 60.0148 116.1C58.8148 116.5 57.7148 116.3 56.4148 116.1C54.9148 115.8 53.3148 115.7 51.9148 116.5C51.1148 116.9 50.3148 117 49.4148 117C48.4148 117 47.4148 117 46.3148 117.3C45.1148 117.7 43.9148 117.6 42.8148 116.9C42.4148 116.7 42.0148 116.5 41.6148 116.5C40.3148 116.5 39.0148 116.2 37.8148 116.6C36.9148 116.9 35.9148 116.9 35.0148 116.9C33.4148 116.9 31.7148 116.9 30.1148 116.9C27.6148 116.9 25.1148 116.9 22.6148 116.9C21.0148 116.9 19.3148 116.9 17.7148 116.9C16.4148 116.9 14.8148 118.4 14.9148 119.7C14.9148 120.6 14.9148 121.6 14.9148 122.5C14.9148 123.4 14.9148 124.4 14.6148 125.3C14.4148 125.9 14.4148 126.5 14.5148 127.1C14.8148 128.5 14.8148 130 15.2148 131.4C15.7148 132.9 15.7148 134.5 14.9148 135.9C14.5148 136.6 14.4148 137.4 14.4148 138.1C14.4148 138.8 14.4148 139.5 14.4148 140.2C14.4148 140.6 14.4148 141.1 14.6148 141.5C15.0148 142.8 15.4148 144.1 15.4148 145.5C15.4148 145.8 15.5148 146 15.6148 146.2C16.0148 148 16.1148 149.8 15.6148 151.5C15.3148 152.6 15.3148 153.7 15.8148 154.8C16.0148 155.2 16.1148 155.6 16.2148 156C16.5148 156.8 16.5148 157.7 16.2148 158.5C16.0148 158.9 15.9148 159.3 15.8148 159.7C15.5148 160.7 15.3148 161.7 15.0148 162.7C14.8148 163.4 15.3148 164 15.4148 164.7C15.4148 165.1 15.4148 165.6 15.4148 166C15.4148 166.4 15.4148 166.9 15.5148 167.3C15.9148 168.5 15.8148 169.7 15.8148 170.9C15.8148 171.8 15.8148 172.8 16.2148 173.7C16.4148 174.3 16.4148 174.9 16.2148 175.5C15.9148 176.2 15.8148 177 15.8148 177.8C15.8148 180.4 15.8148 183 15.9148 185.5C15.9148 186.4 15.9148 187.2 15.6148 188.1C15.4148 188.6 15.4148 189.1 15.4148 189.6C15.4148 191.1 15.4148 192.5 15.4148 194C15.4148 194.7 15.4148 195.4 15.6148 196C15.9148 197.1 15.9148 198.2 15.6148 199.3C15.3148 200.2 15.6148 201 16.3148 201.6C16.9148 202.2 17.5148 202.5 18.4148 202.5C19.0148 202.5 19.6148 202.5 20.2148 202.5C21.6148 202.5 23.0148 202.5 24.3148 202.5C25.3148 202.5 26.4148 202.5 27.4148 202.5C28.9148 202.4 30.5148 202.5 32.0148 202.5C32.9148 202.5 33.9148 202.5 34.8148 202.5C36.2148 202.4 37.5148 202.5 38.9148 202.5C40.6148 202.6 42.3148 202.6 44.0148 202.1C44.6148 201.9 45.2148 202 45.8148 202.1C46.5148 202.3 47.3148 202.5 48.0148 202.7C48.3148 202.7 48.7148 202.9 49.0148 202.8C50.3148 202.6 51.6148 202.5 52.8148 202.2C53.8148 202 54.6148 201.9 55.6148 202.2C56.4148 202.5 57.3148 202.5 58.1148 202.2C58.7148 202 59.3148 202.1 59.9148 202.2C60.6148 202.4 61.2148 202.5 61.9148 202.7C62.4148 202.8 62.9148 202.9 63.4148 202.7C64.7148 202.3 66.0148 202.4 67.2148 202.4C68.2148 202.4 69.3148 202.4 70.3148 202.7C70.8148 202.9 71.3148 202.7 71.8148 202.7C73.5148 202.3 75.2148 202.3 76.9148 202.7C77.3148 202.8 77.7148 202.7 78.2148 202.7C78.8148 202.5 79.4148 202.5 79.9148 202.3C80.7148 202 81.6148 202 82.4148 202C83.3148 202 84.3148 202 85.2148 202.3C85.8148 202.5 86.4148 202.5 87.0148 202.7C88.3148 203.1 89.5148 203 90.8148 202.5C91.2148 202.3 91.6148 202.2 92.0148 202C92.8148 201.6 93.6148 201.5 94.5148 201.8C95.0148 202 95.7148 202 96.3148 202C97.5148 202 98.7148 202 99.9148 202C100.415 202 100.915 202 101.415 202.2C102.615 202.5 103.815 202.5 105.015 202.5C105.815 202.5 106.615 202.5 107.315 202.5C108.615 202.5 109.915 202.5 111.115 201.9C111.815 201.6 112.615 201.5 113.415 201.8C114.215 202.1 115.115 202.3 115.915 202.3C116.815 202.3 117.815 202 118.715 201.9C119.315 201.9 119.915 201.6 120.415 201.3C120.815 201.1 121.015 200.7 121.115 200.3C121.115 199.9 121.215 199.4 121.215 199C121.215 197.9 121.215 196.8 121.215 195.6C121.215 194.2 121.015 192.9 121.515 191.5C121.615 191.2 121.515 190.8 121.515 190.5C121.515 189.4 121.515 188.3 121.215 187.2C120.915 186.3 120.915 185.3 121.215 184.4C121.515 183.7 121.515 183.1 121.515 182.4C121.515 181.4 121.515 180.3 121.515 179.3C121.515 178.6 121.515 177.9 121.715 177.3C122.015 176.5 122.115 175.6 121.815 174.8C121.415 173.3 121.415 171.7 121.515 170.2C121.515 167.4 121.415 164.5 121.515 161.7C121.515 161.4 121.515 161.2 121.515 160.9C121.215 155 121.515 149 121.515 143.1C121.515 142 121.515 140.9 121.115 139.8C120.815 138.9 120.815 137.9 121.115 137C121.415 136.3 121.415 135.5 121.515 134.7C121.515 133.9 121.515 133.2 121.515 132.4C121.515 129.1 121.515 125.9 121.515 122.6C121.515 122.1 121.615 121.6 121.715 121.1C121.715 120.8 121.915 120.4 121.915 120.1C122.115 118.9 121.215 117.4 120.015 117C118.315 116.5 116.715 116.2 114.915 116.5C114.315 116.6 113.715 116.7 113.115 116.8C112.315 116.8 111.615 117 110.815 117.2C109.815 117.5 108.715 117.5 107.715 117.2C106.015 116.7 104.315 116.8 102.615 116.8C102.315 116.8 101.915 116.8 101.615 117C100.615 117.4 99.6148 117.4 98.6148 117C98.2148 116.9 97.8148 116.9 97.3148 116.8C96.8148 116.8 96.3148 116.8 95.8148 116.6C94.6148 116.2 93.4148 116.3 92.3148 116.8C91.9148 116.9 91.5148 117 90.8148 117.2L91.3148 117.4ZM144.415 323.1C143.215 323.1 142.015 323.1 140.815 323.1C140.115 323.1 139.415 323.1 138.715 323.1C137.615 323.1 136.815 324.2 136.915 325.2C136.915 325.2 136.915 325.4 136.915 325.5C137.215 326.4 137.215 327.2 136.915 328C136.315 329.3 136.315 330.7 136.315 332C136.315 333.4 136.315 334.8 136.315 336.1C136.315 337.1 136.315 338.2 136.915 339.1C137.515 340.2 137.415 341.4 137.315 342.6C137.315 342.9 137.115 343.1 137.115 343.3C137.115 343.6 136.915 344 136.915 344.3C136.915 346.1 136.915 347.9 137.315 349.7C137.615 351 137.715 352.3 137.115 353.5C136.915 354.1 136.915 354.7 136.915 355.3C136.915 357.1 136.915 358.9 136.915 360.7C136.915 361.6 136.915 362.4 136.915 363.3C136.915 366.6 136.715 369.8 136.915 373.1C136.915 374 136.915 374.8 136.615 375.6C136.315 376.3 136.315 377.1 136.615 377.9C137.015 379.1 137.015 380.3 137.015 381.5C137.015 383.5 137.015 385.5 137.015 387.4C137.015 388.7 137.015 390 136.615 391.2C136.615 391.5 136.415 391.9 136.415 392.2C136.415 394.2 136.215 396.2 136.715 398.1C136.815 398.7 136.815 399.3 136.815 399.9C136.815 402.3 136.815 404.7 136.815 407.1C136.815 407.8 136.815 408.5 136.815 409.2C136.915 410.3 137.815 411.1 138.915 411.2C139.615 411.2 140.315 411.2 141.015 411.2C142.615 411.2 144.315 411.2 145.915 411.2C146.415 411.2 146.915 411.2 147.415 411.4C148.815 411.8 150.115 411.7 151.515 411.7C153.015 411.7 154.615 411.7 156.115 411.7C157.615 411.7 159.215 411.7 160.715 411.3C161.415 411.1 162.015 411 162.715 410.9C162.915 410.9 163.215 410.9 163.515 410.9C164.715 411.3 165.915 411.2 167.115 411.2C169.515 411.2 171.915 411 174.315 411.6C174.515 411.6 174.615 411.6 174.815 411.6C177.115 411.6 179.415 411.8 181.815 411.7C188.215 411.7 194.515 411.5 200.915 411.7C202.515 411.7 204.215 411.7 205.715 411C206.415 410.7 207.215 410.6 208.015 410.6C208.815 410.6 209.515 410.6 210.315 410.9C211.215 411.2 212.215 411.2 213.115 410.9C215.015 410.4 216.915 410.6 218.715 410.9C219.815 411.1 220.915 411.2 222.015 411.2C223.315 411.2 224.615 411.2 225.915 411.2C227.015 411.2 228.215 411 229.215 411.4C230.915 411.9 232.615 411.8 234.315 411.8C235.315 411.8 236.115 411.1 236.415 410.2C236.915 408.7 237.015 407.2 236.715 405.6C236.315 403.8 236.415 402 236.715 400.2C236.915 399.1 236.915 398 236.715 396.9C236.615 396.3 236.515 395.7 236.515 395.1C236.515 394.2 236.515 393.2 236.115 392.3C236.015 391.9 235.915 391.4 236.115 391C236.615 389.7 236.615 388.3 236.815 386.9C237.115 385.1 237.215 383.3 236.815 381.5C236.315 379.1 236.315 376.7 236.815 374.3C237.015 373.4 237.115 372.6 236.815 371.7C236.415 370.5 236.415 369.3 236.515 368.1C236.515 367.3 236.515 366.6 236.515 365.8C236.515 364.9 236.515 364.1 236.715 363.2C236.815 362.8 236.915 362.4 236.915 361.9C236.915 360.1 236.915 358.3 236.915 356.5C236.915 355.3 236.615 354.1 236.415 352.9C236.415 352.5 236.115 352.1 235.715 351.8C235.515 351.6 235.315 351.5 235.015 351.4C233.215 350.5 231.815 349.1 230.715 347.5C230.015 346.4 229.115 345.5 228.015 344.8C227.015 344.1 226.015 343.5 225.015 342.8C223.915 342.1 222.915 341.3 222.215 340.2C221.615 339.3 220.915 338.6 220.415 337.7C220.015 337 219.515 336.5 218.815 336.1C218.015 335.7 217.415 335.1 217.015 334.3C216.615 333.6 216.115 333 215.515 332.5C214.715 331.8 214.115 331 213.815 330C213.515 328.9 212.815 328 212.115 327.2C211.215 326.2 210.215 325.2 209.215 324.2C208.615 323.5 207.815 323.2 206.915 323.2C206.115 323.2 205.315 323.2 204.615 323.5C203.715 323.9 202.815 323.9 201.815 323.8C201.115 323.8 200.415 323.8 199.715 323.8C198.815 323.8 198.015 323.7 197.215 323.5C195.715 323.1 194.215 322.8 192.615 322.8C192.115 322.8 191.615 322.8 191.115 322.6C189.115 322.2 187.215 322.1 185.215 322.6C184.315 322.8 183.315 322.9 182.415 322.6C181.215 322.3 180.015 322.3 178.815 322.3C178.215 322.3 177.615 322.3 177.015 322.6C175.615 323.2 174.215 323.3 172.715 322.9C172.015 322.7 171.115 322.9 170.415 322.6C168.215 322.1 166.015 322.2 163.715 322.6C163.215 322.6 162.715 322.6 162.215 322.6C161.615 322.5 161.015 322.5 160.415 322.4C157.715 322.2 155.115 322.4 152.415 322.4C151.515 322.4 150.715 322.6 149.815 322.7C149.515 322.7 149.115 322.7 148.815 322.7C147.315 322.7 145.715 322.7 144.215 322.7L144.415 323.1ZM136.315 197.7C136.315 198.5 136.315 199.2 136.315 200C136.315 200.3 136.515 200.7 136.715 200.9C136.915 201.2 137.215 201.4 137.515 201.5C138.315 201.8 139.015 202.3 139.815 202.7C140.215 202.9 140.615 203.1 141.015 203.2C142.115 203.4 143.215 203.5 144.315 203.2C145.615 202.7 146.815 202.7 148.115 203C150.015 203.5 151.815 203.5 153.715 203C154.015 203 154.415 203 154.715 202.9C155.615 202.9 156.415 202.7 157.215 202.5C158.715 202.2 160.215 201.7 161.815 202.2C162.415 202.4 163.015 202.2 163.615 202.2C164.215 202.2 164.815 202.2 165.415 202.4C166.315 202.7 167.315 202.8 168.215 202.8C170.715 202.8 173.215 202.8 175.715 202.8C176.615 202.8 177.415 202.6 178.315 202.5C180.115 202.3 182.015 201.6 183.915 202.2C184.415 202.3 184.915 202.2 185.415 202.2C186.315 202.2 187.315 202.2 188.215 202.5C189.015 202.8 189.915 202.7 190.715 202.5C191.215 202.4 191.715 202.2 192.215 202.1C192.815 202 193.315 201.7 193.715 201.2C194.215 200.7 194.615 200.1 194.815 199.5C195.215 198.4 195.615 197.2 195.615 196C195.615 194.8 196.015 193.8 196.815 192.9C197.515 192.1 198.015 191.2 198.315 190.2C198.615 189.2 199.015 188.2 199.315 187.3C199.615 186.4 200.015 185.6 200.715 184.9C200.915 184.7 201.215 184.4 201.415 184.2C202.115 183.2 203.015 182.2 202.915 180.7C202.915 179.9 203.215 179.2 203.615 178.5C204.515 177.3 205.015 176 205.315 174.5C205.415 173.8 205.715 173.2 206.115 172.6C206.615 171.9 207.015 171.1 207.015 170.2C207.015 169.5 207.315 168.8 207.815 168.4C209.115 167.4 209.815 166.1 210.415 164.6C210.715 164 210.915 163.3 211.215 162.7C211.915 161.1 212.515 159.5 213.715 158.2C214.015 157.9 214.215 157.5 214.415 157.1C215.215 155.4 216.115 153.7 217.215 152.2C217.515 151.8 217.715 151.3 217.915 150.8C218.415 149.5 219.015 148.3 220.015 147.3C221.015 146.1 222.015 144.9 222.415 143.4C222.515 142.9 222.915 142.5 223.415 142.2C224.415 141.6 225.115 140.8 225.515 139.7C226.015 138.4 226.915 137.3 227.915 136.4C228.615 135.8 229.215 135 229.615 134.1C229.715 133.8 229.915 133.5 230.015 133.2C230.315 132.4 230.915 131.7 231.615 131.3C232.015 131.1 232.415 130.8 232.615 130.5C233.415 129.3 234.315 128.3 235.415 127.5C235.815 127.2 236.115 126.7 236.215 126.2C236.415 125.2 236.715 124.2 236.815 123.2C236.815 121.9 236.815 120.6 236.815 119.3C236.815 118.8 236.615 118.3 236.415 117.8C236.115 117.1 235.615 116.7 234.815 116.7C232.715 116.7 230.715 116.7 228.615 116.7C227.715 116.7 226.715 116.7 225.815 117.1C225.315 117.3 224.815 117.3 224.315 117.1C223.315 116.8 222.315 116.8 221.215 116.8C219.015 116.8 216.715 116.8 214.515 116.8C213.615 116.8 212.815 116.8 211.915 116.6C211.015 116.4 210.015 116.4 209.115 116.6C208.315 116.8 207.415 116.8 206.515 116.8C204.315 116.8 202.015 116.8 199.815 116.8C199.015 116.8 198.315 116.8 197.515 117.1C195.815 117.5 194.115 117.5 192.415 117.1C191.815 117 191.215 116.9 190.615 116.9C189.115 116.9 187.715 116.9 186.215 117.2C184.715 117.5 183.115 117.6 181.615 117C181.115 116.8 180.615 116.9 180.115 116.9C178.415 116.9 176.715 116.9 174.915 116.9C173.415 116.9 171.815 116.9 170.315 116.5C169.115 116.2 167.915 116.2 166.715 116.5C165.915 116.7 165.015 116.7 164.115 116.8C162.515 116.8 160.815 116.8 159.215 116.8C158.015 116.8 156.815 116.8 155.615 117.2C155.115 117.4 154.615 117.3 154.115 117.3C153.115 117.3 152.015 117.3 151.015 117.3C149.915 117.3 148.815 117.3 147.715 116.9C146.815 116.6 145.815 116.6 144.915 116.8C144.415 116.8 143.915 117.1 143.415 117.2C141.915 117.8 140.415 117.9 138.915 117.3C138.515 117.2 138.115 117.2 137.615 117.1C137.015 117.1 136.515 117.5 136.515 118C136.515 118.7 136.515 119.4 136.515 120.1C136.515 120.9 136.515 121.6 136.115 122.4C136.015 122.7 135.915 123.1 135.815 123.4C135.515 124.2 135.515 125.1 135.815 125.9C135.915 126.2 136.015 126.6 136.215 126.9C136.715 128.1 136.815 129.4 136.415 130.7C136.215 131.5 136.115 132.2 136.115 133C136.115 134.9 136.115 136.8 136.115 138.7C136.115 139.3 136.115 139.9 136.315 140.5C136.815 141.9 136.815 143.4 136.415 144.8C136.015 146.3 136.015 147.7 136.415 149.1C136.615 149.9 136.615 150.6 136.315 151.4C136.215 151.7 136.115 152.1 136.015 152.4C135.715 153.2 135.615 154.1 135.615 154.9C135.615 156.4 135.615 157.8 135.615 159.3C135.615 161.1 135.615 162.9 135.615 164.7C135.615 165 135.615 165.4 135.715 165.7C136.215 167.3 136.115 168.9 135.915 170.6C135.815 171.6 135.515 172.6 135.915 173.6C135.915 173.9 135.915 174.3 135.815 174.6C135.615 175.5 135.615 176.3 135.815 177.1C135.915 177.6 136.015 178.1 136.015 178.6C136.215 181.5 136.215 184.4 135.315 187.3C135.115 188.1 135.115 188.8 135.315 189.6C135.515 190.3 135.515 191 135.615 191.6C135.615 192.2 135.615 192.8 135.815 193.4C136.115 194.7 136.115 196 136.115 197.2L136.315 197.7ZM177.615 218.7C176.415 218.2 175.515 217.9 174.515 217.5C174.015 217.3 173.515 217.2 173.015 217.3C172.015 217.6 171.015 217.6 170.015 217.8C167.715 218.4 165.415 218.2 163.115 217.5C161.215 216.9 159.415 217 157.515 217.4C156.615 217.6 155.615 217.7 154.715 217.7C153.315 217.7 152.015 217.7 150.615 218C150.015 218.2 149.415 218.1 148.815 218.1C148.015 218.1 147.315 218.1 146.515 218.1C145.615 218.1 144.815 218.1 144.015 218.4C143.315 218.7 142.515 218.7 141.715 218.7C141.015 218.7 140.315 218.6 139.615 218.6C138.915 218.6 138.215 218.6 137.515 218.6C136.915 218.6 136.415 219.2 136.415 219.8C136.415 220.5 136.415 221.2 136.515 221.8C136.715 222.5 136.615 223.2 136.415 223.8C136.015 224.9 135.815 226.1 135.815 227.3C135.815 230.1 135.815 233 135.815 235.8C135.815 236.9 135.815 238 136.215 239.1C136.415 239.7 136.415 240.3 136.215 240.9C135.915 241.7 135.815 242.6 135.815 243.4C135.815 245 135.815 246.7 135.315 248.3C135.315 248.5 135.315 248.8 135.315 249.1C135.315 251.6 135.315 254.1 135.515 256.6C135.515 258.1 136.015 259.5 136.015 260.9C136.515 262.3 136.315 263.6 135.915 265C135.815 265.4 135.715 265.8 135.615 266.2C135.415 266.9 135.315 267.6 135.615 268.2C135.815 269 135.915 269.9 136.015 270.7C136.015 271.2 136.215 271.7 136.315 272.2C136.415 272.6 136.515 273.1 136.315 273.5C135.715 274.9 135.915 276.4 135.915 277.8C135.915 278.5 136.115 279.2 136.515 279.7C137.015 280.4 137.015 281.1 136.715 281.9C136.415 282.8 136.115 283.7 135.815 284.6C135.515 285.4 135.415 286.3 135.715 287.1C136.015 288.1 136.015 289.1 135.715 290.2C135.515 291 135.515 291.7 135.715 292.5C135.915 293.3 135.915 294 135.715 294.8C135.315 296.4 135.315 298 135.715 299.6C136.015 300.7 136.015 301.8 136.015 302.9C136.015 303.5 136.015 304.1 136.015 304.7C136.015 305.7 136.515 306.5 137.215 307.2C137.515 307.5 137.915 307.7 138.415 307.7C139.115 307.7 139.815 307.7 140.415 307.5C141.515 307.2 142.615 306.9 143.715 306.8C145.715 306.6 147.615 306.4 149.615 307C150.315 307.2 151.015 307.2 151.615 307C152.615 306.6 153.615 306.6 154.715 306.6C156.815 306.6 158.815 306.6 160.915 306.6C161.715 306.6 162.515 306.6 163.215 306.6C164.115 306.6 165.115 306.2 166.015 306.2C166.915 306.2 167.915 306.5 168.815 306.6C169.415 306.6 170.015 306.6 170.615 306.7C172.315 307.2 174.015 307.1 175.715 307.1C176.415 307.1 177.115 307.1 177.715 306.8C178.715 306.4 179.715 306.4 180.715 306.8C181.715 307.1 182.715 307.1 183.815 306.8C184.715 306.6 185.715 306.5 186.615 306.5C187.915 306.5 189.215 306.5 190.515 306.5C191.415 306.5 192.415 306.5 193.315 306.9C194.615 307.4 196.015 307.3 197.415 307.1C197.915 307.1 198.415 306.3 198.415 305.8C198.415 305.6 198.415 305.5 198.415 305.3C198.015 303.6 197.415 302 196.015 300.9C196.015 300.9 195.915 300.8 195.815 300.7C194.915 299.8 194.415 298.8 194.415 297.5C194.415 296.5 194.115 295.5 193.915 294.5C193.815 293.9 193.615 293.4 193.215 292.9C192.515 292.1 192.215 291.1 192.215 290C191.815 287.9 191.215 285.8 189.715 284.2C188.215 282.5 187.815 280.4 188.315 278.2C188.515 277.5 188.515 276.9 188.315 276.2C188.115 275.5 188.115 274.8 188.115 274.2C188.115 272.5 187.715 270.8 187.115 269.2C186.615 267.7 185.915 266.2 186.015 264.5C186.015 263.9 185.615 263.3 185.615 262.8C185.615 261.4 185.615 260.1 185.115 258.7C185.015 258.3 185.115 257.8 185.115 257.4C185.115 256.5 185.115 255.7 185.115 254.8C185.115 253.9 185.115 252.9 185.415 252C185.715 251.1 185.615 250.1 185.415 249.2C184.915 247.2 185.015 245.1 185.415 243.1C185.715 241.8 186.015 240.4 186.415 239.1C186.415 238.9 186.515 238.8 186.515 238.6C186.515 236.9 186.815 235.2 186.315 233.5C185.915 231.9 185.915 230.3 186.815 228.8C187.415 227.7 187.715 226.6 188.015 225.4C188.115 224.9 188.115 224.4 188.015 223.9C187.715 222.8 187.615 221.7 188.015 220.6C188.015 220.4 188.015 220.3 188.115 220.1C188.315 219 187.415 217.8 186.315 217.7C185.515 217.7 184.815 217.7 184.015 217.7C181.915 217.7 179.915 217.7 177.815 218.7H177.615ZM330.115 377.7C329.415 377.5 328.915 377.4 328.415 377.2C327.015 376.6 325.515 376.7 324.115 377C323.015 377.3 321.915 377.3 320.815 377.3C319.915 377.3 318.915 377.3 318.015 377.3C315.215 377.3 315.415 377.3 313.915 378.8C313.815 378.9 313.715 379.1 313.515 379.1C313.015 379.3 312.615 379.6 312.115 379.7C310.215 379.9 308.315 380.1 306.615 379C305.715 378.4 304.715 378.2 303.715 378.3C302.715 378.3 301.815 378.1 301.015 377.8C300.115 377.4 299.215 377.2 298.315 376.9C295.615 376.7 292.915 375.9 290.215 375.8C289.015 375.4 287.715 375.3 286.415 375.3C286.115 375.3 285.915 375.3 285.615 375.2C283.615 374.7 281.715 373.9 279.615 373.7C279.415 373.7 279.115 373.5 278.915 373.4C278.015 372.9 277.015 372.7 275.915 372.7C275.315 372.7 274.715 372.5 274.215 372.2C272.215 370.9 270.015 370.2 267.915 369.4C266.815 369 265.815 368.6 264.815 368.1C263.715 367.5 262.715 367 261.415 366.8C260.715 366.7 260.115 366.4 259.415 366.1C258.015 365.4 256.515 365 255.015 364.5C254.815 364.5 254.715 364.4 254.515 364.5C254.315 364.5 254.015 364.6 253.815 364.8C253.515 365.2 253.315 365.7 253.215 366.2C253.215 366.6 253.215 367.1 253.215 367.5C253.215 369.4 253.215 371.3 253.215 373.2C253.215 374.6 253.315 376 252.915 377.3C252.815 377.6 252.915 378 252.915 378.3C252.915 379.5 252.915 380.7 253.215 381.9C253.515 383.1 253.415 384.3 253.515 385.5C253.515 385.8 253.615 386 253.715 386.2C254.115 387.3 254.115 388.4 253.715 389.5C253.415 390.3 253.415 391.2 253.315 392C253.315 393.1 253.315 394.2 253.315 395.4C253.315 399.8 253.515 404.2 253.315 408.6C253.315 409 253.315 409.5 253.315 409.9C253.315 410.3 253.915 410.9 254.415 410.9C254.815 410.9 255.315 410.9 255.715 410.9C257.115 410.9 258.515 410.9 259.815 410.9C260.615 410.9 261.315 410.9 262.115 411.3C262.815 411.6 263.615 411.6 264.415 411.6C265.015 411.6 265.615 411.6 266.215 411.5C267.115 411.5 267.915 411.5 268.715 411.8C269.515 412.1 270.215 412.1 271.015 411.8C271.615 411.6 272.215 411.5 272.815 411.7C274.115 412.2 275.515 412 276.915 412.1C278.515 412.1 280.215 412.2 281.815 412.3C283.215 412.8 284.715 412.6 286.215 412.6C287.715 412.6 289.115 412.7 290.615 412.3C291.215 412.1 291.815 412.3 292.415 412.2C294.215 412.2 296.015 412.2 297.815 412.2C300.615 412.2 303.315 412.2 306.115 412.2C307.015 412.2 308.015 412.2 308.915 412.5C310.115 412.8 311.315 412.9 312.515 412.5C314.115 412 315.815 412.4 317.315 411.8C317.515 411.8 317.715 411.8 317.815 411.8C319.015 412.2 320.215 412 321.415 412C322.715 412 324.015 412.2 325.215 411.7C325.615 411.6 326.115 411.7 326.515 411.7C328.415 411.6 330.315 412 332.115 412.4C334.215 412.8 336.215 412.7 338.215 412.4C339.415 412.2 340.615 412 341.815 412.2C342.815 412.4 343.815 412.7 344.815 412.3C345.115 412.2 345.515 412.3 345.815 412.4C346.715 412.7 347.715 412.7 348.615 412.7C350.215 412.7 351.915 412.7 353.515 412.7C353.915 412.7 354.415 412.7 354.815 412.6C356.015 412.2 357.215 412.2 358.415 412.2C358.915 412.2 359.415 412.2 359.915 412.2C360.515 412.2 360.915 411.9 361.215 411.4C361.615 410.6 362.815 406.4 362.915 405.5C362.915 405.5 362.915 405.3 362.915 405.2C363.115 403.6 362.515 402.1 362.215 400.6C362.115 400 361.915 399.4 361.815 398.8C361.715 397.3 361.815 395.7 361.415 394.2C361.415 394 361.415 393.7 361.415 393.4C361.415 390.8 361.415 388.2 361.415 385.7C361.415 384.4 361.415 383.1 361.115 381.9C360.915 381.2 360.915 380.3 361.115 379.6C361.615 377.2 361.515 374.8 361.515 372.4C361.515 372.1 361.515 371.9 361.515 371.6C361.315 370.4 360.215 369.7 359.015 370.1C357.015 370.7 355.115 371.4 353.115 372C351.515 372.5 349.815 372.9 348.115 373.1C346.515 373.2 344.915 373.5 343.515 374.6C343.215 374.8 342.915 375 342.615 375.1C342.215 375.3 341.815 375.5 341.415 375.5C340.015 375.5 338.715 375.9 337.315 376C335.815 376 334.415 376.5 333.115 377.1C332.315 377.4 331.515 377.7 330.615 378.1L330.115 377.7ZM440.415 136C440.415 135.4 440.215 135.1 439.815 134.8C439.315 134.5 438.715 134.3 438.215 134.1C437.015 133.5 435.915 133 434.615 132.8C433.315 132.6 432.215 132 431.115 131.2C429.615 130.1 428.115 129.1 426.615 128.3C426.215 128.1 425.815 127.7 425.415 127.3C424.615 126.5 423.815 125.8 423.115 124.9C422.215 123.8 421.215 122.9 420.015 122.2C419.415 121.8 418.915 121.4 418.415 120.9C417.915 120.4 417.315 119.8 416.715 119.3C415.815 118.5 415.115 117.5 414.815 116.3C414.615 115.7 414.315 115.2 413.815 114.8C412.615 113.8 411.615 112.7 411.115 111.1C411.115 111.1 411.115 111 411.015 110.9C410.615 110.3 409.715 110.1 409.215 110.5C408.115 111.5 407.015 112.5 406.615 113.9C406.515 114.3 406.315 114.8 406.015 115C405.115 116 404.515 117.1 404.015 118.3C403.815 118.8 403.415 119.1 403.015 119.4C401.315 120.6 399.915 122.1 399.115 124.1C399.115 124.1 399.115 124.3 399.015 124.3C398.715 124.9 398.415 125.3 397.815 125.6C397.315 125.9 396.815 126.3 396.315 126.6C394.315 128 392.515 129.5 390.415 130.8C390.315 130.8 390.115 131 390.015 131.1C389.115 132.1 387.915 132.6 386.715 133.1C386.015 133.4 385.315 133.7 384.615 134.1C383.715 134.6 382.915 135.2 382.115 135.8C381.915 136 381.815 136.5 382.115 136.8C382.515 137.4 383.015 137.9 383.615 138.2C384.415 138.7 385.315 139.1 386.015 139.7C387.415 140.8 388.915 141.8 390.515 142.7C391.715 143.4 392.815 144.2 393.715 145.2C395.115 146.6 396.515 148 397.915 149.4C398.315 149.8 398.615 150.1 399.015 150.4C400.415 151.5 402.515 153.4 403.515 154.5C403.615 154.6 403.715 154.7 403.815 154.9C404.015 155.2 404.315 155.5 404.315 155.8C404.515 156.6 405.015 157.2 405.515 157.8C406.115 158.5 406.515 159.4 406.515 160.4C406.515 161.1 406.815 161.7 407.015 162.4C407.315 163.4 408.015 164 408.815 164.5C408.915 164.5 409.415 164.5 409.515 164.5C409.715 164.3 409.915 164.1 410.015 163.9C410.815 162.2 411.715 160.5 412.715 158.9C413.515 157.6 414.215 156.2 415.215 155C416.615 153.3 418.015 151.8 419.815 150.5C421.315 149.5 422.715 148.3 423.915 147C425.115 145.7 426.415 144.6 427.615 143.4C428.315 142.7 429.215 142 430.115 141.6C431.115 141.2 431.915 140.7 432.815 140.1C434.015 139.3 435.315 138.6 436.715 138.2C437.415 138 438.215 137.7 438.915 137.4C439.515 137.2 439.915 136.8 440.315 136.3C440.415 136.1 440.515 135.8 440.515 135.7L440.415 136ZM203.615 244C203.615 243.2 203.515 242.4 203.615 241.6C203.715 239.6 203.015 237.9 202.415 236.1C202.215 235.6 201.815 235.2 201.415 235C201.115 234.8 200.715 235 200.515 235.2C200.415 235.3 200.215 235.5 200.215 235.6C199.915 236.8 199.515 237.9 199.515 239.1C199.515 239.7 199.515 240.3 199.415 240.9C199.015 242.2 199.015 243.6 199.015 245C199.015 247 199.115 249 199.015 250.9C199.015 251.2 199.015 251.6 199.015 251.9C199.115 253.1 199.015 254.3 199.015 255.5C199.015 256.9 199.015 258.2 199.315 259.6C199.415 260 199.515 260.4 199.515 260.9C199.515 261.8 199.615 262.8 199.515 263.7C199.515 264.9 199.715 266.1 200.015 267.3C200.315 268.6 200.715 269.7 201.615 270.8C202.415 271.7 202.715 272.9 202.315 274.2C202.115 275 202.115 275.9 202.115 276.8C202.115 277.4 202.215 278 202.615 278.5C203.415 279.5 203.715 280.6 203.715 281.9C203.715 282.1 203.715 282.2 203.715 282.4C203.915 283.5 204.115 284.6 204.915 285.4C205.815 286.3 206.215 287.4 206.115 288.7C206.115 289.7 206.415 290.6 206.815 291.4C207.015 291.7 207.115 292 207.315 292.3C208.015 293.1 208.315 294.1 208.615 295.1C208.915 296.1 209.415 296.8 210.115 297.4C210.415 297.7 210.915 297.8 211.315 297.6C212.315 297.2 213.015 296.5 213.715 295.7C214.315 295.1 214.815 294.4 215.015 293.5C215.215 292.8 215.415 292.2 215.715 291.6C216.015 290.8 216.515 290.1 217.315 289.6C217.915 289.3 218.415 288.8 218.915 288.3C220.015 287.1 220.315 285.8 219.915 284.3C219.615 283.2 219.115 282.2 218.315 281.4C217.915 281 217.615 280.7 217.215 280.3C216.115 279.4 215.415 278.3 214.815 277C214.515 276.4 214.315 275.9 214.415 275.3C214.415 274.2 214.115 273.1 213.715 272.1C213.115 270.5 212.315 269 211.015 267.8C210.615 267.5 210.415 267 210.215 266.5C209.715 265 209.515 263.5 209.215 262C209.015 261 208.815 260.2 208.215 259.4C207.515 258.6 207.215 257.6 207.215 256.5C207.215 256.1 207.215 255.6 207.015 255.2C206.615 253.8 206.015 252.4 205.215 251.2C204.815 250.6 204.515 250 204.115 249.5C203.515 248.6 203.415 247.6 203.415 246.5C203.415 245.6 203.515 244.8 203.615 244ZM303.115 31.6C303.115 30.3 303.115 29 303.115 27.7C303.115 27 303.115 26.3 302.915 25.7C302.515 24.4 302.415 23.2 302.515 21.9C302.515 20.4 302.215 19 301.815 17.6C301.415 16.2 300.915 15.9 299.615 15.9C299.315 15.9 299.115 15.9 298.815 15.9C298.015 15.9 297.315 15.9 296.515 15.5C296.215 15.3 295.815 15.3 295.515 15.3C294.715 15.3 294.015 15.4 293.415 16C291.715 17.4 290.515 19.2 289.615 21.1C289.315 21.7 289.115 22.4 289.115 23.1C289.115 24.6 289.115 26 288.715 27.5C288.715 27.7 288.715 28 288.715 28.3C288.815 29.3 288.915 30.4 289.215 31.3C289.615 32.5 289.515 33.7 289.515 34.9C289.515 35.7 289.515 36.5 289.715 37.2C290.115 38.5 290.115 39.9 290.115 41.3C290.115 43.6 289.915 45.9 290.515 48.2C290.515 48.5 290.515 48.9 290.515 49.2C290.515 50 290.715 50.7 291.015 51.5C291.415 52.8 292.615 53.7 293.915 53.7C295.615 53.7 297.315 53.7 299.115 53.7C300.415 53.7 301.815 52.3 301.915 51.1C301.915 50.8 301.915 50.6 301.915 50.3C301.815 49.1 302.115 47.9 302.615 46.8C303.615 44.2 303.715 41 303.215 38.2C303.115 37.3 302.915 36.5 302.915 35.6C302.915 34.3 302.915 33 302.915 31.7L303.115 31.6ZM90.9148 53.6C91.7148 53.6 92.4148 53.6 93.2148 53.6C93.9148 53.6 94.5148 53.3 95.1148 52.9C95.8148 52.3 96.1148 51.6 96.1148 50.6C96.1148 50.3 96.1148 49.9 96.1148 49.6C96.1148 48.8 96.3148 48.1 96.6148 47.4C97.3148 45.9 97.6148 44.3 97.6148 42.6C97.6148 41.7 97.6148 40.7 97.6148 39.8C97.6148 39 97.6148 38.3 97.3148 37.5C97.0148 36.8 97.1148 36 97.1148 35.2C97.1148 33 97.1148 30.9 97.1148 28.7C97.1148 27.2 97.1148 25.8 96.7148 24.4C96.5148 23.9 96.6148 23.4 96.6148 22.9C96.6148 22.3 96.6148 21.7 96.6148 21.1C96.6148 19.6 96.1148 18.2 95.5148 16.9C95.3148 16.4 94.8148 16.1 94.3148 16.1C94.3148 16.1 94.1148 16.1 94.0148 16.1C92.7148 16.1 91.4148 16.1 90.2148 15.6C90.0148 15.5 89.7148 15.6 89.4148 15.5C88.7148 15.5 88.0148 15.6 87.5148 16.1C86.4148 17.2 85.2148 18.2 84.6148 19.7C84.6148 19.9 84.3148 20.1 84.2148 20.4C83.5148 21.4 83.2148 22.6 83.1148 23.8C83.1148 25.5 83.1148 27.2 83.1148 29C83.1148 29.7 83.1148 30.4 83.3148 31C83.8148 32.3 83.7148 33.7 83.7148 35.1C83.7148 35.9 83.7148 36.7 83.9148 37.4C84.3148 38.7 84.3148 39.9 84.3148 41.2C84.3148 41.8 84.3148 42.4 84.3148 43C84.6148 44.1 84.5148 45.2 84.6148 46.3C84.6148 47 84.6148 47.7 84.8148 48.4C85.0148 49.3 85.2148 50.2 85.2148 51.2C85.2148 52 85.7148 52.6 86.4148 53.1C87.1148 53.6 87.9148 53.9 88.8148 53.8C89.5148 53.8 90.2148 53.8 90.9148 53.8V53.6ZM274.715 357.1C275.315 357.1 275.715 356.9 275.915 356.5C276.115 356.2 276.315 355.9 276.415 355.6C276.915 354.5 277.415 353.4 278.315 352.6C278.615 352.2 278.815 351.7 279.115 351.3C279.315 350.8 279.415 350.3 279.715 349.9C280.315 349 280.615 348 280.815 347C281.015 346 281.315 345.2 282.015 344.5C282.615 343.9 282.915 343.3 283.115 342.5C283.315 341.8 283.615 341.2 284.115 340.7C284.815 340 285.115 339.1 285.415 338.2C285.615 337.6 285.415 337 284.915 336.6C284.315 336 283.615 335.7 282.915 335.6C281.915 335.4 281.115 335 280.315 334.6C279.215 334 278.015 333.5 276.715 333.2C275.915 333 275.115 332.6 274.315 332.3C274.015 332.2 273.715 332 273.315 331.9C273.015 331.9 272.615 331.9 272.315 332.1C271.015 333.3 269.615 334.5 269.015 336.3C268.615 337.7 267.915 339 266.715 340C266.115 340.5 265.715 341.2 265.515 342C265.315 342.8 264.915 343.4 264.515 344.1C264.015 344.8 262.615 347.9 262.315 348.9C262.215 349.3 262.015 349.7 261.915 350.1C261.815 350.6 261.915 351.1 262.215 351.6C263.115 352.7 264.315 353.4 265.515 354C266.315 354.4 267.215 354.8 268.115 355.2C268.715 355.5 269.215 355.7 269.815 355.7C271.015 355.7 272.015 356.1 273.015 356.6C273.415 356.8 273.815 357 274.215 357.1C274.415 357.1 274.715 357.1 274.815 357.1H274.715ZM259.215 325.9C259.215 324.6 259.115 324.2 258.415 323.5C257.615 322.6 256.615 321.9 255.415 321.5C254.815 321.3 254.315 321 253.915 320.6C253.615 320.3 253.315 320 253.015 319.7C251.815 318.3 250.215 317.8 248.515 317.4C247.515 317.2 246.415 317.4 245.715 318.3C245.415 318.7 245.015 319 244.615 319.4C243.515 320.4 242.815 321.7 242.215 323C241.815 324.1 241.415 325.3 241.215 326.5C241.015 327.8 240.415 328.8 239.515 329.6C238.615 330.4 238.015 331.4 237.415 332.5C236.715 334 236.915 335.4 237.915 336.6C238.315 337.1 238.915 337.6 239.415 338C240.015 338.4 240.515 338.8 241.015 339.3C243.015 341.4 242.415 340.8 245.015 342.1C245.815 342.5 246.615 342.8 247.415 343.1C247.615 343.1 247.715 343.1 247.915 343.2C248.315 343.2 248.615 343.2 248.915 342.9C249.215 342.6 249.515 342.3 249.715 341.9C250.015 341.3 250.515 340.8 250.915 340.3C251.915 339.3 252.615 338.2 253.115 336.9C253.315 336.4 253.615 336 253.815 335.5C254.215 334.8 254.615 334.2 254.915 333.5C255.315 332.7 255.815 331.9 256.515 331.2C257.715 330 258.315 328.5 258.915 327C259.115 326.6 259.115 326.2 259.115 326L259.215 325.9ZM301.915 363.9C302.215 363.9 302.415 363.9 302.715 363.9C303.715 363.9 304.515 363 304.615 362.4C304.815 361 305.415 359.8 306.315 358.7C306.415 358.6 306.515 358.4 306.515 358.2C307.015 357.1 307.615 356.1 308.315 355.1C309.315 353.7 309.915 352.1 310.415 350.4C310.715 349.1 311.115 347.9 311.715 346.8C311.915 346.4 312.115 346 312.215 345.6C312.315 345.2 312.415 344.8 312.415 344.3C312.415 343.7 312.215 343.3 311.715 343C311.315 342.8 310.915 342.6 310.515 342.6C308.915 342.6 307.315 341.8 305.715 341.9C303.715 341.3 301.615 341.5 299.615 341.5C299.015 341.5 298.415 341.8 298.115 342.4C297.515 343.5 296.915 344.7 296.515 345.9C296.015 347.1 295.515 348.3 294.715 349.3C294.415 349.7 294.215 350.2 293.915 350.6C292.615 353 291.615 355.6 290.415 358.1C290.215 358.5 290.115 358.9 290.215 359.4C290.215 359.9 290.515 360.3 290.915 360.4C292.315 360.8 293.615 361.6 294.915 362.2C295.415 362.5 296.015 362.7 296.615 362.7C297.715 362.7 298.815 363 299.915 363.4C300.615 363.6 301.215 363.8 301.915 363.7V363.9ZM236.515 306.1C236.515 305.9 236.515 305.5 236.315 305.1C235.915 304 235.215 303.2 234.215 302.6C233.015 302 232.215 301 231.515 300C231.315 299.7 231.115 299.4 230.915 299.2C230.415 298.6 229.715 298.2 229.015 297.9C228.615 297.7 227.815 298 227.615 298.4C227.615 298.5 227.415 298.7 227.415 298.9C227.015 300.4 226.215 301.5 225.115 302.5C224.715 302.9 224.415 303.4 224.015 303.9C223.615 304.4 223.315 305 223.215 305.7C223.015 306.8 222.415 307.8 221.815 308.7C221.415 309.4 220.915 310 220.515 310.6C220.315 311 220.015 311.3 219.815 311.7C219.415 312.4 219.415 313.2 219.815 313.9C220.015 314.4 220.315 314.8 220.415 315.3C220.915 316.4 221.515 317.4 222.415 318.3C222.815 318.6 223.015 319.1 223.315 319.5C223.815 320.3 224.315 321.1 224.915 321.8C225.415 322.5 226.215 322.6 227.015 322.5C227.515 322.5 228.015 322.1 228.315 321.7C229.015 320.8 229.815 319.8 230.115 318.6C230.415 317.6 230.815 316.7 231.515 315.9C231.815 315.6 232.015 315.2 232.215 314.8C232.915 313.6 233.615 312.5 234.215 311.2C234.815 310 235.515 308.8 236.215 307.6C236.515 307.2 236.615 306.7 236.615 305.9L236.515 306.1Z" fill="white"/>
<path d="M313.115 119.6C313.415 119.6 313.615 119.6 313.915 119.6C317.115 119.6 317.515 119.6 320.315 121.3C320.815 121.6 321.115 122 321.215 122.5C321.215 123.3 321.415 124 321.615 124.8C321.815 125.4 321.615 126 321.415 126.6C321.215 126.9 321.115 127.2 320.915 127.5C320.015 128.7 319.115 129.8 318.215 131C317.915 131.4 317.515 131.7 317.015 132C316.615 132.2 316.215 132.4 315.915 132.6C315.115 133 314.315 133.3 313.415 133.3C312.315 133.3 311.415 133.6 310.515 134.3C309.615 135 308.515 135.4 307.515 135.6C306.615 135.8 305.715 136 304.815 136.5C303.715 137.1 302.615 137.4 301.315 137.3C300.415 137.3 299.615 137.5 298.915 138C298.115 138.6 297.215 138.9 296.315 138.9C295.615 138.9 295.015 139.2 294.315 139.4C293.615 139.6 293.015 139.9 292.515 140.4C291.515 141.5 290.415 142.1 289.015 142.5C288.215 142.7 287.415 143.2 286.915 143.9C286.015 144.9 284.815 145.7 283.615 146.3C282.715 146.7 282.015 147.3 281.415 148C281.015 148.5 280.815 149 280.515 149.5C280.115 150.4 279.415 151 278.415 151.4C278.215 151.4 278.115 151.6 277.915 151.6C275.515 152.1 274.215 154 272.715 155.7C272.015 156.5 271.615 157.4 271.115 158.4C270.315 159.9 270.315 161.5 271.115 163.1C271.715 164.3 272.215 165.6 273.215 166.6C273.515 166.9 273.715 167.3 273.715 167.8C273.715 169.1 274.215 170.1 275.015 171.1C275.515 171.7 275.815 172.4 275.715 173.3C275.715 174.4 276.015 175.3 276.615 176.2C277.015 176.7 277.215 177.2 277.415 177.8C278.015 179.5 278.815 181.1 280.215 182.4C280.715 182.8 280.915 183.4 281.015 184C281.015 184.4 281.015 184.9 281.215 185.3C281.515 186.7 282.115 187.9 283.115 188.9C283.315 189.1 283.615 189.4 283.815 189.6C284.715 190.4 285.215 191.3 285.615 192.4C286.215 194.2 287.115 195.9 288.115 197.5C288.315 197.9 288.515 198.2 288.815 198.6C289.415 199.4 289.815 200.2 290.015 201.1C290.315 202.2 290.815 203.2 291.415 204.1C292.115 205.2 292.615 206.4 293.215 207.5C293.915 209 294.815 210.3 295.915 211.5C296.215 211.9 296.615 212.3 296.815 212.8C297.315 214.4 298.315 215.7 299.315 217C300.315 218.3 301.215 219.6 301.915 221.1C302.215 221.8 302.615 222.5 302.915 223.2C303.515 224.5 304.215 225.6 305.315 226.5C306.415 227.4 307.015 228.7 307.115 230.1C307.315 232.5 308.715 234.2 310.015 236C310.215 236.2 310.415 236.4 310.515 236.6C310.915 237 311.115 237.4 311.315 237.9C311.615 239 312.115 240 312.815 240.9C313.315 241.6 313.715 242.4 313.915 243.2C314.215 244.3 314.815 245.2 315.715 246C316.715 246.9 317.515 248.1 318.315 249.2C319.215 250.5 320.215 251.7 321.215 252.8C321.815 253.5 322.315 254.1 322.515 255C322.815 256.2 323.415 257.2 324.215 258.1C324.915 258.9 325.315 259.8 325.315 260.9C325.315 261.5 325.615 262.1 326.115 262.4C327.515 263.2 328.215 264.3 328.415 265.9C328.615 267.2 329.415 268.3 330.115 269.4C330.315 269.7 330.615 269.9 330.915 270.1C331.315 270.4 331.815 270.5 332.315 270.8C333.015 271.2 333.515 271.8 333.515 272.7C333.615 274.6 334.715 276.1 335.615 277.6C335.915 278 336.315 278.4 336.515 278.8C337.115 280 337.915 281 338.815 281.9C339.215 282.3 339.615 282.8 339.815 283.4C340.315 284.8 341.215 286 342.115 287.1C342.615 287.8 343.215 288.4 343.415 289.3C344.115 290.3 344.615 291.4 345.515 292.2C346.015 292.6 346.615 292.9 347.115 292.6C348.615 291.8 350.215 291.7 351.915 291.7C352.615 291.7 353.315 291.6 353.915 291.3C354.615 291 355.415 290.8 356.115 290.6C356.815 290.4 357.415 290.2 358.115 290.2C359.015 290.2 359.815 289.9 360.615 289.6C361.315 289.3 362.015 289 362.815 288.8C363.915 288.5 364.915 288 365.915 287.5C366.515 287.2 367.115 286.9 367.615 286.4C368.015 286 368.415 285.7 368.915 285.5C370.315 285.1 371.415 284.4 372.315 283.3C373.315 282.8 374.115 282 375.015 281.3C375.615 280.9 376.315 280.4 377.015 280.1C377.915 279.7 378.815 279.1 379.815 278.7C381.115 278.1 382.115 277.2 382.915 276.1C383.215 275.8 383.415 275.4 383.615 275.1C383.915 274.8 384.315 274.6 384.615 274.3C384.815 274.2 385.115 274.1 385.315 274.1C386.415 273.8 387.315 273.1 387.915 272.1C388.615 270.8 389.715 269.8 390.815 268.9C391.315 268.5 391.715 268.1 392.115 267.6C393.015 266.6 394.015 265.6 395.015 264.6C395.315 264.3 395.715 264.1 396.015 263.9C397.315 263.1 398.715 262.5 400.215 262C401.115 261.7 401.915 261.8 402.715 262.2C403.715 262.7 404.415 263.3 404.915 264.3C405.215 265 405.615 265.6 406.215 266.2C406.415 266.4 406.615 266.8 406.815 267.1C407.415 268.1 407.415 269 406.815 270C405.915 271.7 405.015 273.5 403.815 275.1C402.915 276.2 402.115 277.3 401.015 278.1C399.715 279.1 398.815 280.3 398.115 281.7C398.115 281.9 398.015 282 397.915 282.2C397.415 283.1 396.815 283.7 395.815 284.1C395.115 284.3 394.515 284.7 394.115 285.2C393.315 286 392.315 286.6 391.315 287C391.115 287 391.015 287.2 390.815 287.2C389.715 287.7 388.715 288.4 388.215 289.6C387.915 290.3 387.415 290.7 386.815 291.1C385.115 292.1 383.415 293.1 381.815 294.3C381.315 294.7 380.615 294.9 380.015 295.2C378.415 295.9 376.915 296.7 375.615 297.8C374.315 298.9 372.815 299.8 371.115 300.2C370.415 300.4 369.815 300.7 369.215 301C368.515 301.3 367.815 301.7 367.115 302.1C366.315 302.6 365.415 302.8 364.415 302.7C362.815 302.5 361.315 302.9 359.915 303.6C358.115 304.4 356.215 304.9 354.315 305.6C354.115 305.6 353.815 305.7 353.515 305.8C351.215 306 348.915 306.5 346.615 306.9C345.715 307.1 344.715 307.3 343.815 307.6C342.315 308.1 340.815 308.4 339.215 308.4C337.915 308.4 336.715 308.8 335.415 309.2C334.215 309.6 333.115 309.7 331.915 309.2C331.315 309 330.715 308.9 330.115 308.9C328.815 308.9 327.515 308.9 326.215 308.9C325.615 308.9 325.015 308.9 324.415 308.9C323.515 308.9 322.515 308.9 321.615 308.5C321.215 308.4 320.815 308.3 320.315 308.3C319.315 308.3 318.415 308.1 317.515 307.9C316.515 307.7 315.415 307.8 314.415 307.8C313.415 307.8 312.515 307.7 311.715 307.2C310.515 306.5 309.115 306.2 307.715 306.3C306.515 306.3 305.315 306 304.315 305.2C304.115 305 303.915 304.9 303.715 304.8C302.815 304.3 301.715 304.2 300.915 303.5C299.815 303.1 298.815 302.7 297.715 302.4C296.715 302.1 295.715 301.8 294.715 301.6C293.915 301.5 293.015 301.2 292.215 300.8C291.215 300.3 290.115 300 289.115 299.6C288.315 299.3 287.515 299 286.715 298.6C285.815 298.2 284.915 297.6 284.115 296.9C283.715 296.5 283.215 296.1 282.715 295.8C281.015 295.1 279.615 294 278.215 292.8C276.815 291.6 275.215 290.8 273.515 290.2C272.615 289.9 271.915 289.4 271.515 288.7C270.315 286.7 268.515 285.4 266.715 284.1C265.615 283.3 264.615 282.4 263.815 281.2C263.715 281 263.515 280.7 263.315 280.6C261.915 279.8 260.915 278.3 259.515 277.5C258.815 277.1 258.315 276.5 258.015 275.8C257.815 275.4 257.715 275 257.415 274.6C256.615 273.3 255.915 271.9 254.515 271.1C253.915 270.8 253.515 270.1 253.215 269.5C253.015 269 252.715 268.4 252.415 267.9C252.015 267 251.515 266.2 250.815 265.6C250.415 265.2 250.015 264.7 249.715 264.2C249.515 263.9 249.315 263.6 249.115 263.4C247.615 262.1 246.715 260.3 245.515 258.7C245.215 258.4 245.015 258 244.915 257.6C244.615 256.8 244.315 256 243.815 255.3C243.415 254.7 243.115 253.9 243.115 253.1C243.115 252.2 242.815 251.4 242.415 250.6C241.715 249.3 241.115 248 240.515 246.7C240.215 246.1 240.015 245.4 240.015 244.7C240.015 243.5 239.715 242.3 239.215 241.2C238.715 240.2 238.515 239.1 238.415 238C238.315 236.8 238.015 235.6 237.515 234.5C236.915 233.2 236.515 231.8 236.315 230.3C236.315 229.3 236.015 228.3 235.615 227.3C235.315 226.4 235.215 225.5 235.615 224.5C236.015 223.5 235.915 222.5 235.615 221.5C234.915 219.3 234.615 217.2 234.915 214.9C235.015 213.8 234.915 212.7 235.315 211.6C235.315 209.6 235.715 207.7 235.115 205.7C234.915 205.1 234.915 204.5 235.115 203.9C235.115 203.7 235.215 203.6 235.315 203.4C235.815 202.2 236.015 200.9 236.015 199.6C236.015 199.3 236.015 198.9 236.015 198.6C236.315 197.6 236.315 196.6 236.315 195.5C236.315 194.6 236.515 193.8 236.815 193C237.315 191.6 237.715 190.2 237.915 188.8C238.015 188 238.315 187.3 238.615 186.6C238.815 186.1 239.015 185.6 238.915 185.1C238.915 184.3 239.115 183.5 239.615 183C240.315 182.2 240.715 181.2 240.815 180.2C240.915 179.1 241.215 178.2 241.815 177.4C242.315 176.8 242.515 176 242.515 175.2C242.515 174 243.115 173.1 243.915 172.3C244.215 172 244.515 171.7 244.815 171.4C245.115 171.1 245.415 170.7 245.515 170.3C246.015 168.8 246.815 167.5 247.715 166.2C248.615 164.9 249.415 163.6 250.315 162.3C250.615 161.9 250.815 161.4 250.815 160.9C250.815 160.1 251.115 159.4 251.715 158.8C252.415 158.2 252.915 157.3 253.315 156.5C253.615 156 254.015 155.5 254.415 155.1C255.715 153.7 257.015 152.4 258.415 151.1C259.315 150.2 260.215 149.2 260.715 148C261.015 147.4 261.415 146.8 262.015 146.4C263.115 145.5 264.115 144.4 265.415 143.6C266.215 143.1 266.815 142.3 267.115 141.4C267.415 140.6 268.115 140 268.915 139.6C269.915 139.1 270.915 138.6 272.015 138.3C272.915 138 273.715 137.5 274.215 136.7C274.915 135.5 276.115 134.7 277.315 134C278.415 133.4 279.315 132.6 280.115 131.7C280.615 131.2 281.115 130.7 281.815 130.7C282.515 130.7 283.115 130.3 283.715 130C285.115 129.3 286.515 128.6 287.915 128C288.415 127.8 288.815 127.5 289.215 127.2C290.215 126.4 291.515 125.9 292.715 125.7C293.715 125.5 294.715 125.2 295.515 124.5C295.915 124.2 296.415 124 296.915 123.9C298.315 123.6 299.715 123.2 301.115 122.8C301.515 122.7 301.915 122.5 302.315 122.5C303.415 122.5 304.315 122 305.215 121.5C306.315 120.9 307.315 120.2 308.515 120C309.615 119.8 310.715 119.9 311.815 119.8C312.015 119.8 312.115 119.8 312.315 119.8L313.115 119.6Z" fill="white"/>
</svg>
