<?xml version="1.0" encoding="UTF-8"?>
<svg width="74px" height="80px" viewBox="0 0 74 80" version="1.1" xmlns="http://www.w3.org/2000/svg" xmlns:xlink="http://www.w3.org/1999/xlink">
    <title>payroll_easy_ruphie</title>
    <g id="Page-1" stroke="none" stroke-width="1" fill="none" fill-rule="evenodd">
        <g id="Artboard" transform="translate(-473.000000, -469.000000)" fill-rule="nonzero">
            <g id="payroll_easy_ruphie" transform="translate(473.000000, 469.000000)">
                <polygon id="Fill-1" fill="#F9AB83" points="17.0885277 28 17.0885277 33.2492153 30.4997839 33.2492153 30.4997839 35.4195377 17 35.4195377 17 40.6694361 30.4997839 40.6694361 30.4997839 45.795687 17.0885277 45.795687 17.0885277 51.4301909 17.1127345 51.4301909 30.849745 65 31.1471427 65 40.6493473 64.980189 26.9310106 51.4301909 36.5514827 51.4301909 36.5514827 50.2551974 36.5514827 45.795687 36.5514827 40.6694361 40.9114723 40.6694361 40.9114723 35.4195377 36.5514827 35.4195377 36.5514827 33.2492153 41 33.2492153 41 28"></polygon>
                <g id="Square" fill="#F2635D">
                    <path d="M55.1372549,32.4324324 L55.1372549,80 L7.25490196,80 L7.25490196,73.2046335 L48.2969188,73.2046335 L48.2969188,32.4324324 L55.1372549,32.4324324 Z M31.1960784,12.2522523 L31.1960784,19.0990991 L6.93246188,19.0990991 L6.93246188,67.027027 L0,67.027027 L0,12.2522523 L31.1960784,12.2522523 Z M69.1726757,0 L74,4.7921997 L51.2552853,27.3873874 L46.4313725,22.5951877 L69.1726757,0 Z M39.7178192,5.04504505 L49.3333333,14.5961853 L44.4390436,19.4594595 L34.8235294,9.90831921 L39.7178192,5.04504505 Z" id="path-1"></path>
                </g>
            </g>
        </g>
    </g>
</svg>