<svg width="391" height="452" viewBox="0 0 391 452" fill="none" xmlns="http://www.w3.org/2000/svg">
<path fill-rule="evenodd" clip-rule="evenodd" d="M390.338 228.625C389.138 224.625 389.338 220.925 389.338 216.825C389.238 215.225 388.438 214.125 388.138 212.625C387.538 209.025 387.438 204.325 385.838 201.025C384.138 198.325 383.538 196.025 382.938 192.925C382.638 190.825 381.338 189.225 380.538 187.325C379.938 186.125 380.138 184.725 379.438 183.525C378.238 181.525 377.138 180.025 376.338 178.125C374.438 174.525 371.038 171.525 369.238 167.825C367.038 164.725 365.638 161.625 362.738 159.225C361.038 157.325 359.738 154.825 357.738 153.025C356.438 151.925 354.738 151.025 353.538 149.725C349.338 145.125 344.938 140.525 338.938 138.025C334.938 136.325 335.838 131.625 335.538 128.125C335.338 122.725 334.438 118.625 335.538 113.525C335.338 108.825 336.138 104.025 335.538 99.3255C335.738 96.7255 335.938 94.9255 335.538 92.1255C335.738 90.0255 335.838 87.9255 335.238 85.9255C334.538 83.8255 336.038 81.8255 335.738 79.7255C335.438 76.9255 335.138 73.7255 335.038 71.1255C335.038 70.2255 334.938 69.4255 334.838 68.5255C334.338 64.9255 336.938 61.6255 335.938 58.1255C335.438 56.1255 334.738 54.2255 334.838 52.1255C334.838 47.2255 335.638 42.3255 335.338 37.4255C335.038 34.9255 333.138 32.7255 330.938 31.3255C329.238 30.4255 327.338 30.4255 325.438 30.0255C321.838 29.5255 317.938 28.9255 314.238 29.0255C310.138 29.0255 305.038 31.3255 301.338 29.1255C299.838 27.7255 300.038 25.1255 299.938 23.2255C299.838 20.4255 300.138 17.9255 300.238 15.3255C300.238 11.9255 298.938 8.62546 298.238 5.42546C297.838 4.22546 296.638 3.32546 295.538 2.82546C293.738 1.92546 292.438 0.625462 290.738 0.225462C283.938 -0.374538 276.838 1.22546 270.038 0.225462C265.138 0.725462 260.538 -0.474538 255.638 0.225462C252.438 0.825462 248.938 0.925461 246.738 3.42546C244.438 6.12546 242.538 9.82546 244.738 12.8255C245.438 14.7255 244.538 16.9255 244.738 19.0255C244.638 21.6255 245.338 23.9255 245.138 26.0255C243.838 31.5255 234.138 28.4255 230.038 29.3255C226.738 30.3255 224.138 29.5255 220.738 29.8255C219.338 30.0255 217.838 30.4255 216.438 30.3255C214.538 30.3255 212.338 28.9255 210.238 28.8255C208.138 28.7255 206.038 29.6255 204.138 29.9255C200.038 30.3255 196.238 30.2255 192.138 29.9255C187.938 29.5255 183.238 29.7255 179.038 29.5255C175.838 30.4255 172.838 30.1255 169.538 29.7255C164.138 29.7255 158.738 29.7255 153.438 29.1255C149.738 29.3255 146.338 29.5255 142.638 29.3255C139.038 28.7255 135.738 29.3255 132.038 29.7255C128.238 30.0255 124.838 28.9255 121.138 28.7255C118.238 29.0255 116.538 30.2255 113.938 29.2255C112.838 29.0255 111.538 29.0255 110.838 28.0255C110.338 27.3255 110.438 26.3255 110.338 25.5255C110.138 22.0255 109.838 17.8255 109.538 14.1255C109.738 9.72546 107.638 5.72546 103.938 3.32546C102.138 1.82546 100.738 0.125461 98.4383 0.425461C91.3383 1.02546 83.8383 0.725462 76.6383 0.825462C71.0383 0.625462 61.4383 -0.674539 57.1383 3.42546C56.2383 4.32546 55.9383 5.72546 55.4383 6.82546C54.3383 8.62546 53.4383 10.6255 53.8383 12.7255C54.1383 14.8255 53.4383 17.4255 53.8383 19.7255C54.4383 22.5255 54.8383 25.4255 53.8383 28.2255C52.5383 30.4255 45.6383 29.6255 43.1383 29.8255C39.7383 29.3255 37.4383 29.7255 34.1383 29.6255C30.6383 29.6255 27.3383 29.2255 23.8383 29.8255C18.4383 29.0255 13.3383 29.0255 7.83826 29.6255C1.33826 32.1255 0.938261 40.1255 1.83826 46.2255C1.83826 51.4255 1.43826 56.1255 2.33826 61.1255C2.53826 65.2255 1.53826 68.9255 1.33826 73.1255C1.13826 75.3255 2.23827 77.4255 2.43827 79.4255C2.03827 82.2255 1.23826 84.6255 0.738262 87.4255C0.538262 89.2255 1.43827 90.3255 1.43827 92.3255C1.43827 93.7255 1.03827 95.3255 1.03827 96.7255C1.53827 100.825 1.73826 104.225 0.738262 108.125C0.738262 111.225 1.63826 114.425 1.63826 117.725C1.13826 122.325 1.43827 126.725 0.938267 131.325C0.338267 136.725 1.63827 142.225 1.53827 147.725C0.938265 151.025 1.73827 154.525 1.53827 157.825C0.638265 163.725 0.738267 169.525 0.438267 175.525C1.03827 181.925 2.03826 187.925 0.838261 194.425C0.138261 199.125 1.13826 203.425 0.838261 208.125C0.338261 212.925 0.838265 217.825 1.03827 222.725C1.63827 226.425 0.138265 229.625 0.538265 233.425C0.338265 236.725 -0.0617377 239.725 0.738262 243.125C0.538262 248.425 -0.0617361 253.325 1.13826 258.625C1.73826 262.025 0.838265 265.125 1.03827 268.525C1.33827 270.825 1.03826 272.525 0.838261 275.025C0.838261 280.725 1.13826 286.325 1.13826 291.925C0.538264 296.325 0.538265 300.825 1.03827 305.125C1.23827 307.825 1.63826 310.225 1.23826 312.825C0.738262 315.225 -0.961738 318.425 0.738262 320.825C2.53826 322.825 5.23826 324.525 7.63826 325.125C13.1383 325.625 19.1383 324.325 24.7383 324.725C27.6383 324.525 30.3383 325.525 33.3383 325.025C36.0383 324.425 39.2383 324.525 41.9383 325.325C44.8383 326.025 48.0383 325.725 51.0383 325.725C54.7383 325.725 57.5383 323.125 61.1383 324.625C63.4383 325.825 65.7383 325.225 68.2383 324.825C70.4383 324.825 73.3383 324.625 75.4383 324.425C78.2383 324.125 80.8383 324.425 83.5383 325.225C86.7383 325.225 89.6383 325.025 92.9383 325.225C95.7383 325.725 98.3383 324.825 101.238 324.725C105.738 324.225 109.738 325.925 114.138 325.425C116.538 325.225 118.338 324.825 120.738 324.725C123.738 324.825 126.238 325.725 129.138 325.125C132.938 324.925 136.138 325.425 140.038 325.125C145.638 324.625 145.338 325.425 141.138 328.725C137.538 332.325 134.138 336.325 130.138 339.425C124.238 344.225 117.438 347.925 112.538 354.025C109.638 357.225 105.738 359.025 103.138 362.525C102.138 363.625 101.838 365.325 101.238 366.425C99.9383 368.025 98.2383 369.725 96.6383 371.125C94.6383 372.425 92.8383 374.125 91.3383 375.825C89.7383 377.425 87.6383 378.425 86.1383 380.225C82.1383 383.925 79.4383 388.925 74.9383 392.025C70.2383 394.625 67.4383 399.925 62.6383 402.425C61.5383 403.125 61.1383 404.325 60.9383 405.525C60.6383 407.525 59.5383 409.225 59.2383 411.225C58.5383 419.525 65.7383 424.925 69.8383 431.225C72.1383 433.525 75.0383 435.425 76.7383 438.325C78.1383 440.525 80.5383 441.725 82.3383 443.625C84.9383 446.625 87.9383 450.425 91.9383 451.225C95.4383 451.625 99.7383 450.425 103.438 449.225C107.538 446.725 110.938 443.125 114.938 440.325C117.938 438.525 120.138 436.125 123.138 434.225C124.838 432.625 125.938 430.725 127.738 429.525C132.338 425.925 136.838 422.025 140.738 417.525C142.538 415.525 145.038 414.425 146.538 412.225C148.138 410.625 150.838 408.925 152.538 406.925C154.438 405.325 156.438 404.225 158.038 402.025C160.038 399.225 162.838 397.325 165.538 395.325C166.638 394.425 167.138 392.825 168.338 391.425C170.338 389.025 172.938 387.525 175.538 386.025C177.138 385.225 177.738 383.925 178.838 382.725C180.438 381.325 181.838 379.625 182.938 377.725C184.438 375.425 186.738 374.525 188.538 372.625C190.238 370.625 192.538 369.325 192.938 366.825C193.038 365.025 193.038 363.425 192.538 361.525C192.038 359.925 190.338 357.925 191.038 356.225C191.538 355.125 192.838 354.725 193.638 353.725C195.238 351.625 197.738 349.925 199.738 348.025C202.938 345.125 206.638 342.625 209.138 339.025C209.438 338.725 210.038 338.725 210.338 338.925C214.738 341.325 218.938 343.725 223.838 345.125C231.538 349.725 240.238 350.825 248.738 352.925C253.938 353.625 258.438 355.525 263.738 355.225C265.838 355.725 267.838 356.625 270.038 356.225C278.238 356.925 277.438 352.225 285.838 354.225C292.938 354.025 300.038 352.125 306.838 350.425C311.438 348.425 316.038 346.725 320.838 344.925C324.138 343.225 327.738 341.825 330.638 339.625C332.138 338.625 335.138 338.025 336.638 336.925C338.338 335.925 338.938 334.125 340.538 332.725C341.838 331.525 343.338 330.625 344.838 329.725C347.138 328.325 349.138 325.725 351.138 323.725C353.338 321.825 355.838 320.525 357.438 318.125C361.338 313.325 365.938 308.825 368.838 303.225C373.138 298.825 375.938 293.325 378.838 287.925C379.738 283.825 382.238 280.125 383.538 276.225C383.738 272.525 386.038 269.325 386.938 265.925C387.538 261.225 388.938 256.925 389.538 252.325C390.238 248.825 390.238 244.625 390.938 241.025C390.738 236.925 390.438 233.125 390.538 228.925L390.338 228.625ZM17.3383 193.625C17.3383 192.225 16.7383 190.325 16.5383 188.725C16.3383 186.425 16.3383 184.225 16.5383 182.025C16.5383 179.325 16.0383 176.225 16.5383 173.425C16.6383 172.325 16.8383 171.025 17.6383 170.325C18.2383 169.725 19.2383 169.625 20.0383 169.725C23.4383 169.725 27.1383 170.525 30.5383 170.025C36.3383 169.025 42.3383 169.725 48.2383 169.525C50.3383 169.425 52.1383 168.925 54.1383 169.925C55.8383 170.725 57.7383 170.225 59.4383 169.925C63.3383 169.325 67.9383 169.425 72.0383 170.025C74.3383 170.425 80.1383 169.525 80.9383 172.225C81.4383 173.925 80.5383 175.725 80.9383 177.425C82.1383 180.725 81.5383 184.425 80.9383 187.725C80.3383 191.825 81.0383 196.825 81.5383 200.025C81.9383 201.525 81.0383 202.525 80.8383 203.825C80.8383 204.725 81.2383 205.525 81.3383 206.425C81.4383 207.125 81.4383 207.825 81.4383 208.525C81.3383 210.325 81.8383 212.225 81.4383 214.025C80.7383 217.025 81.5383 220.125 81.4383 223.125C81.2383 224.825 81.5383 225.825 81.4383 227.425C81.4383 228.525 81.6383 230.025 81.0383 230.925C80.6383 231.525 79.7383 231.725 79.0383 231.925C75.6383 232.425 71.1383 232.825 67.6383 232.725C65.8383 232.625 64.5383 231.725 62.8383 231.725C61.7383 231.725 60.5383 232.125 59.3383 232.125C55.5383 231.825 51.2383 232.525 47.4383 232.825C45.1383 232.625 42.6383 232.425 40.3383 232.725C36.4383 232.225 32.4383 232.025 28.5383 232.025C25.4383 232.325 22.5383 233.325 19.4383 232.925C18.4383 232.925 17.3383 232.625 16.8383 231.925C16.0383 231.325 16.1383 230.225 16.2383 229.225C15.9383 226.225 17.0383 222.925 17.0383 219.925C17.0383 218.625 16.4383 217.425 16.2383 216.025C16.1383 214.225 16.5383 212.325 16.4383 210.725C16.4383 210.025 16.2383 209.225 16.2383 208.525C16.4383 207.225 16.2383 205.925 16.0383 204.525C15.7383 200.925 16.7383 197.225 17.0383 193.825L17.3383 193.625ZM81.4383 302.825C81.4383 304.625 81.7383 306.725 80.6383 308.225C79.7383 309.325 78.2383 309.025 76.9383 308.925C75.1383 308.825 72.9383 309.525 70.4383 310.125C66.5383 311.425 63.0383 308.825 59.1383 308.625C56.1383 308.425 53.6383 309.525 50.6383 309.725C48.9383 309.925 47.2383 309.325 45.5383 309.225C44.2383 309.225 43.0383 309.625 41.7383 309.625C39.3383 309.625 37.0383 308.425 34.5383 308.825C32.2383 309.325 30.6383 310.625 28.5383 309.325C27.2383 308.725 25.8383 309.025 24.5383 309.025C23.4383 309.025 22.3383 308.825 20.8383 308.725C18.1383 308.725 17.0383 307.325 17.2383 304.725C16.9383 286.525 16.7383 268.325 16.4383 250.225C16.4383 249.125 16.4383 247.725 17.1383 247.025C18.5383 245.725 21.2383 246.825 22.7383 246.725C24.7383 246.725 26.9383 246.725 28.9383 246.525C30.2383 246.325 31.6383 245.525 32.9383 245.625C34.3383 245.625 35.5383 246.225 36.8383 246.525C38.2383 246.825 39.9383 246.825 41.6383 246.525C43.6383 246.225 46.0383 246.525 47.9383 246.425C48.9383 246.425 49.9383 245.825 50.7383 245.825C52.1383 245.725 53.6383 246.225 55.1383 246.325C58.6383 246.725 61.7383 245.425 65.0383 245.725C66.7383 246.225 68.3383 246.925 70.2383 246.625C72.2383 246.325 74.9383 246.625 77.0383 246.825C78.2383 246.925 79.6383 246.525 80.4383 247.125C80.8383 247.425 80.9383 248.625 81.0383 249.325C81.0383 251.625 81.0383 254.125 81.0383 256.425C81.0383 257.825 81.5383 259.125 81.4383 260.525C81.4383 262.225 80.8383 263.925 81.0383 265.625C81.2383 267.825 81.8383 269.525 81.4383 272.025C81.1383 273.925 81.4383 275.925 81.4383 277.725C81.2383 279.725 81.1383 282.125 81.4383 284.225C81.6383 286.125 81.1383 287.625 81.3383 289.325C81.3383 290.425 81.7383 291.725 81.7383 293.125C81.6383 294.925 81.3383 296.525 81.2383 298.325C81.2383 299.725 81.3383 301.025 81.2383 302.625L81.4383 302.825ZM81.9383 111.325C81.7383 112.325 81.9383 113.525 82.1383 114.725C82.5383 117.525 81.9383 120.525 81.9383 123.325C82.3383 126.525 81.7383 130.125 81.9383 133.325C81.9383 134.525 82.0383 135.325 82.2383 136.625C82.2383 137.825 82.0383 139.025 82.0383 140.225C82.1383 142.125 81.8383 143.825 81.6383 145.625C81.3383 148.525 83.7383 154.625 80.2383 156.125C78.3383 156.825 75.8383 156.225 73.8383 156.125C72.5383 156.125 71.3383 156.325 70.0383 156.225C66.0383 155.925 62.8383 154.125 59.4383 155.625C58.9383 155.625 58.5383 155.725 58.0383 155.725C55.7383 155.525 53.5383 154.825 51.4383 155.125C48.5383 155.825 45.6383 155.725 42.7383 156.025C40.6383 156.425 38.3383 155.625 36.1383 155.625C33.5383 155.725 30.4383 156.225 27.9383 155.825C24.5383 154.925 17.0383 157.925 17.9383 151.925C17.9383 150.625 18.0383 149.325 17.8383 148.025C17.4383 145.325 18.6383 142.825 18.2383 140.125C17.9383 137.625 17.6383 135.025 18.2383 132.625C18.5383 131.125 18.9383 129.525 18.6383 127.925C18.3383 125.825 16.7383 124.625 16.5383 122.525C16.0383 119.425 18.2383 114.725 16.9383 112.125C15.5383 109.725 16.7383 107.625 16.5383 104.925C16.5383 103.925 16.2383 102.525 16.9383 102.025C19.4383 100.825 22.7383 101.825 25.4383 101.725C28.8383 101.925 32.2383 101.125 35.7383 101.725C39.2383 102.425 41.6383 101.325 45.5383 101.425C47.0383 101.525 48.6383 101.925 50.1383 102.025C52.2383 101.925 53.7383 100.525 55.9383 101.225C59.8383 102.125 63.6383 101.425 67.5383 100.925C71.8383 100.725 75.4383 101.325 78.6383 100.925C80.2383 100.625 82.6383 101.025 82.5383 103.025C82.5383 104.025 81.7383 105.025 81.5383 106.425C81.5383 108.025 81.9383 109.425 81.9383 111.025V111.325ZM93.7383 25.0255C93.2383 29.9255 93.0383 39.1255 93.0383 45.9255C92.8383 49.4255 93.6383 53.2255 91.9383 56.4255C90.5383 59.5255 89.0383 60.5255 85.8383 60.7255C84.4383 60.6255 82.4383 60.4255 80.9383 60.4255C79.6383 60.4255 78.4383 60.0255 76.7383 60.0255C73.9383 60.0255 70.8383 59.2255 69.6383 56.6255C69.0383 54.8255 69.3383 52.9255 69.3383 51.0255C69.3383 48.9255 68.7383 46.5255 68.9383 44.4255C69.2383 40.0255 69.4383 35.9255 69.3383 31.5255C69.1383 29.6255 70.0383 28.4255 70.1383 26.7255C70.1383 25.8255 70.2383 24.8255 70.2383 23.9255C70.2383 22.4255 68.9383 21.1255 69.1383 19.5255C69.3383 18.2255 69.1383 16.4255 70.2383 15.4255C73.1383 13.6255 76.2383 16.8255 79.2383 15.9255C80.8383 15.3255 82.5383 15.4255 84.2383 15.4255C87.2383 15.2255 91.4383 14.2255 93.4383 17.0255C94.5383 19.1255 93.9383 22.6255 93.8383 25.0255H93.7383ZM259.038 18.0255C259.038 17.2255 259.238 16.4255 259.638 15.8255C262.538 13.7255 266.438 14.9255 269.538 14.6255C271.238 14.6255 272.738 15.7255 274.438 15.5255C275.838 15.5255 277.338 14.5255 278.838 14.5255C280.238 14.5255 283.038 14.5255 284.038 15.7255C284.738 16.8255 284.438 18.4255 284.738 19.9255C284.938 21.0255 284.738 22.0255 284.538 23.1255C284.438 24.5255 284.438 25.8255 284.238 27.4255C284.038 30.5255 285.038 34.0255 284.438 37.0255C283.638 40.9255 285.138 44.9255 284.138 48.8255C283.638 50.9255 284.938 52.9255 284.538 55.1255C284.138 57.3255 283.038 59.6255 280.838 59.8255C280.038 59.9255 279.438 59.8255 278.638 59.8255C274.638 60.5255 270.338 60.3255 266.238 59.7255C264.238 59.7255 262.538 61.1255 261.238 59.0255C257.738 54.9255 259.438 51.8255 259.438 47.2255C259.338 45.0255 259.838 43.1255 259.438 40.7255C259.238 39.0255 259.438 37.4255 259.338 35.7255C259.338 34.8255 258.938 33.5255 259.038 32.2255C259.138 31.0255 259.438 29.8255 259.338 28.7255C259.238 26.5255 258.538 23.7255 258.638 21.4255C258.638 20.4255 259.038 19.1255 259.038 17.8255V18.0255ZM250.838 103.025C251.138 102.425 251.638 102.225 252.138 102.125C254.238 101.625 256.738 102.125 258.838 102.325C261.038 102.325 262.838 101.425 265.238 101.625C267.738 101.425 270.038 101.925 272.438 102.125C275.038 102.125 277.438 101.825 280.138 101.625C283.338 101.425 286.538 101.825 289.638 102.025C292.738 102.025 295.738 101.725 298.938 102.025C300.838 102.225 302.438 101.525 304.338 101.625C307.338 101.625 309.438 102.325 312.138 102.125C313.838 101.925 316.438 101.125 317.838 102.725C319.438 104.525 318.338 107.325 318.838 109.425C319.238 111.125 319.338 112.625 319.538 113.925C319.738 115.125 319.938 116.525 319.438 117.725C318.938 119.225 318.738 120.225 318.938 121.825C318.938 122.625 319.138 123.525 318.838 124.325C318.338 125.225 317.238 125.125 316.238 124.825C313.338 124.425 311.238 122.225 308.538 121.825C306.638 121.625 304.238 121.825 302.338 121.625C299.838 121.225 297.538 120.225 295.038 119.625C293.038 119.025 290.538 118.925 288.238 118.725C286.438 118.325 284.838 118.425 283.038 118.325C281.038 117.825 278.038 117.425 275.838 116.925C275.038 116.725 274.438 116.525 273.538 116.525C272.738 116.525 271.938 116.525 271.038 116.525C270.038 116.525 268.538 116.325 267.138 116.625C265.638 116.925 264.238 117.425 262.738 117.425C260.638 117.625 258.038 116.625 256.038 117.425C255.038 117.725 251.538 119.525 251.138 118.425C250.538 117.325 251.138 115.625 251.038 114.325C250.538 110.825 249.638 106.325 251.038 102.825L250.838 103.025ZM174.938 139.525C175.238 134.425 176.138 130.625 175.938 124.425C175.938 122.725 175.538 121.025 175.538 119.425C175.538 118.025 175.938 116.825 176.138 115.325C176.538 111.625 176.438 107.325 176.138 104.325C175.838 102.325 176.138 101.425 178.338 101.425C181.438 101.425 184.538 101.925 187.638 101.925C190.438 101.825 193.538 100.725 196.338 100.825C198.938 100.925 201.338 101.925 203.938 101.725C205.238 101.725 206.638 101.725 207.938 101.725C209.038 101.725 210.538 101.225 211.738 101.425C214.738 101.625 217.738 102.625 220.738 101.625C223.538 100.725 227.338 101.525 229.838 101.625C231.838 101.825 235.338 100.825 235.638 103.625C235.638 104.425 235.538 105.225 235.438 106.025C235.438 110.325 236.738 113.825 235.438 117.925C234.638 123.225 228.438 124.225 224.138 125.525C222.638 125.925 222.338 126.925 221.238 127.725C219.938 128.925 217.538 128.525 215.938 129.225C214.438 129.925 213.538 131.325 211.838 132.225C210.738 132.825 209.538 133.225 208.538 133.925C206.638 135.125 204.938 136.825 202.738 137.725C201.838 138.125 200.938 138.425 200.138 138.925C197.538 140.825 196.538 143.325 193.538 144.525C192.938 144.825 192.238 145.225 191.738 145.725C190.638 146.825 190.238 148.325 189.138 149.625C188.138 150.625 186.838 151.525 185.638 152.325C183.538 153.725 182.938 155.725 181.038 157.225C180.538 157.725 180.238 158.225 179.638 158.625C178.638 159.425 176.338 157.925 176.038 156.725C175.738 155.525 176.038 154.325 175.638 153.125C175.638 152.725 175.638 152.825 175.538 152.425C175.038 148.225 174.938 143.725 175.038 139.525H174.938ZM96.7383 131.825C95.6383 127.625 97.2383 122.925 97.0383 118.925C97.0383 116.825 96.3383 114.725 96.2383 112.725C96.3383 110.225 96.7383 107.625 96.9383 105.225C97.1383 104.125 96.5383 102.525 97.8383 102.425C99.5383 102.425 101.338 102.925 103.038 102.525C106.838 102.325 109.938 101.825 113.738 101.825C116.638 101.725 118.838 102.725 121.638 102.725C125.338 102.325 127.938 102.125 131.438 101.825C133.238 101.825 134.838 102.525 136.638 102.225C137.838 102.025 139.138 102.025 140.338 102.025C144.438 102.525 148.638 102.025 152.738 102.425C158.338 102.925 161.838 99.4255 161.138 107.925C161.138 108.925 161.138 109.825 161.138 110.825C161.638 113.225 160.238 115.625 160.638 118.125C161.038 120.025 160.938 122.125 160.838 124.025C160.938 125.525 161.138 126.625 161.238 128.225C161.038 132.525 160.438 136.525 161.038 140.825C161.738 144.225 160.438 147.125 160.738 150.525C161.338 154.225 160.738 156.125 156.638 156.325C153.938 156.325 152.038 155.525 149.338 155.725C145.238 155.325 140.838 155.425 136.738 155.125C134.138 155.625 131.838 155.925 129.138 155.425C125.038 155.225 120.838 155.625 116.738 155.225C115.438 155.025 114.538 155.025 113.438 155.325C112.938 155.425 112.538 155.525 111.938 155.425C110.338 155.125 108.338 155.125 106.638 155.325C104.738 155.225 103.438 154.825 102.238 155.325C100.638 156.025 98.2383 156.825 96.8383 155.525C95.6383 154.025 96.5383 151.825 96.3383 149.925C96.3383 148.325 96.1383 146.825 95.9383 145.225C95.6383 142.125 95.9383 139.025 96.5383 135.225C96.7383 134.125 96.8383 132.725 96.5383 131.825H96.7383ZM96.0383 174.525C96.1383 173.325 96.1383 171.625 97.0383 170.825C97.6383 170.225 98.7383 170.225 99.9383 170.125C101.238 169.925 102.738 169.925 104.038 170.125C105.738 170.325 107.238 170.025 108.938 169.925C110.938 169.925 113.038 170.225 115.038 170.425C118.238 170.625 120.738 170.125 123.938 169.925C129.738 170.425 135.238 170.325 141.338 170.625C146.138 170.425 151.138 169.925 155.938 170.225C157.338 170.225 159.038 169.625 160.238 170.425C161.238 171.025 161.138 172.225 161.038 173.225C161.138 175.325 161.038 177.125 160.938 179.425C160.938 181.525 161.438 183.625 161.338 185.725C161.238 188.025 160.338 190.025 159.838 192.225C159.538 193.325 159.338 194.425 159.138 195.525C158.738 198.525 156.938 200.125 156.438 202.825C155.838 206.425 154.438 209.425 154.138 212.925C154.238 215.625 153.338 218.225 153.438 220.825C153.938 224.225 154.138 228.325 151.538 230.925C150.438 232.025 148.838 231.925 147.438 231.825C145.138 231.625 143.438 232.325 140.838 232.325C137.138 232.025 133.538 232.025 129.838 232.125C126.538 232.425 123.338 231.425 120.038 232.125C118.138 232.125 115.638 231.625 113.738 231.925C112.438 231.925 111.538 232.625 110.338 232.825C107.038 233.125 104.038 231.225 100.638 232.225C99.8383 232.425 98.8383 232.725 98.0383 232.625C95.2383 232.325 96.3383 228.625 96.1383 226.625C96.0383 224.525 96.1383 222.425 96.4383 220.225C97.0383 215.625 96.0383 211.025 96.1383 206.525C95.9383 204.525 96.6383 202.925 96.6383 200.825C96.2383 198.225 96.4383 195.325 96.8383 192.925C96.9383 191.425 96.0383 190.325 95.9383 188.825C95.9383 187.225 96.1383 185.525 96.5383 183.925C96.9383 181.925 96.1383 180.625 95.9383 178.625C95.9383 177.425 96.0383 176.025 96.1383 174.825L96.0383 174.525ZM173.538 309.625C168.738 309.025 163.838 309.325 159.038 309.425C156.138 308.925 153.338 309.225 150.438 309.425C147.838 309.325 145.338 308.625 142.738 309.525C141.038 310.025 139.538 310.425 138.038 309.825C136.438 309.125 134.338 309.525 132.538 309.625C129.538 309.725 126.838 308.925 123.938 309.225C119.338 310.125 114.538 309.725 109.838 309.825C107.038 309.625 104.438 309.125 101.738 309.325C100.038 309.325 98.2383 310.625 96.7383 310.025C95.9383 309.525 95.7383 307.725 95.8383 306.725C95.6383 304.225 95.6383 301.925 95.8383 299.425C96.0383 296.225 95.7383 293.525 96.1383 290.425C95.8383 288.225 96.1383 286.425 95.9383 284.225C95.7383 281.825 95.7383 279.425 95.7383 277.225C95.7383 275.525 95.5383 273.725 95.6383 271.925C96.1383 268.025 95.6383 264.525 95.3383 260.525C95.7383 257.225 95.6383 253.725 96.2383 250.525C96.5383 249.725 96.6383 249.225 96.3383 248.425C96.2383 248.025 95.7383 247.425 96.3383 247.125C98.3383 246.625 100.238 246.425 102.338 245.825C105.238 245.125 107.538 247.125 110.338 247.125C111.838 247.125 113.338 246.225 114.538 246.025C116.138 245.725 117.438 246.625 119.038 246.625C119.938 246.625 120.838 246.625 121.738 246.625C124.938 246.825 127.838 247.025 130.938 246.825C133.438 247.425 135.738 246.525 138.238 246.325C140.838 246.325 142.738 247.125 145.438 246.525C147.738 246.225 150.638 244.925 152.438 246.825C154.438 249.225 153.938 252.925 155.038 255.625C155.538 257.025 155.938 259.225 155.938 261.225C155.938 263.025 155.138 264.925 155.538 266.625C156.538 269.725 157.838 273.125 159.538 276.025C160.038 277.725 160.338 279.125 161.038 280.825C162.738 284.325 165.038 287.625 166.738 291.125C168.938 293.825 168.638 297.525 170.338 300.425C170.738 301.325 171.338 302.025 171.838 302.925C173.638 305.525 177.238 307.525 179.038 310.425C179.338 310.725 180.638 312.225 180.238 312.225C178.838 312.225 177.838 311.025 176.338 310.425C175.338 310.025 174.438 309.825 173.338 309.725L173.538 309.625ZM196.738 330.525C195.638 331.525 194.638 332.425 193.938 333.625C193.138 334.725 192.038 335.325 191.338 336.525C189.538 338.225 187.438 339.625 185.138 340.625C184.738 340.825 184.238 341.025 183.838 341.325C182.838 342.125 182.738 343.625 181.538 344.225C179.538 345.625 178.138 343.025 177.238 341.525C176.738 340.525 175.938 339.725 175.538 338.725C175.138 337.425 176.638 336.925 177.838 335.625C179.238 334.225 180.438 332.625 182.138 331.625C182.738 331.225 183.438 330.825 184.038 330.325C185.238 329.125 185.438 326.725 186.638 325.225C187.638 323.925 189.138 323.025 190.638 322.525C192.438 322.025 193.538 323.925 194.638 325.025C195.638 326.125 196.938 326.825 197.738 327.925C198.438 328.925 197.438 329.825 196.738 330.525ZM355.338 241.625C354.938 245.825 353.638 249.825 353.238 253.925C351.738 258.125 350.138 261.925 349.338 266.525C348.738 268.025 347.038 269.025 346.338 270.425C344.738 274.525 343.238 278.525 341.038 282.325C338.738 287.025 334.538 289.725 330.538 292.625C328.638 295.725 326.838 298.925 323.538 300.925C320.238 302.925 316.638 303.825 313.938 306.625C311.638 309.025 307.738 309.225 304.938 310.925C302.238 313.025 298.338 313.625 295.038 314.325C293.138 314.925 291.438 316.225 289.238 316.325C281.938 316.525 275.138 319.025 267.738 318.625C266.738 318.625 265.638 318.625 264.638 318.525C256.738 316.625 248.538 316.325 241.138 312.625C237.438 310.525 232.538 310.325 229.338 307.325C225.938 304.125 220.238 302.325 217.438 298.625C213.638 295.025 209.838 291.625 206.038 288.125C204.138 284.925 202.138 282.225 200.338 278.925C199.438 276.525 197.038 275.225 195.938 273.125C193.938 269.025 192.538 264.825 191.038 260.525C190.438 256.525 188.138 252.925 188.538 248.825C188.538 243.925 186.938 240.125 185.938 235.425C185.738 232.525 186.938 229.725 186.838 226.825C186.238 223.425 187.538 220.825 187.538 217.525C188.638 212.825 190.238 208.325 191.738 203.725C192.938 201.425 194.138 199.225 195.438 197.025C196.138 195.625 195.838 193.825 196.838 192.425C197.838 190.725 199.638 189.325 200.538 187.925C201.638 185.925 202.238 183.625 204.338 182.325C207.438 180.025 207.838 175.625 211.138 173.525C213.238 172.125 214.638 169.725 216.738 168.325C220.338 166.625 223.138 163.725 226.538 161.625C230.338 158.725 235.538 158.425 239.038 155.225H239.138C240.838 153.825 243.938 153.825 245.938 153.125C248.138 152.425 250.038 151.225 252.238 150.525C260.738 148.825 269.338 148.125 277.938 149.125C281.138 150.325 284.138 149.425 287.238 149.725C292.538 152.125 298.338 152.125 303.138 155.525C305.038 156.825 307.738 156.725 309.638 158.125C313.338 161.025 317.538 162.725 320.938 166.225C326.738 168.925 330.738 173.225 333.838 178.725C337.938 181.425 340.438 185.625 342.838 189.925C346.238 193.525 347.638 197.525 348.638 202.125C349.738 204.925 352.938 206.425 352.238 209.825C351.838 211.925 352.838 213.225 353.138 215.425C353.138 217.325 353.838 219.025 354.038 220.825C353.738 223.525 355.338 225.225 355.738 227.625C355.538 232.725 354.538 236.225 354.938 241.425L355.338 241.625ZM256.038 195.725C258.938 198.025 265.638 201.425 270.638 200.425C272.138 200.025 273.138 198.925 274.438 198.225C275.238 197.725 276.138 197.325 276.838 196.725C277.738 195.925 278.338 194.825 279.038 193.925C280.038 192.825 281.238 191.625 281.838 190.225C283.938 186.625 284.238 181.825 283.038 178.025C282.538 176.325 281.238 175.025 280.238 173.525C279.638 172.625 279.438 171.525 278.638 170.625C278.138 170.025 277.538 169.725 276.838 169.525C272.738 168.625 266.638 167.425 262.838 168.725C259.738 169.925 257.438 172.125 255.238 175.125C250.638 181.625 249.738 190.925 256.138 195.825L256.038 195.725ZM304.638 181.025C303.038 181.725 302.038 183.125 300.638 184.225C299.638 185.025 298.738 185.825 297.938 186.825C295.838 190.225 293.338 192.925 290.738 195.725C289.238 197.625 287.338 199.525 285.738 201.325C284.738 202.525 284.038 203.925 283.138 205.125C281.938 206.525 280.338 207.725 278.938 209.125C276.838 211.125 275.438 213.525 273.538 215.625C272.438 216.725 271.138 217.625 270.238 218.725C268.938 220.125 268.038 221.925 266.638 223.325C265.038 224.825 263.238 225.825 261.838 227.525C260.238 228.925 259.238 230.925 257.838 232.525C256.738 233.525 254.938 234.525 253.738 235.625C252.738 236.425 252.238 237.825 251.438 238.725C250.438 239.725 249.338 240.425 248.338 241.425C246.638 243.425 245.838 245.425 243.738 247.525C242.338 249.225 240.838 251.025 239.138 252.325C237.938 253.525 236.438 254.025 235.338 255.225C234.138 256.725 234.038 258.725 232.138 259.925C231.038 261.125 229.838 262.125 228.838 263.325C227.838 264.625 227.038 266.225 225.838 267.425C224.338 268.925 223.738 271.225 223.638 273.325C223.438 275.825 224.838 277.225 225.638 278.925C225.938 279.525 226.238 280.125 226.738 280.625C228.038 281.725 230.238 280.625 232.338 280.125C236.838 279.525 237.538 275.425 240.438 272.725C244.538 269.025 248.338 266.325 250.938 261.425C252.738 259.025 255.638 257.425 257.238 254.925C258.938 253.025 260.438 250.725 262.138 249.025C264.438 247.425 266.238 245.425 268.238 243.425C270.538 241.725 271.938 239.225 273.738 237.125C274.738 236.125 275.838 235.225 276.838 234.025C278.838 231.525 280.838 228.825 283.438 226.625C285.538 223.925 287.338 221.425 289.938 219.125C291.038 218.225 292.338 217.525 293.338 216.525C294.638 215.125 295.638 213.025 297.038 211.725C297.738 211.025 298.638 210.325 299.338 209.625C301.138 207.525 302.038 204.625 303.838 202.525C305.138 200.825 307.038 200.325 308.038 198.725C308.738 197.725 309.138 196.625 309.938 195.725C311.238 194.125 313.938 193.125 314.538 191.125C315.738 188.325 315.538 184.725 313.538 182.325C311.538 179.525 307.438 179.825 304.638 181.025ZM286.238 267.625C285.238 265.125 283.438 263.325 281.138 262.125C279.138 260.725 276.838 260.525 274.338 260.425C272.738 260.225 271.238 259.625 269.738 259.825C267.838 260.125 266.438 261.425 264.638 262.125C262.938 262.925 260.538 263.225 259.138 264.425C258.138 265.425 257.838 267.125 257.238 268.225C256.438 270.125 256.338 271.925 255.738 274.125C255.538 275.325 256.038 276.525 256.338 277.625C256.738 279.125 257.038 280.625 257.838 281.925C258.838 283.925 260.038 285.725 261.638 287.225C262.538 288.225 263.238 289.225 264.438 289.725C267.438 290.925 271.038 291.425 274.438 291.425C276.538 291.425 278.238 289.425 280.038 288.925C281.938 288.725 282.438 287.125 283.538 285.725C284.538 284.625 285.338 283.425 285.738 281.925C286.038 280.525 286.138 279.125 286.638 278.125C287.538 276.625 287.438 274.825 287.238 273.025C287.238 270.825 287.238 269.525 286.238 267.625Z" fill="white"/>
</svg>
