<?xml version="1.0" encoding="UTF-8"?>
<svg width="66px" height="62px" viewBox="0 0 66 62" version="1.1" xmlns="http://www.w3.org/2000/svg" xmlns:xlink="http://www.w3.org/1999/xlink">
    <!-- Generator: Sketch 55.2 (78181) - https://sketchapp.com -->
    <title>ICN_global_infrastructure</title>
    <desc>Created with Sketch.</desc>
    <defs>
        <path d="M26.4007883,60.9761933 C30.3939037,63.5323367 35.0439691,64.9024824 39.9049473,64.9024824 C53.6956047,64.9024824 64.915446,53.7472409 64.915446,40.0359852 C64.915446,26.3247296 53.6956047,15.1694881 39.9049473,15.1694881 C26.11429,15.1694881 14.8944486,26.3247296 14.8944486,40.0359852 L9.62908049,40.0359852 C9.62908049,23.4389072 23.2117558,9.93443609 39.9049473,9.93443609 C56.5981389,9.93443609 70.1808142,23.4389072 70.1808142,40.0359852 C70.1808142,56.6330633 56.5981389,70.1375344 39.9049473,70.1375344 C33.706827,70.1375344 27.7925816,68.2975882 22.7925009,64.8779692 L22.7925009,68.8287714 L17.5271327,68.8287714 L17.5271327,55.7411413 L30.6905531,55.7411413 L30.6905531,60.9761933 L26.4007883,60.9761933 Z" id="path-1"></path>
    </defs>
    <g id="2019-ADP.com_1.9.x_Global-Payroll-and-Celergo" stroke="none" stroke-width="1" fill="none" fill-rule="evenodd">
        <g id="1.9.x-ADP-Global-Payroll" transform="translate(-514.000000, -1019.000000)">
            <g id="Stacked-Group">
                <g id="Partnering" transform="translate(0.000000, 634.000000)">
                    <g id="Padding-Group" transform="translate(0.000000, 376.000000)">
                        <g id="Stacked-Group" transform="translate(80.000000, 0.000000)">
                            <g id="Row-1">
                                <g id="Stacked-Group-Copy" transform="translate(323.000000, 0.000000)">
                                    <g id="Iconography-/-global" transform="translate(106.000000, 0.000000)">
                                        <path d="M12.2617646,56.8249934 L5.13508878,49.7393505 L8.85770406,46.0381687 L12.2617646,49.4226298 L23.5638773,38.1855907 L27.2864926,41.8867724 L12.2617646,56.8249934 Z M31.4130274,39.2206259 L18.2983117,26.1814201 L22.020927,22.4802383 L29.968342,30.3812405 L33.3230397,23.7124386 L33.3230397,13.8607251 L38.5884079,13.8607251 L38.5884079,24.9492197 L31.4130274,39.2206259 Z M62.560576,54.2943693 L55.3904609,40.0360507 L47.7109214,40.0360507 L40.7408904,29.6398917 L49.4945649,15.130945 L54.0096181,17.8256881 L46.9671882,29.4920015 L50.5285516,34.8009987 L58.6451166,34.8009987 L67.2704478,51.9529922 L62.560576,54.2943693 Z M41.2212894,67.2388861 L35.9559212,67.2388861 L35.9559212,52.0402213 L42.7640422,45.271299 L50.6107571,45.271299 L59.2749204,59.6290836 L54.7598672,62.3231722 L47.6279261,50.506351 L44.9439047,50.506351 L41.2212894,54.2075328 L41.2212894,67.2388861 Z" id="Mask" fill="#F9AB83" fill-rule="evenodd"></path>
                                        <mask id="mask-2" fill="white">
                                            <use xlink:href="#path-1"></use>
                                        </mask>
                                        <use id="Mask" fill="#F1645D" fill-rule="evenodd" xlink:href="#path-1"></use>
                                    </g>
                                </g>
                            </g>
                        </g>
                    </g>
                </g>
            </g>
        </g>
    </g>
</svg>