<svg width="398" height="467" viewBox="0 0 398 467" fill="none" xmlns="http://www.w3.org/2000/svg">
<path d="M168.051 0.2C169.451 -1.93715e-07 172.551 0.2 174.251 0.1C183.551 -0.0999996 192.851 0.4 202.051 0.1C211.251 -0.2 206.951 0.6 209.651 0.9C214.851 1.4 219.951 0.9 225.051 0.9C230.151 0.9 230.551 0.2 232.551 0.5C236.151 1.1 244.651 6 247.851 8.2C255.251 13.4 257.351 25 257.751 33.6C258.151 41.8 256.351 54.9 249.651 60.4C242.951 65.9 241.251 66.7 238.151 67.1C235.051 67.5 233.251 66.8 230.251 67.1C227.251 67.4 226.151 66.3 225.751 69.7C225.351 73.1 225.851 77 226.551 78.8C227.251 80.6 227.051 80 227.751 80.4C232.251 81.8 236.951 82.2 241.551 83.3C244.951 84.1 248.451 85.5 251.851 86.5C258.951 88.5 266.751 90 273.551 93C280.351 96 285.351 100.8 290.351 101.6C295.351 102.4 297.551 97.3 300.551 93.4C303.451 89.7 306.851 86.4 310.051 83.1C313.251 79.8 315.251 76.8 319.351 74.5C323.451 72.2 329.851 68.9 334.551 69.6C339.251 70.3 349.251 75.1 352.651 77.7C356.051 80.3 356.951 81.6 359.251 83.4C362.951 86.1 364.651 87.1 368.151 90.4C373.051 95.1 378.051 99.9 382.651 104.9C388.051 110.8 393.551 114.4 396.551 122.4C397.351 124.5 397.751 125.8 397.551 128.1C397.251 132.1 395.351 141.8 393.551 145.1C391.751 148.4 391.751 146.8 391.051 147.8C388.651 151.2 387.751 152.9 384.451 155.9C381.151 158.9 377.651 161.9 374.351 164.8C371.051 167.7 368.851 169.2 367.351 170.9C364.451 174.2 367.851 175.9 369.251 178.5C375.451 189.2 380.251 203.6 384.351 215.4C388.451 227.2 386.551 219.9 386.951 221.9C387.551 225 387.751 228.7 388.451 231.9C389.151 235.2 390.751 239.7 391.051 242.8C391.351 245.9 391.051 248.8 391.551 251.8C392.651 257.4 393.351 257.8 393.051 264.1C392.751 272 393.551 279.9 392.551 287.8C391.751 294.3 391.451 300.8 390.151 307.2C386.751 323.6 381.051 342.6 373.551 357.6C370.151 364.5 366.051 371.3 362.151 378C355.851 389.1 344.351 401.2 335.251 410.3C326.151 419.4 329.251 416.9 325.951 419.7C322.651 422.5 323.051 421.4 321.951 422.5C318.851 425.5 312.651 431.3 308.951 433.4C305.051 435.6 301.151 437.3 297.051 439.8C292.951 442.3 287.651 444.8 281.951 447.3C277.951 449.1 272.951 452.2 269.151 453.5C265.351 454.8 265.251 454.2 263.251 454.8C252.351 458.1 241.851 463 230.451 464C228.651 464.2 226.651 463.8 224.951 464C215.851 465.2 207.651 466.1 198.351 466.4C189.051 466.7 190.851 465.9 186.851 465.6C182.851 465.3 182.951 466.1 181.251 466C178.651 465.9 174.151 464.5 171.251 464C153.651 461.2 137.651 456.7 121.051 449.9C104.451 443.1 104.751 440.5 96.7512 436.1C88.7512 431.7 89.6512 433.5 86.9512 431.2C84.2512 428.9 84.9512 428.5 83.5512 427.4C77.5512 422.6 69.1512 416.8 63.8512 411.3C58.5512 405.8 59.2512 405.2 56.1512 402.4C53.0512 399.6 49.0512 395 45.8512 390.8C27.4512 366.4 14.2512 337 8.75119 306.8C8.05119 303.1 7.55119 299.2 7.05119 295.4C6.05119 288.7 6.15119 281.2 5.95119 274.2C5.75119 267.2 5.35119 271.3 5.55119 269.4C5.85119 266.4 6.35119 265.9 6.35119 262.3C6.35119 256.1 7.25119 248 7.95119 241.7C8.55119 235.9 10.2512 231.2 11.6512 225.6C13.8512 216.9 15.6512 208.9 19.1512 200.5C22.6512 192.1 23.8512 191.5 25.4512 187.4C27.0512 183.3 26.2512 183.8 27.1512 182C28.0512 180.2 33.6512 175.3 32.2512 172.4C30.8512 169.5 30.8512 171 30.4512 170.6C27.7512 168 24.0512 165.6 21.3512 163.1C18.3512 160.4 15.9512 158.1 12.8512 155.3C9.75119 152.5 9.05119 150.9 6.85119 147.8C4.65119 144.7 4.85119 146.1 4.25119 144.9C3.65119 143.7 2.15119 138.9 1.75119 137.5C0.951188 134.6 -0.0488128 126.8 0.551187 124C2.25119 116 9.75119 110.4 14.8512 105C22.7512 96.7 29.0512 89.7 38.5512 83.1C48.0512 76.5 45.1512 77 49.2512 74.8C53.3512 72.6 55.7512 72 58.5512 71C61.3512 70 63.4512 69 66.7512 69.3C70.0512 69.6 81.4512 75.7 84.2512 78.8C87.0512 81.9 91.8512 86.5 95.3512 90.7C98.8512 94.9 99.2512 97.1 101.351 99C103.451 100.9 108.051 97.7 110.551 96.7C118.351 93.7 125.951 91 133.851 88.3C141.751 85.6 141.751 84.9 145.151 84.1C148.551 83.3 153.551 81.9 157.851 80.9C162.151 79.9 169.651 79.6 171.251 78C172.851 76.4 172.151 74.8 172.251 73.8C172.351 72 172.351 67.8 171.251 66.5C170.151 65.2 168.751 66.2 167.251 66.1C165.751 66 165.651 65.7 164.851 65.7C160.351 65.5 157.551 65.9 153.451 63.3C149.351 60.7 146.951 58.3 146.251 57.4C139.451 48.5 139.351 35.5 140.551 24.8C141.151 20.1 144.651 11.1 148.451 8.1C152.251 5.1 156.751 2.8 161.451 1.6C166.151 0.4 166.651 0.1 167.851 0L168.051 0.2ZM166.451 15.3C162.851 15.8 157.451 18.3 156.751 22.2C155.251 30.2 153.151 37 156.451 44.9C159.751 52.8 158.351 49.4 159.751 49.9C161.151 50.4 167.451 51.3 169.051 51.3C171.951 51.3 175.951 50 178.551 50C183.851 50.1 188.051 50.6 193.651 50.4C199.251 50.2 198.651 51 201.251 50.8C203.851 50.6 204.051 49.9 205.651 50C207.251 50.1 209.151 50.7 210.751 50.8C213.351 50.9 215.751 50.2 218.351 50.4C223.151 50.7 227.851 51.5 232.651 51.2C234.251 50.4 238.151 50.8 239.351 50C240.551 49.2 243.351 41.4 243.551 39.5C244.051 34.7 242.351 31.3 241.651 27.1C240.951 22.9 241.951 22 238.751 19.2C235.551 16.4 226.351 15.3 221.451 15.4C209.851 15.7 198.051 15.5 186.551 15.4C175.051 15.3 172.251 14.3 166.451 15.1V15.3ZM193.851 65.3C192.551 65.3 189.551 65.5 188.751 66.2C187.951 66.9 187.451 72.6 187.551 74.1C188.151 82.4 193.451 77.9 198.051 77.9C202.651 77.9 202.751 79.2 204.751 79.1C206.751 79 209.751 77.9 210.351 75.1C210.951 72.3 210.351 69.8 210.051 68.6C209.551 66.1 207.651 67 206.051 66.7C201.351 65.9 198.951 64.9 193.851 65.3ZM63.2512 84.4C61.7512 84.7 60.0512 86.4 58.6512 87.3C55.1512 89.4 53.4512 91 50.2512 93.2C42.6512 98.5 36.7512 102.9 30.2512 109.7C23.7512 116.5 26.9512 114.6 25.1512 116.9C23.3512 119.2 21.3512 119.7 19.9512 121.2C18.5512 122.7 16.2512 126.7 16.0512 127.2C15.7512 128.3 16.0512 131.6 16.2512 132.8C17.0512 137 23.0512 143.6 26.0512 146.8C29.0512 150 31.5512 151.8 34.4512 154.3C37.3512 156.8 38.0512 158.3 38.6512 158.4C40.7512 159 45.0512 151.7 46.5512 150.1C48.0512 148.5 50.9512 146.3 52.9512 144.2C54.9512 142.1 55.7512 140.3 57.3512 138.6C58.9512 136.9 61.6512 135.3 63.5512 133.3C65.4512 131.3 66.3512 129.4 68.2512 127.7C71.6512 124.8 74.0512 123 77.3512 119.8C80.6512 116.6 84.7512 114.8 87.8512 112.1C92.6512 107.7 88.3512 105.7 85.5512 102.2C82.7512 98.7 75.5512 90.5 70.6512 86.5C65.7512 82.5 66.3512 83.9 63.3512 84.4H63.2512ZM331.551 84.4C330.651 84.5 329.751 85 329.051 85.5C323.951 89.2 319.251 95.6 314.151 99.6C311.951 104.7 304.251 107 310.751 112.5C312.351 113.8 314.451 114.7 316.051 115.9C319.451 118.5 321.651 121.4 324.651 124C327.651 126.6 328.351 126.4 330.051 127.8C331.751 129.2 332.551 131 334.051 132.6C336.151 134.9 338.851 136.8 341.051 139.1C343.251 141.4 344.551 143.8 346.351 145.7C348.151 147.6 349.651 148.2 350.851 149.5C353.051 151.7 354.751 154.7 356.851 157C358.951 159.3 358.351 158.9 359.551 158.5C360.751 158.1 364.351 153.7 365.351 152.8C366.351 151.9 367.451 151.5 368.351 150.6C371.251 147.8 378.051 140.5 380.051 137.3C382.051 134.1 382.651 129.8 381.951 127.1C381.251 124.4 379.251 122.7 378.851 122.2C377.251 120.1 374.851 119.1 373.251 117.4C371.651 115.7 370.051 111.8 367.551 109.3C359.051 100.6 348.751 92.7 338.251 86.6C327.751 80.5 336.551 84.8 335.251 84.5C333.951 84.2 332.751 84.2 331.551 84.5V84.4ZM197.851 91.5C186.451 91.8 176.251 94.3 165.151 95.7C154.051 97.1 161.451 95.6 159.451 95.9C157.451 96.2 150.551 98.5 147.551 99.5C135.651 103.2 124.451 108.4 113.151 113.5C106.651 116.5 101.451 121.5 95.6512 125.4C89.8512 129.3 89.2512 128.8 86.6512 131C81.9512 134.9 77.4512 139.7 73.1512 144.1C68.8512 148.5 67.9512 149.7 65.0512 153C62.1512 156.3 61.2512 156 59.6512 157.5C58.0512 159 57.9512 161 56.6512 162.5C52.5512 167.1 48.9512 171.2 46.0512 176.9C40.6512 187.5 34.7512 197.7 30.3512 208.8C26.3512 218.8 24.7512 229.4 22.0512 239.8C20.8512 244.3 21.5512 247 21.0512 251.1C20.5512 255.2 20.0512 253.4 19.8512 254.7C19.6512 256.9 20.5512 259.3 20.2512 261.9C18.5512 279.6 18.6512 292.2 23.1512 309.4C27.6512 326.6 25.0512 319.6 26.3512 324.5C28.1512 331.1 31.7512 338.3 34.3512 344.7C36.9512 351.1 38.6512 356.9 41.5512 360.9C44.4512 364.9 47.8512 372.1 51.4512 376.8C55.0512 381.5 55.8512 381 57.7512 383.6C61.7512 389.1 65.3512 393.4 69.8512 398.5C74.3512 403.6 74.7512 403.1 77.9512 405.9C81.1512 408.7 85.3512 413.7 88.8512 416C92.3512 418.3 94.1512 418.9 96.9512 421C112.151 432.6 131.751 441.3 149.951 447C156.851 449.2 163.751 449.4 170.651 451C177.551 452.6 176.351 453 178.851 453.2C181.351 453.4 181.151 452.8 182.351 452.8C187.451 452.8 192.451 453.7 197.851 453.6C203.251 453.5 205.451 453.9 208.551 453.6C211.651 453.3 212.351 452.3 214.151 452C215.951 451.7 218.951 452.2 221.251 452C223.551 451.8 224.851 450.9 226.851 450.8C228.851 450.7 229.651 451.3 231.251 451.2C237.351 450.9 243.851 447.4 249.251 446.2C267.551 442.1 282.051 433.9 297.551 424.3C305.551 419.4 310.451 416.5 317.551 410.2C321.451 406.7 325.651 403.2 329.251 399.3C332.851 395.4 338.151 389.5 342.151 384.4C350.051 374.4 357.351 363.1 362.851 351.5C365.051 346.8 366.551 342.4 368.851 337.7C371.151 333 370.151 332 371.251 329.4C372.351 326.8 372.551 327.7 372.951 326.7C373.851 324.5 373.351 321.6 374.051 319.1C374.751 316.6 375.651 316 376.051 314.4C376.951 311.3 377.851 305.8 377.751 302.7C377.651 299.6 379.551 296.3 379.751 292.4C379.951 288.5 379.351 288.5 379.351 286.8C379.351 285.1 380.051 283.1 380.151 281.6C380.751 266.8 379.951 252.2 377.351 237.6C376.751 234.2 375.051 230.9 374.751 227.5C374.451 224.1 375.151 225.3 374.151 222.9C372.151 218.1 371.251 213.9 369.351 209.4C367.451 204.9 366.751 204.9 365.751 202.6C362.951 195.9 360.851 190.2 357.151 183.8C356.251 182.2 354.551 180.8 353.851 179.2C353.151 177.6 352.951 175.2 351.751 173.4C350.551 171.6 348.551 170.8 347.551 169.6C345.951 167.6 344.951 164.5 342.751 162.1C340.551 159.7 336.851 157 334.651 154.4C330.151 149.2 326.551 144.9 321.551 140.1C314.051 132.9 305.751 127 297.251 121.1C288.751 115.2 288.051 116.1 282.851 113.2C277.651 110.3 280.251 111 278.751 110.2C276.451 109.1 273.351 108.7 271.051 107.6C263.951 104.2 259.851 101.9 251.951 99.7C244.051 97.5 231.951 94.2 223.051 93.3C214.151 92.4 220.251 93.7 218.751 93.7C216.151 93.7 212.551 92.3 209.651 92.1C206.751 91.9 201.551 91.7 197.851 91.8V91.5Z" fill="white"/>
<path d="M179.951 116.9C181.651 116.6 184.051 116.7 185.851 116.8C192.051 117 198.251 117.7 204.451 117.6C210.651 117.5 224.851 119.9 233.651 121.8C242.451 123.7 250.851 126.6 259.251 129.5C273.851 134.6 288.551 145.7 300.751 155.1C306.151 159.2 308.351 162.5 312.851 167.2C317.351 171.9 321.051 175.1 323.351 178.5C325.651 181.9 324.651 181.6 325.751 183.2C327.451 185.5 330.051 187.6 331.451 190.2C333.651 194.3 337.551 201 339.251 205C342.251 212 345.751 219.8 348.251 227C350.751 234.2 349.051 232 349.751 234.7C351.051 239.8 352.851 245.5 353.451 250.8C354.051 256.1 353.251 257 353.451 259.9C354.551 271.4 354.551 281.2 353.451 292.8C353.151 295.8 352.251 300.7 351.751 303.8C351.251 306.9 350.051 307.5 349.651 309.2C347.651 318.3 345.051 325.1 341.451 333.6C337.851 342.1 339.551 339.6 338.051 342.1C336.551 344.6 334.651 346.6 333.251 348.8C330.451 353.3 329.351 356.8 326.051 361C318.951 370 312.251 377.7 303.851 385.6C302.851 386.5 301.451 387.2 300.451 388.2C299.451 389.2 298.851 390.7 297.951 391.6C297.051 392.5 295.151 393.2 293.951 394C291.951 395.4 290.651 397.1 288.951 398.5C285.451 401.4 281.551 403.3 277.551 405.3C271.651 408.2 265.551 410.9 259.951 414.3C255.551 417 243.951 419.2 238.651 420.4C233.351 421.6 227.851 424.1 223.051 424.6C221.251 424.8 219.351 424.5 217.551 424.6C208.451 425.4 198.551 426.8 189.351 426.2C180.151 425.6 185.051 425.2 182.951 425C179.751 424.7 176.751 425.2 173.551 424.5C170.351 423.8 170.051 422.9 168.151 422.4C164.851 421.5 161.051 421.5 157.651 420.6C154.251 419.7 147.251 417.4 142.551 415.9C137.851 414.4 138.351 413.5 136.251 412.6C134.151 411.7 131.851 411.2 129.851 410.2C121.351 406.1 112.351 399.9 104.651 394.5C96.9513 389.1 95.9513 386.8 92.6513 383.8C79.6513 371.7 63.8513 351.6 57.4513 334.9C51.0513 318.2 50.3513 315.9 47.9513 305.5C45.5513 295.1 47.1513 300 46.5513 297.4C45.9513 294.8 45.3513 294.6 45.1513 292.9C44.4513 287.1 44.4513 280.2 44.5513 274.4C44.6513 268.6 43.9513 265.2 44.0513 261.3C44.1513 257.5 45.5513 252.9 45.8513 248.9C46.1513 244.9 45.6513 245.4 45.8513 243.8C46.0513 242.2 47.3513 240.8 47.7513 239.3C49.6513 232.1 49.8513 224.2 52.8513 217C55.8513 209.8 55.0513 213.5 55.8513 211.7C57.1513 209 57.7513 204.9 59.2513 202.4C60.7513 199.9 61.0513 200.6 61.7513 199.4C62.9513 197.5 62.9513 195.4 64.1513 193.4C66.1513 189.9 70.1513 184.8 72.6513 181.3C75.6513 177 79.2513 173.9 82.3513 169.9C85.4513 165.9 85.0513 164.6 87.9513 162.4C90.8513 160.2 95.8513 156.3 98.4513 153.4C101.051 150.5 100.251 149.1 102.751 147.8C105.251 146.5 105.551 146.6 108.051 144.7C113.551 140.7 119.451 137.5 125.451 134.3C129.551 132.1 134.451 129 138.751 127.3C143.051 125.6 149.951 124.4 155.151 122.6C158.051 121.6 159.251 119 162.851 119.2C166.451 119.4 166.951 118.1 170.051 117.6C173.151 117.1 173.551 118.2 175.551 118C177.551 117.8 178.651 116.8 180.051 116.5L179.951 116.9ZM187.151 131.6C184.851 131.7 182.551 132.4 180.251 132.7C174.651 133.3 169.351 133.4 163.651 134.8C157.951 136.2 158.851 137.5 156.251 138.1C150.851 139.4 147.651 139.4 142.151 141.9C129.551 147.8 116.051 155.5 106.151 165.5C96.2513 175.5 101.751 170.4 98.2513 173.1C94.7513 175.8 92.1513 181.6 89.4513 184.6C86.7513 187.6 85.0513 187.9 83.7513 190.4C82.4513 192.9 81.2513 196.8 78.9513 199.9C74.9513 205.1 71.0513 210.3 68.8513 216.8C66.6513 223.3 67.9513 222.5 67.0513 224.9C66.1513 227.3 65.1513 227.8 64.5513 229.6C63.5513 232.6 64.0513 235 63.5513 237.7C63.0513 240.4 61.3513 241.9 60.9513 245C59.9513 251.2 59.6513 258.5 59.3513 264.8C59.0513 271.1 59.6513 268.9 59.7513 271.5C59.8513 274.1 59.3513 273.9 59.3513 275.1C59.2513 281.6 61.0513 297.4 63.3513 303.3C65.5513 309.2 66.1513 314.6 68.0513 320.5C69.9513 326.4 72.7513 328.6 74.8513 333.1C76.9513 337.6 75.7513 336.9 76.7513 338.8C77.7513 340.7 80.0513 343.1 81.2513 345.4C84.1513 350.7 86.5513 354.7 90.0513 359.6C93.5513 364.5 98.5513 369.9 101.051 372C103.551 374.1 104.251 373.6 105.451 374.8C109.551 378.7 113.551 382.8 117.951 386.5C120.651 388.8 121.851 388.7 124.651 390.1C131.651 393.5 138.351 397.6 145.551 400.6C152.751 403.6 150.451 402 152.651 403C154.851 404 156.551 405.3 158.651 406.2C165.451 409.1 176.451 409.9 183.751 410.1C197.751 410.4 209.551 410.7 223.551 408.8C226.151 408.4 229.251 408.2 231.751 407.5C234.251 406.8 235.551 405.6 237.651 405C243.151 403.5 249.451 402.5 255.051 401C260.651 399.5 264.851 395.9 266.651 394.3C270.351 391.1 266.851 389.6 264.551 387.3C262.351 385.2 260.151 384 258.351 382.3C257.451 381.4 256.951 380 256.151 379C253.951 376.3 250.051 373.6 247.351 371.1C242.651 366.7 238.351 362.2 233.851 357.6C226.951 350.5 218.951 344.7 212.051 337.7C210.951 336.6 210.351 335.1 209.051 334C207.751 332.9 205.951 332.1 204.651 330.8C203.351 329.5 202.851 328 201.851 326.8C199.451 323.9 195.351 320.9 192.351 318.8C189.351 316.7 184.551 310.8 184.051 310.1C182.051 307.5 180.851 304.2 178.351 301.6C176.951 300.1 174.951 299.2 173.351 297.8C170.451 295.3 166.051 288 164.951 284.4C163.051 278.4 162.251 272.7 163.151 266.5C164.851 253.7 175.351 240.4 187.651 236.2C199.951 232 195.751 236.2 196.051 231.5C196.351 226.8 195.651 229.5 195.651 228.4C195.451 219.3 196.051 210.5 195.651 201.4C195.251 192.3 195.851 190.1 196.051 184C196.251 177.9 195.251 177.1 195.251 173.7C195.251 170.3 195.951 169.1 196.051 167C196.151 164.9 195.651 163.2 195.651 161.4C195.551 153.6 196.551 143.4 195.651 136C194.751 128.6 190.551 131.8 187.251 132L187.151 131.6ZM195.851 249.5C191.451 250.3 184.651 254.1 181.851 257.7C179.651 260.5 176.951 270.5 177.351 274.1C177.751 277.7 179.051 280.9 179.651 282.6C181.151 286.8 183.351 286.7 186.451 288.5C189.551 290.3 190.551 292.2 194.951 291.9C199.351 291.6 197.451 291.3 198.551 291.2C205.651 290.5 212.951 291.2 217.051 283.9C221.151 276.6 223.451 266.4 217.751 259.2C216.151 257.2 213.151 253.5 211.151 252.3C207.751 250.3 199.751 248.9 195.851 249.5ZM257.851 358.5C258.551 357.7 256.951 353.2 256.551 352C254.651 346.5 251.551 341.3 249.351 335.8C247.151 330.3 245.951 326.9 244.051 322.4C241.851 317.1 240.551 313 237.951 307.5C235.351 302 235.651 300.6 232.951 296.2C230.251 291.8 231.651 292.1 230.351 292.1C229.051 292.1 225.751 297.1 224.351 298.1C220.751 300.8 216.851 302.9 212.651 304.6C209.751 305.8 204.251 306.7 207.351 311.1C210.551 315.7 215.851 319.4 219.851 323.2C229.651 332.6 239.051 342.5 249.051 351.6C250.151 352.6 256.651 359.8 257.951 358.4L257.851 358.5Z" fill="white"/>
<path d="M89.851 199.5C91.751 199.4 93.451 199.2 95.251 200.2C97.051 201.2 98.551 203.8 98.851 204.6C99.751 207.6 98.651 210.7 96.451 212.8C94.251 214.9 94.351 214.1 92.551 214C85.851 213.4 80.151 208.6 84.551 201.8C85.951 199.7 87.451 199.7 89.851 199.5Z" fill="white"/>
<path d="M131.551 370.1C134.651 369.6 139.151 372.4 139.851 375.5C140.551 378.6 139.851 382.2 138.251 383.9C134.851 387.3 129.051 385 126.151 382.1C123.251 379.2 125.151 376.6 125.851 374.3C126.551 372 129.051 370.5 131.551 370.1Z" fill="white"/>
<path d="M139.051 151.8C139.951 151.5 145.051 152.5 146.051 153C147.051 153.5 149.551 156.8 149.751 158C150.151 159.6 149.751 163.7 148.251 164.6C145.251 165.8 144.651 168.3 141.051 167.5C137.451 166.7 135.251 163.1 134.851 161.4C134.451 159.7 136.951 152.4 139.051 151.8Z" fill="white"/>
<path d="M197.851 386.4C198.251 386.4 198.551 386.3 198.951 386.4C200.451 386.6 204.651 390.6 205.051 392.2C205.451 393.8 204.651 398.9 203.151 400.4C201.651 401.9 200.051 402.1 199.151 402.3C193.251 403.7 188.851 398.9 190.751 393.2C192.651 387.5 196.251 386.7 197.851 386.4Z" fill="white"/>
<path d="M92.6511 324.1C93.4511 325.1 94.851 328 94.751 329.3C94.551 332 92.151 335.1 89.751 336.2C85.451 338.3 78.8511 335.4 79.3511 330.2C79.6511 326.9 81.1511 324 84.3511 322.9C87.5511 321.8 90.4511 321.6 92.6511 324.1Z" fill="white"/>
<path d="M73.9512 261.8C74.6512 261.7 79.2512 263.1 79.9512 263.6C82.8512 265.2 83.0512 270.7 81.3512 273.3C78.2512 277.7 71.9512 277.4 68.6512 273.3C65.3512 269.2 67.7512 268 68.9512 266C70.1512 264 73.0512 262 73.9512 261.8Z" fill="white"/>
</svg>
