<svg width="461" height="452" viewBox="0 0 461 452" fill="none" xmlns="http://www.w3.org/2000/svg">
<path d="M113.74 0.00701873C115.54 0.00701873 117.34 1.10702 119.04 1.20702C125.94 1.40702 133.14 0.907018 140.04 1.20702C144.94 1.40702 148.74 0.107018 153.34 0.207018C160.54 0.407018 168.64 1.80702 175.64 1.80702C182.64 1.80702 179.74 1.00702 181.64 0.907018C184.74 0.707018 188.14 1.80702 190.94 1.60702C193.74 1.40702 193.74 0.607019 195.24 0.607019C197.84 0.607019 201.04 1.00702 203.94 1.00702C212.24 1.00702 219.64 0.707017 228.24 1.00702C237.94 1.40702 248.04 1.20702 257.84 1.60702C267.64 2.00702 268.14 0.607019 272.84 0.607019C277.54 0.607019 275.14 1.40702 276.54 1.30702C277.94 1.20702 278.84 0.307018 280.24 0.307018C281.64 0.307018 284.14 1.30702 286.24 1.30702C290.44 1.30702 295.34 0.207018 299.54 0.207018C303.74 0.207018 303.84 1.40702 306.14 1.60702C311.64 2.00702 317.84 1.30702 323.44 1.30702C329.04 1.30702 336.64 1.00702 343.04 1.30702C349.44 1.60702 350.24 0.907019 354.04 0.607019C357.84 0.307019 359.44 1.20702 361.74 0.907018C365.24 0.607018 363.84 0.707018 367.04 1.20702C370.24 1.70702 371.04 0.807018 373.04 0.907018C375.04 1.00702 375.94 1.50702 377.34 1.60702C384.54 1.90702 392.64 0.307019 399.64 0.607019C406.64 0.907019 403.44 1.50702 405.34 1.60702C410.74 2.00702 415.34 0.607019 420.34 0.607019C425.34 0.607019 427.94 1.60702 431.64 1.30702C435.34 1.00702 438.64 0.207018 441.64 0.307018C444.64 0.407018 444.74 1.10702 446.34 1.00702C447.94 0.907017 449.24 -0.0929813 450.34 0.00701873C451.44 0.107019 451.74 0.807018 452.44 0.907018C455.44 1.50702 456.54 0.20702 459.04 3.30702C461.54 6.40702 459.94 8.10702 459.54 11.507C458.64 18.907 459.64 26.707 459.14 34.107C458.64 41.507 459.64 39.007 460.14 42.107C461.44 50.807 458.14 62.707 458.84 71.307C459.64 80.907 459.54 90.607 459.84 100.307C460.14 110.007 459.64 114.707 459.54 122.207C459.54 123.107 460.14 124.307 460.14 125.207C460.14 126.107 459.24 126.907 459.14 127.907C458.94 130.307 458.84 134.007 458.74 136.507C458.64 139.007 459.84 144.007 459.74 147.207C459.64 150.407 458.64 155.007 458.74 158.507C458.74 160.707 459.74 163.307 459.74 165.507C459.74 167.707 459.24 168.607 459.34 170.207C459.44 171.807 460.04 171.807 460.04 172.807C460.14 176.107 458.24 180.507 458.34 185.107C458.44 190.007 458.84 191.507 458.14 196.507C457.04 204.507 458.14 216.207 458.44 224.707C458.74 233.207 458.54 246.507 459.04 257.307C459.04 258.407 458.24 259.407 458.04 260.607C457.84 262.507 458.44 264.407 458.44 266.307C458.44 269.807 457.54 273.107 457.74 276.907C458.14 283.807 458.54 289.207 458.04 296.207C457.54 302.807 458.64 307.207 458.74 313.207C458.84 319.207 457.84 320.707 458.04 324.507C458.24 327.507 458.94 331.207 459.04 334.207C459.14 337.207 458.34 337.807 458.34 339.507C458.44 342.507 458.84 342.107 458.34 345.507C457.84 348.907 458.84 349.607 456.14 352.007C453.44 354.407 450.74 353.107 447.14 352.807C441.74 352.407 435.44 353.007 429.94 353.007C424.44 353.007 423.04 352.307 419.94 352.607C416.84 352.907 415.84 353.807 412.24 353.607C408.64 353.407 404.94 353.407 401.24 353.207C397.64 353.007 392.64 351.707 389.24 351.907C385.84 352.107 386.44 352.707 384.94 352.907C381.64 353.307 378.34 352.107 375.34 352.207C373.04 352.207 371.34 352.907 368.34 352.907C356.84 352.907 345.54 353.607 334.04 353.307C330.64 353.207 325.64 352.007 322.34 351.907C319.04 351.807 314.54 353.207 310.74 352.907C306.94 352.607 303.74 352.007 299.74 352.307C297.74 352.407 294.74 353.307 293.14 353.307C291.54 353.307 290.94 352.607 289.84 352.607C288.74 352.607 287.34 353.607 286.14 353.607C284.94 353.607 279.34 351.807 278.34 351.207C271.14 347.207 275.14 339.407 275.34 332.907C275.54 326.407 274.14 325.007 274.34 320.607C274.64 313.707 275.54 310.007 274.64 302.607C273.74 295.207 275.54 296.307 275.64 293.307C275.74 286.007 271.44 280.707 278.14 274.507C281.14 271.707 285.54 270.607 289.44 270.807C294.54 271.207 297.94 273.507 302.54 275.307C307.14 277.107 315.64 281.307 321.64 281.107C327.64 280.907 336.94 273.307 338.54 268.707C340.14 264.007 340.64 256.707 339.24 251.807C337.84 246.907 332.44 243.207 330.44 241.707C325.84 238.307 322.84 237.407 317.04 237.907C311.24 238.407 309.44 241.707 304.54 245.007C301.14 247.307 296.04 249.907 292.14 251.307C288.24 252.707 289.14 253.107 287.14 252.807C282.64 252.107 278.34 250.407 276.04 246.307C273.74 242.207 275.24 243.507 275.24 240.807C275.24 235.407 274.94 230.207 274.84 224.807C274.74 219.407 274.44 220.607 274.54 218.807C274.64 217.007 275.34 215.807 275.24 214.107C275.14 212.407 274.04 210.307 273.94 208.407C273.64 205.307 275.04 201.107 274.94 197.807C274.94 195.807 273.84 193.107 273.64 191.107C273.44 189.107 275.34 185.707 272.34 184.807C269.34 183.907 265.34 185.107 261.84 185.007C258.34 184.907 258.44 183.707 256.84 183.707C250.94 183.707 244.34 185.007 238.24 184.707C232.14 184.407 226.24 182.707 224.94 185.407C223.64 188.107 226.24 187.707 226.74 188.607C227.94 190.707 228.64 191.907 230.04 194.007C234.34 200.707 234.14 201.607 235.24 209.407C235.34 210.307 235.94 211.207 236.14 212.207C237.64 222.007 231.14 233.307 224.74 240.307C218.34 247.307 214.74 248.707 210.14 249.307C203.04 250.107 189.34 249.807 183.24 246.307C177.14 242.807 181.44 244.207 180.44 243.807C179.44 243.407 178.34 243.507 177.34 242.907C176.34 242.307 176.24 241.007 175.54 240.107C174.24 238.507 172.24 237.507 171.04 236.007C168.74 232.907 167.34 226.607 165.74 223.007C164.14 219.407 164.24 221.207 164.04 220.307C163.14 216.307 165.64 210.207 164.34 205.807L172.34 188.207C173.84 182.907 166.24 185.607 163.74 185.607C161.24 185.607 158.04 184.507 155.44 184.607C152.84 184.707 151.34 185.707 149.44 185.607C146.34 185.607 143.64 184.407 139.74 184.607C135.84 184.807 135.14 185.607 133.74 185.607C132.34 185.607 130.64 184.407 129.04 184.307C127.44 184.207 125.54 184.907 123.74 185.007C120.94 185.107 114.44 184.707 112.14 183.307C106.54 179.807 108.04 174.907 107.64 169.207C107.24 163.507 106.54 163.407 106.64 160.907C106.74 158.407 107.64 158.407 107.94 157.107C108.84 152.507 107.74 147.807 107.64 143.207C107.44 131.807 107.84 120.607 107.64 109.207C107.64 107.407 106.94 104.707 107.04 102.907C107.14 101.107 107.74 101.007 107.74 99.907C107.74 98.807 106.94 97.607 107.04 96.207C107.14 94.807 107.94 93.907 108.04 92.507C108.14 91.107 107.34 89.707 107.34 88.207C107.34 86.707 108.24 83.907 108.34 81.907C108.64 75.607 106.74 67.407 106.94 61.307C107.14 55.207 107.74 59.207 107.94 57.907C108.94 50.807 107.14 44.607 107.64 37.607C108.14 30.607 107.04 26.407 107.04 20.307C107.04 14.207 107.74 15.807 107.74 14.307C107.74 12.807 106.74 12.007 106.74 10.607C106.74 9.20702 107.54 8.70702 107.74 7.90702C107.94 7.10702 107.44 6.40702 107.44 5.70702C107.44 3.50702 111.74 0.407018 114.04 0.307018L113.74 0.00701873ZM224.54 14.907C211.14 15.907 195.14 16.407 181.84 15.507C168.54 14.607 174.44 16.507 170.84 16.507C167.24 16.507 165.44 15.607 162.84 15.507C157.84 15.207 148.84 15.307 143.84 15.807C138.84 16.307 140.94 16.807 139.54 16.807C137.24 16.807 135.14 15.107 132.24 15.507C129.34 15.907 130.24 16.407 129.24 16.407C127.44 16.407 125.14 14.307 122.94 16.107C120.74 17.907 122.84 25.907 122.84 28.607C122.74 38.107 121.24 48.707 122.14 58.207C122.24 59.507 123.24 60.707 123.14 62.207C123.14 64.507 121.84 66.107 122.14 69.507C122.64 76.107 121.84 81.907 122.14 88.507C122.44 95.107 121.84 102.807 121.84 110.107C121.84 117.407 121.84 125.107 121.84 132.707C121.84 134.207 121.34 135.607 121.44 137.407C121.54 139.207 122.74 141.607 122.84 143.707C122.94 145.807 122.24 146.007 122.14 147.307C121.84 150.707 122.94 154.907 122.44 159.007C121.94 163.107 121.44 161.307 121.44 162.307C121.44 163.307 121.84 166.507 122.04 167.407C123.04 171.407 129.24 168.707 132.04 168.507C134.84 168.307 139.54 169.707 143.34 169.807C147.14 169.907 152.54 169.207 156.94 168.807C161.34 168.407 164.84 170.007 168.64 169.807C172.44 169.607 173.14 168.407 175.94 168.507C178.74 168.607 181.74 169.307 184.44 172.007C188.84 176.507 189.74 183.907 187.54 189.707C185.34 195.507 185.74 192.107 185.04 193.607C183.44 197.007 182.34 200.707 180.94 204.107C179.54 207.507 178.44 212.907 178.44 215.607C178.44 220.607 183.64 228.007 187.54 231.007C192.44 234.807 201.24 235.207 207.04 233.607C208.04 233.307 214.34 228.607 215.14 227.707C215.94 226.807 220.64 220.107 220.84 219.507C221.74 216.807 221.24 208.907 220.24 206.307C219.24 203.707 215.74 200.907 214.64 199.307C212.04 195.407 209.34 190.807 207.84 186.507C206.34 182.207 206.04 183.707 206.34 181.507C206.64 179.307 208.44 174.107 210.24 172.407C214.44 168.507 216.04 169.907 221.04 169.907C226.04 169.907 233.94 169.307 240.34 169.507C246.74 169.707 242.64 170.207 243.64 170.207C245.44 170.207 247.54 168.907 249.34 168.907C251.14 168.907 251.74 169.507 252.94 169.607C256.74 169.807 260.44 168.807 263.94 168.907C267.44 169.007 270.24 170.507 273.54 168.907C276.84 167.307 274.04 165.107 274.04 163.207C274.04 161.307 274.74 160.807 274.74 159.607C274.74 158.407 273.84 156.907 273.84 155.607C273.84 154.307 274.94 151.007 275.14 148.907C275.34 146.807 274.54 144.707 274.84 142.607C275.14 140.507 275.84 140.007 276.04 138.807C276.44 136.007 275.84 132.107 275.74 129.207C275.74 123.407 276.44 115.307 275.74 109.907C275.44 107.207 273.54 106.607 271.04 107.207C265.54 108.607 259.54 112.807 254.34 115.107C249.14 117.407 239.94 119.607 232.84 118.207C225.74 116.807 224.34 114.407 223.64 113.807C219.24 110.007 214.54 96.607 215.64 91.207C219.44 72.307 234.64 66.807 252.14 72.107C254.44 72.807 255.04 73.907 257.04 74.907C260.34 76.507 264.14 77.807 267.44 79.407C270.74 81.007 269.94 82.007 272.14 81.507C274.34 81.007 274.54 79.107 274.94 77.607C276.14 72.607 275.24 70.607 274.74 66.107C274.24 61.607 274.24 51.907 274.04 45.807C274.04 43.607 274.74 41.807 274.74 39.807C274.74 37.807 274.14 37.207 274.04 35.807C273.84 32.307 274.44 27.407 274.74 23.807C275.04 20.207 274.54 18.107 274.34 17.207C273.64 14.707 267.84 16.607 265.94 16.607C260.34 16.807 256.64 15.507 251.64 15.207C246.64 14.907 245.44 16.507 241.94 16.207C236.14 15.807 230.64 14.507 224.44 15.007L224.54 14.907ZM346.94 235.507C349.24 237.707 354.24 245.807 354.64 248.907C355.54 255.607 355.24 270.307 351.84 276.007C348.44 281.707 349.74 277.407 349.04 278.607C348.34 279.807 348.54 281.607 347.64 282.607C346.74 283.607 346.04 283.307 345.24 283.907C343.64 285.207 342.44 287.307 340.94 288.507C337.74 291.007 331.44 292.107 327.54 293.807C323.64 295.507 326.14 295.207 325.14 295.407C322.34 295.907 319.04 294.807 316.14 294.707C314.34 294.707 312.14 295.207 310.54 295.007C308.84 294.807 305.74 292.507 303.84 291.707C301.14 290.507 298.24 289.607 295.54 288.407C292.84 287.207 292.64 286.207 291.14 286.407C288.74 286.807 290.24 293.107 290.34 294.607C290.44 296.807 289.74 298.807 289.64 300.907C289.54 303.007 290.24 306.707 290.04 308.907C289.84 311.107 288.74 311.507 288.64 313.207C288.54 319.507 289.54 325.907 289.64 332.107C289.64 333.907 288.14 336.407 290.64 337.407C293.14 338.407 295.84 337.107 298.44 336.907C304.44 336.507 308.74 338.107 314.04 338.207C317.34 338.207 319.94 336.907 323.34 337.207C326.74 337.507 326.14 338.107 327.64 338.207C335.44 339.007 343.34 337.907 351.24 337.707C361.64 337.607 373.24 337.107 383.54 337.807C387.74 338.107 391.34 336.707 395.24 336.807C403.94 337.107 412.24 338.407 421.14 337.507C422.44 337.407 424.04 336.607 425.14 336.507C426.94 336.507 429.34 337.707 431.14 337.807C432.94 337.907 434.34 336.707 436.14 336.807C437.94 336.907 440.54 339.107 442.44 336.807C444.34 334.507 442.24 327.007 442.24 324.307C442.34 314.407 443.84 305.207 442.94 295.107C442.04 285.007 442.04 292.707 442.04 291.407C442.04 290.107 443.34 287.907 443.34 286.107C443.34 284.307 442.34 282.707 442.34 281.107C442.24 275.507 443.34 270.207 442.94 264.207C442.54 258.207 443.54 248.907 443.64 241.207C443.64 234.507 443.34 227.607 443.24 220.907C443.24 219.307 443.74 217.507 443.64 215.607C443.54 213.707 442.34 211.807 442.24 210.007C442.14 208.207 443.24 206.907 443.24 205.307C443.24 203.707 442.24 202.107 442.24 200.307C442.24 195.807 444.44 191.207 443.14 186.507C441.84 181.807 434.44 184.307 431.14 184.507C425.24 185.007 418.44 183.407 412.54 183.507C406.64 183.607 409.34 184.507 407.84 184.507C406.34 184.507 404.44 183.707 402.84 183.507C397.44 183.007 393.04 184.707 388.14 184.507C383.24 184.307 382.54 183.207 380.24 180.107C376.54 175.307 375.74 169.307 377.94 163.607C380.14 157.907 379.94 161.407 380.54 159.907C381.54 157.607 382.04 154.207 382.84 151.907C384.94 146.207 387.74 142.507 386.94 135.707C386.54 132.607 380.84 124.707 378.34 122.707C375.84 120.707 371.24 119.107 369.54 118.907C367.84 118.707 358.94 119.607 357.54 120.207C356.14 120.807 350.64 124.907 350.34 125.307C349.54 126.207 345.74 131.807 345.24 132.807C343.94 135.107 344.34 144.707 345.44 147.107C346.54 149.507 346.84 148.507 347.34 149.207C351.54 155.607 355.44 160.107 357.84 167.607C360.24 175.107 359.04 169.707 359.14 170.307C359.24 170.907 357.14 178.107 356.74 179.007C355.64 181.107 352.34 183.407 350.04 183.707C347.74 184.007 346.74 183.307 345.34 183.407C337.64 183.607 329.54 184.407 322.04 183.807C314.54 183.207 316.84 184.907 314.04 185.007C311.24 185.107 307.24 184.007 304.14 184.107C301.04 184.207 299.64 185.007 297.54 185.107C295.44 185.207 290.54 183.407 290.04 186.607C289.84 188.107 289.54 193.107 289.64 194.607C289.74 196.107 290.94 197.207 290.94 198.307C290.94 199.407 289.64 201.107 289.64 202.607C289.54 206.807 289.64 212.607 290.04 216.907C290.24 218.907 291.04 221.807 291.04 223.607C291.04 225.407 287.34 234.107 291.54 234.107C292.74 234.107 292.94 233.007 293.74 232.607C297.34 230.707 300.44 228.607 304.14 226.707C307.84 224.807 305.74 225.307 306.64 224.907C308.44 224.307 310.64 224.707 312.44 224.407C314.24 224.107 315.64 223.407 317.14 223.107C327.24 221.507 339.64 228.707 346.74 235.507H346.94Z" fill="white"/>
<path d="M239.44 290.707C239.84 291.007 240.14 291.707 240.74 292.207C242.44 293.607 246.24 294.807 246.94 296.607C247.64 298.407 247.44 301.307 246.64 303.507C244.54 309.507 241.74 310.907 238.84 315.707C235.94 320.507 236.64 321.207 234.64 323.507C232.64 325.807 230.04 329.007 228.34 332.207C226.64 335.407 227.94 334.707 227.24 335.807C226.54 336.907 224.04 338.707 223.14 340.007C221.24 342.607 220.24 345.907 218.84 348.307C216.64 352.007 213.64 355.907 211.64 359.807C207.74 367.307 216.14 369.507 221.94 369.807C224.64 370.007 227.34 369.307 229.94 369.507C233.14 369.707 242.44 371.007 245.24 372.107C249.04 373.607 258.54 382.107 259.54 386.107C262.74 398.807 257.14 414.307 245.04 420.207C226.04 429.607 211.74 414.607 201.64 400.407C200.24 398.507 200.34 396.507 197.64 395.407C194.94 394.307 190.84 395.307 188.94 398.507C187.04 401.707 187.94 401.407 187.24 402.807C182.64 411.307 176.84 419.207 172.34 427.807C171.44 429.507 171.14 432.107 170.44 433.207C169.74 434.307 168.24 434.807 167.44 435.607C165.64 437.407 165.84 438.907 164.74 440.907C162.24 445.407 157.44 453.507 151.14 451.607C150.14 451.307 146.24 449.107 144.94 448.507C139.84 446.007 137.24 444.507 132.84 441.007C128.44 437.507 123.14 435.707 117.94 432.607C112.74 429.507 110.14 427.507 106.04 425.207C101.94 422.907 98.7396 420.707 95.0396 418.607C91.3396 416.507 88.8396 415.907 85.9396 414.107C83.0396 412.307 84.0396 412.007 82.8396 411.607C78.5396 410.007 80.6396 410.607 77.5396 408.207C74.4396 405.807 74.5396 407.107 73.1396 406.307C71.7396 405.507 69.9396 403.307 68.2396 402.207C64.7396 400.007 59.7396 397.607 55.9396 395.507C54.1396 394.507 51.4396 394.007 49.8396 393.007C48.2396 392.007 46.0396 389.507 44.0396 388.107C39.8396 385.307 35.3396 384.207 31.1396 381.707C26.9396 379.207 26.4396 378.007 24.1396 376.707C20.8396 374.907 16.0396 373.407 13.0396 371.507C10.0396 369.607 10.9396 369.207 9.33964 368.507C7.73964 367.807 6.83964 368.007 5.93964 367.607C5.03964 367.207 4.63964 365.907 3.93964 365.307C1.93964 363.607 1.33964 364.407 0.439638 361.207C-0.960362 356.307 1.23964 356.307 3.43964 353.207C6.13964 349.407 9.33964 344.107 11.5396 340.007C13.7396 335.907 12.2396 337.407 13.0396 336.207C13.8396 335.007 15.5396 333.807 16.5396 332.107C18.4396 329.107 18.6396 325.807 20.3396 322.907C22.0396 320.007 26.6396 313.807 29.2396 310.107C31.8396 306.407 33.3396 304.407 35.4396 299.307C37.5396 294.207 39.9396 293.407 41.4396 290.307C48.1396 276.507 56.5396 262.907 64.6396 249.907C72.7396 236.907 67.5396 246.907 68.5396 245.507C70.0396 243.207 70.9396 239.307 72.4396 236.707C73.9396 234.107 77.3396 230.407 79.3396 226.607C80.4396 224.507 81.3396 221.507 82.5396 219.507C83.7396 217.507 84.2396 217.907 84.7396 216.807C86.6396 213.107 86.3396 212.107 90.0396 209.107C93.7396 206.107 95.7396 205.707 99.2396 207.507C102.74 209.307 106.64 213.607 110.04 215.707C113.44 217.807 114.04 217.207 115.94 218.107C121.34 220.607 125.84 225.307 130.84 228.107C135.84 230.907 134.94 229.207 136.54 230.107C138.14 231.007 137.84 231.807 138.64 232.407C140.64 234.107 144.54 236.507 146.94 237.407C149.34 238.307 150.04 237.907 151.54 238.807C156.64 241.507 158.34 247.007 157.74 252.607C157.44 255.407 153.64 261.907 151.24 263.407C148.84 264.907 147.64 265.107 144.74 267.507C140.04 271.407 132.84 275.807 129.74 281.507C126.64 287.207 128.54 294.707 129.74 298.407C130.94 302.107 133.54 304.207 135.34 305.807C137.14 307.407 145.74 311.407 148.14 311.307C156.54 310.707 164.84 307.507 168.74 299.707C172.64 291.907 169.64 291.307 169.54 284.507C169.44 277.707 169.54 281.407 169.54 279.807C169.54 277.007 170.04 267.407 171.84 265.507C175.34 261.807 178.94 258.807 184.34 259.707C189.74 260.607 187.24 261.707 188.74 262.607C194.54 266.307 201.44 269.307 207.34 272.607C208.74 273.407 209.94 275.007 211.84 275.807C213.74 276.607 215.54 276.707 217.24 277.707C218.94 278.707 221.74 281.607 224.54 283.007C230.04 285.907 233.64 287.007 238.94 291.007L239.44 290.707Z" fill="white"/>
</svg>
