<svg width="444" height="424" viewBox="0 0 444 424" fill="none" xmlns="http://www.w3.org/2000/svg">
<path d="M140.951 2.20018C141.751 2.40018 142.351 2.80018 143.051 3.30018C144.151 4.00018 144.851 4.70018 145.451 5.90018C146.051 7.10018 146.751 8.90018 146.951 10.4002C147.151 11.9002 147.351 14.0002 147.351 15.7002C147.351 18.3002 147.751 20.7002 147.451 23.4002C147.151 26.1002 146.851 27.8002 148.451 28.9002C150.251 30.1002 153.451 30.3002 155.451 30.0002C158.951 29.6002 160.351 29.4002 163.951 30.0002C167.551 30.6002 169.851 29.6002 173.451 30.0002C180.551 30.7002 189.351 31.2002 196.351 30.5002C199.151 30.2002 199.251 30.4002 201.851 30.5002C211.951 31.1002 221.751 29.3002 231.851 30.5002C241.951 31.7002 245.651 30.6002 251.551 30.0002C257.451 29.4002 253.351 29.3002 255.051 29.5002C260.351 30.3002 265.951 30.4002 271.251 30.0002C285.551 28.8002 301.051 31.2002 315.451 29.5002C329.851 27.8002 320.651 29.3002 322.251 29.5002C323.851 29.7002 325.651 30.8002 327.451 30.5002C329.251 30.2002 331.351 29.2002 333.651 29.5002C337.551 30.0002 338.451 29.8002 342.151 29.5002C346.751 29.2002 351.251 30.9002 355.951 30.2002C360.651 29.5002 358.351 29.9002 359.151 29.0002C359.951 28.1002 360.951 26.8002 361.151 25.5002C361.651 22.5002 360.251 19.4002 360.851 16.4002C361.451 13.4002 361.551 9.10018 363.451 6.20018C365.351 3.30018 369.351 1.90018 372.851 1.20018C376.351 0.500177 377.051 1.20018 379.151 1.40018C381.251 1.60018 381.951 0.900177 383.451 1.20018C384.951 1.50018 385.751 1.50018 386.951 1.50018C390.151 1.50018 393.751 1.60018 396.351 3.90018C398.951 6.20018 400.151 6.40017 401.051 8.60017C401.951 10.8002 401.551 10.7002 401.851 11.8002C402.251 13.5002 402.251 15.1002 402.251 16.8002C402.251 18.5002 402.251 18.7002 402.251 19.7002C402.251 20.7002 402.551 21.0002 402.551 21.7002C402.551 24.1002 402.851 26.9002 404.751 28.6002C406.651 30.3002 407.851 29.6002 409.451 29.6002C412.151 29.6002 414.951 29.2002 417.651 29.3002C420.351 29.4002 422.951 29.9002 425.551 29.9002C428.151 29.9002 426.851 29.9002 427.551 29.9002C428.351 29.9002 429.451 29.4002 430.251 29.4002C431.851 29.4002 435.351 30.2002 436.851 30.8002C438.351 31.4002 438.651 31.7002 439.251 32.7002C441.151 35.8002 441.551 39.7002 441.651 43.2002C441.751 46.7002 441.551 51.9002 441.251 56.2002C440.951 60.5002 441.051 61.3002 441.251 63.8002C441.451 66.3002 441.251 68.0002 441.551 70.1002C441.851 72.2002 441.351 74.2002 441.351 76.2002C441.351 78.2002 441.351 79.9002 441.351 81.7002C441.351 83.5002 441.651 85.2002 441.851 87.0002C442.051 88.8002 441.851 91.0002 441.851 92.9002C441.851 94.8002 441.851 97.1002 441.851 99.2002C441.851 101.3 441.951 103.2 442.051 105.3C442.151 107.4 442.051 107 442.051 107.9C442.051 108.8 442.351 109.5 442.251 110.3C442.151 112 442.051 113.8 441.951 115.5C441.851 117.2 441.751 119.1 441.751 120.9C441.751 122.7 441.951 123.9 442.051 125.4C442.051 128.4 442.051 131.4 442.051 134.4C442.051 137.4 442.051 137.5 441.951 139.1C441.751 141 441.851 143 441.451 144.8C441.051 146.6 441.451 148.5 441.451 150.3C441.651 154.3 441.751 158.4 441.851 162.4C441.851 164.5 441.851 166.6 441.851 168.7C441.851 170.8 441.851 171.2 441.651 172.4C441.451 173.6 441.351 173.3 441.251 173.8C440.851 175.2 441.451 177 441.551 178.5C441.751 181.8 441.951 185.2 441.651 188.5C441.351 193.4 441.651 198.4 441.651 203.2C441.651 208 441.651 205.2 441.651 206.2C441.651 207.2 441.951 208 441.851 209C441.851 211.6 441.851 214.3 441.851 216.9C441.851 219.5 441.851 221.6 441.851 223.9C441.851 226.2 442.051 226 442.151 227C442.251 228 442.151 229.6 441.951 230.9C441.751 232.9 441.151 235.2 441.451 237.2C441.751 239.2 441.751 241.8 441.851 244C442.151 248.4 441.951 253 441.451 257.4C440.951 261.8 441.251 261.4 441.451 263.4C441.651 265.4 441.651 265.4 441.651 266.4C441.651 267.4 441.651 268.7 441.651 269.9C441.751 271.8 441.651 273.7 441.651 275.6C441.651 277.5 441.151 278.8 441.251 280.3C441.351 281.8 441.351 281.6 441.351 282.2C441.351 283.8 441.351 285.4 441.351 287C441.351 288.6 441.551 290.6 441.651 292.4C441.751 294.2 441.851 295.9 441.951 297.6C442.051 300.3 442.351 303.1 442.151 305.9C441.951 308.7 441.951 311.2 441.951 313.8C441.951 316.4 441.951 320 441.651 323.2C441.251 327.4 441.451 331.7 441.451 336C441.451 340.3 441.151 340.1 441.351 342.1C441.551 344.1 441.851 344.3 442.051 345.5C442.251 346.7 442.051 347.9 442.051 349.1C442.051 350.3 442.051 352.2 442.051 353.7C442.051 356.2 442.351 358.7 442.351 361.1C442.351 363.5 442.351 362.9 442.551 363.8C442.751 364.7 443.051 366 443.151 367.2C443.351 369.6 443.351 372.2 443.051 374.6C442.751 377 442.951 378 442.951 379.7C442.951 381.4 442.651 382.4 442.451 383.7C442.251 385 442.451 385 442.251 385.7C442.051 386.4 441.951 386.7 441.751 387.2C441.551 387.7 441.551 388.1 441.351 388.4C441.051 388.9 440.551 389.3 440.251 389.8C439.651 390.8 438.651 391.4 437.651 391.9C436.651 392.4 436.551 392.6 435.951 392.7C435.351 392.8 435.051 392.7 434.551 392.7C433.851 392.7 433.351 393 432.651 393C431.951 393 431.451 393 430.951 393C430.451 393 429.651 392.8 428.951 392.7C427.051 392.6 425.451 393.5 423.651 393.4C421.851 393.3 419.351 393.4 417.151 393.4C412.851 393.4 408.451 393.3 404.151 393.3C395.451 393.3 386.851 393.3 378.151 393.3C373.251 393.3 368.351 393.5 363.551 393.7C360.151 393.8 356.451 393.2 353.251 393.4C350.051 393.6 349.351 393.9 346.551 393.9C336.851 393.8 327.651 393 317.751 393.2C307.851 393.4 291.351 393.8 278.051 393.2C273.351 393 269.051 393.9 264.551 394C260.051 394.1 261.051 393.5 259.351 393.5C252.551 393.3 245.651 393.3 238.851 393.3C236.551 393.5 234.651 395.1 232.751 396C230.851 396.9 230.251 396.6 229.551 397.1C228.851 397.6 228.751 398.1 228.351 398.4C227.551 399 226.451 400.2 225.651 400.7C224.151 401.6 222.051 402.2 220.251 403.2C218.451 404.2 216.851 404.7 215.251 405.7C213.651 406.7 211.051 409.3 210.051 409.5C206.151 410.4 204.751 410.7 200.951 412.8C195.251 415.8 189.451 416.7 183.051 418.4C176.651 420.1 175.851 420.5 171.951 421C168.051 421.5 167.151 422.2 164.951 422.5C162.751 422.8 158.551 422.7 155.451 423C148.151 423.7 141.251 422 133.951 422.5C131.051 422.7 129.251 423.6 126.051 422.5C120.251 420.5 115.851 419.9 109.951 418.6C106.851 417.9 104.351 416.4 101.051 415.8C96.1514 414.8 92.2514 412.1 87.3514 410.2C82.4514 408.3 82.1514 408.7 79.4514 407.2C76.7514 405.7 76.1514 404.5 74.3514 403C69.6514 399.1 62.9514 397.1 57.9514 393C54.3514 390.1 50.5514 386.3 46.6514 383.7C42.7514 381.1 41.0514 379.4 38.5514 376.4C36.0514 373.4 34.3514 370.7 31.9514 367.8C29.5514 364.9 27.8514 362.9 25.5514 359C23.2514 355.1 19.7514 350.3 17.7514 345.4C15.7514 340.5 14.5514 339.6 12.9514 336.4C11.3514 333.2 10.4514 329.8 9.15142 326C7.85142 322.2 7.55142 323.1 7.35142 321.8C7.15142 320.5 7.35142 318.9 6.75142 317.2C5.75142 314.4 3.85142 311 3.15142 308C2.25142 304.1 2.55142 298.6 2.25142 294.7C1.95142 290.8 0.35142 286.8 0.55142 282.5C0.75142 278.2 1.15142 276.5 1.05142 273.5C0.65142 265.4 1.75142 258.8 3.35142 250.8C4.95142 242.8 5.75142 238.2 7.85142 231.9C9.95142 225.6 10.2514 227.2 11.0514 224.1C12.3514 219 15.6514 213 18.2514 208.2C20.8514 203.4 22.7514 202.4 23.4514 199.2C24.1514 196 23.6514 197.1 24.4514 195.7C25.2514 194.3 28.2514 192.3 29.2514 190.9C30.2514 189.5 31.5514 186.6 32.7514 185C33.9514 183.4 37.1514 180.4 38.9514 178.4C44.8514 171.9 51.9514 167.5 58.6514 162.2C65.3514 156.9 63.9514 158.5 65.1514 156.2C66.3514 153.9 65.4514 151.3 65.6514 149C66.1514 144.4 66.5514 138.4 66.1514 133.8C65.7514 129.2 65.8514 131.9 66.1514 129.5C66.9514 121.4 65.8514 112.4 65.6514 104C65.4514 95.6002 66.0514 101.8 66.1514 100.5C66.5514 97.0002 65.1514 94.2002 65.6514 90.8002C66.1514 87.4002 66.6514 86.9002 66.6514 85.0002C66.6514 82.0002 65.2514 78.3002 65.6514 75.2002C66.1514 70.9002 66.7514 68.7002 66.1514 64.2002C65.5514 59.7002 65.7514 58.3002 66.1514 55.0002C66.5514 51.7002 66.1514 47.6002 66.6514 43.2002C67.1514 38.8002 65.4514 38.0002 66.7514 34.8002C68.0514 31.6002 67.4514 34.0002 67.5514 33.8002C67.6514 33.6002 67.5514 33.2002 67.7514 33.0002C67.9514 32.8002 68.7514 32.0002 68.8514 31.9002C72.7514 29.4002 77.7514 31.1002 82.2514 30.9002C86.7514 30.7002 87.9514 29.9002 90.7514 29.9002C94.3514 29.9002 97.9514 31.1002 101.551 30.3002C105.151 29.5002 104.651 29.6002 105.251 28.6002C105.851 27.6002 105.751 24.5002 105.751 23.0002C105.751 21.6002 105.751 20.1002 105.751 18.7002C105.751 17.3002 105.451 16.0002 105.351 14.7002C105.151 12.2002 105.251 8.80018 106.751 6.70018C108.251 4.60018 109.351 4.20018 110.951 3.50018C112.551 2.80018 112.051 3.20018 112.651 3.00018C113.251 2.80018 114.151 2.40018 114.951 2.30018C116.651 2.00018 118.551 2.10018 120.351 2.00018C122.151 1.90018 124.051 1.80018 125.951 1.80018C127.851 1.80018 129.051 1.60018 130.651 1.40018C132.251 1.20018 132.851 1.60018 134.051 1.80018C135.251 2.00018 136.051 1.60018 137.151 1.80018C138.251 2.00018 138.651 2.10017 139.551 2.10017C140.451 2.10017 140.451 2.10018 140.851 2.30018L140.951 2.20018ZM129.651 15.1002C128.851 15.1002 128.051 15.1002 127.251 14.9002C125.451 14.5002 124.051 14.2002 122.351 15.3002C120.651 16.4002 120.651 16.4002 120.251 17.6002C119.151 21.4002 120.651 24.9002 120.251 28.8002C119.751 33.4002 119.951 35.1002 120.251 39.5002C120.551 43.9002 120.051 43.9002 120.251 45.7002C120.451 47.5002 122.051 50.5002 122.551 50.8002C123.051 51.1002 123.151 50.8002 123.251 50.8002C125.151 51.8002 127.651 52.1002 130.051 51.8002C132.451 51.5002 133.451 47.5002 133.151 45.2002C132.751 41.6002 132.651 38.0002 132.151 34.5002C131.851 32.0002 132.651 29.4002 132.651 26.8002C132.651 24.2002 133.151 24.6002 133.251 23.4002C133.351 22.2002 133.051 20.8002 132.851 19.5002C132.651 18.1002 132.551 17.1002 131.751 16.0002C130.951 14.9002 130.451 15.0002 129.551 15.0002L129.651 15.1002ZM385.351 14.4002C385.151 14.4002 384.851 14.4002 384.651 14.4002C383.751 14.2002 382.851 13.8002 381.951 14.0002C381.051 14.2002 380.251 14.3002 379.351 14.5002C378.151 14.8002 376.651 15.2002 376.051 16.5002C375.451 17.8002 375.851 17.8002 375.851 18.5002C375.851 19.9002 375.551 21.2002 375.651 22.6002C375.651 24.7002 376.051 26.9002 375.751 29.0002C375.251 33.6002 375.451 35.3002 375.751 39.7002C375.851 42.2002 375.551 44.9002 375.951 47.4002C376.651 51.8002 381.951 52.5002 385.651 52.1002C388.551 51.8002 389.051 47.8002 388.751 45.5002C388.351 41.9002 388.251 38.3002 387.751 34.8002C387.551 33.2002 387.851 31.7002 388.051 30.1002C388.251 28.5002 388.251 26.7002 388.351 25.0002C388.551 22.4002 389.251 19.1002 388.051 16.7002C387.751 16.1002 387.451 15.1002 386.751 14.8002C386.051 14.5002 385.851 14.6002 385.251 14.6002L385.351 14.4002ZM154.651 117.3C154.651 117.3 154.651 117.3 154.551 117.3C152.951 116.6 150.951 116.9 149.251 116.8C145.251 116.7 141.251 116.7 137.351 117C130.951 117.4 124.151 117.2 117.851 118C111.551 118.8 112.351 117.4 109.851 117.3C107.351 117.2 103.351 117.2 100.151 117C94.2514 116.7 90.3514 116.1 84.3514 117.4C78.3514 118.7 83.3514 117.4 82.9514 117.5C82.0514 117.8 80.8514 119.4 80.7514 120.3C80.1514 124.7 81.2514 130.3 80.7514 134.8C80.2514 139.3 80.3514 136.1 80.2514 136.8C79.9514 139 80.2514 145 83.3514 144.7C84.7514 144.1 86.2514 143.6 87.6514 143C90.9514 141.8 94.8514 140.7 98.2514 139.4C106.251 136.3 115.951 134.6 124.251 132.7C132.551 130.8 139.151 130.8 147.751 131C149.751 131 151.751 131.5 153.751 131.2C155.751 130.9 156.551 131.2 156.551 129.3C156.551 127.4 156.551 126.9 156.551 125.8C156.751 123.9 156.951 122.3 156.551 120.4C156.151 118.5 155.651 117.9 154.651 117.4V117.3ZM428.451 152.8C429.751 149.8 427.751 145.3 428.051 141.8C428.551 136.7 428.051 132.6 428.551 127.8C429.051 123 428.751 120.1 427.751 118.3C426.751 116.5 423.851 116.9 421.951 116.9C414.051 116.9 406.251 116.2 398.151 116.4C390.051 116.6 389.551 117.5 386.151 117.4C382.751 117.3 383.951 116.9 382.951 116.9C377.951 116.7 372.951 117.1 367.951 116.9C362.951 116.7 363.751 116.7 360.451 116.9C357.151 117.1 354.651 116.3 351.751 116.9C348.851 117.5 349.451 118.7 349.351 120C349.251 121.5 349.651 122.9 350.051 124.3C350.451 125.7 350.251 125.7 350.251 126.4C350.251 128.2 350.451 130.1 350.551 131.9C350.751 135.6 351.051 139.3 351.051 143C351.051 146.7 351.151 148.6 351.051 151.3C350.951 154 350.751 153.3 350.751 154.3C350.751 155.3 350.751 156.5 350.551 157.6C350.451 158.4 350.151 159.1 350.251 159.9C350.351 160.7 350.451 160.5 350.451 160.8C350.551 161.9 350.451 163.1 350.451 164.3C350.451 165.5 350.651 166.6 350.751 167.7C350.851 170.3 351.151 172.8 351.251 175.4C351.351 178 351.051 179.5 350.951 181.6C350.851 183.7 351.451 185.1 351.151 186.8C350.851 188.5 350.751 189.7 350.951 191C351.151 192.3 351.251 191.9 351.251 192.4C351.251 192.9 350.951 193.2 350.951 193.6C350.951 194.3 350.951 195.1 351.251 195.7C351.751 197 353.551 197.1 354.751 197.1C355.951 197.1 356.151 197 356.751 196.8C357.351 196.6 358.451 196.8 359.251 196.8C363.551 197.1 367.851 197 372.151 197C376.451 197 373.551 197 374.251 197C378.051 197 382.051 196.7 385.551 197.5C389.051 198.3 387.751 197 388.251 197C392.551 196.5 398.151 197.5 402.551 197C406.951 196.5 411.951 197.3 417.251 197C422.551 196.7 419.251 196.5 420.251 196.5C421.251 196.5 422.851 196.8 424.251 196.8C425.651 196.8 426.651 196.5 427.151 195.9C427.651 195.3 427.851 194.4 427.851 193.9C428.351 189.9 427.651 184.8 428.051 180.9C428.851 174.2 428.751 167.9 428.051 161.2C427.851 159.3 427.851 154.1 428.451 152.8ZM249.451 119.6C248.851 118.5 248.051 117.7 246.951 117.5C244.851 117.1 242.351 117.5 240.251 117.5C232.351 117.4 224.551 116.7 216.751 117.5C208.951 118.3 206.251 116.7 200.751 117C195.251 117.3 192.051 118.6 188.551 118.2C185.051 117.8 183.551 117.3 180.051 117.2C176.551 117.1 172.151 116.4 171.151 119.5C170.151 122.6 171.051 128.7 171.651 130.6C172.251 132.5 172.751 132.3 173.051 132.6C173.351 132.9 173.551 132.6 173.851 132.8C175.751 133.5 178.651 134.7 181.051 135.2C183.451 135.7 184.751 135.5 186.251 135.8C190.751 136.8 195.251 139 199.151 140.9C205.751 144.2 213.251 146.4 219.551 150.3C225.851 154.2 222.651 153 224.251 154.1C225.851 155.2 229.151 156.8 231.351 158.2C233.551 159.6 235.351 161.6 237.551 163.5C238.651 164.4 239.751 165.3 240.951 166.3C242.151 167.3 243.851 168.9 245.251 170.2C246.651 171.5 247.451 171.6 248.751 171C250.051 170.4 250.051 168.7 250.151 167.3C250.351 165.3 250.051 163.3 250.051 161.3C250.051 158.3 250.851 155.5 250.851 152.5C250.851 149.5 250.751 149.5 250.651 148.1C250.551 146.7 250.651 146.6 250.651 145.8C250.651 143.1 249.951 140.5 250.151 137.8C250.251 134.5 251.751 124.2 249.451 119.7V119.6ZM336.051 129.1C336.051 128.5 336.251 128 336.251 127.4C336.251 126.1 336.251 124.9 335.951 123.6C335.651 122.3 335.551 121.3 335.251 120.2C334.951 119.1 335.051 118.8 334.551 118.4C333.351 117.2 330.651 117.8 329.051 117.7C321.451 117.3 313.651 117.1 306.051 117.5C297.451 117.9 288.851 117.5 280.251 117.5C271.651 117.5 271.851 117.1 268.051 117.5C264.251 117.9 265.351 118.7 265.051 120.5C264.451 123.6 265.251 125.8 265.251 128.7C265.251 133.1 264.551 138.2 264.451 142.7C264.451 144.4 264.451 145.9 264.451 147.6C264.751 150.7 264.751 153.8 264.751 156.9C264.751 160 265.051 161.4 265.051 163.7C265.051 166 265.051 167 265.351 168.7C265.951 173.6 265.051 178.7 266.051 183.5C267.051 188.3 265.851 186.9 265.651 188.5C265.451 190.1 265.851 191.3 266.051 192.6C266.251 193.9 265.951 194.4 266.251 195.3C266.551 196.2 266.651 196.2 267.251 196.4C267.851 196.6 268.751 196.6 269.451 196.7C270.551 196.7 271.651 197 272.751 197C273.851 197 274.751 197 275.651 197C277.851 197 280.051 196.8 282.151 197C286.151 197.2 287.851 197.3 291.851 197C295.851 196.7 301.951 197.8 307.051 197.5C312.151 197.2 320.551 197.3 327.251 197C333.951 196.7 331.951 197.3 334.351 196.4C335.151 195.5 335.651 194.4 335.851 193.1C336.051 191.8 335.851 190.8 336.151 189.7C336.451 188.6 336.651 188 336.651 187.1C336.651 185.6 336.451 184.2 336.451 182.7C336.451 181.2 336.451 179.6 336.451 178.1C336.451 176.6 336.451 175.1 336.251 173.6C336.051 172.1 335.751 170.8 335.551 169.4C335.351 168 335.651 166.1 335.751 164.4C335.851 162.7 335.751 160.4 335.751 158.4C335.751 155.5 335.551 152.7 335.151 149.9C334.751 147.1 335.051 143.3 335.351 140.1C335.651 136.9 335.351 134.4 335.651 131.6C335.951 128.8 335.651 130.3 335.651 129.6C335.651 128.9 335.651 129.4 335.651 129.4L336.051 129.1ZM187.351 166C182.551 163.9 178.551 163.6 173.751 162.5C168.951 161.4 169.151 160.5 166.551 160.2C163.951 159.9 163.551 160.4 162.351 160.2C152.351 158.8 145.851 157.8 136.051 160.2C126.251 162.6 131.551 160.3 129.551 160.6C122.751 161.7 116.251 162.6 109.751 164.9C103.251 167.2 105.551 165.9 103.351 166.4C101.151 166.9 99.4514 168.1 97.6514 169.1C93.2514 171.6 87.8514 173.3 83.0514 176.3C78.2514 179.3 77.5514 180.5 74.7514 182.6C69.7514 186.4 64.0514 190 60.5514 195.2C57.0514 200.4 57.7514 198.2 56.1514 200.2C52.3514 204.7 48.3514 208.9 45.3514 214C42.3514 219.1 43.0514 217 42.1514 218.6C40.2514 221.7 39.6514 225.9 37.9514 228.8C36.2514 231.7 35.7514 231.6 35.0514 233.3C34.3514 235 34.0514 238 33.3514 240.3C32.6514 242.6 29.6514 246.8 29.2514 249.7C28.8514 252.6 29.0514 253.9 29.2514 256C29.7514 261.5 27.3514 264.5 27.0514 269.7C26.7514 274.9 27.4514 277.8 27.7514 281.9C28.4514 289.7 27.7514 294.9 30.2514 302.5C32.7514 310.1 31.6514 308.2 32.2514 311.2C33.3514 316.2 35.6514 321.5 37.5514 326.2C39.4514 330.9 39.1514 331 40.4514 333.4C41.7514 335.8 43.0514 336.5 44.2514 338.1C45.4514 339.7 46.4514 342.3 47.9514 344.3C50.9514 348.3 55.2514 352.5 58.5514 356.5C62.2514 361 66.2514 363.3 70.0514 367.3C77.2514 374.9 83.5514 380.7 93.4514 384.5C103.351 388.3 101.451 388.2 105.451 389.8C109.451 391.4 112.251 392.1 115.251 393C118.251 393.9 121.951 393.4 125.751 393.7C129.551 394 132.351 395.2 135.751 395.4C139.151 395.6 138.951 395.2 139.951 395.4C140.951 395.6 140.451 396.2 141.951 395.9C145.751 395 146.751 395.3 150.751 395.4C154.751 395.5 160.151 395.6 164.651 394.3C169.151 393 172.551 392 176.051 391.1C179.551 390.2 179.951 391.1 181.951 390.5C185.651 389.5 189.351 387 192.951 385.8C196.551 384.6 201.451 381.7 205.851 379.1C214.851 373.9 220.351 367.3 228.451 361.3C229.551 360.5 230.051 360.4 231.051 359.7C236.451 356.3 241.551 345.6 244.651 340.1C247.751 334.6 248.651 334.2 250.351 331.5C253.651 326.5 254.851 322 256.951 316.9C259.051 311.8 258.151 311.4 259.051 308.4C259.951 305.4 260.151 306.4 260.551 305.4C261.751 302.4 262.851 296.5 263.151 293C263.451 289.5 263.051 290.6 263.151 289.5C263.351 287.6 264.451 286.5 264.151 284.3C263.551 279.7 263.551 276.6 264.151 272C264.751 267.4 263.051 267.1 262.651 264.8C262.251 262.5 262.551 257.7 262.051 254.4C261.251 248.7 257.851 241.5 256.751 235.7C253.851 226.5 248.551 219.6 243.851 211.7C239.151 203.8 241.851 209.6 240.951 208.3C238.651 205.2 236.951 201.3 234.351 198.5C231.751 195.7 230.851 196.3 229.151 195C226.351 192.9 224.551 189.6 222.051 187.3C219.551 185 215.751 182.8 212.451 180.3C209.151 177.8 210.651 178.2 209.751 177.5C206.251 174.7 201.451 173.2 197.651 171.3C193.851 169.4 190.551 167.3 187.251 165.9L187.351 166ZM417.951 211.1C417.551 210.9 417.051 210.6 416.651 210.6C413.251 210.1 409.151 210.3 405.651 210.6C399.351 211.1 392.951 211.1 386.651 211.1C380.351 211.1 374.751 210.2 368.451 211.1C362.151 212 365.851 211.9 365.551 212.4C364.751 213.8 366.651 215.8 367.651 216.7C372.451 220.9 377.251 225.4 381.851 229.8C383.651 231.5 384.251 231.8 386.151 233.1C388.051 234.4 387.151 234.7 387.351 234.9C388.851 236.7 391.151 237.7 393.351 236.4C395.551 235.1 394.951 235.2 395.251 235C401.251 230.5 405.951 224.7 411.651 219.8C413.551 218.1 413.751 217.4 415.251 215.6C416.751 213.8 417.951 213.2 418.051 213C418.151 212.7 418.251 211.1 418.051 210.9L417.951 211.1ZM336.351 219C336.351 218.8 336.351 218.5 336.351 218.3C336.251 217 336.051 215.6 335.451 214.3C334.851 213 334.851 213.1 334.351 212.6C333.051 211.4 331.451 211.9 329.751 211.8C323.151 211.4 316.151 211.5 309.451 211.6C302.751 211.7 302.551 212.3 299.751 212.1C296.951 211.9 295.851 211.9 292.451 212.1C289.051 212.3 281.251 210.7 280.251 212.9C279.251 215.1 280.051 216 280.251 216.7C280.651 219.4 282.651 222.3 283.151 225C283.851 229 284.551 231.4 285.451 234.9C286.351 238.4 287.051 241.9 288.351 245.8C289.651 249.7 289.151 251.1 289.451 254.5C289.751 257.9 290.951 259.4 291.251 261.7C291.551 264 291.151 265.8 291.251 267.7C291.451 271.4 292.051 275.2 292.251 278.9C292.451 282.6 292.051 281.9 292.251 282.9C292.451 283.9 292.651 283.1 292.751 283.2C292.851 283.9 292.951 284.8 293.351 285.5C294.651 287.6 297.751 286.7 299.851 286.8C301.951 286.9 302.551 287.4 303.851 287.5C308.451 287.9 312.951 286.2 317.551 286.5C318.851 286.5 320.151 287 321.551 287C323.851 287 326.651 286.2 329.051 286.2C330.551 286.2 332.851 287.3 334.351 286.5C335.851 285.7 335.051 285.3 335.151 284.6C335.151 283.4 335.351 282.3 335.451 281.2C335.451 279.7 335.151 278.3 335.151 276.9C335.151 275.5 335.051 273.2 335.351 271.4C335.651 269.6 335.951 268.3 335.951 266.7C335.951 265.1 335.651 262.7 335.651 260.7C335.651 258.7 335.651 259.1 335.651 258.3C335.651 257.5 335.951 256.7 335.951 255.8C335.951 254.1 335.951 252.4 335.951 250.7C335.951 249 335.951 246.6 335.951 244.6C335.951 242.6 335.451 241.3 335.551 239.6C335.651 237.9 336.151 235.8 336.151 233.9C336.151 232 336.151 230.6 336.151 228.9C336.151 227.2 336.151 225 336.451 223C336.751 221 336.651 221.2 336.651 220.2C336.651 219.2 336.651 219.1 336.451 218.6L336.351 219ZM352.951 222.2C352.651 222.1 352.451 222 352.151 222C351.651 222 351.151 221.9 350.751 222.3C349.751 223.3 349.651 225.4 349.651 226.7C349.651 228 349.951 228.8 349.951 229.9C349.951 231 349.951 231.7 349.951 232.5C349.951 234.6 349.951 236.7 349.951 238.8C349.951 240.9 349.951 241.1 349.951 242.2C349.951 243.3 350.351 243.8 350.451 244.6C350.751 246.8 350.251 249.1 350.151 251.4C350.051 253.7 350.451 253.7 350.451 254.8C350.451 255.9 350.451 256.4 350.451 257.2C350.451 258.7 350.451 260.2 350.451 261.7C350.451 263.8 349.451 265.9 350.051 268C350.651 270.1 350.451 271.6 350.851 273.4C350.851 273.4 351.751 274.4 351.851 274.5C352.451 274.8 353.151 274.6 353.751 274.5C356.451 273.6 359.251 270.1 361.251 268.1C363.651 265.5 365.851 262.7 368.151 259.9C370.451 257.1 372.251 256.9 374.151 255.5C376.051 254.1 377.851 251.2 378.251 250.6C378.651 250 379.051 248.8 379.151 248.7C379.151 248.2 378.851 246.3 378.551 245.9C378.251 245.5 376.951 244.4 376.751 244.1C370.151 238.3 364.451 232 357.751 226.4C356.251 225.1 354.951 223.1 353.051 222.4L352.951 222.2ZM426.151 227.4C424.651 226.9 423.051 229 422.151 229.7C418.751 232.3 416.351 234.3 413.151 237.5C409.951 240.7 410.551 240.6 409.151 241.9C407.751 243.2 403.051 245.7 402.351 248.1C401.651 250.5 405.251 253.2 406.951 255C409.851 258.1 412.451 260.9 415.351 264C418.351 267.2 421.751 270.2 424.751 273.4C426.851 274.6 428.151 273.7 428.451 271.4C429.051 266.9 427.951 260.9 427.951 256.1C427.951 251.3 427.551 249.6 427.451 246.4C427.351 243.2 428.451 242.6 428.451 241.1C428.451 239.6 427.951 239.4 427.951 238.6C427.851 236.9 428.051 235.1 427.951 233.4C427.851 231.7 427.051 227.6 426.151 227.3V227.4ZM397.351 264.7C395.951 263.2 394.351 261.6 392.451 260.7C390.551 259.8 390.051 260 388.851 260.7C387.651 261.4 385.451 264.9 383.551 266.4C381.651 267.9 381.951 267.4 381.151 268C380.351 268.6 379.151 269.1 378.551 269.8C377.551 270.8 377.151 272.6 376.151 273.6C375.151 274.6 374.051 274.9 373.351 275.5C372.051 276.6 371.051 278.2 369.751 279.4C368.451 280.6 364.551 283.9 364.351 284.8C363.251 290.8 371.851 287.7 374.951 287.7C378.051 287.7 378.451 288.5 380.251 288.4C382.051 288.3 383.551 287.7 385.251 287.6C392.651 287.1 400.551 288.4 407.951 288.4C409.551 288.4 416.551 288.9 417.051 287.2C417.751 284.8 415.951 284.7 414.651 283.7C412.751 282.2 412.451 280.8 411.251 279C410.051 277.2 405.751 272.8 405.051 272.2C404.351 271.6 404.351 272.2 404.251 272C401.351 269.6 399.951 267.2 397.551 264.7H397.351ZM400.151 302.2C398.351 302.2 396.651 302.2 394.851 302.4C393.051 302.6 390.551 302.4 388.351 302.7C386.151 303 386.251 303 385.151 302.9C384.051 302.8 383.051 302.7 381.951 302.7C379.451 302.7 376.751 302.9 374.251 303.2C371.751 303.5 369.451 303.4 366.851 303.2C364.251 303 362.251 302.8 360.051 302.5C357.851 302.2 356.851 301.8 355.351 301.9C353.851 302 352.851 301.9 352.251 302.6C351.651 303.3 351.351 303.7 351.151 304.1C349.851 306 350.551 308.4 350.651 310.5C350.651 312.5 350.351 314.5 350.351 316.5C350.351 318.5 350.051 321.3 350.051 323.8C350.051 326.3 350.051 325.9 350.051 326.9C350.051 327.9 350.251 329.5 350.351 330.9C350.451 332.3 350.351 332.8 350.351 333.7C350.351 334.6 350.551 335.7 350.551 336.7C350.551 340.6 349.251 344.4 349.851 348.3C350.451 352.2 350.051 352.1 350.051 354C350.051 355.9 350.051 355.6 350.051 356.4C350.051 357.2 349.751 358.5 349.751 359.6C349.751 361.5 350.151 363.4 349.951 365.3C349.751 367.2 349.651 369.2 349.751 371.1C349.851 373 350.051 372.3 350.051 372.9C350.051 373.5 349.751 374.4 349.751 375.1C349.751 376.9 351.151 378.8 353.051 379C356.151 379.4 360.551 378.9 363.851 379C375.351 379.4 386.751 379.5 398.351 379.5C409.951 379.5 415.451 379.9 423.551 379C431.651 378.1 425.051 378.3 425.951 378.5C429.251 376 427.451 372.7 427.651 369.4C427.851 366.1 428.351 366.9 428.451 365.7C428.851 361.7 428.451 356.6 427.951 352.7C427.651 349.9 427.951 347.3 428.151 344.5C428.351 342.3 428.151 340.1 428.151 338C428.151 334.2 427.151 330.4 427.751 326.6C428.351 322.8 428.251 317.8 428.551 313.4C428.851 309 428.651 309.5 428.251 307.6C427.851 305.7 427.551 305.9 427.551 305.1C427.551 304.3 427.651 304.6 427.651 304.3C427.651 303.4 426.851 302.8 426.151 302.3C424.551 301.1 422.851 301.3 420.951 301.7C419.051 302.1 419.551 302 418.851 301.9C418.151 301.8 417.351 301.7 416.551 301.8C415.751 301.9 414.851 302.2 413.951 302.3C413.051 302.4 412.451 302.1 411.551 302C410.051 301.8 408.351 302.1 406.851 302C405.351 301.9 405.351 301.7 404.651 301.7C403.951 301.7 402.651 301.9 401.651 302C400.651 302.1 400.551 302 400.051 302L400.151 302.2ZM315.251 301.9C314.851 301.9 314.451 301.9 314.051 301.9C312.751 301.9 311.451 301.6 310.051 301.6C308.651 301.6 307.651 301.6 306.451 301.5C304.551 301.2 302.551 301.4 300.551 301.4H296.251C295.151 301.4 294.251 301.4 293.251 301.8C292.251 302.2 292.251 302.1 291.851 302.4C291.451 302.7 291.351 303.3 291.151 303.8C290.651 305 290.251 306 289.951 307.3C289.451 309.7 289.551 312.3 288.851 314.7C288.551 315.6 287.651 316.6 287.251 318.2C286.051 322.9 284.051 328.3 282.051 332.8C280.051 337.3 278.351 342 275.851 346.8C273.051 352.2 270.251 358.1 267.451 363.8C265.151 368.5 264.451 370.4 265.351 376C265.651 378.2 268.451 379.7 270.451 379.9C273.351 380.2 276.151 379.2 279.251 379.4C282.351 379.6 281.051 379.9 281.951 379.9C282.851 379.9 284.651 379.4 285.951 379.4C290.851 379.4 294.051 380.4 299.351 379.4C303.851 378.5 307.351 380.9 311.451 380.5C315.551 380.1 320.851 380.1 325.451 379.5C328.651 379.1 332.151 381 335.051 378.9C335.951 378.2 336.351 376.3 336.551 375.3C336.751 374.2 336.751 373.1 336.351 372.1C335.951 371 335.751 370.1 335.851 368.9C335.951 367.7 336.151 367.7 336.151 367.1C336.151 366.5 336.151 365.5 336.151 364.6C336.151 363.7 336.151 363.2 336.151 362.4C336.151 361.6 335.951 361.2 335.851 360.6C335.851 359 336.151 357.5 336.151 355.9C336.151 354.3 336.451 353 336.451 351.5C336.451 350 336.451 348 336.451 346.3C336.451 344.6 336.051 343.1 335.951 341.5C335.851 339.9 336.251 338 336.151 336.2C336.051 334.4 336.451 332.5 336.451 330.6C336.451 328.7 336.451 328.7 336.451 327.8C336.451 326.9 336.151 326.2 336.151 325.4C336.151 323.7 336.151 321.9 336.151 320.2C336.151 316.8 336.051 313.4 335.851 310C335.651 306.6 335.551 307 335.051 305.6C334.551 304.2 334.451 304.2 334.051 303.6C333.651 303 332.951 302.7 332.051 302.4C331.051 302.1 329.851 302.3 328.851 302.3C326.551 302.3 324.251 302.3 321.851 302.3C319.451 302.3 319.051 302.6 317.651 302.4C316.251 302.2 316.151 302.4 315.351 302.3L315.251 301.9Z" fill="white"/>
<path d="M148.851 164.5C149.351 164.8 149.651 165.1 149.851 165.8C150.151 167 150.851 167.9 151.151 169.1C151.551 170.8 151.351 172.5 151.751 174.2C152.151 175.9 152.451 177.1 152.451 178.5C152.451 179.9 152.451 181.5 152.451 183C152.451 184.5 152.251 184.9 152.151 185.9C152.051 186.9 152.251 187.6 152.351 188.5C152.451 189.4 152.551 189.8 152.751 190.5C152.951 191.2 152.751 192 152.751 192.9C152.551 194.8 152.851 196.6 152.951 198.5C153.051 200.4 152.551 202.5 152.851 204.6C153.151 206.7 153.051 206.2 153.151 207C153.251 207.8 153.051 209.1 152.951 210.2C152.951 212.1 153.151 213.9 153.251 215.8C153.451 220 153.351 224.2 152.851 228.3C152.351 232.4 152.651 230 152.851 230.9C153.051 231.8 153.251 232.4 153.251 233.2C153.251 234.9 153.251 236.5 153.251 238.2V245.7C153.251 246.4 153.051 247 152.951 247.6C152.851 248.2 152.951 249.2 152.951 249.9C152.951 251.5 152.951 253 153.351 254.5C153.751 256 153.851 256.1 154.051 257C154.151 257.7 153.951 258.1 154.451 258.6C154.951 259.1 155.851 259.4 156.551 259.7C156.951 259.9 156.751 260.4 158.151 260.2C159.551 260 160.751 259.3 160.951 259.1C162.451 258.1 164.251 256.1 165.851 255C167.451 253.9 168.751 253.2 170.451 251.9C172.151 250.6 175.051 249.3 177.151 247.9C179.251 246.5 179.551 245.2 180.451 244.7C181.351 244.2 183.251 243.4 184.551 242.6C186.751 241.2 188.551 239 191.051 237.4C193.551 235.8 192.751 236.7 193.451 236.3C196.151 234.6 199.551 231.8 203.151 231.5C206.751 231.2 208.551 231.7 210.451 232.9C212.351 234.1 212.251 237.6 212.051 239.4C211.851 241.2 211.051 242.4 210.951 242.7C210.851 243 209.751 244.5 209.251 244.8C204.451 247.9 200.151 251.5 195.651 254.9C191.151 258.3 191.751 257.4 189.751 258.7C184.351 262.4 178.651 266.9 173.151 270.2C169.651 272.3 165.051 274 164.151 278.8C163.251 283.6 164.151 280.3 164.151 281C163.551 283.4 161.851 288.4 159.951 289.9C158.051 291.4 156.851 291.3 154.551 292C152.251 292.7 152.451 293 151.451 293.1C148.251 293.6 144.551 293.5 141.351 293C138.151 292.5 139.051 292.2 137.951 291.7C136.851 291.2 136.251 291.3 135.451 290.9C134.651 290.5 134.051 289.9 133.351 289.3C131.851 288.1 131.151 286.4 130.351 284.7C129.551 283 129.851 282.8 129.351 281.8C128.851 280.8 128.551 280 128.351 278.8C128.151 277.6 128.051 276.3 128.051 275.1C128.051 273.9 128.551 273 128.851 272C129.551 269.8 130.351 267.5 132.051 265.9C133.751 264.3 133.151 264.8 133.651 264.2C134.151 263.6 135.051 263.1 135.651 262.4C136.251 261.7 136.151 260.9 136.451 260.1C136.951 258.7 136.951 257.1 136.851 255.6C136.751 254.1 137.051 252.1 137.051 250.2C137.051 248.1 136.851 246.1 136.751 244C136.751 242.4 136.751 240.8 136.751 239.2C136.751 237.6 136.751 236.2 136.751 234.7C136.751 233.2 136.451 232 136.451 230.5C136.551 227.4 137.351 224.2 136.951 221.1C136.551 218 136.751 215.7 136.751 213C136.751 210.3 136.851 207.8 136.751 205.2C136.651 202.6 136.451 202.8 136.451 201.5C136.451 199.5 136.651 197.6 136.851 195.6C137.051 193.6 136.851 191.2 136.751 189C136.651 186.8 136.651 187.1 136.551 186.1C136.351 184.5 136.351 182.8 136.351 181.2C136.351 178.3 136.851 175.6 137.151 172.7C137.451 170.5 137.151 168.2 139.051 166.8C139.251 165.3 141.151 164.5 142.051 163.4C143.951 163 146.451 163.5 148.251 164.2C150.051 164.9 148.851 164.4 149.051 164.5H148.851Z" fill="white"/>
<path d="M227.252 214.4C228.652 215 230.952 216 232.352 216.8C233.752 217.6 234.452 219.4 234.352 221.4C234.052 226.6 231.952 231.3 225.952 230.5C219.952 229.7 219.552 227.1 218.452 224.8C217.352 222.5 217.452 222.1 218.252 220C219.052 217.9 220.852 215.6 223.252 214.6C225.652 213.6 223.252 214.2 223.552 214.2C223.952 214.1 226.952 214.2 227.352 214.2L227.252 214.4Z" fill="white"/>
<path d="M48.8512 269.2C50.1512 269.9 51.6512 271.2 51.9512 272.7C52.2512 274.2 51.8512 274.8 51.5512 276C51.2512 277.2 51.2512 277.7 50.9512 278.2C50.6512 278.7 45.4512 282.3 44.6512 282.5C42.5512 283.1 40.4512 282.3 38.7512 280.9C37.0512 279.5 35.5512 275.4 36.0512 273.2C36.5512 271 36.4512 273 36.5512 272.8C37.2512 270.9 38.1512 269.7 39.9512 268.7C43.8512 266.6 45.2512 266.9 48.9512 269.1L48.8512 269.2Z" fill="white"/>
<path d="M194.151 182C195.951 182.8 197.451 184.3 197.751 186.6C198.051 188.5 197.751 190.8 197.151 192.6C196.551 194.4 195.651 195.4 194.151 196.2C193.451 196.6 192.751 197 191.951 197.1C191.151 197.2 190.551 197.1 189.951 197.1C188.551 197.2 187.051 196.6 185.951 195.7C181.651 191.6 182.651 183.7 188.651 181.8C190.451 181.2 192.551 181.3 194.251 182H194.151Z" fill="white"/>
<path d="M148.852 370.1C149.352 370.3 150.952 371.6 151.352 372.1C151.752 372.6 151.852 373.1 152.052 373.3C153.252 375.5 153.452 378.8 152.152 381.1C150.852 383.4 149.952 383.3 149.852 383.4C149.352 383.7 148.252 383.9 147.652 384C147.052 384.1 147.152 384.4 146.552 384.5C145.952 384.6 143.052 383.7 142.352 383.5C141.652 383.3 140.052 382.2 139.852 382C139.552 381.7 138.552 380.3 138.452 379.9C137.952 377.1 138.452 373.5 140.152 371.2C141.852 368.9 146.352 369.1 148.752 370.1H148.852Z" fill="white"/>
<path d="M252.752 269.7C253.052 270 253.152 270.4 253.552 270.7C253.952 271 254.352 271.5 254.652 272C254.952 272.7 255.152 273.4 255.152 274.2C255.152 275.7 255.152 277.1 254.552 278.5C253.952 279.9 252.052 281.6 250.452 282.3C248.852 283 248.352 283.1 247.452 283.1C246.552 283.1 246.152 282.9 245.552 282.6C244.952 282.3 245.052 282.2 244.752 282.1C244.352 282 243.952 282.1 243.552 281.9C240.252 280.3 239.452 277.5 240.352 273.9C241.252 270.3 242.952 269.8 244.852 269.1C246.552 268.5 248.652 268.5 250.452 268.7C252.252 268.9 252.352 268.9 252.952 269.5L252.752 269.7Z" fill="white"/>
<path d="M101.851 359.6C101.951 359.6 103.651 361.1 103.851 361.3C104.151 361.7 104.651 362.6 104.751 363.2C104.951 364.5 104.551 366.6 104.051 367.8C103.551 369 101.651 372.1 100.851 372.5C99.0515 373.4 96.2515 373.3 94.3515 372.5C92.4515 371.7 91.0515 370 90.6515 369.3C89.8515 367.9 89.7515 366 89.9515 364.4C90.2515 361.9 91.5515 359.9 93.4515 358.4C94.9515 358.6 96.7515 358.2 98.1515 358.4C99.5515 358.6 101.351 359.3 101.751 359.5L101.851 359.6Z" fill="white"/>
<path d="M198.251 358.2C198.451 358.3 198.651 358.5 198.751 358.6C199.851 359.3 201.151 360.1 201.851 361.3C203.251 363.6 203.551 366.6 202.351 369C201.151 371.4 200.751 370.6 199.851 371.1C198.951 371.6 197.551 372.2 196.351 372.3C195.651 372.3 195.051 372.3 194.451 372.3C192.351 371.7 189.551 370.4 188.651 368.3C187.951 366.7 188.351 363.5 189.051 361.9C189.751 360.5 191.351 359.5 192.751 358.8C194.151 358.1 196.051 357.4 197.451 357.9C197.751 357.9 197.951 358.2 198.251 358.3V358.2Z" fill="white"/>
<path d="M63.3512 214.4C63.3512 214.4 64.3512 215 64.5512 215.1C66.8512 216.6 68.1512 219.5 68.0512 222.3C67.9512 225.1 67.6512 225.1 66.7512 226.1C65.8512 227.1 64.5512 228 63.3512 228.3C62.2512 228.6 61.5512 228.8 60.4512 228.6C59.3512 228.4 59.8512 228.6 59.5512 228.4C59.2512 228.2 59.1512 228.3 59.0512 228.2C58.4512 228 57.3512 227.7 56.8512 227.3C54.0512 224.9 52.4512 220.3 54.4512 216.9C56.4512 213.5 60.9512 213.7 63.4512 214.5L63.3512 214.4Z" fill="white"/>
<path d="M66.1513 325.1C66.2513 325.2 66.3513 325.4 66.4513 325.5C67.3513 326.9 68.1513 328.5 68.2513 330.2C68.3513 331.4 67.8513 332.8 66.9513 333.7C66.1513 334.5 65.4513 335.3 64.6513 336C62.5513 337.7 59.0513 339.4 56.5513 337.5C54.0513 335.6 54.9513 335.6 54.2513 334.6C53.2513 333.2 52.5513 331.6 52.8513 329.8C53.1513 328.4 53.6513 327.1 54.5513 326C55.4513 324.9 55.4513 325.2 56.0513 324.9C56.9513 324.5 57.6513 324 58.6513 323.7C60.1513 323.3 61.7513 323.4 63.2513 323.7C64.2513 323.9 65.3513 324.3 66.0513 325.1H66.1513Z" fill="white"/>
<path d="M237.951 325.4C238.651 326.3 239.051 327.3 239.251 328.4C239.451 329.5 239.751 330.3 239.651 331.4C239.651 331.6 239.651 331.8 239.651 331.9C239.051 335 236.351 337.4 233.451 338.2C230.551 339 230.651 338.8 229.451 338.2C228.251 337.6 226.851 336.5 225.851 335.3C224.751 333.8 224.051 331.8 224.751 329.9C225.451 328 225.751 328.3 226.551 327.6C227.351 326.9 227.951 326 228.851 325.3C229.751 324.6 229.651 324.5 230.251 324.3C230.851 324.1 231.051 324.1 231.551 324C233.451 323.6 234.651 324 236.451 324.2C238.251 324.4 237.551 324.5 238.051 325.2C238.051 325.2 238.051 325.3 238.151 325.4H237.951Z" fill="white"/>
<path d="M107.252 182C109.252 183.9 109.852 187.2 109.352 190C109.052 192 106.952 193.3 105.252 194C103.552 194.7 103.252 194.7 102.152 194.7C101.052 194.7 101.252 194.5 100.752 194.3C100.252 194.1 99.4516 194 98.7516 193.6C98.3516 193.4 98.1517 193 97.8517 192.6C97.2517 191.8 96.3517 190.9 95.9517 189.9C95.5517 188.9 95.8517 187.8 95.8517 186.9C95.8517 184.6 97.7516 181.8 99.6516 180.8C102.852 179.1 104.752 179.7 107.152 182H107.252Z" fill="white"/>
</svg>
