<svg width="415" height="472" viewBox="0 0 415 472" fill="none" xmlns="http://www.w3.org/2000/svg">
<path d="M174.116 48.4999C176.716 48.2999 179.316 48.3999 181.916 48.3999C187.516 48.3999 193.116 48.6999 198.816 48.3999C204.516 48.0999 206.716 50.3999 209.716 51.0999C215.716 52.4999 222.716 53.2999 228.516 55.2999C234.316 57.2999 238.616 60.0999 243.316 62.0999C248.016 64.0999 248.216 63.4999 250.216 64.5999C252.216 65.6999 253.716 67.4999 255.616 68.5999C257.516 69.6999 260.516 70.3999 262.816 72.0999C265.116 73.7999 269.216 78.1999 272.216 80.4999C277.316 84.2999 279.916 85.7999 284.616 90.5999C289.316 95.3999 293.716 99.5999 297.716 104.7C301.716 109.8 300.416 110 303.416 112.2C305.816 114 306.416 112.7 308.616 112.6C311.616 112.6 315.216 113.7 318.516 113.6C325.916 113.2 332.116 112.9 339.616 113.1C347.116 113.3 354.216 112.1 361.216 112.6C368.216 113.1 365.716 114.1 368.216 114.1C370.716 114.1 371.716 113.4 373.416 113.2C382.516 112.2 392.616 114.3 402.016 114.1C411.416 113.9 403.816 113.6 404.816 113.6C408.716 113.7 412.316 116.3 413.316 120.2C414.316 124.1 414.116 125.7 414.016 128C413.616 136.5 413.316 145.2 413.516 153.8C413.916 172.2 413.816 190.2 413.016 208.6C412.816 213.2 414.116 217 413.916 221.7C413.716 226.4 414.216 226.1 414.416 229.2C414.916 237 413.516 246.4 413.416 254.5C413.416 262.4 413.716 268.5 412.916 276.5C412.116 284.5 413.516 285.5 413.816 290.1C414.816 302.4 412.616 315.3 412.816 327.6C413.016 339.9 412.616 337.6 413.416 340.6C414.716 345.7 414.216 343.8 413.716 348.7C413.216 353.6 414.216 355.9 414.116 359C414.016 362.1 413.316 364.6 413.216 367C412.916 373 414.716 377.4 413.616 383.8C412.616 389.3 410.516 392.6 404.616 393.1C399.616 393.5 393.716 393.1 388.616 393.1C378.816 393.1 368.816 392.8 359.116 392.6C349.416 392.4 336.416 392.7 324.916 392.6C313.416 392.5 294.016 393.3 278.416 393.1C264.316 392.9 250.216 392.7 236.116 392.9C222.416 393.1 208.516 392.7 194.916 392.6C169.716 392.3 144.716 393.1 119.416 393.1C115.116 393.1 111.616 392.9 107.216 392.6C99.6158 392.2 100.416 394.6 97.5158 399.8C94.6158 405 92.1158 407.2 90.0158 411C87.9158 414.8 88.1158 416.5 86.7158 419C85.3158 421.5 83.9158 422 83.1158 423.4C80.4158 427.9 78.2158 433.3 75.4158 437.8C72.3158 442.9 69.9158 445.9 67.1158 451.5C64.9158 455.9 63.3158 456.8 61.0158 460.4C57.5158 466 56.2158 472.6 47.3158 470.7C43.2158 469.8 34.4158 462.6 30.4158 459.9C23.3158 455.2 16.0158 450.8 9.01581 446.1C6.11581 444.2 4.11581 445 1.61581 441.8C-2.68419 436.2 2.6158 432.5 5.7158 428.2C8.8158 423.9 10.7158 418 13.5158 413.1C14.9158 410.6 17.6158 408.7 19.1158 406C20.6158 403.3 20.7158 402 21.6158 400.1C22.5158 398.2 26.5158 394.6 22.1158 393.1C18.5158 391.9 15.7158 393.4 12.3158 393.1C8.91581 392.8 4.51581 391 3.31581 388.5C2.11581 386 3.31581 385.1 3.31581 383C3.31581 380.9 2.41581 378.1 2.31581 376C1.91581 367.4 3.5158 358 3.2158 349.3C3.2158 346.5 3.0158 345.1 3.2158 342.3C3.7158 333.5 2.71581 325.3 2.81581 316.5C2.81581 298.5 2.6158 279.8 3.2158 261.7C3.3158 257.8 2.61581 255.7 2.31581 252.3C1.41581 243.2 3.0158 231.6 3.2158 222.3C3.4158 213.8 2.1158 206 2.2158 197.4C2.6158 180 3.1158 162.4 2.7158 144.9C2.7158 141.3 2.3158 137.7 2.2158 134.1C2.1158 128.3 1.5158 118.6 7.2158 115.2C12.9158 111.8 15.2158 112.5 16.1158 112.4C19.0158 112 20.9158 113.1 23.6158 113.3C32.1158 114 41.3158 113.1 49.9158 113.3C58.5158 113.5 59.9158 113.8 62.4158 113.1C64.9158 112.4 67.0158 108.5 68.5158 106.5C70.0158 104.5 71.3158 102.3 72.7158 100.4C74.1158 98.4999 76.5158 97.1999 78.1158 95.4999C79.7158 93.7999 81.9158 89.9999 84.4158 87.6999C86.9158 85.3999 91.0158 82.3999 94.0158 79.9999C115.516 62.5999 145.916 50.4999 173.816 48.6999L174.116 48.4999ZM179.216 63.0999C171.216 64.0999 162.516 63.8999 154.716 66.1999C146.916 68.4999 145.516 69.5999 141.416 70.6999C137.316 71.7999 137.616 71.0999 135.916 71.6999C134.216 72.2999 133.216 73.5999 131.916 74.1999C125.216 77.2999 119.216 79.4999 112.816 83.6999C106.416 87.8999 107.216 88.5999 104.316 91.1999C101.416 93.7999 100.016 93.1999 98.0158 94.6999C91.2158 100.1 82.8158 110.6 77.9158 117.7C69.0158 130.4 61.1158 147.3 58.1158 162.6C56.6158 170.2 55.4158 180.1 55.2158 187.8C55.0158 195.5 55.5158 194.1 55.7158 197.6C55.9158 202.4 55.1158 207.7 56.5158 212.3C57.9158 216.9 57.9158 217.7 58.6158 221.4C61.4158 235 68.0158 248.5 75.2158 260.2C79.7158 267.6 85.7158 274.9 91.4158 281.5C97.1158 288.1 101.016 290.2 105.216 293.5C109.416 296.8 112.316 299.6 116.116 301.3C119.916 303 120.916 302.4 122.516 303.4C124.116 304.4 125.316 306.6 126.916 307.5C130.016 309.1 138.716 312.4 142.116 313.4C145.516 314.4 147.516 314.2 150.016 314.9C152.516 315.6 154.716 317.5 157.416 317.8C161.316 318.3 166.116 318.5 169.916 318.4C174.216 318.2 176.416 319.2 180.316 319.8C187.716 320.9 198.016 319.4 205.616 318.4C211.816 317.6 221.816 315.1 227.516 312.7C229.816 311.7 231.416 310.1 233.416 309.2C236.916 307.6 240.716 308 244.316 305.5C247.916 303 251.416 301.3 254.916 298.7C262.116 293.4 268.216 289.2 274.616 282.8C277.416 280 281.816 276 283.916 272.9C286.016 269.8 284.916 270.4 285.616 269.4C286.316 268.4 288.516 266.8 289.616 265.4C294.316 259.5 296.116 252.5 299.316 246C302.516 239.5 301.716 242.6 302.616 240.9C303.816 238.4 304.416 235.1 305.316 232.4C309.016 222 312.016 212.6 311.916 201.5C311.816 190.4 312.916 198 312.916 196.4C312.416 183.1 310.516 170 308.116 157.1C307.216 152.5 305.116 150.1 303.716 146.5C302.316 142.9 303.316 142.9 302.816 141.3C302.316 139.7 300.116 137.3 299.216 135.5C296.616 130.8 294.716 125.4 291.716 121C288.716 116.6 287.816 116.7 286.416 114.6C279.216 103.9 272.716 97.5999 262.416 89.8999C261.016 88.7999 259.216 88.0999 257.816 86.9999C256.416 85.8999 255.116 83.8999 253.516 82.8999C246.516 78.3999 237.216 75.2999 229.616 72.0999C222.016 68.8999 225.716 69.6999 223.516 68.7999C213.616 64.9999 190.016 61.8999 179.616 63.1999L179.216 63.0999ZM42.8158 127.3C38.6158 127.7 34.6158 128 30.5158 128.1C26.4158 128.2 20.7158 127.2 19.0158 129.7C17.3158 132.2 18.2158 138.1 18.1158 141C18.0158 145.3 18.3158 146.8 18.6158 150.8C18.9158 154.8 18.2158 159.7 18.1158 163.9C17.9158 178.2 18.3158 192.4 18.6158 206.6C18.8158 217.1 18.0158 227.5 18.1158 238.1C18.2158 248.7 17.5158 248.6 17.6158 254C17.7158 259.4 17.3158 264.8 17.6158 269.5C17.9158 274.2 18.1158 275 18.1158 278.8C18.1158 282.6 17.7158 288.7 18.1158 292.4C19.0158 299.5 25.5158 292.8 27.9158 291.1C34.3158 286.6 41.1158 283.2 47.5158 278.8C51.2158 276.3 54.7158 273.5 58.1158 270.6C61.5158 267.7 62.7158 269.4 60.6158 264.3C59.1158 260.8 56.8158 258.2 55.3158 255.1C50.3158 245.2 45.5158 231 43.2158 220.3C40.9158 209.6 41.6158 214.9 41.5158 213.1C41.4158 211.3 42.1158 210.2 42.0158 208.5C41.9158 206.8 41.2158 205.4 41.0158 203.8C39.9158 192 41.1158 179 42.5158 167.3C43.7158 156.6 47.5158 146.8 50.9158 136.8C54.3158 126.8 55.2158 128.8 52.0158 127.8C48.8158 126.8 45.4158 127.1 42.8158 127.4V127.3ZM320.416 127.8C320.016 127.8 319.416 128.1 318.916 128.1C316.816 128.3 313.016 127.1 313.016 130.2C313.016 133.3 315.816 136.1 316.616 137.9C319.416 144.6 320.416 150.8 322.216 157.6C323.116 161 324.516 163.2 324.816 167.2C325.316 174.2 326.516 181.3 326.716 188.3C327.416 210.8 320.816 237 311.216 257.2C309.216 261.5 305.616 265.8 303.516 270.2C303.316 270.5 303.316 270.9 303.316 271.2C303.616 272.7 309.316 277.3 310.816 278.8C312.316 280.3 311.816 280.3 312.416 280.9C313.716 282.2 318.116 286.9 319.516 287.4C322.416 288.3 326.616 285.5 329.516 284.9C332.416 284.3 339.916 284.9 342.416 285.2C344.916 285.5 347.716 287.1 350.816 286.6C354.116 286.1 354.816 282.8 357.116 280.8C359.416 278.8 361.316 278.1 363.216 276.6C368.116 272.5 372.716 266.5 377.216 262C384.116 255.2 392.916 249.1 398.016 240.6C399.816 237.6 399.216 234.4 399.216 231C399.216 221.7 398.716 212.3 399.216 202.9C399.716 193.5 398.416 196.4 398.216 193.1C398.016 189 399.416 185.4 399.216 181.3C398.616 169.8 398.816 158.6 398.216 147.1C397.616 135.6 400.016 136.1 399.016 130.8C398.216 126.1 393.516 128.1 390.416 128.2C387.316 128.3 384.516 128.2 381.516 128.2C361.216 128.7 340.616 126.7 320.216 127.8H320.416ZM396.316 264.2C395.516 264.4 392.616 266.9 391.716 267.6C384.816 273.7 378.516 280.9 372.216 287.5C370.716 289.1 369.516 291.5 368.016 293.1C366.616 294.6 363.516 296.1 363.516 298C363.516 299.9 365.416 301.2 366.116 302.9C371.716 316.5 368.916 331.1 359.116 341.8C349.316 352.5 352.816 346.8 348.116 348.6C333.516 354 315.616 348.1 307.716 334.6C305.016 329.9 303.416 326.9 303.116 321.4C302.916 318 303.116 310.1 304.416 307.2C305.716 304.3 308.416 301.1 307.616 298.6C306.816 296.1 301.916 292.8 300.316 291.4C295.816 287.4 294.616 283.8 288.416 288.8C282.816 293.4 278.616 299.6 273.416 304.3C268.216 309 267.616 307.2 265.316 308.4C261.116 310.7 257.816 313.8 253.516 316.3C249.416 318.7 243.016 323.4 238.616 324.4C234.216 325.4 234.616 324.7 232.816 325.2C231.016 325.7 229.416 327.1 227.816 327.7C220.416 330.5 214.316 330.7 206.816 332.1C199.316 333.5 200.916 334.1 197.916 334.4C190.816 335 182.916 334.3 175.916 333.9C168.416 333.5 162.616 333.3 155.216 331.6C147.816 329.9 143.416 328.7 137.716 327C132.016 325.3 131.916 323.6 129.916 325.9C128.616 327.3 129.016 328.8 128.616 330.2C127.616 333.6 125.616 334.3 123.816 337.2C122.016 340.1 120.616 342.9 120.316 344.1C119.316 348.5 122.816 349.7 123.716 353.1C124.616 356.5 120.016 361.4 118.416 364.2C116.816 367 117.516 366.6 116.816 367.8C115.416 370.2 112.516 371.4 112.216 374.4C111.716 378.9 113.816 378.1 117.616 377.9C124.616 377.5 131.716 378.4 138.216 377.9C144.716 377.4 144.816 376.8 149.016 376.9C153.216 377 158.516 378.4 161.616 378.4C164.716 378.4 164.616 377.6 166.316 377.4C170.316 377.1 173.516 378.3 177.116 378.4C182.616 378.5 188.816 377 194.516 377.4C196.716 377.6 198.816 378.5 201.116 378.4C203.516 378.3 205.716 376.4 208.116 376.5C210.516 376.6 212.216 378.1 215.616 377.9C222.816 377.5 229.116 377.9 236.216 377.9C243.316 377.9 244.916 377.9 249.316 377.9C253.716 377.9 259.116 376.5 262.916 377C266.716 377.5 265.216 377.8 266.216 377.8C267.216 377.8 268.816 377.1 270.016 377C273.716 376.6 277.616 377.7 281.216 377.9C294.216 378.6 307.316 377.4 320.116 377.4C329.316 377.4 338.216 377.7 347.316 377.4C353.016 377.2 358.016 378.5 363.716 378.3C370.716 378.1 377.716 378 384.816 377.8C388.316 377.8 394.116 378.4 397.116 377C400.316 375.5 398.716 372.2 398.616 369.6C398.516 364.1 399.516 358 399.116 352.2C398.716 346.4 398.116 348.3 398.116 346.6C398.116 344.9 399.016 342.1 399.116 340.1C399.716 331.6 398.416 322.5 398.616 313.8C398.816 300.4 398.216 287 398.616 273.5C398.616 270.9 400.916 262.9 396.116 264L396.316 264.2ZM70.5158 282C69.2158 282.3 64.5158 285.3 63.0158 286.2C52.7158 292.5 42.8158 299.4 32.8158 306.2C28.3158 309.3 23.0158 311.5 19.3158 315.7C18.8158 320 17.9158 324.3 18.1158 328.6C18.3158 332.9 18.5158 330.1 18.6158 330.9C19.5158 344.4 16.9158 358 18.2158 371.7C18.3158 373.3 18.9158 377.1 20.5158 377.8C22.1158 378.5 24.3158 378.4 25.0158 378.4C25.7158 378.4 26.7158 377.9 27.8158 378C30.7158 378 32.2158 379.6 35.1158 377.3C38.0158 375 40.8158 369.5 42.0158 367.4C44.9158 362.4 47.5158 357.3 50.3158 352.2C54.8158 344.3 59.8158 337.1 64.5158 329.4C69.2158 321.7 66.4158 324 69.3158 322.4C73.7158 320 74.9158 322.8 78.9158 322.2C82.3158 321.7 83.8158 317 85.3158 314.6C86.8158 312.2 87.0158 312.4 87.6158 311.3C88.2158 310.2 90.7158 305 90.8158 303.7C90.9158 302.4 90.0158 300.8 89.3158 299.6C87.0158 295.6 81.5158 293.1 78.6158 289.2C75.7158 285.3 75.0158 281.1 70.5158 282ZM106.116 335.2L115.116 321.9C115.816 320.7 116.616 319.4 115.916 318C115.216 316.6 108.916 313.3 107.516 313.3C106.116 313.3 101.816 317.3 100.716 318.7C99.6158 320.1 99.5158 321.3 98.8158 322.4C95.5158 327.3 91.2158 329.7 98.6158 334C106.016 338.3 104.316 336.9 106.316 335.2H106.116Z" fill="#000030"/>
<path d="M295.116 33.1001C299.816 32.5001 303.216 37.0001 302.016 41.4001C300.816 45.8001 297.716 49.8001 297.016 50.9001C296.316 52.0001 292.416 55.7001 290.716 57.7001C287.216 61.8001 283.716 65.8001 280.616 70.1001C277.416 72.5001 270.716 69.3001 269.616 65.7001C267.516 58.8001 270.916 56.9001 274.516 52.3001C278.116 47.7001 284.416 38.2001 289.716 35.1001C295.016 32.0001 293.416 33.2001 295.116 33.0001V33.1001Z" fill="#000030"/>
<path d="M70.5158 33.0001C74.9158 32.1001 81.0158 36.5 83.8158 39.7C86.6158 42.9 86.0158 43.0001 87.1158 44.4001C89.9158 47.9001 96.2158 54.3 98.1158 57.8C100.016 61.3 99.3158 66.6001 95.5158 69.2001C87.9158 74.6001 85.4158 67.1 81.5158 62.2C79.7158 60 77.6158 57.2 75.9158 55.2C74.2158 53.2 72.7158 52.8 71.5158 51.2C70.3158 49.6 67.3158 44.1001 66.6158 42.5001C65.2158 39.1001 66.8158 33.9001 70.6158 33.0001H70.5158Z" fill="#000030"/>
<path d="M181.116 0.200001C183.016 -0.199999 185.516 0.5 187.016 1.6C188.516 2.7 188.916 4.2 189.416 6.2C191.516 14.5 190.816 24.4 191.116 33.1C191.416 41.8 192.216 43.6 184.316 44.1C176.416 44.6 176.216 41 175.116 36.8L174.716 18C174.716 14.9 174.116 13.1 174.716 9.6C175.316 6.1 178.016 0.7 181.116 0V0.200001Z" fill="#000030"/>
<path d="M172.716 82.3001C177.016 81.9001 179.416 82.9001 183.316 83.1001C187.216 83.3001 193.316 82.1001 198.316 82.7001C203.316 83.3001 202.616 84.2001 204.716 84.8001C212.616 86.9001 217.816 88.1001 225.316 91.4001C227.416 92.3001 229.816 92.4001 231.816 93.3001C236.916 95.5001 241.616 99.7001 245.916 103.1C250.216 106.5 251.916 106.4 254.516 108.5C259.316 112.4 265.516 120.2 269.316 125.1C280.716 140.1 287.916 156.4 291.716 174.9C293.116 182 292.816 190.1 292.316 197.3C291.516 208.4 289.616 217.2 286.216 227.8C283.116 237.7 279.516 243.9 273.816 252.4C264.116 266.8 252.016 277.6 237.016 286.4C225.716 293 211.216 297.5 198.216 299.6C185.216 301.7 181.316 299.9 173.916 300.2C170.316 300.3 165.916 299.4 162.216 298.7C147.816 296 133.016 289.1 121.316 280.5C119.316 279 116.716 278.3 114.816 276.7C111.116 273.6 107.016 268.1 103.616 264.5C101.616 262.4 99.1158 260.9 97.3158 258.6C93.5158 253.9 87.5158 243.6 84.5158 238.1C81.5158 232.6 77.7158 220.2 77.2158 217.7C76.2158 212.8 76.2158 208.6 75.6158 203.8C75.0158 199 74.4158 200 74.2158 198.1C73.3158 189.2 75.4158 176.9 76.9158 168C78.4158 159.1 77.4158 161.8 78.2158 159.4C79.0158 157 81.1158 154.8 82.1158 152.6C86.8158 142.1 89.8158 134.6 97.2158 125.5C104.616 116.4 106.516 113.7 112.516 108.9C118.516 104.1 115.416 107.1 116.716 106.1C118.616 104.5 120.416 101.8 122.416 100.6C124.416 99.4001 126.016 99.3001 127.716 98.4001C133.516 95.6001 139.416 90.3001 145.616 88.2001C151.816 86.1001 152.616 87.1001 155.816 86.2001C159.016 85.3001 160.316 84.0001 161.716 83.7001C164.116 83.2001 169.816 82.6001 172.516 82.3001H172.716ZM174.116 97.3001C166.416 97.8001 162.016 100.3 155.016 102.1C148.016 103.9 147.716 104 141.116 107.8C134.516 111.6 133.916 110.4 131.616 111.9C129.316 113.4 129.316 114.5 128.116 115.4C125.616 117.3 122.816 118.3 120.316 120.8C117.816 123.3 118.416 123.6 117.316 124.8C112.616 129.8 107.316 133.5 104.316 139.9C101.316 146.3 103.116 143.6 102.216 145.3C100.816 148 98.2158 150.1 96.9158 153.1C88.1158 173.9 86.5158 193.6 91.9158 215.7C93.5158 222.4 97.8158 234.3 102.116 239.7C106.416 245.1 106.916 241.3 109.816 239.7C117.616 235.3 124.316 229.5 131.816 224.7C133.716 223.5 136.316 223 138.416 221.9C140.516 220.8 143.816 217.9 146.416 216.3C149.016 214.7 156.916 211.2 157.316 209C157.716 206.8 154.116 200.6 153.016 197.8C150.316 191.2 150.716 184.8 150.716 178C150.716 171.2 152.816 165.2 154.016 163C155.216 160.8 155.616 161.5 156.216 160.5C157.216 159 157.516 157.2 158.416 155.6C161.516 149.9 170.216 142.5 175.916 139.3C181.616 136.1 189.116 133.5 192.716 133.2C211.516 131.3 223.216 136.7 236.516 149.3C243.416 155.9 245.516 164.3 248.416 173.1C251.316 181.9 249.216 177.8 249.216 181.2C249.216 184.6 249.816 187.1 249.616 189.1C249.216 192.8 245.816 201.5 244.216 205.3C242.616 209.1 239.716 211 243.916 215.3C248.116 219.6 253.016 223.4 257.116 227.9C261.216 232.4 263.216 237.6 267.216 234.7C271.216 231.8 268.816 231.6 269.616 230.1C272.516 224.4 275.516 216 276.916 209.8C279.616 198 278.116 179.8 275.516 167.9C272.916 156 272.416 161 271.216 157.2C270.016 153.4 269.816 152.7 267.616 148.6C265.416 144.5 264.816 142.4 263.216 139.9C261.616 137.4 259.916 136.4 258.816 134.9C253.816 128.4 247.516 120.5 240.716 116C233.916 111.5 230.816 109.3 225.216 106.7C217.416 103 200.116 97.0001 191.616 97.2001C183.116 97.4001 188.616 98.1001 187.316 98.1001C186.016 98.1001 184.516 97.3001 183.116 97.1001C180.516 96.8001 177.016 97.1001 174.316 97.2001L174.116 97.3001ZM165.216 222C164.216 222.2 162.816 223.3 161.916 223.9C150.016 231.9 137.616 239.5 125.216 246.7C122.716 248.1 119.916 249.7 117.616 251.3C115.316 252.9 113.116 254 114.716 256.4C118.016 259.1 120.816 263.1 124.116 265.8C127.416 268.5 130.416 269.2 133.216 271.3C136.016 273.4 135.116 273.4 136.216 274C138.016 275.1 140.816 275.4 142.816 276.3C144.416 277.1 145.616 278.6 147.316 279.3C150.616 280.7 151.816 280.3 155.416 282.4C159.016 284.5 176.516 286.4 181.616 286.2C190.816 285.9 201.416 285.9 210.016 282.7C212.616 281.7 215.616 279.8 218.116 279C220.616 278.2 221.816 278.6 223.816 277.7C230.316 274.8 241.816 266.9 247.116 262.1C249.416 260 253.416 256.3 255.316 253.9C258.916 249.3 254.816 248.3 251.816 245.2C245.516 239 239.616 232.3 232.616 226.9C225.616 221.5 231.116 225.2 230.216 224.6C226.916 222.4 225.216 225.3 222.616 226.8C217.216 229.8 215.116 229.7 209.516 231.1C203.916 232.5 205.716 232.9 203.816 232.9C201.216 232.9 198.916 231.3 195.816 231.5C189.316 231.9 189.216 231 183.516 228.8C177.816 226.6 173.816 225.1 169.316 222.3C168.116 222 166.616 221.9 165.416 222.2L165.216 222Z" fill="#000030"/>
</svg>
