<svg width="446" height="432" viewBox="0 0 446 432" fill="none" xmlns="http://www.w3.org/2000/svg">
<path fill-rule="evenodd" clip-rule="evenodd" d="M445.14 88.2183C445.44 86.0183 444.44 83.8183 444.14 81.7183C443.94 79.8183 443.54 77.6183 443.24 75.6183C443.24 74.2183 442.94 73.3183 441.84 72.2183C439.94 70.4183 439.44 67.1183 437.84 65.2183C435.74 62.3183 433.44 59.6183 431.04 56.8183C430.34 55.8183 429.24 55.2183 428.04 54.8183C425.64 53.9183 424.14 52.4183 421.54 51.6183C420.34 51.2183 419.04 50.8183 417.94 50.2183C414.84 48.4183 411.54 48.3183 408.24 47.8183C401.84 46.8183 395.24 47.8183 389.04 49.6183C386.54 50.5183 384.34 51.6183 382.74 53.9183C381.04 55.4183 379.04 56.5183 377.34 57.9183C376.74 58.5183 376.14 59.1183 375.64 59.8183C374.04 61.7183 371.94 62.4183 371.14 64.6183C370.54 67.4183 368.84 69.6183 367.54 72.0183C366.04 74.0183 365.74 75.9183 364.44 78.1183C362.94 80.1183 364.24 82.6183 363.84 84.9183C363.84 87.3183 363.34 90.5183 364.04 92.7183C364.84 94.6183 364.64 96.7183 364.74 98.7183C365.24 101.418 366.64 103.918 367.74 106.618C368.44 108.418 369.74 109.718 369.44 111.818C368.44 115.718 365.44 118.818 362.04 120.818C360.44 122.018 359.44 123.818 358.44 125.518C357.64 126.718 355.94 127.618 354.74 128.618C352.14 130.418 353.64 123.318 353.34 122.518C352.94 119.218 352.64 115.918 352.84 112.618C353.24 107.918 354.04 103.218 353.14 98.5183C353.14 91.6183 352.64 84.9183 352.74 77.9183C352.94 75.2183 353.84 72.6183 352.64 70.0183C351.64 66.8183 352.64 63.9183 353.14 60.7183C353.24 59.5183 352.94 58.1183 352.54 56.9183C352.14 53.2183 353.24 49.3183 352.54 45.5183C351.84 41.8183 352.94 38.4183 352.54 34.8183C351.84 31.8183 352.84 28.9183 353.14 25.8183C353.44 24.0183 352.44 22.2183 352.54 20.5183C352.54 18.8183 352.94 17.2183 352.84 15.4183C352.14 10.2183 353.44 4.21826 347.44 1.81826C345.74 1.61826 343.94 1.81826 342.44 0.918261C338.34 0.218261 334.04 2.61826 329.84 1.41826C325.94 0.118261 321.94 1.71826 318.14 0.718264C317.14 0.418264 316.04 0.418263 315.04 0.518263C312.94 0.818263 311.34 0.118264 309.44 0.218264C307.84 0.418264 306.14 1.71826 304.44 1.61826C302.54 1.61826 300.94 0.618263 299.04 0.518263C297.64 0.518263 296.54 1.21826 295.24 1.31826C293.64 1.31826 291.74 1.81826 290.14 1.31826C288.04 0.118262 286.34 1.91826 284.24 1.81826C283.14 1.81826 282.34 1.01826 281.44 0.718264C278.64 0.418264 275.34 0.418263 272.54 0.0182629C270.44 -0.181737 268.84 1.31826 266.84 1.71826C264.04 1.61826 261.24 1.51826 258.34 1.41826C252.54 1.31826 246.84 2.01826 241.14 1.41826C239.24 0.818261 237.74 1.51826 235.74 1.81826C232.14 1.81826 229.14 1.21826 225.44 1.11826C218.04 1.41826 217.14 2.61826 209.44 0.318262C204.64 0.818262 199.74 2.31826 194.84 1.71826C191.94 1.21826 189.14 2.41826 186.24 1.51826C182.64 -0.181737 179.04 1.01826 175.24 1.11826C171.34 0.918261 167.84 1.81826 163.94 1.81826C161.64 1.61826 159.84 1.81826 157.44 1.41826C155.54 0.818261 153.44 0.118262 151.34 0.318262C147.84 0.418262 144.64 2.31826 141.14 0.918261C139.14 0.518261 137.64 1.61826 135.54 1.41826C132.54 1.11826 130.04 2.21826 127.14 1.61826C125.74 1.31826 124.54 0.618261 123.04 0.918261C120.84 1.51826 118.74 1.71826 116.44 1.81826C113.24 1.81826 109.24 1.21826 106.04 1.41826C102.44 0.518261 98.64 0.218262 94.84 0.818262C86.34 3.41826 89.84 -1.98174 78.94 1.61826C77.24 1.81826 75.74 1.21826 74.04 0.818262C71.64 0.418262 69.24 1.11826 66.74 1.21826C64.14 1.71826 62.64 1.21826 60.14 1.21826C54.84 1.91826 49.84 1.91826 44.64 1.51826C38.94 1.51826 37.34 2.21826 35.94 7.71826C34.74 10.1183 34.04 12.3183 34.24 14.9183C33.84 17.4183 33.84 20.0183 34.24 22.5183C34.14 24.6183 34.54 26.5183 34.44 28.7183C34.14 30.4183 34.04 32.1183 34.14 33.9183C33.64 36.4183 34.84 38.8183 34.44 41.3183C34.04 42.8183 32.34 42.9183 31.04 43.0183C28.04 43.7183 25.14 42.6183 22.14 42.8183C20.04 42.8183 17.84 43.3183 15.44 43.3183C13.64 43.3183 12.14 42.1183 10.44 42.3183C9.24 42.5183 8.24 43.5183 6.94 43.9183C5.84 44.3183 4.74 44.7183 4.14 45.7183C2.54 49.4183 1.54 53.5183 0.14 57.2183C-0.36 59.1183 0.64 61.4183 0.64 63.4183C0.64 65.9183 0.140002 67.9183 0.240002 70.2183C0.0400023 75.3183 0.94 80.6183 0.64 85.7183C0.74 86.2183 0.94 86.7183 1.14 87.2183C1.34 88.0183 0.640002 88.9183 0.740002 89.8183C1.64 93.0183 0.539999 96.3183 0.439999 99.5183C0.439999 103.618 2.44 107.418 0.439999 111.218C-0.460001 113.718 1.74 116.018 1.84 118.418C2.04 121.018 0.739999 123.118 0.939999 125.418C1.34 127.218 0.840002 129.118 0.740002 130.718C0.740002 132.018 1.94 133.418 1.34 134.818C0.740001 136.318 1.14 137.918 1.34 139.518C1.04 141.318 0.440002 143.318 0.540002 145.118C0.540002 146.718 0.140002 148.818 0.740002 150.218C1.14 151.118 1.44 151.918 1.44 153.018C1.44 154.418 0.640002 156.018 0.540002 157.218C0.340002 158.718 0.840001 160.118 0.840001 161.618C0.840001 164.118 0.140002 165.918 0.240002 168.118C0.240002 169.218 1.14 170.818 1.24 172.118C1.24 174.318 0.739999 176.718 0.939999 179.018C1.04 181.718 1.74 183.318 1.64 185.818C1.54 187.818 0.840001 190.018 0.840001 192.218C1.44 196.318 1.44 199.618 0.840001 203.718C0.640001 206.218 1.24 208.918 1.24 211.218C0.940002 214.918 0.440001 219.618 0.340001 223.518C0.340001 225.018 0.0400007 226.718 0.340001 228.018C1.04 229.918 1.74 231.718 1.44 233.718C1.44 237.918 0.440001 242.118 0.340001 246.218C0.840001 248.418 1.14 250.518 1.44 252.718C1.94 255.018 0.940002 257.318 1.04 259.518C1.04 265.818 0.340002 272.718 0.740002 279.018C1.24 282.618 2.34 286.518 0.939999 289.918C0.539999 291.818 1.54 293.718 1.64 295.718C1.44 298.618 0.84 301.318 1.14 304.218C1.24 309.118 1.34 313.418 0.740002 318.318C0.640002 322.818 1.04 327.418 0.340001 331.818C0.0400007 334.018 1.24 336.618 0.939999 338.718C0.739999 339.918 0.140002 341.018 0.240002 342.318C2.84 350.818 0.840002 347.618 0.0400015 355.018C0.0400015 358.018 0.840001 359.418 1.34 362.018C1.24 364.818 0.84 368.218 1.14 370.918C1.74 373.818 -0.459998 376.418 0.740002 379.318C2.24 384.218 0.240002 389.518 0.740002 394.618C0.740002 396.418 1.44 398.118 1.44 399.918C1.44 401.718 0.740002 403.718 0.740002 405.618C0.640002 407.218 1.34 408.618 0.939999 410.018C0.939999 410.718 0.34 411.418 0.14 412.218C0.44 418.818 2.24 430.418 10.74 430.518C16.14 431.618 21.94 430.518 27.44 431.718C33.44 431.818 39.54 430.718 45.54 431.118C48.84 430.818 51.94 431.718 55.14 431.918C61.64 431.518 68.14 430.818 74.64 430.418C77.64 430.018 79.94 432.118 82.94 431.818C87.14 431.218 91.04 431.418 95.34 431.618C99.74 431.618 104.84 431.118 109.54 431.118C112.84 431.118 116.04 431.118 119.24 431.118C121.34 431.218 122.84 431.818 124.74 431.318C128.44 430.918 132.34 431.218 136.04 430.718C140.34 431.018 144.84 431.618 149.04 431.218C151.64 431.818 153.44 431.218 155.94 431.118C159.54 431.718 163.04 431.518 166.54 431.518C168.24 431.618 169.94 431.718 171.54 431.718C172.84 431.718 174.34 431.018 175.84 430.818C177.44 430.518 178.74 431.218 180.34 431.418C183.54 431.918 186.84 431.818 189.94 431.518C193.64 431.718 197.44 431.518 201.14 431.318C203.84 432.018 206.04 430.818 208.64 431.318C211.24 431.818 214.24 431.018 216.84 430.918C217.54 430.918 218.14 430.918 218.74 430.918C221.24 431.418 224.24 430.918 226.64 431.318C228.74 431.718 230.34 431.518 232.54 431.318C235.34 431.618 237.44 431.818 240.34 431.418C243.94 432.018 247.14 431.418 250.74 431.118C257.54 430.918 264.14 431.618 270.94 431.118C273.64 431.118 276.24 431.618 278.94 431.418C282.64 430.718 284.44 430.318 287.94 431.818C289.34 432.018 290.74 431.518 292.14 431.318C295.84 431.218 299.94 430.518 303.64 431.018C305.84 431.218 308.34 430.718 310.34 429.818C312.14 428.918 312.24 426.518 313.04 424.618C313.54 422.418 314.14 420.218 314.14 417.918C314.14 416.618 313.24 415.718 313.24 414.318C313.14 411.318 314.04 408.018 313.54 405.018C313.44 403.818 312.84 402.818 312.64 401.618C312.64 400.418 313.04 399.518 313.34 398.318C313.34 396.118 315.54 394.818 317.54 394.718C321.24 394.518 324.64 394.918 328.24 395.518C331.84 395.318 335.44 395.818 338.94 395.318C341.34 395.518 343.44 395.518 345.74 394.818C348.14 394.818 350.24 394.018 351.74 392.218C352.84 391.218 352.94 389.718 353.64 388.318C354.04 387.518 354.84 386.718 354.64 385.818C354.44 385.218 354.04 384.718 353.74 384.118C351.74 379.818 353.24 375.118 353.74 370.718C353.84 367.118 352.84 363.418 353.54 359.718C354.14 356.818 352.54 354.418 352.54 351.718C353.14 348.418 352.04 345.018 352.34 341.618C352.94 335.918 352.94 329.518 353.54 323.918C354.24 318.818 350.64 318.218 353.44 312.018C353.84 310.418 353.44 309.318 353.24 307.718C353.24 305.218 352.74 302.418 352.64 300.018C353.14 297.718 352.44 295.018 352.34 292.918C352.34 290.918 353.94 289.518 353.44 287.518C352.64 282.618 353.94 278.018 353.44 273.218C353.74 270.218 354.24 266.918 353.14 264.018C353.04 263.718 352.84 263.118 352.94 262.818C353.14 260.618 353.34 258.318 353.24 256.118C353.24 251.818 354.04 248.218 353.84 244.018C353.84 241.818 352.94 240.718 352.84 238.518C352.54 235.518 352.94 232.718 353.24 229.718C353.44 224.118 353.04 218.418 352.94 212.818C353.54 210.718 353.94 208.918 353.24 206.718C352.34 203.718 353.64 200.118 352.84 196.918C352.14 193.718 353.94 190.418 353.54 187.218C352.54 184.318 353.24 181.518 353.24 178.418C352.84 176.118 352.84 174.318 353.24 171.818C353.44 170.218 352.94 168.618 352.94 167.018C353.34 162.918 351.84 157.818 353.44 153.718C354.04 152.118 355.24 151.018 356.44 149.918C357.54 148.818 358.74 147.418 360.04 146.518C360.94 145.718 362.24 145.518 362.84 144.618C363.04 144.218 363.14 143.718 363.44 143.318C363.94 142.318 364.94 141.818 365.74 140.718C367.14 138.918 369.54 138.318 370.64 136.018C372.74 132.518 376.34 129.618 379.54 127.118C382.14 122.918 383.04 122.818 387.14 125.618C390.04 127.518 393.94 127.318 396.94 128.918C401.84 130.418 408.84 128.918 414.64 128.318C417.84 127.818 419.54 127.618 421.64 125.618C423.34 124.518 425.64 123.418 427.24 121.918C429.04 120.518 431.54 120.118 433.34 118.818C436.14 116.618 436.54 112.718 439.24 110.318C443.14 106.818 443.64 100.818 444.64 96.0183C446.04 93.7183 445.74 91.3183 445.54 88.9183L445.14 88.2183ZM299.84 401.918C298.94 406.118 300.14 410.718 298.94 414.918C298.44 416.318 296.94 416.618 295.54 416.618C290.44 416.618 285.04 415.418 279.94 416.318C275.14 417.418 270.14 416.518 265.34 416.118C263.94 415.818 262.54 415.018 261.14 415.718C259.64 416.318 258.14 416.718 256.44 416.818C255.04 416.818 253.64 416.318 252.34 416.418C251.04 416.418 249.64 416.918 248.24 416.818C246.54 416.818 245.04 416.218 243.64 416.018C241.74 415.818 240.24 416.618 238.24 416.818C232.84 416.918 227.34 416.818 221.84 416.818C219.84 416.818 218.24 416.318 216.44 416.318C214.74 416.518 213.04 416.318 211.34 416.318C208.44 416.418 205.44 416.318 202.44 416.418C200.84 416.518 198.64 416.818 196.74 416.918C194.84 417.218 193.24 417.718 191.24 417.518C186.44 417.118 181.64 416.518 176.84 416.118C174.04 416.118 171.64 416.518 168.84 416.218C164.34 416.418 159.74 416.018 155.34 416.318C151.24 416.318 146.84 416.318 142.64 416.618C137.94 416.618 133.14 415.518 128.44 416.318C126.44 416.718 125.04 416.118 123.24 416.518C120.24 417.118 116.54 416.518 113.54 417.018C111.14 417.518 109.64 416.818 107.14 416.818C105.64 416.818 103.94 416.418 102.54 416.318C101.24 416.318 100.04 416.318 98.44 416.318C96.04 416.318 93.54 416.118 91.14 416.218C89.34 416.618 87.34 416.918 85.54 416.518C84.94 416.518 84.44 416.518 83.84 416.518C81.44 417.118 79.14 416.218 76.74 415.918C70.34 415.918 63.94 416.518 57.64 416.618C55.34 416.718 53.04 416.218 50.84 416.018C46.24 416.418 41.94 415.818 37.34 416.618C33.74 416.518 29.84 417.418 26.54 415.718C25.34 415.118 24.14 415.718 22.94 416.018C22.24 416.118 21.64 416.218 21.04 416.218C15.34 417.518 14.34 415.118 14.94 410.218C14.84 408.718 15.04 407.118 15.24 405.518C15.64 402.818 15.24 399.318 14.54 396.618C14.34 395.318 14.84 394.118 14.74 392.818C14.44 390.718 14.14 388.018 14.24 385.618C14.24 383.718 14.64 382.118 14.94 380.418C15.24 378.618 14.54 377.018 14.74 375.318C14.54 372.918 14.74 371.018 14.74 368.518C14.14 366.218 14.44 363.718 14.94 361.418C15.24 358.918 14.34 355.718 14.54 353.318C14.64 352.018 15.04 350.818 15.14 349.418C15.44 347.218 14.94 344.718 14.54 342.718C14.54 340.718 14.94 338.718 14.54 336.718C14.34 334.218 15.24 331.318 14.94 328.618C14.64 327.218 14.94 325.318 15.14 324.318C15.14 324.118 15.14 324.018 15.14 323.818C15.14 323.118 14.44 322.118 14.34 321.018C14.34 318.818 14.94 317.218 14.34 315.018C13.74 312.318 15.04 309.718 14.74 307.118C14.54 305.118 15.14 303.218 15.14 301.118C15.14 299.318 14.44 298.018 14.64 296.418C14.74 295.018 14.64 293.518 14.64 292.018C14.74 290.718 15.24 289.118 15.14 287.618C15.34 284.918 14.44 282.618 14.14 280.118C14.14 277.918 13.94 275.518 14.14 273.318C14.64 271.018 14.34 269.518 14.44 267.118C14.74 264.118 15.44 261.118 15.64 258.118C15.64 255.318 14.64 253.218 14.14 250.418C13.84 248.818 14.44 246.918 14.54 245.518C14.74 243.718 13.84 241.818 13.94 239.818C13.94 237.718 14.64 235.618 14.34 233.618C14.34 231.118 14.54 228.518 14.14 226.218C14.14 223.718 14.74 221.218 14.14 218.918C13.84 216.318 14.14 213.718 14.44 211.318C14.74 210.218 15.34 209.718 15.44 208.718C15.44 208.118 14.94 207.418 14.84 206.618C14.84 205.518 15.64 204.718 15.54 203.618C15.44 202.718 14.84 201.718 14.64 200.618C14.34 198.718 14.64 197.118 14.64 195.218C14.64 193.618 14.44 191.918 14.44 190.318C14.74 188.018 14.64 186.218 14.54 183.818C15.04 179.218 14.04 175.518 14.84 171.018C15.44 168.318 14.04 165.718 14.84 163.018C15.04 160.218 14.24 157.818 14.84 155.018C15.04 154.018 15.44 153.118 15.24 152.118C15.14 151.018 14.54 149.918 14.54 148.818C14.94 146.818 14.54 143.918 14.44 141.818C14.44 140.718 15.04 140.018 15.04 138.918C13.24 134.618 15.64 128.818 14.74 124.118C14.14 121.318 15.54 119.918 15.64 117.418C15.64 115.818 14.64 114.318 14.64 112.718C14.64 112.018 15.04 111.318 15.14 110.718C15.34 109.618 14.54 109.218 14.84 107.418C14.94 106.718 15.24 106.118 15.34 105.418C16.04 103.218 13.94 101.618 14.14 99.4183C14.14 97.6183 14.74 96.3183 14.74 94.7183C14.44 91.0183 14.24 87.6183 15.34 84.2183C15.64 82.9183 15.94 81.4183 15.54 80.2183C15.24 79.3183 14.74 78.5183 14.54 77.5183C14.24 76.3183 14.54 74.6183 14.44 73.3183C14.44 72.1183 15.04 71.2183 15.24 70.3183C15.44 69.2183 14.74 68.3183 14.84 67.2183C14.94 64.9183 14.14 63.2183 14.54 60.7183C14.74 59.4183 14.74 58.0183 15.74 57.0183C16.44 56.3183 17.64 56.2183 18.64 56.2183C20.24 56.2183 21.84 56.2183 23.44 56.2183C24.94 56.2183 26.34 56.8183 27.84 56.6183C34.74 55.1183 34.84 57.4183 34.04 62.2183C33.64 63.9183 34.04 65.6183 34.34 67.2183C34.34 68.9183 33.84 70.4183 34.34 72.1183C35.04 75.2183 34.64 78.5183 34.74 81.7183C34.74 82.8183 35.24 84.3183 35.04 85.2183C34.84 85.9183 34.54 86.3183 34.44 87.1183C34.44 88.7183 34.84 90.3183 34.74 92.0183C34.74 93.6183 34.34 94.5183 34.34 95.8183C34.34 99.7183 34.24 103.218 34.64 107.118C34.54 112.118 34.14 117.218 33.94 122.218C33.94 125.918 36.14 128.718 34.94 132.418C34.14 135.318 34.24 137.818 34.44 140.718C34.14 143.118 34.14 145.718 34.24 148.018C33.74 151.718 34.24 155.418 34.44 159.018C34.44 160.818 34.24 162.318 34.14 164.018C34.54 166.618 34.34 169.618 34.14 172.318C34.24 174.918 34.24 177.518 34.14 180.118C34.14 182.118 35.54 183.318 35.24 185.318C35.14 187.518 33.64 190.318 34.04 192.818C34.24 194.418 35.24 196.218 34.74 197.818C34.44 198.918 34.04 199.918 34.04 201.118C34.04 204.318 34.04 206.518 34.64 209.918C34.94 212.518 33.94 214.918 33.94 217.318C34.04 221.118 34.14 224.418 34.64 228.218C34.74 230.518 34.34 233.318 34.24 235.518C34.24 237.518 34.34 239.618 34.04 241.618C33.64 244.218 34.34 245.918 34.34 248.218C34.34 250.518 33.74 253.018 33.94 255.218C34.14 257.918 34.24 260.518 34.04 263.218C34.24 264.718 34.04 266.318 34.04 267.818C34.14 270.318 34.14 272.718 34.04 275.118C34.04 276.418 34.44 277.618 34.84 278.818C35.14 280.418 34.64 281.918 34.54 283.518C34.54 284.618 34.54 285.818 34.34 286.918C33.64 290.818 35.14 294.318 35.04 298.118C34.84 301.018 33.84 304.018 33.94 306.918C34.14 309.118 35.64 311.918 34.94 314.318C33.44 317.418 34.14 319.118 34.54 322.418C34.54 324.118 34.04 325.418 34.14 326.918C34.24 328.518 34.54 330.518 34.24 331.918C34.24 333.518 34.24 335.118 34.04 336.718C33.94 338.818 34.64 340.418 34.64 342.818C34.74 345.418 33.84 347.418 34.54 350.118C34.74 351.018 34.64 352.018 34.54 352.918C34.24 354.718 34.74 355.918 34.94 357.718C34.84 360.818 33.94 363.918 34.14 367.018C33.94 370.018 34.94 373.418 34.24 376.218C34.54 379.118 33.34 381.718 33.44 384.918C33.64 387.118 35.24 388.418 35.94 390.318C36.84 393.718 38.84 393.518 41.74 393.118C44.24 392.718 46.74 393.018 49.04 393.118C51.14 393.118 52.54 393.118 54.54 393.118C56.44 393.118 58.44 393.618 60.34 393.518C61.64 393.418 62.94 393.018 64.14 393.118C66.34 393.118 68.74 394.618 70.84 393.518C74.14 392.818 77.94 392.018 81.34 392.818C82.84 393.218 83.94 393.918 85.24 394.118C86.74 394.318 88.34 393.918 89.94 394.118C93.14 394.518 96.34 393.518 99.54 393.118C102.54 392.918 105.24 393.018 108.04 393.718C109.74 394.318 110.94 393.818 112.64 393.218C114.24 392.718 115.94 393.218 117.54 393.318C124.94 394.218 132.44 393.318 139.84 392.818C141.64 393.018 144.44 393.618 146.74 393.718C148.44 393.718 150.04 393.218 151.44 393.118C154.74 393.818 158.74 392.818 162.04 392.918C164.34 393.218 166.34 392.918 168.54 392.618C172.04 392.518 174.74 394.018 178.04 394.318C179.74 394.418 181.54 393.618 183.44 393.618C184.84 393.618 186.34 394.118 187.64 394.118C192.34 394.418 197.04 393.318 201.64 393.018C205.34 393.418 208.74 393.818 212.74 393.618C217.34 393.618 221.44 392.918 225.64 392.718C227.94 392.718 230.04 393.918 232.24 394.518C235.94 395.618 239.14 392.918 242.84 393.018C245.24 392.618 246.84 393.218 248.54 393.318C250.44 393.318 253.14 392.818 254.74 393.218C255.94 393.218 257.24 392.918 258.44 393.118C259.44 393.218 260.44 393.518 261.64 393.518C265.14 393.518 268.74 392.918 272.34 392.918C274.34 393.118 275.74 394.418 277.84 394.418C283.04 394.118 288.14 393.418 293.34 393.018C298.34 392.118 300.14 397.418 299.34 401.518L299.84 401.918ZM339.04 110.618C339.54 116.818 339.84 123.018 339.04 129.118C339.44 133.118 339.84 137.718 338.74 141.518C340.04 146.318 338.14 147.818 334.94 150.518C332.34 152.818 330.94 155.418 328.54 158.018C324.84 160.618 323.24 164.818 319.54 167.318C318.14 168.118 316.84 170.018 315.54 170.718C313.34 171.618 313.24 168.218 313.34 166.818C313.94 163.618 313.44 160.618 312.94 157.518C313.24 151.418 312.74 145.418 313.94 139.218C314.54 137.618 313.94 136.018 313.54 134.518C313.44 130.018 312.74 125.118 312.94 120.518C314.54 113.118 314.84 103.218 306.84 99.7183C302.54 98.8183 298.04 98.2183 293.74 98.1183C288.74 98.6183 284.14 97.7183 279.14 98.3183C275.54 97.8183 271.94 98.5183 268.24 98.3183C266.04 97.9183 264.04 98.4183 261.84 98.3183C260.44 98.1183 259.04 98.0183 257.64 98.0183C252.14 98.3183 246.54 98.0183 241.14 98.5183C238.74 98.4183 236.64 97.0183 234.14 97.0183C231.74 97.0183 229.74 97.9183 227.34 98.1183C223.64 98.4183 219.84 97.4183 216.14 98.1183C212.64 98.9183 208.94 97.6183 205.44 97.8183C203.74 98.1183 202.34 98.5183 200.64 98.4183C198.94 98.4183 197.34 97.8183 195.64 98.1183C189.14 99.6183 181.84 97.1183 175.24 98.4183C171.24 97.9183 167.64 98.4183 163.74 97.9183C160.44 97.3183 157.44 97.1183 154.24 97.6183C149.24 97.8183 144.04 97.1183 139.14 98.2183C136.14 98.7183 133.84 98.1183 131.04 98.6183C126.94 97.8183 123.14 98.9183 119.04 98.6183C115.44 98.6183 111.94 97.3183 108.34 97.5183C105.04 98.8183 102.24 99.0183 98.64 98.1183C96.24 97.7183 94.74 98.7183 92.44 98.6183C89.84 98.4183 87.84 98.0183 85.34 98.6183C81.54 98.4183 78.34 100.818 77.74 104.518C76.64 107.018 76.94 109.018 77.34 111.618C77.64 113.818 76.44 116.418 76.84 118.718C77.74 122.018 77.44 125.418 76.84 128.718C77.14 134.718 77.14 140.418 76.54 146.318C76.34 149.318 77.14 152.118 77.04 155.018C76.44 159.418 77.24 163.818 76.74 168.118C76.74 170.418 78.04 173.018 76.74 175.118C75.54 177.118 76.24 179.718 75.84 182.118C75.74 184.418 77.04 185.518 77.24 187.618C77.24 190.618 76.44 194.118 76.94 197.118C77.64 200.918 76.74 204.718 76.34 208.418C77.34 212.218 77.94 216.118 77.04 220.018C76.94 221.518 77.24 223.118 77.04 224.618C76.84 226.318 76.04 227.618 76.04 229.318C75.84 231.118 76.94 232.818 77.24 234.618C77.84 237.018 75.94 239.718 75.84 241.818C76.04 244.118 77.64 246.418 76.94 248.918C76.94 256.218 76.64 263.318 77.34 270.618C77.44 272.818 76.94 274.718 77.04 276.718C77.34 279.718 77.04 282.618 76.24 285.418C76.14 287.318 77.24 289.118 77.04 291.018C76.84 294.218 75.54 297.718 77.04 300.818C77.64 304.318 78.14 308.518 76.44 311.918C75.94 314.818 76.44 318.018 76.94 320.918C77.44 323.818 77.14 327.018 76.34 329.818C76.74 332.418 77.64 335.018 77.24 337.818C73.94 349.118 77.94 350.118 88.14 351.918C95.94 353.818 92.74 349.418 100.84 351.618C107.14 351.918 113.34 352.318 119.74 351.618C125.54 351.618 129.74 352.518 135.34 352.118C137.94 351.918 140.14 350.918 142.74 351.518C146.74 351.518 150.84 352.318 154.84 352.118C159.14 352.118 163.14 351.218 167.44 351.818C171.04 352.018 174.74 352.218 178.24 351.718C180.74 351.918 182.54 351.818 185.04 351.618C190.04 351.418 195.44 352.118 200.34 350.918C202.84 350.418 205.94 351.618 208.44 352.118C210.54 352.518 212.34 351.618 214.64 351.618C233.24 351.318 251.84 352.018 270.44 351.318C276.54 351.918 283.14 351.918 289.14 351.118C291.84 351.318 294.14 351.818 297.04 351.718C299.84 351.518 302.24 351.018 304.84 351.918C315.14 352.518 313.84 339.218 313.34 332.118C313.64 328.818 313.84 326.318 313.94 322.918C313.44 320.418 313.74 317.318 313.74 314.718C312.84 309.318 313.54 303.418 313.84 298.018C313.34 295.818 312.84 292.718 314.24 290.518C314.64 289.718 314.74 288.818 314.54 288.018C312.84 282.118 314.54 275.718 313.44 269.718C314.34 264.718 313.24 259.918 313.84 254.818C314.04 252.918 313.84 250.918 313.64 249.018C313.84 247.218 313.64 246.318 313.24 244.718C313.34 243.018 314.04 240.918 313.94 239.418C313.44 236.518 314.34 233.718 314.14 230.918C313.24 227.418 314.24 224.018 313.84 220.518C312.94 216.018 313.14 211.218 314.04 206.718C313.94 203.918 313.94 202.018 314.04 198.918C314.04 197.318 313.34 195.518 314.04 194.018C315.84 190.918 318.34 187.918 321.54 185.918C323.64 184.318 324.54 181.718 326.14 179.718C329.24 177.018 331.34 173.718 334.34 171.018C335.54 170.418 338.64 166.218 339.74 167.918C340.84 171.918 339.94 176.418 340.24 180.518C340.04 184.418 339.04 188.218 339.54 192.118C339.84 194.618 340.34 196.818 340.24 199.518C339.94 202.318 339.74 204.918 339.34 207.718C339.24 208.618 339.54 209.618 339.64 210.618C339.64 212.518 339.04 214.618 339.64 216.418C339.44 219.818 340.54 223.118 340.24 226.618C339.94 228.618 339.74 230.518 339.94 232.518C339.94 235.318 339.54 237.918 339.74 240.718C339.54 243.018 339.94 245.318 340.04 247.618C340.04 249.718 339.44 251.618 339.64 253.818C339.94 258.018 340.54 262.318 339.44 266.418C338.54 269.018 339.74 271.318 339.94 273.918C339.54 279.818 340.64 285.418 339.04 291.318C338.74 293.118 339.44 294.618 340.04 296.318C340.84 298.918 340.44 302.318 339.94 304.918C339.84 307.918 341.24 311.918 339.64 314.418C338.14 316.418 339.14 318.518 339.84 320.618C339.94 326.418 340.84 332.318 339.04 338.018C338.34 340.418 339.84 342.618 339.84 344.918C339.84 345.918 339.14 347.118 339.24 347.918C339.54 348.818 339.74 350.118 339.64 351.318C339.64 354.618 340.14 357.118 340.34 360.518C339.94 363.618 340.04 366.518 340.14 369.618C340.14 371.718 339.34 373.918 339.94 375.918C341.44 381.018 337.64 380.118 334.84 379.918C332.14 379.818 329.64 380.418 327.14 380.018C325.74 379.918 324.44 380.218 323.04 380.018C322.04 379.818 321.24 380.118 320.24 380.218C317.34 380.818 314.04 379.918 311.14 379.918C305.14 379.718 299.44 380.418 293.34 380.418C290.64 380.518 288.34 378.318 285.74 379.618C281.14 381.218 275.34 380.218 270.74 379.518C267.74 379.818 264.44 380.918 261.24 380.018C258.94 379.718 255.84 380.018 253.94 379.018C250.94 379.218 247.84 379.618 244.64 379.318C239.04 380.118 233.24 380.318 227.74 379.018C225.24 379.618 222.44 380.018 220.04 379.818C217.34 380.218 214.44 380.218 211.64 379.718C207.24 379.918 202.94 380.118 198.64 379.718C194.44 380.118 190.14 380.418 185.94 380.018C183.64 380.318 181.24 380.918 178.84 380.518C174.64 379.518 170.54 380.018 166.54 380.018C162.54 379.918 158.44 379.618 154.34 380.118C150.24 380.318 146.34 380.018 142.34 379.618C139.84 380.118 137.94 379.618 135.54 379.118C134.14 379.118 132.64 380.118 131.04 380.218C128.34 380.018 125.94 379.618 123.24 380.218C119.04 379.618 114.74 379.818 110.44 380.218C106.54 379.718 102.54 379.918 98.64 380.218C86.64 377.718 92.44 378.718 80.84 380.118C79.04 380.318 77.34 379.718 75.54 379.818C73.94 379.818 71.94 380.518 70.14 380.318C68.04 380.318 66.04 379.818 63.84 379.618C61.84 379.418 59.64 380.518 57.64 380.118C55.44 378.918 48.24 382.018 48.84 377.818C49.94 366.318 48.24 355.418 49.24 344.418C49.24 342.418 48.74 340.618 48.64 338.618C48.64 336.818 49.24 335.018 49.14 333.218C48.94 329.718 48.24 326.018 49.04 322.518C49.04 321.518 48.84 320.318 48.84 318.918C48.84 316.318 50.04 314.318 49.94 311.918C49.64 308.818 48.74 305.918 49.04 303.018C49.04 301.818 48.84 300.518 48.74 299.318C48.74 298.018 49.44 296.818 49.44 295.518C49.44 293.818 48.44 292.518 48.54 290.718C48.74 288.018 49.14 286.018 48.54 283.318C48.54 280.918 49.14 278.718 48.94 276.318C48.74 273.118 48.94 269.718 49.14 266.318C49.14 264.318 48.34 262.318 48.64 260.318C49.54 257.318 48.44 254.418 48.44 251.318C48.44 245.918 48.94 240.718 48.44 235.318C48.24 232.318 48.84 229.418 49.04 226.518C48.74 222.318 48.04 217.718 48.84 213.418C49.34 209.318 48.04 204.718 48.44 200.518C49.04 196.218 48.84 192.218 48.94 187.918C48.74 183.518 49.34 180.018 48.54 175.718C47.14 171.318 48.64 171.418 49.14 167.518C48.74 161.818 48.54 156.218 48.44 150.518C49.14 147.118 48.24 143.718 48.74 140.418C48.74 135.418 48.14 130.018 48.44 124.918C48.84 121.318 49.04 117.718 49.04 114.018C49.44 111.318 48.44 109.118 48.44 106.418C48.44 104.018 48.64 101.618 48.94 99.3183C49.44 95.5183 48.14 91.6183 48.94 87.7183C49.74 84.7183 48.74 82.7183 48.54 79.4183C49.14 73.9183 49.04 68.6183 49.14 63.1183C48.54 58.4183 49.34 54.1183 50.04 49.5183C49.94 45.3183 48.34 41.4183 48.54 37.1183C48.54 33.0183 48.84 29.1183 49.74 25.1183C49.34 21.8183 48.04 17.8183 49.54 14.7183C51.94 12.6183 54.14 15.6183 56.74 15.1183C58.44 14.3183 60.14 14.7183 62.34 14.4183C64.34 14.1183 66.24 13.7183 68.34 13.9183C71.04 13.9183 73.04 15.6183 75.64 15.3183C82.14 12.5183 83.54 15.3183 88.94 15.1183C91.44 14.1183 93.84 14.8183 96.44 15.3183C101.54 15.8183 107.44 15.2183 112.14 14.3183C114.34 13.8183 116.54 14.3183 118.74 14.5183C120.74 14.6183 122.94 13.9183 124.94 14.2183C128.04 14.6183 131.44 16.5183 134.54 15.3183C139.84 12.4183 146.94 13.5183 152.64 14.3183C155.14 14.8183 156.64 15.9183 159.04 15.5183C161.24 15.3183 163.04 14.2183 165.14 14.2183C167.84 14.5183 169.94 14.7183 172.64 14.1183C175.04 13.9183 177.14 15.0183 179.44 14.9183C182.74 14.3183 186.04 15.3183 189.54 15.0183C194.54 15.3183 199.14 13.7183 203.94 14.5183C207.94 13.7183 212.14 14.2183 216.04 14.5183C224.34 13.6183 232.54 15.6183 240.94 15.7183C243.04 15.5183 244.54 14.5183 246.44 14.3183C250.14 14.1183 253.34 15.3183 257.14 14.9183C260.44 14.9183 263.14 15.8183 266.34 14.6183C268.64 13.9183 271.64 14.5183 274.14 14.6183C276.84 14.5183 279.14 14.0183 281.94 14.4183C284.24 14.4183 286.24 15.2183 288.34 15.3183C290.04 15.0183 291.74 14.4183 293.44 14.3183C297.44 13.5183 301.54 15.5183 305.84 15.1183C308.74 14.2183 311.04 14.6183 314.04 14.6183C317.14 14.0183 319.84 14.9183 322.84 15.3183C324.54 15.3183 326.04 14.4183 327.84 14.8183C330.34 15.4183 333.34 15.0183 335.74 14.5183C336.74 14.4183 337.94 14.5183 338.74 15.0183C340.44 16.3183 339.94 18.9183 339.84 20.9183C339.84 22.5183 340.34 24.2183 340.24 25.6183C340.24 27.0183 339.54 28.3183 339.74 29.7183C340.74 33.3183 339.74 37.4183 340.34 41.2183C340.34 43.0183 339.54 44.6183 339.54 46.5183C339.54 47.7183 339.94 49.1183 339.94 50.1183C338.34 55.5183 340.64 55.8183 340.24 60.4183C337.54 66.3183 340.24 64.5183 340.24 69.5183C338.54 74.0183 340.04 78.5183 340.64 83.1183C340.84 88.4183 339.84 93.0183 341.04 98.4183C341.04 99.8183 341.14 101.118 341.34 102.518C341.64 105.318 339.64 107.418 339.94 110.218L339.04 110.618ZM299.44 291.418C300.04 294.218 299.44 297.018 299.14 299.618C300.24 303.318 299.64 308.018 300.04 311.618C300.94 314.018 299.04 316.218 299.04 318.518C299.54 323.018 300.44 327.718 299.24 332.018C299.44 334.118 301.64 337.718 298.04 337.818C288.04 337.818 275.94 337.218 265.14 338.518C261.84 338.718 258.24 337.218 254.94 338.018C252.04 338.618 249.34 338.618 246.64 337.318C244.84 337.318 242.34 338.118 240.84 337.318C238.84 335.418 240.14 331.918 239.74 329.418C239.74 328.118 238.94 326.718 239.74 325.518C240.64 324.418 240.14 322.918 239.94 321.618C239.64 320.218 240.14 318.418 240.34 317.318C240.14 314.918 240.04 312.418 240.44 310.018C240.44 305.218 239.44 300.218 240.84 295.518C242.24 294.118 245.44 293.518 247.54 292.918C248.74 292.718 249.94 293.118 250.64 292.618C253.74 287.818 255.74 291.418 260.24 285.518C262.84 282.218 266.14 279.318 268.54 275.818C270.04 272.818 271.74 270.018 272.84 267.018C273.04 264.718 272.84 262.618 273.24 260.318C274.54 257.618 274.34 254.618 273.94 251.718C273.64 250.118 274.04 248.718 273.94 247.218C273.04 244.818 271.54 242.318 271.04 239.518C270.74 237.618 272.64 237.918 273.64 236.818C276.24 232.918 277.54 231.218 281.84 228.818C283.04 227.618 282.04 225.818 283.54 224.718C287.64 220.718 293.04 217.718 295.94 212.718C296.64 211.718 297.94 208.618 299.14 210.418C299.34 212.518 298.64 215.118 299.34 217.118C298.94 225.118 300.64 233.518 299.04 241.518C298.94 242.518 299.34 243.518 299.14 244.318C298.94 245.418 298.14 246.418 298.24 247.618C300.24 251.818 299.54 256.718 299.64 261.318C299.54 263.518 298.74 265.618 299.94 267.718C300.34 268.918 299.74 270.118 299.24 271.118C299.04 272.718 298.94 275.018 299.24 276.718C299.44 277.718 300.34 278.618 300.44 279.718C300.54 281.218 299.14 282.118 298.94 283.418C299.44 286.018 299.14 288.618 299.44 291.118V291.418ZM299.44 136.718C299.44 138.418 299.54 140.418 299.14 142.118C298.94 143.018 298.94 143.618 299.14 144.218C300.14 145.918 298.64 147.718 298.74 149.518C298.64 150.718 298.74 151.918 299.04 153.118C299.04 154.718 298.64 156.218 299.04 157.818C299.24 159.218 298.64 161.218 298.64 162.718C298.64 164.318 299.24 165.818 299.04 167.518C298.94 170.018 298.14 172.618 298.94 175.018C299.84 178.918 300.64 183.518 299.84 187.518C299.24 189.518 297.64 190.618 296.34 191.818C295.24 194.218 293.84 193.918 292.04 195.318C291.14 196.918 290.54 198.518 288.94 199.718C287.64 201.018 287.04 202.918 285.64 204.118C283.74 205.518 282.84 207.518 281.54 209.418C278.14 212.018 274.14 214.318 271.84 218.118C270.54 220.018 268.34 220.618 267.54 222.918C264.34 230.718 261.64 226.418 257.84 222.218C256.24 221.118 254.14 220.718 252.54 219.718C250.74 218.818 249.34 217.218 247.14 217.018C240.94 216.618 239.34 215.918 239.94 209.418C241.14 206.918 240.64 205.418 240.34 202.118C240.34 200.918 240.64 199.618 240.74 198.518C240.74 198.318 240.74 198.218 240.74 198.018C239.94 197.018 240.14 195.418 240.74 194.218C241.44 192.218 240.74 190.718 240.74 188.718C240.74 187.418 241.44 186.218 241.34 185.018C241.34 184.118 240.74 182.918 240.84 181.518C240.84 180.118 241.64 178.518 241.24 177.118C240.84 176.318 239.94 175.418 240.14 174.318C240.24 173.218 240.04 172.118 240.34 171.018C240.64 170.218 241.14 169.218 241.14 168.218C241.64 165.418 240.44 163.218 240.84 160.418C241.34 158.718 241.34 157.118 241.04 155.418C241.04 154.118 241.74 153.018 241.54 151.718C241.54 150.018 239.84 148.418 240.24 146.918C241.94 141.918 241.54 136.418 240.54 131.318C240.54 127.418 241.04 123.418 239.84 119.518C238.54 109.218 244.14 112.718 251.14 112.718C254.14 112.518 256.74 112.018 259.84 111.918C262.44 111.918 264.34 112.718 266.94 112.418C270.04 112.618 273.64 112.018 276.54 112.618C278.14 113.118 279.64 114.018 281.34 113.918C288.74 112.618 291.04 109.318 298.74 113.418C299.44 114.218 299.14 115.518 299.44 116.818C299.94 118.618 298.94 120.218 298.74 122.018C299.04 126.918 299.24 131.618 299.74 136.518L299.44 136.718ZM227.34 314.818C226.94 320.418 228.14 326.018 227.34 331.618C226.44 333.918 228.54 339.318 224.84 338.618C220.34 338.118 214.54 339.018 209.84 337.718C207.04 337.018 203.34 338.218 200.44 338.318C199.34 338.418 198.34 337.418 197.24 337.318C195.84 337.318 194.64 337.318 193.14 337.118C188.54 337.318 184.34 337.718 179.74 337.118C177.54 337.418 175.34 337.118 173.14 337.318C171.24 338.118 170.44 338.118 168.64 337.318C167.14 337.518 165.64 338.918 165.04 336.518C165.04 334.318 166.34 334.218 165.04 332.018C164.44 330.718 164.94 329.218 165.04 328.118C165.04 326.918 164.44 325.718 164.74 324.518C166.54 320.118 164.94 315.218 164.74 310.818C165.64 305.818 163.74 295.718 165.14 287.818C165.94 286.518 165.74 285.718 165.34 284.518C164.74 282.418 165.04 280.418 165.14 278.418C164.94 275.318 165.24 272.718 164.54 269.518C164.74 266.418 165.74 263.418 166.04 260.218C165.84 257.118 164.14 254.918 165.54 251.518C165.54 250.618 165.14 249.718 165.04 248.818C165.34 247.118 165.14 245.318 164.94 243.618C165.14 241.818 164.94 240.118 164.64 238.318C164.64 236.918 165.14 235.718 164.84 234.518C164.14 232.618 165.14 230.218 165.14 228.418C164.74 226.418 164.24 224.018 165.24 221.918C167.24 215.318 173.54 218.818 178.94 213.818C180.24 213.118 182.64 212.118 183.54 213.818C183.64 215.218 184.44 216.218 185.64 217.118C188.74 219.918 191.44 223.618 194.24 226.718C196.24 228.218 196.04 228.418 196.64 230.818C198.34 233.418 199.44 232.918 197.34 235.618C196.54 237.018 196.34 239.118 195.44 240.518C194.14 242.418 192.74 244.518 192.84 246.818C192.54 248.718 192.84 250.918 192.84 253.018C192.64 254.318 191.74 255.318 192.24 256.618C193.54 259.418 193.34 262.618 194.44 265.618C194.74 268.818 196.14 270.818 197.14 273.818C198.64 276.518 199.24 279.818 201.94 281.518C205.14 283.818 207.54 287.018 211.34 288.718C213.74 291.118 214.64 291.518 217.94 292.418C221.54 296.518 227.34 293.218 227.84 298.418C228.24 302.118 228.84 306.718 227.64 310.218C226.64 311.618 226.84 313.318 227.34 314.918V314.818ZM164.34 123.118C164.54 122.018 163.84 120.718 163.54 120.018C163.44 119.618 163.64 118.818 163.74 118.218C164.04 116.918 163.44 115.018 163.94 113.918C165.34 111.918 175.94 114.418 180.24 113.518C184.74 112.218 189.04 112.718 193.64 112.018C196.94 111.618 199.74 113.018 202.94 113.018C205.34 113.118 207.54 112.018 209.94 112.518C213.14 113.618 214.24 113.418 217.24 112.718C220.34 114.118 220.54 114.118 224.04 113.118C226.74 112.718 226.64 115.718 227.54 117.818C228.24 120.118 227.24 122.418 227.24 124.518C227.24 125.918 227.54 127.218 227.74 128.618C227.74 131.118 226.64 133.218 226.44 135.618C226.44 136.318 226.34 136.918 226.64 137.618C228.74 141.818 227.74 147.518 227.24 152.018C227.14 153.918 227.54 155.718 227.74 157.718C227.74 159.318 226.94 160.718 226.84 162.418C226.84 164.618 227.94 166.518 227.64 168.618C226.94 174.518 227.74 180.318 227.24 187.318C227.54 189.518 228.84 190.318 228.04 192.318C226.64 198.018 227.14 204.818 227.64 211.918C227.84 213.718 227.14 215.418 225.24 215.918C220.84 217.018 216.34 218.418 212.24 220.418C210.74 221.118 209.54 224.018 207.74 222.718C206.44 220.218 203.74 218.318 201.94 216.018C200.44 212.318 195.94 211.018 194.94 207.018C193.54 205.118 191.14 203.218 192.94 200.718C195.24 197.018 196.64 192.318 196.94 188.118C199.24 183.418 196.94 177.818 196.74 172.918C197.04 168.918 197.54 168.718 194.74 165.518C193.34 163.318 193.94 160.018 191.84 158.318C187.94 155.318 191.64 154.818 185.94 152.218C184.94 151.418 184.04 150.218 183.14 149.218C181.04 147.218 178.64 146.418 177.04 144.118C175.94 143.418 174.34 143.618 173.24 142.818C171.24 141.218 168.44 140.718 166.04 139.818C161.34 138.418 164.64 126.218 164.34 123.218V123.118ZM151.04 278.718C151.34 280.618 150.44 282.418 151.04 284.418C152.04 288.718 152.24 292.918 151.94 297.318C152.24 299.318 151.14 300.818 151.04 302.718C151.04 305.118 152.54 306.818 151.74 309.318C151.54 312.018 151.14 314.918 150.94 317.418C151.04 320.418 152.44 323.618 152.04 326.618C150.04 330.118 150.94 329.418 152.04 332.918C152.04 333.518 152.04 334.218 151.74 334.718C151.14 336.618 151.04 338.018 148.94 338.018C141.04 338.018 133.14 338.018 125.14 338.018C119.64 338.018 114.04 338.918 108.54 338.118C104.34 338.318 98.14 338.818 94.64 337.818C91.84 337.518 90.84 334.918 90.94 332.418C90.04 326.418 93.34 326.318 90.94 318.918C90.74 318.018 90.94 317.218 91.14 316.318C91.84 314.918 90.54 313.318 90.84 311.818C90.94 310.718 91.34 309.118 91.04 307.918C90.64 305.818 91.14 304.218 90.54 302.218C90.64 300.118 90.54 298.018 90.44 295.918C90.74 294.118 92.74 292.518 91.94 290.518C90.54 288.118 91.14 285.418 90.84 282.618C91.24 280.618 92.14 278.518 92.04 276.418C92.04 274.918 90.64 274.318 90.64 272.418C91.04 268.718 91.04 265.218 91.34 261.518C91.54 259.118 90.14 257.018 90.84 254.718C91.24 252.518 93.84 252.518 94.64 250.618C95.04 249.518 94.84 248.318 95.54 247.318C96.34 246.218 98.14 245.618 98.84 244.318C99.54 242.518 100.54 242.018 102.24 241.118C104.64 239.018 105.14 235.418 107.84 233.818C109.74 232.018 110.44 228.418 112.64 226.718C114.84 225.618 115.74 223.718 117.44 222.118C118.34 221.418 119.44 221.218 120.24 220.418C122.14 218.018 123.44 215.018 125.94 213.018C127.14 212.018 127.54 209.218 129.34 209.318C130.94 210.718 132.54 212.318 134.64 213.218C136.84 214.618 138.94 216.118 141.54 216.818C144.74 219.018 144.14 217.818 147.24 218.318C150.44 219.918 152.54 223.618 151.84 227.218C151.84 229.418 152.04 231.518 151.04 233.618C150.64 235.118 151.44 237.118 151.74 238.818C152.04 240.418 151.54 241.518 151.44 243.318C150.24 247.818 152.34 252.018 151.84 256.518C151.64 260.318 151.84 264.518 152.24 268.418C152.04 271.618 150.74 275.318 151.14 278.618L151.04 278.718ZM91.04 177.918C91.04 176.618 91.94 176.018 92.24 174.518C92.54 166.018 89.14 157.218 92.04 148.918C92.14 144.418 91.84 139.618 90.94 135.018C90.74 133.218 91.74 131.218 91.44 129.318C91.34 124.018 89.74 117.618 92.14 112.718C94.44 112.318 96.84 111.918 99.24 112.018C101.24 112.618 103.44 112.018 105.44 112.318C109.14 111.818 113.64 111.218 117.04 113.318C118.14 113.618 118.44 112.418 119.64 112.518C120.34 112.518 121.24 112.518 121.94 112.518C126.34 112.018 130.44 113.318 134.64 112.518C137.74 113.118 140.84 112.018 143.94 112.218C145.84 113.318 149.84 111.418 150.94 113.218C151.54 117.918 150.34 125.018 150.74 129.318C153.84 148.818 144.34 136.618 136.14 145.918C133.84 147.418 130.84 148.118 129.34 150.518C127.44 153.718 124.64 156.218 122.14 158.918C120.74 162.318 120.34 166.118 117.74 168.718C118.44 171.018 117.14 171.618 116.74 173.718C116.64 175.618 116.04 177.718 116.34 179.718C116.84 181.518 116.84 182.918 116.14 184.618C117.84 188.118 116.74 190.818 119.44 194.018C122.54 200.618 118.84 200.518 115.34 205.218C113.54 206.818 112.34 208.518 111.04 210.318C109.84 211.418 107.34 212.018 106.24 213.318C105.14 214.618 105.64 216.218 104.34 217.118C102.44 218.118 102.64 220.018 101.44 221.818C98.24 224.718 94.84 227.918 92.94 231.918C91.54 233.518 90.94 230.018 90.94 228.818C90.94 226.818 92.24 225.718 91.94 224.018C92.44 220.518 91.04 217.218 91.24 213.818C92.34 209.118 90.84 204.318 91.14 199.618C91.44 197.518 90.74 196.218 90.64 194.018C90.34 191.218 91.64 189.218 91.64 186.318C91.04 183.518 91.44 180.818 91.14 177.918H91.04ZM197.04 44.5183C195.64 44.5183 194.14 43.4183 192.84 43.6183C190.14 44.5183 187.24 43.6183 184.54 43.5183C178.54 42.8183 172.54 45.6183 166.54 44.8183C162.14 44.3183 156.14 45.2183 151.44 44.5183C149.74 44.3183 148.74 42.7183 147.04 42.6183C145.64 42.8183 144.14 44.2183 142.34 44.1183C137.84 44.1183 133.14 44.5183 128.74 43.4183C125.74 43.6183 122.94 45.2183 119.84 44.3183C116.84 43.8183 113.74 45.8183 110.94 43.9183C110.04 43.3183 109.14 43.4183 108.14 43.7183C105.64 44.3183 102.34 43.1183 99.74 43.4183C98.44 43.6183 97.24 44.0183 96.04 44.4183C94.04 44.8183 92.24 44.8183 90.14 44.9183C87.94 44.7183 84.54 43.7183 82.24 44.9183C81.04 45.8183 79.64 46.3183 78.54 47.3183C77.94 47.9183 78.14 48.9183 77.94 49.5183C77.04 51.2183 76.94 52.9183 78.14 54.5183C79.24 56.8183 81.54 58.3183 84.14 58.2183C88.14 58.3183 91.64 58.6183 94.74 58.7183C102.64 59.4183 109.24 56.9183 116.74 58.8183C118.44 59.1183 120.14 58.7183 121.84 58.5183C123.94 58.1183 125.44 59.2183 127.44 58.7183C129.14 58.0183 131.14 58.1183 132.84 58.6183C134.04 58.8183 135.34 58.4183 136.44 58.6183C138.34 59.2183 139.94 58.6183 141.74 58.2183C143.84 58.1183 146.14 58.2183 148.24 58.2183C150.54 58.2183 152.54 59.8183 154.94 59.1183C158.74 57.7183 162.74 58.9183 166.74 59.1183C170.44 58.5183 174.64 57.7183 178.44 58.6183C181.64 60.1183 184.84 58.0183 188.04 58.4183C192.24 58.5183 196.54 59.2183 200.64 59.0183C203.04 58.2183 205.24 56.4183 206.44 54.3183C206.94 53.1183 206.44 51.7183 206.44 50.5183C207.74 43.9183 201.34 45.1183 196.84 44.5183H197.04Z" fill="white"/>
</svg>
