<svg width="289" height="468" viewBox="0 0 289 468" fill="none" xmlns="http://www.w3.org/2000/svg">
<path d="M49.615 0.700001C50.515 0.900001 52.315 1.6 54.115 1.7C58.215 1.9 62.415 2.1 66.515 1.7C67.915 1.6 69.415 0.7 70.915 1C71.815 1.1 72.615 1.8 73.415 1.9C75.715 2 77.915 1.9 80.215 1.9C87.015 1.9 93.915 2.1 100.715 2.1C106.515 2.1 112.315 1.9 118.015 1.9C122.215 1.9 126.315 1.9 130.515 2.1C131.315 2.1 132.115 2.5 132.915 2.7C133.115 2.7 133.415 2.8 133.615 2.7C136.215 2.4 138.915 1.9 141.515 1.9C145.915 1.9 150.315 1.9 154.615 2.1C157.015 2.1 159.515 2.7 161.915 2.7C164.015 2.7 166.015 2.1 168.115 2C174.215 1.8 180.215 1.8 186.315 1.6C187.415 1.6 188.615 1 189.715 1C191.315 1 193.015 1.6 194.615 1.6C200.415 1.7 206.215 1.6 211.915 1.8C213.915 1.8 216.015 2.6 218.015 2.6C220.415 2.6 222.915 2 225.315 2C230.615 1.9 235.915 2 241.215 2C242.615 2 244.015 2.2 245.515 2.2C249.315 2.2 253.215 2.5 257.015 3.2C259.715 3.7 262.215 5.1 264.815 6.2C266.115 6.7 267.415 7 268.515 7.7C270.715 9.1 273.115 10.2 274.815 12.4C276.015 13.9 277.615 15.2 278.715 16.8C279.815 18.4 280.615 20.3 281.615 22.1C282.415 23.6 283.115 25.1 283.915 26.6C284.615 27.9 285.215 29.3 285.915 30.6C286.915 32.4 287.315 34.2 287.115 36.2C287.115 36.9 287.615 37.6 287.715 38.3C287.915 39.3 288.315 40.4 288.015 41.2C287.115 43.4 288.315 45.3 288.315 47.3C288.315 47.6 288.815 47.9 288.815 48.2C288.815 49.3 288.815 50.3 288.815 51.4C288.815 51.6 288.515 51.7 288.415 51.9C287.915 54.2 287.415 56.6 287.115 58.9C287.115 59.4 287.515 60.1 287.615 60.6C287.615 61.2 287.915 62 287.615 62.5C286.615 64.3 286.415 65.9 287.615 67.6C287.915 68.1 288.115 68.8 288.015 69.4C287.815 71.8 287.315 74.1 287.115 76.4C287.115 77.7 287.415 79 287.615 80.2C287.715 80.9 287.915 81.6 288.115 82.3C288.315 83 288.615 83.7 288.815 84.4C288.915 84.9 289.015 85.5 288.815 86C288.515 87.4 288.215 88.8 287.915 90.2C287.615 91.8 287.315 93.4 286.915 95C286.515 96.9 287.915 98.2 288.615 99.7C289.115 100.7 289.115 101.2 288.615 102.2C288.015 103.2 287.715 104.5 287.715 105.7C287.715 109.4 287.915 113.1 287.815 116.8C287.815 118 287.315 119.3 287.115 120.5C287.115 120.9 287.115 121.3 287.115 121.7C287.415 122.9 288.115 124 288.115 125.1C288.115 128 287.815 130.9 287.715 133.8C287.715 135.2 287.915 136.6 287.915 138.1C287.915 140.3 288.115 142.5 288.015 144.7C288.015 145.7 287.315 146.6 287.115 147.6C286.815 148.8 286.615 150.1 286.615 151.3C286.615 155.7 286.715 160.2 286.915 164.6C286.915 166.8 287.615 169 287.615 171.1C287.615 172.7 286.815 174.2 286.715 175.8C286.715 176.9 287.215 178.1 287.415 179.2C287.515 179.9 287.715 180.6 287.715 181.3C287.715 184.6 287.715 187.9 287.715 191.1C287.715 192 287.115 192.8 286.915 193.7C286.715 195 286.515 196.4 286.515 197.7C286.515 199.5 286.515 201.3 286.715 203.1C286.715 203.7 287.115 204.3 287.215 205C287.215 205.5 287.515 206.1 287.215 206.4C286.415 207.9 286.515 209.3 287.215 210.9C287.815 212.1 287.615 213.6 287.615 215C287.615 217.3 287.615 219.7 287.615 222C287.615 224.9 287.615 227.8 287.515 230.7C287.515 231.8 286.815 232.8 286.615 233.9C286.615 234.4 286.915 234.9 287.015 235.4C287.115 235.9 287.415 236.5 287.215 236.9C286.315 238.8 286.115 240.5 287.415 242.3C287.815 242.8 287.715 243.7 287.715 244.4C287.715 246.9 287.715 249.4 287.615 251.9C287.615 252.7 287.215 253.5 287.015 254.3C287.015 254.6 286.915 255 287.015 255.2C288.215 256.6 287.615 258.1 287.215 259.6C286.915 260.7 286.715 261.9 286.815 263.1C287.015 265.2 287.715 267.3 287.815 269.4C287.915 272.8 287.815 276.2 287.715 279.6C287.715 281.4 287.115 283.2 286.815 285.1C286.815 285.7 286.815 286.3 286.815 286.8C287.015 287.9 287.315 288.9 287.415 290C287.515 290.9 287.415 291.8 287.615 292.6C287.815 294 287.615 295.2 286.915 296.6C286.315 297.9 286.515 299.7 286.715 301.3C286.815 302.9 287.515 304.4 287.615 306C287.715 310 287.615 314 287.615 318C287.615 318.7 288.015 319.3 288.215 320C288.315 320.5 288.415 321.1 288.415 321.6C288.215 323 288.015 324.4 287.815 325.7C287.515 327.4 287.015 329 286.915 330.7C286.815 333.1 285.915 335.5 287.315 337.9C287.715 338.6 287.515 339.9 287.115 340.8C286.215 343.3 285.915 345.7 287.315 348.2C287.615 348.7 287.515 349.6 287.215 350.1C286.215 351.5 286.215 352.7 287.215 354.1C287.915 355.1 288.615 356.2 288.715 357.3C288.715 358.3 287.915 359.4 287.315 360.2C286.315 361.5 286.015 365 287.015 366.4C287.215 366.7 287.515 367 287.515 367.4C288.015 370.4 288.515 373.4 288.815 376.4C288.815 377.6 288.315 378.8 288.015 380C287.415 382.5 287.415 385 288.315 387.4C288.515 387.9 288.615 388.5 288.515 389.1C288.315 390.5 288.115 391.9 287.815 393.2C287.515 394.4 286.815 395.6 286.815 396.8C286.715 398.9 286.615 401.1 287.115 403.1C287.715 405.4 288.015 407.6 287.115 409.8C286.815 410.4 286.515 411.3 286.815 411.8C288.215 413.9 287.915 416.2 287.815 418.5C287.815 420.7 287.815 422.9 287.515 425C287.315 426.8 286.915 428.7 286.715 430.5C286.615 431.2 286.615 432 286.615 432.8C286.615 434.9 285.415 436.5 284.715 438.3C284.015 440 283.015 441.5 282.215 443.1C280.515 446.5 279.015 450 275.815 452.4C274.715 453.2 274.015 454.6 272.915 455.4C271.415 456.5 269.715 457.4 268.115 458.4C266.615 459.4 265.215 460.4 263.715 461.3C262.615 461.9 261.415 462.2 260.315 462.8C259.515 463.2 258.815 463.7 258.115 464.1C257.515 464.5 257.015 465 256.415 465.2C255.715 465.4 255.015 465.2 254.315 465.2C251.615 465.1 249.015 464.7 246.315 465.9C244.615 466.7 242.215 466.2 240.215 466.2C237.015 466.2 233.815 466.2 230.615 466.2C227.015 466.2 223.315 466.2 219.715 465.8C218.215 465.6 216.915 465.3 215.315 465.9C213.815 466.5 212.115 466.3 210.415 466.3C203.715 466.3 197.115 466.1 190.415 466C184.815 466 179.315 466 173.715 466C172.515 466 171.315 466.8 170.015 467C168.615 467.1 167.215 467 165.715 466.8C165.215 466.8 164.715 466.3 164.115 466.2C162.915 465.9 161.615 465.5 160.415 465.4C159.415 465.4 158.315 465.6 157.215 465.8C156.615 465.8 156.015 466.1 155.315 466.1C151.515 466.1 147.715 466.1 143.915 466.1C142.915 466.1 142.015 465.7 141.015 465.5C140.315 465.5 139.415 465.2 138.815 465.5C134.815 467.1 130.715 466.2 126.615 466C125.115 466 123.515 465.1 122.215 465.5C117.315 466.9 112.415 465.8 107.515 466.4C106.915 466.4 106.315 466.7 105.715 466.9C105.315 467 104.815 467.2 104.415 467.1C102.815 466.6 101.315 466.1 99.715 465.6C99.315 465.5 99.015 465.4 98.615 465.4C96.115 465.6 93.615 464.8 91.215 466.1C90.215 466.6 88.915 466.5 87.715 466.4C85.415 466.4 83.115 466.2 80.815 466C79.615 466 78.515 465.4 77.315 465.4C75.215 465.4 73.215 466.1 71.115 465.9C68.915 465.7 66.815 464.8 64.615 464.4C63.715 464.2 62.715 464.3 61.715 464.4C60.815 464.5 60.015 464.9 59.115 465.1C53.515 466.4 47.815 466.3 42.115 466C39.715 465.9 37.415 464.9 35.015 464.3C34.715 464.3 34.315 464.2 34.015 464.1C31.815 463.4 29.715 462.7 27.515 462C26.115 461.5 24.715 461.2 23.415 460.6C22.215 460.2 21.215 459.6 20.015 459C18.615 458.4 17.215 457.8 16.015 457C14.915 456.3 13.915 455.4 12.915 454.5C11.015 453 10.615 450.6 9.41503 448.7C8.81503 447.7 7.81503 446.9 6.91503 446C5.91503 445 5.31502 444 5.01502 442.6C4.71502 441 3.81502 439.5 3.11502 437.9C3.11502 437.7 2.91503 437.5 2.91503 437.3C2.51503 434 1.81502 430.7 1.71502 427.4C1.61502 422 1.71503 416.5 1.91503 411.1C1.91503 409.4 2.41502 407.8 2.51502 406.1C2.51502 405.4 2.01502 404.8 2.01502 404.1C2.01502 400.1 2.01503 396.1 1.91503 392.1C1.91503 387.9 1.71502 383.7 1.71502 379.5C1.71502 372.7 1.91503 365.9 1.91503 359.1C1.91503 352.8 1.81502 346.5 1.71502 340.3C1.71502 339.7 1.21502 339.1 1.11502 338.4C1.01502 337.5 0.915023 336.5 1.11502 335.6C1.21502 334.6 1.71502 333.6 1.71502 332.6C1.71502 328.7 1.71502 324.8 1.71502 321C1.71502 319.6 2.21502 318.2 2.51502 316.9C2.51502 316.6 2.61502 316.3 2.51502 316C1.11502 312.5 1.81502 308.9 2.01502 305.4C2.11502 302.6 3.21502 299.6 2.51502 297.1C1.41502 293.2 2.31503 289.5 1.91503 285.8C1.71503 284.2 2.31502 282.5 2.51502 280.8C2.51502 280 2.61502 279.2 2.51502 278.4C2.31502 277 2.01502 275.6 1.81502 274.1C1.51502 271.8 1.21502 269.5 1.01502 267.3C1.01502 266.5 1.41502 265.6 1.61502 264.8C1.91502 262.9 2.31502 261 2.51502 259.1C2.51502 258.3 2.01502 257.5 2.01502 256.7C2.01502 250.2 2.01502 243.7 2.01502 237.3C2.01502 235.9 2.61502 234.5 2.61502 233.2C2.61502 232.2 1.91503 231.2 1.91503 230.2C1.81503 228.1 2.01503 226 1.91503 223.9C1.81503 222.3 1.31502 220.7 1.11502 219.1C1.11502 218.6 0.815023 218 1.11502 217.6C2.51502 214.7 1.91503 211.6 1.91503 208.5C1.91503 201.9 1.91502 195.3 2.21502 188.7C2.31502 186.4 1.81503 184.2 1.91503 181.9C1.91503 181.3 1.41502 180.7 1.31502 180.1C1.21502 178.9 1.11502 177.7 1.31502 176.6C1.51502 175.2 2.31503 173.8 2.41503 172.4C2.41503 166.2 2.21502 160 2.11502 153.9C2.11502 149.4 2.11502 144.9 1.81502 140.4C1.61502 136.2 1.91503 132 2.41503 127.9C2.61503 126.4 2.01502 125 2.31502 123.6C2.51502 122.2 3.01502 120.7 3.01502 119.3C3.01502 116.9 3.01503 114.6 2.91503 112.2C2.61503 109.3 2.11502 106.4 1.81502 103.5C1.81502 102.7 1.81503 101.8 1.91503 101C1.91503 93.7 2.11502 86.4 2.11502 79.2C2.11502 74.1 2.11502 69.1 2.11502 64C2.11502 60.6 2.11502 57.3 2.11502 53.9C2.11502 53.2 1.51503 52.4 1.41503 51.7C1.41503 50.3 1.41503 48.9 1.41503 47.5C1.41503 47.1 1.71502 46.7 1.81502 46.3C2.11502 45 2.41502 43.7 2.71502 42.4C2.71502 42.1 2.81502 41.8 2.71502 41.5C2.01502 37.5 2.91502 33.5 3.21502 29.5C3.41502 27.5 4.01503 25.1 5.91503 23.5C6.61503 22.9 6.81502 21.7 7.31502 20.8C8.11502 19.4 8.81502 17.9 9.81502 16.6C10.515 15.6 11.615 14.8 12.515 13.9C12.815 13.6 13.115 13.2 13.315 12.8C14.115 11 15.715 10 17.515 9.2C19.215 8.4 20.715 7.4 22.315 6.5C22.815 6.2 23.215 5.9 23.715 5.7C25.215 5 26.615 4.4 28.115 3.8C28.415 3.7 28.615 3.5 28.915 3.5C31.515 3.5 33.815 2.3 36.215 1.4C36.715 1.2 37.315 1.4 37.815 1.3C41.115 0.899999 44.515 0.5 48.715 0L49.615 0.700001ZM26.615 88.9V88.6C24.715 88.6 22.915 88.6 21.015 88.6C17.615 88.6 17.215 88.7 17.415 92.1C17.715 98.1 16.915 104.2 18.215 110.2C18.715 112.3 17.615 114.7 17.615 117C17.615 120.4 16.815 123.8 18.215 127.1C18.315 127.3 18.215 127.7 18.215 128C18.015 128.8 17.615 129.6 17.615 130.4C17.615 133.5 17.515 136.6 17.615 139.6C17.715 141.7 17.715 143.8 18.315 146C18.915 148.3 17.915 151.1 17.915 153.6C17.915 155.6 18.415 157.7 18.515 159.7C18.515 161.9 18.715 164.2 18.215 166.4C17.915 167.9 17.515 169.2 18.215 170.7C18.515 171.4 18.615 172.5 18.215 173C16.915 175.2 17.415 177.5 17.415 179.8C17.415 180.4 17.915 181 17.915 181.7C18.015 182.8 18.015 183.9 17.915 185C17.915 186 17.615 187 17.715 188C17.815 189.1 18.515 190.3 18.415 191.4C18.315 193.4 17.615 195.5 17.515 197.5C17.315 201 17.315 204.6 17.315 208.1C17.315 208.8 17.915 209.4 17.915 210.1C18.015 211.4 18.115 212.7 17.915 214C17.915 214.7 17.315 215.3 17.215 215.9C17.215 217.5 17.215 219.1 17.215 220.7C17.215 222.3 17.115 223.9 17.615 225.3C18.915 228.6 18.515 232 17.915 235.2C17.515 237.1 17.015 238.8 17.915 240.7C18.115 241.1 17.915 241.6 17.915 242.1C17.715 243.8 17.315 245.4 17.215 247.1C17.115 252.8 17.015 258.5 17.015 264.2C17.015 267.3 17.115 270.4 17.215 273.5C17.215 274 17.215 274.6 17.515 274.9C18.715 276.3 18.115 277.8 17.915 279.2C17.715 280.7 17.215 282.2 17.115 283.7C17.015 285.2 16.715 287 17.415 288.3C18.415 290.2 18.215 292 18.115 293.9C18.115 295.1 18.115 296.3 18.115 297.6C18.115 301.7 18.215 305.8 18.215 309.9C18.215 313.5 18.215 317 18.215 320.6C18.215 322.7 18.415 324.9 17.815 326.8C16.715 329.8 16.815 332.9 17.615 335.7C18.015 337.2 18.515 338.6 18.315 340.1C18.315 341 17.515 341.8 17.415 342.6C17.215 344.9 17.015 347.2 17.115 349.5C17.115 351.3 17.915 353 18.015 354.7C18.015 356.2 17.615 357.6 17.615 359.1C17.615 361 17.915 363 18.215 364.9C18.515 367 19.215 367.7 21.315 367.7C30.915 367.7 40.415 367.9 50.015 367.9C66.815 367.9 83.615 367.8 100.415 367.8C102.215 367.8 103.915 367.6 105.715 368.6C106.615 369.1 108.415 368 109.815 367.9C113.415 367.8 117.015 367.9 120.515 367.9C120.815 367.9 121.215 367.9 121.515 368C123.415 369.1 125.215 369.1 127.115 368C127.615 367.7 128.615 368 129.315 368.1C130.015 368.2 130.615 368.7 131.215 368.7C132.815 368.5 134.415 367.9 135.915 367.8C139.615 367.7 143.415 367.6 147.215 367.8C150.715 368 154.215 367.4 157.815 368.5C159.915 369.1 162.415 368.9 164.915 368.1C167.015 367.4 169.515 367.7 172.115 368.5C174.915 369.3 178.115 368.5 181.115 368.2C181.315 368.2 181.515 368.2 181.615 368.2C182.315 368.4 183.015 368.6 183.715 368.7C189.315 369.4 194.715 367.9 200.315 367.9C200.615 367.9 200.915 367.9 201.215 367.9C207.415 367.9 213.715 367.7 219.915 367.9C222.315 367.9 224.715 368.8 227.115 368.8C228.715 368.8 230.415 368 232.015 368C234.815 368 237.615 367.5 240.415 368.6C241.915 369.2 243.915 368.8 245.815 368.2C247.915 367.5 250.515 367.5 252.915 368.5C254.815 369.3 256.915 368.3 258.915 368C262.415 367.5 266.015 367.8 269.515 368C271.015 368 271.915 367 272.015 366C272.315 363.3 272.115 360.6 272.015 357.9C272.015 356.1 271.315 354.4 271.415 352.6C271.415 349.7 272.115 346.9 272.115 344C272.115 342.6 271.215 341.2 271.315 339.8C271.515 335.7 270.715 331.5 272.015 327.4C272.715 325.3 272.315 323 272.315 320.7C272.315 320.2 272.215 319.8 272.015 319.3C271.715 318.2 271.115 317.2 271.215 316.1C271.315 314.1 272.015 312.2 272.115 310.2C272.315 305.9 272.115 301.6 272.415 297.3C272.415 295.6 271.815 294.1 272.015 292.3C272.515 288.3 272.215 284.2 272.115 280.2C272.115 279.7 271.715 279.2 271.715 278.7C271.915 276.5 272.115 274.3 272.315 272.1C272.315 271.6 272.015 271.1 271.915 270.5C271.715 269.5 271.415 268.6 271.515 267.6C271.715 265.3 272.115 263.1 272.315 260.8C272.315 260.3 272.315 259.6 271.915 259.1C270.715 257.4 271.115 255.6 271.515 253.8C271.715 252.9 272.215 252 272.015 251.2C271.515 249.7 271.215 248.3 272.015 246.8C272.115 246.6 272.015 246.1 272.015 245.8C271.815 244.2 271.315 242.5 271.415 240.9C271.415 238.2 272.015 235.6 272.215 232.9C272.215 231.4 271.915 229.8 272.015 228.3C272.015 225.4 272.215 222.5 272.315 219.6C272.315 216.3 272.415 213 272.315 209.7C272.315 208.3 271.615 207 271.615 205.6C271.615 204.7 272.215 203.7 272.315 202.7C272.415 200 272.315 197.4 272.315 194.7C272.315 194.3 272.115 193.9 272.015 193.5C271.815 192.6 271.315 191.6 271.615 190.9C272.315 189.2 272.015 187.9 271.615 186.2C271.015 183.9 271.315 181.3 271.815 178.9C272.415 175.7 272.915 172.6 271.715 169.4C271.615 169.1 271.715 168.7 271.715 168.3C271.915 167.5 272.215 166.8 272.215 166C272.215 162.1 272.215 158.2 272.215 154.3C272.215 153.7 271.815 153 271.715 152.4C271.615 151.2 271.515 149.9 271.715 148.7C271.715 147.6 272.415 146.6 272.415 145.5C272.415 142.3 272.415 139.2 272.415 136C272.415 132 272.415 127.9 272.415 123.9C272.415 123.5 272.415 123.1 272.215 122.8C270.815 120.4 271.515 118 272.115 115.6C272.515 113.9 272.515 112 272.415 110.2C272.415 108.9 271.615 107.6 271.615 106.3C271.615 103.9 271.415 101.6 272.315 99.1C272.915 97.4 272.115 95.1 271.915 93.1C271.915 92.8 271.915 92.4 271.915 92.1C271.915 91 272.615 89.3 272.115 88.9C270.915 87.9 269.415 87.3 267.615 87.6C265.115 88 262.515 88.4 259.915 88.5C255.115 88.7 250.315 88.5 245.515 88.7C244.815 88.7 244.115 89.5 243.515 89.4C242.215 89.1 241.115 88.4 239.815 88.1C238.815 87.8 237.715 87.9 236.715 87.9C235.215 87.9 233.715 87.9 232.215 87.9C231.015 87.9 229.815 87.7 228.615 87.8C227.415 87.8 226.315 88.3 225.115 88.2C224.015 88.2 222.915 87.5 221.915 87.6C220.315 87.6 218.715 88.2 217.115 88.3C214.415 88.4 211.615 88.3 208.915 88.3C208.415 88.3 208.015 88.3 207.615 88C205.515 87 203.515 87.3 201.415 87.8C199.715 88.2 197.915 88 196.115 87.9C194.715 87.9 193.115 87.1 192.015 87.6C190.115 88.5 188.315 88.4 186.415 88.3C184.815 88.3 183.215 88.3 181.615 88.3C177.015 88.3 172.415 88.5 167.815 88.3C165.315 88.3 162.815 87.6 160.315 87.5C158.815 87.5 157.415 88.1 155.915 88.1C148.215 88.1 140.515 88.1 132.815 88.2C127.915 88.2 122.915 88.3 118.015 88.3C116.015 88.3 113.915 88.5 112.015 88C110.515 87.6 109.315 87.7 107.915 88C106.615 88.3 105.115 88 103.715 87.9C101.315 87.8 98.915 87.2 96.615 87.7C93.615 88.3 90.815 88.5 87.815 87.7C87.115 87.5 86.315 87.5 85.715 87.7C83.915 88.4 82.315 88.6 80.515 87.7C80.115 87.5 79.315 87.7 78.815 87.7C78.015 87.8 77.315 88.3 76.515 88.3C72.815 88.3 69.215 88.3 65.515 88.3C59.615 88.3 53.615 88.5 47.715 88.6C46.515 88.6 45.015 88.6 44.015 88.1C41.415 86.7 38.815 87.4 36.215 87.7C34.915 87.8 33.715 88.5 32.515 88.5C30.615 88.6 28.715 88.5 26.815 88.5L26.615 88.9ZM272.415 49.9C272.415 49.9 272.515 49.9 272.615 49.9C272.615 46.7 272.815 43.6 272.615 40.4C272.415 38.1 271.915 35.9 271.315 33.6C271.115 32.7 270.415 31.9 269.915 31.1C269.315 30.1 268.815 29.1 268.115 28.2C267.315 27.2 266.315 26.3 265.315 25.4C264.415 24.6 262.915 24 262.615 23.1C261.815 20.4 260.715 19.2 257.915 18.8C257.215 18.8 256.615 18.6 255.915 18.4C253.915 17.8 251.915 16.8 249.815 16.7C244.515 16.4 239.315 16.5 234.015 16.5C233.415 16.5 232.815 16.6 232.315 16.7C231.215 16.9 230.115 17.4 229.115 17.3C226.015 17.1 222.915 16.6 219.815 16.5C216.415 16.3 213.015 16.5 209.615 16.5C206.715 16.5 203.715 16.7 200.815 16.7C194.915 16.7 188.915 16.5 183.015 16.5C182.515 16.5 181.915 16.5 181.515 16.7C179.515 18.3 177.615 17.7 175.515 16.9C174.915 16.7 174.115 16.9 173.415 16.9C172.715 17 172.015 17.5 171.415 17.4C170.315 17.4 169.315 16.7 168.315 16.7C165.315 16.5 162.315 16.2 159.215 17.3C156.915 18.1 154.115 17.5 151.515 17.3C150.215 17.3 148.915 16.5 147.615 16.5C139.915 16.5 132.215 16.5 124.615 16.7C123.815 16.7 122.915 17.1 122.115 17.2C120.615 17.3 118.815 17.8 117.515 17.2C115.815 16.3 114.115 16.4 112.415 16.4C110.015 16.4 107.515 16.4 105.115 16.4C96.115 16.4 87.115 16.4 78.015 16.5C77.415 16.5 76.815 17 76.215 17.1C74.715 17.2 73.015 17.7 71.815 17.1C70.115 16.3 68.815 16.3 67.115 17.1C66.215 17.5 64.915 17.3 64.015 17.1C61.515 16.2 58.915 16.1 56.515 17.1C54.215 18.1 51.915 17.8 49.615 17.4C48.515 17.2 47.415 16.6 46.315 16.7C43.015 17 39.815 17.5 36.515 17.9C36.315 17.9 36.015 18.1 35.815 18.2C34.815 18.8 33.815 19.4 32.815 20.1C31.915 20.7 30.915 21.3 30.115 22C28.715 23.2 27.215 24.4 25.915 25.7C24.815 26.8 24.115 28.2 23.115 29.5C22.615 30.1 22.215 30.8 21.515 31.3C19.615 32.7 18.315 34.2 18.415 36.8C18.615 42.6 18.615 48.4 18.715 54.2C18.715 55.1 18.715 56 18.415 56.8C17.115 59.8 18.015 62.8 17.815 65.8C17.815 67.4 18.415 68.9 18.415 70.5C18.415 72.4 19.715 73.9 21.615 73.9C26.015 73.9 30.515 73.9 34.915 73.9C35.415 73.9 35.915 73.8 36.415 73.7C38.515 73.5 40.615 73.2 42.715 73.1C43.615 73.1 44.515 73.6 45.415 73.8C48.015 74.3 50.115 72.9 52.515 72.2C53.115 72 53.715 72 54.315 72.1C55.515 72.3 56.715 72.7 58.015 72.8C61.415 73 64.715 73 68.115 73.1C69.415 73.1 70.615 73.6 71.915 73.7C72.815 73.7 73.815 73.7 74.815 73.7C76.015 73.5 77.115 73.1 78.315 73C80.315 72.8 82.315 72.8 84.315 72.8C86.115 72.8 88.015 72.8 89.715 73.4C92.315 74.4 95.015 74.4 97.515 73.7C100.115 72.9 102.715 72.9 105.215 73.4C107.615 73.9 109.715 74.3 112.015 73.4C112.415 73.2 113.015 73.5 113.615 73.6C114.615 73.6 115.715 73.9 116.715 73.8C117.915 73.7 119.015 73.1 120.215 73C123.715 72.9 127.215 73 130.715 73C131.715 73 132.615 73.2 133.615 73.4C134.715 73.6 136.015 74.2 137.015 73.9C138.715 73.4 140.115 73.9 141.715 73.9C146.115 74.2 150.715 74.8 155.115 73.4C155.415 73.3 155.915 73.4 156.215 73.4C157.315 73.6 158.515 74 159.615 74C163.115 74.1 166.715 74.2 170.215 74.2C173.715 74.2 177.215 74.4 180.715 73.8C183.315 73.4 185.815 72.9 188.415 73.8C188.615 73.8 188.915 73.8 189.115 73.6C191.915 72.9 194.615 72.8 197.515 73.6C198.815 74 200.215 73.8 201.615 73.6C202.915 73.5 204.215 72.9 205.415 73C207.415 73 209.315 73.8 211.315 73.7C214.915 73.7 218.415 74.1 222.115 73.2C224.015 72.7 226.215 73.7 228.315 73.7C234.015 73.8 239.615 73.7 245.315 73.7C246.015 73.7 246.915 73.9 247.415 73.5C249.115 72.2 251.115 72.8 253.015 72.6C254.515 72.5 256.015 72 257.515 71.8C258.115 71.8 258.815 72 259.515 72.2C261.715 72.7 263.815 73.2 266.015 73.5C266.915 73.6 267.815 73 268.815 73C271.615 72.9 272.815 71.9 272.815 69.1C272.815 62.6 272.815 56.2 272.815 49.7L272.415 49.9ZM109.515 404.7C106.815 405 103.615 405.4 100.415 405.6C97.315 405.8 94.315 406.3 91.615 408.2C89.915 409.4 88.515 410.8 88.415 412.9C88.415 414.4 88.815 415.9 89.415 417.3C90.015 418.5 91.015 419.5 92.015 420.4C93.515 421.8 95.215 423 97.315 422.8C98.015 422.8 98.715 422.1 99.515 422.1C101.015 422.1 102.415 421.9 104.015 422.7C105.115 423.2 106.815 422.1 108.215 422.1C113.315 422.3 118.315 421.2 123.415 422.8C125.015 423.3 127.015 422 128.715 422.1C132.815 422.3 137.015 421.1 141.115 422.8C142.815 423.5 144.715 422.1 146.415 422.1C149.915 422.1 153.315 421.7 156.915 422.7C160.315 423.6 164.015 422.9 167.615 422.9C167.815 422.9 168.015 422.9 168.215 422.7C169.215 422.4 170.215 421.9 171.315 421.9C173.415 421.8 175.615 421.9 177.815 421.9C178.615 421.9 179.415 422.4 180.215 422.6C180.815 422.7 181.415 422.7 182.015 422.6C182.815 422.4 183.615 422 184.415 421.9C186.015 421.8 187.515 421.7 189.115 421.9C190.615 422 191.615 421.3 192.515 420.3C192.715 420.1 192.815 419.9 193.015 419.8C195.015 418.2 197.115 416.8 198.815 415C199.615 414.1 201.015 412.6 199.515 411C198.115 409.7 196.815 408.3 195.215 407.2C194.115 406.4 192.715 406 191.515 405.5C188.815 404.4 186.115 404.8 183.315 405.3C182.315 405.5 181.315 405.6 180.415 405.5C179.415 405.5 178.515 405 177.615 405C174.215 404.9 170.815 404.7 167.415 404.8C161.915 404.8 156.515 404.9 151.015 405C149.715 405 148.415 405.4 147.015 405.6C146.415 405.6 145.815 405.6 145.315 405.6C144.315 405.5 143.215 405.2 142.215 405.1C139.015 404.9 135.915 404.9 132.715 404.7C132.215 404.7 131.715 404.5 131.215 404.4C129.515 404.3 127.915 404 126.215 404.1C123.315 404.3 120.415 405 117.515 405.2C115.015 405.3 112.515 405 109.515 404.8V404.7Z" fill="white"/>
<path d="M150.615 53.9C147.015 54.4 144.515 52.3 142.115 50.2C142.115 50.2 141.915 50 141.915 49.9C141.415 47.5 139.915 45.2 140.615 42.6C141.115 40.8 141.915 39.1 143.615 38.1C144.515 37.5 145.415 36.9 146.415 36.4C146.815 36.2 147.415 36.1 147.915 36.2C148.815 36.4 149.715 36.7 150.615 36.9C153.815 37.4 156.515 38.8 158.215 41.6C158.515 42 158.515 42.6 158.615 43.2C158.815 46 158.615 48.7 157.215 51.1C156.315 52.6 155.115 54.1 153.015 53.9C152.215 53.9 151.315 53.9 150.515 53.9H150.615Z" fill="white"/>
</svg>
