<svg width="470" height="479" viewBox="0 0 470 479" fill="none" xmlns="http://www.w3.org/2000/svg">
<path d="M352.5 109C352.9 108.7 353.2 108.4 353.6 108.3C354.6 107.9 355 107.1 355 106.2C355 104.5 355 102.8 354.4 101.1C353.7 98.9 353.6 96.6 354.4 94.4C354.7 93.7 354.8 93 354.8 92.2C354.8 88.4 355 84.7 354.8 80.9C354.7 77.3 354.8 73.7 354.8 70.1C354.8 69.3 354.8 68.5 355.3 67.7C355.9 66.3 355.9 64.9 355.3 63.4C354.5 61.4 354.5 59.4 355.3 57.4C355.6 56.8 355.7 56.2 355.7 55.5C355.7 54.5 355.7 53.5 355.7 52.5C355.7 49.7 355.9 49.1 357.4 46.3C357.7 45.7 357.7 44.8 358.4 44.4C359.2 42.3 360.6 40.6 362.1 39.1C362.8 38.4 363.2 37.5 363.7 36.6C364 36 364.4 35.6 365 35.2C366.2 34.6 367.3 33.7 367.8 32.3C368.2 31.4 368.9 30.7 369.8 30.2C370.7 29.7 371.4 29 371.9 28.2C372.4 27.4 373 26.8 373.7 26.2C374.9 25.3 376.1 24.3 377.1 23C377.4 22.6 377.9 22.2 378.4 21.9C379.2 21.4 379.9 20.7 380.3 19.8C380.8 18.8 381.5 17.9 382.6 17.4C383.1 17.2 383.5 16.7 383.9 16.3C385.5 14.5 387.1 12.8 389.1 11.5C389.5 11.2 389.8 10.9 390.2 10.5C391 9.8 391.7 9.1 392.4 8.3C393.1 7.5 394.3 7.5 395.1 6.8C395.6 6.4 396.2 6.2 396.5 5.5C396.8 4.9 397.4 4.5 397.9 4.2C398.7 3.7 399.4 3.2 400.1 2.7C401.2 2 402.3 1.4 403.6 1.1C404.5 0.900003 405.2 0.900002 405.7 1.7C406.2 2.4 407 2.7 407.7 3.1C409.5 3.9 410.2 5.4 410.6 7.1C410.9 8.5 411.1 9.9 410.8 11.5C410.5 12.9 410.5 14.4 411.1 15.9C411.8 17.5 411.7 19.1 411.4 20.7C411 22.9 411.1 25.1 411.1 27.3C411.1 27.9 411.4 28.4 411.5 29C412.1 31.1 412.6 33.3 412.6 35.5C412.6 36.9 413 38.3 413.4 39.6C413.8 40.6 413.9 41.6 413.5 42.7C413.2 43.6 413.2 44.6 413.5 45.6C413.9 47.4 414 49.3 414.2 51.3C415.3 52.3 416.6 52.9 418.2 52.4C418.6 52.3 419.2 52.2 419.6 52.4C420.8 52.8 422 52.7 423.3 52.7C426.2 52.7 429.2 52.9 432.1 52.3C432.3 52.3 432.4 52.3 432.6 52.3C434.8 52.4 436.8 52 438.9 51.4C439.3 51.4 439.8 51.2 440.1 51.4C441.3 51.9 442.7 51.6 444 52.1C444.7 52.4 445.6 52.3 446.4 52.3C450.1 52.3 453.8 52.3 457.5 52.3C458.6 52.3 459.6 51.6 460.6 52C461.6 52.3 462.7 52.3 463.8 52.3C466.5 52.3 467.9 54.1 469.1 56.1C469.6 58.5 470.2 60.9 469.1 63.3C469 63.6 468.8 63.9 468.6 64.1C467 66 465.4 68 463.5 69.7C462.3 70.8 461.2 72 460.5 73.5C460.4 73.8 460.2 74.1 460 74.3C458.2 75.9 457.1 78 455.6 79.9C453.6 82.3 451.2 84.5 449.3 87C448.9 87.5 448.5 88.1 448.2 88.6C447.8 89.2 447.5 89.7 447 90.1C446.5 90.6 445.9 91.2 445.7 91.8C445.4 92.7 444.8 93.3 444.1 93.9C442.9 95 441.7 96.1 441 97.6C440.7 98.1 440.3 98.5 439.8 98.8C438.7 99.5 438.1 100.5 437.7 101.7C437.2 103 436.5 104 435.3 104.7C434.6 105.1 434 105.7 433.5 106.4C432.4 107.7 431.4 109 429.7 109.7C428.8 110 428.1 110.8 427.3 111.4C425.7 112.5 423.9 113.1 421.9 113.5C420 113.8 418.1 113.7 416.3 114.3C415.4 114.6 414.5 114.7 413.7 115C412.7 115.3 411.8 115.4 410.8 115.2C409 114.7 407.2 114.7 405.5 115.6C405.4 115.6 405.2 115.8 405 115.7C402.9 115.7 401 116.4 398.9 116.3C397.8 116.3 396.8 116.3 395.7 116.6C394.2 117 392.6 116.9 391 116.8C389.6 116.8 388.2 116.8 386.9 117.3C385.9 117.6 384.8 117.7 383.8 117.8C382.1 117.9 380.4 118.1 378.7 118.3C377.9 118.4 377.1 118.7 376.4 119.1C375.2 119.9 373.8 119.9 372.6 119.4C370.1 118.4 367.6 118.7 365.2 118.8C363.2 120.6 363.2 120.8 364.9 122.5C365.8 123.4 366.7 124.3 367.7 125.2C367.9 125.4 368.2 125.7 368.5 125.8C370.2 126.3 370.8 127.7 371.5 129.1C371.6 129.4 371.7 129.8 371.9 130C373.6 131.3 374.6 133.2 376 134.8C376.2 135 376.6 135.2 376.7 135.5C377.5 137.4 379 138.6 380.5 139.9C382 141.3 383.3 142.8 384.2 144.7C384.4 145.2 384.7 145.8 385.1 146.2C386 147.1 386.6 148.1 387 149.3C387.2 150.1 387.8 150.7 388.4 151.3C389.8 152.5 390.7 154 391.4 155.7C392.2 157.6 393.3 159.5 394.5 161.2C395 161.9 395.1 162.7 395.6 163.4C396.4 164.6 397.1 165.9 397.9 167.1C398.4 167.8 398.8 168.5 398.9 169.3C399.2 171.3 400.4 172.9 401 174.8C401.7 176.9 402.7 178.8 403.7 180.8C404.5 182.5 404.8 184.4 406.3 185.7C406.7 186.8 407.2 187.8 407.5 188.9C407.7 189.6 407.8 190.3 408 191C408.4 192.7 408.8 194.5 410.1 195.9C410.3 196.1 410.4 196.5 410.5 196.8C410.8 198.3 411.5 199.7 411.5 201.3C411.5 201.9 411.7 202.7 412 203.2C412.8 204.4 412.9 205.8 413.5 207.1C413.7 207.5 413.8 208 413.8 208.5C413.8 209.2 414 210 414.4 210.6C414.7 211.2 414.8 211.8 414.9 212.5C414.9 212.8 414.9 213.2 415 213.5C416 214.8 415.7 216.3 416 217.7C416 218.1 416.2 218.5 416.4 218.9C416.7 219.6 416.9 220.3 416.9 221C416.9 221.7 417.1 222.3 417.4 222.9C417.6 223.4 417.7 223.8 417.8 224.3C417.9 225.5 418 226.8 418.7 227.8C418.8 228 418.8 228.3 418.9 228.5C419.1 230.3 419.3 232.1 419.4 233.9C419.4 235.2 419.8 236.5 420.4 237.7C420.7 238.4 420.9 239.1 420.9 239.8C420.9 241.6 420.9 243.4 420.9 245.2C420.9 246 421 246.8 421.4 247.6C421.6 248 421.8 248.5 421.8 249C421.8 249.9 422.2 250.6 422.8 251.2C423.5 252 423.5 252.8 422.9 253.7C422.9 253.7 422.9 253.9 422.8 253.9C421.5 255.1 421.7 256.5 422.4 257.9C422.9 258.9 423 260 422.7 261C421.8 264.2 421.7 267.5 421.9 270.8C422 272.8 421.9 274.9 421.9 277C421.9 278 421.9 279 422.4 279.9C423 281.1 423 282.3 422.4 283.4C421.8 284.5 421.9 285.8 421.1 286.8C420.9 287.1 421 287.6 421 288C421 289.6 421 291.1 421 292.7C421 293.8 421 294.8 420.3 295.7C420 296.1 420 296.8 420 297.4C420 299 420 300.5 419.2 302C419.1 302.3 419 302.6 419.1 303C419.1 304.4 418.8 305.7 418.2 307C417.8 307.9 417.6 309.1 417.6 310.1C417.6 311.6 417.1 313 417 314.5C417 314.9 416.7 315.3 416.6 315.7C416.4 316.2 416.1 316.8 416.1 317.3C416.1 318.9 415.1 320.2 414.9 321.8C413.9 323.1 413.7 324.6 413.5 326.2C413.2 328.4 412.3 330.4 412.1 332.6C412.1 333.4 411.6 334 411.2 334.6C409.9 336.7 409.2 339 408.7 341.5C408.7 341.8 408.7 342.2 408.5 342.4C407.6 343.3 407.8 344.4 407.8 345.4C407.8 346.4 407.8 347.4 406.9 348.1C406.2 349.8 405.1 351.4 404.7 353.3C404.7 353.6 404.5 353.9 404.2 354.1C402.8 355.3 402.4 357.2 401.9 358.8C401.7 359.4 401.4 360 401.1 360.6C399.7 363.2 398.1 365.7 397.3 368.6C397.2 369 396.9 369.3 396.7 369.6C396.1 370.4 395.6 371.3 395 372C393.9 373.3 393.3 374.8 392.7 376.3C392.3 377.3 391.7 378.1 391 378.9C389.8 380.1 388.5 381.3 387.8 382.9C387.6 383.4 387.3 383.9 387.1 384.5C386.6 385.9 385.9 387.2 384.9 388.3C384.1 389.2 383.2 390.1 383.1 391.4C383.1 391.7 382.9 392 382.6 392.2C381.4 393.4 380.3 394.8 378.8 395.6C377.6 396.2 376.8 397.2 376.1 398.4C375.8 398.9 375.6 399.4 375.3 399.9C375.1 400.3 374.9 400.9 374.6 401.2C373 402.4 372.4 404.4 370.9 405.7C370.7 405.9 370.5 406.3 370.2 406.4C368.9 406.7 368.4 407.9 368 408.9C367.4 410.3 366.4 411.3 365.1 412.1C364 412.8 363 413.6 362.2 414.7C362 415 361.7 415.4 361.4 415.6C359.1 417.4 357.1 419.6 355.2 421.8C354.7 422.4 354.1 422.8 353.4 423.1C352.3 423.5 351.4 424.3 350.8 425.3C349.6 427.3 347.6 428.5 346 430.2C345.1 430.4 344.8 431.3 344.1 431.7C343.5 432.1 343 432.8 342.3 433C340.3 433.5 339 435.1 337.4 436.3C336.6 436.9 335.8 437.7 334.9 438.2C334.4 438.5 333.8 438.9 333.4 439.4C332.8 440.1 332.2 440.8 331.5 441.3C330.8 441.8 329.9 442 329.1 442.5C328.5 442.9 327.8 443.1 327.3 443.6C326.5 444.5 325.3 444.9 324.2 445.5C323.9 445.7 323.6 445.7 323.3 445.9C319.9 448.2 316.2 449.9 312.8 452.3C312 452.9 311.2 453.5 310.3 453.8C309.1 454.2 308.2 454.9 307.3 455.7C306.4 456.5 305.3 457.1 304 457C302.7 456.8 301.6 457.2 300.5 457.9C299.4 458.6 298.1 459 297 459.5C296 460 294.9 460.5 293.9 461C292.6 461.7 291.4 462.4 289.8 462.4C288.6 462.4 287.6 463.3 286.5 463.9C285 464.7 283.6 465.7 282.1 466.3C281.3 466.7 280.7 467.4 279.9 468.1C279.2 468.1 278.4 468.1 277.6 468.1C275.6 468.1 273.7 468.4 271.9 469.3C270.4 470.1 268.7 470.5 267.1 471.1C266.6 471.3 266.2 471.4 265.8 471.7C264.8 472.4 263.7 472.7 262.6 472.6C261.3 472.6 260 472.8 258.7 473.1C257.7 473.4 256.6 473.6 255.6 473.6C255.1 473.6 254.6 473.6 254.1 473.8C252.2 474.5 250.1 474.4 248.2 475.4C247.8 475.6 247.2 475.6 246.7 475.6C245.6 475.6 244.4 475.6 243.3 475.6C242.6 475.6 242 475.6 241.4 475.9C240.3 476.5 239 476.5 237.8 476.6C235.4 476.7 233.1 477 230.7 477.4C229.4 477.6 228.1 477.6 226.8 477.6C226 477.6 225.2 477.5 224.5 478.2C224.3 478.4 223.9 478.4 223.6 478.4C222.9 478.4 222.1 478.5 221.4 478.5C216.9 478.5 212.4 478.5 207.9 478.5C207 478.5 206.1 478.6 205.3 477.9C204.9 477.5 204.2 477.7 203.6 477.7C199.8 477.7 196 477.6 192.3 477.5C191.2 477.5 190 477.5 188.9 476.9C188.4 476.6 187.8 476.6 187.2 476.6C186.1 476.6 185.1 476.6 184 476.6C183.3 476.6 182.6 476.6 182.1 476.4C180.5 475.6 178.9 475.7 177.3 475.7C176 475.7 174.7 475.7 173.5 475C172.9 474.7 172 474.8 171.3 474.6C168.4 473.8 165.3 473.7 162.4 472.8C161.1 472.4 159.7 472.1 158.4 471.6C157.2 471.2 156 471 154.8 470.7C153.8 470.5 152.7 470.4 151.7 470.2C151.4 470.2 151.1 470 150.8 469.9C149.6 469.1 148.2 468.5 147 467.9C146.5 467.6 146 467.5 145.4 467.4C144.4 467.3 143.4 467.4 142.6 466.6C142.4 466.4 142 466.4 141.7 466.4C141 466.4 140.4 466.3 139.7 466.4C138 466.6 136.8 465.6 135.5 464.9C134.7 464.5 134.1 463.8 133.2 463.4C132.5 463.1 131.9 462.4 131 462.4C130.9 462.4 130.7 462.3 130.6 462.2C128.6 460.3 125.9 459.8 123.6 458.6C122.3 457.9 120.9 457.5 119.5 457.1C118.4 456.8 117.5 456.4 116.8 455.5C115.8 454.2 114.3 453.8 113 453.1C112.7 452.9 112.3 453 112.1 452.8C111.5 452.1 110.6 452 109.8 452.1C108.2 452.2 107.1 451.4 106.3 450.2C105.6 449.1 104.9 448.2 103.6 447.9C103.3 447.9 103.1 447.5 102.8 447.4C101.5 446.8 100.3 446 98.8 445.5C97 444.9 95.4 444 94 442.7C93.5 442.2 93 441.9 92.4 441.7C91.6 441.4 90.9 440.8 90.2 440.3C89.7 440 89.3 439.5 88.8 439.3C87.7 438.8 86.9 438.1 86.3 437.1C85.9 436.5 85.3 436.2 84.7 435.9C83.2 435.3 81.9 434.2 80.5 433.3C80.4 433.3 80.2 433.1 80.1 433C78.3 430.6 75.7 429.2 73.7 427C73.1 426.3 72.3 425.5 72 424.7C71.6 423.8 71 423.3 70.4 422.6C70 422.2 69.6 421.8 69.1 421.5C67.3 420.5 66.2 418.9 65 417.4C64.5 416.8 64 416.3 63.2 415.9C62 415.4 60.9 414.6 59.9 413.9C58.7 413 57.3 412.1 56.6 410.7C56.6 410.5 56.3 410.3 56.1 410.2C54.9 409.4 54.1 408.3 53.5 407C53.3 406.5 52.9 406.1 52.5 405.6C52 405 51.3 404.5 51.1 403.7C51.1 403.3 50.6 403 50.3 402.8C49 401.7 48.2 400.3 47.3 399C46.6 397.9 45.7 396.9 44.9 395.9C43.8 394.5 42.7 393.1 41.6 391.7C41.3 391.2 41 390.8 40.4 390.5C39.2 389.8 38.6 388.6 38 387.5C37.6 386.7 37.1 385.9 36.6 385.2C35.7 384.1 35 383 34.6 381.6C34.1 379.8 33.3 378.1 31.8 376.8C31.3 376.4 31 375.8 30.7 375.2C30.1 374.1 29.3 373 28.4 372C27.8 371.3 27.5 370.7 27.4 369.8C27.3 367.7 26.3 365.9 25.2 364.1C24.2 362.5 23.1 361 22 359.4C21.7 359 21.5 358.6 21.4 358.1C21.4 357.4 21.2 356.8 20.7 356.3C20.5 356.1 20.4 355.7 20.4 355.4C20.4 354.2 19.8 353.4 19 352.7C18.6 352.3 18.1 352 17.8 351.5C17.2 350.7 16.6 350 16.3 349C16.1 348.1 15.7 347.3 15.4 346.5C15.3 346.2 15.1 345.9 15.1 345.6C15.1 343.7 14.5 342.1 14 340.4C13.9 340 13.8 339.6 13.6 339.3C12.6 337.7 12.2 335.8 11.3 334.2C11.3 332.3 10 330.7 10.1 328.7C10.1 328.3 10.1 327.8 9.80001 327.5C9.10001 326.7 9.40001 325.6 8.70001 324.8C8.00001 324 8.50001 323 8.10001 322.2C7.30001 320.4 7.40001 318.4 6.50001 316.6C6.00001 315.7 5.90001 314.6 5.80001 313.5C5.80001 311.9 5.40001 310.4 4.80001 309C4.40001 308.1 4.20001 307.1 4.30001 306.1C4.50001 303.4 4.10001 300.7 3.10001 298.1C3.00001 297.8 2.90001 297.5 2.90001 297.2C2.90001 294.1 1.80001 291.1 1.80001 287.9C1.80001 287.3 1.70001 286.8 1.40001 286.2C0.900006 285.3 0.800006 284.3 0.900006 283.3C0.900006 280.6 0.900006 277.9 0.900006 275.2C0.900006 274 1.10001 272.8 1.20001 271.5C1.30001 270.3 0.900006 269.1 0.800006 267.9C0.800006 265.4 0.800006 263 0.800006 260.5C0.800006 259.5 0.800007 258.6 1.20001 257.6C1.50001 256.6 1.50001 255.5 1.20001 254.4C0.900007 253.2 0.900006 252 0.800006 250.7C0.700006 249.2 0.800007 247.8 1.70001 246.4C2.30001 245.5 2.50001 244.5 2.10001 243.3C1.90001 242.7 1.90001 242 2.30001 241.4C2.80001 240.5 2.70001 239.5 2.90001 238.6C3.30001 236.6 3.40001 234.5 3.30001 232.5C4.00001 230.1 3.60001 227.4 4.90001 225.1C5.30001 224.4 5.30001 223.7 5.30001 222.9C5.30001 221.9 5.50001 221 6.00001 220.1C6.60001 219.1 7.10001 218.1 6.60001 216.8C6.60001 216.6 6.60001 216.3 6.60001 216.1C7.50001 214.1 7.50001 211.8 8.30001 209.7C8.70001 208.7 9.20001 207.7 9.70001 206.7C9.80001 206.4 10.1 206.2 10.2 205.9C10.2 204.7 10.8 203.5 11.1 202.4C11.6 200.5 12.1 198.6 13 196.9V196.7C12.9 195.2 13.9 194.1 14.3 192.8C14.7 191.5 15.3 190.4 15.8 189.2C16.1 188.4 16.4 187.7 16.6 186.9C17 185.5 17.6 184.2 18.7 183.4C19.7 182.7 19.6 181.5 20.3 180.7C20.9 179.9 21.2 178.8 21.4 177.8C21.6 177.2 21.8 176.8 22.1 176.2C22.6 175.1 23.1 174 23.5 172.8C23.6 172.4 23.7 172.1 24 171.7C25.1 170.1 26.1 168.4 26.5 166.4C26.5 166.2 26.6 165.9 26.8 165.7C28 164 28.7 162.1 29.6 160.2C30.5 158.3 31.7 156.7 33.1 155.3C35.1 153.2 36.7 150.6 37.8 147.7C38.3 146.6 39.1 145.7 39.8 144.7C40.1 144.3 40.5 144 40.8 143.6C41.8 142.2 42.1 140.3 43.8 139.5C44.8 138.1 45.9 136.8 46.9 135.4C47.5 134.6 47.8 133.7 48.3 132.8C48.8 131.9 49.3 131.1 50.2 130.6C51 130.2 51.6 129.5 52.1 128.7C52.5 127.9 53.2 127.3 54 126.8C56.1 125.5 57.7 123.6 59.5 121.9C59.9 121.6 60.4 121.2 60.5 120.5C60.6 119.4 61.4 118.8 62.3 118.4C62.8 118.1 63.2 117.8 63.6 117.3C64.1 116.6 64.7 116 65.2 115.4C65.8 114.7 66.5 114.2 67.4 113.9C68.6 113.6 69.6 112.8 70.5 112C72.2 110.5 73.9 109 75.5 107.4C76.7 106.2 77.9 105.2 79.3 104.3C80.2 103.7 80.9 103 81.4 102C81.7 101.2 82.3 100.5 83.1 99.9C84.6 98.9 85.6 97.4 87.3 96.6C87.6 96.4 87.8 96 88.1 95.7C88.4 95.3 88.7 94.9 89.2 94.8C90.2 94.6 90.8 94 91.4 93.3C92.2 92.3 93.3 91.8 94.4 91.2C97.8 89.3 101.5 87.9 104.8 85.7C105.9 85 107.1 84.6 108.1 83.7C108.8 83.2 109.6 83.2 110.4 82.8C112.7 81.5 115 80.4 117.4 79.3C118.5 78.8 119.3 78.1 120.1 77.2C120.9 76.3 121.7 75.8 122.9 75.9C124.6 76.1 126.1 75.3 127.6 74.7C128.3 74.4 129.1 74 129.7 73.5C130.1 73.2 130.5 73 131 72.9C131.7 72.9 132.5 72.9 133 72.2C133.1 72 133.5 72 133.7 72C135.1 72.1 136.2 71.2 137.3 70.7C138.8 69.9 140.3 69.4 141.8 69C142.2 68.9 142.7 68.9 142.9 68.6C143.9 67.7 145.1 67.3 146.2 66.5C147.2 65.8 148.4 65.4 149.7 65.5C151.7 65.7 153.4 65.2 155 64C156.4 63 158.1 62.5 159.9 62.6C160.9 62.6 161.9 62.5 162.9 62.6C164.8 62.8 166.4 62 168.1 61.5C168.9 61.2 169.5 60.4 170.3 59.7C170.9 59.7 171.6 59.6 172.4 59.5C172.7 59.5 173.1 59.5 173.3 59.3C174.4 58.3 175.8 58.6 177 58.5C177.7 58.5 178.5 58.5 179.2 58.5C180 58.5 180.8 58.5 181.6 58C182.2 57.7 182.8 57.6 183.5 57.5C184.3 57.5 185 57.3 185.6 57C186.6 56.4 187.7 56.4 188.7 56.8C190.5 57.3 192.3 57.1 194.1 56.9C194.7 56.9 195.4 56.7 196 56.6C198.3 56.6 200.5 56 202.8 55.8C203.1 55.8 203.5 55.6 203.8 55.7C205 56.2 206.2 55.7 207.4 55.7C208.6 55.6 209.7 55.9 210.8 56.1C211.8 56.3 212.7 56.6 213.7 56.3C214.1 56.2 214.5 56.3 214.9 56.3C217.9 56.3 221 56.4 224 56.3C224.9 56.3 225.7 55.9 226.7 55.6C228.1 56.4 229.7 56.5 231.4 56.3C232.1 56.3 232.9 56.3 233.6 56.3C234.2 56.3 234.8 56.3 235.2 56.7C235.8 57.2 236.5 57.2 237.3 57.2C238.4 57.2 239.4 57.2 240.5 57.2C241.9 57.2 243.3 57.2 244.6 57.9C245.1 58.2 245.7 58.1 246.3 58.1C247.2 58.2 248 58.1 248.8 58.9C249.2 59.3 250.2 59.1 250.6 59.4C251.4 60.1 252.2 60.1 253.1 60.1C253.8 60.1 254.6 60.1 255.1 60.8C256.9 61.2 258.6 62.3 260.5 62.1C261.6 62 262.6 62.3 263.6 62.7C265.3 63.3 266.9 64 268.7 64.3C270.6 64.6 272.4 65.5 274.3 65.9C277.2 66.5 279.9 67.6 282.7 68.7C283.7 69.1 284.6 69.4 285.6 69.7C286.5 70 287.4 70.3 288.3 70.7C289.1 71.1 290 71.3 290.7 71.8C291.3 72.2 291.8 72.4 292.5 72.5C293 72.5 293.5 72.5 293.8 73C294 73.2 294.2 73.3 294.4 73.4C295.2 73.7 296.2 73.4 296.9 74.1C297.5 74.7 298.6 74.6 299.3 75.2C300.8 75.4 302 76.4 303.5 76.4C304 76.4 304.4 76.6 304.9 76.9C306.9 78.2 309 79.3 311.3 79.9C311.8 80 312.3 80.4 312.8 80.8C314.3 81.9 315.8 83.1 317.2 84.2C318.2 85 319 85.8 320.3 85.8C321.9 86.9 323.9 87.4 325.3 88.9C326.4 90.1 327.7 90.9 329.1 91.6C330.5 92.3 331.8 93.2 333.3 93.7C333.9 93.9 334.4 94.3 334.9 94.8C335.9 95.9 337 96.8 338.4 97.2C339.2 97.4 339.9 98 340 98.9C340.2 99.8 340.8 100.4 341.3 100.9C342 101.6 342.8 102.1 343.7 102.6C345.2 103.4 346.4 104.5 347.7 105.4C348 105.6 348.3 105.8 348.4 106.1C349.1 107.6 350.4 108.3 351.8 109.3L352.5 109ZM343.2 183.3C344.1 184.9 344.7 186.5 345.5 187.9C346.2 189.1 346.8 190.3 347.5 191.5C348.8 193.5 349.7 195.7 351.1 197.6C351.9 198.7 352.7 200 353 201.5C353.4 203.5 354.1 205.4 355 207.3C355.8 208.9 356.7 210.4 356.9 212.2C357.6 213.2 357.8 214.3 357.9 215.4C357.9 215.6 357.9 215.7 358.1 215.8C358.7 216.3 358.8 216.9 358.8 217.6C358.8 218.4 359 219.1 359.4 219.7C360.7 222.1 361.1 224.8 361.7 227.4C362 228.8 362.2 230.1 362.5 231.5C362.8 232.8 363.3 234 363.6 235.3C363.9 236.7 364 238.2 364.4 239.6C365 241.8 365.3 244.1 365.2 246.4C365.2 247.2 365.2 248 365.2 248.9C365.2 249.6 365.2 250.2 365.5 250.8C366.1 252.4 366.2 254.2 366.2 255.9C366.2 257.2 366.2 258.5 366.2 259.8C366.2 260.4 366.2 261 366.5 261.5C367.1 262.7 367.1 263.9 367.1 265.1C367.1 266.5 367.1 267.9 367.1 269.3C367.1 270.2 367.1 271.1 366.6 271.9C366.1 272.7 366.2 273.6 366.2 274.5C366.2 276.4 366.2 278.3 366.2 280.2C366.2 281.3 366.2 282.3 365.6 283.3C365.3 283.9 365.3 284.6 365.2 285.2C365.2 287.2 365.2 289.1 365.2 291.1C365.2 291.8 365.2 292.6 364.8 293.2C363.6 295.2 363.3 297.3 363.2 299.6C363.2 300.3 363.2 301.1 363.1 301.8C362.7 304 362.2 306.3 361.7 308.5C361.4 309.9 361.1 311.3 360.5 312.5C360.1 313.3 359.8 314.1 359.8 315C359.8 316.4 358.8 317.4 358.8 318.8C358.8 319.3 358.3 319.4 358.1 319.8C357.3 321.1 356.6 322.5 356.8 324.2C356.9 324.9 356.5 325.4 356.2 326C355.3 327.5 354.2 329 353.3 330.5C352.1 332.7 351.1 335.1 349.9 337.3C348.6 339.6 347.4 342.1 346.6 344.6C346.3 345.4 345.9 346.1 345.4 346.6C344.5 347.5 343.5 348.4 342.5 349.2C340.5 350.8 339.4 352.9 338.7 355.3C338.3 356.7 337.6 357.8 336.5 358.7C334.3 360.5 332.6 362.6 331.2 365C331 365.4 330.6 365.6 330.4 365.9C329.9 366.6 329.2 367.2 328.8 368C328.6 368.4 328.3 368.9 327.9 369.2C326.2 370.6 325 372.3 323.4 373.7C322 375 320.5 376.3 319.4 378C319 378.5 318.6 379.1 317.8 379.1C317.4 379.1 317.1 379.4 316.8 379.7C315.6 380.7 314.4 381.6 313.6 383C313.3 383.5 312.7 384 312.2 384.4C310.8 385.5 309.1 386.3 308.2 388C308.2 388.1 308 388.2 307.8 388.3C306.3 389.2 305.1 390.4 303.9 391.6C303.5 392 303.1 392.3 302.5 392.5C301.6 392.8 300.6 393.1 299.9 393.7C298.8 394.6 297.6 395.2 296.4 395.9C295.3 396.5 294.3 397.1 293.3 397.9C292.4 398.6 291.4 399.2 290.4 399.7C288.6 400.5 287 401.6 285.6 403C285.2 403.4 284.7 403.7 284.1 403.8C283.6 403.8 283.2 404.1 282.8 404.4C282 404.9 280.9 404.9 280.2 405.7C278.2 406.3 276.5 407.3 275.1 408.9C274.3 409.8 273.3 410.3 272.1 410.2C270.1 410 268.5 411.1 266.6 411.5C264.7 412.7 262.7 413.4 260.4 413.5C259 413.5 257.7 414 256.3 414.3C255.9 414.3 255.6 414.6 255.2 414.8C253.7 415.5 252.2 416.5 250.4 416.3C250.2 416.3 250.1 416.3 249.9 416.3C248.7 416.3 247.4 416 246.4 417C246.2 417.2 245.8 417.1 245.5 417.2C244.1 417.2 242.5 417 241.3 418.1C241.1 418.2 240.8 418.1 240.6 418.2C240.2 418.2 239.7 418.3 239.4 418.5C238.7 419.1 237.9 419.1 237.1 419.1C235.8 419.1 234.5 419.3 233.2 419.7C231.9 420.1 230.6 420.2 229.3 420.1C228.4 420.1 227.5 420.1 226.6 420.1C224.2 420.1 221.9 420.1 219.5 420.6C217.7 421 215.9 421.1 214.2 420.6C212.7 420.2 211.1 420.3 209.6 420.6C207.6 421 205.5 420.9 203.5 420.6C201.7 420.4 200 419.9 198.2 419.5C197.1 419.3 195.9 419.3 194.8 419C193.2 418.6 191.5 418.6 189.9 418.9C188.7 419.1 187.6 419.2 186.6 418.7C186.2 418.5 185.8 418.4 185.4 418.3C184.5 418.2 183.6 418.3 182.9 417.5C182 417.4 181.1 417.3 180.2 417.2C179.3 417 178.6 416.2 177.5 416.3C176.4 416.4 175.4 416.3 174.3 416.2C174 416.2 173.5 416.2 173.3 416C172.4 415.1 171.2 415.3 170.1 415.2C169.8 415.2 169.4 415.2 169.1 415C168.3 414.4 167.5 414.3 166.5 414.3C166 414.3 165.6 414.1 165.1 413.8C163.4 412.8 161.7 412 159.7 411.6C158.3 411.4 157 410.9 155.8 410.2C154.8 409.7 153.7 409.1 152.6 408.9C151.4 408.6 150.4 408.1 149.5 407.4C148.3 406.5 146.9 406.1 145.8 405.1C144.6 405 143.8 403.8 142.4 403.9C141 403.9 139.7 403.9 138.5 403C138 402.6 137.3 402.7 136.7 402.4C135.5 401.8 134.5 401.2 133.6 400.2C133.1 399.7 132.4 399.4 131.7 399C130.5 398.4 129.4 397.8 128.4 396.9C127.4 396 126.4 395.2 125.2 394.6C124.4 394.2 123.7 393.6 122.9 393.3C122.1 393 121.6 392.1 120.9 391.5C120.5 391.2 120.3 390.7 119.8 390.6C118.6 390.5 117.7 389.7 116.9 388.9C115.9 387.8 114.7 387 113.2 386.5C112.1 386.2 111.3 385.4 111.1 384.3C111 383.7 110.7 383.3 110.3 382.8C109.7 382.1 109.1 381.5 108.6 380.7C107.5 378.8 105.8 377.6 104.3 376.1C102.8 374.6 101 373.5 99.2 372.3C98.2 371.6 97.3 370.8 96.5 369.9C95.2 368.3 94.1 366.6 92.7 365.2C91.7 364.1 90.8 362.9 89.9 361.8C88.2 359.8 86.8 357.6 84.5 356.1C83.5 355.4 83.5 354.3 82.8 353.5C82.4 353 82.5 352.4 82.5 351.9C82.5 351.3 82.5 350.7 82.2 350.2C81 348.8 80.4 346.9 79.3 345.4C78.3 344 77.8 342.3 76.7 341C76.5 340.8 76.3 340.4 76.3 340.1C76 338.2 75 336.6 74.1 335C73.1 333.3 72.4 331.2 70.8 329.9C70.4 329.5 70.3 329.1 70.2 328.6C70.2 327 69.4 325.6 68.7 324.2C68.5 323.8 68.2 323.3 68.2 322.8C68.2 321.5 67.7 320.4 67.2 319.3C66.6 318 66.3 316.7 65.9 315.3C65.4 313.2 64.9 311.2 64.1 309.2C63.9 308.8 63.8 308.2 63.8 307.8C63.8 306.7 63.5 305.6 62.7 304.9C61.8 303.9 61.7 302.9 61.7 301.7C61.7 301.2 61.7 300.7 61.7 300.2C61.7 299.4 61.6 298.6 61.1 297.9C60.6 297.1 60.3 296 60.4 295.1C60.6 293.8 60.1 292.8 59.4 291.9C58.8 291.2 58.7 290.5 58.7 289.6C58.7 288.9 58.9 288.1 58.4 287.4C57.8 286.6 57.8 285.7 57.8 284.8C57.8 282.5 57.8 280.2 57.2 278C56.8 276.5 56.8 274.9 57.2 273.4C57.6 271.4 56.9 269.5 56.6 267.6C56.6 267.6 56.6 267.4 56.5 267.4C55.6 266.7 55.8 265.8 56.3 264.9C56.8 263.8 56.9 262.7 56.9 261.5C56.9 260.7 56.9 259.9 56.9 259C56.9 257.1 56.9 255.3 57.3 253.4C57.7 251.8 57.7 250.2 57.8 248.5C57.8 248 57.8 247.5 57.6 247C57.2 246 57.6 245.2 58.1 244.5C59 243.3 59.5 242 59.1 240.4C59.1 240.2 59 239.9 59.1 239.7C59.8 238.5 59.8 237 60.3 235.7C60.7 234.7 60.7 233.6 60.9 232.6C61.1 231.6 61.9 230.7 62 229.6C62.2 228.1 62.6 226.7 63 225.3C63.2 224.7 63.3 224 63.3 223.4C63.3 221.9 63.5 220.5 64.7 219.3C65 219 65.2 218.4 65.2 218C65.3 217.2 65.7 216.4 66 215.7C66.3 214.8 66.6 213.8 67 212.9C67.4 211.7 66.9 210.4 67.6 209.3C68.3 208.3 68.9 207.3 69.6 206.2C70.2 205.2 70.3 204 71.1 203.2C72 200.7 73.3 198.3 74.3 195.8C75.2 194.8 75.3 193.5 76.2 192.5C77.9 190.6 79.2 188.4 80.2 186C80.5 185.4 80.8 184.8 81.1 184.3C81.9 182.6 82.8 180.9 83.5 179.2C84.1 177.7 84.8 176.3 86.1 175.2C87.4 174.1 88.9 172.9 89.7 171.3C90.2 170.3 91 169.4 91.8 168.6C92.3 168.1 92.7 167.7 93.1 167.2C94.5 165.4 96.1 163.8 97.6 162.1C100.4 158.8 103.6 155.9 107.1 153.4C107.4 153.2 107.8 152.9 108 152.6C110.6 149.5 114 147.1 117.4 144.9C119 143.8 120.5 142.6 121.6 140.9C122.8 139 124.5 137.6 126.6 136.7C127.1 136.5 127.6 136.4 127.9 136.1C129.5 134.6 131.6 133.7 132.9 131.9C133.1 131.6 133.5 131.5 133.6 131.2C134 130.6 134.5 130.5 135.1 130.5C136.8 130.5 138.4 129.6 140.1 129.3C141.2 129.1 142.1 128.3 143.2 127.8C145.9 126.5 148.5 125.3 151.2 124.1C152.8 123.4 154.5 122.7 156.1 122C156.8 121.1 157.8 121.1 158.8 121.1C159.3 121.1 159.9 121.2 160.2 120.8C160.7 120.3 161.3 120.2 162 120.2C162.6 120.2 163 119.9 163.5 119.6C164.3 119.1 164.9 118.5 165.8 118.2C167.5 117.7 169.2 117.1 171.1 117.2C171.7 117.2 172.3 117.1 172.9 116.7C173.8 116 175 115.8 176.2 115.8C178 115.8 179.8 115.4 181.5 115C182.6 114.7 183.7 114.3 184.9 114.4C186.5 114.4 188 114 189.4 113.4C189.9 113.2 190.3 112.9 190.8 112.9C192.8 112.9 194.7 112.1 196.7 112.3C197 112.3 197.4 112.3 197.7 112.3C199.3 111.7 200.9 112 202.6 112C204.9 112 207.2 112 209.5 112C211.1 112 212.7 111.8 214.3 111.3C215.8 110.9 217.4 110.8 218.8 111.6C219.4 111.9 220 112.1 220.7 112C223.1 112 225.5 112 227.7 112.9C231 113.4 234.3 114 237.6 114.4C240.8 114.8 244.1 115.3 247.3 116C248.1 116.2 248.9 116.3 249.7 116.4C251 116.4 252.3 116.2 253.5 117.2C253.7 117.3 254 117.3 254.2 117.4C256 117.6 257.7 118.1 259.2 119.1C259.5 119.3 260 119.4 260.4 119.4C261.1 119.4 261.9 119.4 262.6 119.4C262.9 119.4 263.4 119.4 263.5 119.6C264.1 120.3 265.1 120.3 265.8 120.9C266.8 121.6 267.9 122.5 269.2 122.5C269.5 122.5 269.8 122.8 270.1 122.9C271.1 123.4 272 124.1 273 124.2C274.8 124.4 276.3 125.1 277.7 126.1C278.2 126.5 278.8 126.8 279.3 127.2C280.2 127.8 281.1 128.5 282.1 128.7C283.3 128.9 284.3 129.4 285.3 129.9C287.6 130.9 289.9 132 291.6 133.9C292.5 134.9 293.6 135.5 294.9 135.8C295.9 136 296.7 136.5 297.5 137.1C298 137.5 298.5 137.9 299 138.4C299.9 139.3 301.1 139.7 302.3 139.8C302.6 139.8 303 139.8 303.3 139.8C304 139.8 304.5 140.3 304.9 140.8C305.3 141.5 305.8 142.2 306 142.9C306.4 144 307 144.6 308 145.2C309.2 146 310.4 146.8 311.3 148C312 149 313 149.1 314.2 149C314.9 149 315.4 148.5 315.9 148C317.7 146.3 319.4 144.6 321.1 142.9C321.3 142.7 321.4 142.5 321.5 142.3C322.7 139.9 324.6 138.1 326.5 136.3C327.7 135.2 328.9 134 329.7 132.6C330.3 131.5 331.2 130.6 332.1 129.8C333.5 128.6 334.8 127.2 336.1 125.9C337.5 124.4 338.4 122.5 339.9 121.2C340.1 121.1 340.1 120.8 340.2 120.5C340.2 119.8 340.3 119 340 118.3C339.2 116.7 338.5 115 336.8 114.1C336.2 113.8 335.6 113.2 335.1 112.7C334.3 111.9 333.4 111.5 332.5 110.9C331.7 110.3 330.7 110.2 330 109.6C329.2 108.9 328.6 108 327.8 107.4C325.7 105.6 323.7 103.7 320.8 103C319.7 102.7 318.8 102.1 318.6 100.9C318.4 100.1 317.9 99.5 317.3 99.2C315.7 98.3 314.6 96.5 312.5 96.5C312.4 96.5 312.2 96.3 312.1 96.3C310.2 95.4 308.4 94.3 306.9 92.8C306.6 92.5 306.2 92 305.8 91.9C304.6 91.7 303.7 91 302.6 90.7C301.6 90.4 300.6 89.9 299.8 89.2C297.9 87.6 295.6 87.1 293.4 86.4C292.3 86.1 291.2 85.9 290.1 85.6C289 85.3 288 85 286.9 84.5C286.5 84.3 286.1 84.1 285.6 83.9C284.2 83.2 282.9 82.1 281.1 82.4C280.8 82.4 280.5 82.4 280.2 82.3C279.8 82 279.5 81.7 279.2 81.4C278.2 80.4 277.2 79.6 275.7 79.3C274.5 79.1 273.4 78.6 272.2 78.1C271.1 77.6 270 77.4 268.8 77.5C267.2 77.5 265.7 77.2 264.3 76.5C262.5 75.7 260.7 75.1 258.6 75C256.8 75 255.1 74.2 253.4 73.6C252.7 73.4 252 73.1 251.3 73.1C250 73.1 248.7 73.1 247.4 73.1C246.9 73.1 246.3 73.1 246 72.9C245.1 72 244 72.2 243 72.1C242.4 72.1 241.5 72.1 241.1 71.8C240.1 71.1 239.1 71.2 238.1 71.1C236.7 71.1 235.3 71.1 233.9 71.1C233.4 71.1 232.9 71.1 232.5 70.7C232.1 70.2 231.5 70.2 230.9 70.2C228.8 70.2 226.6 70.2 224.5 70.2C223.9 70.2 223.4 70.2 222.9 70.7C222.1 71.3 221 71.3 220.1 70.7C219.7 70.4 219.3 70.2 218.8 70.2C218.3 70.2 217.8 70.1 217.4 69.8C216.2 69 214.9 69 213.7 69.8C213.2 70.1 212.6 70.2 212.1 70.2C210.9 70.2 209.6 70.2 208.4 70.2C207.8 70.2 207.2 70 206.6 69.7C205.5 69.1 204.1 69 203.1 69.7C202.2 70.2 201.3 70.2 200.3 70.4C199.6 70.4 198.9 70.4 198.2 70.9C197.4 71.4 196.3 71.4 195.4 70.9C195.1 70.7 194.8 70.5 194.5 70.5C192.7 70.5 190.9 70.5 189.1 70.5C188.9 70.5 188.7 70.5 188.6 70.6C187.9 71.2 187 71.3 186.1 71.4C185.7 71.4 185.3 71.6 185 71.9C184.7 72.3 184.1 72.3 183.7 72.4C182.9 72.4 182.1 72.4 181.2 72.4C180.1 72.4 178.9 72.3 177.9 73C177.6 73.3 177 73.2 176.5 73.2C175.5 73.2 174.5 73.2 173.5 73.2C172.8 73.2 172.2 73.2 171.6 73.5C169.8 74.3 167.8 74.6 165.9 75C165.2 75.2 164.5 75.4 163.8 75.7C162.5 76.3 161.2 77.2 159.7 77.1C158.3 77.1 157.1 77.4 155.9 77.9C155.2 78.2 154.5 78.4 153.8 78.6C151.7 79.1 149.5 79.7 147.5 80.6C146.5 81 145.7 81.7 144.6 81.8C143.9 82.7 142.7 82.4 142 83C141.4 83.5 140.7 83.6 140 83.7C139.7 83.7 139.3 83.7 139.1 83.9C138.4 84.6 137.6 84.5 136.8 84.5C136 84.5 135.2 84.6 134.3 84.7C133.3 86 131.9 86.8 130.5 87.4C127.9 88.4 125.3 89.4 122.8 90.6C122.4 90.8 122 90.9 121.6 91C121 91.1 120.5 91.4 120 91.7C118.6 92.4 117.4 93.4 116.2 94.3C115.2 95.1 114.2 96 112.8 96.1C111.9 96.9 110.5 96.9 109.7 97.8C109.4 98.2 108.9 98.4 108.5 98.7C107 99.6 105.8 100.8 104.6 102C103.1 103.6 101.4 105 99.1 105.4C98.6 105.4 98.2 105.7 97.8 106C97 106.6 96.3 107.2 95.6 108C94.7 109 93.6 109.9 92.3 110.4C91.6 110.7 91 111.1 90.5 111.6C89.1 113.1 87.4 114.2 85.7 115.4C85.2 115.7 84.8 116.1 84.5 116.6C84 117.5 83.2 118.1 82.3 118.6C81.9 118.8 81.5 119.2 81.2 119.5C79.5 121.3 77.7 122.9 75.8 124.4C72.1 127.3 69.2 131 65.9 134.3C65 136.1 63.5 137.5 62.6 139.4C61.7 141.2 60.5 142.9 58.4 143.5C58 143.6 57.5 144 57.3 144.4C56.3 146 55 147.3 53.9 148.8C52.5 150.8 51.4 153 49.9 154.9C49.7 155.2 49.5 155.4 49.4 155.8C49.2 156.6 48.7 157.3 48.1 157.9C47.5 158.5 46.8 159.2 46.5 160C45.9 161.6 44.7 162.7 43.7 163.9C42 165.9 40.8 168.2 40 170.7C39.9 171.2 39.6 171.6 39.4 172C38.8 173.1 38 174 37.5 175.1C36.9 176.3 36.4 177.4 35.8 178.6C35.3 179.4 35.1 180.2 35.1 181.1C35.1 181.7 35.1 182.4 34.8 183C33.7 184.9 32.7 186.8 31.5 188.6C30.7 189.7 30.1 190.8 30.2 192.2C30.2 192.9 29.9 193.5 29.6 194.1C29.1 195.2 28.7 196.4 28.1 197.5C27.7 198.3 27.7 199.3 27 199.9C26.7 201.3 25.8 202.6 25.7 204.1C25.5 205.8 24.8 207.3 24.1 208.9C23.5 210.4 22.6 211.8 22.7 213.5C22.7 213.9 22.7 214.4 22.4 214.7C21.7 215.5 21.8 216.5 21.7 217.5C21.7 218.5 21.9 219.6 20.9 220.5C20.7 220.7 20.7 221.1 20.7 221.4C20.7 222 20.7 222.6 20.7 223.1C20.6 225.1 20.1 227 18.5 228.4C17.8 229 17.6 229.7 17.3 230.5C16.9 231.8 16.8 233.1 16.8 234.4C16.8 235.4 16.9 236.4 16.7 237.3C16.4 238.5 16.4 239.7 16.3 241C16.3 241.5 16.3 242 16.2 242.5C15.8 243.5 15.9 244.4 15.9 245.4C15.9 246.3 15.8 247.2 15.6 248.1C15.3 249.3 14.9 250.6 15.3 251.9C15.6 252.8 15.3 253.7 14.9 254.5C14.6 255 14.5 255.6 14.5 256.2C14.5 259.2 14.5 262.3 14.4 265.3C14.4 266.3 14.4 267.3 15 268.2C15.4 268.8 15.5 269.4 15.4 270.1C15.4 271.7 15.4 273.4 15.3 275C15.3 275.5 15.1 276 14.9 276.4C14.3 278 14.3 279.6 14.9 281.2C15.2 282 15.4 282.8 15.4 283.6C15.4 284.1 15.4 284.7 15.5 285.1C16.3 286.6 16.3 288.2 15.8 289.8C15.8 290 15.8 290.1 15.8 290.3C15.7 292.9 16.2 295.3 16.8 297.8C16.9 298.4 17.2 298.9 17.3 299.5C17.5 301.8 18.3 303.9 19.3 306C20.1 307.8 21 309.7 20.8 311.8C20.8 312.5 20.8 313.3 21.2 314C22.8 317.1 22.8 320.6 23.7 323.9C24 324.9 24.1 325.8 24.8 326.5C26.1 327.9 26.8 329.4 26.7 331.4C26.7 332.2 26.9 332.8 27.5 333.4C28.1 334.1 28.6 334.9 28.7 335.8C28.9 338 29.8 339.9 30.7 341.8C31 342.4 31.3 343 31.2 343.7C31.2 344.6 31.6 345.2 32.1 345.9C33.3 347.5 34.2 349.2 34.1 351.3C34.1 351.9 34.1 352.4 34.7 352.8C35 353 35.2 353.4 35.4 353.8C36 354.9 36.7 355.9 37.5 356.8C38.1 357.5 38.8 358.4 38.9 359.3C39.2 361.1 40.1 362.7 40.9 364.3C41.4 365.4 42 366.5 42.8 367.4C43.5 368.2 43.9 369.2 44.5 370C44.9 370.7 45.4 371.4 46 372C47.6 373.5 48.2 375.5 49.4 377.3C49.4 378.3 50.4 378.8 50.7 379.6C51.1 380.5 51.7 381.3 52.5 381.9C52.9 382.2 53.3 382.8 53.5 383.3C53.9 384.7 54.8 385.7 55.9 386.7C56.3 387.1 56.7 387.5 56.9 388.1C57.3 388.9 57.9 389.6 58.8 389.9C59.4 390.1 59.8 390.4 60.1 390.9C60.3 391.3 60.6 391.8 60.8 392.2C61.8 393.9 62.7 395.6 64.3 396.8C66.2 398.2 67.4 400.1 69.1 401.7C69.5 402.1 69.8 402.6 70.1 403.1C70.8 404.6 71.9 405.5 73.2 406.3C74.6 407.2 76 408 76.9 409.4C77.6 410.4 78.4 411.1 79.4 411.6C80.5 412.1 81.4 412.9 81.9 414.2C82.4 415.5 83.2 416.7 84.4 417.4C85 417.7 85.4 418.2 85.9 418.6C87 419.4 88.1 420.3 89.5 420.6C90 420.6 90.4 421 90.8 421.3C91.3 421.7 91.8 422.1 92.3 422.5C93.9 423.8 95.4 425.2 96.6 426.8C97.2 427.6 97.7 427.9 98.6 428C99.4 428 100.1 428 100.9 428.6C101.5 429.1 102.2 429.5 102.6 430.2C103.1 431 103.7 431.6 104.5 432.1C106.1 433.4 107.8 434.5 109.7 435.4C110.9 435.9 112 436.6 113.2 437.2C114.1 437.7 115 438.3 116.1 438.5C116.9 438.7 117.9 439.2 118.4 439.8C119.3 440.9 120.7 441.2 121.8 442.1C123.1 442.1 123.9 443.4 125.2 443.3C125.7 443.3 126.1 443.7 126.5 444C129 445.7 131.7 447.2 134.5 448.2C136.1 448.8 137.7 449.5 139.4 449.7C140.7 449.9 142 450.3 143.1 450.9C143.9 451.4 144.7 451.6 145.7 451.6C146.3 451.6 146.7 451.8 147.3 452.1C148.8 453 150.3 454 152.3 453.6C153 453.5 153.7 453.6 154.4 454.2C155.2 454.8 156.4 454.6 157.2 455.4C157.5 455.7 158.4 455.4 158.8 455.8C160.1 456.7 161.6 456.7 163.1 456.6C164.8 456.6 166.3 457 167.7 458C168.8 458.8 169.8 459.1 171.1 458.7C172.3 458.3 173.5 458.4 174.7 459.1C176.9 460.5 179.4 460.9 182 460.9C183.1 460.9 184.1 460.9 185.2 460.9C186 460.9 186.8 461 187.6 461.4C189.9 462.5 192.4 463 195 463C196.3 463 197.6 463 198.9 463C199.5 463 200.1 463 200.6 463.1C201.7 463.4 202.7 463.3 203.7 463.1C205.5 462.8 207.3 462.6 209 463.4C210.2 464 211.3 463.8 212.5 463.4C214.1 462.7 215.8 462.8 217.5 463.4C219.6 464.3 221.9 464.1 224 463.6C224.9 463.4 225.9 463 226.9 462.9C227.3 462.9 227.7 462.8 228.1 462.5C228.8 462 229.6 461.9 230.4 461.9C232 461.9 233.7 461.9 235.3 461.9C236 461.9 236.7 461.9 237.2 461.7C238.7 461.1 240.4 460.9 242 460.7C244.1 460.4 246.2 459.9 248.3 460C250 460 251.8 460 253.4 459.4C255.2 458.7 257.2 458.3 259 457.7C259.7 457.5 260.5 457.4 261.1 457.1C262 456.7 263 456.5 264 456.6C265.7 456.8 267.2 456.1 268.6 455.2C269.1 454.9 269.5 454.5 270.1 454.6C271.7 454.7 272.9 453.9 274.1 453.1C274.9 452.6 276 452.6 276.6 451.7C278.5 451.5 280.2 450.5 282.1 450.7C283.5 450.7 284.7 450.3 285.7 449.5C286.9 448.6 288.1 447.8 289.7 447.6C290 447.6 290.3 447.4 290.6 447.2C292 446.2 293.7 445.8 295 444.5C295.2 444.3 295.4 444.2 295.7 444.2C297 444 298.1 443 299.5 443.1C299.8 443.1 300 442.8 300.3 442.7C301.6 442.2 302.6 441.2 304.1 441.2C304.6 441.2 305 441 305.4 440.6C305.8 440.1 306.4 439.7 306.9 439.4C308.2 438.5 309.5 437.4 311.2 437.3C311.6 437.3 312 437.1 312.3 436.9C313.9 436.1 315.5 435.2 317.1 434.4C319 433.4 320.8 432.3 322.3 430.7C324.2 428.7 326.2 426.8 328.4 425.1C329.5 424.2 330.7 423.3 332.1 422.7C333.5 422 334.8 421.1 335.8 419.9C336.7 418.8 337.7 417.9 338.9 417.2C339.7 416.7 340.5 416.1 341.1 415.4C341.7 414.8 342.3 414.3 343.1 414C344.4 413.3 345.5 412.4 346.5 411.3C347.5 410.2 348.6 409.2 349.8 408.3C351.2 407.2 352.7 406.2 353.7 404.6C354.6 403.1 355.8 401.9 356.9 400.6C358.2 399.2 359.5 397.7 360.8 396.2C361.8 395 362.8 393.8 363.9 392.8C365 391.8 366 390.7 366.7 389.5C367.5 388.2 368.5 387 369.4 385.8C370.1 385 370.7 384.2 371 383.1C371.2 382.3 371.7 381.6 372.2 380.9C373.3 379.3 374.5 377.8 375.7 376.2C376 375.8 376.3 375.4 376.3 374.9C376.3 373.9 377 373.2 377.6 372.6C379 371.3 379.6 369.6 380.1 367.9C380.5 366.6 381.1 365.9 382.4 365.4C383.7 364.9 384.7 364 385.3 362.6C386.3 360.3 387.5 358 388.6 355.8C388.6 355.8 388.6 355.6 388.7 355.6C389.8 354.4 390.2 352.9 390.5 351.4C390.8 350 391.4 348.9 392.1 347.9C392.9 346.8 393.7 345.7 393.8 344.2C394.8 342.7 394.5 341 394.5 339.4C394.5 338.9 394.5 338.4 394.6 338C395.3 337.3 396.1 336.7 396.4 335.9C396.8 334.7 397.6 333.8 397.6 332.5C397.6 332 397.9 331.4 398.1 330.9C398.5 330.2 398.8 329.4 399.3 328.8C400 327.8 400.3 326.7 400.5 325.6C400.8 323.8 401.1 322.1 401.5 320.3C401.7 319.3 402 318.2 402 317.2C402 316.5 402.2 315.9 402.7 315.4C403 315.1 403.2 314.8 403.4 314.4C404.2 313.2 405 312 404.9 310.4C404.9 309.6 404.8 308.7 405.2 308C405.9 306.8 405.8 305.5 405.8 304.2C405.8 303.1 405.8 301.9 405.8 300.8C405.8 300.4 405.8 299.9 406 299.6C406.9 298.3 406.8 296.8 406.8 295.3C406.8 294.8 406.8 294.3 407.2 293.9C407.8 293.4 407.8 292.7 407.8 292.1C407.8 290.5 407.8 289 407.8 287.4C407.8 285.9 407.8 284.4 408.3 283C408.7 281.8 408.9 280.6 408.5 279.4C408.4 279 408.5 278.6 408.5 278.2C408.8 275.8 409.1 273.3 408 271C407.6 270.1 407.4 268.9 408.3 268C408.8 266.4 409.4 264.9 409 263.2C408.8 262.1 408.8 261.1 408.7 260C408.7 257.2 408.7 254.4 408.6 251.6C408.6 250.1 408.6 248.6 407.9 247.3C407.7 247 407.8 246.5 407.7 246.1C407.4 243.8 407.1 241.6 406.7 239.3C406.5 237.9 406.2 236.6 406.1 235.2C406 233.7 405.9 232.2 405.6 230.8C405.3 229.4 404.6 228 404.5 226.5C404.5 226.3 404.2 226.1 404.1 225.9C403.5 224.5 402.8 223.1 403.5 221.4C403.7 220.8 403.7 220.1 403.3 219.5C402.8 218.6 402.7 217.6 402.7 216.6C402.7 215.8 402.6 215 402.2 214.2C402 213.7 401.8 213.1 401.7 212.6C401.6 212.1 401.5 211.7 401.1 211.3C400.6 210.6 400.1 209.8 399.7 209C399.5 208.5 399.2 207.9 399.2 207.4C399.2 206.4 398.9 205.5 398.5 204.6C398.1 203.7 397.9 202.7 397.6 201.8C397 200.2 396.2 198.7 395.9 197C395.4 194.3 394.5 191.8 393.2 189.4C392.9 188.8 392.5 188.3 392.4 187.7C392.2 186.8 391.8 186.2 391.3 185.5C390.7 184.8 390.4 184 390.1 183.2C389.7 182.1 389.5 181 389 179.9C387.9 177.3 386.6 174.9 385.5 172.3C384.5 170 383 167.9 381.1 166.2C380.1 165.4 379.2 164.4 378.9 163.1C378.8 162.6 378.4 162.1 378 161.7C377.3 161 376.8 160.1 376.4 159.3C375.8 158 375 156.9 373.8 156.1C373.3 155.8 372.9 155.4 372.7 154.8C372.2 153.2 371.1 152 370 150.8C369.5 150.3 369 149.9 368.8 149.3C368.1 147.6 366.8 146.5 365.6 145.3C365.2 144.9 364.8 144.5 364.4 144.1C363.8 143.7 363.5 143.1 363.4 142.5C363.2 141 362.4 139.9 361.6 138.8C361 137.9 360.3 137.1 359.7 136.2C359 135.2 358.1 134.6 357.3 133.9C356.5 133.1 355.7 132.3 354.8 131.6C353.3 130.3 351.5 130.3 350.3 131.7C349.6 132.5 348.8 133.2 348 133.8C346.7 134.8 345.6 135.9 345 137.5C344.5 138.8 343.8 140 342.2 140.3C341.8 140.3 341.5 140.7 341.1 140.8C340.7 141 340.3 141.3 340.2 141.9C340.2 142.1 340.2 142.4 340 142.6C338.3 145.2 336 147.3 333.9 149.5C333.7 149.7 333.3 149.8 333.1 150C332.5 150.3 332.1 150.8 331.7 151.3C330 153.5 328.4 155.7 326.2 157.5C326.2 157.5 326.1 157.6 326 157.7C324.6 159.2 324.6 161 326 162.4C326.7 163.1 327.5 163.7 327.9 164.6C329.1 167.1 331.5 168.5 333.3 170.4C334.2 170.6 334.5 171.4 334.9 172.1C335.5 173.2 335.8 174.5 336.6 175.6C338.1 177.8 339.5 180.2 340.8 182.5C341.3 183.4 342 183.8 342.8 183.9L343.2 183.3ZM316.1 170.9C315.1 170.9 314.1 170.5 313.4 171.1C312.2 172 310.8 172.6 310 173.8C309.6 174.4 309 174.8 308.4 175.3C307 176.8 305.5 178.2 304.1 179.6C303.6 180 303.3 180.6 302.9 181.2C302.7 181.5 302.6 181.8 302.3 182C300.4 183.2 299.1 184.9 297.6 186.5C297.1 187 296.6 187.6 296 188C294 189.5 292.4 191.3 291.2 193.5C290.5 194.9 289.6 196.1 288.1 196.9C286.4 197.8 285.6 199.7 284.3 201C283.9 201.4 284 202 284.3 202.4C285 203.3 285.7 204.2 286.6 204.9C287.5 205.6 288.2 206.5 288.6 207.6C288.9 208.4 289.4 209 289.9 209.6C290.8 210.6 291.7 211.7 292.6 212.8C293.5 213.9 294.4 215 294.3 216.5C294.3 217.2 294.6 217.8 295.1 218.3C295.5 218.8 295.9 219.3 296.4 219.8C297 220.3 297.2 220.9 297.5 221.6C298.1 223.2 298.4 224.9 299.4 226.3C300 227.1 300.3 228 300.3 229.1C300.3 229.7 300.5 230.2 300.7 230.8C301.6 232.7 302.4 234.5 303.9 236C305 237 305.8 238.2 305.7 239.9C305.7 240.4 305.9 240.9 306.1 241.3C306.5 242.1 306.6 242.9 306.6 243.7C306.6 244.7 306.6 245.7 307.2 246.5C307.6 247.2 307.5 248.1 307.7 248.9C307.9 249.7 308.3 250.4 308.5 251.2V251.4C308.5 253.2 309 254.9 308.6 256.8C308.4 257.8 308.6 258.8 308.6 259.7C308.6 260.1 308.6 260.6 308.8 260.9C309.8 262.2 309.6 263.7 309.5 265.1C309.5 265.5 309.5 266 309.2 266.3C308.3 267.2 308.5 268.3 308.5 269.3C308.5 272.2 308.5 275 308.5 277.9C308.5 278.6 308.5 279.4 308.1 280.1C307.6 281 307.5 282 307.5 283C307.5 284.1 307.5 285.3 307.5 286.4C307.5 286.9 307.5 287.4 307.2 287.8C306.2 289.4 305.7 291.2 305 292.9C304.8 293.4 304.7 294 304.6 294.6C304.6 294.8 304.6 295.1 304.6 295.3C304.8 297 304.3 298.4 303.2 299.5C303 299.7 302.7 300 302.7 300.3C302.5 301.7 301.6 302.9 301.1 304.1C300.4 305.6 299.6 307 299.1 308.6C298.8 309.6 298.4 310.6 297.8 311.4C296.6 313 295.7 314.9 294.3 316.3C294 316.6 293.6 316.9 293.4 317.4C292.8 319 291.9 320.4 290.7 321.7C289.9 322.5 289.2 323.5 288.9 324.6C288.3 327 286.2 328.3 284.8 330C283.7 330.5 283 331.4 282.3 332.2C280.7 333.9 279.5 336 277.4 337.3C277 337.6 276.7 338 276.4 338.4C276 339 275.6 339.4 274.8 339.5C274.4 339.5 274 339.8 273.7 340C272 341.4 270.2 342.7 269.2 344.7C268.4 346.2 267.2 347.1 265.8 347.7C264.7 348.1 263.6 348.5 262.6 348.9C261.7 349.3 260.8 349.7 260.1 350.4C259.4 351.1 258.5 351.5 257.6 351.9C256.3 352.4 254.9 352.5 253.8 353.6C252.8 353.6 252.2 354.8 251.1 354.7C249.5 354.5 248.4 355.7 247 356C246.6 356.8 245.5 356.5 244.9 357.2C244.3 357.9 243.4 357.6 242.6 357.8C242.2 357.9 241.8 358.1 241.4 358.2C240.9 358.3 240.5 358.6 240 358.6C238.2 358.6 236.5 359.1 234.8 359.7C232.9 360.4 230.9 360.9 228.9 361.2C227.6 361.4 226.3 361.6 225.2 362.3C224.2 362.9 223.1 363.1 221.9 363.1C219.4 363.1 217 363.1 214.5 363.1C213.3 363.1 212.2 363.1 211.1 362.5C210.7 362.3 210.2 362.2 209.7 362.2C207.1 362 204.5 361.4 201.9 361.6C201.7 361.6 201.4 361.6 201.2 361.6C199.8 361.1 198.3 361.2 196.8 361.2C195.4 361.2 194 361.2 192.6 361.2C191.7 361.2 190.8 361 190 360.6C188.7 360 187.4 359.2 185.9 358.9C183.4 358.3 181.1 356.8 178.4 356.7C178.3 356.7 178.1 356.6 178 356.5C177.5 355.9 176.9 356 176.2 355.9C175.6 355.9 174.7 355.9 174.3 355.6C173.5 355 172.6 354.9 171.8 355C170.8 355 170.1 354.5 169.4 353.9C168.5 353 167.4 352.3 166.2 351.7C165.1 351.1 163.8 350.9 163 350C162.1 349 160.7 348.7 159.8 347.8C158.3 346.5 156.6 345.3 155.2 343.8C153.4 341.6 151.3 339.6 148.5 338.6C148.1 338.5 147.7 338.3 147.5 337.9C146.2 336.1 144.3 334.9 143.2 333C142.2 331.3 140.9 329.9 139.1 329C137.8 328.3 136.6 327.3 135.3 326.4C134.6 325.9 134.2 325.3 134 324.4C133.6 323.1 133 321.8 132.1 320.7C131.2 319.7 130.6 318.6 130 317.4C128.8 315.1 127.6 312.8 126.4 310.4C125.6 308.9 124.5 307.6 124.4 305.8C123.5 303.8 122.8 301.7 122.6 299.5C122.6 299.3 122.6 299 122.3 298.8C121.5 298.1 121.8 297 121.1 296.2C120.4 295.4 120.3 294.2 120 293.3C119.4 291.4 118.5 289.5 118.7 287.3C118.7 286.8 118.7 286.2 118.5 285.9C117.9 285 117.9 283.9 117.4 282.9C116.8 281.8 116.7 280.7 116.8 279.6C116.8 278.7 116.8 277.8 116.8 276.9C116.8 276.3 116.8 275.7 116.5 275.2C116 274.1 115.9 273 115.6 271.9C115.4 271 115.3 270.1 115.8 269.3C116.3 268.5 116.4 267.6 116.4 266.7C116.4 263.4 116.5 260.1 116.4 256.9C116.4 254.3 116.9 251.9 117.7 249.5C117.8 249.2 117.8 248.8 118 248.6C118.9 247.9 118.8 246.9 118.8 245.9C118.8 245.1 118.6 244.2 119.1 243.5C119.8 242.4 119.7 241.3 119.8 240.2C119.8 239.3 119.7 238.3 120.1 237.5C120.5 236.8 120.7 236 120.8 235.2C120.8 234.8 121.1 234.5 121.3 234.1C121.9 233.1 122.6 232.1 122.6 231C122.6 229.8 123.1 228.8 123.8 227.9C124.3 227.2 124.9 226.4 125.3 225.7C125.8 224.9 126.4 224 126.6 223.1C126.9 222 127.4 220.9 127.8 219.9C128.1 219.2 128.4 218.6 128.6 217.8C129.1 215.9 130.1 214.4 131.6 213.2C132.6 212.4 133.6 211.5 134.5 210.6C135.7 209.5 136.8 208.3 137.5 206.8C138.1 205.6 138.9 204.6 139.9 203.8C141 202.9 141.9 201.9 142.4 200.6C142.6 200.2 142.9 199.8 143.3 199.4C144.6 198.3 145.8 197.1 147.3 196.3C148 195.9 148.7 195.4 149.2 194.8C150.5 193.1 152.6 192.2 153.8 190.5C154.6 190.1 155.2 189.4 156.1 189.2C157.3 188.9 158.3 188.1 159.1 187.1C159.9 186 161.1 185.3 162.3 185C163.5 184.7 164.1 184 164.7 183.1C165.2 182.4 165.3 181.6 166.2 180.9C167 180.9 168 180.7 168.9 180.3C169.9 179.8 171 179.4 172.1 179.1C174.1 178.4 176 177.3 178 176.7C178.7 176 179.6 176 180.5 176C181.1 176 181.7 176 182.2 176C183.5 175.7 185 175.8 186 174.6C186.8 173.7 187.7 173.4 188.9 173.5C189.4 173.5 189.9 173.5 190.4 173.5C191.5 173.6 192.6 173.2 193.3 172.4C194.1 171.5 195.3 171.5 196.2 170.7C196.5 170.4 197.2 170.5 197.6 170.9C197.9 171.2 198.2 171.5 198.7 171.4C200.4 171.2 202.1 172 203.7 170.7C203.9 170.5 204.3 170.5 204.7 170.5C205.5 170.5 206.3 170.5 207.2 170.5C208 170.5 208.8 170.5 209.5 171C210.2 171.5 211.3 171.5 212.1 171C212.5 170.7 212.9 170.5 213.4 170.5C215.4 170.5 217.3 170.5 219.3 170.5C219.6 170.5 220 170.5 220.2 170.7C221 171.5 222 171.3 223 171.3C225.2 171.3 227.4 171.3 229.7 171.3C230.6 171.3 231.4 171.3 232.2 172C232.9 172.6 233.9 173.1 234.8 173.2C236.7 173.4 238.4 174.5 240.3 174.6C241.5 175.3 242.8 175.3 244.1 175.3C244.9 175.3 245.8 175.3 246.5 175.7C247.8 176.6 249.4 176.9 250.9 177.2C251.7 177.4 252.6 177.5 253.2 178.1C254.8 179.6 256.9 180.5 258.3 182.3C258.8 182.9 259.7 183.4 260.5 183.7C261.5 184.1 262.4 184.9 263.7 184.8C264.9 185.6 266.3 186.2 267 187.7C267.3 188.3 267.6 188.7 268.1 189C269.4 189.9 270.6 190.8 271.9 191.7C272.2 191.9 272.5 192 272.8 192.1C273.9 192.2 274.9 192.1 275.7 191.2C277.4 189.5 279 187.5 280.9 186C282 185.1 282.6 183.8 283.2 182.6C283.4 182.1 283.3 181.4 283.8 180.9C285.5 180.2 286.9 179 288.1 177.5C288.7 176.7 289.5 176.1 290.2 175.5C292.1 174 293.4 172 294.6 170C296 167.8 296.1 167.5 298 166.4C299.2 165.7 300.1 164.9 300.7 163.6C301.1 162.8 301.5 162 302.1 161.3C302.8 160.4 302.8 159.8 302.1 158.9C301.6 158.2 301 157.6 300.2 157.1C299.1 156.5 297.9 156.2 297.1 155.2C295 152.8 292.3 151.3 289.7 149.7C288.5 148.9 287.2 148.2 286.2 147.1C285.6 146.5 284.9 145.9 284 145.6C283.3 145.4 282.7 144.7 281.8 144.6C280.9 143.7 279.6 143.7 278.7 142.7C277.5 141.3 275.8 140.6 274.3 139.7C272.4 138.7 270.5 137.5 268.2 137.1C267.3 136.9 266.5 136.6 265.7 136.2C265 135.8 264.4 135.3 263.7 134.9C262.8 134.4 261.9 133.9 260.9 133.5C260.2 133.3 259.4 133.3 258.7 133.3C257.9 133.3 257.5 132.4 256.7 132.5C256.5 132.5 256.2 132.5 256 132.5C255.7 132.5 255.3 132.5 255.1 132.2C254.4 131.4 253.5 131.5 252.6 131.5C251.5 131.5 250.5 131.3 249.5 130.9C248 130.3 246.4 129.8 244.7 130.4C244.1 130.6 243.2 130.7 242.6 130.1C241.4 129.1 240 128.9 238.5 129C237.5 129 236.6 129 235.6 128.6C233.6 128 231.7 127.4 229.6 127.5C229.2 127.5 228.8 127.5 228.4 127.3C227.2 126.9 226 126.9 224.8 127.3C224.1 127.5 223.5 127.4 222.9 127.3C220.8 127 218.7 126.4 216.6 126.5C214.1 126.5 211.7 126.5 209.2 126.5C208.5 126.5 207.7 126.5 207 126.4C204.9 125.8 202.9 126 201 126.8C198.4 127.8 195.7 127.9 193 128C191.1 128.1 189.3 128.7 187.4 128.7C187.2 128.7 187.1 128.7 186.9 128.9C185.6 129.7 184.2 129.6 182.8 129.7C182.2 129.7 181.7 129.7 181.1 129.9C179.6 130.1 178 130.5 176.5 130.6C175.1 130.6 173.9 131.1 172.8 131.8C171.9 132.4 171.1 132.7 170.1 132.8C169.3 133.6 168.2 133.5 167.1 133.6C166.4 133.6 165.6 133.6 165.1 134.2C165 134.4 164.7 134.4 164.4 134.5C163.6 134.7 162.8 134.5 162.1 135.2C161.5 135.9 160.4 135.6 159.7 136.2C158.9 136.8 157.8 137.2 156.8 137.4C155.2 137.8 153.9 138.6 152.9 139.7C152.1 140.5 151.2 141.3 150.1 141.7C149.2 142.1 148.6 142.7 147.9 143.2C147.3 143.6 146.8 144.2 146.3 144.7C145.5 145.4 144.7 146 143.5 145.9C143.2 145.9 142.7 145.9 142.6 146C141.7 146.8 140.6 146.6 139.6 146.7C139 146.7 138.6 147 138.1 147.3C136.1 148.8 133.7 149.8 132.2 152C132.1 152.2 131.8 152.4 131.6 152.5C130.6 153.1 129.9 153.9 129.1 154.8C127.9 156.3 126.2 157.3 124.5 157.9C123.1 158.4 122 159.2 120.9 160.2C120.3 160.8 119.7 161.3 119.1 161.9C118.1 162.8 117 163.6 116.6 164.8C116.1 166.2 115.1 166.8 114 167.2C112.1 167.9 111 169.5 110.1 171C109.2 172.6 108.1 174 106.7 175.1C104.9 176.4 103.5 178 102.4 180C101.7 181.3 101.2 182.8 99.8 183.7C99 184.2 98.4 185 97.8 185.8C96.4 187.8 95.4 190.1 93.7 191.9C93.4 193.1 92.5 193.9 91.8 194.7C91 195.6 90.5 196.5 90.2 197.7C90.1 198.2 89.9 198.6 89.5 199C88.4 200.4 87.4 201.9 86.4 203.3C85.5 204.6 85 205.9 85.2 207.4C85.3 208.7 84.8 209.8 84.1 210.8C83.8 211.3 83.3 211.6 82.9 212C82 213.2 81.1 214.4 81.3 216C81.4 217.5 81.1 218.7 80.3 220C79.7 220.9 79.3 221.9 79.3 223C79.4 224.6 78.9 226 78.3 227.5C77.7 229.2 76.8 230.7 76.2 232.4C76 233.2 75.9 234.1 75.4 234.7C74.8 235.6 74.8 236.5 74.7 237.5C74.7 238.4 74.7 239.3 74.7 240.2C74.7 240.8 74.7 241.4 74.5 241.9C73.9 243 73.8 244.3 73.3 245.4C72.9 246.2 72.8 247.1 72.8 248C72.8 251.2 72.8 254.4 72.8 257.6C72.8 258.6 72.8 259.6 72.2 260.4C72 260.7 72 261.2 71.9 261.6C71.5 265.9 72.3 270.1 72.3 274.4C72.3 274.6 72.3 274.7 72.3 274.9C72.8 276.6 72.7 278.3 72.7 280C72.7 281.3 72.7 282.6 72.7 283.9C72.7 284.6 72.8 285.2 73.2 285.8C73.8 287 73.8 288.5 74.6 289.7C74.8 289.9 74.7 290.3 74.7 290.7C74.7 291.4 74.7 292 74.7 292.7C74.5 295.3 75.2 297.7 76.3 300C76.9 301.2 77.3 302.6 77.5 304C77.7 305.5 78.2 307 78.1 308.6C78.1 309.1 78.3 309.5 78.5 310C78.7 310.5 78.9 310.9 79 311.4C79.3 313.4 80.4 315.1 80.8 317C80.8 317.5 81.2 317.9 81.6 318.2C82.3 319 82.9 319.9 83 321C83 322.2 83.2 323.4 84 324.5C84.5 326.8 85.7 328.7 87.4 330.3C87.8 330.7 88 331.2 88.2 331.8C88.7 333.3 89.2 334.7 90.1 336C90.4 336.5 90.8 336.9 91 337.5C91.4 338.8 92.3 339.8 93.4 340.5C94.6 341.2 95.3 342.4 95.4 343.7C95.4 345.1 96.1 346.2 96.6 347.4C97.2 348.6 98.1 349.7 98.7 351C98.9 351.5 99.5 352 99.9 352.1C101.7 352.5 102.4 353.8 103.1 355.2C103.7 356.5 104.6 357.5 105.7 358.4C106.5 359 107.3 359.6 107.7 360.6C108.4 362.2 109.7 363.4 111 364.5C112.8 366 114.5 367.6 116.3 369.1C117.9 370.4 119.2 372 121.2 372.8C121.5 372.9 121.8 373.1 122 373.4C122.7 374.6 123.9 375.2 124.9 376C125.4 376.4 125.9 376.9 126.2 377.5C126.6 378.1 127.1 378.7 127.5 379.3C127.7 379.6 127.9 379.9 128.2 379.9C129 379.9 129.5 380.7 130.1 380.8C131.2 381 131.7 381.8 132.6 382.3C133.5 382.8 134.4 383.4 134.9 384.4C135.1 384.8 135.6 385.1 136 385.3C137.1 385.8 138 386.7 138.9 387.5C139.5 388.1 140.2 388.6 140.9 388.9C142.8 389.5 144.2 391.3 146.4 391.4C146.4 391.4 146.6 391.4 146.6 391.5C147 392.1 147.7 392.1 148.4 392.2C148.8 392.2 149.3 392.2 149.6 392.5C150.8 393.3 152.2 393.8 153.3 394.7C154.3 395.5 155.5 396 156.9 396.2C158.5 396.5 160.1 397 161.6 397.6C163.3 398.3 164.8 399.3 166.4 400.1C167.8 400.8 169.1 401.7 170.7 401.6C171.3 401.6 171.8 401.8 172.3 402.1C174 403 175.8 403.8 177.8 403.6C178.4 403.6 179 403.6 179.5 403.6C179.9 403.6 180.4 403.6 180.6 403.9C181.1 404.4 181.8 404.4 182.4 404.5C182.8 404.5 183.3 404.5 183.6 404.8C184.2 405.4 184.9 405.3 185.6 405.4C186.2 405.4 187 405.4 187.5 405.8C188.1 406.4 188.8 406.4 189.5 406.4C191.6 406.4 193.8 406.4 195.9 406.4C196.7 406.4 197.6 406.4 198.3 406.8C199.2 407.3 200.2 407.3 201.2 407.3C202.8 407.3 204.3 407.3 205.8 407.7C206.7 408 207.8 407.9 208.7 407.4C209.1 407.2 209.4 407.1 209.8 406.9C210.7 406.4 211.6 406.3 212.6 406.8C213 407 213.5 407.3 214 407.3C216.1 407.3 218.2 407.6 220.4 407.8C220.8 407.8 221.3 407.9 221.6 407.8C223.5 407.1 225.7 407.8 227.5 406.5C227.8 406.3 228.3 406.4 228.7 406.3C229.4 406.3 230 406.3 230.7 406.3C231.1 406.3 231.6 406.3 231.8 406C232.3 405.4 233 405.4 233.6 405.4C234.8 405.4 236.1 405.4 237.3 405.4C237.7 405.4 238.2 405.4 238.5 405.2C239.5 404.3 240.6 404.5 241.7 404.5C242.4 404.5 243 404.5 243.7 404.5C244.4 404.5 244.9 404.3 245.5 403.8C246.2 403.2 247.2 402.7 248.1 402.6C250.1 402.4 252 401.8 253.9 401.5C254.6 401.4 255.1 401.2 255.7 400.8C256.9 400 258.2 399.3 259.8 399.4C260.8 399.4 261.9 399.2 263 398.9C264.8 398.5 266.7 398.1 268.3 397.1C269.7 396.3 271.2 395.6 272.8 395.1C275 394.4 277 393.3 278.7 391.8C280 390.6 282.1 389.5 283.7 389C284.3 388.8 284.9 388.5 285.5 388.2C286.8 387.5 288 386.7 289.2 385.9C290.4 385.1 291.6 384.2 292.5 383C292.9 382.5 293.3 382 293.7 381.4C293.9 381.1 294.1 380.9 294.4 380.8C296.7 379.8 298.6 378.4 300.1 376.4C300.8 375.4 301.6 374.7 302.8 374.4C303.8 374.2 304.5 373.5 305.1 372.8C306.5 371.2 308.2 369.7 309.7 368.1C310.1 367.6 310.6 367.4 311.2 367.4C312.3 367.4 312.8 366.4 313.7 366.1C315.1 364.2 317 362.6 318 360.5C318.9 358.7 320.4 357.5 321.8 356.2C322.1 355.9 322.5 355.8 322.7 355.5C323.8 353.9 325.2 352.5 326.1 350.8C326.4 350.3 326.8 349.9 327.2 349.5C328.1 348.6 329 347.5 329.4 346.3C329.8 345 330.9 343.9 330.6 342.4C331.9 341.1 332.8 339.7 333.9 338.4C335.1 337 335.6 335.2 336.3 333.6C337.5 330.8 338.8 328.1 340.4 325.5C340.7 325 340.9 324.5 340.9 323.9C340.9 322.8 341.5 321.9 342.3 321.4C343.3 320.6 344 319.7 344.8 318.6C344.8 317.7 344.8 316.7 344.8 315.7C344.8 315.3 344.8 314.9 345.1 314.5C346.1 313 346.7 311.4 346.9 309.5C346.9 309.1 347.2 308.8 347.4 308.4C348.1 306.8 349 305.2 348.8 303.3C348.8 302.7 349.1 302 349.2 301.4C349.4 300.8 349.6 300.1 349.7 299.5C350 297.1 350.4 294.8 351 292.5C351.3 291.2 351.2 289.7 352.1 288.5C352.3 288.2 352.2 287.7 352.2 287.3C352.2 286.4 352.2 285.5 352.2 284.6C352.2 284.1 352.2 283.6 352.5 283.2C353.2 281.9 353.2 280.5 353.2 279.1C353.2 277.7 353.2 276.3 353.2 274.9C353.2 273.8 353.2 272.6 353.6 271.5C353.9 270.4 353.9 269.2 353.6 268.1C353.3 267.1 353.2 266 353.2 264.9C353.2 263.1 353.2 261.3 353.2 259.5C353.2 257.5 353.2 255.6 352.7 253.6C352.3 252.3 352.2 251 352.2 249.7C352.2 247.9 352.2 246.1 352.2 244.3C352.2 243.6 352.2 242.9 352 242.4C351.3 240.8 351.1 239.1 350.7 237.4C350 234.5 349.1 231.7 348.7 228.8C348.7 228.6 348.6 228.3 348.4 228.1C347.4 226.8 346.7 225.3 346.6 223.7C346.6 223.5 346.5 223.4 346.4 223.3C345.9 222.5 345.8 221.6 345.9 220.7C345.9 219.7 345.8 218.8 345.2 217.9C344.9 217.4 344.9 216.8 344.7 216.3C344.3 215.1 343.8 214.1 342.6 213.4C341.7 212.9 341.1 212.1 340.7 211C340.3 209.7 339.7 208.4 339.7 207C339.7 206.5 339.4 206.1 339.2 205.6C338.7 204.7 338.2 203.7 337.5 202.9C337.1 202.4 336.7 201.8 336.5 201.2C336 199.9 335.3 198.7 334.5 197.6C333.7 196.6 333 195.5 332.5 194.3C332 193.2 331.5 192.1 330.8 191.1C330.1 190.1 329.5 189 328.8 188.1C328.1 187.2 327.3 186.4 326.5 185.5C325.8 184.7 325.2 183.8 325 182.7C324.8 181.7 324.4 180.6 324 179.7C323.6 178.8 323 178 322.1 177.5C320.5 176.6 319.3 175.3 318.1 173.9C317.5 173.1 316.9 172.4 316.2 171.4L316.1 170.9ZM273.2 212.2C272 212.6 271.4 213.3 270.8 214.1C269.7 215.6 268.3 216.9 267 218.2C266.3 218.9 265.4 219.6 264.8 220.5C263.3 222.8 261.2 224.5 259.2 226.3C258.4 227 257.7 227.7 257.2 228.7C256.6 229.8 255.9 230.9 254.7 231.3C253.4 231.8 252.7 232.6 252.1 233.7C251.7 234.5 251.2 235.2 250.4 235.7C250.1 235.9 249.9 236.2 249.7 236.4C249 237.2 249 237.5 249.5 238.6C250.2 240 251.3 241.2 251.7 242.7C252.2 244.3 252.8 245.9 254 247.2C254.2 247.4 254.3 247.8 254.4 248.1C255.1 249.6 255.6 251.2 256.4 252.5C257.3 253.9 257.8 255.2 257.8 256.8C257.8 257.8 258.3 258.7 258.5 259.7C259.8 261.1 259.6 262.8 259.1 264.3C258.5 265.8 258.4 267.3 258.4 268.9C258.4 270.4 258.6 271.9 257.6 273.2C257.4 273.4 257.4 273.8 257.4 274.2C257.3 275.3 256.8 276.4 256.8 277.6C256.8 278.3 256.5 279.1 256.2 279.7C255.8 280.6 255.5 281.5 255.1 282.4C254.7 283.3 254.3 284.2 254.2 285.2C254.2 285.4 254 285.6 253.9 285.9C253.1 287.6 251.9 289.1 251.7 291C251.7 291.2 251.5 291.5 251.4 291.6C249.6 293.3 248.8 295.9 246.5 297.3C246.2 297.5 246 297.9 245.8 298.3C245.1 299.3 244.4 300.3 243.2 300.7C242.5 301 241.9 301.4 241.1 301.9C240.7 302.7 240.3 303.7 239.7 304.6C239.2 305.5 238.5 306.4 237.2 306.3C236.4 306.3 235.7 306.4 235.2 307.1C234.2 307.1 233.5 308 232.6 308.4C231.6 308.9 230.6 309.1 229.7 309.6C228.8 310.1 227.8 310.5 226.8 311C225.5 311.7 224.2 311.9 222.8 311.8C221.6 311.8 220.3 311.8 219.2 312.2C218 312.6 216.8 312.8 215.6 312.8C215 312.8 214.5 313 213.9 313.2C212.2 313.8 210.4 313.8 208.6 313.8C207.9 313.8 207.3 313.7 206.7 313.3C204.5 312.1 202.1 311.7 199.6 311.8C198.1 311.8 196.9 311.4 195.9 310.3C195 309.4 193.9 308.9 192.9 308.3C192 307.8 190.9 307.5 190 307C188.5 306.2 187.1 305.3 185.8 304.2C184.9 303.5 184.3 302.5 183.5 301.6C182.8 300.7 181.9 300 180.9 299.4C179.8 298.7 178.8 297.9 178 296.8C177.4 296 176.8 295.3 175.8 294.9C175 294.6 174.4 294 174.2 293.2C173.9 292.1 173.2 291.3 172.5 290.6C171.2 289.2 170.3 287.6 170.2 285.6C170.2 285.2 170 284.8 169.8 284.5C169 283.3 168.4 282 167.9 280.6C166.9 278 166.2 275.3 166.2 272.5C166.2 271.5 166.2 270.5 166 269.6C165.5 267.1 165.6 264.7 166 262.3C166.4 260 166.9 257.6 167.4 255.3C167.6 254.3 167.7 253.3 168.3 252.5C169 251.4 169.3 250.3 169.2 249C169.2 248.3 169.4 247.7 169.8 247.2C170.2 246.6 170.3 245.9 170.9 245.4C171.4 244.9 171.8 244.2 171.9 243.5C172.1 242.4 172.7 241.6 173.5 240.8C175 239.2 176.6 237.7 177.6 235.7C178 234.9 178.6 234.1 179.3 233.7C180.4 233.1 181.2 232.1 182 231.3C182.7 230.6 183.5 230 184.3 229.6C186.1 228.5 187.9 227.5 189.8 226.5C192.1 225.4 194.3 224.2 196.7 223.3C197.9 222.9 198.9 222.4 199.9 221.6C201 220.7 202.3 220 203.9 220.1C206.8 220.2 209.6 220.1 212.5 220.1C214.5 220.1 216.4 220.1 218.4 220.1C218.9 220.1 219.5 220.1 219.8 220.4C220.6 221.2 221.6 221.1 222.6 221.1C223.3 221.1 223.8 221.4 224.4 221.7C226.2 222.7 228 223.7 229.9 224.3C231.4 224.8 233 225.3 234.6 225.8C236.8 226.4 239 226.2 241.1 225.3C241.5 225.1 241.8 224.9 242 224.5C242.4 223.8 243 223.2 242.9 222.3C242.9 221.7 243.3 221.3 243.7 220.8C244.4 219.9 245.5 219.4 246.3 218.7C248 217.3 249.5 215.7 251.1 214.1C252 213.2 252.8 212.4 253.6 211.4C254.2 210.5 255.1 209.5 256 209C257.3 208.3 258.2 207.1 259.3 206.2C260 205.6 260.4 204.8 260.8 204C261.5 202.4 261.3 201.4 259.7 200.5C258.3 199.7 256.8 198.9 255.4 198.1C255 197.5 254.7 196.9 254.3 196.3C253.8 195.6 253.3 194.7 252.3 194.6C251.2 194.6 250.6 193.6 249.6 193.5C248.6 193.5 247.9 192.5 247.1 192C246.2 191.4 245.3 190.9 244.2 190.6C243 190.3 241.8 190.2 240.6 189.9C238.8 189.5 236.9 189.3 235.3 188.2C234.8 187.9 234.1 187.7 233.5 187.5C232.3 187.1 231 186.8 229.8 186.2C228.1 185.3 226.3 184.9 224.4 185C222.8 185.1 221.1 185 219.5 185C218.8 185 218 185 217.3 184.8C216.6 184.5 215.9 184.7 215.1 184.8C213.5 185.2 211.9 185.2 210.3 184.5C208.5 183.7 206.6 183.9 204.8 184.5C203.6 184.9 202.4 185.1 201.2 185.1C200 185.1 198.8 185.1 197.6 185.8C197.2 186 196.7 186 196.2 186.1C195.7 186.1 195.2 186.1 194.7 186.3C192.1 187.1 189.6 188 187 188.9C184.8 189.6 182.6 190.6 180.2 190.7C178.9 190.7 177.6 191.3 176.6 192.1C175.7 192.9 174.8 193.4 173.8 194C172.8 194.6 171.6 195 170.8 196C170.6 196.2 170.2 196.3 169.9 196.4C168.5 196.8 167.4 197.6 166.3 198.4C165.6 198.9 164.9 199.5 164.1 200C161.9 201.3 159.8 202.6 158.1 204.6C157.8 205 157.4 205.3 156.9 205.5C156.2 205.9 155.7 206.4 155.5 207.1C155.1 208.3 154.2 209 153.2 209.6C152.5 210 151.9 210.4 151.6 211.1C151.1 212.2 150.3 213.2 149.5 214.1C149.2 214.4 149.1 214.8 148.9 215.2C148.5 216.1 148.1 217 147.6 218C146.6 217.9 146.2 219 145.3 219.1C144.5 219.1 144.2 219.7 143.8 220.3C143.5 220.9 143.3 221.5 143 222.1C142.3 223.5 141.8 225.2 140.2 226C139.5 226.4 139 227.2 138.8 228C138.3 229.5 137.4 230.8 136.6 232.1C136.2 232.8 135.7 233.4 135.7 234.3C135.7 234.8 135.5 235.2 135.2 235.6C134.6 236.7 133.9 237.8 133.8 238.9C133.6 240.7 132.9 242.4 132.3 244.1C132 245.2 131.6 246.1 132.1 247.2C132.1 247.4 132.3 247.7 132.1 247.9C131.6 249.4 131.8 251 131.1 252.4C130.1 254.5 129.3 256.6 129.6 259C129.6 259.3 129.6 259.7 129.5 260C129.2 261.1 129.2 262.2 129.5 263.4C129.7 263.9 129.7 264.5 129.7 265.1C129.7 266.1 129.4 267.1 129.4 268C129.4 269 129.8 270.1 129.7 271.2C129.5 273.4 129.7 275.6 129.7 277.8C129.7 280.1 130.4 282.1 131.1 284.2C131.4 285 131.7 285.7 131.6 286.6C131.5 287.9 131.9 289.1 132.8 290C133.5 290.7 133.6 291.4 133.6 292.2C133.6 292.8 133.6 293.5 133.9 293.9C134.9 295.1 135.7 296.4 135.9 298C135.9 298 136 298.1 136 298.2C136.9 299.7 137.6 301.2 137.5 303C137.5 303.7 137.6 304.5 137.7 305.2C139.4 306.9 141.1 308.6 142.4 310.6C143.2 311.8 144.2 312.9 145.3 313.9C145.7 314.2 145.9 314.6 146 315.1C146.5 316.6 147.2 318 148.5 319.2C149.9 320.4 151.2 321.8 152.2 323.4C152.6 324 153.2 324.5 153.7 325C155.2 326.5 157.2 327.4 158.6 329.1C158.6 329.1 158.7 329.2 158.8 329.2C160.4 329.5 161.2 330.8 162.2 331.8C162.6 332.2 162.9 332.7 163.4 333C164.9 333.9 166.1 335.1 167.8 335.5C168.5 335.7 169.1 336.1 169.7 336.6C170.4 337.3 171.2 338.1 172 338.3C173.1 338.6 173.9 339.2 174.7 339.9C176 341.1 177.7 341.4 179.2 342.3C179.7 342.6 180.5 342.3 181.1 342.5C181.7 342.7 182.2 343.2 182.8 343.3C183.8 343.5 184.7 343.6 185.5 344.2C186 344.5 186.6 344.8 187.2 345C188.8 345.6 190.3 346.5 192.1 346.2C193.2 346 194.2 346.4 195.1 347C196.4 347.8 197.9 348 199.3 348.2C201.6 348.5 203.9 348.7 206.2 348.7C208.7 348.7 211.2 349.2 213.8 349.2C217.3 349.2 220.7 348.8 224 347.9C225.7 347.4 227.3 347.1 229.1 347.2C230.1 347.2 231 347 232 346.6C233.5 346 234.9 345.2 236.5 344.8C237.8 344.4 239.1 344.4 240.4 344.1C240.6 343.5 241.1 343.3 241.6 342.9C242.5 342.2 243.5 341.8 244.5 341.3C245.1 341 246 341.3 246.5 340.7C247.1 340.1 248.1 340.4 248.6 339.6C250.2 339 251.3 337.8 252.8 337.1C255.1 336.1 257 334.6 258.9 333C259.5 332.5 260.1 332 261 331.7C262 331.5 262.8 330.7 263.7 330.2C265.6 329.3 267 327.5 268.9 326.5C269.8 325.5 271.2 324.8 271.3 323.2C271.3 323 271.5 322.8 271.7 322.6C272.5 321.3 274.2 319.4 275.6 318.3C276.2 317.8 276.9 317.3 277.3 316.6C277.7 315.8 278.4 315.1 279 314.5C280.2 313.4 280.9 312.1 281.6 310.7C282.2 309.4 282.8 308.2 283.8 307.2C284.7 306.2 285.3 305.1 285.7 303.8C286.2 302.2 286.5 300.5 287.6 299.1C288.2 298.2 288.6 297.2 288.6 296.1C288.6 294.2 289.3 292.4 290.3 290.8C290.7 290.1 290.9 289.5 291 288.7C291 287.1 291 285.4 291.8 283.9C292 283.6 291.8 283.1 291.9 282.7C291.9 282.3 291.9 281.8 292.1 281.5C292.6 280.6 292.7 279.5 293.1 278.5C294 276.3 293.9 274.2 293.5 272C293.3 271 293.2 270.1 293.5 269.1C293.8 268.1 293.8 267.2 293.8 266.2C293.8 265.2 293.8 264.2 293.8 263.2C293.8 262.3 293.8 261.4 293.2 260.6C293 260.3 292.9 259.8 292.9 259.4C292.8 257.8 292.7 256.3 293.5 254.8C294 253.8 294 252.7 293.5 251.7C293 250.4 292.4 249.2 291.9 247.9C291.2 246.5 290.8 245 290.9 243.4C291 242.1 290.6 241 289.9 239.9C289.5 239.2 289.1 238.5 288.6 237.8C288.2 237.3 288 236.7 287.9 236C287.9 235 287.6 234.1 287.5 233.1C287.5 232.6 287.3 232.1 287.1 231.7C286.3 229.9 285.5 228.2 283.9 226.8C282.5 225.6 281.7 223.9 281.6 222.1C281.5 220.6 280.9 219.5 279.9 218.4C278.9 217.3 278.1 216 277 215.1C275.6 213.9 274.5 212.4 272.7 211.8L273.2 212.2Z" fill="#000030"/>
</svg>
