<svg width="457" height="431" viewBox="0 0 457 431" fill="none" xmlns="http://www.w3.org/2000/svg">
<path d="M230.306 0.4C234.606 0.2 239.406 0.100001 243.706 0.800001C249.406 1.8 255.106 2.7 260.706 3.9C263.006 4.4 265.306 4.2 267.506 4.5C269.706 4.8 273.906 6.4 276.306 7.2C289.406 11.4 303.806 16.1 316.006 22.2C329.406 28.9 345.206 38.8 356.806 48.4C368.406 58 359.506 51.3 360.906 52.5C362.306 53.7 364.506 54.7 366.006 56C370.106 59.6 373.306 64 376.906 68.1C379.206 70.8 382.906 73.4 384.906 76.1C386.906 78.8 386.506 79.3 387.606 80.8C388.706 82.3 390.406 83.4 391.506 84.7C392.606 86 393.506 88.2 394.606 89.8C396.606 92.6 398.906 94 400.306 97.2C404.106 105.6 407.906 113.8 411.406 122.3C414.906 130.8 413.406 128.8 415.306 131.1C417.206 133.4 418.206 132.6 421.206 133C426.906 133.6 433.606 138.9 437.906 142.6C441.706 145.9 445.206 149.6 447.806 153.9C450.406 158.2 449.206 157.2 450.206 158.6C451.206 160 450.806 159.2 451.006 159.6C452.206 161.6 452.606 164.1 453.006 166.3C453.406 168.5 454.006 169.1 454.306 170.5C454.606 171.9 454.706 173.2 455.006 174.5C455.306 175.8 455.206 176.5 455.306 177.4C455.406 178.3 455.706 178.9 455.706 179.8C455.706 180.7 455.306 181.7 455.306 182.7C455.306 183.7 455.306 184.7 455.306 185.7C455.306 187.7 456.106 189.6 456.106 191.6C456.106 193.6 456.206 194 456.006 195.1C455.806 196.2 455.806 197.4 455.706 198.6C455.606 199.8 455.106 200.4 455.306 201.3C455.506 202.2 455.806 202.8 455.906 203.6C456.206 205 456.006 206.2 455.806 207.6C455.606 209.1 455.706 210.6 456.106 212.1C456.506 213.6 456.106 215.5 456.106 217.1C455.806 220.9 455.406 224.7 454.606 228.4C452.306 240 446.106 248.6 437.006 256C433.406 258.9 429.806 262.7 425.306 264C420.806 265.3 418.606 265 417.106 267.7C416.406 269 416.406 271.7 416.106 273.3C413.506 287.6 410.906 300.1 404.906 313.5C398.906 326.9 402.906 320.1 401.506 322.8C400.106 325.5 399.006 325.4 398.006 327.1C395.306 331.3 393.206 336.1 390.106 340.2C387.606 343.5 382.506 350 379.706 352.8C377.506 354.9 373.906 356.7 371.506 358.9C369.806 360.5 368.406 362.9 367.206 364.1C366.006 365.3 364.106 365.5 362.906 366.4C361.706 367.3 360.906 368.6 359.706 369.4C356.106 371.9 351.706 373.1 348.006 375C345.206 376.4 342.506 378.7 339.506 380.1C337.506 381 335.206 381.2 333.306 382.1C327.006 385.2 322.606 389.3 315.306 390.8C312.506 391.4 310.406 392.4 308.306 392.8C306.206 393.2 304.406 393 302.706 393.4C301.006 393.8 300.706 394.5 299.606 394.9C297.206 395.6 294.506 395.3 292.006 395.9C284.506 397.9 279.706 398.1 272.206 399.1C269.606 399.5 266.906 400.4 264.306 400.6C262.106 401.6 262.806 404 262.506 405.8C262.206 407.6 260.406 411.2 259.906 412.3C259.106 413.9 256.806 417.5 255.706 418.8C254.106 420.8 249.106 423.3 246.606 424.5C244.106 425.7 240.906 427.4 238.506 428.3C234.106 430.1 231.006 429.5 226.506 429.9C222.006 430.3 222.606 430.8 220.806 430.8C219.006 430.8 211.006 428.1 209.006 427.4C200.306 424.1 193.706 419.1 187.206 412.6C184.406 405.7 181.806 400.2 182.806 392.4C183.806 384.6 186.206 382.8 186.706 381.9C188.006 379.8 194.806 373.9 197.006 372.5C201.506 369.7 205.706 368.6 210.706 367.3C216.606 365.7 225.806 367.1 232.306 366.7C238.806 366.3 241.106 369.7 245.806 371.7C250.506 373.7 250.106 372.8 251.606 373.7C254.706 375.5 256.206 380.4 258.606 383.1C261.006 385.8 263.306 383.9 266.406 383.5C269.506 383.1 270.306 383.6 272.106 383.5C276.806 383.1 281.206 381.5 285.806 380.7C295.906 378.9 305.206 376.9 315.006 373.7C324.306 370.7 332.806 366.1 341.106 361.2C349.406 356.3 343.506 360.2 344.406 359.6C345.906 358.6 347.106 356.7 348.606 355.6C351.206 353.9 355.006 352.9 357.406 351.2C359.806 349.5 361.306 347.9 363.006 346.5C370.206 340.5 374.706 334.2 380.506 327C386.906 319 391.506 307.5 395.106 298C396.606 294.1 396.806 293.8 397.306 289.6C398.206 282.6 399.806 276.3 400.206 269.1C400.306 266.2 399.606 263.6 399.806 260.9C400.306 252.4 401.206 242.3 400.706 233.8C400.606 231.9 399.806 229.5 399.806 227.7C399.806 225.9 401.406 223.8 401.406 221.5C401.406 214.3 401.706 204.1 401.006 197.2C400.306 190.3 400.106 194.9 400.106 193.5C400.106 191.5 401.306 189.1 401.406 186.9C401.506 184.7 400.306 181 400.606 177.9C401.106 172.3 401.506 167.6 401.406 161.8C401.306 156 401.406 155.8 401.406 152.8C401.206 146.8 402.306 140.4 400.106 134.8C397.906 129.2 396.706 127.2 395.106 123.4C391.906 116.2 388.906 108.5 384.206 102.2C379.506 95.9 378.606 94.4 376.106 90.6C373.606 86.8 372.406 83.9 369.306 81.4C366.206 78.9 366.406 80 365.406 78.7C364.406 77.4 364.406 76.4 363.806 75.3C362.406 72.7 356.706 69.2 354.106 66.6C348.506 61 343.506 57.7 337.106 53.2C332.606 50 328.106 45.3 323.006 43.1C320.906 42.2 319.606 42.3 317.606 40.7C313.006 37.1 305.206 33.5 299.406 31.8C297.706 31.3 296.106 31.3 294.406 30.7C292.706 30.1 290.106 27.9 287.506 26.9C283.806 25.5 279.206 23.8 275.406 22.6C271.606 21.4 269.806 21.9 266.706 21.5C263.606 21.1 263.506 19.7 261.706 19.5C256.806 18.9 251.906 18.5 247.006 17.8C242.106 17.1 242.706 16.8 240.806 16.6C236.306 16.2 231.506 17.3 227.206 17C211.806 16.1 196.106 19.9 181.106 23C173.806 24.5 167.506 26.7 160.606 29.6C153.706 32.5 146.906 35.9 139.906 38.9C132.906 41.9 131.506 44.2 127.306 46.8C123.106 49.4 119.806 51.3 115.206 54.9C110.606 58.5 106.306 61.7 102.106 65.2C97.9064 68.7 99.4064 69.1 98.0064 70.5C96.6064 71.9 94.9064 71.6 93.5064 73.4C92.1064 75.2 92.3064 76.1 91.5064 77.1C90.7064 78.1 89.6064 78.4 88.8064 79.3C79.8064 89.8 67.8064 104.9 62.8064 117.8C60.2064 124.6 57.4064 131.2 54.5064 137.8C55.1064 149.7 53.8064 162.2 54.5064 174C54.6064 175.7 55.2064 177.8 55.3064 179.4C55.4064 181 54.6064 182.6 54.5064 183.9C54.2064 187.7 55.5064 190.8 55.3064 194.2C55.1064 197.6 54.9064 199.8 54.9064 202.8C54.9064 210.4 54.5064 218.1 54.9064 225.8C55.3064 233.5 53.9064 232.3 54.1064 235.7C54.4064 241.5 55.1064 247.1 54.5064 252.9C53.9064 258.7 53.8064 255.1 53.7064 256.2C53.6064 257.3 53.8064 258.7 53.7064 259.9C53.3064 262.4 49.8064 264.8 47.6064 265.3C45.4064 265.8 44.1064 265.8 43.3064 265.8C38.2064 265.8 29.6064 264.7 25.5064 261.5C22.0064 258.8 18.0064 255.6 14.6064 252.7C12.3064 250.8 6.00641 242.6 5.10641 240C3.20641 234 1.60641 227.1 1.20641 220.9C1.10641 219.2 1.40641 217.3 1.20641 215.6C1.00641 213.9 -0.0935891 212.3 0.00641088 210.2C0.106411 208.1 1.70641 204.8 1.70641 202.4C1.70641 200 0.50641 199 0.40641 197.1C0.30641 195.2 1.50641 191.9 1.70641 189.3C2.30641 182.1 0.506411 178.1 3.00641 170.5C5.50641 162.9 4.60641 167.7 4.90641 166.2C5.20641 164.7 4.70641 162.6 5.10641 161C5.50641 159.4 7.50641 156.8 8.40641 155.2C10.1064 152.2 10.2064 151.7 12.4064 149C18.3064 141.6 26.0064 134.3 35.7064 132.8C45.4064 131.3 37.3064 132.9 38.1064 132.7C38.9064 132.5 39.8064 130.7 40.2064 129.9C42.0064 125.9 43.2064 120.7 45.3064 116.9C47.4064 113.1 47.6064 114 48.3064 112.5C49.0064 111 49.9064 107.9 51.2064 105.9C56.6064 97 63.0064 87 69.2064 78.7C75.4064 70.4 74.1064 73.9 75.9064 71.5C77.7064 69.1 77.4064 68.6 78.3064 67.3C80.6064 63.7 85.8064 60.4 88.9064 57C92.0064 53.6 90.6064 54.4 91.8064 53.3C93.0064 52.2 95.4064 51.2 97.1064 50C100.106 48 102.806 44.3 105.806 42.2C108.806 40.1 111.006 38.7 113.806 36.6C117.906 33.6 122.406 31.8 126.306 29C130.206 26.2 127.706 27.3 128.606 26.8C131.806 24.9 136.806 24 140.406 22.1C144.006 20.2 144.806 19.1 147.006 18C152.906 15.1 159.806 12.9 166.206 10.9C172.606 8.9 180.706 7 187.906 5C195.106 3 198.406 3.4 203.506 2.5C212.806 0.9 221.706 0.5 231.006 0L230.306 0.4Z" fill="#000030"/>
<path d="M218.806 43.1002C221.706 42.8002 223.406 43.8002 225.706 43.8002C228.006 43.8002 229.706 42.9002 231.906 43.0002C234.106 43.1002 235.006 44.1002 236.406 44.3002C238.506 44.5002 240.706 43.7002 243.006 43.9002C248.506 44.2002 253.606 46.5002 259.106 47.2002C264.606 47.9002 262.006 47.1002 263.506 47.3002C266.106 47.7002 269.706 49.6002 272.306 50.4002C281.906 53.3002 290.306 56.1002 299.406 60.7002C306.106 64.1002 314.906 68.2002 321.106 72.3002C327.306 76.4002 323.306 74.6002 324.506 75.5002C329.506 79.5002 337.006 85.0002 340.906 89.9002C344.806 94.8002 343.306 93.1002 345.606 95.4002C349.606 99.4002 351.006 102.6 354.206 106.5C356.506 109.2 359.306 110.9 360.706 114.4C363.406 121.1 367.606 126.7 370.306 133.1C371.306 135.5 371.806 138.7 372.806 141.3C373.806 143.9 376.006 147.4 376.606 150.2C379.406 161.9 382.206 173 383.806 184.9C383.906 185.9 383.706 187.1 383.806 188.2C383.906 189.3 385.006 191 385.006 192.3C385.006 194.6 383.906 198.1 383.706 200.5C383.506 202.9 383.906 205.5 383.706 207.9C383.206 216.3 381.206 226.5 379.506 234.9C377.806 243.3 374.806 247.3 372.606 253.9C371.606 256.9 371.406 259.2 369.806 262.2C368.206 265.2 366.606 268.1 365.106 271.1C363.606 274.1 361.206 276.5 358.806 280C356.406 283.5 353.506 289.8 350.606 292.3C345.406 296.7 343.806 299.7 339.506 304.6C335.206 309.5 333.406 308.9 330.506 311.6C328.606 313.3 327.306 315.5 325.406 317.2C319.406 322.3 313.206 325 306.606 328.8C302.906 330.9 298.706 334.3 294.806 335.9C290.906 337.5 284.206 339.1 279.306 341C274.406 342.9 272.306 344.7 270.306 345.1C266.006 346 261.206 346.2 256.706 347.5C252.206 348.8 253.506 349.2 252.406 349.3C242.406 350.8 227.106 352 217.106 351C207.106 350 213.906 349.9 212.206 349.8C209.706 349.6 205.406 349.4 203.406 350.9C201.406 352.4 200.306 353.6 199.306 354.6C195.106 358.4 191.506 363.6 187.006 366.9C185.506 368 183.206 368.8 181.706 369.8C180.206 370.8 178.606 372.7 177.106 373.9C175.606 375 173.706 375.6 172.106 376.7C169.506 378.4 166.806 380.8 164.106 382.3C161.406 383.8 158.906 384.9 156.006 386.6C149.006 390.6 140.806 393.1 133.306 396C127.506 398.2 120.406 399.3 114.306 400.8C105.106 403 96.9063 404 87.3063 403.4C77.7063 402.8 71.9063 401.5 67.4063 395.8C65.8063 393.7 65.6063 392.7 65.7063 390C66.1063 384.5 69.1063 383.3 72.0063 379.5C74.9063 375.7 73.7063 375.8 75.5063 374.4C78.1063 372.4 81.0063 368.9 83.3063 366.2C87.5063 361.2 90.1063 356.3 93.4063 350.8C96.7063 345.3 95.4063 348.7 96.0063 347.6C97.4063 345.3 98.1063 341 99.4063 338.3C100.706 335.6 103.206 332.3 104.606 329.1C106.006 325.9 106.006 324.4 106.906 322.4C107.806 320.4 108.706 320.1 109.006 319.1C109.306 318.1 109.206 315.9 109.706 314.4C110.206 312.9 111.906 310 112.506 307.7C113.506 304.3 112.506 302.7 110.806 299.9C107.806 295.1 103.706 292.2 100.806 288.1C97.5063 283.3 93.5063 276.9 90.4063 271.8C87.3063 266.7 82.4063 257.2 82.1063 255C81.1063 248.1 77.4063 243 76.0063 236C74.6063 229 75.4063 230.9 75.0063 228.4C74.6063 225.9 72.6063 221.1 72.3063 218C72.0063 214.9 72.5063 213 72.3063 210.6C72.1063 208.2 71.5063 208.5 71.5063 207.7C71.3063 203.7 72.3063 198.3 71.9063 194.2C71.5063 190.1 70.7063 191 71.1063 188.5C71.5063 186 71.6063 184.1 71.9063 181.5C72.3063 177.2 73.9063 173.5 74.4063 169.2C74.9063 164.9 74.2063 166.4 74.4063 165.1C74.9063 161.2 76.5063 156.5 77.3063 152.4C78.1063 148.3 79.3063 149.8 79.9063 148.4C80.5063 147 81.0063 144.2 81.6063 142.3C84.5063 133.6 89.1063 125.6 93.5063 117.7C97.9063 109.8 101.506 106.4 105.506 101.3C109.306 96.4002 113.306 91.9002 117.606 87.5002C124.206 80.9002 131.706 75.9002 139.206 70.5002C146.706 65.1002 145.106 67.6002 147.806 65.5002C150.506 63.4002 149.906 63.2002 151.206 62.4002C153.806 60.9002 157.906 60.1002 160.606 58.7002C163.306 57.3002 165.306 55.3002 168.506 54.3002C175.206 52.1002 182.006 50.3002 188.706 48.2002C199.006 44.9002 208.006 44.0002 218.806 43.0002V43.1002ZM332.106 287.6C333.806 286 336.006 285.1 337.906 283C345.506 274.8 351.706 263.6 356.706 253.7C361.006 245.1 363.606 233 366.306 223.8C368.906 214.8 368.806 203.8 369.006 194.4C369.106 188.9 368.606 182.3 367.706 176.8C366.806 171.3 366.106 173.1 365.606 171.5C363.606 165.2 362.906 158.5 361.006 152.2C359.106 145.9 358.406 147 357.606 144.5C356.806 142 356.706 139.2 354.706 135.9C352.706 132.6 351.406 130.3 349.606 126.6C346.606 120.5 340.906 114.5 336.806 109C332.706 103.5 324.306 94.8002 317.506 89.3002C310.706 83.8002 313.406 87.2002 311.606 85.8002C309.806 84.4002 307.806 83.5002 305.806 82.1002C303.806 80.7002 304.306 80.4002 303.206 79.8002C302.106 79.2002 300.006 79.1002 298.506 78.3002C297.006 77.5002 295.306 75.7002 293.506 74.7002C290.006 72.9002 286.106 71.6002 282.506 70.1002C278.906 68.6002 277.406 67.0002 271.906 65.9002C266.406 64.8002 264.606 63.9002 260.606 62.4002C256.606 60.9002 252.206 60.6002 249.306 60.2002C243.306 59.3002 238.006 59.7002 232.106 59.4002C226.206 59.1002 227.406 58.6002 225.506 58.5002C223.606 58.4002 221.106 59.2002 219.406 59.4002C216.206 59.6002 212.406 59.2002 209.506 59.4002C206.606 59.6002 207.206 60.4002 206.106 60.6002C199.206 62.0002 192.206 63.0002 185.406 65.0002C178.606 67.0002 180.706 67.7002 178.706 68.6002C175.006 70.3002 172.306 71.3002 168.706 73.4002C165.106 75.5002 165.006 74.4002 163.106 75.2002C161.206 76.0002 160.606 77.5002 159.406 78.1002C157.406 79.0002 154.806 79.1002 152.606 80.4002C143.706 85.6002 134.606 93.6002 127.406 100.8C120.206 108 118.406 110.9 114.006 116.2C109.606 121.5 108.006 125.9 104.806 130.4C98.7063 138.9 96.5063 148.2 93.0063 157.6C89.5063 167 90.8063 164 90.5063 165.8C90.2063 167.6 90.5063 169.2 90.3063 171C89.9063 173.9 87.8063 176.6 87.5063 179.8C87.2063 183 88.2063 183.7 87.9063 185.9C87.6063 188.1 86.4063 189.4 86.3063 191.3C86.2063 193.2 86.7063 192.8 86.7063 193.7C86.7063 195 86.1063 196.2 86.2063 197.8C86.4063 201.1 86.8063 202 86.6063 205.6C86.4063 209.2 87.8063 216 88.6063 220.5C89.4063 225 89.3063 226 90.1063 228.4C90.9063 230.8 91.4063 230.4 91.5063 231.5C92.0063 235.2 91.9063 237.1 93.1063 241C95.7063 248.9 99.6063 257.1 103.906 264.3C108.206 271.5 109.706 270.9 111.406 274.9C113.106 278.9 115.106 282.6 118.606 286.2C122.406 290.2 127.806 292.7 129.506 298.3C131.206 303.9 130.506 302.4 130.506 303C130.506 304.3 128.406 307.6 127.806 309.4C126.206 314.6 125.806 319.6 123.406 324.7C121.006 329.8 121.706 327.1 121.206 328.3C119.506 332.4 118.906 337.7 116.806 341.6C114.706 345.5 115.406 344.4 114.506 346.7C113.606 349 111.906 350.3 110.806 352C108.906 355 107.806 358.9 105.706 361.7C100.906 368.2 96.3063 373.3 92.6063 380.6C88.9063 387.9 88.6063 385.7 94.1063 386.2C99.6063 386.7 100.906 385.7 105.306 384.6C109.706 383.5 111.306 384.2 114.206 383.6C120.606 382.2 127.306 381.3 133.506 379.1C143.106 375.8 153.106 370.3 161.806 365C168.406 361 174.606 356.3 180.306 351C185.106 346.5 190.806 339.3 195.706 335.6C200.606 331.9 203.206 332.8 207.506 333.7C211.806 334.6 211.306 335.1 212.906 335.2C218.006 335.7 223.706 335.4 228.906 335.6C237.606 336 246.606 333.7 255.206 332.7C257.406 332.4 259.406 331.1 261.106 330.8C262.806 330.5 264.806 330.6 266.606 330.1C268.406 329.6 269.606 328.6 271.106 328C281.406 324.3 291.106 321.2 300.406 315C309.706 308.8 314.106 306.4 320.006 300.9C325.906 295.4 322.106 298.4 323.106 297.4C325.206 295.4 327.806 294.3 329.706 291.6C331.606 288.9 331.106 288.6 332.106 287.6Z" fill="#000030"/>
<path d="M321.506 126.5C326.206 125.5 328.506 127.9 329.006 132.4C329.306 134.8 328.606 134.9 328.006 136.7C326.406 141.3 326.806 139.4 323.706 142.2C319.906 145.6 316.306 150 312.606 153.7C308.906 157.4 306.006 160.5 302.506 164.2C299.006 167.9 295.406 170.9 292.006 174.2C288.606 177.5 289.106 177.5 287.506 179.1C285.006 181.6 283.406 184.4 281.406 186.5C279.406 188.6 274.506 191.6 271.706 194.9C268.906 198.2 266.906 201 263.906 204C260.906 207 257.406 210.7 253.606 213.8C249.806 216.9 250.806 217.4 249.306 218.5C247.806 219.6 246.706 219.6 245.806 220.4C244.906 221.2 244.406 222.8 243.706 223.7C241.406 226.8 238.406 229.4 235.706 232.1C231.706 236.2 227.906 240.1 224.006 244.2C221.506 246.8 218.406 248.9 216.206 251.6C214.006 254.3 213.506 256 211.506 257.6C209.506 259.2 208.406 259.2 207.206 260.7C203.206 265.4 198.906 269.8 194.506 274.3C191.606 277.2 188.106 280.4 185.506 283.3C182.406 286.7 179.106 291.8 175.506 294.6C171.906 297.4 170.406 296.4 168.306 296C166.206 295.6 163.606 291.7 163.606 290C163.606 285.4 168.706 282.4 171.006 279.3C173.306 276.2 172.206 276.7 173.006 275.6C174.906 273 178.206 270.8 180.406 268.6C186.406 262.7 191.906 256.2 197.806 250.3C199.906 248.2 202.606 246.3 204.406 244.2C206.206 242.1 207.906 239.2 210.806 236.6C216.506 231.4 222.506 226.7 227.706 221C231.606 216.7 234.606 212.4 238.806 208.2C240.606 206.4 242.206 204.5 243.806 202.9C245.406 201.3 248.006 200.5 249.306 199C250.606 197.5 250.606 196.3 251.506 195.1C254.106 191.7 258.506 189.1 261.206 186.3C263.906 183.5 262.506 183.9 263.306 183C264.806 181.1 267.306 178.1 269.006 176.4C270.706 174.7 271.606 174.8 272.706 174C273.806 173.2 274.906 171.2 276.206 170.1C279.206 167.5 280.906 166.2 283.606 163.1C291.106 154.7 299.706 147.4 307.206 139.1C310.006 136 312.406 131.6 316.006 129C319.606 126.4 321.006 126.5 321.606 126.4L321.506 126.5Z" fill="#000030"/>
<path d="M161.706 114.2C164.106 113.9 168.206 114.6 170.506 115.4C172.806 116.2 179.706 120.6 181.306 121.9C182.906 123.2 186.106 128.5 186.306 128.9C186.606 129.8 187.406 134 187.306 134.9C186.906 141.5 186.006 146 182.106 151.5C178.206 157 167.506 162.2 160.706 167.5C153.906 172.8 157.306 170.8 157.606 172.2C157.806 172.7 158.106 172.8 158.606 172.9C161.106 173.2 165.406 172.9 168.106 172.9C170.806 172.9 172.706 173 175.906 173.3C179.106 173.6 179.606 173.1 181.506 173.5C183.406 173.9 187.806 176.6 187.706 178.9C187.606 181.2 186.106 184.3 183.806 186.1C180.106 189 178.306 187.1 174.406 186.9C170.506 186.7 170.506 187.6 168.606 187.8C166.706 188 165.806 187.3 164.506 187.4C163.206 187.5 161.706 188.3 160.306 188.2C158.906 188.1 156.706 187.1 155.006 186.9C152.406 186.7 149.906 187.5 147.206 187.3C144.506 187.1 142.706 187.5 139.406 187.7C132.406 188.2 121.306 187.9 122.806 178C123.206 175.4 127.006 174 128.906 172.6C133.506 169.2 137.906 165.8 142.306 162.2C146.706 158.6 155.206 154.6 160.806 149.9C166.406 145.2 163.506 146.9 164.906 145.8C166.306 144.7 168.806 143.6 170.406 141.5C173.206 137.8 173.406 135.3 169.806 132.3C166.206 129.3 163.906 129.4 160.006 129.9C156.106 130.4 149.606 132 148.106 132.8C145.806 134.1 144.206 135.9 141.406 136.3C138.606 136.7 134.106 136.7 132.806 135.6C131.506 134.5 130.306 129.7 130.706 128.2C131.106 126.7 134.106 123.8 135.206 122.9C139.706 119.4 145.706 116.9 151.306 115.6C154.406 114.9 158.206 114.8 161.606 114.4L161.706 114.2Z" fill="#000030"/>
<path d="M213.506 113.7C215.306 113.3 219.806 115.7 220.806 117.3C222.606 120.4 221.606 125.1 220.906 128.5C219.706 134.4 217.606 140.3 216.506 146.3C216.306 150.5 222.206 148.4 224.606 148.5C227.006 148.6 228.306 148.5 230.706 148.5C233.106 148.5 238.006 148.9 239.106 148.3C240.206 147.7 241.506 144.9 241.806 144C242.306 142.3 241.806 140.4 242.206 138.6C242.606 136.8 244.306 134.8 245.106 132.9C245.906 131 246.306 128.6 247.006 126.6C247.706 124.6 249.306 120.2 250.206 119.1C251.606 117.4 254.806 116.4 256.906 116.9C259.006 117.4 260.006 118.9 260.706 119.7C263.206 122.7 261.706 124.5 261.406 127.8C261.106 131.1 261.706 129.2 261.706 130.1C261.506 132.9 259.706 135.8 259.406 138.5C259.106 141.2 259.406 141.4 259.206 142.8C258.806 145 256.906 146.9 256.306 148.9C254.606 154.3 253.506 159.9 251.806 165.4C250.806 168.4 249.206 172.2 248.406 175.1C247.906 177.1 248.006 179.3 247.606 181.3C247.206 183.3 245.106 187.1 243.706 188.9C242.306 190.7 241.006 192.1 238.306 191.4C235.606 190.7 232.406 187.8 231.606 186.6C230.806 185.4 230.706 185.2 230.606 184.7C230.306 183.1 230.006 179.4 230.106 177.8C230.206 176.2 230.706 174.1 231.106 172.7C232.006 169.9 235.606 163.2 229.906 163.2C224.206 163.2 223.606 164.4 221.306 164.5C219.006 164.6 215.606 163.6 212.306 163.7C209.006 163.8 202.006 162.2 199.506 160.4C197.006 158.6 197.406 158.5 197.306 158.1C196.806 156.5 197.306 150.2 197.706 148.4C198.106 146.6 200.206 143.3 200.706 141.1C201.206 138.9 200.706 138.3 201.106 137C201.706 134.9 203.906 133 204.606 130.7C205.606 127.4 205.806 123.2 207.406 119.9C209.006 116.6 212.106 114 213.506 113.7Z" fill="#000030"/>
<path d="M318.706 223.9C319.806 223.8 323.106 224.1 324.006 224.5C324.906 224.9 327.806 227.9 328.206 228.6C329.706 231.4 327.506 235.3 325.806 237.6C324.106 239.9 322.406 242.4 320.906 244.2C319.406 246 318.506 246.1 317.406 247.3C315.706 249.3 315.006 252.8 313.206 255.1C311.406 257.4 307.906 260 305.306 263.6C302.906 267 300.706 269.1 298.206 272.2C295.706 275.3 292.906 280 290.006 283.7C287.606 286.7 282.806 292.5 278.706 293C276.006 293.3 274.306 293 272.706 290.7C271.106 288.4 271.506 284.9 272.706 282.9C273.906 280.9 275.806 278.1 276.706 277.1C277.606 276.1 279.406 275.1 280.606 273.6C281.806 272.1 283.006 269.1 284.406 267.1C286.906 263.3 291.506 257.3 294.406 253.7C296.606 251 299.606 249 301.606 246.1C303.606 243.2 304.906 240.8 302.806 240C299.106 239.4 295.506 239 291.806 239.1C286.606 238.8 280.906 239.9 275.806 239.5C270.706 239.1 272.806 238.8 271.306 238.7C269.806 238.6 268.206 238.9 266.506 238.5C264.806 238.1 260.906 236.1 260.206 234.6C259.506 233.2 260.006 228.6 261.006 227.2C262.006 225.8 268.206 224.6 270.506 224.7C274.106 225 280.506 225.4 284.106 225.1C287.706 224.8 287.606 224.6 290.606 224.7C299.906 225.1 309.506 225 318.706 224V223.9Z" fill="#000030"/>
</svg>
